<svg width="24" height="24" viewBox="0 0 24 24" fill="none" xmlns="http://www.w3.org/2000/svg">
<path fill-rule="evenodd" clip-rule="evenodd" d="M22.0964 16.9823C21.1908 16.0092 19.4963 14.5453 19.4963 9.75C19.4963 6.10781 16.9425 3.19219 13.4991 2.47688V1.5C13.4991 0.671719 12.8278 0 12 0C11.1722 0 10.501 0.671719 10.501 1.5V2.47688C7.05753 3.19219 4.50378 6.10781 4.50378 9.75C4.50378 14.5453 2.80925 16.0092 1.90363 16.9823C1.62238 17.2847 1.49769 17.6461 1.50003 18C1.50519 18.7687 2.10847 19.5 3.00472 19.5H20.9953C21.8916 19.5 22.4953 18.7687 22.5 18C22.5024 17.6461 22.3777 17.2842 22.0964 16.9823ZM4.6655 17.25C5.66019 15.9389 6.74769 13.7658 6.75284 9.77719C6.75284 9.76781 6.75003 9.75937 6.75003 9.75C6.75003 6.85031 9.10034 4.5 12 4.5C14.8997 4.5 17.25 6.85031 17.25 9.75C17.25 9.75937 17.2472 9.76781 17.2472 9.77719C17.2524 13.7662 18.3399 15.9394 19.3346 17.25H4.6655ZM12 24C13.6557 24 14.9986 22.657 14.9986 21H9.00144C9.00144 22.657 10.3444 24 12 24Z" fill="#06719F"/>
</svg>
