<svg width="36" height="36" viewBox="0 0 36 36" fill="none" xmlns="http://www.w3.org/2000/svg">
<path opacity="0.4" d="M22.5 20.25H36V30.375C36 32.175 34.425 33.75 32.625 33.75H3.375C1.575 33.75 0 32.175 0 30.375V20.25H13.5V23.625C13.5 23.9234 13.6185 24.2095 13.8295 24.4205C14.0405 24.6315 14.3266 24.75 14.625 24.75H21.375C21.6734 24.75 21.9595 24.6315 22.1705 24.4205C22.3815 24.2095 22.5 23.9234 22.5 23.625V20.25Z" fill="white"/>
<path d="M32.625 9H27V5.625C27 3.825 25.425 2.25 23.625 2.25H12.375C10.575 2.25 9 3.825 9 5.625V9H3.375C1.575 9 0 10.575 0 12.375V18H36V12.375C36 10.575 34.425 9 32.625 9ZM22.5 9H13.5V6.75H22.5V9Z" fill="white"/>
</svg>
