<svg width="20" height="20" viewBox="0 0 24 24" fill="none" xmlns="http://www.w3.org/2000/svg">
<path class="icon" fill-rule="evenodd" clip-rule="evenodd" d="M8.4375 13.5H6.5625C6.25313 13.5 6 13.2469 6 12.9375V11.0625C6 10.7531 6.25313 10.5 6.5625 10.5H8.4375C8.74687 10.5 9 10.7531 9 11.0625V12.9375C9 13.2469 8.74687 13.5 8.4375 13.5ZM13.5 12.9375V11.0625C13.5 10.7531 13.2469 10.5 12.9375 10.5H11.0625C10.7531 10.5 10.5 10.7531 10.5 11.0625V12.9375C10.5 13.2469 10.7531 13.5 11.0625 13.5H12.9375C13.2469 13.5 13.5 13.2469 13.5 12.9375ZM18 12.9375V11.0625C18 10.7531 17.7469 10.5 17.4375 10.5H15.5625C15.2531 10.5 15 10.7531 15 11.0625V12.9375C15 13.2469 15.2531 13.5 15.5625 13.5H17.4375C17.7469 13.5 18 13.2469 18 12.9375ZM13.5 17.4375V15.5625C13.5 15.2531 13.2469 15 12.9375 15H11.0625C10.7531 15 10.5 15.2531 10.5 15.5625V17.4375C10.5 17.7469 10.7531 18 11.0625 18H12.9375C13.2469 18 13.5 17.7469 13.5 17.4375ZM9 17.4375V15.5625C9 15.2531 8.74687 15 8.4375 15H6.5625C6.25313 15 6 15.2531 6 15.5625V17.4375C6 17.7469 6.25313 18 6.5625 18H8.4375C8.74687 18 9 17.7469 9 17.4375ZM18 17.4375V15.5625C18 15.2531 17.7469 15 17.4375 15H15.5625C15.2531 15 15 15.2531 15 15.5625V17.4375C15 17.7469 15.2531 18 15.5625 18H17.4375C17.7469 18 18 17.7469 18 17.4375ZM22.5 5.25V21.75C22.5 22.9922 21.4922 24 20.25 24H3.75C2.50781 24 1.5 22.9922 1.5 21.75V5.25C1.5 4.00781 2.50781 3 3.75 3H6V0.5625C6 0.253125 6.25313 0 6.5625 0H8.4375C8.74687 0 9 0.253125 9 0.5625V3H15V0.5625C15 0.253125 15.2531 0 15.5625 0H17.4375C17.7469 0 18 0.253125 18 0.5625V3H20.25C21.4922 3 22.5 4.00781 22.5 5.25ZM20.25 21.4688V7.5H3.75V21.4688C3.75 21.6234 3.87656 21.75 4.03125 21.75H19.9688C20.1234 21.75 20.25 21.6234 20.25 21.4688Z" fill="#06719F"/>
</svg>
