<svg width="24" height="24" viewBox="0 0 24 24" fill="none" xmlns="http://www.w3.org/2000/svg">
<path fill-rule="evenodd" clip-rule="evenodd" d="M18.6 16.5H19.65C19.95 16.5 20.25 16.2 20.25 15.9V5.1C20.25 4.8 19.95 4.5 19.65 4.5H18.6C18.3 4.5 18 4.8 18 5.1V15.9C18 16.2 18.3 16.5 18.6 16.5ZM9.6 16.5H10.65C10.95 16.5 11.25 16.2 11.25 15.9V6.6C11.25 6.3 10.95 6 10.65 6H9.6C9.3 6 9 6.3 9 6.6V15.9C9 16.2 9.3 16.5 9.6 16.5ZM14.1 16.5H15.15C15.45 16.5 15.75 16.2 15.75 15.9V9.6C15.75 9.3 15.45 9 15.15 9H14.1C13.8 9 13.5 9.3 13.5 9.6V15.9C13.5 16.2 13.8 16.5 14.1 16.5ZM23.25 18.75H2.25V3.75C2.25 3.33562 1.91438 3 1.5 3H0.75C0.335625 3 0 3.33562 0 3.75V19.5C0 20.3283 0.671719 21 1.5 21H23.25C23.6644 21 24 20.6644 24 20.25V19.5C24 19.0856 23.6644 18.75 23.25 18.75ZM5.1 16.5H6.15C6.45 16.5 6.75 16.2 6.75 15.9V12.6C6.75 12.3 6.45 12 6.15 12H5.1C4.8 12 4.5 12.3 4.5 12.6V15.9C4.5 16.2 4.8 16.5 5.1 16.5Z" fill="#06719F"/>
</svg>
