<svg width="24" height="24" viewBox="0 0 10 10" fill="none" xmlns="http://www.w3.org/2000/svg">
<path d="M9.84375 5C9.84375 7.67514 7.67514 9.84375 5 9.84375C2.32486 9.84375 0.15625 7.67514 0.15625 5C0.15625 2.32486 2.32486 0.15625 5 0.15625C7.67514 0.15625 9.84375 2.32486 9.84375 5ZM4.43973 7.56473L8.03348 3.97098C8.15551 3.84895 8.15551 3.65107 8.03348 3.52904L7.59154 3.08711C7.46951 2.96506 7.27164 2.96506 7.14959 3.08711L4.21875 6.01793L2.85041 4.64959C2.72838 4.52756 2.53051 4.52756 2.40846 4.64959L1.96652 5.09152C1.84449 5.21355 1.84449 5.41143 1.96652 5.53346L3.99777 7.56471C4.11982 7.68676 4.31768 7.68676 4.43973 7.56473Z" fill="#99CC00"/>
</svg>
