<svg width="80" height="80" viewBox="0 0 80 80" fill="none" xmlns="http://www.w3.org/2000/svg">
<path opacity="0.4" d="M40 0C17.9032 0 0 17.9032 0 40C0 62.0968 17.9032 80 40 80C62.0968 80 80 62.0968 80 40C80 17.9032 62.0968 0 40 0ZM65.05 31.5016L35.3726 61.179C34.8887 61.6626 34.2325 61.9343 33.5484 61.9343C32.8643 61.9343 32.2081 61.6626 31.7242 61.179L14.95 44.4048C14.4664 43.9209 14.1947 43.2648 14.1947 42.5806C14.1947 41.8965 14.4664 41.2404 14.95 40.7565L18.5984 37.1064C18.838 36.8668 19.1225 36.6766 19.4357 36.5469C19.7488 36.4172 20.0844 36.3504 20.4234 36.3504C20.7623 36.3504 21.098 36.4172 21.4111 36.5469C21.7242 36.6766 22.0087 36.8668 22.2484 37.1064L33.5484 48.4064L57.7516 24.2032C57.9913 23.9635 58.2758 23.7734 58.5889 23.6437C58.902 23.5139 59.2377 23.4472 59.5766 23.4472C59.9156 23.4472 60.2512 23.5139 60.5643 23.6437C60.8775 23.7734 61.162 23.9635 61.4016 24.2032L65.05 27.8532C65.5336 28.3371 65.8053 28.9933 65.8053 29.6774C65.8053 30.3616 65.5336 31.0177 65.05 31.5016Z" fill="#75D37F"/>
<path d="M35.3731 61.1771C34.8892 61.6607 34.2331 61.9324 33.549 61.9324C32.8648 61.9324 32.2087 61.6607 31.7248 61.1771L14.9506 44.403C14.467 43.919 14.1953 43.2629 14.1953 42.5788C14.1953 41.8946 14.467 41.2385 14.9506 40.7546L18.599 37.1046C18.8386 36.8649 19.1231 36.6747 19.4362 36.545C19.7494 36.4153 20.085 36.3485 20.424 36.3485C20.7629 36.3485 21.0985 36.4153 21.4117 36.545C21.7248 36.6747 22.0093 36.8649 22.249 37.1046L33.549 48.4046L57.7522 24.2014C57.9918 23.9617 58.2763 23.7715 58.5895 23.6418C58.9026 23.5121 59.2382 23.4453 59.5772 23.4453C59.9161 23.4453 60.2518 23.5121 60.5649 23.6418C60.878 23.7715 61.1625 23.9617 61.4022 24.2014L65.0506 27.8514C65.5342 28.3353 65.8058 28.9914 65.8058 29.6756C65.8058 30.3597 65.5342 31.0158 65.0506 31.4998L35.3731 61.1771Z" fill="#75D37F"/>
</svg>
