<svg width="24" height="24" viewBox="0 0 24 24" fill="none" xmlns="http://www.w3.org/2000/svg">
<path fill-rule="evenodd" clip-rule="evenodd" d="M20.523 3.24502C21.134 3.68977 21.634 4.2788 21.9809 4.97789C22.5462 6.11728 22.6344 7.40339 22.2295 8.60048C21.6201 8.17327 20.9571 7.55986 20.653 6.77648L20.2592 5.76684L19.4959 6.53709C19.4856 6.54745 18.5787 7.45167 17.3996 7.80258C17.0049 6.6375 17.219 5.37502 17.2212 5.36208L17.4153 4.2892L16.3577 4.55423C15.5093 4.76677 14.5954 4.56136 13.8866 4.29848C15.0741 2.67281 17.2353 1.91484 19.2306 2.57995C19.238 2.58242 19.2453 2.58513 19.2526 2.58784C19.2587 2.59014 19.2649 2.59243 19.2711 2.59458L20.8544 0L22.0558 0.733125L20.523 3.24502ZM17.0746 9.3087C18.1971 9.15823 19.1647 8.58697 19.7826 8.13036C20.3215 8.93975 21.0766 9.54448 21.7186 9.95562C17.2949 20.5973 6.07488 23.3756 2.63008 23.9853C2.27702 24.0477 1.92368 23.9078 1.70805 23.6202C1.39601 23.204 1.48118 22.6089 1.89799 22.2937C4.98818 19.9566 7.46407 17.2031 9.46713 13.8755C11.1714 11.0446 12.2856 8.2054 13.2331 5.55542C13.928 5.82851 14.8221 6.0733 15.7552 6.04662C15.7395 6.81476 15.8321 7.93461 16.3578 8.93783L16.5864 9.37414L17.0746 9.3087Z" fill="#364449"/>
</svg>
