<svg width="24" height="24" viewBox="0 0 24 24" fill="none" xmlns="http://www.w3.org/2000/svg">
<g clip-path="url(#clip0)">
<path opacity="0.4" d="M2.25 17.25C2.05109 17.25 1.86032 17.329 1.71967 17.4697C1.57902 17.6103 1.5 17.8011 1.5 18V21.75C1.5 21.9489 1.57902 22.1397 1.71967 22.2803C1.86032 22.421 2.05109 22.5 2.25 22.5C2.44891 22.5 2.63968 22.421 2.78033 22.2803C2.92098 22.1397 3 21.9489 3 21.75V18C3 17.8011 2.92098 17.6103 2.78033 17.4697C2.63968 17.329 2.44891 17.25 2.25 17.25ZM6.75 18.75C6.55109 18.75 6.36032 18.829 6.21967 18.9697C6.07902 19.1103 6 19.3011 6 19.5V23.25C6 23.4489 6.07902 23.6397 6.21967 23.7803C6.36032 23.921 6.55109 24 6.75 24C6.94891 24 7.13968 23.921 7.28033 23.7803C7.42098 23.6397 7.5 23.4489 7.5 23.25V19.5C7.5 19.3011 7.42098 19.1103 7.28033 18.9697C7.13968 18.829 6.94891 18.75 6.75 18.75ZM11.25 17.25C11.0511 17.25 10.8603 17.329 10.7197 17.4697C10.579 17.6103 10.5 17.8011 10.5 18V21.75C10.5 21.9489 10.579 22.1397 10.7197 22.2803C10.8603 22.421 11.0511 22.5 11.25 22.5C11.4489 22.5 11.6397 22.421 11.7803 22.2803C11.921 22.1397 12 21.9489 12 21.75V18C12 17.8011 11.921 17.6103 11.7803 17.4697C11.6397 17.329 11.4489 17.25 11.25 17.25ZM15.75 18.75C15.5511 18.75 15.3603 18.829 15.2197 18.9697C15.079 19.1103 15 19.3011 15 19.5V23.25C15 23.4489 15.079 23.6397 15.2197 23.7803C15.3603 23.921 15.5511 24 15.75 24C15.9489 24 16.1397 23.921 16.2803 23.7803C16.421 23.6397 16.5 23.4489 16.5 23.25V19.5C16.5 19.3011 16.421 19.1103 16.2803 18.9697C16.1397 18.829 15.9489 18.75 15.75 18.75ZM20.25 17.25C20.0511 17.25 19.8603 17.329 19.7197 17.4697C19.579 17.6103 19.5 17.8011 19.5 18V21.75C19.5 21.9489 19.579 22.1397 19.7197 22.2803C19.8603 22.421 20.0511 22.5 20.25 22.5C20.4489 22.5 20.6397 22.421 20.7803 22.2803C20.921 22.1397 21 21.9489 21 21.75V18C21 17.8011 20.921 17.6103 20.7803 17.4697C20.6397 17.329 20.4489 17.25 20.25 17.25Z" fill="#004D6E"/>
<path d="M24 10.5C24 11.6935 23.5259 12.8381 22.682 13.682C21.8381 14.5259 20.6935 15 19.5 15H4.5C3.30653 15 2.16193 14.5259 1.31802 13.682C0.474106 12.8381 0 11.6935 0 10.5C0 8.50781 1.30312 6.83438 3.09844 6.24375C3.0346 5.91631 3.00164 5.5836 3 5.25C2.99963 4.56046 3.13517 3.8776 3.39888 3.24048C3.66259 2.60335 4.04928 2.02445 4.53687 1.53687C5.02445 1.04928 5.60335 0.662587 6.24047 0.39888C6.8776 0.135174 7.56046 -0.000368941 8.25 7.54226e-07C10.2797 7.54226e-07 12.0188 1.1625 12.8906 2.85C13.5797 2.02969 14.5969 1.5 15.75 1.5C16.7446 1.5 17.6984 1.89509 18.4016 2.59835C19.1049 3.30161 19.5 4.25544 19.5 5.25C19.5015 5.50505 19.4764 5.75955 19.425 6.00938C19.4484 6.00938 19.4719 6 19.5 6C20.6935 6 21.8381 6.47411 22.682 7.31802C23.5259 8.16193 24 9.30653 24 10.5Z" fill="#004D6E"/>
</g>
<defs>
<clipPath id="clip0">
<path d="M0 0H24V24H0V0Z" fill="white"/>
</clipPath>
</defs>
</svg>
