<svg width="24" height="24" viewBox="0 0 24 24" fill="none" xmlns="http://www.w3.org/2000/svg">
<path opacity="0.4" d="M13.755 4.32082L10.4625 5.41919L8.90628 2.31494C8.85929 2.22035 8.78683 2.14076 8.69706 2.08512C8.60729 2.02948 8.50377 2 8.39816 2C8.29254 2 8.18902 2.02948 8.09925 2.08512C8.00948 2.14076 7.93702 2.22035 7.89003 2.31494L6.33753 5.41919L3.04128 4.32082C2.94109 4.28819 2.83383 4.28391 2.73136 4.30846C2.62889 4.33301 2.53521 4.38543 2.46068 4.45992C2.38616 4.5344 2.33369 4.62806 2.30909 4.73051C2.28448 4.83297 2.2887 4.94023 2.32128 5.04044L3.42003 8.33257L0.315031 9.88844C0.220428 9.93537 0.140812 10.0078 0.0851517 10.0975C0.0294916 10.1873 0 10.2908 0 10.3964C0 10.502 0.0294916 10.6055 0.0851517 10.6952C0.140812 10.785 0.220428 10.8574 0.315031 10.9043L3.42003 12.4568L2.32128 15.7486C2.28766 15.8489 2.28268 15.9565 2.30691 16.0595C2.33114 16.1624 2.3836 16.2566 2.45841 16.3314C2.53322 16.4061 2.62741 16.4586 2.73038 16.4827C2.83334 16.5069 2.94102 16.5019 3.04128 16.4682L5.89503 15.5198C6.12111 15.0562 6.41988 14.6317 6.78003 14.2624C6.27501 14.0545 5.81618 13.7486 5.43003 13.3624C4.98826 12.9298 4.64746 12.405 4.43197 11.8254C4.21647 11.2459 4.1316 10.6259 4.18341 10.0097C4.23523 9.3936 4.42244 8.79649 4.73169 8.26106C5.04094 7.72563 5.4646 7.26509 5.97242 6.91232C6.48023 6.55955 7.05967 6.32325 7.66936 6.2203C8.27905 6.11736 8.90395 6.1503 9.49944 6.31677C10.0949 6.48325 10.6463 6.77915 11.1142 7.18336C11.5821 7.58756 11.955 8.09009 12.2063 8.65507C12.5785 8.51922 12.9646 8.42489 13.3575 8.37382L14.475 5.04044C14.5087 4.94016 14.5136 4.83248 14.4894 4.72953C14.4652 4.62657 14.4127 4.53241 14.3379 4.45764C14.2631 4.38287 14.1689 4.33045 14.0659 4.30628C13.963 4.28211 13.8553 4.28714 13.755 4.32082ZM8.40003 7.24994C7.61758 7.24849 6.8627 7.53881 6.28287 8.0642C5.70304 8.58958 5.33993 9.31227 5.26447 10.0911C5.18901 10.8699 5.40663 11.6488 5.87482 12.2758C6.343 12.9027 7.02811 13.3325 7.79628 13.4813C8.09447 13.3013 8.41133 13.1542 8.74128 13.0426C8.84064 12.2388 9.11936 11.4677 9.55684 10.7861C9.99432 10.1046 10.5794 9.53007 11.2688 9.10507C11.0191 8.55311 10.6159 8.08468 10.1072 7.75572C9.59846 7.42676 9.00583 7.25118 8.40003 7.24994Z" fill="#004D6E"/>
<path d="M21.5701 14.2113C22.9801 14.6988 24.0001 16.0222 24.0001 17.6006C24.0001 18.5554 23.6208 19.471 22.9457 20.1462C22.2706 20.8213 21.3549 21.2006 20.4001 21.2006H10.2001C9.24532 21.2006 8.32964 20.8213 7.65451 20.1462C6.97938 19.471 6.6001 18.5554 6.6001 17.6006C6.6001 15.7035 8.07385 14.1663 9.93385 14.0276C9.92635 13.9188 9.9001 13.8138 9.9001 13.7013C9.9001 12.5874 10.3426 11.5191 11.1302 10.7315C11.9179 9.94384 12.9862 9.50134 14.1001 9.50134C15.8026 9.50134 17.2613 10.5213 17.9213 11.9763C18.2835 11.7456 18.701 11.6166 19.1301 11.6027C19.5593 11.5889 19.9843 11.6908 20.3605 11.8977C20.7367 12.1047 21.0503 12.409 21.2684 12.7789C21.4865 13.1487 21.6011 13.5705 21.6001 13.9998C21.5938 14.0703 21.5838 14.1404 21.5701 14.2098V14.2113Z" fill="#004D6E"/>
</svg>
