<svg width="24" height="24" viewBox="0 0 24 24" fill="none" xmlns="http://www.w3.org/2000/svg">
<g clip-path="url(#clip0)">
<path fill-rule="evenodd" clip-rule="evenodd" d="M11.2789 11.3844L12.5312 10.1316L10.7766 8.3764C10.5437 7.53787 10.249 6.75703 9.92493 6.06376C14.009 2.1454 20.6527 -1.7242 23.1887 0.812355C25.7279 3.35153 21.8457 10.0073 17.9232 14.0914C17.2388 13.7741 16.4695 13.4799 15.6436 13.245L13.8679 11.4688L12.6199 12.7169C12.3734 12.7022 12.1253 12.6938 11.8757 12.6938C11.6764 12.6938 11.4793 12.698 11.2831 12.7085C11.3057 12.2638 11.3031 11.8212 11.2789 11.3844ZM15.2047 10.1316L17.1832 12.1107C17.6164 11.6293 18.0223 11.1432 18.4035 10.656L16.5414 8.79488L15.2047 10.1316ZM17.877 7.45816L19.5242 9.1048C19.9018 8.54001 20.2411 7.98362 20.5379 7.44558L19.2137 6.12092L17.877 7.45816ZM21.4178 5.65106C21.8158 4.69926 22.045 3.8707 22.0948 3.24193L20.5515 4.78526L21.4178 5.65106ZM19.2148 3.4475L20.7571 1.90417C20.1288 1.95399 19.2997 2.18368 18.349 2.5817L19.2148 3.4475ZM17.877 4.78474L16.5529 3.46008C16.0154 3.75795 15.4595 4.09671 14.8932 4.47481L16.5398 6.12145L17.877 4.78474ZM15.2036 7.45816L13.3425 5.59652C12.8558 5.97619 12.3692 6.3826 11.8883 6.81629L13.8669 8.79488L15.2036 7.45816ZM0.805534 19.627C1.43954 20.2615 2.2078 20.713 3.0458 20.9574C3.28493 21.7776 3.72595 22.549 4.37202 23.194C4.51152 23.3346 4.65835 23.4657 4.81043 23.5858C3.58017 24.2774 1.99331 24.1007 0.946075 23.0535C-0.10169 22.0062 -0.278415 20.4204 0.413277 19.1886C0.534415 19.3402 0.664993 19.4865 0.805534 19.627ZM11.8757 13.7852C11.6434 13.7852 11.4095 13.793 11.1751 13.8082C10.8757 15.8356 10.0041 17.8677 8.24369 19.6281C7.25046 20.6224 5.92948 21.1688 4.5246 21.1688C4.44227 21.1688 4.36046 21.1667 4.27917 21.162C4.4816 21.6187 4.7695 22.0472 5.14392 22.4216C5.95256 23.2308 7.00085 23.6272 8.05543 23.6272C9.12417 23.6272 10.1992 23.2213 11.0383 22.4216C14.1169 19.4933 16.946 18.498 18.5888 17.9201C19.9218 17.4511 20.4738 17.2569 19.7445 16.5278C18.747 15.5325 15.4721 13.7852 11.8757 13.7852ZM7.47068 18.8562C6.6568 19.6701 5.59015 20.0765 4.52351 20.0765C3.45739 20.0765 2.39075 19.6691 1.57687 18.8557C-0.0514138 17.2285 -0.00946125 14.63 1.57687 12.9619C4.50454 9.88322 5.4999 7.05488 6.07799 5.41222C6.40533 4.4821 6.59887 3.93213 6.93368 3.93213C7.07842 3.93213 7.2499 4.03544 7.47068 4.25569C9.09844 5.88345 12.73 13.5969 7.47068 18.8562Z" fill="#364449"/>
</g>
<defs>
<clipPath id="clip0">
<path d="M0 0H24V23.9995H0V0Z" fill="white"/>
</clipPath>
</defs>
</svg>
