<svg width="24" height="24" viewBox="0 0 10 10" fill="none" xmlns="http://www.w3.org/2000/svg">
<path d="M5 0.15625C2.32422 0.15625 0.15625 2.32422 0.15625 5C0.15625 7.67578 2.32422 9.84375 5 9.84375C7.67578 9.84375 9.84375 7.67578 9.84375 5C9.84375 2.32422 7.67578 0.15625 5 0.15625ZM7.375 6.27148C7.4668 6.36328 7.4668 6.51172 7.375 6.60352L6.60156 7.375C6.50977 7.4668 6.36133 7.4668 6.26953 7.375L5 6.09375L3.72852 7.375C3.63672 7.4668 3.48828 7.4668 3.39648 7.375L2.625 6.60156C2.5332 6.50977 2.5332 6.36133 2.625 6.26953L3.90625 5L2.625 3.72852C2.5332 3.63672 2.5332 3.48828 2.625 3.39648L3.39844 2.62305C3.49023 2.53125 3.63867 2.53125 3.73047 2.62305L5 3.90625L6.27148 2.625C6.36328 2.5332 6.51172 2.5332 6.60352 2.625L7.37695 3.39844C7.46875 3.49023 7.46875 3.63867 7.37695 3.73047L6.09375 5L7.375 6.27148Z" fill="#CD3311"/>
</svg>
