<svg width="24" height="24" viewBox="0 0 24 24" fill="none" xmlns="http://www.w3.org/2000/svg">
<path class="icon" fill-rule="evenodd" clip-rule="evenodd" d="M14.25 12C14.25 13.2422 13.2422 14.25 12 14.25C10.7578 14.25 9.75 13.2422 9.75 12C9.75 10.7578 10.7578 9.75 12 9.75C13.2422 9.75 14.25 10.7578 14.25 12ZM19.875 9.75C18.6328 9.75 17.625 10.7578 17.625 12C17.625 13.2422 18.6328 14.25 19.875 14.25C21.1172 14.25 22.125 13.2422 22.125 12C22.125 10.7578 21.1172 9.75 19.875 9.75ZM4.125 9.75C2.88281 9.75 1.875 10.7578 1.875 12C1.875 13.2422 2.88281 14.25 4.125 14.25C5.36719 14.25 6.375 13.2422 6.375 12C6.375 10.7578 5.36719 9.75 4.125 9.75Z" fill="#06719F"/>
</svg>
