<svg width="18" height="24" viewBox="0 0 18 24" xmlns="http://www.w3.org/2000/svg">
<path d="M10.5 6.375V0H1.125C0.501562 0 0 0.501562 0 1.125V22.875C0 23.4984 0.501562 24 1.125 24H16.875C17.4984 24 18 23.4984 18 22.875V7.5H11.625C11.0063 7.5 10.5 6.99375 10.5 6.375ZM13.3172 11.3672L10.5 15.75L13.3172 20.1328C13.5563 20.5078 13.2891 21 12.8438 21H11.2078C11.0016 21 10.8094 20.8875 10.7109 20.7047C9.79219 19.0078 9 17.4844 9 17.4844C8.7 18.1781 8.53125 18.4219 7.28437 20.7094C7.18594 20.8922 6.99844 21.0047 6.79219 21.0047H5.15625C4.71094 21.0047 4.44375 20.5125 4.68281 20.1375L7.50937 15.7547L4.68281 11.3719C4.43906 10.9969 4.71094 10.5047 5.15625 10.5047H6.7875C6.99375 10.5047 7.18594 10.6172 7.28437 10.8C8.50781 13.0875 8.22188 12.375 9 14.0109C9 14.0109 9.28594 13.4625 10.7156 10.8C10.8141 10.6172 11.0062 10.5047 11.2125 10.5047H12.8438C13.2891 10.5 13.5563 10.9922 13.3172 11.3672ZM18 5.71406V6H12V0H12.2859C12.5859 0 12.8719 0.117188 13.0828 0.328125L17.6719 4.92188C17.8828 5.13281 18 5.41875 18 5.71406Z" />
</svg>
