<svg width="80" height="80" viewBox="0 0 80 80" fill="none" xmlns="http://www.w3.org/2000/svg">
<path opacity="0.4" d="M79.0983 65.5555L45.7738 7.7786C43.2128 3.33422 36.7892 3.33422 34.224 7.7786L0.899507 65.5555C-1.65879 69.9916 1.54394 75.5554 6.67303 75.5554H73.3234C78.4442 75.5554 81.665 69.9999 79.0983 65.5555ZM39.9989 66.6666C39.1199 66.6666 38.2606 66.4059 37.5297 65.9176C36.7989 65.4292 36.2292 64.7351 35.8928 63.923C35.5565 63.1109 35.4684 62.2173 35.6399 61.3552C35.8114 60.493 36.2347 59.7011 36.8563 59.0796C37.4778 58.458 38.2697 58.0347 39.1319 57.8632C39.994 57.6918 40.8876 57.7798 41.6997 58.1162C42.5118 58.4525 43.2059 59.0222 43.6943 59.7531C44.1826 60.4839 44.4433 61.3432 44.4433 62.2222C44.4433 63.4009 43.975 64.5314 43.1416 65.3649C42.3081 66.1984 41.1776 66.6666 39.9989 66.6666ZM45.3099 33.5546L43.5322 51.3321C43.4774 51.8805 43.2208 52.389 42.8123 52.7588C42.4037 53.1286 41.8722 53.3334 41.3211 53.3335H38.6823C38.1312 53.3334 37.5997 53.1286 37.1911 52.7588C36.7825 52.389 36.526 51.8805 36.4712 51.3321L34.6934 33.5546C34.6626 33.2462 34.6967 32.9347 34.7934 32.6402C34.8902 32.3457 35.0475 32.0747 35.2552 31.8447C35.4629 31.6146 35.7164 31.4305 35.9995 31.3043C36.2826 31.178 36.589 31.1124 36.899 31.1116H43.0989C43.4093 31.1116 43.7163 31.1767 44 31.3026C44.2838 31.4285 44.538 31.6124 44.7463 31.8426C44.9547 32.0728 45.1124 32.344 45.2095 32.6389C45.3066 32.9338 45.3408 33.2457 45.3099 33.5546Z" fill="#FF6F6F"/>
<path d="M43.0997 31.1113H36.8998C36.5894 31.1113 36.2824 31.1764 35.9986 31.3023C35.7149 31.4282 35.4606 31.6122 35.2523 31.8424C35.044 32.0725 34.8862 32.3438 34.7892 32.6386C34.6921 32.9335 34.6579 33.2454 34.6887 33.5543L36.4665 51.3319C36.5213 51.8802 36.7778 52.3887 37.1864 52.7585C37.595 53.1284 38.1265 53.3332 38.6776 53.3332H41.3164C41.8675 53.3332 42.399 53.1284 42.8075 52.7585C43.2161 52.3887 43.4727 51.8802 43.5275 51.3319L45.3052 33.5543C45.336 33.2459 45.302 32.9344 45.2052 32.64C45.1085 32.3455 44.9512 32.0745 44.7435 31.8444C44.5358 31.6143 44.2822 31.4302 43.9992 31.304C43.7161 31.1777 43.4097 31.1121 43.0997 31.1113ZM39.9998 57.7776C39.1208 57.7776 38.2615 58.0383 37.5306 58.5266C36.7997 59.015 36.2301 59.7091 35.8937 60.5212C35.5573 61.3333 35.4693 62.2269 35.6408 63.089C35.8123 63.9512 36.2356 64.7431 36.8571 65.3646C37.4787 65.9862 38.2706 66.4095 39.1327 66.581C39.9948 66.7524 40.8885 66.6644 41.7006 66.328C42.5127 65.9917 43.2068 65.422 43.6951 64.6911C44.1835 63.9603 44.4441 63.101 44.4441 62.222C44.4441 61.0433 43.9759 59.9128 43.1424 59.0793C42.3089 58.2458 41.1785 57.7776 39.9998 57.7776Z" fill="#FF6F6F"/>
</svg>
