<svg width="24" height="24" viewBox="0 0 24 24" fill="none" xmlns="http://www.w3.org/2000/svg">
<path fill-rule="evenodd" clip-rule="evenodd" d="M13.4062 0H10.5937C8.62944 0 6.95835 1.27842 6.36829 3.04688H17.6316C17.0415 1.27842 15.3704 0 13.4062 0ZM2.625 7.26562H21.375C21.7633 7.26562 22.0781 6.95081 22.0781 6.5625C22.0781 5.39752 21.1337 4.45312 19.9688 4.45312H4.03125C2.86627 4.45312 1.92188 5.39752 1.92188 6.5625C1.92188 6.95081 2.23669 7.26562 2.625 7.26562ZM6.375 18.2812H7.07812V15H6.375C3.91955 15 1.92188 16.9977 1.92188 19.4531V23.2969C1.92188 23.6852 2.23669 24 2.625 24H5.67188V18.9844C5.67188 18.5961 5.98669 18.2812 6.375 18.2812ZM15.5156 18.2813V15.4237C14.4893 16.0468 13.286 16.4063 12 16.4063C10.7141 16.4063 9.51075 16.0468 8.48438 15.4237V18.2813H15.5156ZM7.07812 24V19.6875H7.78125H16.2188H16.9219V24H7.07812ZM17.625 15H16.9219V18.2812H17.625C18.0133 18.2812 18.3281 18.5961 18.3281 18.9844V24H21.375C21.7633 24 22.0781 23.6852 22.0781 23.2969V19.4531C22.0781 16.9977 20.0805 15 17.625 15ZM12 15C9.02761 15 6.60938 12.5818 6.60938 9.60938V8.67188H17.3906V9.60938C17.3906 12.5818 14.9724 15 12 15Z" fill="#364449"/>
</svg>
