<svg width="30" height="30" viewBox="0 0 30 30" fill="none" xmlns="http://www.w3.org/2000/svg">
<rect width="30" height="30" rx="10" fill="#FFE9E9"/>
<path opacity="0.4" d="M10.3903 20.8157C11.5043 21.6983 12.8483 22.2423 14.2624 22.3831C15.6766 22.524 17.1015 22.2557 18.3677 21.6101C19.6338 20.9646 20.6879 19.969 21.4045 18.7418C22.1212 17.5145 22.4704 16.1073 22.4104 14.6873C22.3505 13.2674 21.884 11.8946 21.0664 10.7321C20.2488 9.56964 19.1145 8.66644 17.7985 8.12994C16.4825 7.59343 15.04 7.44619 13.6428 7.70573C12.2455 7.96526 10.9521 8.62065 9.91652 9.59395L11.9633 11.6407C12.3697 12.0472 12.0818 12.7419 11.5068 12.7419H5.64516C5.47405 12.7419 5.30995 12.674 5.18896 12.553C5.06797 12.432 5 12.2679 5 12.0968V6.23509C5 5.66009 5.69476 5.37219 6.10121 5.77864L8.09233 7.76976C9.9508 5.9891 12.4261 4.99656 15 5.00001C20.5165 5.00001 24.9899 9.46694 25 14.981C25.01 20.4951 20.5169 24.9959 15.0072 25C12.7208 25.005 10.5023 24.2232 8.72419 22.7859C8.61894 22.7004 8.53282 22.5939 8.4714 22.473C8.40997 22.3522 8.37462 22.2198 8.36762 22.0844C8.36063 21.9491 8.38215 21.8137 8.43079 21.6872C8.47944 21.5607 8.55412 21.4458 8.64999 21.35L9.10443 20.8955C9.27159 20.7267 9.49502 20.6253 9.73215 20.6105C9.96929 20.5958 10.2036 20.6688 10.3903 20.8157Z" fill="#DC241F"/>
<path d="M16.2902 10.8066V15.0143L17.9314 16.2905C18.0317 16.3685 18.1157 16.4655 18.1785 16.576C18.2413 16.6865 18.2818 16.8082 18.2975 16.9343C18.3133 17.0605 18.304 17.1884 18.2704 17.311C18.2367 17.4335 18.1791 17.5482 18.1011 17.6485L17.7052 18.1574C17.6271 18.2577 17.5301 18.3417 17.4196 18.4045C17.3092 18.4673 17.1874 18.5078 17.0613 18.5236C16.9352 18.5393 16.8072 18.5301 16.6847 18.4964C16.5621 18.4627 16.4474 18.4052 16.3471 18.3272L13.7096 16.2764V10.8066C13.7096 10.5499 13.8116 10.3038 13.993 10.1223C14.1745 9.94083 14.4207 9.83887 14.6773 9.83887H15.3225C15.5792 9.83887 15.8253 9.94083 16.0068 10.1223C16.1883 10.3038 16.2902 10.5499 16.2902 10.8066Z" fill="#DC241F"/>
</svg>
