<svg width="24" height="24" viewBox="0 0 24 24" fill="none" xmlns="http://www.w3.org/2000/svg">
<path class="icon" d="M20 18.6667V19.3334C20 20.4379 19.1046 21.3334 18 21.3334H2C0.895417 21.3334 0 20.4379 0 19.3334V8.66669C0 7.5621 0.895417 6.66669 2 6.66669H2.66667V8.66669H2.25C2.1837 8.66669 2.12011 8.69303 2.07322 8.73991C2.02634 8.78679 2 8.85038 2 8.91669V19.0834C2 19.1497 2.02634 19.2132 2.07322 19.2601C2.12011 19.307 2.1837 19.3334 2.25 19.3334H17.75C17.8163 19.3334 17.8799 19.307 17.9268 19.2601C17.9737 19.2132 18 19.1497 18 19.0834V18.6667H20ZM21.75 4.66669H6.25C6.1837 4.66669 6.12011 4.69303 6.07322 4.73991C6.02634 4.78679 6 4.85038 6 4.91669V15.0834C6 15.1497 6.02634 15.2132 6.07322 15.2601C6.12011 15.307 6.1837 15.3334 6.25 15.3334H21.75C21.8163 15.3334 21.8799 15.307 21.9268 15.2601C21.9737 15.2132 22 15.1497 22 15.0834V4.91669C22 4.85038 21.9737 4.78679 21.9268 4.73991C21.8799 4.69303 21.8163 4.66669 21.75 4.66669ZM22 2.66669C23.1046 2.66669 24 3.5621 24 4.66669V15.3334C24 16.4379 23.1046 17.3334 22 17.3334H6C4.89542 17.3334 4 16.4379 4 15.3334V4.66669C4 3.5621 4.89542 2.66669 6 2.66669H22ZM11 7.33335C11 8.25381 10.2538 9.00002 9.33333 9.00002C8.41288 9.00002 7.66667 8.25381 7.66667 7.33335C7.66667 6.4129 8.41288 5.66669 9.33333 5.66669C10.2538 5.66669 11 6.4129 11 7.33335ZM8 11.3334L9.64646 9.68689C9.84171 9.49164 10.1583 9.49164 10.3536 9.68689L12 11.3334L16.3131 7.02023C16.5084 6.82498 16.825 6.82498 17.0203 7.02023L20 10V13.3334H8V11.3334Z" fill="#06719F"/>
</svg>
