<svg width="28" height="36" viewBox="0 0 28 36" fill="none" xmlns="http://www.w3.org/2000/svg">
<path opacity="0.4" d="M27.4999 9.00001H19.6249C19.3265 9.00001 19.0404 8.88148 18.8294 8.6705C18.6184 8.45952 18.4999 8.17337 18.4999 7.87501V5.30036e-06H2.18738C1.96633 -0.000549409 1.74733 0.0424409 1.5429 0.126522C1.33846 0.210602 1.15259 0.334127 0.995886 0.490042C0.839187 0.645958 0.714733 0.831211 0.629628 1.03522C0.544524 1.23924 0.500437 1.45802 0.499883 1.67907V34.3125C0.499329 34.5336 0.542319 34.7526 0.6264 34.957C0.71048 35.1614 0.834005 35.3473 0.98992 35.504C1.14584 35.6607 1.33109 35.7852 1.5351 35.8703C1.73912 35.9554 1.95789 35.9995 2.17895 36H25.8124C26.0334 36.0006 26.2524 35.9576 26.4569 35.8735C26.6613 35.7894 26.8472 35.6659 27.0039 35.51C27.1606 35.354 27.285 35.1688 27.3701 34.9648C27.4552 34.7608 27.4993 34.542 27.4999 34.3209V9.00001ZM20.7499 26.1563C20.7499 26.38 20.661 26.5946 20.5028 26.7529C20.3445 26.9111 20.1299 27 19.9061 27H8.09363C7.86986 27 7.65524 26.9111 7.49701 26.7529C7.33878 26.5946 7.24988 26.38 7.24988 26.1563V25.5938C7.24988 25.37 7.33878 25.1554 7.49701 24.9971C7.65524 24.8389 7.86986 24.75 8.09363 24.75H19.9061C20.1299 24.75 20.3445 24.8389 20.5028 24.9971C20.661 25.1554 20.7499 25.37 20.7499 25.5938V26.1563ZM20.7499 21.6563C20.7499 21.88 20.661 22.0946 20.5028 22.2529C20.3445 22.4111 20.1299 22.5 19.9061 22.5H8.09363C7.86986 22.5 7.65524 22.4111 7.49701 22.2529C7.33878 22.0946 7.24988 21.88 7.24988 21.6563V21.0938C7.24988 20.87 7.33878 20.6554 7.49701 20.4971C7.65524 20.3389 7.86986 20.25 8.09363 20.25H19.9061C20.1299 20.25 20.3445 20.3389 20.5028 20.4971C20.661 20.6554 20.7499 20.87 20.7499 21.0938V21.6563ZM20.7499 17.1563C20.7499 17.38 20.661 17.5946 20.5028 17.7529C20.3445 17.9111 20.1299 18 19.9061 18H8.09363C7.86986 18 7.65524 17.9111 7.49701 17.7529C7.33878 17.5946 7.24988 17.38 7.24988 17.1563V16.5938C7.24988 16.37 7.33878 16.1554 7.49701 15.9971C7.65524 15.8389 7.86986 15.75 8.09363 15.75H19.9061C20.1299 15.75 20.3445 15.8389 20.5028 15.9971C20.661 16.1554 20.7499 16.37 20.7499 16.5938V17.1563Z" fill="white"/>
</svg>
