<svg width="18" height="24" viewBox="0 0 18 24" fill="none" xmlns="http://www.w3.org/2000/svg">
<path class="icon" d="M9 0C4.0267 0 0 4.03191 0 9C0 12.3336 1.12458 13.3754 7.09083 22.9417C7.97137 24.3536 10.0296 24.3519 10.9091 22.9417C16.8785 13.3703 18 12.333 18 9C18 4.0267 13.9681 0 9 0ZM9 21.75C3.027 12.1728 2.25 11.5682 2.25 9C2.25 5.27208 5.27208 2.25 9 2.25C12.7279 2.25 15.75 5.27208 15.75 9C15.75 11.5572 15.0391 12.0668 9 21.75ZM5.25 9C5.25 6.92892 6.92892 5.25 9 5.25C11.0711 5.25 12.75 6.92892 12.75 9C12.75 11.0711 11.0711 12.75 9 12.75C6.92892 12.75 5.25 11.0711 5.25 9Z" fill="#B0BFD3"/>
</svg>
