<svg width="288" height="80" viewBox="0 0 288 80" fill="none" xmlns="http://www.w3.org/2000/svg">
<path d="M26.568 42.216V41.896C34.376 40.296 39.432 35.88 39.432 30.44C39.432 22.12 31.304 18.216 21.128 18.216H5V63.08H13.192V42.792H15.944C17.352 42.792 17.928 43.432 18.312 43.88L35.016 63.016H45L26.568 42.216ZM17.096 41.64H13.192V20.712C13.192 19.688 13.512 19.368 14.664 19.368H17.928C25.224 19.368 30.28 21.736 30.28 30.76C30.28 38.952 24.392 41.64 17.096 41.64Z" fill="#20832A"/>
<path d="M78.5175 44.264C78.5175 35.432 74.5495 31.528 67.6375 31.528C61.9415 31.528 57.8455 33.96 55.9255 39.528V17H48.4375V63.016H55.9255V39.912C57.7175 37.096 60.5975 35.176 64.2455 35.176C68.9175 35.176 71.0295 38.504 71.0295 46.312C71.0295 47.08 71.0295 48.424 70.9655 50.024V63.016H78.4535V59.688C78.3895 59.496 78.3895 59.304 78.3895 58.984C78.4535 53.864 78.5175 47.4 78.5175 44.264Z" fill="#20832A"/>
<path d="M89.872 63.08V32.04H82.384V63.08H89.872ZM86.096 27.24C88.4 27.24 90.256 25.384 90.256 23.08C90.256 20.776 88.4 18.92 86.096 18.92C83.856 18.92 82 20.776 82 23.08C82 25.384 83.856 27.24 86.096 27.24Z" fill="#20832A"/>
<path d="M125.494 32.04H93.75V33.128H116.47L93.75 62.952V63.016H124.662L124.79 61.992H102.902L125.494 32.168V32.04Z" fill="#20832A"/>
<path d="M144.348 31.528C133.66 31.528 126.812 37.224 126.812 47.528C126.812 57.768 133.66 63.528 144.348 63.528C155.036 63.528 161.885 57.768 161.885 47.528C161.885 37.224 155.036 31.528 144.348 31.528ZM144.348 62.632C138.973 62.632 135.389 58.6 135.389 47.528C135.389 36.392 138.973 32.488 144.348 32.488C149.725 32.488 153.245 36.392 153.245 47.528C153.245 58.6 149.725 62.632 144.348 62.632Z" fill="#20832A"/>
<path d="M181.375 18.216H165.375V63.08H173.567V45.672H180.287C191.295 45.672 200.447 40.616 200.447 31.848C200.447 22.248 192.319 18.216 181.375 18.216ZM178.943 44.52H173.567V20.712C173.567 19.688 173.887 19.368 175.039 19.368H179.007C185.983 19.368 191.487 22.76 191.487 31.848C191.487 41.576 185.023 44.52 178.943 44.52Z" fill="#20832A"/>
<path d="M211.426 63.016V17H203.938V63.016H211.426Z" fill="#20832A"/>
<path d="M246.491 52.072C243.611 57.768 239.387 59.944 233.883 59.944C227.419 59.944 222.427 55.272 222.427 46.696V44.904H246.299C246.363 44.392 246.491 43.816 246.491 43.24C246.491 35.112 239.195 31.528 231.579 31.528C224.027 31.528 214.875 35.688 214.875 47.848C214.875 58.792 222.683 63.528 231.259 63.528C239.515 63.528 244.955 59.816 246.619 52.136L246.491 52.072ZM231.515 32.488C236.763 32.488 238.811 36.584 238.811 43.688V43.816H222.491C223.131 36.904 226.203 32.488 231.515 32.488Z" fill="#20832A"/>
<path d="M266.85 45.608L279.458 32.04H277.794L266.082 44.712L255.395 32.04H246.562L261.154 49.32L248.355 63.016H250.083L261.922 50.216L272.994 63.016H281.826L266.85 45.608Z" fill="#20832A"/>
<path fill-rule="evenodd" clip-rule="evenodd" d="M13.192 63.08H5V18.216H21.128C31.304 18.216 39.432 22.12 39.432 30.44C39.432 35.6729 34.7537 39.9582 27.4478 41.7011C27.3141 41.733 27.1795 41.764 27.044 41.7942C26.8865 41.8293 26.7278 41.8633 26.568 41.896V42.216L45 63.016H35.016L18.312 43.88C17.928 43.432 17.352 42.792 15.944 42.792H13.192V63.08ZM14.192 43.792V64.08H4V17.216H21.128C26.3219 17.216 31.1007 18.2089 34.6169 20.3544C38.1801 22.5285 40.432 25.8887 40.432 30.44C40.432 36.2299 35.4138 40.6725 28.1957 42.545L47.2223 64.016H34.5615L17.5527 44.5308C17.369 44.3165 17.22 44.1562 17.0058 44.0304C16.8045 43.9123 16.486 43.792 15.944 43.792H14.192ZM14.192 40.64H17.096C20.6497 40.64 23.7032 39.9804 25.8443 38.4572C27.9252 36.9768 29.28 34.5839 29.28 30.76C29.28 26.4337 28.0753 23.9311 26.2199 22.4645C24.3127 20.957 21.5068 20.368 17.928 20.368H14.664C14.4406 20.368 14.2985 20.3826 14.2108 20.4C14.2007 20.4636 14.192 20.5628 14.192 20.712V40.64ZM55.9255 17V39.528C56.2113 38.6993 56.5452 37.94 56.9255 37.2479C56.9771 37.154 57.0296 37.0612 57.083 36.9697C59.276 33.2073 62.9044 31.528 67.6375 31.528C74.5495 31.528 78.5175 35.432 78.5175 44.264C78.5175 47.4 78.4535 53.864 78.3895 58.984C78.3895 59.304 78.3895 59.496 78.4535 59.688V63.016H70.9655V50.024C71.0295 48.424 71.0295 47.08 71.0295 46.312C71.0295 38.504 68.9175 35.176 64.2455 35.176C61.7163 35.176 59.5563 36.0989 57.8721 37.6034C57.5375 37.9023 57.2217 38.2241 56.9255 38.5663C56.6614 38.8713 56.4128 39.1926 56.1805 39.528C56.1641 39.5516 56.1478 39.5753 56.1316 39.5991C56.105 39.6381 56.0786 39.6774 56.0524 39.7168C56.0095 39.7814 55.9672 39.8465 55.9255 39.912V63.016H48.4375V17H55.9255ZM56.9255 40.2101V64.016H47.4375V16H56.9255V35.3822C57.7401 34.2629 58.705 33.3377 59.8147 32.6054C61.9955 31.1662 64.6499 30.528 67.6375 30.528C71.2811 30.528 74.3135 31.5624 76.4156 33.9182C78.4987 36.2527 79.5175 39.7185 79.5175 44.264C79.5175 47.4058 79.4535 53.8718 79.3895 58.9904C79.3895 59.1576 79.3901 59.2448 79.395 59.3128C79.397 59.342 79.3994 59.3576 79.4007 59.3648L79.4019 59.3709L79.4535 59.5257V64.016H69.9655V50.004L69.9663 49.984C70.0294 48.4053 70.0295 47.0782 70.0295 46.312C70.0295 42.4562 69.5 39.9045 68.5377 38.3399C67.6385 36.8779 66.2974 36.176 64.2455 36.176C61.0915 36.176 58.5686 37.7715 56.9255 40.2101ZM90.872 64.08H81.384V31.04H90.872V64.08ZM89.872 32.04V63.08H82.384V32.04H89.872ZM91.256 23.08C91.256 25.9363 88.9523 28.24 86.096 28.24C83.2937 28.24 81 25.9262 81 23.08C81 20.2338 83.2937 17.92 86.096 17.92C88.9523 17.92 91.256 20.2237 91.256 23.08ZM126.494 31.04V32.504L104.914 60.992H125.923L125.545 64.016H92.75V62.6145L114.451 34.128H92.75V31.04H126.494ZM116.47 33.128L93.75 62.952V63.016H124.662L124.79 61.992H102.902L125.494 32.168V32.04H93.75V33.128H116.47ZM130.908 34.9169C134.189 31.9975 138.836 30.528 144.348 30.528C149.861 30.528 154.508 31.9975 157.789 34.9169C161.087 37.8509 162.885 42.1428 162.885 47.528C162.885 52.8826 161.086 57.1733 157.79 60.1141C154.51 63.0411 149.864 64.528 144.348 64.528C138.833 64.528 134.187 63.0411 130.907 60.1141C127.611 57.1733 125.812 52.8826 125.812 47.528C125.812 42.1428 127.61 37.8509 130.908 34.9169ZM142.469 63.4662C132.864 62.8216 126.812 57.1544 126.812 47.528C126.812 37.6197 133.145 31.9723 143.134 31.5531C143.533 31.5364 143.938 31.528 144.348 31.528C144.758 31.528 145.163 31.5364 145.561 31.5531C155.552 31.9717 161.885 37.6192 161.885 47.528C161.885 57.1556 155.831 62.823 146.224 63.4665C145.613 63.5074 144.988 63.528 144.348 63.528C143.708 63.528 143.081 63.5073 142.469 63.4662ZM145.488 32.5509C145.119 32.5085 144.738 32.488 144.348 32.488C143.958 32.488 143.578 32.5086 143.207 32.5509C138.471 33.0927 135.389 37.2001 135.389 47.528C135.389 57.3452 138.206 61.6277 142.592 62.4723C143.153 62.5802 143.739 62.632 144.348 62.632C144.957 62.632 145.542 62.5803 146.101 62.4725C150.477 61.6284 153.245 57.3461 153.245 47.528C153.245 37.1997 150.217 33.0924 145.488 32.5509ZM138.689 58.6838C140.049 60.7593 141.954 61.632 144.348 61.632C146.741 61.632 148.629 60.7607 149.974 58.6877C151.37 56.5358 152.245 52.9917 152.245 47.528C152.245 42.0304 151.369 38.5056 149.976 36.3802C148.636 34.3357 146.752 33.488 144.348 33.488C141.943 33.488 140.042 34.337 138.686 36.3841C137.279 38.5093 136.389 42.0331 136.389 47.528C136.389 52.989 137.278 56.5321 138.689 58.6838ZM164.375 17.216H181.375C186.944 17.216 191.932 18.2378 195.56 20.5933C199.247 22.9877 201.447 26.7129 201.447 31.848C201.447 36.6355 198.928 40.3819 195.036 42.8887C191.17 45.3791 185.928 46.672 180.287 46.672H174.567V64.08H164.375V17.216ZM173.567 63.08H165.375V18.216H181.375C192.319 18.216 200.447 22.248 200.447 31.848C200.447 40.616 191.295 45.672 180.287 45.672H173.567V63.08ZM174.567 43.52H178.943C181.842 43.52 184.722 42.8158 186.86 41.0593C188.963 39.3318 190.487 36.4718 190.487 31.848C190.487 27.5127 189.182 24.6977 187.201 22.9498C185.198 21.1818 182.349 20.368 179.007 20.368H175.039C174.816 20.368 174.673 20.3826 174.586 20.4C174.576 20.4636 174.567 20.5628 174.567 20.712V43.52ZM212.426 64.016H202.938V16H212.426V64.016ZM211.426 17V63.016H203.938V17H211.426ZM246.048 50.7324L247.761 51.5888L247.596 52.3478C246.721 56.3856 244.83 59.4651 241.999 61.5212C239.18 63.5676 235.531 64.528 231.259 64.528C226.8 64.528 222.455 63.2977 219.206 60.5562C215.932 57.7928 213.875 53.5797 213.875 47.848C213.875 41.4857 216.285 37.1077 219.774 34.3441C223.226 31.6099 227.64 30.528 231.579 30.528C235.524 30.528 239.469 31.4534 242.458 33.5124C245.488 35.5993 247.491 38.8268 247.491 43.24C247.491 43.7294 247.406 44.2727 247.343 44.6747C247.322 44.8114 247.303 44.9317 247.291 45.028L247.182 45.904H223.427V46.696C223.427 50.7907 224.616 53.8425 226.468 55.8598C228.315 57.8721 230.901 58.944 233.883 58.944C236.502 58.944 238.746 58.4272 240.658 57.2854C242.569 56.1449 244.226 54.3351 245.599 51.6208L246.048 50.7324ZM245.546 55.4924C243.158 60.9003 238.205 63.528 231.259 63.528C222.683 63.528 214.875 58.792 214.875 47.848C214.875 36.4216 222.956 32.0591 230.197 31.5743C230.64 31.5446 231.08 31.5295 231.515 31.5281C231.536 31.528 231.558 31.528 231.579 31.528C231.943 31.528 232.306 31.5362 232.667 31.5526C239.875 31.8807 246.491 35.5002 246.491 43.24C246.491 43.6451 246.428 44.0502 246.368 44.4331C246.343 44.5946 246.318 44.7521 246.299 44.904H222.427V46.696C222.427 55.272 227.419 59.944 233.883 59.944C238.327 59.944 241.937 58.5252 244.679 54.9802C245.326 54.1433 245.924 53.1879 246.474 52.1047C246.48 52.0942 246.485 52.0838 246.49 52.0733C246.491 52.0729 246.491 52.0725 246.491 52.072L246.619 52.136C246.619 52.1362 246.619 52.1358 246.619 52.136C246.355 53.354 245.996 54.4729 245.546 55.4924ZM232.59 32.5501C232.267 32.5112 231.93 32.4904 231.579 32.4882C231.558 32.4881 231.536 32.488 231.515 32.488C231.095 32.488 230.69 32.5155 230.298 32.5697C225.976 33.1674 223.369 37.0071 222.603 42.816C222.56 43.1432 222.522 43.4766 222.491 43.816H238.811V43.688C238.811 43.3921 238.807 43.1014 238.8 42.816C238.647 36.7386 236.845 33.0635 232.59 32.5501ZM237.8 42.816C237.72 39.764 237.214 37.4779 236.278 35.9453C235.309 34.3589 233.825 33.488 231.515 33.488C229.178 33.488 227.372 34.4412 226.044 36.1692C224.839 37.7381 224.001 39.9862 223.612 42.816H237.8ZM255.395 32.04L266.082 44.712L277.794 32.04H279.458L266.85 45.608L281.826 63.016H272.994L261.922 50.216L250.083 63.016H248.355L261.154 49.32L246.562 32.04H255.395ZM259.817 49.2863L244.409 31.04H255.859L266.117 43.2016L277.357 31.04H281.753L268.192 45.6337L284.006 64.016H272.537L261.897 51.7157L250.52 64.016H246.051L259.817 49.2863ZM17.096 41.64C24.392 41.64 30.28 38.952 30.28 30.76C30.28 21.736 25.224 19.368 17.928 19.368H14.664C13.512 19.368 13.192 19.688 13.192 20.712V41.64H17.096ZM90.256 23.08C90.256 25.384 88.4 27.24 86.096 27.24C83.856 27.24 82 25.384 82 23.08C82 20.776 83.856 18.92 86.096 18.92C88.4 18.92 90.256 20.776 90.256 23.08ZM178.943 44.52C185.023 44.52 191.487 41.576 191.487 31.848C191.487 22.76 185.983 19.368 179.007 19.368H175.039C173.887 19.368 173.567 19.688 173.567 20.712V44.52H178.943Z" fill="#0B5012"/>
</svg>
