<svg width="288" height="80" viewBox="0 0 288 80" fill="none" xmlns="http://www.w3.org/2000/svg">
<path d="M22 62.8125V17H41.4688C46.3646 17 49.9167 17.4167 52.125 18.25C54.3542 19.0625 56.1354 20.5208 57.4688 22.625C58.8021 24.7292 59.4688 27.1354 59.4688 29.8438C59.4688 33.2812 58.4583 36.125 56.4375 38.375C54.4167 40.6042 51.3958 42.0104 47.375 42.5938C49.375 43.7604 51.0208 45.0417 52.3125 46.4375C53.625 47.8333 55.3854 50.3125 57.5938 53.875L63.1875 62.8125H52.125L45.4375 52.8438C43.0625 49.2812 41.4375 47.0417 40.5625 46.125C39.6875 45.1875 38.7604 44.5521 37.7812 44.2188C36.8021 43.8646 35.25 43.6875 33.125 43.6875H31.25V62.8125H22ZM31.25 36.375H38.0938C42.5312 36.375 45.3021 36.1875 46.4062 35.8125C47.5104 35.4375 48.375 34.7917 49 33.875C49.625 32.9583 49.9375 31.8125 49.9375 30.4375C49.9375 28.8958 49.5208 27.6562 48.6875 26.7188C47.875 25.7604 46.7188 25.1562 45.2188 24.9062C44.4688 24.8021 42.2188 24.75 38.4688 24.75H31.25V36.375Z" fill="#012B4A"/>
<path d="M71.7188 39.75L63.75 38.3125C64.6458 35.1042 66.1875 32.7292 68.375 31.1875C70.5625 29.6458 73.8125 28.875 78.125 28.875C82.0417 28.875 84.9583 29.3438 86.875 30.2812C88.7917 31.1979 90.1354 32.375 90.9062 33.8125C91.6979 35.2292 92.0938 37.8438 92.0938 41.6562L92 51.9062C92 54.8229 92.1354 56.9792 92.4062 58.375C92.6979 59.75 93.2292 61.2292 94 62.8125H85.3125C85.0833 62.2292 84.8021 61.3646 84.4688 60.2188C84.3229 59.6979 84.2188 59.3542 84.1562 59.1875C82.6562 60.6458 81.0521 61.7396 79.3438 62.4688C77.6354 63.1979 75.8125 63.5625 73.875 63.5625C70.4583 63.5625 67.7604 62.6354 65.7812 60.7812C63.8229 58.9271 62.8438 56.5833 62.8438 53.75C62.8438 51.875 63.2917 50.2083 64.1875 48.75C65.0833 47.2708 66.3333 46.1458 67.9375 45.375C69.5625 44.5833 71.8958 43.8958 74.9375 43.3125C79.0417 42.5417 81.8854 41.8229 83.4688 41.1562V40.2812C83.4688 38.5938 83.0521 37.3958 82.2188 36.6875C81.3854 35.9583 79.8125 35.5938 77.5 35.5938C75.9375 35.5938 74.7188 35.9062 73.8438 36.5312C72.9688 37.1354 72.2604 38.2083 71.7188 39.75ZM83.4688 46.875C82.3438 47.25 80.5625 47.6979 78.125 48.2188C75.6875 48.7396 74.0938 49.25 73.3438 49.75C72.1979 50.5625 71.625 51.5938 71.625 52.8438C71.625 54.0729 72.0833 55.1354 73 56.0312C73.9167 56.9271 75.0833 57.375 76.5 57.375C78.0833 57.375 79.5938 56.8542 81.0312 55.8125C82.0938 55.0208 82.7917 54.0521 83.125 52.9062C83.3542 52.1562 83.4688 50.7292 83.4688 48.625V46.875Z" fill="#012B4A"/>
<path d="M126.719 39.4375L118.062 41C117.771 39.2708 117.104 37.9688 116.062 37.0938C115.042 36.2188 113.708 35.7812 112.062 35.7812C109.875 35.7812 108.125 36.5417 106.812 38.0625C105.521 39.5625 104.875 42.0833 104.875 45.625C104.875 49.5625 105.531 52.3438 106.844 53.9688C108.177 55.5938 109.958 56.4062 112.188 56.4062C113.854 56.4062 115.219 55.9375 116.281 55C117.344 54.0417 118.094 52.4062 118.531 50.0938L127.156 51.5625C126.26 55.5208 124.542 58.5104 122 60.5312C119.458 62.5521 116.052 63.5625 111.781 63.5625C106.927 63.5625 103.052 62.0312 100.156 58.9688C97.2812 55.9062 95.8438 51.6667 95.8438 46.25C95.8438 40.7708 97.2917 36.5104 100.188 33.4688C103.083 30.4062 107 28.875 111.938 28.875C115.979 28.875 119.188 29.75 121.562 31.5C123.958 33.2292 125.677 35.875 126.719 39.4375Z" fill="#012B4A"/>
<path d="M152.25 62.8125V57.8438C151.042 59.6146 149.448 61.0104 147.469 62.0312C145.51 63.0521 143.438 63.5625 141.25 63.5625C139.021 63.5625 137.021 63.0729 135.25 62.0938C133.479 61.1146 132.198 59.7396 131.406 57.9688C130.615 56.1979 130.219 53.75 130.219 50.625V29.625H139V44.875C139 49.5417 139.156 52.4062 139.469 53.4688C139.802 54.5104 140.396 55.3438 141.25 55.9688C142.104 56.5729 143.188 56.875 144.5 56.875C146 56.875 147.344 56.4688 148.531 55.6562C149.719 54.8229 150.531 53.8021 150.969 52.5938C151.406 51.3646 151.625 48.375 151.625 43.625V29.625H160.406V62.8125H152.25Z" fill="#012B4A"/>
<path d="M165.875 29.625H173.969V34.1562C176.865 30.6354 180.312 28.875 184.312 28.875C186.438 28.875 188.281 29.3125 189.844 30.1875C191.406 31.0625 192.688 32.3854 193.688 34.1562C195.146 32.3854 196.719 31.0625 198.406 30.1875C200.094 29.3125 201.896 28.875 203.812 28.875C206.25 28.875 208.312 29.375 210 30.375C211.688 31.3542 212.948 32.8021 213.781 34.7188C214.385 36.1354 214.688 38.4271 214.688 41.5938V62.8125H205.906V43.8438C205.906 40.5521 205.604 38.4271 205 37.4688C204.188 36.2188 202.938 35.5938 201.25 35.5938C200.021 35.5938 198.865 35.9688 197.781 36.7188C196.698 37.4688 195.917 38.5729 195.438 40.0312C194.958 41.4688 194.719 43.75 194.719 46.875V62.8125H185.938V44.625C185.938 41.3958 185.781 39.3125 185.469 38.375C185.156 37.4375 184.667 36.7396 184 36.2812C183.354 35.8229 182.469 35.5938 181.344 35.5938C179.99 35.5938 178.771 35.9583 177.688 36.6875C176.604 37.4167 175.823 38.4688 175.344 39.8438C174.885 41.2188 174.656 43.5 174.656 46.6875V62.8125H165.875V29.625Z" fill="#012B4A"/>
<path d="M220.469 25.125V17H229.25V25.125H220.469ZM220.469 62.8125V29.625H229.25V62.8125H220.469Z" fill="#012B4A"/>
<path d="M265.469 62.8125H256.688V45.875C256.688 42.2917 256.5 39.9792 256.125 38.9375C255.75 37.875 255.135 37.0521 254.281 36.4688C253.448 35.8854 252.438 35.5938 251.25 35.5938C249.729 35.5938 248.365 36.0104 247.156 36.8438C245.948 37.6771 245.115 38.7812 244.656 40.1562C244.219 41.5312 244 44.0729 244 47.7812V62.8125H235.219V29.625H243.375V34.5C246.271 30.75 249.917 28.875 254.312 28.875C256.25 28.875 258.021 29.2292 259.625 29.9375C261.229 30.625 262.438 31.5104 263.25 32.5938C264.083 33.6771 264.656 34.9062 264.969 36.2812C265.302 37.6562 265.469 39.625 265.469 42.1875V62.8125Z" fill="#012B4A"/>
</svg>
