<svg width="24" height="24" viewBox="0 0 24 24" fill="none" xmlns="http://www.w3.org/2000/svg">
<g clip-path="url(#clip0)">
<path fill-rule="evenodd" clip-rule="evenodd" d="M5.42889 5.25513H5.31647C4.92206 5.25513 4.60217 4.93543 4.60217 4.54102C4.60217 4.14642 4.92206 3.82672 5.31647 3.82672H5.42889V3.7143C5.42889 3.3197 5.74878 3 6.14319 3C6.5376 3 6.85749 3.3197 6.85749 3.7143V3.82672H6.96991C7.36432 3.82672 7.68421 4.14642 7.68421 4.54102C7.68421 4.93543 7.36432 5.25513 6.96991 5.25513H6.85749V5.36756C6.85749 5.76215 6.5376 6.08185 6.14319 6.08185C5.74878 6.08185 5.42889 5.76215 5.42889 5.36756V5.25513ZM18.1257 7.2552H18.2381V7.36762C18.2381 7.76203 18.558 8.08192 18.9524 8.08192C19.3468 8.08192 19.6667 7.76203 19.6667 7.36762V7.2552H19.7791C20.1735 7.2552 20.4932 6.93531 20.4932 6.5409C20.4932 6.14649 20.1735 5.8266 19.7791 5.8266H19.6667V5.71417C19.6667 5.31976 19.3468 4.99988 18.9524 4.99988C18.558 4.99988 18.2381 5.31976 18.2381 5.71417V5.8266H18.1257C17.7311 5.8266 17.4114 6.14649 17.4114 6.5409C17.4114 6.93531 17.7311 7.2552 18.1257 7.2552ZM23.7891 19.8189L12.5034 8.60571C12.2249 8.32886 11.7752 8.32886 11.4965 8.60571L0.210932 19.8189C0.00567079 20.0229 -0.0564021 20.3305 0.0540107 20.5979C0.16424 20.8654 0.424983 21.0399 0.71429 21.0399H23.2857C23.5751 21.0399 23.8358 20.8654 23.946 20.5979C24.0564 20.3305 23.9944 20.0229 23.7891 19.8189ZM8.08485 16.9253C8.4853 16.9253 8.78175 17.2525 8.79915 17.6396C8.81636 18.0252 8.45839 18.3537 8.08485 18.3537C7.6844 18.3537 7.38795 18.0265 7.37055 17.6396C7.35334 17.2538 7.71113 16.9253 8.08485 16.9253ZM13.3588 15.1131C13.3415 14.7273 13.6994 14.3988 14.0731 14.3988C14.4734 14.3988 14.77 14.726 14.7873 15.1131C14.8047 15.4987 14.4467 15.8274 14.0731 15.8274C13.6727 15.8274 13.3761 15.5 13.3588 15.1131ZM16.5489 18.0789C16.1486 18.0789 15.852 17.7517 15.8348 17.3646C15.8174 16.979 16.1754 16.6505 16.5489 16.6505C16.9494 16.6505 17.246 16.9777 17.2632 17.3646C17.2804 17.7504 16.9226 18.0789 16.5489 18.0789ZM3.22119 11.2073H3.3338V11.3197C3.3338 11.7143 3.6535 12.034 4.0481 12.034C4.44251 12.034 4.76221 11.7143 4.76221 11.3197V11.2073H4.87464C5.26923 11.2073 5.58893 10.8876 5.58893 10.493C5.58893 10.0986 5.26923 9.77887 4.87464 9.77887H4.76221V9.66645C4.76221 9.27185 4.44251 8.95215 4.0481 8.95215C3.6535 8.95215 3.3338 9.27185 3.3338 9.66645V9.77887H3.22119C2.82678 9.77887 2.50708 10.0986 2.50708 10.493C2.50708 10.8876 2.82678 11.2073 3.22119 11.2073ZM15.5715 5.44574C15.5887 5.83136 15.2308 6.15984 14.8572 6.15984C14.4568 6.15984 14.1603 5.83264 14.1429 5.44574C14.1257 5.05994 14.4837 4.73145 14.8572 4.73145C15.2577 4.73145 15.5541 5.05865 15.5715 5.44574ZM19.9047 11.0168C19.5312 11.0168 19.1732 11.3453 19.1904 11.7311C19.2078 12.118 19.5043 12.4454 19.9047 12.4454C20.2782 12.4454 20.6362 12.1169 20.619 11.7311C20.6016 11.3441 20.3052 11.0168 19.9047 11.0168ZM7.85747 8.73127C7.45702 8.73127 7.16057 8.40406 7.14317 8.01716C7.12596 7.63135 7.48393 7.30286 7.85747 7.30286C8.25792 7.30286 8.55437 7.63007 8.57176 8.01716C8.58898 8.40278 8.231 8.73127 7.85747 8.73127Z" fill="#004D6E"/>
</g>
<defs>
<clipPath id="clip0">
<path d="M0 0H24V24H0V0Z" fill="white"/>
</clipPath>
</defs>
</svg>
