<svg width="24" height="24" viewBox="0 0 24 24" fill="none" xmlns="http://www.w3.org/2000/svg">
<path d="M12 0C7.0267 0 3 4.03191 3 9C3 12.3336 4.12458 13.3754 10.0908 22.9417C10.9714 24.3536 13.0296 24.3519 13.9091 22.9417C19.8785 13.3703 21 12.333 21 9C21 4.0267 16.9681 0 12 0ZM12 21.75C6.027 12.1728 5.25 11.5682 5.25 9C5.25 5.27208 8.27208 2.25 12 2.25C15.7279 2.25 18.75 5.27208 18.75 9C18.75 11.5572 18.0391 12.0668 12 21.75ZM8.25 9C8.25 6.92892 9.92892 5.25 12 5.25C14.0711 5.25 15.75 6.92892 15.75 9C15.75 11.0711 14.0711 12.75 12 12.75C9.92892 12.75 8.25 11.0711 8.25 9Z" fill="#06719F"/>
</svg>
