<svg width="24" height="24" viewBox="0 0 24 24" xmlns="http://www.w3.org/2000/svg">
<g clip-path="url(#clip0)">
<path opacity="0.4" d="M5.96042 0H0.748853C0.611732 0.00020975 0.477292 0.0380072 0.360151 0.109283C0.24301 0.180558 0.14765 0.282584 0.0844406 0.404268C0.021231 0.525951 -0.00740961 0.662634 0.00163277 0.799457C0.0106752 0.93628 0.0570544 1.06801 0.135728 1.18031L5.35151 8.63344C6.77345 7.30275 8.5629 6.43072 10.4871 6.13078L7.24667 0.728437C7.11342 0.506288 6.92491 0.322432 6.6995 0.194776C6.47409 0.0671208 6.21946 1.69336e-05 5.96042 0V0ZM23.2489 0H18.0373C17.7782 1.69336e-05 17.5236 0.0671208 17.2982 0.194776C17.0728 0.322432 16.8843 0.506288 16.751 0.728437L13.5106 6.12891C15.4348 6.42872 17.2242 7.30057 18.6462 8.63109L23.862 1.18031C23.9407 1.06801 23.987 0.93628 23.9961 0.799457C24.0051 0.662634 23.9765 0.525951 23.9133 0.404268C23.8501 0.282584 23.7547 0.180558 23.6376 0.109283C23.5204 0.0380072 23.386 0.00020975 23.2489 0V0Z"/>
<path d="M12.25 7.5C10.6183 7.5 9.02325 7.98385 7.66655 8.89038C6.30984 9.7969 5.25242 11.0854 4.628 12.5929C4.00357 14.1004 3.8402 15.7592 4.15853 17.3595C4.47685 18.9598 5.26259 20.4298 6.41637 21.5836C7.57016 22.7374 9.04017 23.5232 10.6405 23.8415C12.2409 24.1598 13.8997 23.9964 15.4071 23.372C16.9146 22.7476 18.2031 21.6902 19.1096 20.3335C20.0161 18.9768 20.5 17.3817 20.5 15.75C20.5 13.562 19.6308 11.4635 18.0836 9.91637C16.5365 8.36919 14.438 7.5 12.25 7.5ZM16.5869 14.8716L14.8089 16.6059L15.2308 19.0538C15.2476 19.1526 15.2364 19.2542 15.1986 19.3471C15.1607 19.44 15.0976 19.5204 15.0165 19.5794C14.9353 19.6383 14.8393 19.6734 14.7392 19.6806C14.6392 19.6879 14.5391 19.6671 14.4503 19.6205L12.25 18.4631L10.0516 19.6186C9.96274 19.6652 9.86267 19.686 9.76264 19.6788C9.6626 19.6715 9.56659 19.6364 9.48543 19.5775C9.40427 19.5185 9.3412 19.4381 9.30333 19.3452C9.26546 19.2524 9.25429 19.1508 9.2711 19.0519L9.69297 16.6041L7.915 14.8697C7.84317 14.7996 7.79236 14.7108 7.7683 14.6133C7.74424 14.5159 7.74789 14.4137 7.77884 14.3182C7.80979 14.2227 7.86681 14.1377 7.94346 14.0729C8.02012 14.0081 8.11336 13.966 8.21266 13.9514L10.6689 13.5938L11.7672 11.3663C11.8118 11.2762 11.8806 11.2005 11.966 11.1475C12.0513 11.0945 12.1498 11.0665 12.2502 11.0665C12.3507 11.0665 12.4491 11.0945 12.5345 11.1475C12.6198 11.2005 12.6887 11.2762 12.7333 11.3663L13.8316 13.5938L16.2892 13.9519C16.3888 13.9663 16.4824 14.0084 16.5593 14.0733C16.6362 14.1382 16.6934 14.2233 16.7244 14.3191C16.7554 14.4148 16.7589 14.5173 16.7346 14.615C16.7103 14.7126 16.6591 14.8015 16.5869 14.8716Z"/>
</g>
<defs>
<clipPath id="clip0">
<path d="M0 0H24V24H0V0Z" fill="white"/>
</clipPath>
</defs>
</svg>
