<svg width="24" height="24" viewBox="0 0 24 24" fill="none" xmlns="http://www.w3.org/2000/svg">
<path fill-rule="evenodd" clip-rule="evenodd" d="M11.9813 8.4262C10.3271 8.4262 8.98596 10.0422 8.98596 12.0359C8.98596 14.0293 10.3267 15.6457 11.9813 15.6457C13.6351 15.6457 14.9766 14.0301 14.9766 12.0359C14.9766 10.0422 13.6354 8.4262 11.9813 8.4262ZM23.2572 4.45403C21.8048 3.84486 20.3513 3.6131 18.8986 3.6131C14.2869 3.61272 9.67563 5.9472 5.06396 5.9472C3.90739 5.9472 2.75158 5.80043 1.59501 5.4335C1.46509 5.39232 1.33479 5.37285 1.20749 5.37285C0.56312 5.37285 0 5.87157 0 6.56386V18.4426C0 18.9154 0.270702 19.3636 0.705398 19.5456C2.15775 20.1551 3.61123 20.3869 5.06396 20.3869C9.67563 20.3869 14.2873 18.0524 18.899 18.0524C20.0555 18.0524 21.2114 18.1992 22.3679 18.5661C22.4978 18.6073 22.6281 18.6268 22.7554 18.6268C23.3998 18.6268 23.9629 18.128 23.9629 17.4358V5.55744C23.9626 5.08417 23.6919 4.63637 23.2572 4.45403ZM22.1654 14.473C21.1586 14.6003 20.3465 15.3458 20.1293 16.3256C19.7249 16.2912 19.3221 16.2552 18.8986 16.2552C16.369 16.2552 13.914 16.8764 11.5402 17.4773C9.28025 18.0494 7.14571 18.5897 5.06396 18.5897C4.76368 18.5897 4.47051 18.5777 4.18371 18.5545C4.13055 17.2729 3.08705 16.2477 1.79757 16.2477V9.62957C2.96087 9.62957 3.92911 8.7965 4.14665 7.69198C4.45142 7.71107 4.7487 7.74439 5.06434 7.74439C7.59388 7.74439 10.0485 7.12324 12.4223 6.5223C14.6819 5.95057 16.8165 5.41029 18.8986 5.41029C19.3045 5.41029 19.6931 5.43949 20.075 5.4818C20.1068 6.67843 21.0062 7.64742 22.1654 7.79419V14.473Z" fill="#06719F"/>
</svg>
