<svg width="24" height="24" viewBox="0 0 24 24" fill="none" xmlns="http://www.w3.org/2000/svg">
<path fill-rule="evenodd" clip-rule="evenodd" d="M22.8 3.59998H1.2C0.537375 3.59998 0 4.13735 0 4.79998V19.2C0 19.8626 0.537375 20.4 1.2 20.4H22.8C23.4626 20.4 24 19.8626 24 19.2V4.79998C24 4.13735 23.4626 3.59998 22.8 3.59998ZM22.2 18.6H1.8V5.39998H22.2V18.6ZM11.1 14.4H14.1C14.2657 14.4 14.4 14.2657 14.4 14.1V12.9C14.4 12.7342 14.2657 12.6 14.1 12.6H11.1C10.9342 12.6 10.8 12.7342 10.8 12.9V14.1C10.8 14.2657 10.9342 14.4 11.1 14.4ZM20.1 12.6H17.1C16.9342 12.6 16.8 12.7342 16.8 12.9V14.1C16.8 14.2657 16.9342 14.4 17.1 14.4H20.1C20.2657 14.4 20.4 14.2657 20.4 14.1V12.9C20.4 12.7342 20.2657 12.6 20.1 12.6ZM11.1 11.4H20.1C20.2658 11.4 20.4 11.2657 20.4 11.1V9.89998C20.4 9.73423 20.2658 9.59998 20.1 9.59998H11.1C10.9342 9.59998 10.8 9.73423 10.8 9.89998V11.1C10.8 11.2657 10.9342 11.4 11.1 11.4ZM5.052 12.0645L6.63412 12.4935C6.79125 12.5362 6.9 12.6641 6.9 12.8047C6.9 12.9847 6.73125 13.131 6.52275 13.131H5.535C5.37937 13.131 5.22638 13.092 5.09363 13.0204C4.97813 12.9577 4.83713 12.969 4.74713 13.0646L4.2945 13.542C4.17788 13.665 4.197 13.866 4.33687 13.9616C4.64813 14.1735 5.01412 14.2946 5.4 14.3186V14.7C5.4 14.8657 5.53425 15 5.7 15H6.3C6.46575 15 6.6 14.8657 6.6 14.7V14.3156C7.43175 14.2744 8.1 13.6192 8.1 12.8044C8.1 12.123 7.62675 11.5189 6.948 11.3355L5.36588 10.9065C5.20875 10.8637 5.1 10.7359 5.1 10.5952C5.1 10.4152 5.26875 10.269 5.47725 10.269H6.465C6.62063 10.269 6.77363 10.308 6.90637 10.3796C7.02188 10.4419 7.16288 10.431 7.25288 10.3354L7.7055 9.85798C7.82212 9.73498 7.803 9.53398 7.66313 9.43835C7.35187 9.22648 6.98588 9.10535 6.6 9.08135V8.69998C6.6 8.53423 6.46575 8.39998 6.3 8.39998H5.7C5.53425 8.39998 5.4 8.53423 5.4 8.69998V9.08435C4.56825 9.1256 3.9 9.78073 3.9 10.5956C3.9 11.277 4.37325 11.8811 5.052 12.0645Z" fill="#06719F"/>
</svg>
