<svg width="24" height="24" viewBox="0 0 24 24" fill="none" xmlns="http://www.w3.org/2000/svg">
<path d="M22.8 5H1.2C0.537375 5 0 5.53738 0 6.2V18.2C0 18.8626 0.537375 19.4 1.2 19.4H22.8C23.4626 19.4 24 18.8626 24 18.2V6.2C24 5.53738 23.4626 5 22.8 5ZM1.8 17.6V15.2C3.12563 15.2 4.2 16.2744 4.2 17.6H1.8ZM1.8 9.2V6.8H4.2C4.2 8.12563 3.12563 9.2 1.8 9.2ZM12 15.8C10.3429 15.8 9 14.1879 9 12.2C9 10.2118 10.3433 8.6 12 8.6C13.6568 8.6 15 10.2118 15 12.2C15 14.1886 13.6564 15.8 12 15.8ZM22.2 17.6H19.8C19.8 16.2744 20.8744 15.2 22.2 15.2V17.6ZM22.2 9.2C20.8744 9.2 19.8 8.12563 19.8 6.8H22.2V9.2Z" fill="#06719F"/>
</svg>
