<svg width="24" height="24" viewBox="0 0 24 24" fill="none" xmlns="http://www.w3.org/2000/svg">
<path class="icon" d="M22.5 16.3175V3.75C22.5 2.50734 21.4927 1.5 20.25 1.5H3.75C2.50734 1.5 1.5 2.50734 1.5 3.75V20.2494C1.5 21.4921 2.50734 22.4994 3.75 22.4994H16.318C16.9148 22.4994 17.4871 22.2624 17.909 21.8404L21.841 17.9085C22.2629 17.4865 22.5 16.9142 22.5 16.3175ZM16.5 20.0675V16.4994H20.068L16.5 20.0675ZM20.25 3.75V14.2494H15.375C14.7537 14.2494 14.25 14.7531 14.25 15.3744V20.2494H3.75V3.75H20.25Z" fill="#06719F"/>
</svg>
