<svg width="32" height="31" viewBox="0 0 32 31" fill="none" xmlns="http://www.w3.org/2000/svg">
<path fill-rule="evenodd" clip-rule="evenodd" d="M15 31C23.2843 31 30 24.2843 30 16C30 7.71573 23.2843 1 15 1C6.71573 1 0 7.71573 0 16C0 24.2843 6.71573 31 15 31Z" fill="#EBFFAE"/>
<path fill-rule="evenodd" clip-rule="evenodd" d="M22.5723 19.7368C21.8931 19.0069 20.6222 17.909 20.6222 14.3125C20.6222 11.5809 18.7069 9.39414 16.1243 8.85766V8.125C16.1243 7.50379 15.6209 7 15 7C14.3792 7 13.8757 7.50379 13.8757 8.125V8.85766C11.2931 9.39414 9.37784 11.5809 9.37784 14.3125C9.37784 17.909 8.10694 19.0069 7.42772 19.7368C7.21678 19.9635 7.12327 20.2346 7.12502 20.5C7.12889 21.0766 7.58135 21.625 8.25354 21.625H21.7465C22.4187 21.625 22.8715 21.0766 22.875 20.5C22.8768 20.2346 22.7833 19.9632 22.5723 19.7368V19.7368ZM9.49912 19.9375C10.2451 18.9542 11.0608 17.3243 11.0646 14.3329C11.0646 14.3259 11.0625 14.3195 11.0625 14.3125C11.0625 12.1377 12.8253 10.375 15 10.375C17.1748 10.375 18.9375 12.1377 18.9375 14.3125C18.9375 14.3195 18.9354 14.3259 18.9354 14.3329C18.9393 17.3247 19.7549 18.9545 20.5009 19.9375H9.49912ZM15 25C16.2417 25 17.249 23.9928 17.249 22.75H12.7511C12.7511 23.9928 13.7583 25 15 25Z" fill="#99CC00"/>
<path fill-rule="evenodd" clip-rule="evenodd" d="M26 11C28.7614 11 31 8.76142 31 6C31 3.23858 28.7614 1 26 1C23.2386 1 21 3.23858 21 6C21 8.76142 23.2386 11 26 11Z" fill="#F67676" stroke="white" stroke-width="2"/>
</svg>
