<svg width="36" height="36" viewBox="0 0 36 36" fill="none" xmlns="http://www.w3.org/2000/svg">
<path opacity="0.4" d="M5.69333 10.7998C5.06875 12.1118 4.01168 13.1688 2.69971 13.7934V24.0062C4.01168 24.6308 5.06875 25.6878 5.69333 26.9998H30.3061C30.9307 25.6878 31.9877 24.6308 33.2997 24.0062V13.7934C31.9877 13.1688 30.9307 12.1118 30.3061 10.7998H5.69333ZM17.9997 25.1998C15.0185 25.1998 12.5997 22.3783 12.5997 18.8998C12.5997 15.4213 15.0185 12.5998 17.9997 12.5998C20.981 12.5998 23.3997 15.4202 23.3997 18.8998C23.3997 22.3794 20.981 25.1998 17.9997 25.1998Z" fill="white"/>
<path d="M34.65 8.1001H1.35C0.991958 8.1001 0.64858 8.24233 0.395406 8.4955C0.142232 8.74868 0 9.09206 0 9.4501L0 28.3501C0 28.7081 0.142232 29.0515 0.395406 29.3047C0.64858 29.5579 0.991958 29.7001 1.35 29.7001H34.65C35.008 29.7001 35.3514 29.5579 35.6046 29.3047C35.8578 29.0515 36 28.7081 36 28.3501V9.4501C36 9.09206 35.8578 8.74868 35.6046 8.4955C35.3514 8.24233 35.008 8.1001 34.65 8.1001ZM33.3 24.0065C31.988 24.6311 30.931 25.6881 30.3064 27.0001H5.69362C5.06904 25.6881 4.01198 24.6311 2.7 24.0065V13.7937C4.01198 13.1691 5.06904 12.1121 5.69362 10.8001H30.3064C30.931 12.1121 31.988 13.1691 33.3 13.7937V24.0065ZM19.8 20.7001H18.9V15.7501C18.9 15.6308 18.8526 15.5163 18.7682 15.4319C18.6838 15.3475 18.5693 15.3001 18.45 15.3001H17.6861C17.4198 15.2996 17.1593 15.3779 16.9374 15.5251L16.0751 16.1C15.976 16.1662 15.9072 16.2689 15.8838 16.3858C15.8604 16.5026 15.8843 16.624 15.9502 16.7232L16.4497 17.4719C16.5159 17.571 16.6187 17.6398 16.7356 17.6632C16.8524 17.6866 16.9737 17.6627 17.073 17.5968L17.0994 17.5793V20.7001H16.2C16.0807 20.7001 15.9662 20.7475 15.8818 20.8319C15.7974 20.9163 15.75 21.0308 15.75 21.1501V22.0501C15.75 22.1694 15.7974 22.2839 15.8818 22.3683C15.9662 22.4527 16.0807 22.5001 16.2 22.5001H19.8C19.9193 22.5001 20.0338 22.4527 20.1182 22.3683C20.2026 22.2839 20.25 22.1694 20.25 22.0501V21.1501C20.25 21.0308 20.2026 20.9163 20.1182 20.8319C20.0338 20.7475 19.9193 20.7001 19.8 20.7001Z" fill="white"/>
</svg>
