<svg width="24" height="24" viewBox="0 0 24 24" fill="none" xmlns="http://www.w3.org/2000/svg">
<path class="icon" fill-rule="evenodd" clip-rule="evenodd" d="M20.25 10.5H13.5V3.75C13.5 3.33562 13.1644 3 12.75 3H11.25C10.8356 3 10.5 3.33562 10.5 3.75V10.5H3.75C3.33562 10.5 3 10.8356 3 11.25V12.75C3 13.1644 3.33562 13.5 3.75 13.5H10.5V20.25C10.5 20.6644 10.8356 21 11.25 21H12.75C13.1644 21 13.5 20.6644 13.5 20.25V13.5H20.25C20.6644 13.5 21 13.1644 21 12.75V11.25C21 10.8356 20.6644 10.5 20.25 10.5Z" fill="#06719F"/>
</svg>
