<svg width="244" height="47" viewBox="0 0 244 47" fill="none" xmlns="http://www.w3.org/2000/svg">
<path d="M0 45.8125V0H19.4688C24.3646 0 27.9167 0.416667 30.125 1.25C32.3542 2.0625 34.1354 3.52083 35.4688 5.625C36.8021 7.72917 37.4688 10.1354 37.4688 12.8438C37.4688 16.2812 36.4583 19.125 34.4375 21.375C32.4167 23.6042 29.3958 25.0104 25.375 25.5938C27.375 26.7604 29.0208 28.0417 30.3125 29.4375C31.625 30.8333 33.3854 33.3125 35.5938 36.875L41.1875 45.8125H30.125L23.4375 35.8438C21.0625 32.2812 19.4375 30.0417 18.5625 29.125C17.6875 28.1875 16.7604 27.5521 15.7812 27.2188C14.8021 26.8646 13.25 26.6875 11.125 26.6875H9.25V45.8125H0ZM9.25 19.375H16.0938C20.5312 19.375 23.3021 19.1875 24.4062 18.8125C25.5104 18.4375 26.375 17.7917 27 16.875C27.625 15.9583 27.9375 14.8125 27.9375 13.4375C27.9375 11.8958 27.5208 10.6562 26.6875 9.71875C25.875 8.76042 24.7188 8.15625 23.2188 7.90625C22.4688 7.80208 20.2188 7.75 16.4688 7.75H9.25V19.375Z" fill="#012B4A"/>
<path d="M49.7188 22.75L41.75 21.3125C42.6458 18.1042 44.1875 15.7292 46.375 14.1875C48.5625 12.6458 51.8125 11.875 56.125 11.875C60.0417 11.875 62.9583 12.3438 64.875 13.2812C66.7917 14.1979 68.1354 15.375 68.9062 16.8125C69.6979 18.2292 70.0938 20.8438 70.0938 24.6562L70 34.9062C70 37.8229 70.1354 39.9792 70.4062 41.375C70.6979 42.75 71.2292 44.2292 72 45.8125H63.3125C63.0833 45.2292 62.8021 44.3646 62.4688 43.2188C62.3229 42.6979 62.2188 42.3542 62.1562 42.1875C60.6562 43.6458 59.0521 44.7396 57.3438 45.4688C55.6354 46.1979 53.8125 46.5625 51.875 46.5625C48.4583 46.5625 45.7604 45.6354 43.7812 43.7812C41.8229 41.9271 40.8438 39.5833 40.8438 36.75C40.8438 34.875 41.2917 33.2083 42.1875 31.75C43.0833 30.2708 44.3333 29.1458 45.9375 28.375C47.5625 27.5833 49.8958 26.8958 52.9375 26.3125C57.0417 25.5417 59.8854 24.8229 61.4688 24.1562V23.2812C61.4688 21.5938 61.0521 20.3958 60.2188 19.6875C59.3854 18.9583 57.8125 18.5938 55.5 18.5938C53.9375 18.5938 52.7188 18.9062 51.8438 19.5312C50.9688 20.1354 50.2604 21.2083 49.7188 22.75ZM61.4688 29.875C60.3438 30.25 58.5625 30.6979 56.125 31.2188C53.6875 31.7396 52.0938 32.25 51.3438 32.75C50.1979 33.5625 49.625 34.5938 49.625 35.8438C49.625 37.0729 50.0833 38.1354 51 39.0312C51.9167 39.9271 53.0833 40.375 54.5 40.375C56.0833 40.375 57.5938 39.8542 59.0312 38.8125C60.0938 38.0208 60.7917 37.0521 61.125 35.9062C61.3542 35.1562 61.4688 33.7292 61.4688 31.625V29.875Z" fill="#012B4A"/>
<path d="M104.719 22.4375L96.0625 24C95.7708 22.2708 95.1042 20.9688 94.0625 20.0938C93.0417 19.2188 91.7083 18.7812 90.0625 18.7812C87.875 18.7812 86.125 19.5417 84.8125 21.0625C83.5208 22.5625 82.875 25.0833 82.875 28.625C82.875 32.5625 83.5312 35.3438 84.8438 36.9688C86.1771 38.5938 87.9583 39.4062 90.1875 39.4062C91.8542 39.4062 93.2188 38.9375 94.2812 38C95.3438 37.0417 96.0938 35.4062 96.5312 33.0938L105.156 34.5625C104.26 38.5208 102.542 41.5104 100 43.5312C97.4583 45.5521 94.0521 46.5625 89.7812 46.5625C84.9271 46.5625 81.0521 45.0312 78.1562 41.9688C75.2812 38.9062 73.8438 34.6667 73.8438 29.25C73.8438 23.7708 75.2917 19.5104 78.1875 16.4688C81.0833 13.4062 85 11.875 89.9375 11.875C93.9792 11.875 97.1875 12.75 99.5625 14.5C101.958 16.2292 103.677 18.875 104.719 22.4375Z" fill="#012B4A"/>
<path d="M130.25 45.8125V40.8438C129.042 42.6146 127.448 44.0104 125.469 45.0312C123.51 46.0521 121.438 46.5625 119.25 46.5625C117.021 46.5625 115.021 46.0729 113.25 45.0938C111.479 44.1146 110.198 42.7396 109.406 40.9688C108.615 39.1979 108.219 36.75 108.219 33.625V12.625H117V27.875C117 32.5417 117.156 35.4062 117.469 36.4688C117.802 37.5104 118.396 38.3438 119.25 38.9688C120.104 39.5729 121.188 39.875 122.5 39.875C124 39.875 125.344 39.4688 126.531 38.6562C127.719 37.8229 128.531 36.8021 128.969 35.5938C129.406 34.3646 129.625 31.375 129.625 26.625V12.625H138.406V45.8125H130.25Z" fill="#012B4A"/>
<path d="M143.875 12.625H151.969V17.1562C154.865 13.6354 158.312 11.875 162.312 11.875C164.438 11.875 166.281 12.3125 167.844 13.1875C169.406 14.0625 170.688 15.3854 171.688 17.1562C173.146 15.3854 174.719 14.0625 176.406 13.1875C178.094 12.3125 179.896 11.875 181.812 11.875C184.25 11.875 186.312 12.375 188 13.375C189.688 14.3542 190.948 15.8021 191.781 17.7188C192.385 19.1354 192.688 21.4271 192.688 24.5938V45.8125H183.906V26.8438C183.906 23.5521 183.604 21.4271 183 20.4688C182.188 19.2188 180.938 18.5938 179.25 18.5938C178.021 18.5938 176.865 18.9688 175.781 19.7188C174.698 20.4688 173.917 21.5729 173.438 23.0312C172.958 24.4688 172.719 26.75 172.719 29.875V45.8125H163.938V27.625C163.938 24.3958 163.781 22.3125 163.469 21.375C163.156 20.4375 162.667 19.7396 162 19.2812C161.354 18.8229 160.469 18.5938 159.344 18.5938C157.99 18.5938 156.771 18.9583 155.688 19.6875C154.604 20.4167 153.823 21.4688 153.344 22.8438C152.885 24.2188 152.656 26.5 152.656 29.6875V45.8125H143.875V12.625Z" fill="#012B4A"/>
<path d="M198.469 8.125V0H207.25V8.125H198.469ZM198.469 45.8125V12.625H207.25V45.8125H198.469Z" fill="#012B4A"/>
<path d="M243.469 45.8125H234.688V28.875C234.688 25.2917 234.5 22.9792 234.125 21.9375C233.75 20.875 233.135 20.0521 232.281 19.4688C231.448 18.8854 230.438 18.5938 229.25 18.5938C227.729 18.5938 226.365 19.0104 225.156 19.8438C223.948 20.6771 223.115 21.7812 222.656 23.1562C222.219 24.5312 222 27.0729 222 30.7812V45.8125H213.219V12.625H221.375V17.5C224.271 13.75 227.917 11.875 232.312 11.875C234.25 11.875 236.021 12.2292 237.625 12.9375C239.229 13.625 240.438 14.5104 241.25 15.5938C242.083 16.6771 242.656 17.9062 242.969 19.2812C243.302 20.6562 243.469 22.625 243.469 25.1875V45.8125Z" fill="#012B4A"/>
</svg>
