<svg width="24" height="24" viewBox="0 0 24 24" fill="none" xmlns="http://www.w3.org/2000/svg">
<path fill-rule="evenodd" clip-rule="evenodd" d="M2.4 14.3477C1.50443 14.4352 0.838935 15.2161 0.894429 16.1142C0.378 15.4358 0 14.1295 0 11.3571C0 7.43266 4.31486 4.92852 7.28572 4.92852C8.24105 4.92303 9.19354 5.03311 10.1224 5.25638C11.0412 5.51198 12.0079 5.54401 12.9416 5.34981C13.7432 5.18063 14.5272 4.9367 15.2833 4.62123C15.304 4.61317 15.3247 4.60513 15.3453 4.59712C15.4812 4.54423 15.6139 4.49262 15.7453 4.44423C15.9994 5.41409 16.6427 6.21423 17.5714 6.21423C17.8081 6.21423 18 6.02236 18 5.78566C18 5.54897 17.8081 5.35709 17.5714 5.35709C16.9286 5.35709 16.4803 4.37995 16.4803 3.50266C16.4678 3.19878 16.5367 2.89708 16.68 2.62881C16.7701 2.45759 16.9495 2.35228 17.1429 2.35709C18.4011 2.35709 18.4286 3.99295 18.4286 4.07138C18.4375 4.29495 18.6177 4.4736 18.8413 4.48059C19.065 4.48758 19.256 4.32053 19.2789 4.09795C20.1072 4.10708 20.9299 4.23539 21.7217 4.47895C22.0899 4.60152 22.5724 4.76266 23.001 4.92552C22.9432 4.96297 22.8892 5.00603 22.8399 5.05409C22.6774 5.22225 22.6798 5.48956 22.8451 5.65487C23.0104 5.82019 23.2777 5.82251 23.4459 5.66009C23.535 5.57095 23.7416 5.58595 23.9331 5.63352C23.6259 6.42252 22.2343 7.92852 20.5714 7.92852C18.2477 7.92852 17.6571 8.45438 17.1677 9.93423C17.0093 10.3548 16.7728 10.7418 16.4709 11.0747C16.3959 10.8385 16.3299 10.6084 16.2759 10.3941C16.2395 10.2446 16.1259 10.126 15.9781 10.0834C15.8302 10.0409 15.6709 10.0808 15.5606 10.188C15.4503 10.2953 15.406 10.4534 15.4444 10.6024C15.5668 11.0751 15.714 11.541 15.8854 11.9982C15.8889 12.0089 15.8927 12.0188 15.897 12.0295C16.5039 13.6559 17.5384 15.6522 18.7256 16.0478C19.1528 16.1754 19.4907 16.5035 19.6307 16.9268H17.5736C17.412 16.9268 17.412 16.9268 17.2526 16.5544C17.0086 15.9357 16.6371 15.3752 16.1623 14.9095C14.8204 13.5677 12.2464 12.6994 12.1376 12.6629C12.0297 12.627 11.912 12.6354 11.8103 12.6863C11.7086 12.7372 11.6313 12.8264 11.5954 12.9342C11.5555 13.0593 11.5761 13.1959 11.6511 13.3037C10.8562 13.4632 10.1129 13.8165 9.48729 14.3322C9.55492 14.0264 9.63788 13.7242 9.73586 13.4267C10.0539 12.4122 10.449 11.1497 9.81429 9.87981C8.81957 7.89509 6 7.07138 4.71429 7.07138C4.47759 7.07138 4.28571 7.26326 4.28571 7.49995C4.28571 7.73664 4.47759 7.92852 4.71429 7.92852C5.84957 7.92852 8.268 8.70852 9.04286 10.2629C9.52372 11.2234 9.21429 12.2134 8.91429 13.1704C8.72087 13.6889 8.60533 14.2333 8.57143 14.7857C8.57134 14.941 8.5854 15.0961 8.61343 15.2489C8.61514 15.2609 8.61686 15.2725 8.61943 15.2845C8.86029 16.4965 10.0003 16.4999 10.7143 16.4999C11.1476 16.4999 11.5136 16.7875 11.8029 17.3571L8.01386 17.3498C7.84544 16.9141 7.65065 16.489 7.43057 16.077C7.43077 16.0742 7.43077 16.0715 7.43057 16.0688C7.42929 16.066 7.42736 16.0638 7.42543 16.0615C7.4235 16.0593 7.42157 16.057 7.42029 16.0542C7.09569 15.443 6.80888 15.0097 6.78715 14.9768L6.78686 14.9764C6.70188 14.849 6.55539 14.7766 6.40258 14.7865C6.24977 14.7964 6.11384 14.8871 6.04601 15.0244C5.97818 15.1617 5.98874 15.3247 6.07371 15.4521C6.07714 15.4568 6.22671 15.6831 6.42857 16.0337C5.74443 16.3228 5.04084 16.5635 4.323 16.7541C4.28443 16.4837 4.25914 16.2158 4.24843 15.9784C4.23644 15.5109 4.03037 15.0695 3.67968 14.7601C3.329 14.4507 2.86535 14.3013 2.4 14.3477ZM20.1429 4.92852H19.7143C19.4776 4.92852 19.2857 5.1204 19.2857 5.35709C19.2857 5.59378 19.4776 5.78566 19.7143 5.78566H20.1429C20.3796 5.78566 20.5714 5.59378 20.5714 5.35709C20.5714 5.1204 20.3796 4.92852 20.1429 4.92852ZM16.1636 20.7474C14.6134 20.7474 13.1691 20.7903 11.7698 20.8332L11.7651 20.8333C8.25518 20.9391 5.48152 21.0227 3.84469 20.2992C2.63098 19.7866 2.10298 18.251 1.87326 16.9944C1.86941 16.988 1.86941 16.9807 1.86941 16.9743C1.81241 16.6602 1.77298 16.3602 1.74726 16.103C1.7137 15.7669 1.88844 15.4443 2.18829 15.2887C2.48814 15.1332 2.85252 15.1761 3.10798 15.3972C3.28676 15.5535 3.39067 15.7785 3.39384 16.016C3.41312 16.4514 3.52069 17.9347 4.08384 18.7229C4.34098 19.112 5.22512 19.3344 5.59284 19.412C7.16875 19.7457 9.6018 19.8152 12.1799 19.8889L12.1838 19.889L12.1968 19.8894C15.8635 19.9934 20.0157 20.1113 21.942 21.053C22.0331 21.0941 22.0737 21.2012 22.0326 21.2924C21.9916 21.3835 21.8844 21.4241 21.7933 21.383C20.5041 20.8392 18.3587 20.7564 16.4301 20.7474H16.1636Z" fill="#004D6E"/>
</svg>
