<svg width="18" height="16" viewBox="0 0 18 16" fill="none" xmlns="http://www.w3.org/2000/svg">
<path d="M1.6665 2.66675V6.66675H5.6665" stroke="#DC241F" stroke-width="2" stroke-linecap="round" stroke-linejoin="round"/>
<path d="M16.3335 13.3333V9.33325H12.3335" stroke="#DC241F" stroke-width="2" stroke-linecap="round" stroke-linejoin="round"/>
<path d="M14.6598 5.99989C14.3217 5.04441 13.7471 4.19016 12.9895 3.51683C12.232 2.84351 11.3162 2.37306 10.3276 2.14939C9.3391 1.92572 8.31 1.95612 7.33638 2.23774C6.36275 2.51936 5.47634 3.04303 4.75984 3.75989L1.6665 6.66655M16.3332 9.33322L13.2398 12.2399C12.5233 12.9567 11.6369 13.4804 10.6633 13.762C9.68967 14.0437 8.66058 14.0741 7.67203 13.8504C6.68348 13.6267 5.7677 13.1563 5.01015 12.4829C4.25259 11.8096 3.67795 10.9554 3.33984 9.99989" stroke="#DC241F" stroke-width="2" stroke-linecap="round" stroke-linejoin="round"/>
</svg>
