<svg width="24" height="24" viewBox="0 0 24 24" fill="none" xmlns="http://www.w3.org/2000/svg">
<path class="icon" fill-rule="evenodd" clip-rule="evenodd" d="M23.7895 21.9368L18.1099 16.2573C18.0023 16.1497 17.862 16.0936 17.7123 16.0936H17.0947C18.5684 14.386 19.462 12.1637 19.462 9.73099C19.462 4.35556 15.1064 0 9.73099 0C4.35556 0 0 4.35556 0 9.73099C0 15.1064 4.35556 19.462 9.73099 19.462C12.1637 19.462 14.386 18.5684 16.0936 17.0947V17.7123C16.0936 17.862 16.1544 18.0023 16.2573 18.1099L21.9368 23.7895C22.1567 24.0094 22.5123 24.0094 22.7322 23.7895L23.7895 22.7322C24.0094 22.5123 24.0094 22.1567 23.7895 21.9368ZM9.73099 17.2164C5.59532 17.2164 2.24561 13.8667 2.24561 9.73099C2.24561 5.59532 5.59532 2.24561 9.73099 2.24561C13.8667 2.24561 17.2164 5.59532 17.2164 9.73099C17.2164 13.8667 13.8667 17.2164 9.73099 17.2164Z" fill="#06719F"/>
</svg>
