<svg width="24" height="24" viewBox="0 0 24 24" fill="none" xmlns="http://www.w3.org/2000/svg">
<path fill-rule="evenodd" clip-rule="evenodd" d="M4.49123 3.01752H8.42105C8.72983 3.01752 8.98246 3.27015 8.98246 3.57892V4.70173C8.98246 5.0105 8.72983 5.26313 8.42105 5.26313H4.49123C3.25146 5.26313 2.24561 6.26898 2.24561 7.50875V16.4912C2.24561 17.731 3.25146 18.7368 4.49123 18.7368H8.42105C8.72983 18.7368 8.98246 18.9894 8.98246 19.2982V20.421C8.98246 20.7298 8.72983 20.9824 8.42105 20.9824H4.49123C2.0117 20.9824 0 18.9707 0 16.4912V7.50875C0 5.02921 2.0117 3.01752 4.49123 3.01752ZM15.3029 3.9298L14.386 4.84676C14.1614 5.07132 14.1661 5.43155 14.3953 5.64676L19.6866 10.7836H8.04678C7.73801 10.7836 7.48538 11.0362 7.48538 11.345V12.6549C7.48538 12.9637 7.73801 13.2163 8.04678 13.2163H19.6866L14.3953 18.3485C14.1708 18.5684 14.1661 18.9286 14.386 19.1485L15.3029 20.0655C15.5228 20.2854 15.8784 20.2854 16.0982 20.0655L23.7895 12.393C24.0094 12.1731 24.0094 11.8175 23.7895 11.5976L16.0982 3.92512C15.8784 3.70991 15.5228 3.70991 15.3029 3.9298Z" fill="#06719F"/>
</svg>
