<svg width="24" height="24" viewBox="0 0 24 24" fill="none" xmlns="http://www.w3.org/2000/svg">
<g clip-path="url(#clip0)">
<path d="M10.95 0.741707L8.22919 6.25837L2.14169 7.14587C1.05002 7.30421 0.61252 8.65004 1.40419 9.42087L5.80835 13.7125L4.76669 19.775C4.57919 20.8709 5.73335 21.6917 6.70002 21.1792L12.1459 18.3167L17.5917 21.1792C18.5584 21.6875 19.7125 20.8709 19.525 19.775L18.4834 13.7125L22.8875 9.42087C23.6792 8.65004 23.2417 7.30421 22.15 7.14587L16.0625 6.25837L13.3417 0.741707C12.8542 -0.241627 11.4417 -0.254127 10.95 0.741707Z" fill="#06719F"/>
</g>
<defs>
<clipPath id="clip0">
<path d="M0 0H24V24H0V0Z" fill="white"/>
</clipPath>
</defs>
</svg>
