<svg width="24" height="24" viewBox="0 0 24 24" fill="none" xmlns="http://www.w3.org/2000/svg">
<path fill-rule="evenodd" clip-rule="evenodd" d="M5.33333 13.3334C4.59708 13.3334 4 13.9304 4 14.6667C4 15.4029 4.59708 16 5.33333 16C6.06958 16 6.66667 15.4029 6.66667 14.6667C6.66667 13.9304 6.06958 13.3334 5.33333 13.3334ZM11.7771 9.28835L12.4538 7.25877C12.5021 7.11502 12.5863 6.99419 12.6588 6.86585C12.4617 6.75085 12.2446 6.66669 12 6.66669C11.2638 6.66669 10.6667 7.26377 10.6667 8.00002C10.6667 8.65752 11.1512 9.17877 11.7771 9.28835ZM7.33333 8.66669C6.59708 8.66669 6 9.26377 6 10C6 10.7363 6.59708 11.3334 7.33333 11.3334C8.06958 11.3334 8.66667 10.7363 8.66667 10C8.66667 9.26377 8.06958 8.66669 7.33333 8.66669ZM12 2.66669C5.3725 2.66669 0 8.03919 0 14.6667C0 16.8667 0.59375 18.9275 1.6275 20.7C1.86125 21.1009 2.30667 21.3334 2.77083 21.3334H21.2292C21.6933 21.3334 22.1388 21.1009 22.3725 20.7C23.4062 18.9275 24 16.8667 24 14.6667C24 8.03919 18.6275 2.66669 12 2.66669ZM20.8446 19.3334H3.15542C2.39833 17.9013 2 16.2967 2 14.6667C2 9.15252 6.48583 4.66669 12 4.66669C17.5142 4.66669 22 9.15252 22 14.6667C22 16.2967 21.6017 17.9013 20.8446 19.3334ZM17.3333 14.6667C17.3333 15.4029 17.9304 16 18.6667 16C19.4029 16 20 15.4029 20 14.6667C20 13.9304 19.4029 13.3334 18.6667 13.3334C17.9304 13.3334 17.3333 13.9304 17.3333 14.6667ZM14.9829 7.05127C14.4529 6.87502 13.8929 7.16044 13.7171 7.68335L11.8279 13.3504C10.4371 13.4409 9.33333 14.5859 9.33333 16C9.33333 16.4884 9.47417 16.9396 9.70333 17.3334H14.2971C14.5262 16.9396 14.6671 16.4884 14.6671 16C14.6671 15.1896 14.2979 14.4725 13.7275 13.9834L15.6167 8.31627C15.7904 7.79252 15.5067 7.22585 14.9829 7.05127ZM18 10C18 9.34169 17.5142 8.8196 16.8867 8.71127C16.8837 8.72002 16.8837 8.72919 16.8808 8.73835L16.0683 11.1754C16.2504 11.2688 16.4479 11.3338 16.6667 11.3338C17.4029 11.3334 18 10.7363 18 10Z" fill="#06719F"/>
</svg>
