<svg width="24" height="24" viewBox="0 0 24 24" fill="none" xmlns="http://www.w3.org/2000/svg">
<path d="M14.2314 12L19.2808 6.95062C19.5728 6.65859 19.5728 6.18468 19.2808 5.89218L18.1075 4.7189C17.8154 4.42687 17.3415 4.42687 17.049 4.7189L12.0001 9.76874L6.95076 4.71937C6.65873 4.42734 6.18482 4.42734 5.89232 4.71937L4.71951 5.89218C4.42748 6.18421 4.42748 6.65812 4.71951 6.95062L9.76889 12L4.71951 17.0494C4.42748 17.3414 4.42748 17.8153 4.71951 18.1078L5.89279 19.2811C6.18482 19.5731 6.65873 19.5731 6.95123 19.2811L12.0001 14.2312L17.0495 19.2806C17.3415 19.5727 17.8154 19.5727 18.1079 19.2806L19.2812 18.1073C19.5733 17.8153 19.5733 17.3414 19.2812 17.0489L14.2314 12Z" fill="#06719F"/>
</svg>
