<svg width="24" height="24" viewBox="0 0 24 24" fill="none" xmlns="http://www.w3.org/2000/svg">
<g clip-path="url(#clip0)">
<path fill-rule="evenodd" clip-rule="evenodd" d="M14.2665 11.0836C14.4016 11.2504 14.6034 11.3438 14.8125 11.3438C14.8663 11.3438 14.9207 11.3375 14.9743 11.3249C15.2373 11.2626 15.4411 11.0554 15.4991 10.7915C15.5101 10.7417 15.7141 9.77618 15.4239 8.49921C16.5229 8.50507 17.594 8.5307 17.608 8.53107C17.9139 8.53839 18.19 8.34668 18.2898 8.05682C18.3894 7.76715 18.29 7.44617 18.0439 7.26343L18.0392 7.25995C17.9519 7.19538 16.9903 6.48463 15.8551 5.7204C16.2094 5.1947 16.6838 5.08575 16.7708 5.06982C17.0896 5.03577 17.3338 4.7915 17.3802 4.47363C17.4269 4.1543 17.2386 3.84558 16.94 3.72308C16.8708 3.69452 15.4728 3.12616 14.1094 2.99377V0.703125C14.1094 0.314758 13.7944 0 13.4062 0H10.5937C10.2054 0 9.89061 0.314758 9.89061 0.703125V2.99377C8.5272 3.12634 7.12901 3.6947 7.0598 3.72308C6.76134 3.84558 6.57292 4.1543 6.61961 4.47363C6.66612 4.7915 6.9102 5.03577 7.22899 5.06982C7.31614 5.08575 7.79057 5.19452 8.1447 5.7204C7.00965 6.48461 6.04816 7.19534 5.96075 7.25994L5.95604 7.26343C5.70994 7.44617 5.61052 7.76715 5.71013 8.05682C5.80974 8.34668 6.08568 8.53821 6.39201 8.53107C6.40574 8.5307 7.47691 8.50507 8.57591 8.49921C8.28587 9.77618 8.48985 10.7417 8.50084 10.7915C8.5587 11.0554 8.76268 11.2626 9.02543 11.3249C9.28801 11.387 9.5634 11.2934 9.7335 11.0836C9.74595 11.0682 10.8565 9.70477 12 8.72992C13.1415 9.70349 14.254 11.0682 14.2665 11.0836ZM18.7855 4.55518C20.0671 5.26947 21.1588 6.19727 21.9987 7.29517C23.3267 9.03101 24 11.1028 24 13.4532C24 16.6288 22.7639 19.3243 20.425 21.248C18.2677 23.0226 15.2756 24.0001 12 24.0001C8.72443 24.0001 5.7323 23.0226 3.57495 21.248C1.23615 19.3243 0 16.6288 0 13.4532C0 11.1028 0.673279 9.03101 2.00134 7.29517C2.84125 6.19727 3.93274 5.26965 5.21448 4.55518C5.21796 4.59564 5.22217 4.63629 5.22821 4.67694C5.28571 5.0708 5.44958 5.42786 5.68909 5.71826C5.35144 5.96124 5.13702 6.12 5.1178 6.13428C4.3764 6.68469 4.07996 7.64105 4.38025 8.51447C4.67322 9.36554 5.47504 9.93756 6.37555 9.93756C6.38159 9.93756 6.42243 9.9367 6.4894 9.9353C6.60305 9.93292 6.79196 9.92896 7.01385 9.92493C7.01788 10.5457 7.10028 10.9703 7.1272 11.0931C7.29987 11.8796 7.91785 12.5076 8.70135 12.6933C8.86047 12.731 9.02417 12.7501 9.1875 12.7501C9.82635 12.7501 10.4235 12.4655 10.825 11.9704C10.8322 11.9616 11.3412 11.3387 11.9998 10.6628C12.6586 11.3385 13.1677 11.9614 13.1743 11.9695C13.5767 12.4655 14.1738 12.7501 14.8125 12.7501H14.8127C14.9762 12.7501 15.1397 12.731 15.2988 12.6933C16.0823 12.5076 16.7001 11.8796 16.8728 11.0933C16.8997 10.9703 16.9821 10.5458 16.9861 9.92493C17.2073 9.92894 17.3955 9.93289 17.5094 9.93527C17.5772 9.93669 17.6186 9.93756 17.6248 9.93756C18.5251 9.93756 19.3268 9.36554 19.6198 8.51447C19.92 7.64124 19.6238 6.68469 18.8818 6.13409L18.8808 6.1333C18.8558 6.11483 18.6431 5.95731 18.3109 5.71826C18.5504 5.42786 18.7143 5.0708 18.7718 4.67694C18.7778 4.63611 18.782 4.59564 18.7855 4.55518Z" fill="#364449"/>
</g>
<defs>
<clipPath id="clip0">
<path d="M0 0H24V24H0V0Z" fill="white"/>
</clipPath>
</defs>
</svg>
