<svg width="20" height="24" viewBox="0 0 20 24" fill="none" xmlns="http://www.w3.org/2000/svg">
<path fill-rule="evenodd" clip-rule="evenodd" d="M13.6174 10.1122C14.3339 9.73059 15.0945 9.46252 15.8912 9.3078C15.5089 7.26068 14.9142 5.32343 14.1825 3.78735C13.0024 1.30957 11.5575 0 10.0042 0C8.45074 0 7.00604 1.30957 5.82593 3.78735C5.09424 5.32343 4.49933 7.2605 4.11719 9.30762C4.91388 9.46234 5.6745 9.73059 6.39099 10.112C7.61597 10.7644 8.67303 11.7263 9.53326 12.9714C9.69788 13.2094 9.85498 13.4575 10.0042 13.7153C10.1536 13.4577 10.3107 13.2096 10.4752 12.9714C11.3354 11.7264 12.3926 10.7644 13.6174 10.1122ZM12.523 7.61353C12.6541 7.48206 12.8358 7.40698 13.0211 7.40698C13.206 7.40698 13.3876 7.48206 13.5187 7.61353C13.6497 7.74445 13.7247 7.92572 13.7247 8.11102C13.7247 8.29706 13.6497 8.47815 13.5187 8.60907C13.3876 8.74017 13.206 8.81561 13.0211 8.81561C12.8358 8.81561 12.6541 8.74017 12.523 8.60907C12.3921 8.47815 12.317 8.29651 12.317 8.11102C12.317 7.92609 12.3921 7.74445 12.523 7.61353ZM7.48541 8.60907C7.35449 8.74017 7.17285 8.81561 6.98737 8.81561C6.80243 8.81561 6.62079 8.74017 6.48987 8.60907C6.3584 8.47815 6.28333 8.29651 6.28333 8.11102C6.28333 7.92609 6.3584 7.74463 6.48987 7.61353C6.62079 7.48206 6.80243 7.40698 6.98737 7.40698C7.17285 7.40698 7.35449 7.48206 7.48541 7.61353C7.61633 7.74445 7.69159 7.92572 7.69159 8.11102C7.69159 8.29706 7.61633 8.47815 7.48541 8.60907ZM8.99365 5.59222C8.86255 5.72369 8.68146 5.79877 8.49597 5.79877C8.31067 5.79877 8.12903 5.72369 7.99792 5.59222C7.867 5.4613 7.79156 5.28021 7.79156 5.09473C7.79156 4.90924 7.867 4.7276 7.99792 4.59668C8.12903 4.46576 8.31067 4.39069 8.49597 4.39069C8.68146 4.39069 8.86255 4.46576 8.99365 4.59668C9.12457 4.7276 9.2002 4.90924 9.2002 5.09473C9.2002 5.28021 9.12457 5.4613 8.99365 5.59222ZM10.5017 11.6259C10.3713 11.757 10.1897 11.8321 10.0042 11.8321C9.81891 11.8321 9.63708 11.757 9.50616 11.6259C9.37524 11.4946 9.30017 11.3134 9.30017 11.1281C9.30017 10.9426 9.37524 10.7613 9.50616 10.63C9.63708 10.4991 9.81891 10.4238 10.0042 10.4238C10.1897 10.4238 10.3713 10.4991 10.5017 10.63C10.6332 10.7615 10.7083 10.9426 10.7083 11.1281C10.7084 11.3134 10.6332 11.4946 10.5017 11.6259ZM10.5023 8.60907C10.3708 8.74017 10.1897 8.81561 10.0042 8.81561C9.81891 8.81561 9.63763 8.74017 9.50635 8.60907C9.37524 8.47815 9.30017 8.29651 9.30017 8.11102C9.30017 7.92609 9.37524 7.74463 9.50635 7.61353C9.63763 7.48206 9.81891 7.40698 10.0042 7.40698C10.1897 7.40698 10.371 7.48206 10.5023 7.61353C10.6332 7.74445 10.7084 7.92572 10.7084 8.11102C10.7084 8.29706 10.6332 8.47815 10.5023 8.60907ZM10.5023 2.57593C10.3708 2.70685 10.1897 2.78192 10.0042 2.78192C9.81891 2.78192 9.63763 2.70685 9.50635 2.57593C9.37524 2.44501 9.30017 2.26337 9.30017 2.07788C9.30017 1.89258 9.37524 1.7113 9.50635 1.57983C9.63763 1.44891 9.81891 1.37384 10.0042 1.37384C10.1897 1.37384 10.371 1.44891 10.5023 1.57983C10.6332 1.7113 10.7084 1.89258 10.7084 2.07788C10.7084 2.26337 10.6332 2.44501 10.5023 2.57593ZM11.015 5.59222C10.8835 5.4613 10.8084 5.28021 10.8084 5.09473C10.8084 4.90924 10.8835 4.7276 11.015 4.59668C11.1453 4.46576 11.327 4.39069 11.5125 4.39069C11.6978 4.39069 11.8794 4.46576 12.0105 4.59668C12.1414 4.7276 12.2165 4.90924 12.2165 5.09473C12.2165 5.28021 12.1414 5.4613 12.0105 5.59222C11.8794 5.72369 11.6978 5.79877 11.5125 5.79877C11.327 5.79877 11.1459 5.72369 11.015 5.59222ZM5.72906 11.355C4.73645 10.8264 3.63727 10.5583 2.46246 10.5583H0.954041C0.565308 10.5583 0.25 10.8737 0.25 11.2626C0.25 11.6513 0.565308 11.9666 0.954041 11.9666H1.76648C1.85217 15.7324 2.6333 18.7086 4.0921 20.8199C4.82324 21.8781 5.71332 22.6913 6.73761 23.2368C7.52936 23.6583 8.38885 23.9135 9.30017 23.9999V15.4249C9.03027 14.8256 8.72192 14.2741 8.37476 13.7717C7.64362 12.7137 6.75354 11.9005 5.72906 11.355ZM17.546 10.5583H19.0543C19.4434 10.5583 19.7585 10.8737 19.7585 11.2626C19.7585 11.6515 19.4432 11.9666 19.0543 11.9666H18.2418C18.1561 15.7324 17.375 18.7087 15.9164 20.8201C15.1852 21.8783 14.2953 22.6915 13.2709 23.2368C12.4793 23.6584 11.6198 23.9137 10.7085 23.9999V15.4249C10.9784 14.8256 11.2869 14.2741 11.6339 13.7719C12.3649 12.7137 13.2549 11.9005 14.2794 11.355C15.272 10.8264 16.371 10.5583 17.546 10.5583Z" fill="white"/>
</svg>
