<svg width="24" height="24" viewBox="0 0 24 24" fill="none" xmlns="http://www.w3.org/2000/svg">
<path opacity="0.4" d="M6.1001 9.75H17.9492C17.5765 12.7059 15.0818 15 12.0246 15C8.96745 15 6.47275 12.7059 6.1001 9.75Z" fill="#004D6E"/>
<path d="M16.2 16.5H15.4172C14.3457 16.994 13.1799 17.2499 12 17.2499C10.8201 17.2499 9.65427 16.994 8.58281 16.5H7.8C6.97267 16.5 6.15345 16.663 5.38909 16.9796C4.62474 17.2962 3.93024 17.7602 3.34523 18.3452C2.16375 19.5267 1.5 21.1291 1.5 22.8C1.5 23.1183 1.62643 23.4235 1.85147 23.6485C2.07652 23.8736 2.38174 24 2.7 24H21.3C21.6183 24 21.9235 23.8736 22.1485 23.6485C22.3736 23.4235 22.5 23.1183 22.5 22.8C22.5 21.1291 21.8363 19.5267 20.6548 18.3452C19.4733 17.1637 17.8709 16.5 16.2 16.5ZM5.625 8.25H18.375C18.4745 8.25 18.5698 8.21049 18.6402 8.14017C18.7105 8.06984 18.75 7.97446 18.75 7.875V6.375C18.75 6.27554 18.7105 6.18016 18.6402 6.10983C18.5698 6.03951 18.4745 6 18.375 6H18C18.0003 4.96777 17.6963 3.95835 17.1261 3.09794C16.5558 2.23754 15.7446 1.56433 14.7938 1.1625L13.5 3.75V0.75C13.5 0.551088 13.421 0.360322 13.2803 0.21967C13.1397 0.0790176 12.9489 0 12.75 0L11.25 0C11.0511 0 10.8603 0.0790176 10.7197 0.21967C10.579 0.360322 10.5 0.551088 10.5 0.75V3.75L9.20625 1.1625C8.25544 1.56433 7.44419 2.23754 6.87392 3.09794C6.30366 3.95835 5.99968 4.96777 6 6H5.625C5.52554 6 5.43016 6.03951 5.35984 6.10983C5.28951 6.18016 5.25 6.27554 5.25 6.375V7.875C5.25 7.97446 5.28951 8.06984 5.35984 8.14017C5.43016 8.21049 5.52554 8.25 5.625 8.25Z" fill="#004D6E"/>
</svg>
