<svg width="24" height="24" viewBox="0 0 24 24" fill="none" xmlns="http://www.w3.org/2000/svg">
<path fill-rule="evenodd" clip-rule="evenodd" d="M12 4.875C9.51562 4.875 7.5 6.89062 7.5 9.375C7.5 11.8594 9.51562 13.875 12 13.875C14.4844 13.875 16.5 11.8594 16.5 9.375C16.5 6.89062 14.4844 4.875 12 4.875ZM12 11.625C10.7578 11.625 9.75 10.6172 9.75 9.375C9.75 8.13281 10.7578 7.125 12 7.125C13.2422 7.125 14.25 8.13281 14.25 9.375C14.25 10.6172 13.2422 11.625 12 11.625ZM12 0.375C5.57812 0.375 0.375 5.57812 0.375 12C0.375 18.4219 5.57812 23.625 12 23.625C18.4219 23.625 23.625 18.4219 23.625 12C23.625 5.57812 18.4219 0.375 12 0.375ZM12 21.375C9.67031 21.375 7.54219 20.5172 5.90156 19.1063C6.6 18.0281 7.79531 17.2969 9.16406 17.2547C10.1391 17.5547 11.0672 17.7047 12 17.7047C12.9328 17.7047 13.8609 17.5594 14.8359 17.2547C16.2047 17.3016 17.4 18.0281 18.0984 19.1063C16.4578 20.5172 14.3297 21.375 12 21.375ZM19.6266 17.4328C18.4828 15.9609 16.7156 15 14.7 15C14.2219 15 13.4812 15.45 12 15.45C10.5234 15.45 9.77812 15 9.3 15C7.28906 15 5.52187 15.9609 4.37344 17.4328C3.27656 15.9 2.625 14.025 2.625 12C2.625 6.82969 6.82969 2.625 12 2.625C17.1703 2.625 21.375 6.82969 21.375 12C21.375 14.025 20.7234 15.9 19.6266 17.4328Z" fill="#06719F"/>
</svg>
