<svg width="24" height="24" viewBox="0 0 24 24" fill="none" xmlns="http://www.w3.org/2000/svg">
<path d="M18 12.4C19.9875 12.4 21.6 10.7875 21.6 8.8C21.6 6.8125 19.9875 5.2 18 5.2C16.0125 5.2 14.4 6.8125 14.4 8.8C14.4 10.7875 16.0125 12.4 18 12.4ZM18 7C18.9938 7 19.8 7.80625 19.8 8.8C19.8 9.79375 18.9938 10.6 18 10.6C17.0063 10.6 16.2 9.79375 16.2 8.8C16.2 7.80625 17.0063 7 18 7ZM10.2038 13.15C9.7575 13.15 9.3075 13.2137 8.8725 13.3487C8.34 13.51 7.78125 13.6 7.19625 13.6C6.61125 13.6 6.0525 13.51 5.52 13.3487C5.085 13.2175 4.635 13.15 4.18875 13.15C2.8275 13.15 1.50375 13.7575 0.7275 14.9087C0.27 15.5987 0 16.4275 0 17.32V19C0 19.9937 0.80625 20.8 1.8 20.8H12.6C13.5938 20.8 14.4 19.9937 14.4 19V17.32C14.4 16.4275 14.13 15.5987 13.665 14.9087C12.8888 13.7575 11.565 13.15 10.2038 13.15ZM12.6 19H1.8V17.32C1.8 16.2362 2.49 15.31 3.45375 14.9537C3.84 14.8112 4.26375 14.815 4.65 14.9537C5.47875 15.25 6.3375 15.4 7.2 15.4C8.0625 15.4 8.9175 15.25 9.75375 14.9537C10.14 14.815 10.5638 14.8112 10.95 14.9537C11.9138 15.3062 12.6038 16.2362 12.6038 17.32V19H12.6ZM7.2 12.4C9.52125 12.4 11.4 10.5212 11.4 8.2C11.4 5.87875 9.52125 4 7.2 4C4.87875 4 3 5.87875 3 8.2C3 10.5212 4.87875 12.4 7.2 12.4ZM7.2 5.8C8.52375 5.8 9.6 6.87625 9.6 8.2C9.6 9.52375 8.52375 10.6 7.2 10.6C5.87625 10.6 4.8 9.52375 4.8 8.2C4.8 6.87625 5.87625 5.8 7.2 5.8ZM23.3888 14.6912C22.74 13.7312 21.6375 13.225 20.505 13.225C19.4625 13.225 19.2 13.6 18 13.6C16.8 13.6 16.5375 13.225 15.495 13.225C14.9963 13.225 14.5125 13.3375 14.0625 13.5287C14.28 13.75 14.4863 13.9787 14.6625 14.2375C14.8388 14.5 14.985 14.7775 15.1125 15.0625C15.2363 15.0362 15.3638 15.0212 15.495 15.0212C16.14 15.0212 16.605 15.3962 18 15.3962C19.4025 15.3962 19.8563 15.0212 20.505 15.0212C21.0938 15.0212 21.6113 15.2725 21.8963 15.6925C22.095 15.9887 22.2 16.3337 22.2 16.6937V17.8H15.6V19C15.6 19.2062 15.5775 19.405 15.54 19.6H22.5C23.3288 19.6 24 18.9287 24 18.1V16.7013C24 15.955 23.775 15.265 23.3888 14.6912Z" fill="#06719F"/>
</svg>
