<svg width="30" height="30" viewBox="0 0 30 30" fill="none" xmlns="http://www.w3.org/2000/svg">
<path fill-rule="evenodd" clip-rule="evenodd" d="M15 30C23.2843 30 30 23.2843 30 15C30 6.71573 23.2843 0 15 0C6.71573 0 0 6.71573 0 15C0 23.2843 6.71573 30 15 30Z" fill="#EBFFAE"/>
<path fill-rule="evenodd" clip-rule="evenodd" d="M15 9.65625C13.1367 9.65625 11.625 11.168 11.625 13.0312C11.625 14.8945 13.1367 16.4062 15 16.4062C16.8633 16.4062 18.375 14.8945 18.375 13.0312C18.375 11.168 16.8633 9.65625 15 9.65625ZM15 14.7188C14.0684 14.7188 13.3125 13.9629 13.3125 13.0312C13.3125 12.0996 14.0684 11.3438 15 11.3438C15.9316 11.3438 16.6875 12.0996 16.6875 13.0312C16.6875 13.9629 15.9316 14.7188 15 14.7188ZM15 6.28125C10.1836 6.28125 6.28125 10.1836 6.28125 15C6.28125 19.8164 10.1836 23.7188 15 23.7188C19.8164 23.7188 23.7188 19.8164 23.7188 15C23.7188 10.1836 19.8164 6.28125 15 6.28125ZM15 22.0312C13.2527 22.0312 11.6566 21.3879 10.4262 20.3297C10.95 19.5211 11.8465 18.9727 12.873 18.941C13.6043 19.166 14.3004 19.2785 15 19.2785C15.6996 19.2785 16.3957 19.1695 17.1269 18.941C18.1535 18.9762 19.05 19.5211 19.5738 20.3297C18.3433 21.3879 16.7473 22.0312 15 22.0312ZM20.7199 19.0746C19.8621 17.9707 18.5367 17.25 17.025 17.25C16.6664 17.25 16.1109 17.5875 15 17.5875C13.8926 17.5875 13.3336 17.25 12.975 17.25C11.4668 17.25 10.1414 17.9707 9.28008 19.0746C8.45742 17.925 7.96875 16.5188 7.96875 15C7.96875 11.1223 11.1223 7.96875 15 7.96875C18.8777 7.96875 22.0312 11.1223 22.0312 15C22.0312 16.5188 21.5426 17.925 20.7199 19.0746Z" fill="#99CC00"/>
</svg>
