<svg width="24" height="24" viewBox="0 0 24 24" fill="none" xmlns="http://www.w3.org/2000/svg">
<path fill-rule="evenodd" clip-rule="evenodd" d="M14.215 2.4585C13.9199 2.64788 13.687 2.8575 13.4999 3.07687C13.3128 2.8575 13.0799 2.6475 12.7848 2.45812C12.9314 1.32 13.4999 0.75 13.4999 0.75C13.4999 0.75 14.0684 1.32 14.215 2.4585ZM13.7801 10.4861C15.0929 10.3549 15.7499 9.30262 15.7499 8.24999V7.87499C14.6872 8.14049 14.1899 8.59499 13.8566 9.10387C13.8678 8.80237 13.8749 8.51399 13.8749 8.24999V7.84687C15.1237 7.67474 15.7499 6.65137 15.7499 5.62499V5.24999C14.7071 5.51062 14.2083 5.95274 13.8749 6.45037V5.22224C15.1237 5.05012 15.7499 4.02674 15.7499 3.00037V2.62537C14.2499 3.00037 13.8749 3.75037 13.4999 4.50037C13.1249 3.75037 12.7499 3.00037 11.2499 2.62537V3.00037C11.2499 4.02674 11.8762 5.05012 13.1249 5.22224V6.45037C12.7916 5.95312 12.2928 5.51099 11.2499 5.24999V5.62499C11.2499 6.65137 11.8762 7.67474 13.1249 7.84687V8.24999C13.1249 8.49599 13.1178 8.76749 13.1073 9.04912C12.7743 8.56237 12.2748 8.13112 11.2499 7.87499V8.24999C11.2499 9.24974 11.8436 10.2472 13.0282 10.4576C12.8238 13.2667 12.3359 16.9091 11.9936 19.2742C11.5466 17.6914 11.0107 15.9206 10.4051 14.1379C11.5863 13.5146 11.7926 12.2812 11.3846 11.304L11.2402 10.9579C10.3428 11.6269 10.0661 12.2497 9.95956 12.8602C9.86093 12.5861 9.76156 12.312 9.65993 12.0397C9.6093 11.904 9.56018 11.7742 9.5118 11.6471C10.5866 11.0055 10.7677 9.82537 10.3736 8.88187L10.2292 8.53574C9.40343 9.15112 9.10343 9.72787 8.97743 10.2915C8.79293 9.84149 8.63843 9.48412 8.5173 9.21449C9.57705 8.57062 9.75405 7.39799 9.36218 6.45937L9.2178 6.11324C7.97808 7.03722 7.92106 7.87383 7.86406 8.71006L7.86406 8.71012L7.86399 8.71006C7.22914 8.16258 6.59388 7.61475 5.06543 7.84687L5.2098 8.19299C5.6088 9.14849 6.59468 9.85649 7.82843 9.51262C7.9578 9.80062 8.12806 10.1944 8.3343 10.701C7.82431 10.3455 7.18718 10.1006 6.07643 10.269L6.2208 10.6151C6.61755 11.5657 7.59555 12.2707 8.8203 11.9396L8.83857 11.9878L8.8386 11.9879L8.83864 11.988L8.83885 11.9885L8.83897 11.9889C8.87757 12.0907 8.91677 12.194 8.9568 12.3019C9.02419 12.4818 9.08897 12.6632 9.15378 12.8447L9.15379 12.8447L9.15379 12.8447L9.1538 12.8447L9.1538 12.8447L9.15384 12.8448L9.22568 13.0455C8.73443 12.7342 8.11418 12.5355 7.08743 12.6911L7.2318 13.0372C7.6143 13.9534 8.53568 14.6426 9.69818 14.3959C10.0664 15.4811 10.4111 16.5622 10.7231 17.5995C11.2799 18.5625 11.7183 19.5716 11.9999 20.5924C12.2126 19.8221 12.5163 19.0586 12.8898 18.3157C13.2149 15.996 13.6038 12.9409 13.7801 10.4861ZM7.31477 7.39725C7.4029 7.12275 7.53715 6.83962 7.73627 6.55088C7.16252 5.55713 6.41853 5.25 6.41853 5.25C6.41853 5.25 6.11365 5.99512 6.41665 7.10175C6.76203 7.16288 7.0579 7.26675 7.31477 7.39725ZM6.37325 17.2207L6.37321 17.2206L6.36149 17.1945C5.55299 15.3885 4.88511 13.9057 3.10986 12.6165C3.90486 13.8213 4.88774 15.7556 5.61374 18.6592C6.34799 21.5955 8.83236 22.743 10.8862 22.8633C9.42111 22.152 8.07711 20.7427 7.16436 18.9176C6.86619 18.3216 6.61559 17.7619 6.37325 17.2207ZM17.6268 17.2206L17.6385 17.1945C18.4466 15.3885 19.1149 13.9057 20.8901 12.6161C20.0951 13.821 19.1123 15.7556 18.3863 18.6588C17.652 21.5951 15.1676 22.7426 13.1138 22.863C14.5789 22.152 15.9229 20.7427 16.8356 18.9176C17.1338 18.3215 17.3845 17.7618 17.6268 17.2206ZM16.1643 18.5825C16.4602 17.9911 16.7111 17.4305 16.9533 16.8882C17.7044 15.2101 18.3802 13.7105 19.9574 12.3927C16.0841 14.1327 12.8531 18.2719 12.4244 22.3444C13.8772 21.7827 15.2474 20.4166 16.1643 18.5825ZM7.04624 16.8882C6.29549 15.2101 5.61936 13.7105 4.04211 12.3927C7.91549 14.1323 11.1465 18.2716 11.5747 22.3444C10.1224 21.7827 8.75249 20.4166 7.83524 18.5825C7.53974 17.9911 7.28886 17.4305 7.04624 16.8882Z" fill="#004D6E"/>
</svg>
