<svg width="24" height="24" viewBox="0 0 24 24" fill="none" xmlns="http://www.w3.org/2000/svg">
<path fill-rule="evenodd" clip-rule="evenodd" d="M17.8742 5.13108L17.8744 5.13122L18.3558 4.64982C19.5585 3.44701 19.5585 1.48997 18.3557 0.287209L18.2058 0.137303C18.0228 -0.045791 17.7259 -0.0457441 17.5429 0.137303L17.393 0.287209C16.9007 0.779584 16.6098 1.39697 16.5199 2.03719L16.5628 2.08013C17.4067 2.92402 17.8437 4.02296 17.8742 5.13108ZM23.9407 0.740045C23.9407 1.88525 23.313 2.88594 22.3841 3.41811C21.7806 3.30233 21.1579 3.31029 20.5573 3.44281C20.6898 2.84215 20.6977 2.21947 20.582 1.616C21.1141 0.687029 22.1148 0.0593262 23.26 0.0593262H23.472C23.7309 0.0593262 23.9407 0.269186 23.9407 0.528076V0.740045ZM0.205945 23.7939C-0.0686484 23.5193 -0.0686484 23.0742 0.205945 22.7996L5.73087 17.2747L6.72523 18.269L1.2003 23.7939C0.925711 24.0685 0.480492 24.0685 0.205945 23.7939ZM23.7128 5.64429L23.8627 5.79419C24.0457 5.97724 24.0457 6.27405 23.8627 6.45715L23.7127 6.60715C23.2203 7.09943 22.603 7.39029 21.9629 7.4802L21.9199 7.43721C21.076 6.59332 19.9771 6.1563 18.8689 6.12579L18.8688 6.12565L19.3502 5.64424C20.5529 4.44152 22.51 4.44147 23.7128 5.64429ZM15.087 7.91834L15.0871 7.91844L15.5685 7.43703C16.7712 6.23422 16.7713 4.27719 15.5685 3.07442L15.4186 2.92452C15.2355 2.74147 14.9387 2.74147 14.7557 2.92452L14.6058 3.07442C14.1134 3.5668 13.8226 4.18419 13.7327 4.82441L13.7756 4.86734C14.6194 5.71124 15.0565 6.81017 15.087 7.91834ZM16.563 8.43147C17.7657 7.22875 19.7227 7.2287 20.9256 8.43151L21.0755 8.58142C21.2586 8.76447 21.2586 9.06128 21.0755 9.24433L20.9254 9.39437C20.4331 9.88665 19.8157 10.1775 19.1756 10.2674L19.1326 10.2244C18.2887 9.38055 17.1899 8.94353 16.0817 8.91301L16.0815 8.91292L16.563 8.43147ZM12.2996 10.7057L12.2998 10.7058L12.7812 10.2244C13.9839 9.02164 13.9839 7.06461 12.7811 5.86179L12.6312 5.71189C12.4482 5.52879 12.1514 5.52884 11.9683 5.71189L11.8184 5.86179C11.3261 6.35417 11.0352 6.97156 10.9453 7.61178L10.9882 7.65472C11.8321 8.49856 12.2691 9.5975 12.2996 10.7057ZM13.7756 11.2187C14.9784 10.016 16.9354 10.0159 18.1382 11.2187L18.2881 11.3687C18.4712 11.5517 18.4712 11.8486 18.2881 12.0316L18.1381 12.1816C17.6457 12.6739 17.0284 12.9647 16.3883 13.0546L16.3453 13.0117C15.5014 12.1678 14.4025 11.7308 13.2943 11.7002L13.2942 11.7001L13.7756 11.2187ZM7.20666 11.4364L7.05675 11.2865C6.8737 11.1034 6.57689 11.1034 6.39385 11.2865L6.24394 11.4364C5.03925 12.6411 5.0393 14.5944 6.24403 15.7991L6.7253 16.2804L7.2067 15.799C8.40942 14.5962 8.40947 12.6392 7.20666 11.4364ZM8.20101 16.7934C9.40377 15.5907 11.3608 15.5906 12.5636 16.7935L12.7135 16.9434C12.8966 17.1265 12.8966 17.4233 12.7135 17.6063L12.5636 17.7562C11.3588 18.9609 9.4056 18.9608 8.20087 17.7561L7.7196 17.2749L8.20101 16.7934ZM9.51239 13.4929L9.51253 13.493L9.99394 13.0116C11.1967 11.8088 11.1967 9.85178 9.99389 8.64901L9.84399 8.4991C9.66094 8.31605 9.36413 8.31605 9.18108 8.4991L9.03117 8.64901C8.53885 9.14138 8.24799 9.75877 8.15808 10.399L8.20102 10.4419C9.04486 11.2858 9.48188 12.3848 9.51239 13.4929ZM10.9884 14.0059C12.1911 12.8032 14.1482 12.8032 15.351 14.006L15.5009 14.1559C15.684 14.3389 15.684 14.6357 15.5009 14.8188L15.3508 14.9688C14.8585 15.4611 14.2412 15.752 13.601 15.8419L13.5581 15.7989C12.7142 14.955 11.6153 14.518 10.5071 14.4875L10.507 14.4874L10.9884 14.0059Z" fill="#004D6E"/>
</svg>
