<svg width="26" height="24" viewBox="0 0 26 24" fill="none" xmlns="http://www.w3.org/2000/svg">
<path d="M9 17L13 21L17 17" stroke="#DC241F" stroke-width="2" stroke-linecap="round" stroke-linejoin="round"/>
<path d="M13 12V21" stroke="#DC241F" stroke-width="2" stroke-linecap="round" stroke-linejoin="round"/>
<path d="M21.8802 18.09C22.7496 17.4786 23.4015 16.6061 23.7415 15.5991C24.0814 14.5921 24.0916 13.503 23.7706 12.4898C23.4496 11.4766 22.814 10.5921 21.9562 9.96456C21.0985 9.33703 20.063 8.99916 19.0002 8.99999H17.7402C17.4394 7.82787 16.8767 6.73924 16.0943 5.81607C15.3119 4.89291 14.3303 4.15925 13.2234 3.67035C12.1164 3.18144 10.913 2.95002 9.7037 2.99351C8.49439 3.037 7.31069 3.35426 6.24173 3.92142C5.17277 4.48858 4.2464 5.29084 3.53236 6.26782C2.81833 7.2448 2.33523 8.37104 2.11944 9.56174C1.90365 10.7524 1.96079 11.9766 2.28656 13.142C2.61233 14.3074 3.19824 15.3838 4.00018 16.29" stroke="#DC241F" stroke-width="2" stroke-linecap="round" stroke-linejoin="round"/>
</svg>
