<svg width="80" height="80" viewBox="0 0 80 80" fill="none" xmlns="http://www.w3.org/2000/svg">
<path opacity="0.4" d="M40 0C17.9032 0 0 17.9161 0 40C0 62.0839 17.9032 80 40 80C62.0968 80 80 62.0968 80 40C80 17.9032 62.0968 0 40 0ZM40 17.7419C41.3398 17.7419 42.6495 18.1392 43.7635 18.8836C44.8775 19.628 45.7458 20.6859 46.2585 21.9238C46.7713 23.1616 46.9054 24.5236 46.644 25.8377C46.3826 27.1518 45.7375 28.3588 44.7901 29.3062C43.8427 30.2536 42.6356 30.8988 41.3216 31.1602C40.0075 31.4215 38.6454 31.2874 37.4076 30.7747C36.1698 30.2619 35.1118 29.3937 34.3675 28.2797C33.6231 27.1657 33.2258 25.8559 33.2258 24.5161C33.2258 22.7195 33.9395 20.9965 35.2099 19.726C36.4803 18.4556 38.2034 17.7419 40 17.7419ZM49.0323 58.7097C49.0323 59.223 48.8283 59.7153 48.4654 60.0783C48.1024 60.4412 47.6101 60.6452 47.0968 60.6452H32.9032C32.3899 60.6452 31.8976 60.4412 31.5346 60.0783C31.1717 59.7153 30.9677 59.223 30.9677 58.7097V54.8387C30.9677 54.3254 31.1717 53.8331 31.5346 53.4701C31.8976 53.1071 32.3899 52.9032 32.9032 52.9032H34.8387V42.5806H32.9032C32.3899 42.5806 31.8976 42.3767 31.5346 42.0138C31.1717 41.6508 30.9677 41.1585 30.9677 40.6452V36.7742C30.9677 36.2609 31.1717 35.7686 31.5346 35.4056C31.8976 35.0426 32.3899 34.8387 32.9032 34.8387H43.2258C43.7391 34.8387 44.2314 35.0426 44.5944 35.4056C44.9574 35.7686 45.1613 36.2609 45.1613 36.7742V52.9032H47.0968C47.6101 52.9032 48.1024 53.1071 48.4654 53.4701C48.8283 53.8331 49.0323 54.3254 49.0323 54.8387V58.7097Z" fill="#FF6A6A"/>
<path d="M39.9991 31.2903C41.3389 31.2903 42.6486 30.893 43.7626 30.1487C44.8766 29.4043 45.7449 28.3463 46.2576 27.1085C46.7703 25.8707 46.9045 24.5086 46.6431 23.1946C46.3817 21.8805 45.7365 20.6735 44.7891 19.7261C43.8417 18.7787 42.6347 18.1335 41.3206 17.8721C40.0066 17.6107 38.6445 17.7449 37.4067 18.2576C36.1689 18.7703 35.1109 19.6386 34.3665 20.7526C33.6222 21.8666 33.2249 23.1763 33.2249 24.5161C33.2249 26.3128 33.9386 28.0358 35.209 29.3062C36.4794 30.5766 38.2024 31.2903 39.9991 31.2903ZM47.0958 52.9032H45.1603V36.7742C45.1603 36.2609 44.9564 35.7686 44.5935 35.4056C44.2305 35.0426 43.7382 34.8387 43.2249 34.8387H32.9023C32.389 34.8387 31.8967 35.0426 31.5337 35.4056C31.1707 35.7686 30.9668 36.2609 30.9668 36.7742V40.6452C30.9668 41.1585 31.1707 41.6508 31.5337 42.0138C31.8967 42.3767 32.389 42.5807 32.9023 42.5807H34.8378V52.9032H32.9023C32.389 52.9032 31.8967 53.1072 31.5337 53.4701C31.1707 53.8331 30.9668 54.3254 30.9668 54.8387V58.7097C30.9668 59.223 31.1707 59.7153 31.5337 60.0783C31.8967 60.4413 32.389 60.6452 32.9023 60.6452H47.0958C47.6092 60.6452 48.1015 60.4413 48.4644 60.0783C48.8274 59.7153 49.0313 59.223 49.0313 58.7097V54.8387C49.0313 54.3254 48.8274 53.8331 48.4644 53.4701C48.1015 53.1072 47.6092 52.9032 47.0958 52.9032Z" fill="#FF6A6A"/>
</svg>
