<svg width="24" height="24" viewBox="0 0 24 24" fill="none" xmlns="http://www.w3.org/2000/svg">
<path d="M4 7C4 7.26264 3.94827 7.52272 3.84776 7.76537C3.74725 8.00802 3.59993 8.2285 3.41421 8.41421C3.2285 8.59993 3.00802 8.74725 2.76537 8.84776C2.52272 8.94827 2.26264 9 2 9M4 17C4 16.7374 3.94827 16.4773 3.84776 16.2346C3.74725 15.992 3.59993 15.7715 3.41421 15.5858C3.2285 15.4001 3.00802 15.2528 2.76537 15.1522C2.52272 15.0517 2.26264 15 2 15M20 7C20 7.26264 20.0517 7.52272 20.1522 7.76537C20.2528 8.00802 20.4001 8.2285 20.5858 8.41421C20.7715 8.59993 20.992 8.74725 21.2346 8.84776C21.4773 8.94827 21.7374 9 22 9M20 17C20 16.7374 20.0517 16.4773 20.1522 16.2346C20.2528 15.992 20.4001 15.7715 20.5858 15.5858C20.7715 15.4001 20.992 15.2528 21.2346 15.1522C21.4773 15.0517 21.7374 15 22 15M1 6H23V18H1V6ZM15 12C15 13.6569 13.6569 15 12 15C10.3431 15 9 13.6569 9 12C9 10.3431 10.3431 9 12 9C13.6569 9 15 10.3431 15 12Z" stroke="#DC241F" stroke-width="2" stroke-linecap="round" stroke-linejoin="round"/>
</svg>
