<svg width="24" height="24" viewBox="0 0 24 24" fill="none" xmlns="http://www.w3.org/2000/svg">
<path d="M20.1609 4.52249C18.1172 4.56936 16.4719 6.2803 16.5 8.32405C16.5234 10.1147 17.8031 11.6006 19.5 11.9428V16.8928C19.5 19.9819 16.8094 22.4944 13.5 22.4944C10.1906 22.4944 7.5 19.9819 7.5 16.8928V16.4756C10.8703 16.1006 13.5 13.2365 13.5 9.7678V1.20843C13.5 0.950613 13.3266 0.725613 13.0734 0.664676L10.4766 0.017801C10.1766 -0.057199 9.87187 0.125613 9.79219 0.425613L9.70312 0.791238C9.62813 1.09124 9.81094 1.39593 10.1109 1.47561L12 1.94436V9.71624C12 12.6131 9.67969 15.0084 6.78281 15.0225C3.87187 15.0412 1.5 12.6787 1.5 9.77249V1.94436L3.38437 1.47093C3.68437 1.39593 3.86719 1.09124 3.79219 0.786551L3.70312 0.425613C3.62812 0.125613 3.32344 -0.057199 3.01875 0.017801L0.426563 0.664676C0.173438 0.725613 0 0.950613 0 1.20843V9.7678C0 13.2365 2.62969 16.1006 6 16.4756V16.8928C6 20.8115 9.36563 23.9991 13.5 23.9991C17.6344 23.9991 21 20.8116 21 16.8975V11.9475C22.7109 11.6006 24 10.0866 24 8.27249C24 6.1678 22.2703 4.47093 20.1609 4.52249ZM20.25 10.5225C19.0078 10.5225 18 9.51468 18 8.27249C18 7.0303 19.0078 6.02249 20.25 6.02249C21.4922 6.02249 22.5 7.0303 22.5 8.27249C22.5 9.51468 21.4922 10.5225 20.25 10.5225ZM21.3516 8.27249C21.3516 8.88186 20.8594 9.37405 20.25 9.37405C19.6406 9.37405 19.1484 8.88186 19.1484 8.27249C19.1484 7.66311 19.6406 7.17093 20.25 7.17093C20.8594 7.17093 21.3516 7.66311 21.3516 8.27249Z" fill="#DC241F"/>
</svg>
