<svg width="16" height="16" viewBox="0 0 16 16" fill="none" xmlns="http://www.w3.org/2000/svg">
<g clip-path="url(#clip0)">
<path opacity="0.4" d="M14.184 3.92702L11.5363 6.04591C11.5476 6.11099 11.554 6.17682 11.5557 6.24285C11.5557 6.59647 11.4152 6.93561 11.1652 7.18566C10.9151 7.43571 10.576 7.57618 10.2224 7.57618C9.86875 7.57618 9.52962 7.43571 9.27957 7.18566C9.02952 6.93561 8.88904 6.59647 8.88904 6.24285C8.89066 6.17671 8.89725 6.11078 8.90877 6.04563L6.26071 3.92702C5.99894 4.03433 5.70856 4.04989 5.43682 3.97118L2.61738 6.79063C2.68803 7.05937 2.67278 7.34348 2.57376 7.60311C2.47474 7.86273 2.29692 8.08485 2.06526 8.23828C1.83359 8.39171 1.5597 8.46877 1.28202 8.45863C1.00433 8.44849 0.736789 8.35167 0.516926 8.18176C0.297063 8.01184 0.135913 7.77736 0.0560868 7.5112C-0.023739 7.24504 -0.0182349 6.96057 0.071827 6.6977C0.161889 6.43484 0.331989 6.20676 0.55826 6.04547C0.784532 5.88419 1.05562 5.79779 1.33349 5.79841C1.44886 5.80002 1.56352 5.81664 1.6746 5.84785L4.49404 3.02841C4.46283 2.91733 4.44621 2.80266 4.4446 2.6873C4.4446 2.33367 4.58508 1.99454 4.83512 1.74449C5.08517 1.49444 5.42431 1.35396 5.77793 1.35396C6.13156 1.35396 6.47069 1.49444 6.72074 1.74449C6.97079 1.99454 7.11127 2.33367 7.11127 2.6873C7.10965 2.75344 7.10306 2.81937 7.09154 2.88452L9.73932 5.00285C10.0491 4.87803 10.3951 4.87803 10.7049 5.00285L13.3532 2.88424C13.3418 2.81916 13.3352 2.75334 13.3335 2.6873C13.3314 2.39967 13.4216 2.11895 13.5909 1.88645C13.7603 1.65394 13.9998 1.48194 14.2742 1.39573C14.5486 1.30953 14.8434 1.31368 15.1153 1.40758C15.3872 1.50148 15.6218 1.68016 15.7845 1.91734C15.9472 2.15452 16.0295 2.43767 16.0193 2.72513C16.009 3.01258 15.9068 3.28916 15.7276 3.51416C15.5484 3.73916 15.3018 3.90071 15.0239 3.97503C14.746 4.04935 14.4516 4.03252 14.184 3.92702Z" fill="#DC241F"/>
<path d="M11.1114 10.2431H9.33366C9.21579 10.2431 9.10274 10.2899 9.01939 10.3732C8.93604 10.4566 8.88921 10.5696 8.88921 10.6875V15.1319C8.88921 15.2498 8.93604 15.3629 9.01939 15.4462C9.10274 15.5296 9.21579 15.5764 9.33366 15.5764H11.1114C11.2293 15.5764 11.3424 15.5296 11.4257 15.4462C11.5091 15.3629 11.5559 15.2498 11.5559 15.1319V10.6875C11.5559 10.5696 11.5091 10.4566 11.4257 10.3732C11.3424 10.2899 11.2293 10.2431 11.1114 10.2431ZM15.5559 6.6875H13.7781C13.6602 6.6875 13.5472 6.73433 13.4638 6.81767C13.3805 6.90102 13.3337 7.01407 13.3337 7.13194V15.1319C13.3337 15.2498 13.3805 15.3629 13.4638 15.4462C13.5472 15.5296 13.6602 15.5764 13.7781 15.5764H15.5559C15.6738 15.5764 15.7868 15.5296 15.8702 15.4462C15.9535 15.3629 16.0003 15.2498 16.0003 15.1319V7.13194C16.0003 7.01407 15.9535 6.90102 15.8702 6.81767C15.7868 6.73433 15.6738 6.6875 15.5559 6.6875ZM6.66699 6.6875H4.88921C4.77134 6.6875 4.65829 6.73433 4.57494 6.81767C4.4916 6.90102 4.44477 7.01407 4.44477 7.13194V15.1319C4.44477 15.2498 4.4916 15.3629 4.57494 15.4462C4.65829 15.5296 4.77134 15.5764 4.88921 15.5764H6.66699C6.78487 15.5764 6.89791 15.5296 6.98126 15.4462C7.06461 15.3629 7.11144 15.2498 7.11144 15.1319V7.13194C7.11144 7.01407 7.06461 6.90102 6.98126 6.81767C6.89791 6.73433 6.78487 6.6875 6.66699 6.6875ZM2.22255 11.1319H0.44477C0.326896 11.1319 0.213849 11.1788 0.1305 11.2621C0.0471505 11.3455 0.000325203 11.4585 0.000325203 11.5764L0.000325203 15.1319C0.000325203 15.2498 0.0471505 15.3629 0.1305 15.4462C0.213849 15.5296 0.326896 15.5764 0.44477 15.5764H2.22255C2.34042 15.5764 2.45347 15.5296 2.53682 15.4462C2.62017 15.3629 2.66699 15.2498 2.66699 15.1319V11.5764C2.66699 11.4585 2.62017 11.3455 2.53682 11.2621C2.45347 11.1788 2.34042 11.1319 2.22255 11.1319Z" fill="#DC241F"/>
</g>
<defs>
<clipPath id="clip0">
<rect width="16" height="16" fill="white"/>
</clipPath>
</defs>
</svg>
