<svg width="16" height="16" viewBox="0 0 16 16" fill="none" xmlns="http://www.w3.org/2000/svg">
<path opacity="0.4" d="M8 0C3.58065 0 0 3.58065 0 8C0 12.4194 3.58065 16 8 16C12.4194 16 16 12.4194 16 8C16 3.58065 12.4194 0 8 0ZM13.01 6.30032L7.07452 12.2358C6.97773 12.3325 6.8465 12.3869 6.70968 12.3869C6.57285 12.3869 6.44162 12.3325 6.34484 12.2358L2.99 8.88097C2.89328 8.78418 2.83895 8.65296 2.83895 8.51613C2.83895 8.3793 2.89328 8.24807 2.99 8.15129L3.71968 7.42129C3.76761 7.37335 3.82451 7.33532 3.88714 7.30938C3.94976 7.28343 4.01689 7.27008 4.08468 7.27008C4.15247 7.27008 4.21959 7.28343 4.28222 7.30938C4.34485 7.33532 4.40175 7.37335 4.44968 7.42129L6.70968 9.68129L11.5503 4.84064C11.5983 4.79271 11.6552 4.75468 11.7178 4.72873C11.7804 4.70279 11.8475 4.68943 11.9153 4.68943C11.9831 4.68943 12.0502 4.70279 12.1129 4.72873C12.1755 4.75468 12.2324 4.79271 12.2803 4.84064L13.01 5.57064C13.1067 5.66743 13.1611 5.79866 13.1611 5.93548C13.1611 6.07231 13.1067 6.20354 13.01 6.30032Z" fill="#DC241F"/>
<path d="M7.07464 12.2353C6.97786 12.332 6.84663 12.3864 6.7098 12.3864C6.57297 12.3864 6.44174 12.332 6.34496 12.2353L2.99012 8.88049C2.8934 8.78371 2.83907 8.65248 2.83907 8.51566C2.83907 8.37883 2.8934 8.2476 2.99012 8.15082L3.7198 7.42082C3.76773 7.37288 3.82463 7.33485 3.88726 7.30891C3.94989 7.28296 4.01701 7.26961 4.0848 7.26961C4.15259 7.26961 4.21971 7.28296 4.28234 7.30891C4.34497 7.33485 4.40187 7.37288 4.4498 7.42082L6.7098 9.68082L11.5504 4.84018C11.5984 4.79224 11.6553 4.75421 11.7179 4.72826C11.7805 4.70232 11.8477 4.68896 11.9154 4.68896C11.9832 4.68896 12.0504 4.70232 12.113 4.72826C12.1756 4.75421 12.2325 4.79224 12.2804 4.84018L13.0101 5.57018C13.1068 5.66696 13.1612 5.79819 13.1612 5.93501C13.1612 6.07184 13.1068 6.20307 13.0101 6.29985L7.07464 12.2353Z" fill="#DC241F"/>
</svg>
