<svg width="30" height="30" viewBox="0 0 30 30" fill="none" xmlns="http://www.w3.org/2000/svg">
<rect width="30" height="30" rx="10" fill="#FFF5F4"/>
<path opacity="0.4" d="M10.75 20H9.25C9 20 8.75 20.25 8.75 20.5V22C8.75 22.25 9 22.5 9.25 22.5H10.75C11 22.5 11.25 22.25 11.25 22V20.5C11.25 20.25 11 20 10.75 20ZM10.75 15H9.25C9 15 8.75 15.25 8.75 15.5V17C8.75 17.25 9 17.5 9.25 17.5H10.75C11 17.5 11.25 17.25 11.25 17V15.5C11.25 15.25 11 15 10.75 15ZM15.75 20H14.25C14 20 13.75 20.25 13.75 20.5V22C13.75 22.25 14 22.5 14.25 22.5H15.75C16 22.5 16.25 22.25 16.25 22V20.5C16.25 20.25 16 20 15.75 20ZM15.75 15H14.25C14 15 13.75 15.25 13.75 15.5V17C13.75 17.25 14 17.5 14.25 17.5H15.75C16 17.5 16.25 17.25 16.25 17V15.5C16.25 15.25 16 15 15.75 15ZM20.75 15H19.25C19 15 18.75 15.25 18.75 15.5V22C18.75 22.25 19 22.5 19.25 22.5H20.75C21 22.5 21.25 22.25 21.25 22V15.5C21.25 15.25 21 15 20.75 15Z" fill="#DC241F"/>
<path d="M21.875 5H8.125C7.125 5 6.25 5.875 6.25 6.875V23.125C6.25 24.125 7.125 25 8.125 25H21.875C22.875 25 23.75 24.125 23.75 23.125V6.875C23.75 5.875 22.875 5 21.875 5ZM11.25 22C11.25 22.25 11 22.5 10.75 22.5H9.25C9 22.5 8.75 22.25 8.75 22V20.5C8.75 20.25 9 20 9.25 20H10.75C11 20 11.25 20.25 11.25 20.5V22ZM11.25 17C11.25 17.25 11 17.5 10.75 17.5H9.25C9 17.5 8.75 17.25 8.75 17V15.5C8.75 15.25 9 15 9.25 15H10.75C11 15 11.25 15.25 11.25 15.5V17ZM16.25 22C16.25 22.25 16 22.5 15.75 22.5H14.25C14 22.5 13.75 22.25 13.75 22V20.5C13.75 20.25 14 20 14.25 20H15.75C16 20 16.25 20.25 16.25 20.5V22ZM16.25 17C16.25 17.25 16 17.5 15.75 17.5H14.25C14 17.5 13.75 17.25 13.75 17V15.5C13.75 15.25 14 15 14.25 15H15.75C16 15 16.25 15.25 16.25 15.5V17ZM21.25 22C21.25 22.25 21 22.5 20.75 22.5H19.25C19 22.5 18.75 22.25 18.75 22V15.5C18.75 15.25 19 15 19.25 15H20.75C21 15 21.25 15.25 21.25 15.5V22ZM21.25 12C21.25 12.25 21 12.5 20.75 12.5H9.25C9 12.5 8.75 12.25 8.75 12V8C8.75 7.75 9 7.5 9.25 7.5H20.75C21 7.5 21.25 7.75 21.25 8V12Z" fill="#DC241F"/>
</svg>
