<svg width="17" height="16" viewBox="0 0 17 16" fill="none" xmlns="http://www.w3.org/2000/svg">
<path d="M14 2H12.5V0.375C12.5 0.167906 12.3321 0 12.125 0H11.875C11.6679 0 11.5 0.167906 11.5 0.375V2H5.5V0.375C5.5 0.167906 5.33209 0 5.125 0H4.875C4.66791 0 4.5 0.167906 4.5 0.375V2H3C2.17156 2 1.5 2.67156 1.5 3.5V14.5C1.5 15.3284 2.17156 16 3 16H14C14.8284 16 15.5 15.3284 15.5 14.5V3.5C15.5 2.67156 14.8284 2 14 2ZM3 3H14C14.2757 3 14.5 3.22431 14.5 3.5V5H2.5V3.5C2.5 3.22431 2.72431 3 3 3ZM14 15H3C2.72431 15 2.5 14.7757 2.5 14.5V6H14.5V14.5C14.5 14.7757 14.2757 15 14 15Z" fill="#8D98B4"/>
</svg>
