<svg width="20" height="20" viewBox="0 0 20 20" fill="none" xmlns="http://www.w3.org/2000/svg">
<path opacity="0.4" d="M20 15.625V16.875C20 17.0408 19.9342 17.1997 19.8169 17.3169C19.6997 17.4342 19.5408 17.5 19.375 17.5H1.25C0.918479 17.5 0.600537 17.3683 0.366117 17.1339C0.131696 16.8995 0 16.5815 0 16.25V3.125C0 2.95924 0.065848 2.80027 0.183058 2.68306C0.300269 2.56585 0.45924 2.5 0.625 2.5H1.875C2.04076 2.5 2.19973 2.56585 2.31694 2.68306C2.43415 2.80027 2.5 2.95924 2.5 3.125V15H19.375C19.5408 15 19.6997 15.0658 19.8169 15.1831C19.9342 15.3003 20 15.4592 20 15.625Z" fill="#DC241F"/>
<path d="M18.75 4.375V8.98633C18.75 9.82148 17.7402 10.2398 17.1484 9.65039L15.8828 8.38477L12.1328 12.1348C11.8984 12.3691 11.5805 12.5008 11.249 12.5008C10.9175 12.5008 10.5996 12.3691 10.3652 12.1348L7.5 9.26758L5.70078 11.0672C5.64274 11.1252 5.57383 11.1713 5.498 11.2027C5.42216 11.2341 5.34087 11.2503 5.25879 11.2503C5.1767 11.2503 5.09541 11.2341 5.01958 11.2027C4.94374 11.1713 4.87483 11.1252 4.81679 11.0672L3.9332 10.1836C3.87515 10.1256 3.8291 10.0566 3.79768 9.98081C3.76626 9.90497 3.75009 9.82369 3.75009 9.7416C3.75009 9.65951 3.76626 9.57823 3.79768 9.50239C3.8291 9.42655 3.87515 9.35765 3.9332 9.29961L6.6164 6.61641C6.85082 6.38204 7.16872 6.25038 7.50019 6.25038C7.83167 6.25038 8.14957 6.38204 8.38398 6.61641L11.25 9.48242L14.116 6.61602L12.8516 5.35156C12.2609 4.76094 12.6793 3.75 13.5156 3.75H18.125C18.2908 3.75 18.4497 3.81585 18.5669 3.93306C18.6842 4.05027 18.75 4.20924 18.75 4.375Z" fill="#DC241F"/>
</svg>
