<svg width="180" height="140" viewBox="0 0 180 140" fill="none" xmlns="http://www.w3.org/2000/svg">
<path d="M178 0.5H2C1.17157 0.5 0.5 1.17157 0.5 2V138C0.5 138.828 1.17157 139.5 2 139.5H178C178.828 139.5 179.5 138.828 179.5 138V2C179.5 1.17157 178.828 0.5 178 0.5Z" fill="white" stroke="#E6EAF3" stroke-linecap="round" stroke-linejoin="round" stroke-dasharray="4 4"/>
<path d="M104 36H76C73.7909 36 72 37.7909 72 40V68C72 70.2091 73.7909 72 76 72H104C106.209 72 108 70.2091 108 68V40C108 37.7909 106.209 36 104 36Z" stroke="#DC241F" stroke-width="4" stroke-linecap="round" stroke-linejoin="round"/>
<path d="M83 50C84.6569 50 86 48.6569 86 47C86 45.3431 84.6569 44 83 44C81.3431 44 80 45.3431 80 47C80 48.6569 81.3431 50 83 50Z" stroke="#DC241F" stroke-width="4" stroke-linecap="round" stroke-linejoin="round"/>
<path d="M108 60L98 50L76 72" stroke="#DC241F" stroke-width="4" stroke-linecap="round" stroke-linejoin="round"/>
<path d="M50.3057 105.12C49.5757 105.12 48.9307 104.98 48.3707 104.7C47.8207 104.41 47.3907 104.005 47.0807 103.485C46.7707 102.955 46.6157 102.35 46.6157 101.67V94.65C46.6157 94.55 46.6657 94.5 46.7657 94.5H47.9057C48.0057 94.5 48.0557 94.55 48.0557 94.65V101.7C48.0557 102.35 48.2607 102.875 48.6707 103.275C49.0907 103.675 49.6357 103.875 50.3057 103.875C50.9757 103.875 51.5157 103.675 51.9257 103.275C52.3357 102.875 52.5407 102.35 52.5407 101.7V94.65C52.5407 94.55 52.5907 94.5 52.6907 94.5H53.8307C53.9307 94.5 53.9807 94.55 53.9807 94.65V101.67C53.9807 102.35 53.8257 102.955 53.5157 103.485C53.2157 104.005 52.7857 104.41 52.2257 104.7C51.6757 104.98 51.0357 105.12 50.3057 105.12ZM62.3451 99.285C62.5351 99.825 62.6301 100.465 62.6301 101.205C62.6301 101.905 62.5501 102.51 62.3901 103.02C62.1801 103.69 61.8351 104.21 61.3551 104.58C60.8751 104.94 60.2601 105.12 59.5101 105.12C59.1701 105.12 58.8451 105.055 58.5351 104.925C58.2351 104.785 57.9751 104.59 57.7551 104.34C57.7351 104.32 57.7151 104.315 57.6951 104.325C57.6851 104.335 57.6801 104.35 57.6801 104.37V107.715C57.6801 107.815 57.6301 107.865 57.5301 107.865H56.3901C56.2901 107.865 56.2401 107.815 56.2401 107.715V97.515C56.2401 97.415 56.2901 97.365 56.3901 97.365H57.5301C57.6301 97.365 57.6801 97.415 57.6801 97.515V98.01C57.6801 98.03 57.6851 98.045 57.6951 98.055C57.7151 98.065 57.7351 98.06 57.7551 98.04C57.9751 97.79 58.2351 97.595 58.5351 97.455C58.8351 97.315 59.1601 97.245 59.5101 97.245C60.2301 97.245 60.8251 97.425 61.2951 97.785C61.7751 98.135 62.1251 98.635 62.3451 99.285ZM60.6951 103.155C61.0151 102.675 61.1751 102.015 61.1751 101.175C61.1751 100.405 61.0501 99.785 60.8001 99.315C60.5101 98.765 60.0351 98.49 59.3751 98.49C58.7951 98.49 58.3551 98.76 58.0551 99.3C57.8151 99.73 57.6951 100.36 57.6951 101.19C57.6951 102.03 57.8251 102.67 58.0851 103.11C58.3751 103.62 58.8001 103.875 59.3601 103.875C59.9601 103.875 60.4051 103.635 60.6951 103.155ZM64.6644 105C64.5644 105 64.5144 104.95 64.5144 104.85V94.65C64.5144 94.55 64.5644 94.5 64.6644 94.5H65.8044C65.9044 94.5 65.9544 94.55 65.9544 94.65V104.85C65.9544 104.95 65.9044 105 65.8044 105H64.6644ZM71.1646 105.12C70.4246 105.12 69.7796 104.935 69.2296 104.565C68.6796 104.185 68.2946 103.66 68.0746 102.99C67.8946 102.45 67.8046 101.84 67.8046 101.16C67.8046 100.45 67.8896 99.85 68.0596 99.36C68.2796 98.7 68.6646 98.185 69.2146 97.815C69.7646 97.435 70.4196 97.245 71.1796 97.245C71.8996 97.245 72.5246 97.435 73.0546 97.815C73.5946 98.185 73.9796 98.695 74.2096 99.345C74.3896 99.855 74.4796 100.455 74.4796 101.145C74.4796 101.845 74.3896 102.46 74.2096 102.99C73.9896 103.66 73.6096 104.185 73.0696 104.565C72.5296 104.935 71.8946 105.12 71.1646 105.12ZM71.1646 103.875C71.5646 103.875 71.9146 103.765 72.2146 103.545C72.5146 103.315 72.7296 102.995 72.8596 102.585C72.9696 102.205 73.0246 101.735 73.0246 101.175C73.0246 100.615 72.9746 100.15 72.8746 99.78C72.7446 99.37 72.5296 99.055 72.2296 98.835C71.9296 98.605 71.5646 98.49 71.1346 98.49C70.7246 98.49 70.3696 98.605 70.0696 98.835C69.7696 99.055 69.5546 99.37 69.4246 99.78C69.3146 100.13 69.2596 100.595 69.2596 101.175C69.2596 101.755 69.3146 102.225 69.4246 102.585C69.5446 102.995 69.7546 103.315 70.0546 103.545C70.3646 103.765 70.7346 103.875 71.1646 103.875ZM79.1549 97.245C79.7649 97.245 80.2949 97.355 80.7449 97.575C81.2049 97.785 81.5549 98.085 81.7949 98.475C82.0449 98.855 82.1699 99.29 82.1699 99.78V104.85C82.1699 104.95 82.1199 105 82.0199 105H80.8799C80.7799 105 80.7299 104.95 80.7299 104.85V104.31C80.7299 104.26 80.7049 104.25 80.6549 104.28C80.3949 104.55 80.0749 104.76 79.6949 104.91C79.3249 105.05 78.9099 105.12 78.4499 105.12C77.7099 105.12 77.0949 104.935 76.6049 104.565C76.1249 104.185 75.8849 103.615 75.8849 102.855C75.8849 102.075 76.1549 101.465 76.6949 101.025C77.2449 100.575 78.0099 100.35 78.9899 100.35H80.6699C80.7099 100.35 80.7299 100.33 80.7299 100.29V99.885C80.7299 99.445 80.5999 99.105 80.3399 98.865C80.0899 98.615 79.7049 98.49 79.1849 98.49C78.7649 98.49 78.4199 98.575 78.1499 98.745C77.8899 98.905 77.7299 99.125 77.6699 99.405C77.6399 99.505 77.5799 99.55 77.4899 99.54L76.2749 99.375C76.1749 99.355 76.1299 99.315 76.1399 99.255C76.2199 98.665 76.5349 98.185 77.0849 97.815C77.6349 97.435 78.3249 97.245 79.1549 97.245ZM78.7649 103.905C79.2949 103.905 79.7549 103.765 80.1449 103.485C80.5349 103.205 80.7299 102.85 80.7299 102.42V101.535C80.7299 101.495 80.7099 101.475 80.6699 101.475H79.2599C78.6699 101.475 78.1999 101.59 77.8499 101.82C77.4999 102.05 77.3249 102.37 77.3249 102.78C77.3249 103.15 77.4549 103.43 77.7149 103.62C77.9849 103.81 78.3349 103.905 78.7649 103.905ZM88.854 94.65C88.854 94.55 88.904 94.5 89.004 94.5H90.144C90.244 94.5 90.294 94.55 90.294 94.65V104.85C90.294 104.95 90.244 105 90.144 105H89.004C88.904 105 88.854 104.95 88.854 104.85V104.355C88.854 104.335 88.844 104.32 88.824 104.31C88.814 104.3 88.799 104.305 88.779 104.325C88.559 104.575 88.299 104.77 87.999 104.91C87.699 105.05 87.374 105.12 87.024 105.12C86.304 105.12 85.704 104.945 85.224 104.595C84.754 104.235 84.409 103.73 84.189 103.08C83.999 102.55 83.904 101.91 83.904 101.16C83.904 100.46 83.984 99.855 84.144 99.345C84.354 98.685 84.699 98.17 85.179 97.8C85.659 97.43 86.274 97.245 87.024 97.245C87.364 97.245 87.684 97.315 87.984 97.455C88.294 97.585 88.559 97.775 88.779 98.025C88.799 98.045 88.814 98.05 88.824 98.04C88.844 98.03 88.854 98.015 88.854 97.995V94.65ZM88.479 103.065C88.709 102.645 88.824 102.015 88.824 101.175C88.824 100.335 88.699 99.695 88.449 99.255C88.159 98.745 87.734 98.49 87.174 98.49C86.574 98.49 86.129 98.73 85.839 99.21C85.519 99.71 85.359 100.37 85.359 101.19C85.359 101.96 85.484 102.58 85.734 103.05C86.024 103.6 86.499 103.875 87.159 103.875C87.739 103.875 88.179 103.605 88.479 103.065ZM96.2779 96.165C95.9979 96.165 95.7679 96.075 95.5879 95.895C95.4079 95.715 95.3179 95.485 95.3179 95.205C95.3179 94.925 95.4079 94.695 95.5879 94.515C95.7679 94.335 95.9979 94.245 96.2779 94.245C96.5579 94.245 96.7879 94.335 96.9679 94.515C97.1479 94.695 97.2379 94.925 97.2379 95.205C97.2379 95.485 97.1479 95.715 96.9679 95.895C96.7879 96.075 96.5579 96.165 96.2779 96.165ZM95.6779 104.985C95.5779 104.985 95.5279 104.935 95.5279 104.835V97.515C95.5279 97.415 95.5779 97.365 95.6779 97.365H96.8179C96.9179 97.365 96.9679 97.415 96.9679 97.515V104.835C96.9679 104.935 96.9179 104.985 96.8179 104.985H95.6779ZM107.166 97.26C107.926 97.26 108.526 97.49 108.966 97.95C109.406 98.4 109.626 99.03 109.626 99.84V104.85C109.626 104.95 109.576 105 109.476 105H108.351C108.251 105 108.201 104.95 108.201 104.85V100.14C108.201 99.64 108.061 99.245 107.781 98.955C107.511 98.655 107.146 98.505 106.686 98.505C106.226 98.505 105.851 98.65 105.561 98.94C105.271 99.23 105.126 99.62 105.126 100.11V104.85C105.126 104.95 105.076 105 104.976 105H103.851C103.751 105 103.701 104.95 103.701 104.85V100.14C103.701 99.64 103.561 99.245 103.281 98.955C103.011 98.655 102.646 98.505 102.186 98.505C101.726 98.505 101.356 98.65 101.076 98.94C100.806 99.23 100.671 99.62 100.671 100.11V104.85C100.671 104.95 100.621 105 100.521 105H99.3812C99.2812 105 99.2312 104.95 99.2312 104.85V97.515C99.2312 97.415 99.2812 97.365 99.3812 97.365H100.521C100.621 97.365 100.671 97.415 100.671 97.515V98.025C100.671 98.045 100.676 98.06 100.686 98.07C100.706 98.08 100.726 98.075 100.746 98.055C101.186 97.525 101.826 97.26 102.666 97.26C103.176 97.26 103.611 97.36 103.971 97.56C104.331 97.75 104.611 98.035 104.811 98.415C104.841 98.455 104.871 98.455 104.901 98.415C105.141 98.025 105.456 97.735 105.846 97.545C106.246 97.355 106.686 97.26 107.166 97.26ZM114.414 97.245C115.024 97.245 115.554 97.355 116.004 97.575C116.464 97.785 116.814 98.085 117.054 98.475C117.304 98.855 117.429 99.29 117.429 99.78V104.85C117.429 104.95 117.379 105 117.279 105H116.139C116.039 105 115.989 104.95 115.989 104.85V104.31C115.989 104.26 115.964 104.25 115.914 104.28C115.654 104.55 115.334 104.76 114.954 104.91C114.584 105.05 114.169 105.12 113.709 105.12C112.969 105.12 112.354 104.935 111.864 104.565C111.384 104.185 111.144 103.615 111.144 102.855C111.144 102.075 111.414 101.465 111.954 101.025C112.504 100.575 113.269 100.35 114.249 100.35H115.929C115.969 100.35 115.989 100.33 115.989 100.29V99.885C115.989 99.445 115.859 99.105 115.599 98.865C115.349 98.615 114.964 98.49 114.444 98.49C114.024 98.49 113.679 98.575 113.409 98.745C113.149 98.905 112.989 99.125 112.929 99.405C112.899 99.505 112.839 99.55 112.749 99.54L111.534 99.375C111.434 99.355 111.389 99.315 111.399 99.255C111.479 98.665 111.794 98.185 112.344 97.815C112.894 97.435 113.584 97.245 114.414 97.245ZM114.024 103.905C114.554 103.905 115.014 103.765 115.404 103.485C115.794 103.205 115.989 102.85 115.989 102.42V101.535C115.989 101.495 115.969 101.475 115.929 101.475H114.519C113.929 101.475 113.459 101.59 113.109 101.82C112.759 102.05 112.584 102.37 112.584 102.78C112.584 103.15 112.714 103.43 112.974 103.62C113.244 103.81 113.594 103.905 114.024 103.905ZM124.068 97.515C124.068 97.415 124.118 97.365 124.218 97.365H125.358C125.458 97.365 125.508 97.415 125.508 97.515V104.61C125.508 105.82 125.163 106.685 124.473 107.205C123.793 107.725 122.878 107.985 121.728 107.985C121.568 107.985 121.318 107.975 120.978 107.955C120.878 107.945 120.828 107.89 120.828 107.79L120.873 106.755C120.873 106.715 120.888 106.68 120.918 106.65C120.948 106.62 120.988 106.61 121.038 106.62C121.178 106.63 121.383 106.635 121.653 106.635C122.503 106.635 123.118 106.475 123.498 106.155C123.878 105.845 124.068 105.315 124.068 104.565V104.295C124.068 104.275 124.058 104.26 124.038 104.25C124.028 104.24 124.013 104.245 123.993 104.265C123.573 104.755 122.958 105 122.148 105C121.498 105 120.908 104.83 120.378 104.49C119.858 104.15 119.498 103.65 119.298 102.99C119.168 102.55 119.103 101.94 119.103 101.16C119.103 100.33 119.178 99.69 119.328 99.24C119.518 98.64 119.853 98.16 120.333 97.8C120.823 97.43 121.398 97.245 122.058 97.245C122.878 97.245 123.523 97.495 123.993 97.995C124.013 98.015 124.028 98.025 124.038 98.025C124.058 98.015 124.068 98 124.068 97.98V97.515ZM123.978 102.555C124.008 102.395 124.028 102.225 124.038 102.045C124.058 101.865 124.068 101.565 124.068 101.145C124.068 100.725 124.058 100.43 124.038 100.26C124.028 100.08 124.003 99.91 123.963 99.75C123.883 99.38 123.703 99.08 123.423 98.85C123.143 98.61 122.793 98.49 122.373 98.49C121.953 98.49 121.603 98.61 121.323 98.85C121.043 99.08 120.843 99.38 120.723 99.75C120.613 100.05 120.558 100.515 120.558 101.145C120.558 101.835 120.608 102.305 120.708 102.555C120.808 102.925 121.003 103.23 121.293 103.47C121.593 103.7 121.953 103.815 122.373 103.815C122.813 103.815 123.168 103.7 123.438 103.47C123.718 103.23 123.898 102.925 123.978 102.555ZM133.697 100.23C133.737 100.64 133.752 101.1 133.742 101.61C133.742 101.71 133.692 101.76 133.592 101.76H128.807C128.767 101.76 128.747 101.78 128.747 101.82C128.747 102.16 128.777 102.42 128.837 102.6C128.947 103 129.167 103.315 129.497 103.545C129.837 103.765 130.262 103.875 130.772 103.875C131.512 103.875 132.082 103.57 132.482 102.96C132.532 102.86 132.597 102.845 132.677 102.915L133.532 103.485C133.602 103.545 133.617 103.61 133.577 103.68C133.297 104.13 132.897 104.485 132.377 104.745C131.867 105.005 131.287 105.135 130.637 105.135C129.907 105.135 129.292 104.975 128.792 104.655C128.292 104.335 127.917 103.88 127.667 103.29C127.427 102.7 127.307 101.985 127.307 101.145C127.307 100.415 127.362 99.86 127.472 99.48C127.652 98.79 128.012 98.245 128.552 97.845C129.092 97.445 129.747 97.245 130.517 97.245C131.527 97.245 132.282 97.5 132.782 98.01C133.282 98.51 133.587 99.25 133.697 100.23ZM130.517 98.49C130.087 98.49 129.732 98.6 129.452 98.82C129.172 99.03 128.982 99.315 128.882 99.675C128.812 99.895 128.767 100.175 128.747 100.515C128.747 100.555 128.767 100.575 128.807 100.575H132.242C132.282 100.575 132.302 100.555 132.302 100.515C132.282 100.185 132.252 99.94 132.212 99.78C132.112 99.39 131.912 99.08 131.612 98.85C131.322 98.61 130.957 98.49 130.517 98.49Z" fill="#DC241F"/>
</svg>
