<svg width="17" height="16" viewBox="0 0 17 16" fill="none" xmlns="http://www.w3.org/2000/svg">
<path opacity="0.4" d="M8.5 0C4.08065 0 0.5 3.58065 0.5 8C0.5 12.4194 4.08065 16 8.5 16C12.9194 16 16.5 12.4194 16.5 8C16.5 3.58065 12.9194 0 8.5 0ZM13.51 6.30032L7.57452 12.2358C7.47773 12.3325 7.3465 12.3869 7.20968 12.3869C7.07285 12.3869 6.94162 12.3325 6.84484 12.2358L3.49 8.88097C3.39328 8.78418 3.33895 8.65296 3.33895 8.51613C3.33895 8.3793 3.39328 8.24807 3.49 8.15129L4.21968 7.42129C4.26761 7.37335 4.32451 7.33532 4.38714 7.30938C4.44976 7.28343 4.51689 7.27008 4.58468 7.27008C4.65247 7.27008 4.71959 7.28343 4.78222 7.30938C4.84485 7.33532 4.90175 7.37335 4.94968 7.42129L7.20968 9.68129L12.0503 4.84064C12.0983 4.79271 12.1552 4.75468 12.2178 4.72873C12.2804 4.70279 12.3475 4.68943 12.4153 4.68943C12.4831 4.68943 12.5502 4.70279 12.6129 4.72873C12.6755 4.75468 12.7324 4.79271 12.7803 4.84064L13.51 5.57064C13.6067 5.66743 13.6611 5.79866 13.6611 5.93548C13.6611 6.07231 13.6067 6.20354 13.51 6.30032Z" fill="#65D170"/>
</svg>
