<svg width="20" height="20" viewBox="0 0 20 20" fill="none" xmlns="http://www.w3.org/2000/svg">
<path d="M6.89302 13.8836L9.99995 16.9905L13.1068 13.8836" stroke="#DC241F" stroke-width="2" stroke-linecap="round" stroke-linejoin="round"/>
<path d="M9.99986 9.99968V16.9903" stroke="#DC241F" stroke-width="2" stroke-linecap="round" stroke-linejoin="round"/>
<path d="M16.8973 14.7299C17.5726 14.2551 18.079 13.5774 18.343 12.7952C18.607 12.0131 18.615 11.1671 18.3656 10.3801C18.1163 9.59312 17.6227 8.90606 16.9564 8.41864C16.2901 7.93122 15.4859 7.66879 14.6603 7.66943H13.6817C13.448 6.75901 13.0109 5.91344 12.4032 5.19639C11.7955 4.47933 11.0331 3.90948 10.1733 3.52973C9.31351 3.14999 8.37876 2.97024 7.43945 3.00401C6.50014 3.03779 5.58073 3.28422 4.75043 3.72475C3.92014 4.16528 3.20059 4.78842 2.64598 5.54728C2.09137 6.30613 1.71613 7.18091 1.54852 8.10576C1.38091 9.03062 1.42529 9.98145 1.67833 10.8866C1.93136 11.7919 2.38645 12.6279 3.00935 13.3318" stroke="#DC241F" stroke-width="2" stroke-linecap="round" stroke-linejoin="round"/>
</svg>
