<svg width="16" height="16" viewBox="0 0 16 16" fill="none" xmlns="http://www.w3.org/2000/svg">
<path opacity="0.4" d="M8 0C3.58065 0 0 3.58065 0 8C0 12.4194 3.58065 16 8 16C12.4194 16 16 12.4194 16 8C16 3.58065 12.4194 0 8 0ZM13.01 6.30032L7.07452 12.2358C6.97773 12.3325 6.8465 12.3869 6.70968 12.3869C6.57285 12.3869 6.44162 12.3325 6.34484 12.2358L2.99 8.88097C2.89328 8.78418 2.83895 8.65296 2.83895 8.51613C2.83895 8.3793 2.89328 8.24807 2.99 8.15129L3.71968 7.42129C3.76761 7.37335 3.82451 7.33532 3.88714 7.30938C3.94976 7.28343 4.01689 7.27008 4.08468 7.27008C4.15247 7.27008 4.21959 7.28343 4.28222 7.30938C4.34485 7.33532 4.40175 7.37335 4.44968 7.42129L6.70968 9.68129L11.5503 4.84064C11.5983 4.79271 11.6552 4.75468 11.7178 4.72873C11.7804 4.70279 11.8475 4.68943 11.9153 4.68943C11.9831 4.68943 12.0502 4.70279 12.1129 4.72873C12.1755 4.75468 12.2324 4.79271 12.2803 4.84064L13.01 5.57064C13.1067 5.66743 13.1611 5.79866 13.1611 5.93548C13.1611 6.07231 13.1067 6.20354 13.01 6.30032Z" fill="#65D170"/>
<path d="M7.07443 12.2358C6.97765 12.3325 6.84642 12.3869 6.7096 12.3869C6.57277 12.3869 6.44154 12.3325 6.34476 12.2358L2.98992 8.88098C2.8932 8.7842 2.83887 8.65297 2.83887 8.51614C2.83887 8.37932 2.8932 8.24809 2.98992 8.15131L3.7196 7.42131C3.76752 7.37337 3.82443 7.33534 3.88705 7.30939C3.94968 7.28345 4.01681 7.2701 4.0846 7.2701C4.15238 7.2701 4.21951 7.28345 4.28214 7.30939C4.34476 7.33534 4.40167 7.37337 4.4496 7.42131L6.7096 9.6813L11.5502 4.84067C11.5982 4.79273 11.6551 4.7547 11.7177 4.72875C11.7803 4.70281 11.8475 4.68945 11.9152 4.68945C11.983 4.68945 12.0502 4.70281 12.1128 4.72875C12.1754 4.7547 12.2323 4.79273 12.2802 4.84067L13.0099 5.57066C13.1066 5.66745 13.161 5.79868 13.161 5.9355C13.161 6.07233 13.1066 6.20356 13.0099 6.30034L7.07443 12.2358Z" fill="#65D170"/>
</svg>
