<svg width="80" height="80" viewBox="0 0 80 80" fill="none" xmlns="http://www.w3.org/2000/svg">
<path opacity="0.4" d="M40 0C17.9032 0 0 17.9032 0 40C0 62.0968 17.9032 80 40 80C62.0968 80 80 62.0968 80 40C80 17.9032 62.0968 0 40 0Z" fill="#84A6FF"/>
<path d="M40.144 31.976C38.928 31.976 37.92 31.592 37.12 30.824C36.352 30.024 35.968 29.016 35.968 27.8C35.968 26.552 36.352 25.544 37.12 24.776C37.92 24.008 38.928 23.624 40.144 23.624C41.36 23.624 42.352 24.008 43.12 24.776C43.92 25.544 44.32 26.552 44.32 27.8C44.32 28.984 43.92 29.976 43.12 30.776C42.352 31.576 41.36 31.976 40.144 31.976ZM36.688 59C36.528 59 36.384 58.952 36.256 58.856C36.16 58.728 36.112 58.584 36.112 58.424V34.76C36.112 34.6 36.16 34.472 36.256 34.376C36.384 34.248 36.528 34.184 36.688 34.184H43.504C43.664 34.184 43.792 34.248 43.888 34.376C44.016 34.472 44.08 34.6 44.08 34.76V58.424C44.08 58.584 44.016 58.728 43.888 58.856C43.792 58.952 43.664 59 43.504 59H36.688Z" fill="#6AAFFF"/>
</svg>
