<svg width="20" height="20" viewBox="0 0 20 20" fill="none" xmlns="http://www.w3.org/2000/svg">
<path opacity="0.4" d="M13.5596 19.2503C13.1868 12.3487 7.65882 6.81358 0.7496 6.44038C0.652914 6.4356 0.556265 6.45052 0.465523 6.48424C0.374782 6.51796 0.291842 6.56978 0.221741 6.63654C0.15164 6.7033 0.0958411 6.78361 0.0577337 6.8726C0.0196263 6.96159 5.54095e-06 7.05739 6.31104e-05 7.1542V9.30013C-0.000373321 9.48129 0.0680405 9.65584 0.191454 9.78845C0.314868 9.92107 0.484061 10.0018 0.664781 10.0144C5.65708 10.3394 9.65878 14.3313 9.98467 19.3343C9.99723 19.515 10.078 19.6842 10.2106 19.8076C10.3432 19.931 10.5178 19.9994 10.6989 19.999H12.8449C12.9417 19.9991 13.0376 19.9795 13.1266 19.9415C13.2157 19.9034 13.296 19.8476 13.3628 19.7775C13.4296 19.7074 13.4815 19.6244 13.5152 19.5336C13.549 19.4429 13.5639 19.3462 13.5591 19.2495L13.5596 19.2503ZM0.736654 0.000348874C0.640993 -0.00264199 0.545707 0.0136225 0.456455 0.0481764C0.367203 0.0827303 0.285805 0.134869 0.217097 0.201495C0.148389 0.268121 0.0937707 0.347876 0.0564876 0.436023C0.0192044 0.52417 1.63665e-05 0.618911 6.31104e-05 0.714618V2.861C-4.63749e-05 3.04625 0.0718272 3.22431 0.200514 3.35757C0.3292 3.49084 0.504632 3.5689 0.68978 3.57527C9.22441 3.92526 16.0747 10.7769 16.4247 19.3102C16.4311 19.4953 16.5091 19.6707 16.6424 19.7994C16.7757 19.9281 16.9537 20 17.139 19.9999H19.2854C19.3811 19.9999 19.4758 19.9807 19.564 19.9435C19.6521 19.9062 19.7319 19.8516 19.7985 19.7828C19.8651 19.7141 19.9172 19.6327 19.9518 19.5435C19.9864 19.4542 20.0026 19.359 19.9996 19.2633C19.6246 8.82514 11.2257 0.377572 0.736654 0.000348874Z" fill="white"/>
<path d="M0.00012207 17.143C0.00012207 16.5779 0.167687 16.0255 0.481626 15.5557C0.795566 15.0858 1.24178 14.7196 1.76384 14.5034C2.2859 14.2871 2.86037 14.2305 3.41459 14.3408C3.9688 14.451 4.47789 14.7231 4.87746 15.1227C5.27702 15.5223 5.54913 16.0314 5.65938 16.5856C5.76962 17.1398 5.71304 17.7143 5.49679 18.2363C5.28055 18.7584 4.91435 19.2046 4.4445 19.5185C3.97466 19.8325 3.42227 20 2.8572 20C2.09945 20 1.37275 19.699 0.83694 19.1632C0.301135 18.6274 0.00012207 17.9007 0.00012207 17.143Z" fill="white"/>
</svg>
