<svg width="17" height="16" viewBox="0 0 17 16" fill="none" xmlns="http://www.w3.org/2000/svg">
<g clip-path="url(#clip0)">
<path opacity="0.4" d="M3.83344 11.727V9.20432C3.83344 9.08455 3.88102 8.96968 3.96571 8.88498C4.0504 8.80029 4.16527 8.75271 4.28505 8.75271H6.80768C7.21 8.75271 7.41153 9.23913 7.12758 9.52421L6.34196 10.3098C6.92697 10.8596 7.70035 11.1643 8.50311 11.1613C9.95975 11.16 11.2186 10.1614 11.5662 8.77435C11.5782 8.72526 11.6063 8.68161 11.646 8.6504C11.6858 8.61918 11.7349 8.6022 11.7854 8.60217H12.8638C12.897 8.60215 12.9297 8.60942 12.9597 8.62347C12.9897 8.63752 13.0163 8.658 13.0375 8.68347C13.0587 8.70894 13.0741 8.73876 13.0824 8.77083C13.0908 8.80289 13.0921 8.83641 13.086 8.869C12.6788 11.0311 10.7806 12.6667 8.5001 12.6667C7.29898 12.6683 6.14381 12.2051 5.27653 11.3741L4.60494 12.0457C4.31986 12.3308 3.83344 12.1293 3.83344 11.727Z" fill="#88ADFF"/>
<path d="M3.91434 7.13107C4.32136 4.96897 6.21964 3.33338 8.50009 3.33338C9.70122 3.33177 10.8564 3.79496 11.7237 4.62593L12.3953 3.95435C12.6798 3.66983 13.1668 3.87136 13.1668 4.27424V6.79574C13.1668 6.91552 13.1192 7.03039 13.0345 7.11508C12.9498 7.19978 12.8349 7.24736 12.7152 7.24736H10.1925C9.7902 7.24736 9.58867 6.76093 9.87262 6.47585L10.6582 5.69023C10.0733 5.14052 9.29997 4.83581 8.49727 4.83875C7.03969 4.84007 5.78138 5.83945 5.43402 7.22572C5.42202 7.27481 5.39389 7.31846 5.35415 7.34967C5.3144 7.38089 5.26534 7.39787 5.2148 7.3979H4.13638C4.10326 7.39789 4.07053 7.3906 4.04054 7.37654C4.01054 7.36248 3.98401 7.34199 3.96282 7.31653C3.94163 7.29106 3.9263 7.26125 3.91792 7.2292C3.90955 7.19715 3.90832 7.16364 3.91434 7.13107Z" fill="#88ADFF"/>
</g>
<circle opacity="0.4" cx="8.5" cy="8" r="8" fill="#88ADFF"/>
<defs>
<clipPath id="clip0">
<rect width="9.33333" height="9.33333" fill="white" transform="translate(3.83331 3.33337)"/>
</clipPath>
</defs>
</svg>
