<svg width="16" height="14" viewBox="0 0 16 14" fill="none" xmlns="http://www.w3.org/2000/svg">
<path opacity="0.4" d="M13.5 2.75C13.6483 2.75 13.7933 2.70601 13.9167 2.6236C14.04 2.54119 14.1361 2.42406 14.1929 2.28701C14.2497 2.14997 14.2645 1.99917 14.2356 1.85368C14.2066 1.7082 14.1352 1.57456 14.0303 1.46967C13.9254 1.36478 13.7918 1.29335 13.6463 1.26441C13.5008 1.23547 13.35 1.25032 13.213 1.30709C13.0759 1.36386 12.9588 1.45999 12.8764 1.58332C12.794 1.70666 12.75 1.85166 12.75 2C12.75 2.19891 12.829 2.38968 12.9697 2.53033C13.1103 2.67098 13.3011 2.75 13.5 2.75ZM13.5 11.25C13.3517 11.25 13.2067 11.294 13.0833 11.3764C12.96 11.4588 12.8639 11.5759 12.8071 11.713C12.7503 11.85 12.7355 12.0008 12.7644 12.1463C12.7934 12.2918 12.8648 12.4254 12.9697 12.5303C13.0746 12.6352 13.2082 12.7066 13.3537 12.7356C13.4992 12.7645 13.65 12.7497 13.787 12.6929C13.9241 12.6361 14.0412 12.54 14.1236 12.4167C14.206 12.2933 14.25 12.1483 14.25 12C14.25 11.8011 14.171 11.6103 14.0303 11.4697C13.8897 11.329 13.6989 11.25 13.5 11.25ZM15 5H1C0.734784 5 0.48043 5.10536 0.292893 5.29289C0.105357 5.48043 0 5.73478 0 6L0 8C0 8.26522 0.105357 8.51957 0.292893 8.70711C0.48043 8.89464 0.734784 9 1 9H15C15.2652 9 15.5196 8.89464 15.7071 8.70711C15.8946 8.51957 16 8.26522 16 8V6C16 5.73478 15.8946 5.48043 15.7071 5.29289C15.5196 5.10536 15.2652 5 15 5ZM11.5 7.75C11.3517 7.75 11.2067 7.70601 11.0833 7.6236C10.96 7.54119 10.8639 7.42406 10.8071 7.28701C10.7503 7.14997 10.7355 6.99917 10.7644 6.85368C10.7934 6.7082 10.8648 6.57456 10.9697 6.46967C11.0746 6.36478 11.2082 6.29335 11.3537 6.26441C11.4992 6.23547 11.65 6.25033 11.787 6.30709C11.9241 6.36386 12.0412 6.45999 12.1236 6.58332C12.206 6.70666 12.25 6.85166 12.25 7C12.25 7.19891 12.171 7.38968 12.0303 7.53033C11.8897 7.67098 11.6989 7.75 11.5 7.75ZM13.5 7.75C13.3517 7.75 13.2067 7.70601 13.0833 7.6236C12.96 7.54119 12.8639 7.42406 12.8071 7.28701C12.7503 7.14997 12.7355 6.99917 12.7644 6.85368C12.7934 6.7082 12.8648 6.57456 12.9697 6.46967C13.0746 6.36478 13.2082 6.29335 13.3537 6.26441C13.4992 6.23547 13.65 6.25033 13.787 6.30709C13.9241 6.36386 14.0412 6.45999 14.1236 6.58332C14.206 6.70666 14.25 6.85166 14.25 7C14.25 7.19891 14.171 7.38968 14.0303 7.53033C13.8897 7.67098 13.6989 7.75 13.5 7.75Z" fill="#DC241F"/>
<path d="M14.25 7C14.25 6.85166 14.206 6.70666 14.1236 6.58332C14.0412 6.45999 13.9241 6.36386 13.787 6.30709C13.65 6.25032 13.4992 6.23547 13.3537 6.26441C13.2082 6.29335 13.0746 6.36478 12.9697 6.46967C12.8648 6.57456 12.7934 6.7082 12.7644 6.85368C12.7355 6.99917 12.7503 7.14997 12.8071 7.28701C12.8639 7.42406 12.96 7.54119 13.0833 7.6236C13.2067 7.70601 13.3517 7.75 13.5 7.75C13.6989 7.75 13.8897 7.67098 14.0303 7.53033C14.171 7.38968 14.25 7.19891 14.25 7ZM15 0H1C0.734784 0 0.48043 0.105357 0.292893 0.292893C0.105357 0.48043 0 0.734784 0 1L0 3C0 3.26522 0.105357 3.51957 0.292893 3.70711C0.48043 3.89464 0.734784 4 1 4H15C15.2652 4 15.5196 3.89464 15.7071 3.70711C15.8946 3.51957 16 3.26522 16 3V1C16 0.734784 15.8946 0.48043 15.7071 0.292893C15.5196 0.105357 15.2652 0 15 0ZM11.5 2.75C11.3517 2.75 11.2067 2.70601 11.0833 2.6236C10.96 2.54119 10.8639 2.42406 10.8071 2.28701C10.7503 2.14997 10.7355 1.99917 10.7644 1.85368C10.7934 1.7082 10.8648 1.57456 10.9697 1.46967C11.0746 1.36478 11.2082 1.29335 11.3537 1.26441C11.4992 1.23547 11.65 1.25032 11.787 1.30709C11.9241 1.36386 12.0412 1.45999 12.1236 1.58332C12.206 1.70666 12.25 1.85166 12.25 2C12.25 2.19891 12.171 2.38968 12.0303 2.53033C11.8897 2.67098 11.6989 2.75 11.5 2.75ZM13.5 2.75C13.3517 2.75 13.2067 2.70601 13.0833 2.6236C12.96 2.54119 12.8639 2.42406 12.8071 2.28701C12.7503 2.14997 12.7355 1.99917 12.7644 1.85368C12.7934 1.7082 12.8648 1.57456 12.9697 1.46967C13.0746 1.36478 13.2082 1.29335 13.3537 1.26441C13.4992 1.23547 13.65 1.25032 13.787 1.30709C13.9241 1.36386 14.0412 1.45999 14.1236 1.58332C14.206 1.70666 14.25 1.85166 14.25 2C14.25 2.19891 14.171 2.38968 14.0303 2.53033C13.8897 2.67098 13.6989 2.75 13.5 2.75ZM15 10H1C0.734784 10 0.48043 10.1054 0.292893 10.2929C0.105357 10.4804 0 10.7348 0 11L0 13C0 13.2652 0.105357 13.5196 0.292893 13.7071C0.48043 13.8946 0.734784 14 1 14H15C15.2652 14 15.5196 13.8946 15.7071 13.7071C15.8946 13.5196 16 13.2652 16 13V11C16 10.7348 15.8946 10.4804 15.7071 10.2929C15.5196 10.1054 15.2652 10 15 10ZM11.5 12.75C11.3517 12.75 11.2067 12.706 11.0833 12.6236C10.96 12.5412 10.8639 12.4241 10.8071 12.287C10.7503 12.15 10.7355 11.9992 10.7644 11.8537C10.7934 11.7082 10.8648 11.5746 10.9697 11.4697C11.0746 11.3648 11.2082 11.2934 11.3537 11.2644C11.4992 11.2355 11.65 11.2503 11.787 11.3071C11.9241 11.3639 12.0412 11.46 12.1236 11.5833C12.206 11.7067 12.25 11.8517 12.25 12C12.25 12.1989 12.171 12.3897 12.0303 12.5303C11.8897 12.671 11.6989 12.75 11.5 12.75ZM13.5 12.75C13.3517 12.75 13.2067 12.706 13.0833 12.6236C12.96 12.5412 12.8639 12.4241 12.8071 12.287C12.7503 12.15 12.7355 11.9992 12.7644 11.8537C12.7934 11.7082 12.8648 11.5746 12.9697 11.4697C13.0746 11.3648 13.2082 11.2934 13.3537 11.2644C13.4992 11.2355 13.65 11.2503 13.787 11.3071C13.9241 11.3639 14.0412 11.46 14.1236 11.5833C14.206 11.7067 14.25 11.8517 14.25 12C14.25 12.1989 14.171 12.3897 14.0303 12.5303C13.8897 12.671 13.6989 12.75 13.5 12.75Z" fill="#DC241F"/>
</svg>
