<svg width="30" height="30" viewBox="0 0 30 30" fill="none" xmlns="http://www.w3.org/2000/svg">
<rect width="30" height="30" rx="10" fill="#FFF5F4"/>
<path opacity="0.4" d="M8.16288 11C7.81589 11.7289 7.22863 12.3161 6.49976 12.6631V18.3369C7.22863 18.6839 7.81589 19.2711 8.16288 20H21.8366C22.1836 19.2711 22.7709 18.6839 23.4998 18.3369V12.6631C22.7709 12.3161 22.1836 11.7289 21.8366 11H8.16288ZM14.9998 19C13.3435 19 11.9998 17.4325 11.9998 15.5C11.9998 13.5675 13.3435 12 14.9998 12C16.656 12 17.9998 13.5669 17.9998 15.5C17.9998 17.4331 16.656 19 14.9998 19Z" fill="#DC241F"/>
<path d="M24.25 9.5H5.75C5.55109 9.5 5.36032 9.57902 5.21967 9.71967C5.07902 9.86032 5 10.0511 5 10.25V20.75C5 20.9489 5.07902 21.1397 5.21967 21.2803C5.36032 21.421 5.55109 21.5 5.75 21.5H24.25C24.4489 21.5 24.6397 21.421 24.7803 21.2803C24.921 21.1397 25 20.9489 25 20.75V10.25C25 10.0511 24.921 9.86032 24.7803 9.71967C24.6397 9.57902 24.4489 9.5 24.25 9.5ZM23.5 18.3369C22.7711 18.6839 22.1839 19.2711 21.8369 20H8.16313C7.81613 19.2711 7.22888 18.6839 6.5 18.3369V12.6631C7.22888 12.3161 7.81613 11.7289 8.16313 11H21.8369C22.1839 11.7289 22.7711 12.3161 23.5 12.6631V18.3369ZM16 16.5H15.5V13.75C15.5 13.6837 15.4737 13.6201 15.4268 13.5732C15.3799 13.5263 15.3163 13.5 15.25 13.5H14.8256C14.6777 13.4997 14.533 13.5432 14.4097 13.625L13.9306 13.9444C13.8756 13.9811 13.8374 14.0382 13.8243 14.1032C13.8113 14.1681 13.8246 14.2355 13.8612 14.2906L14.1388 14.7066C14.1755 14.7616 14.2326 14.7998 14.2975 14.8128C14.3624 14.8258 14.4299 14.8126 14.485 14.7759L14.4997 14.7663V16.5H14C13.9337 16.5 13.8701 16.5263 13.8232 16.5732C13.7763 16.6201 13.75 16.6837 13.75 16.75V17.25C13.75 17.3163 13.7763 17.3799 13.8232 17.4268C13.8701 17.4737 13.9337 17.5 14 17.5H16C16.0663 17.5 16.1299 17.4737 16.1768 17.4268C16.2237 17.3799 16.25 17.3163 16.25 17.25V16.75C16.25 16.6837 16.2237 16.6201 16.1768 16.5732C16.1299 16.5263 16.0663 16.5 16 16.5Z" fill="#DC241F"/>
</svg>
