<svg width="30" height="40" viewBox="0 0 30 40" fill="none" xmlns="http://www.w3.org/2000/svg">
<path opacity="0.4" d="M30 10H21.25C20.9185 10 20.6005 9.86831 20.3661 9.63389C20.1317 9.39947 20 9.08153 20 8.75001V5.88929e-06H1.87501C1.62939 -0.000610454 1.38606 0.0471565 1.15891 0.14058C0.931758 0.234003 0.725231 0.371252 0.551121 0.544491C0.377011 0.717731 0.238728 0.923568 0.144167 1.15025C0.0496068 1.37693 0.00062069 1.62002 5.88929e-06 1.86563V38.125C-0.000610454 38.3706 0.0471565 38.6139 0.14058 38.8411C0.234003 39.0683 0.371252 39.2748 0.544491 39.4489C0.717731 39.623 0.923568 39.7613 1.15025 39.8558C1.37693 39.9504 1.62002 39.9994 1.86563 40H28.125C28.3706 40.0006 28.6139 39.9529 28.8411 39.8594C29.0683 39.766 29.2748 39.6288 29.4489 39.4555C29.623 39.2823 29.7613 39.0764 29.8558 38.8498C29.9504 38.6231 29.9994 38.38 30 38.1344V10ZM5.00001 5.62501C5.00001 5.45925 5.06585 5.30027 5.18306 5.18306C5.30027 5.06585 5.45925 5.00001 5.62501 5.00001H11.875C12.0408 5.00001 12.1997 5.06585 12.3169 5.18306C12.4342 5.30027 12.5 5.45925 12.5 5.62501V6.87501C12.5 7.04077 12.4342 7.19974 12.3169 7.31695C12.1997 7.43416 12.0408 7.50001 11.875 7.50001H5.62501C5.45925 7.50001 5.30027 7.43416 5.18306 7.31695C5.06585 7.19974 5.00001 7.04077 5.00001 6.87501V5.62501ZM5.00001 11.875V10.625C5.00001 10.4592 5.06585 10.3003 5.18306 10.1831C5.30027 10.0659 5.45925 10 5.62501 10H11.875C12.0408 10 12.1997 10.0659 12.3169 10.1831C12.4342 10.3003 12.5 10.4592 12.5 10.625V11.875C12.5 12.0408 12.4342 12.1997 12.3169 12.3169C12.1997 12.4342 12.0408 12.5 11.875 12.5H5.62501C5.45925 12.5 5.30027 12.4342 5.18306 12.3169C5.06585 12.1997 5.00001 12.0408 5.00001 11.875ZM16.25 32.4906V34.375C16.25 34.5408 16.1842 34.6997 16.0669 34.8169C15.9497 34.9342 15.7908 35 15.625 35H14.375C14.2092 35 14.0503 34.9342 13.9331 34.8169C13.8159 34.6997 13.75 34.5408 13.75 34.375V32.4773C12.8632 32.4313 12.0102 32.1226 11.2992 31.5906C11.228 31.5352 11.1697 31.4651 11.1281 31.385C11.0866 31.3049 11.0629 31.2168 11.0587 31.1267C11.0545 31.0365 11.0698 30.9466 11.1036 30.863C11.1375 30.7793 11.189 30.704 11.2547 30.6422L12.1727 29.7656C12.2791 29.6688 12.415 29.6106 12.5585 29.6003C12.702 29.5899 12.8448 29.6281 12.9641 29.7086C13.2637 29.8983 13.611 29.9993 13.9656 30H16.1617C16.6695 30 17.0836 29.5375 17.0836 28.9695C17.0836 28.5047 16.8016 28.0953 16.3984 27.975L12.8828 26.9203C11.4305 26.4844 10.4156 25.0906 10.4156 23.5305C10.4156 21.6148 11.9039 20.0586 13.7492 20.0094V18.125C13.7492 17.9592 13.8151 17.8003 13.9323 17.6831C14.0495 17.5659 14.2085 17.5 14.3742 17.5H15.6242C15.79 17.5 15.949 17.5659 16.0662 17.6831C16.1834 17.8003 16.2492 17.9592 16.2492 18.125V20.0227C17.1361 20.068 17.9894 20.3767 18.7 20.9094C18.7712 20.9648 18.8296 21.0349 18.8711 21.115C18.9126 21.1951 18.9363 21.2832 18.9405 21.3734C18.9448 21.4635 18.9294 21.5534 18.8956 21.6371C18.8618 21.7207 18.8102 21.796 18.7445 21.8578L17.8266 22.7344C17.7201 22.8312 17.5842 22.8894 17.4407 22.8997C17.2972 22.9101 17.1544 22.8719 17.0352 22.7914C16.7356 22.6015 16.3883 22.5005 16.0336 22.5H13.8375C13.3297 22.5 12.9156 22.9625 12.9156 23.5305C12.9156 23.9953 13.1977 24.4047 13.6008 24.525L17.1164 25.5797C18.5688 26.0156 19.5836 27.4094 19.5836 28.9695C19.5836 30.8859 18.0992 32.4414 16.25 32.4906Z" fill="white"/>
<path d="M29.4532 8.20313L21.8048 0.546881C21.6302 0.372912 21.423 0.235067 21.1952 0.141229C20.9673 0.0473906 20.7231 -0.000598726 20.4767 5.63805e-06H20.0001V8.75001C20.0001 9.08153 20.1318 9.39947 20.3662 9.63389C20.6006 9.86831 20.9186 10 21.2501 10H30.0001V9.52344C30.0001 9.27824 29.9518 9.03544 29.858 8.8089C29.7641 8.58236 29.6266 8.37652 29.4532 8.20313ZM17.1165 25.5797L13.6009 24.525C13.1978 24.4047 12.9157 23.9953 12.9157 23.5305C12.9157 22.9625 13.3298 22.5 13.8376 22.5H16.0337C16.3884 22.5005 16.7357 22.6015 17.0352 22.7914C17.1545 22.8719 17.2973 22.9101 17.4408 22.8997C17.5843 22.8894 17.7202 22.8312 17.8267 22.7344L18.7454 21.8578C18.8111 21.796 18.8626 21.7207 18.8965 21.6371C18.9303 21.5534 18.9456 21.4635 18.9414 21.3734C18.9372 21.2832 18.9135 21.1951 18.872 21.115C18.8304 21.0349 18.7721 20.9648 18.7009 20.9094C17.9903 20.3767 17.137 20.068 16.2501 20.0227V18.125C16.2501 17.9592 16.1842 17.8003 16.067 17.6831C15.9498 17.5659 15.7909 17.5 15.6251 17.5H14.3751C14.2093 17.5 14.0504 17.5659 13.9332 17.6831C13.8159 17.8003 13.7501 17.9592 13.7501 18.125V20.0094C11.9048 20.0586 10.4165 21.6149 10.4165 23.5305C10.4165 25.093 11.4321 26.4844 12.8837 26.9203L16.3993 27.975C16.8024 28.0953 17.0845 28.5047 17.0845 28.9695C17.0845 29.5375 16.6704 30 16.1626 30H13.9657C13.6111 29.9993 13.2638 29.8983 12.9642 29.7086C12.8449 29.6281 12.7021 29.5899 12.5586 29.6003C12.4151 29.6106 12.2792 29.6688 12.1728 29.7656L11.2548 30.6422C11.1891 30.704 11.1376 30.7793 11.1037 30.863C11.0699 30.9466 11.0546 31.0365 11.0588 31.1267C11.063 31.2168 11.0867 31.3049 11.1282 31.385C11.1698 31.4651 11.2281 31.5352 11.2993 31.5906C12.0103 32.1227 12.8633 32.4313 13.7501 32.4774V34.375C13.7501 34.5408 13.8159 34.6997 13.9332 34.817C14.0504 34.9342 14.2093 35 14.3751 35H15.6251C15.7909 35 15.9498 34.9342 16.067 34.817C16.1842 34.6997 16.2501 34.5408 16.2501 34.375V32.4906C18.0993 32.4414 19.5837 30.8859 19.5837 28.9695C19.5837 27.4094 18.5688 26.0156 17.1165 25.5797Z" fill="white"/>
</svg>
