<svg width="40" height="32" viewBox="0 0 40 32" fill="none" xmlns="http://www.w3.org/2000/svg">
<path opacity="0.4" d="M20 0.22229C8.95419 0.22229 1.79268e-05 9.17646 1.79268e-05 20.2223C-0.00472444 23.7555 0.931522 27.2263 2.71252 30.2778C3.1021 30.9459 3.84446 31.3334 4.61807 31.3334H35.382C36.1556 31.3334 36.8979 30.9459 37.2875 30.2778C39.0685 27.2263 40.0048 23.7555 40 20.2223C40 9.17646 31.0459 0.22229 20 0.22229ZM20 4.66673C20.4395 4.66673 20.8692 4.79707 21.2346 5.04125C21.6001 5.28543 21.8849 5.63249 22.0531 6.03855C22.2213 6.44461 22.2653 6.89142 22.1795 7.32249C22.0938 7.75356 21.8822 8.14952 21.5714 8.4603C21.2606 8.77109 20.8646 8.98273 20.4336 9.06848C20.0025 9.15422 19.5557 9.11022 19.1496 8.94202C18.7436 8.77383 18.3965 8.489 18.1523 8.12356C17.9081 7.75811 17.7778 7.32847 17.7778 6.88896C17.7778 6.29959 18.0119 5.73436 18.4287 5.31761C18.8454 4.90086 19.4106 4.66673 20 4.66673V4.66673ZM6.66669 24.6667C6.22717 24.6667 5.79753 24.5364 5.43209 24.2922C5.06664 24.048 4.78181 23.701 4.61362 23.2949C4.44542 22.8889 4.40142 22.442 4.48716 22.011C4.57291 21.5799 4.78455 21.1839 5.09534 20.8732C5.40612 20.5624 5.80208 20.3507 6.23315 20.265C6.66422 20.1792 7.11104 20.2233 7.51709 20.3914C7.92315 20.5596 8.27022 20.8445 8.5144 21.2099C8.75858 21.5754 8.88891 22.005 8.88891 22.4445C8.88891 23.0339 8.65478 23.5991 8.23803 24.0159C7.82129 24.4326 7.25606 24.6667 6.66669 24.6667ZM10 13.5556C9.56051 13.5556 9.13086 13.4253 8.76542 13.1811C8.39998 12.9369 8.11515 12.5899 7.94695 12.1838C7.77876 11.7777 7.73475 11.3309 7.8205 10.8999C7.90624 10.4688 8.11789 10.0728 8.42867 9.76205C8.73945 9.45127 9.13542 9.23962 9.56649 9.15388C9.99755 9.06813 10.4444 9.11214 10.8504 9.28033C11.2565 9.44853 11.6035 9.73336 11.8477 10.0988C12.0919 10.4642 12.2222 10.8939 12.2222 11.3334C12.2222 11.9228 11.9881 12.488 11.5714 12.9047C11.1546 13.3215 10.5894 13.5556 10 13.5556ZM23.8278 26.889H16.1722C15.7727 26.2163 15.5598 25.4491 15.5556 24.6667C15.5556 23.488 16.0238 22.3575 16.8573 21.524C17.6908 20.6905 18.8213 20.2223 20 20.2223C20.3814 20.2272 20.7605 20.2818 21.1278 20.3848L28.6667 10.3327C28.7981 10.1576 28.9626 10.01 29.151 9.89848C29.3394 9.78694 29.5479 9.7136 29.7647 9.68265C29.9814 9.65169 30.2021 9.66373 30.4142 9.71808C30.6263 9.77242 30.8256 9.868 31.0007 9.99937C31.1759 10.1307 31.3234 10.2953 31.4349 10.4837C31.5465 10.6721 31.6198 10.8806 31.6508 11.0974C31.6817 11.3141 31.6697 11.5348 31.6153 11.7469C31.561 11.959 31.4654 12.1583 31.334 12.3334L23.7952 22.3848C24.214 23.0601 24.4386 23.8377 24.4443 24.6323C24.4501 25.4269 24.2368 26.2077 23.8278 26.889ZM33.3334 24.6667C32.8938 24.6667 32.4642 24.5364 32.0988 24.2922C31.7333 24.048 31.4485 23.701 31.2803 23.2949C31.1121 22.8889 31.0681 22.442 31.1538 22.011C31.2396 21.5799 31.4512 21.1839 31.762 20.8732C32.0728 20.5624 32.4688 20.3507 32.8998 20.265C33.3309 20.1792 33.7777 20.2233 34.1838 20.3914C34.5898 20.5596 34.9369 20.8445 35.1811 21.2099C35.4252 21.5754 35.5556 22.005 35.5556 22.4445C35.5556 23.0339 35.3215 23.5991 34.9047 24.0159C34.488 24.4326 33.9227 24.6667 33.3334 24.6667Z" fill="white"/>
<path d="M20.0003 20.2222C20.3817 20.2271 20.7608 20.2817 21.1281 20.3847L28.667 10.3327C28.7983 10.1575 28.9629 10.01 29.1513 9.89843C29.3397 9.78689 29.5482 9.71355 29.7649 9.6826C29.9817 9.65165 30.2024 9.66369 30.4145 9.71803C30.6265 9.77237 30.8258 9.86796 31.001 9.99932C31.1761 10.1307 31.3237 10.2953 31.4352 10.4837C31.5468 10.6721 31.6201 10.8806 31.651 11.0973C31.682 11.314 31.67 11.5347 31.6156 11.7468C31.5613 11.9589 31.4657 12.1582 31.3343 12.3333L23.7954 22.3847C24.2142 23.06 24.4389 23.8376 24.4446 24.6322C24.4504 25.4268 24.237 26.2076 23.8281 26.8889H16.1725C15.7729 26.2162 15.56 25.4491 15.5558 24.6667C15.5558 23.4879 16.0241 22.3575 16.8576 21.524C17.6911 20.6905 18.8215 20.2222 20.0003 20.2222V20.2222Z" fill="white"/>
</svg>
