<svg width="40" height="32" viewBox="0 0 40 32" fill="none" xmlns="http://www.w3.org/2000/svg">
<path opacity="0.4" d="M33.9998 28.9999V30.9999C33.9998 31.2651 33.8945 31.5195 33.7069 31.707C33.5194 31.8945 33.265 31.9999 32.9998 31.9999H6.99999C6.73478 31.9999 6.48043 31.8945 6.29289 31.707C6.10536 31.5195 6 31.2651 6 30.9999V28.9999C6 28.7347 6.10536 28.4803 6.29289 28.2928C6.48043 28.1053 6.73478 27.9999 6.99999 27.9999H17.9999V9.57815C17.2654 9.25752 16.6187 8.76515 16.1141 8.14248C15.6096 7.51981 15.262 6.78506 15.1006 6.00005H6.99999C6.73478 6.00005 6.48043 5.89469 6.29289 5.70716C6.10536 5.51962 6 5.26527 6 5.00005V3.00007C6 2.73485 6.10536 2.4805 6.29289 2.29296C6.48043 2.10543 6.73478 2.00007 6.99999 2.00007H16.0224C16.4834 1.37953 17.0832 0.875459 17.7739 0.528168C18.4645 0.180877 19.2269 0 19.9999 0C20.773 0 21.5353 0.180877 22.2259 0.528168C22.9166 0.875459 23.5164 1.37953 23.9774 2.00007H32.9998C33.265 2.00007 33.5194 2.10543 33.7069 2.29296C33.8945 2.4805 33.9998 2.73485 33.9998 3.00007V5.00005C33.9998 5.26527 33.8945 5.51962 33.7069 5.70716C33.5194 5.89469 33.265 6.00005 32.9998 6.00005H24.8993C24.7378 6.78506 24.3902 7.51981 23.8857 8.14248C23.3811 8.76515 22.7344 9.25752 21.9999 9.57815V27.9999H32.9998C33.265 27.9999 33.5194 28.1053 33.7069 28.2928C33.8945 28.4803 33.9998 28.7347 33.9998 28.9999Z" fill="white"/>
<path d="M16.0001 21.0011C16.0001 19.9899 16.0839 20.4555 10.6877 9.65683C9.58456 7.45121 6.42583 7.44684 5.32084 9.65683C-0.128487 20.548 0.000262123 20.0218 0.000262123 21.0011C0.000262123 23.7624 3.58211 26.0011 8.00019 26.0011C12.4183 26.0011 16.0001 23.7624 16.0001 21.0011ZM8.00019 11.0012L12.5002 20.0011H3.50023L8.00019 11.0012ZM39.9999 21.0011C39.9999 19.9899 40.0837 20.4555 34.6843 9.65683C33.5812 7.45121 30.4225 7.44684 29.3175 9.65683C23.8713 20.548 24.0001 20.0218 24.0001 21.0011C24.0001 23.7624 27.5819 26.0011 32 26.0011C36.4181 26.0011 39.9999 23.7624 39.9999 21.0011ZM27.5 20.0011L32 11.0012L36.5 20.0011H27.5Z" fill="white"/>
</svg>
