<svg width="40" height="40" viewBox="0 0 40 40" fill="none" xmlns="http://www.w3.org/2000/svg">
<path opacity="0.4" d="M38 6.66699H2C1.46957 6.66699 0.960859 6.87771 0.585786 7.25278C0.210714 7.62785 0 8.13656 0 8.66699L0 32.667C0 33.1974 0.210714 33.7061 0.585786 34.0812C0.960859 34.4563 1.46957 34.667 2 34.667H38C38.5304 34.667 39.0391 34.4563 39.4142 34.0812C39.7893 33.7061 40 33.1974 40 32.667V8.66699C40 8.13656 39.7893 7.62785 39.4142 7.25278C39.0391 6.87771 38.5304 6.66699 38 6.66699ZM11 25.1595V26.167C11 26.2996 10.9473 26.4268 10.8536 26.5205C10.7598 26.6143 10.6326 26.667 10.5 26.667H9.5C9.36739 26.667 9.24021 26.6143 9.14645 26.5205C9.05268 26.4268 9 26.2996 9 26.167V25.1489C8.29054 25.1122 7.60802 24.8653 7.03937 24.4395C6.98241 24.3952 6.93572 24.3391 6.90251 24.275C6.86929 24.2109 6.85034 24.1404 6.84696 24.0683C6.84357 23.9962 6.85583 23.9243 6.8829 23.8574C6.90997 23.7904 6.95119 23.7302 7.00375 23.6807L7.73812 22.9795C7.82324 22.902 7.93195 22.8553 8.04679 22.847C8.16162 22.8388 8.2759 22.8693 8.37125 22.9339C8.61102 23.0855 8.88878 23.1664 9.1725 23.167H10.9294C11.3356 23.167 11.6669 22.797 11.6669 22.3426C11.6669 21.9707 11.4412 21.6432 11.1187 21.547L8.30625 20.7032C7.14437 20.3545 6.3325 19.2395 6.3325 17.9914C6.3325 16.4589 7.52313 15.2139 8.99938 15.1745V14.167C8.99938 14.0344 9.05205 13.9072 9.14582 13.8134C9.23959 13.7197 9.36677 13.667 9.49938 13.667H10.4994C10.632 13.667 10.7592 13.7197 10.8529 13.8134C10.9467 13.9072 10.9994 14.0344 10.9994 14.167V15.1851C11.7089 15.2214 12.3915 15.4684 12.96 15.8945C13.017 15.9388 13.0637 15.9949 13.0969 16.059C13.1301 16.1231 13.149 16.1936 13.1524 16.2657C13.1558 16.3378 13.1435 16.4097 13.1165 16.4766C13.0894 16.5435 13.0482 16.6038 12.9956 16.6532L12.2612 17.3545C12.1761 17.432 12.0674 17.4787 11.9526 17.487C11.8378 17.4952 11.7235 17.4646 11.6281 17.4001C11.3885 17.2482 11.1106 17.1673 10.8269 17.167H9.07C8.66375 17.167 8.3325 17.537 8.3325 17.9914C8.3325 18.3632 8.55812 18.6907 8.88062 18.787L11.6931 19.6307C12.855 19.9795 13.6669 21.0945 13.6669 22.3426C13.6669 23.8757 12.4762 25.1201 11 25.1595ZM26 24.167C26 24.2996 25.9473 24.4268 25.8536 24.5205C25.7598 24.6143 25.6326 24.667 25.5 24.667H18.5C18.3674 24.667 18.2402 24.6143 18.1464 24.5205C18.0527 24.4268 18 24.2996 18 24.167V23.167C18 23.0344 18.0527 22.9072 18.1464 22.8134C18.2402 22.7197 18.3674 22.667 18.5 22.667H25.5C25.6326 22.667 25.7598 22.7197 25.8536 22.8134C25.9473 22.9072 26 23.0344 26 23.167V24.167ZM36 24.167C36 24.2996 35.9473 24.4268 35.8536 24.5205C35.7598 24.6143 35.6326 24.667 35.5 24.667H30.5C30.3674 24.667 30.2402 24.6143 30.1464 24.5205C30.0527 24.4268 30 24.2996 30 24.167V23.167C30 23.0344 30.0527 22.9072 30.1464 22.8134C30.2402 22.7197 30.3674 22.667 30.5 22.667H35.5C35.6326 22.667 35.7598 22.7197 35.8536 22.8134C35.9473 22.9072 36 23.0344 36 23.167V24.167ZM36 18.167C36 18.2996 35.9473 18.4268 35.8536 18.5205C35.7598 18.6143 35.6326 18.667 35.5 18.667H18.5C18.3674 18.667 18.2402 18.6143 18.1464 18.5205C18.0527 18.4268 18 18.2996 18 18.167V17.167C18 17.0344 18.0527 16.9072 18.1464 16.8134C18.2402 16.7197 18.3674 16.667 18.5 16.667H35.5C35.6326 16.667 35.7598 16.7197 35.8536 16.8134C35.9473 16.9072 36 17.0344 36 17.167V18.167Z" fill="white"/>
<path d="M9.00051 15.1745V14.167C9.00051 14.0344 9.05319 13.9072 9.14696 13.8134C9.24073 13.7197 9.3679 13.667 9.50051 13.667H10.5005C10.6331 13.667 10.7603 13.7197 10.8541 13.8134C10.9478 13.9072 11.0005 14.0344 11.0005 14.167V15.1851C11.71 15.2214 12.3926 15.4684 12.9611 15.8945C13.0181 15.9388 13.0648 15.9949 13.098 16.059C13.1312 16.1231 13.1502 16.1936 13.1536 16.2657C13.1569 16.3378 13.1447 16.4097 13.1176 16.4766C13.0906 16.5435 13.0493 16.6038 12.9968 16.6532L12.2618 17.3545C12.1767 17.432 12.0679 17.4787 11.9531 17.487C11.8383 17.4952 11.724 17.4646 11.6286 17.4001C11.389 17.2482 11.1111 17.1674 10.8274 17.167H9.07051C8.66426 17.167 8.33301 17.537 8.33301 17.9914C8.33301 18.3632 8.55864 18.6907 8.88114 18.787L11.6936 19.6307C12.8555 19.9795 13.6674 21.0945 13.6674 22.3426C13.6674 23.8757 12.4799 25.1201 11.0005 25.1595V26.167C11.0005 26.2996 10.9478 26.4268 10.8541 26.5205C10.7603 26.6143 10.6331 26.667 10.5005 26.667H9.50051C9.3679 26.667 9.24073 26.6143 9.14696 26.5205C9.05319 26.4268 9.00051 26.2996 9.00051 26.167V25.1489C8.29105 25.1123 7.60853 24.8653 7.03988 24.4395C6.98292 24.3952 6.93623 24.3391 6.90302 24.275C6.8698 24.2109 6.85085 24.1404 6.84747 24.0683C6.84408 23.9962 6.85634 23.9243 6.88341 23.8574C6.91047 23.7905 6.9517 23.7302 7.00426 23.6807L7.73863 22.9795C7.82375 22.902 7.93246 22.8553 8.0473 22.847C8.16213 22.8388 8.27641 22.8693 8.37176 22.9339C8.61153 23.0855 8.88929 23.1664 9.17301 23.167H10.9299C11.3361 23.167 11.6674 22.797 11.6674 22.3426C11.6674 21.9707 11.4418 21.6432 11.1193 21.547L8.30676 20.7032C7.14488 20.3545 6.33301 19.2395 6.33301 17.9914C6.33301 16.4589 7.52363 15.2139 9.00051 15.1745Z" fill="white"/>
</svg>
