<svg width="14" height="15" viewBox="0 0 14 15" fill="none" xmlns="http://www.w3.org/2000/svg">
<g clip-path="url(#clip0)">
<path d="M12.5065 6.94587L7.14568 12.3067C6.48893 12.9634 5.5982 13.3324 4.66943 13.3324C3.74065 13.3324 2.84992 12.9634 2.19318 12.3067C1.53643 11.65 1.16748 10.7592 1.16748 9.83045C1.16748 8.90168 1.53643 8.01094 2.19318 7.3542L7.55401 1.99337C7.99184 1.55554 8.58566 1.30957 9.20484 1.30957C9.82403 1.30957 10.4178 1.55554 10.8557 1.99337C11.2935 2.4312 11.5395 3.02502 11.5395 3.6442C11.5395 4.26338 11.2935 4.85721 10.8557 5.29504L5.48901 10.6559C5.2701 10.8748 4.97318 10.9978 4.66359 10.9978C4.354 10.9978 4.05709 10.8748 3.83818 10.6559C3.61926 10.437 3.49628 10.14 3.49628 9.83045C3.49628 9.52086 3.61926 9.22395 3.83818 9.00504L8.79068 4.05837" stroke="#DC241F" stroke-linecap="round" stroke-linejoin="round"/>
</g>
<defs>
<clipPath id="clip0">
<rect width="14" height="14" fill="white" transform="translate(0 0.5)"/>
</clipPath>
</defs>
</svg>
