<svg width="16" height="16" viewBox="0 0 16 16" fill="none" xmlns="http://www.w3.org/2000/svg">
<g clip-path="url(#clip0)">
<path opacity="0.4" d="M13.9999 4H10.4999C10.3673 4 10.2401 3.94732 10.1464 3.85356C10.0526 3.75979 9.99992 3.63261 9.99992 3.5V2.35571e-06H2.74993C2.65168 -0.000244182 2.55435 0.0188626 2.46349 0.0562318C2.37263 0.093601 2.29001 0.148501 2.22037 0.217797C2.15073 0.287092 2.09541 0.369427 2.05759 0.4601C2.01977 0.550772 2.00017 0.648007 1.99993 0.746252V15.25C1.99968 15.3482 2.01879 15.4456 2.05615 15.5364C2.09352 15.6273 2.14842 15.7099 2.21772 15.7796C2.28702 15.8492 2.36935 15.9045 2.46002 15.9423C2.5507 15.9802 2.64793 15.9998 2.74618 16H13.2499C13.3482 16.0002 13.4455 15.9811 13.5364 15.9438C13.6272 15.9064 13.7098 15.8515 13.7795 15.7822C13.8491 15.7129 13.9044 15.6306 13.9423 15.5399C13.9801 15.4492 13.9997 15.352 13.9999 15.2538V4ZM3.99992 2.25C3.99992 2.1837 4.02626 2.12011 4.07315 2.07323C4.12003 2.02634 4.18362 2 4.24992 2H6.74992C6.81623 2 6.87982 2.02634 6.9267 2.07323C6.97359 2.12011 6.99992 2.1837 6.99992 2.25V2.75C6.99992 2.81631 6.97359 2.87989 6.9267 2.92678C6.87982 2.97366 6.81623 3 6.74992 3H4.24992C4.18362 3 4.12003 2.97366 4.07315 2.92678C4.02626 2.87989 3.99992 2.81631 3.99992 2.75V2.25ZM3.99992 4.75V4.25C3.99992 4.1837 4.02626 4.12011 4.07315 4.07323C4.12003 4.02634 4.18362 4 4.24992 4H6.74992C6.81623 4 6.87982 4.02634 6.9267 4.07323C6.97359 4.12011 6.99992 4.1837 6.99992 4.25V4.75C6.99992 4.81631 6.97359 4.8799 6.9267 4.92678C6.87982 4.97366 6.81623 5 6.74992 5H4.24992C4.18362 5 4.12003 4.97366 4.07315 4.92678C4.02626 4.8799 3.99992 4.81631 3.99992 4.75ZM8.49992 12.9963V13.75C8.49992 13.8163 8.47359 13.8799 8.4267 13.9268C8.37982 13.9737 8.31623 14 8.24992 14H7.74992C7.68362 14 7.62003 13.9737 7.57315 13.9268C7.52626 13.8799 7.49992 13.8163 7.49992 13.75V12.9909C7.14522 12.9725 6.80399 12.8491 6.51961 12.6363C6.49113 12.6141 6.46779 12.586 6.45118 12.554C6.43457 12.522 6.4251 12.4867 6.4234 12.4507C6.42171 12.4146 6.42784 12.3786 6.44137 12.3452C6.45491 12.3117 6.47552 12.2816 6.5018 12.2569L6.86899 11.9063C6.91157 11.8675 6.96592 11.8442 7.02332 11.8401C7.08073 11.836 7.13786 11.8512 7.18555 11.8834C7.30542 11.9593 7.44431 11.9997 7.58617 12H8.46461C8.66774 12 8.83336 11.815 8.83336 11.5878C8.83336 11.4019 8.72055 11.2381 8.5593 11.19L7.15305 10.7681C6.57211 10.5938 6.16617 10.0363 6.16617 9.41219C6.16617 8.64594 6.76149 8.02344 7.49961 8.00375V7.25C7.49961 7.1837 7.52595 7.12011 7.57284 7.07323C7.61972 7.02634 7.68331 7 7.74961 7H8.24961C8.31592 7 8.3795 7.02634 8.42639 7.07323C8.47327 7.12011 8.49961 7.1837 8.49961 7.25V8.00906C8.85438 8.0272 9.19568 8.15069 9.47992 8.36375C9.5084 8.38591 9.53175 8.41397 9.54836 8.44601C9.56497 8.47804 9.57444 8.5133 9.57613 8.54934C9.57783 8.58539 9.57169 8.62137 9.55816 8.65482C9.54463 8.68827 9.52402 8.7184 9.49774 8.74313L9.13055 9.09375C9.08797 9.13247 9.03362 9.15576 8.97621 9.1599C8.91881 9.16403 8.86168 9.14877 8.81399 9.11656C8.69416 9.0406 8.55524 9.00018 8.41336 9H7.53492C7.3318 9 7.16617 9.185 7.16617 9.41219C7.16617 9.59813 7.27899 9.76188 7.44024 9.81L8.84649 10.2319C9.42742 10.4063 9.83336 10.9638 9.83336 11.5878C9.83336 12.3544 9.23961 12.9766 8.49992 12.9963Z" fill="#BCC8E7"/>
<path d="M13.7811 3.28125L10.7217 0.218752C10.6519 0.149165 10.5691 0.0940266 10.4779 0.0564914C10.3867 0.0189562 10.2891 -0.00023949 10.1905 2.25522e-06H9.99987V3.5C9.99987 3.63261 10.0525 3.75979 10.1463 3.85356C10.2401 3.94732 10.3673 4 10.4999 4H13.9999V3.80938C13.9999 3.7113 13.9805 3.61417 13.943 3.52356C13.9055 3.43294 13.8505 3.35061 13.7811 3.28125ZM8.84643 10.2319L7.44019 9.81C7.27894 9.76188 7.16612 9.59813 7.16612 9.41219C7.16612 9.185 7.33175 9 7.53487 9H8.41331C8.55519 9.00018 8.69411 9.0406 8.81393 9.11657C8.86163 9.14878 8.91876 9.16403 8.97616 9.1599C9.03356 9.15576 9.08791 9.13247 9.1305 9.09375L9.498 8.74313C9.52427 8.7184 9.54489 8.68827 9.55842 8.65482C9.57195 8.62137 9.57808 8.58539 9.57639 8.54934C9.5747 8.5133 9.56522 8.47804 9.54862 8.44601C9.53201 8.41397 9.50866 8.38591 9.48018 8.36375C9.19594 8.15069 8.85464 8.02721 8.49987 8.00907V7.25C8.49987 7.1837 8.47353 7.12011 8.42665 7.07323C8.37976 7.02634 8.31618 7 8.24987 7H7.74987C7.68357 7 7.61998 7.02634 7.5731 7.07323C7.52621 7.12011 7.49987 7.1837 7.49987 7.25V8.00375C6.76175 8.02344 6.16644 8.64594 6.16644 9.41219C6.16644 10.0372 6.57269 10.5938 7.15331 10.7681L8.55956 11.19C8.72081 11.2381 8.83362 11.4019 8.83362 11.5878C8.83362 11.815 8.668 12 8.46487 12H7.58612C7.44426 11.9997 7.30537 11.9593 7.1855 11.8834C7.1378 11.8512 7.08068 11.836 7.02327 11.8401C6.96587 11.8442 6.91152 11.8675 6.86894 11.9063L6.50175 12.2569C6.47547 12.2816 6.45486 12.3117 6.44132 12.3452C6.42779 12.3786 6.42166 12.4146 6.42335 12.4507C6.42505 12.4867 6.43452 12.522 6.45113 12.554C6.46774 12.586 6.49108 12.6141 6.51956 12.6363C6.80394 12.8491 7.14516 12.9725 7.49987 12.9909V13.75C7.49987 13.8163 7.52621 13.8799 7.5731 13.9268C7.61998 13.9737 7.68357 14 7.74987 14H8.24987C8.31618 14 8.37976 13.9737 8.42665 13.9268C8.47353 13.8799 8.49987 13.8163 8.49987 13.75V12.9963C9.23956 12.9766 9.83331 12.3544 9.83331 11.5878C9.83331 10.9638 9.42737 10.4063 8.84643 10.2319Z" fill="#BCC8E7"/>
</g>
<defs>
<clipPath id="clip0">
<rect width="16" height="16" fill="white"/>
</clipPath>
</defs>
</svg>
