<svg width="16" height="16" viewBox="0 0 16 16" fill="none" xmlns="http://www.w3.org/2000/svg">
<path opacity="0.4" d="M8 0C3.58065 0 0 3.58323 0 8C0 12.4168 3.58065 16 8 16C12.4194 16 16 12.4194 16 8C16 3.58065 12.4194 0 8 0ZM8 12.129C7.79584 12.129 7.59626 12.0685 7.42651 11.9551C7.25675 11.8416 7.12445 11.6804 7.04632 11.4918C6.96819 11.3032 6.94775 11.0956 6.98758 10.8954C7.02741 10.6952 7.12572 10.5112 7.27008 10.3669C7.41445 10.2225 7.59838 10.1242 7.79862 10.0844C7.99885 10.0445 8.20641 10.065 8.39503 10.1431C8.58365 10.2212 8.74486 10.3535 8.85829 10.5233C8.97172 10.693 9.03226 10.8926 9.03226 11.0968C9.03226 11.3705 8.9235 11.6331 8.72992 11.8267C8.53633 12.0203 8.27377 12.129 8 12.129ZM9.23355 4.43839L8.82065 8.56742C8.80793 8.69479 8.74833 8.81288 8.65343 8.89878C8.55853 8.98468 8.4351 9.03225 8.3071 9.03226H7.69419C7.56619 9.03225 7.44276 8.98468 7.34786 8.89878C7.25296 8.81288 7.19337 8.69479 7.18064 8.56742L6.76774 4.43839C6.76059 4.36675 6.7685 4.29441 6.79097 4.22601C6.81344 4.15761 6.84997 4.09467 6.89821 4.04123C6.94646 3.9878 7.00534 3.94504 7.0711 3.91572C7.13685 3.88639 7.20801 3.87115 7.28 3.87097H8.72C8.7921 3.87097 8.8634 3.88608 8.92931 3.91533C8.99521 3.94457 9.05426 3.9873 9.10264 4.04076C9.15103 4.09421 9.18767 4.15722 9.21022 4.2257C9.23277 4.29419 9.24071 4.36664 9.23355 4.43839Z" fill="#DC241F"/>
<path d="M8.72026 3.87109H7.28026C7.20816 3.8711 7.13686 3.88621 7.07095 3.91545C7.00505 3.9447 6.946 3.98742 6.89762 4.04088C6.84924 4.09434 6.81259 4.15734 6.79004 4.22583C6.7675 4.29432 6.75955 4.36677 6.76672 4.43851L7.17962 8.56754C7.19234 8.69491 7.25193 8.81301 7.34683 8.89891C7.44173 8.98481 7.56516 9.03238 7.69317 9.03238H8.30607C8.43407 9.03238 8.5575 8.98481 8.6524 8.89891C8.7473 8.81301 8.8069 8.69491 8.81962 8.56754L9.23252 4.43851C9.23968 4.36688 9.23176 4.29453 9.20929 4.22614C9.18683 4.15774 9.1503 4.0948 9.10205 4.04136C9.05381 3.98792 8.99492 3.94517 8.92917 3.91584C8.86342 3.88652 8.79226 3.87128 8.72026 3.87109ZM8.00026 10.0646C7.7961 10.0646 7.59653 10.1252 7.42677 10.2386C7.25702 10.352 7.12471 10.5133 7.04658 10.7019C6.96845 10.8905 6.94801 11.098 6.98784 11.2983C7.02767 11.4985 7.12598 11.6825 7.27035 11.8268C7.41471 11.9712 7.59864 12.0695 7.79888 12.1093C7.99912 12.1492 8.20667 12.1287 8.39529 12.0506C8.58391 11.9725 8.74513 11.8401 8.85855 11.6704C8.97198 11.5006 9.03252 11.3011 9.03252 11.0969C9.03252 10.8231 8.92377 10.5606 8.73018 10.367C8.53659 10.1734 8.27404 10.0646 8.00026 10.0646Z" fill="#DC241F"/>
</svg>
