<svg width="32" height="32" viewBox="0 0 32 32" fill="none" xmlns="http://www.w3.org/2000/svg">
<path opacity="0.4" d="M16 0C7.16129 0 0 7.16129 0 16C0 24.8387 7.16129 32 16 32C24.8387 32 32 24.8387 32 16C32 7.16129 24.8387 0 16 0ZM26.02 12.6006L14.149 24.4716C13.9555 24.6651 13.693 24.7737 13.4194 24.7737C13.1457 24.7737 12.8832 24.6651 12.6897 24.4716L5.98 17.7619C5.78656 17.5684 5.6779 17.3059 5.6779 17.0323C5.6779 16.7586 5.78656 16.4961 5.98 16.3026L7.43935 14.8426C7.53521 14.7467 7.64902 14.6706 7.77427 14.6188C7.89953 14.5669 8.03378 14.5402 8.16935 14.5402C8.30493 14.5402 8.43918 14.5669 8.56444 14.6188C8.68969 14.6706 8.8035 14.7467 8.89935 14.8426L13.4194 19.3626L23.1006 9.68129C23.1965 9.58541 23.3103 9.50935 23.4356 9.45746C23.5608 9.40557 23.6951 9.37887 23.8306 9.37887C23.9662 9.37887 24.1005 9.40557 24.2257 9.45746C24.351 9.50935 24.4648 9.58541 24.5606 9.68129L26.02 11.1413C26.2134 11.3349 26.3221 11.5973 26.3221 11.871C26.3221 12.1446 26.2134 12.4071 26.02 12.6006Z" fill="#65D170"/>
<path d="M13.8044 24.4261C13.6109 24.6195 13.3484 24.7282 13.0748 24.7282C12.8011 24.7282 12.5387 24.6195 12.3451 24.4261L5.63542 17.7164C5.44198 17.5229 5.33331 17.2604 5.33331 16.9868C5.33331 16.7131 5.44198 16.4506 5.63542 16.2571L7.09477 14.7971C7.19063 14.7012 7.30443 14.6251 7.42969 14.5733C7.55494 14.5214 7.68919 14.4947 7.82477 14.4947C7.96035 14.4947 8.0946 14.5214 8.21985 14.5733C8.34511 14.6251 8.45891 14.7012 8.55477 14.7971L13.0748 19.3171L22.7561 9.6358C22.8519 9.53992 22.9657 9.46386 23.091 9.41197C23.2162 9.36008 23.3505 9.33337 23.4861 9.33337C23.6216 9.33337 23.7559 9.36008 23.8811 9.41197C24.0064 9.46386 24.1202 9.53992 24.2161 9.6358L25.6754 11.0958C25.8689 11.2894 25.9775 11.5518 25.9775 11.8255C25.9775 12.0991 25.8689 12.3616 25.6754 12.5551L13.8044 24.4261Z" fill="#65D170"/>
</svg>
