<svg width="17" height="16" viewBox="0 0 17 16" fill="none" xmlns="http://www.w3.org/2000/svg">
<g clip-path="url(#clip0)">
<path opacity="0.4" d="M8.5 0C4.08065 0 0.5 3.58065 0.5 8C0.5 12.4194 4.08065 16 8.5 16C12.9194 16 16.5 12.4194 16.5 8C16.5 3.58065 12.9194 0 8.5 0ZM12.4226 10.1C12.4587 10.136 12.4873 10.1787 12.5068 10.2257C12.5264 10.2728 12.5364 10.3232 12.5364 10.3742C12.5364 10.4251 12.5264 10.4756 12.5068 10.5226C12.4873 10.5697 12.4587 10.6124 12.4226 10.6484L11.1452 11.9226C11.1092 11.9587 11.0665 11.9873 11.0194 12.0068C10.9724 12.0264 10.9219 12.0364 10.871 12.0364C10.82 12.0364 10.7696 12.0264 10.7225 12.0068C10.6755 11.9873 10.6327 11.9587 10.5968 11.9226L8.5 9.80645L6.4 11.9226C6.36404 11.9587 6.3213 11.9873 6.27425 12.0068C6.2272 12.0264 6.17675 12.0364 6.12581 12.0364C6.07486 12.0364 6.02441 12.0264 5.97736 12.0068C5.93031 11.9873 5.88758 11.9587 5.85161 11.9226L4.57742 10.6452C4.54133 10.6092 4.5127 10.5665 4.49316 10.5194C4.47362 10.4724 4.46357 10.4219 4.46357 10.371C4.46357 10.32 4.47362 10.2696 4.49316 10.2225C4.5127 10.1755 4.54133 10.1327 4.57742 10.0968L6.69355 8L4.57742 5.9C4.54133 5.86404 4.5127 5.8213 4.49316 5.77425C4.47362 5.7272 4.46357 5.67675 4.46357 5.62581C4.46357 5.57486 4.47362 5.52441 4.49316 5.47736C4.5127 5.43031 4.54133 5.38758 4.57742 5.35161L5.85484 4.07419C5.8908 4.03811 5.93353 4.00947 5.98059 3.98993C6.02764 3.9704 6.07808 3.96034 6.12903 3.96034C6.17998 3.96034 6.23043 3.9704 6.27748 3.98993C6.32453 4.00947 6.36726 4.03811 6.40323 4.07419L8.5 6.19355L10.6 4.07742C10.636 4.04133 10.6787 4.0127 10.7257 3.99316C10.7728 3.97362 10.8232 3.96357 10.8742 3.96357C10.9251 3.96357 10.9756 3.97362 11.0226 3.99316C11.0697 4.0127 11.1124 4.04133 11.1484 4.07742L12.4258 5.35484C12.4619 5.3908 12.4905 5.43353 12.5101 5.48059C12.5296 5.52764 12.5397 5.57808 12.5397 5.62903C12.5397 5.67998 12.5296 5.73043 12.5101 5.77748C12.4905 5.82453 12.4619 5.86726 12.4258 5.90323L10.3065 8L12.4226 10.1Z" fill="#FF6A6A"/>
<path d="M12.423 10.0994C12.4591 10.1353 12.4877 10.1781 12.5073 10.2251C12.5268 10.2722 12.5369 10.3226 12.5369 10.3736C12.5369 10.4245 12.5268 10.475 12.5073 10.522C12.4877 10.5691 12.4591 10.6118 12.423 10.6478L11.1456 11.922C11.1096 11.958 11.0669 11.9867 11.0198 12.0062C10.9728 12.0258 10.9223 12.0358 10.8714 12.0358C10.8204 12.0358 10.77 12.0258 10.7229 12.0062C10.6759 11.9867 10.6332 11.958 10.5972 11.922L8.50042 9.80583L6.40042 11.922C6.36446 11.958 6.32173 11.9867 6.27468 12.0062C6.22762 12.0258 6.17718 12.0358 6.12623 12.0358C6.07528 12.0358 6.02484 12.0258 5.97778 12.0062C5.93073 11.9867 5.888 11.958 5.85204 11.922L4.57784 10.6445C4.54175 10.6086 4.51312 10.5658 4.49358 10.5188C4.47405 10.4717 4.46399 10.4213 4.46399 10.3703C4.46399 10.3194 4.47405 10.269 4.49358 10.2219C4.51312 10.1748 4.54175 10.1321 4.57784 10.0962L6.69397 7.99938L4.57784 5.89938C4.54175 5.86341 4.51312 5.82068 4.49358 5.77363C4.47405 5.72658 4.46399 5.67613 4.46399 5.62518C4.46399 5.57424 4.47405 5.52379 4.49358 5.47674C4.51312 5.42968 4.54175 5.38695 4.57784 5.35099L5.85526 4.07357C5.89122 4.03748 5.93396 4.00885 5.98101 3.98931C6.02806 3.96977 6.07851 3.95972 6.12946 3.95972C6.1804 3.95972 6.23085 3.96977 6.2779 3.98931C6.32495 4.00885 6.36769 4.03748 6.40365 4.07357L8.50042 6.19293L10.6004 4.0768C10.6364 4.04071 10.6791 4.01208 10.7262 3.99254C10.7732 3.973 10.8237 3.96294 10.8746 3.96294C10.9256 3.96294 10.976 3.973 11.0231 3.99254C11.0701 4.01208 11.1128 4.04071 11.1488 4.0768L12.4262 5.35422C12.4623 5.39018 12.491 5.43291 12.5105 5.47996C12.53 5.52702 12.5401 5.57746 12.5401 5.62841C12.5401 5.67936 12.53 5.7298 12.5105 5.77685C12.491 5.82391 12.4623 5.86664 12.4262 5.9026L10.3069 7.99938L12.423 10.0994Z" fill="#FF6A6A"/>
</g>
<defs>
<clipPath id="clip0">
<rect width="16" height="16" fill="white" transform="translate(0.5)"/>
</clipPath>
</defs>
</svg>
