<svg width="30" height="30" viewBox="0 0 30 30" fill="none" xmlns="http://www.w3.org/2000/svg">
<rect width="30" height="30" rx="10" fill="#FFF5F4"/>
<path opacity="0.4" d="M25 20.625V21.875C25 22.0408 24.9342 22.1997 24.8169 22.3169C24.6997 22.4342 24.5408 22.5 24.375 22.5H6.25C5.91848 22.5 5.60054 22.3683 5.36612 22.1339C5.1317 21.8995 5 21.5815 5 21.25V8.125C5 7.95924 5.06585 7.80027 5.18306 7.68306C5.30027 7.56585 5.45924 7.5 5.625 7.5H6.875C7.04076 7.5 7.19973 7.56585 7.31694 7.68306C7.43415 7.80027 7.5 7.95924 7.5 8.125V20H24.375C24.5408 20 24.6997 20.0658 24.8169 20.1831C24.9342 20.3003 25 20.4592 25 20.625Z" fill="#DC241F"/>
<path d="M23.7499 9.375V13.9863C23.7499 14.8215 22.7401 15.2398 22.1483 14.6504L20.8827 13.3848L17.1327 17.1348C16.8983 17.3691 16.5804 17.5008 16.2489 17.5008C15.9175 17.5008 15.5996 17.3691 15.3651 17.1348L12.4999 14.2676L10.7007 16.0672C10.6426 16.1252 10.5737 16.1713 10.4979 16.2027C10.4221 16.2341 10.3408 16.2503 10.2587 16.2503C10.1766 16.2503 10.0953 16.2341 10.0195 16.2027C9.94365 16.1713 9.87474 16.1252 9.8167 16.0672L8.93311 15.1836C8.87506 15.1256 8.82901 15.0566 8.79759 14.9808C8.76617 14.905 8.75 14.8237 8.75 14.7416C8.75 14.6595 8.76617 14.5782 8.79759 14.5024C8.82901 14.4266 8.87506 14.3576 8.93311 14.2996L11.6163 11.6164C11.8507 11.382 12.1686 11.2504 12.5001 11.2504C12.8316 11.2504 13.1495 11.382 13.3839 11.6164L16.2499 14.4824L19.1159 11.616L17.8515 10.3516C17.2608 9.76094 17.6792 8.75 18.5155 8.75H23.1249C23.2907 8.75 23.4496 8.81585 23.5668 8.93306C23.6841 9.05027 23.7499 9.20924 23.7499 9.375Z" fill="#DC241F"/>
</svg>
