<svg width="20" height="20" viewBox="0 0 20 20" fill="none" xmlns="http://www.w3.org/2000/svg">
<path d="M16.8008 3.7689C15.0977 3.80797 13.7266 5.23375 13.75 6.93687C13.7695 8.42906 14.8359 9.66734 16.25 9.9525V14.0775C16.25 16.6517 14.0078 18.7455 11.25 18.7455C8.49219 18.7455 6.25 16.6517 6.25 14.0775V13.7298C9.05859 13.4173 11.25 11.0306 11.25 8.14V1.00718C11.25 0.792341 11.1055 0.604841 10.8945 0.554059L8.73047 0.0149969C8.48047 -0.0475031 8.22656 0.104841 8.16016 0.354841L8.08594 0.659528C8.02344 0.909528 8.17578 1.16343 8.42578 1.22984L10 1.62047V8.09703C10 10.5111 8.06641 12.5072 5.65234 12.5189C3.22656 12.5345 1.25 10.5658 1.25 8.1439V1.62047L2.82031 1.22593C3.07031 1.16343 3.22266 0.909528 3.16016 0.655622L3.08594 0.354841C3.02344 0.104841 2.76953 -0.0475031 2.51562 0.0149969L0.355469 0.554059C0.144531 0.604841 0 0.792341 0 1.00718V8.14C0 11.0306 2.19141 13.4173 5 13.7298V14.0775C5 17.3431 7.80469 19.9994 11.25 19.9994C14.6953 19.9994 17.5 17.3431 17.5 14.0814V9.9564C18.9258 9.66734 20 8.40562 20 6.8939C20 5.14 18.5586 3.72593 16.8008 3.7689ZM16.875 8.7689C15.8398 8.7689 15 7.92906 15 6.8939C15 5.85875 15.8398 5.0189 16.875 5.0189C17.9102 5.0189 18.75 5.85875 18.75 6.8939C18.75 7.92906 17.9102 8.7689 16.875 8.7689ZM17.793 6.8939C17.793 7.40172 17.3828 7.81187 16.875 7.81187C16.3672 7.81187 15.957 7.40172 15.957 6.8939C15.957 6.38609 16.3672 5.97593 16.875 5.97593C17.3828 5.97593 17.793 6.38609 17.793 6.8939Z" fill="white"/>
</svg>
