<svg width="16" height="16" viewBox="0 0 16 16" fill="none" xmlns="http://www.w3.org/2000/svg">
<path d="M10.2314 8.00012L15.2808 2.95074C15.5728 2.65871 15.5728 2.1848 15.2808 1.8923L14.1075 0.719023C13.8154 0.426992 13.3415 0.426992 13.049 0.719023L8.00014 5.76887L2.95076 0.719492C2.65873 0.427461 2.18482 0.427461 1.89232 0.719492L0.719512 1.8923C0.42748 2.18434 0.42748 2.65824 0.719512 2.95074L5.76889 8.00012L0.719512 13.0495C0.42748 13.3415 0.42748 13.8154 0.719512 14.1079L1.89279 15.2812C2.18482 15.5732 2.65873 15.5732 2.95123 15.2812L8.00014 10.2314L13.0495 15.2807C13.3415 15.5728 13.8154 15.5728 14.1079 15.2807L15.2812 14.1075C15.5733 13.8154 15.5733 13.3415 15.2812 13.049L10.2314 8.00012Z" fill="#DC241F"/>
</svg>
