<svg width="24" height="24" viewBox="0 0 24 24" fill="none" xmlns="http://www.w3.org/2000/svg">
<path opacity="0.4" d="M19.8686 9.80404L19.8687 9.80392C20.1074 9.56499 20.2416 9.24102 20.2416 8.90323C20.2416 8.56544 20.1074 8.24146 19.8687 8.00253L19.8686 8.00249L18.7741 6.90749L18.7741 6.90746C18.6558 6.7891 18.5153 6.69522 18.3607 6.63117C18.2061 6.56712 18.0403 6.53415 17.873 6.53415C17.7056 6.53415 17.5399 6.56712 17.3853 6.63117C17.2307 6.69522 17.0902 6.78908 16.9719 6.90741C16.9719 6.90743 16.9719 6.90744 16.9719 6.90745L10.0645 13.8148L7.02811 10.7784C7.0281 10.7784 7.02808 10.7784 7.02807 10.7784C6.90975 10.66 6.76929 10.5662 6.6147 10.5021L6.42333 10.9641L6.61469 10.5021C6.46008 10.4381 6.29437 10.4051 6.12702 10.4051C5.95966 10.4051 5.79395 10.4381 5.63934 10.5021C5.48473 10.5662 5.34425 10.6601 5.22592 10.7784L5.22588 10.7785L4.13137 11.8735L4.13133 11.8735C3.89255 12.1124 3.75842 12.4364 3.75842 12.7742C3.75842 13.112 3.89255 13.436 4.13133 13.6749L4.13145 13.675L9.1637 18.7073L9.16382 18.7074C9.40275 18.9462 9.72672 19.0803 10.0645 19.0803C10.4023 19.0803 10.7263 18.9462 10.9652 18.7074L10.9653 18.7073L19.8686 9.80404ZM0.5 12C0.5 5.64711 5.64711 0.5 12 0.5C18.3529 0.5 23.5 5.64711 23.5 12C23.5 18.3529 18.3529 23.5 12 23.5C5.64711 23.5 0.5 18.3529 0.5 12Z" fill="#DEFFE1" stroke="#DEFFE1"/>
</svg>
