<svg width="24" height="22" viewBox="0 0 24 22" fill="none" xmlns="http://www.w3.org/2000/svg">
<path opacity="0.4" d="M16.125 12.5C16.125 13.3158 15.8831 14.1134 15.4298 14.7917C14.9766 15.4701 14.3323 15.9988 13.5786 16.311C12.8248 16.6232 11.9954 16.7049 11.1953 16.5457C10.3951 16.3866 9.66008 15.9937 9.08319 15.4168C8.50629 14.8399 8.11343 14.1049 7.95426 13.3047C7.7951 12.5046 7.87679 11.6752 8.189 10.9214C8.50121 10.1677 9.02992 9.52345 9.70827 9.07019C10.3866 8.61693 11.1842 8.375 12 8.375C13.0935 8.37661 14.1418 8.81173 14.915 9.58496C15.6883 10.3582 16.1234 11.4065 16.125 12.5Z" fill="#DC241F"/>
<path d="M21.75 3.5H17.625L17.0438 1.95781C16.8831 1.52942 16.5955 1.16029 16.2194 0.89978C15.8433 0.639267 15.3966 0.49979 14.9391 0.5H9.05625C8.59873 0.49979 8.15205 0.639267 7.77594 0.89978C7.39983 1.16029 7.11222 1.52942 6.95156 1.95781L6.375 3.5H2.25C1.65326 3.5 1.08097 3.73705 0.65901 4.15901C0.237053 4.58097 0 5.15326 0 5.75L0 19.25C0 19.8467 0.237053 20.419 0.65901 20.841C1.08097 21.2629 1.65326 21.5 2.25 21.5H21.75C22.3467 21.5 22.919 21.2629 23.341 20.841C23.7629 20.419 24 19.8467 24 19.25V5.75C24 5.15326 23.7629 4.58097 23.341 4.15901C22.919 3.73705 22.3467 3.5 21.75 3.5ZM12 18.125C10.8875 18.125 9.79994 17.7951 8.87492 17.177C7.94989 16.5589 7.22892 15.6804 6.80318 14.6526C6.37743 13.6248 6.26604 12.4938 6.48308 11.4026C6.70012 10.3115 7.23585 9.30919 8.02252 8.52252C8.80919 7.73585 9.81147 7.20012 10.9026 6.98308C11.9938 6.76604 13.1248 6.87743 14.1526 7.30318C15.1804 7.72892 16.0589 8.44989 16.677 9.37492C17.2951 10.2999 17.625 11.3875 17.625 12.5C17.6238 13.9915 17.0307 15.4215 15.9761 16.4761C14.9215 17.5307 13.4915 18.1238 12 18.125Z" fill="#DC241F"/>
</svg>
