<svg width="20" height="20" viewBox="0 0 20 20" fill="none" xmlns="http://www.w3.org/2000/svg">
<path opacity="0.4" d="M10 0C4.47581 0 0 4.47581 0 10C0 15.5242 4.47581 20 10 20C15.5242 20 20 15.5242 20 10C20 4.47581 15.5242 0 10 0ZM16.2625 7.8754L8.84314 15.2948C8.72217 15.4157 8.55813 15.4836 8.3871 15.4836C8.21606 15.4836 8.05203 15.4157 7.93105 15.2948L3.7375 11.1012C3.6166 10.9802 3.54869 10.8162 3.54869 10.6452C3.54869 10.4741 3.6166 10.3101 3.7375 10.1891L4.6496 9.27661C4.70951 9.21669 4.78064 9.16915 4.85892 9.13672C4.9372 9.10429 5.02111 9.0876 5.10585 9.0876C5.19058 9.0876 5.27449 9.10429 5.35277 9.13672C5.43106 9.16915 5.50219 9.21669 5.5621 9.27661L8.3871 12.1016L14.4379 6.05081C14.4978 5.99088 14.5689 5.94335 14.6472 5.91091C14.7255 5.87848 14.8094 5.86179 14.8942 5.86179C14.9789 5.86179 15.0628 5.87848 15.1411 5.91091C15.2194 5.94335 15.2905 5.99088 15.3504 6.05081L16.2625 6.96331C16.3834 7.08429 16.4513 7.24832 16.4513 7.41935C16.4513 7.59039 16.3834 7.75442 16.2625 7.8754Z" fill="#65D170"/>
<path d="M8.84329 15.2943C8.72231 15.4152 8.55827 15.4831 8.38724 15.4831C8.2162 15.4831 8.05217 15.4152 7.93119 15.2943L3.73764 11.1007C3.61674 10.9798 3.54883 10.8157 3.54883 10.6447C3.54883 10.4737 3.61674 10.3096 3.73764 10.1886L4.64974 9.27615C4.70965 9.21622 4.78078 9.16869 4.85906 9.13625C4.93735 9.10382 5.02125 9.08713 5.10599 9.08713C5.19072 9.08713 5.27463 9.10382 5.35292 9.13625C5.4312 9.16869 5.50233 9.21622 5.56224 9.27615L8.38724 12.1011L14.438 6.05034C14.498 5.99042 14.5691 5.94288 14.6474 5.91045C14.7257 5.87802 14.8096 5.86133 14.8943 5.86133C14.979 5.86133 15.0629 5.87802 15.1412 5.91045C15.2195 5.94288 15.2906 5.99042 15.3505 6.05034L16.2626 6.96284C16.3835 7.08382 16.4515 7.24786 16.4515 7.41889C16.4515 7.58992 16.3835 7.75396 16.2626 7.87494L8.84329 15.2943Z" fill="#65D170"/>
</svg>
