<svg width="20" height="20" viewBox="0 0 20 20" fill="none" xmlns="http://www.w3.org/2000/svg">
<path opacity="0.4" d="M10 0C4.47581 0 0 4.47581 0 10C0 15.5242 4.47581 20 10 20C15.5242 20 20 15.5242 20 10C20 4.47581 15.5242 0 10 0ZM14.9032 12.625C14.9483 12.67 14.9841 12.7234 15.0085 12.7822C15.033 12.841 15.0455 12.9041 15.0455 12.9677C15.0455 13.0314 15.033 13.0945 15.0085 13.1533C14.9841 13.2121 14.9483 13.2655 14.9032 13.3105L13.3065 14.9032C13.2615 14.9483 13.2081 14.9841 13.1493 15.0085C13.0905 15.033 13.0274 15.0455 12.9637 15.0455C12.9 15.0455 12.837 15.033 12.7782 15.0085C12.7193 14.9841 12.6659 14.9483 12.621 14.9032L10 12.2581L7.375 14.9032C7.33005 14.9483 7.27663 14.9841 7.21781 15.0085C7.159 15.033 7.09594 15.0455 7.03226 15.0455C6.96857 15.0455 6.90552 15.033 6.8467 15.0085C6.78788 14.9841 6.73447 14.9483 6.68952 14.9032L5.09677 13.3065C5.05166 13.2615 5.01587 13.2081 4.99145 13.1493C4.96703 13.0905 4.95446 13.0274 4.95446 12.9637C4.95446 12.9 4.96703 12.837 4.99145 12.7782C5.01587 12.7193 5.05166 12.6659 5.09677 12.621L7.74194 10L5.09677 7.375C5.05166 7.33005 5.01587 7.27663 4.99145 7.21781C4.96703 7.159 4.95446 7.09594 4.95446 7.03226C4.95446 6.96857 4.96703 6.90552 4.99145 6.8467C5.01587 6.78788 5.05166 6.73447 5.09677 6.68952L6.69355 5.09274C6.7385 5.04763 6.79192 5.01184 6.85073 4.98742C6.90955 4.963 6.97261 4.95042 7.03629 4.95042C7.09997 4.95042 7.16303 4.963 7.22185 4.98742C7.28066 5.01184 7.33408 5.04763 7.37903 5.09274L10 7.74194L12.625 5.09677C12.67 5.05166 12.7234 5.01587 12.7822 4.99145C12.841 4.96703 12.9041 4.95446 12.9677 4.95446C13.0314 4.95446 13.0945 4.96703 13.1533 4.99145C13.2121 5.01587 13.2655 5.05166 13.3105 5.09677L14.9073 6.69355C14.9524 6.7385 14.9882 6.79192 15.0126 6.85073C15.037 6.90955 15.0496 6.97261 15.0496 7.03629C15.0496 7.09997 15.037 7.16303 15.0126 7.22185C14.9882 7.28066 14.9524 7.33408 14.9073 7.37903L12.2581 10L14.9032 12.625Z" fill="#DC241F"/>
<path d="M14.9036 12.6242C14.9487 12.6691 14.9845 12.7225 15.0089 12.7813C15.0333 12.8402 15.0459 12.9032 15.0459 12.9669C15.0459 13.0306 15.0333 13.0936 15.0089 13.1525C14.9845 13.2113 14.9487 13.2647 14.9036 13.3096L13.3068 14.9024C13.2619 14.9475 13.2085 14.9833 13.1496 15.0077C13.0908 15.0321 13.0278 15.0447 12.9641 15.0447C12.9004 15.0447 12.8373 15.0321 12.7785 15.0077C12.7197 14.9833 12.6663 14.9475 12.6213 14.9024L10.0004 12.2572L7.37538 14.9024C7.33042 14.9475 7.27701 14.9833 7.21819 15.0077C7.15938 15.0321 7.09632 15.0447 7.03263 15.0447C6.96895 15.0447 6.90589 15.0321 6.84708 15.0077C6.78826 14.9833 6.73485 14.9475 6.68989 14.9024L5.09715 13.3056C5.05204 13.2607 5.01625 13.2072 4.99183 13.1484C4.96741 13.0896 4.95483 13.0266 4.95483 12.9629C4.95483 12.8992 4.96741 12.8361 4.99183 12.7773C5.01625 12.7185 5.05204 12.6651 5.09715 12.6201L7.74231 9.99916L5.09715 7.37416C5.05204 7.32921 5.01625 7.27579 4.99183 7.21698C4.96741 7.15816 4.95483 7.0951 4.95483 7.03142C4.95483 6.96773 4.96741 6.90468 4.99183 6.84586C5.01625 6.78705 5.05204 6.73363 5.09715 6.68868L6.69393 5.0919C6.73888 5.04679 6.79229 5.011 6.85111 4.98658C6.90993 4.96216 6.97298 4.94958 7.03667 4.94958C7.10035 4.94958 7.16341 4.96216 7.22222 4.98658C7.28104 5.011 7.33446 5.04679 7.37941 5.0919L10.0004 7.7411L12.6254 5.09593C12.6703 5.05082 12.7237 5.01503 12.7826 4.99061C12.8414 4.96619 12.9044 4.95362 12.9681 4.95362C13.0318 4.95362 13.0949 4.96619 13.1537 4.99061C13.2125 5.01503 13.2659 5.05082 13.3109 5.09593L14.9076 6.69271C14.9527 6.73766 14.9885 6.79108 15.013 6.84989C15.0374 6.90871 15.05 6.97177 15.05 7.03545C15.05 7.09913 15.0374 7.16219 15.013 7.22101C14.9885 7.27982 14.9527 7.33324 14.9076 7.37819L12.2584 9.99916L14.9036 12.6242Z" fill="#DC241F"/>
</svg>
