<svg width="18" height="24" viewBox="0 0 18 24" fill="none" xmlns="http://www.w3.org/2000/svg">
<path opacity="0.4" d="M18 6H12.75C12.5511 6 12.3603 5.92099 12.2197 5.78033C12.079 5.63968 12 5.44892 12 5.25V3.53357e-06H1.125C0.977636 -0.000366272 0.831638 0.0282939 0.695346 0.0843477C0.559055 0.140402 0.435138 0.222751 0.330672 0.326695C0.226206 0.430639 0.143237 0.554141 0.0865003 0.690149C0.0297641 0.826158 0.000372414 0.972011 3.53357e-06 1.11938V22.875C-0.000366272 23.0224 0.0282939 23.1684 0.0843477 23.3047C0.140402 23.441 0.222751 23.5649 0.326695 23.6693C0.430638 23.7738 0.554141 23.8568 0.690149 23.9135C0.826158 23.9702 0.972011 23.9996 1.11938 24H16.875C17.0224 24.0004 17.1684 23.9717 17.3047 23.9157C17.441 23.8596 17.5649 23.7773 17.6693 23.6733C17.7738 23.5694 17.8568 23.4459 17.9135 23.3099C17.9702 23.1738 17.9996 23.028 18 22.8806V6ZM3 3.375C3 3.27555 3.03951 3.18016 3.10984 3.10984C3.18016 3.03951 3.27555 3 3.375 3H7.125C7.22446 3 7.31984 3.03951 7.39017 3.10984C7.46049 3.18016 7.5 3.27555 7.5 3.375V4.125C7.5 4.22446 7.46049 4.31984 7.39017 4.39017C7.31984 4.46049 7.22446 4.5 7.125 4.5H3.375C3.27555 4.5 3.18016 4.46049 3.10984 4.39017C3.03951 4.31984 3 4.22446 3 4.125V3.375ZM3 7.125V6.375C3 6.27555 3.03951 6.18016 3.10984 6.10984C3.18016 6.03951 3.27555 6 3.375 6H7.125C7.22446 6 7.31984 6.03951 7.39017 6.10984C7.46049 6.18016 7.5 6.27555 7.5 6.375V7.125C7.5 7.22446 7.46049 7.31984 7.39017 7.39017C7.31984 7.46049 7.22446 7.5 7.125 7.5H3.375C3.27555 7.5 3.18016 7.46049 3.10984 7.39017C3.03951 7.31984 3 7.22446 3 7.125ZM9.75 19.4944V20.625C9.75 20.7245 9.71049 20.8198 9.64017 20.8902C9.56984 20.9605 9.47446 21 9.375 21H8.625C8.52555 21 8.43016 20.9605 8.35984 20.8902C8.28951 20.8198 8.25 20.7245 8.25 20.625V19.4864C7.71794 19.4588 7.2061 19.2736 6.77953 18.9544C6.73681 18.9211 6.7018 18.879 6.67688 18.831C6.65197 18.7829 6.63776 18.7301 6.63522 18.676C6.63268 18.6219 6.64188 18.568 6.66218 18.5178C6.68248 18.4676 6.7134 18.4224 6.75282 18.3853L7.3036 17.8594C7.36747 17.8013 7.449 17.7664 7.5351 17.7602C7.62121 17.754 7.7069 17.7768 7.77844 17.8252C7.95825 17.939 8.16658 17.9996 8.37938 18H9.69703C10.0017 18 10.2502 17.7225 10.2502 17.3817C10.2502 17.1028 10.0809 16.8572 9.83906 16.785L7.72969 16.1522C6.85828 15.8906 6.24938 15.0544 6.24938 14.1183C6.24938 12.9689 7.14235 12.0352 8.24953 12.0056V10.875C8.24953 10.7755 8.28904 10.6802 8.35937 10.6098C8.4297 10.5395 8.52508 10.5 8.62453 10.5H9.37453C9.47399 10.5 9.56937 10.5395 9.6397 10.6098C9.71002 10.6802 9.74953 10.7755 9.74953 10.875V12.0136C10.2817 12.0408 10.7936 12.226 11.22 12.5456C11.2627 12.5789 11.2977 12.621 11.3227 12.669C11.3476 12.7171 11.3618 12.7699 11.3643 12.824C11.3669 12.8781 11.3577 12.9321 11.3374 12.9822C11.3171 13.0324 11.2861 13.0776 11.2467 13.1147L10.6959 13.6406C10.6321 13.6987 10.5505 13.7336 10.4644 13.7398C10.3783 13.746 10.2926 13.7232 10.2211 13.6748C10.0414 13.5609 9.83298 13.5003 9.62016 13.5H8.3025C7.99782 13.5 7.74938 13.7775 7.74938 14.1183C7.74938 14.3972 7.9186 14.6428 8.16047 14.715L10.2698 15.3478C11.1413 15.6094 11.7502 16.4456 11.7502 17.3817C11.7502 18.5316 10.8595 19.4648 9.75 19.4944Z" fill="#DC241F"/>
<path d="M17.672 4.92188L13.083 0.328128C12.9782 0.223747 12.8539 0.14104 12.7172 0.0847371C12.5805 0.0284343 12.434 -0.000359235 12.2861 3.38283e-06H12.0001V5.25C12.0001 5.44892 12.0792 5.63968 12.2198 5.78033C12.3605 5.92099 12.5512 6 12.7501 6H18.0001V5.71407C18.0001 5.56694 17.9712 5.42126 17.9149 5.28534C17.8586 5.14941 17.776 5.02591 17.672 4.92188ZM10.27 15.3478L8.16062 14.715C7.91875 14.6428 7.74953 14.3972 7.74953 14.1183C7.74953 13.7775 7.99797 13.5 8.30265 13.5H9.62031C9.83313 13.5003 10.0415 13.5609 10.2212 13.6748C10.2928 13.7232 10.3785 13.7461 10.4646 13.7398C10.5507 13.7336 10.6322 13.6987 10.6961 13.6406L11.2473 13.1147C11.2868 13.0776 11.3177 13.0324 11.338 12.9822C11.3583 12.9321 11.3675 12.8781 11.3649 12.824C11.3624 12.7699 11.3482 12.7171 11.3233 12.669C11.2984 12.621 11.2633 12.5789 11.2206 12.5456C10.7943 12.226 10.2823 12.0408 9.75015 12.0136V10.875C9.75015 10.7755 9.71064 10.6802 9.64032 10.6098C9.56999 10.5395 9.47461 10.5 9.37515 10.5H8.62515C8.5257 10.5 8.43031 10.5395 8.35999 10.6098C8.28966 10.6802 8.25015 10.7755 8.25015 10.875V12.0056C7.14297 12.0352 6.25 12.9689 6.25 14.1183C6.25 15.0558 6.85937 15.8906 7.73031 16.1522L9.83968 16.785C10.0816 16.8572 10.2508 17.1028 10.2508 17.3817C10.2508 17.7225 10.0023 18 9.69765 18H8.37953C8.16673 17.9996 7.9584 17.939 7.77859 17.8252C7.70705 17.7768 7.62136 17.754 7.53525 17.7602C7.44915 17.7664 7.36762 17.8013 7.30375 17.8594L6.75297 18.3853C6.71355 18.4224 6.68263 18.4676 6.66233 18.5178C6.64203 18.568 6.63284 18.6219 6.63537 18.676C6.63791 18.7301 6.65213 18.7829 6.67704 18.831C6.70195 18.879 6.73697 18.9211 6.77969 18.9544C7.20625 19.2736 7.71809 19.4588 8.25015 19.4864V20.625C8.25015 20.7245 8.28966 20.8198 8.35999 20.8902C8.43031 20.9605 8.5257 21 8.62515 21H9.37515C9.47461 21 9.56999 20.9605 9.64032 20.8902C9.71064 20.8198 9.75015 20.7245 9.75015 20.625V19.4944C10.8597 19.4648 11.7503 18.5316 11.7503 17.3817C11.7503 16.4456 11.1414 15.6094 10.27 15.3478Z" fill="#DC241F"/>
</svg>
