<svg width="30" height="30" viewBox="0 0 30 30" fill="none" xmlns="http://www.w3.org/2000/svg">
<rect width="30" height="30" rx="10" fill="#FFF5F4"/>
<g clip-path="url(#clip0)">
<path opacity="0.4" d="M22.5 10H18.125C17.9592 10 17.8003 9.93415 17.6831 9.81694C17.5658 9.69973 17.5 9.54076 17.5 9.375V5H8.4375C8.3147 4.99969 8.19303 5.02358 8.07946 5.07029C7.96588 5.117 7.86262 5.18563 7.77556 5.27225C7.68851 5.35887 7.61936 5.46178 7.57208 5.57512C7.5248 5.68847 7.50031 5.81001 7.5 5.93282V24.0625C7.49969 24.1853 7.52358 24.307 7.57029 24.4205C7.617 24.5341 7.68563 24.6374 7.77225 24.7244C7.85887 24.8115 7.96178 24.8806 8.07512 24.9279C8.18847 24.9752 8.31001 24.9997 8.43282 25H21.5625C21.6853 25.0003 21.807 24.9764 21.9205 24.9297C22.0341 24.883 22.1374 24.8144 22.2244 24.7278C22.3115 24.6411 22.3806 24.5382 22.4279 24.4249C22.4752 24.3115 22.4997 24.19 22.5 24.0672V10ZM10 7.8125C10 7.72962 10.0329 7.65014 10.0915 7.59153C10.1501 7.53293 10.2296 7.5 10.3125 7.5H13.4375C13.5204 7.5 13.5999 7.53293 13.6585 7.59153C13.7171 7.65014 13.75 7.72962 13.75 7.8125V8.4375C13.75 8.52038 13.7171 8.59987 13.6585 8.65847C13.5999 8.71708 13.5204 8.75 13.4375 8.75H10.3125C10.2296 8.75 10.1501 8.71708 10.0915 8.65847C10.0329 8.59987 10 8.52038 10 8.4375V7.8125ZM10 10.9375V10.3125C10 10.2296 10.0329 10.1501 10.0915 10.0915C10.1501 10.0329 10.2296 10 10.3125 10H13.4375C13.5204 10 13.5999 10.0329 13.6585 10.0915C13.7171 10.1501 13.75 10.2296 13.75 10.3125V10.9375C13.75 11.0204 13.7171 11.0999 13.6585 11.1585C13.5999 11.2171 13.5204 11.25 13.4375 11.25H10.3125C10.2296 11.25 10.1501 11.2171 10.0915 11.1585C10.0329 11.0999 10 11.0204 10 10.9375ZM15.625 21.2453V22.1875C15.625 22.2704 15.5921 22.3499 15.5335 22.4085C15.4749 22.4671 15.3954 22.5 15.3125 22.5H14.6875C14.6046 22.5 14.5251 22.4671 14.4665 22.4085C14.4079 22.3499 14.375 22.2704 14.375 22.1875V21.2387C13.9316 21.2156 13.5051 21.0613 13.1496 20.7953C13.114 20.7676 13.0848 20.7325 13.0641 20.6925C13.0433 20.6524 13.0315 20.6084 13.0294 20.5633C13.0272 20.5183 13.0349 20.4733 13.0518 20.4315C13.0687 20.3897 13.0945 20.352 13.1273 20.3211L13.5863 19.8828C13.6396 19.8344 13.7075 19.8053 13.7793 19.8001C13.851 19.795 13.9224 19.814 13.982 19.8543C14.1319 19.9491 14.3055 19.9997 14.4828 20H15.5809C15.8348 20 16.0418 19.7688 16.0418 19.4848C16.0418 19.2523 15.9008 19.0477 15.6992 18.9875L13.9414 18.4602C13.2152 18.2422 12.7078 17.5453 12.7078 16.7652C12.7078 15.8074 13.452 15.0293 14.3746 15.0047V14.0625C14.3746 13.9796 14.4075 13.9001 14.4661 13.8415C14.5247 13.7829 14.6042 13.75 14.6871 13.75H15.3121C15.395 13.75 15.4745 13.7829 15.5331 13.8415C15.5917 13.9001 15.6246 13.9796 15.6246 14.0625V15.0113C16.0681 15.034 16.4947 15.1884 16.85 15.4547C16.8856 15.4824 16.9148 15.5175 16.9355 15.5575C16.9563 15.5976 16.9681 15.6416 16.9703 15.6867C16.9724 15.7317 16.9647 15.7767 16.9478 15.8185C16.9309 15.8603 16.9051 15.898 16.8723 15.9289L16.4133 16.3672C16.3601 16.4156 16.2921 16.4447 16.2204 16.4499C16.1486 16.455 16.0772 16.436 16.0176 16.3957C15.8678 16.3007 15.6941 16.2502 15.5168 16.25H14.4188C14.1648 16.25 13.9578 16.4813 13.9578 16.7652C13.9578 16.9977 14.0988 17.2023 14.3004 17.2625L16.0582 17.7898C16.7844 18.0078 17.2918 18.7047 17.2918 19.4848C17.2918 20.443 16.5496 21.2207 15.625 21.2453Z" fill="#DC241F"/>
<path d="M22.2264 9.10157L18.4021 5.27344C18.3149 5.18646 18.2113 5.11753 18.0973 5.07061C17.9834 5.0237 17.8613 4.9997 17.7381 5H17.4998V9.375C17.4998 9.54076 17.5656 9.69973 17.6829 9.81694C17.8001 9.93415 17.959 10 18.1248 10H22.4998V9.76172C22.4998 9.63912 22.4756 9.51772 22.4287 9.40445C22.3818 9.29118 22.313 9.18826 22.2264 9.10157ZM16.058 17.7898L14.3002 17.2625C14.0986 17.2023 13.9576 16.9977 13.9576 16.7652C13.9576 16.4813 14.1646 16.25 14.4186 16.25H15.5166C15.6939 16.2502 15.8676 16.3007 16.0174 16.3957C16.077 16.436 16.1484 16.455 16.2202 16.4499C16.2919 16.4447 16.3599 16.4156 16.4131 16.3672L16.8725 15.9289C16.9053 15.898 16.9311 15.8603 16.948 15.8185C16.9649 15.7767 16.9726 15.7317 16.9705 15.6867C16.9683 15.6416 16.9565 15.5976 16.9357 15.5575C16.915 15.5175 16.8858 15.4824 16.8502 15.4547C16.4949 15.1884 16.0683 15.034 15.6248 15.0113V14.0625C15.6248 13.9796 15.5919 13.9001 15.5333 13.8415C15.4747 13.7829 15.3952 13.75 15.3123 13.75H14.6873C14.6044 13.75 14.5249 13.7829 14.4663 13.8415C14.4077 13.9001 14.3748 13.9796 14.3748 14.0625V15.0047C13.4521 15.0293 12.708 15.8074 12.708 16.7652C12.708 17.5465 13.2158 18.2422 13.9416 18.4602L15.6994 18.9875C15.901 19.0477 16.042 19.2523 16.042 19.4848C16.042 19.7688 15.835 20 15.5811 20H14.4826C14.3053 19.9997 14.1317 19.9491 13.9818 19.8543C13.9222 19.814 13.8508 19.795 13.7791 19.8001C13.7073 19.8053 13.6394 19.8344 13.5861 19.8828L13.1271 20.3211C13.0943 20.352 13.0685 20.3897 13.0516 20.4315C13.0347 20.4733 13.027 20.5183 13.0292 20.5633C13.0313 20.6084 13.0431 20.6525 13.0639 20.6925C13.0846 20.7325 13.1138 20.7676 13.1494 20.7953C13.5049 21.0613 13.9314 21.2156 14.3748 21.2387V22.1875C14.3748 22.2704 14.4077 22.3499 14.4663 22.4085C14.5249 22.4671 14.6044 22.5 14.6873 22.5H15.3123C15.3952 22.5 15.4747 22.4671 15.5333 22.4085C15.5919 22.3499 15.6248 22.2704 15.6248 22.1875V21.2453C16.5494 21.2207 17.2916 20.443 17.2916 19.4848C17.2916 18.7047 16.7842 18.0078 16.058 17.7898Z" fill="#DC241F"/>
</g>
<defs>
<clipPath id="clip0">
<rect width="20" height="20" fill="white" transform="translate(5 5)"/>
</clipPath>
</defs>
</svg>
