<svg width="26" height="24" viewBox="0 0 26 24" fill="none" xmlns="http://www.w3.org/2000/svg">
<path d="M9 17L13 21L17 17" stroke="white" stroke-width="2" stroke-linecap="round" stroke-linejoin="round"/>
<path d="M13 12V21" stroke="white" stroke-width="2" stroke-linecap="round" stroke-linejoin="round"/>
<path d="M21.8802 18.0899C22.7496 17.4786 23.4015 16.6061 23.7415 15.5991C24.0814 14.5921 24.0916 13.503 23.7706 12.4898C23.4496 11.4766 22.814 10.592 21.9562 9.96449C21.0985 9.33697 20.063 8.9991 19.0002 8.99993H17.7402C17.4394 7.82781 16.8767 6.73918 16.0943 5.81601C15.3119 4.89285 14.3303 4.15919 13.2234 3.67029C12.1164 3.18138 10.913 2.94996 9.7037 2.99345C8.49439 3.03694 7.31069 3.3542 6.24173 3.92136C5.17277 4.48851 4.2464 5.29078 3.53236 6.26776C2.81833 7.24474 2.33523 8.37098 2.11944 9.56168C1.90365 10.7524 1.96079 11.9765 2.28656 13.142C2.61233 14.3074 3.19824 15.3837 4.00018 16.2899" stroke="white" stroke-width="2" stroke-linecap="round" stroke-linejoin="round"/>
</svg>
