<svg width="24" height="20" viewBox="0 0 24 20" fill="none" xmlns="http://www.w3.org/2000/svg">
<path opacity="0.4" d="M23.9427 14.9076C23.9246 14.7994 23.8686 14.7012 23.7848 14.6304C23.701 14.5597 23.5948 14.521 23.4851 14.5213H22.8663C22.7326 14.1449 22.5305 13.7965 22.27 13.4937L22.5772 12.9574C22.6316 12.8625 22.6509 12.7515 22.6317 12.6439C22.6125 12.5362 22.556 12.4388 22.4722 12.3686C22.1131 12.0699 21.706 11.834 21.2683 11.671C21.1652 11.6319 21.0516 11.6308 20.9478 11.6679C20.8441 11.7051 20.7569 11.7779 20.702 11.8735L20.3945 12.4098C20.0014 12.3386 19.5987 12.3386 19.2056 12.4098L18.8981 11.8735C18.8432 11.7779 18.756 11.7051 18.6522 11.6679C18.5484 11.6308 18.4348 11.6319 18.3318 11.671C17.8944 11.8349 17.4876 12.0706 17.1279 12.3686C17.0433 12.4382 16.9863 12.5358 16.967 12.6436C16.9478 12.7515 16.9676 12.8627 17.0229 12.9574L17.3304 13.4937C17.07 13.7965 16.8678 14.1449 16.7341 14.5213H16.1153C16.0053 14.5218 15.899 14.5613 15.8153 14.6327C15.7315 14.7041 15.6757 14.8028 15.6578 14.9113C15.5809 15.3719 15.5809 15.8421 15.6578 16.3027C15.6759 16.4109 15.7318 16.5091 15.8156 16.5798C15.8994 16.6506 16.0056 16.6892 16.1153 16.689H16.7341C16.8678 17.0654 17.07 17.4138 17.3304 17.7166L17.0229 18.2529C16.9685 18.3477 16.9492 18.4587 16.9684 18.5664C16.9876 18.674 17.0441 18.7715 17.1279 18.8417C17.487 19.1404 17.894 19.3762 18.3318 19.5393C18.4348 19.5783 18.5484 19.5794 18.6522 19.5423C18.756 19.5052 18.8432 19.4323 18.8981 19.3367L19.2056 18.8004C19.5987 18.8717 20.0014 18.8717 20.3945 18.8004L20.702 19.3367C20.7569 19.4323 20.8441 19.5052 20.9478 19.5423C21.0516 19.5794 21.1652 19.5783 21.2683 19.5393C21.7056 19.3754 22.1125 19.1396 22.4722 18.8417C22.5568 18.772 22.6138 18.6745 22.633 18.5666C22.6523 18.4587 22.6325 18.3475 22.5772 18.2529L22.2696 17.7166C22.5301 17.4138 22.7323 17.0654 22.866 16.689H23.4848C23.5948 16.6884 23.7011 16.649 23.7848 16.5776C23.8686 16.5062 23.9243 16.4075 23.9423 16.2989C24.0193 15.8384 24.0194 15.3682 23.9427 14.9076ZM18.8122 16.5915C17.7021 15.1476 19.3485 13.5012 20.7924 14.6113C21.9021 16.0548 20.2561 17.7012 18.8122 16.5911V16.5915ZM23.9427 3.69772C23.9246 3.58956 23.8686 3.49135 23.7848 3.42061C23.701 3.34986 23.5948 3.31117 23.4851 3.31143H22.8663C22.7326 2.93505 22.5305 2.58665 22.27 2.28383L22.5776 1.74753C22.6319 1.65267 22.6512 1.5417 22.632 1.43405C22.6128 1.3264 22.5564 1.22893 22.4725 1.15873C22.1134 0.860019 21.7064 0.624173 21.2687 0.461158C21.1656 0.421942 21.0519 0.420752 20.9481 0.457801C20.8442 0.494851 20.757 0.567712 20.702 0.663303L20.3945 1.1996C20.0014 1.12835 19.5987 1.12835 19.2056 1.1996L18.8981 0.663303C18.8432 0.56773 18.756 0.494849 18.6522 0.457735C18.5484 0.42062 18.4348 0.421701 18.3318 0.460783C17.8944 0.624656 17.4876 0.860422 17.1279 1.15835C17.0433 1.22802 16.9863 1.32554 16.967 1.43343C16.9478 1.54132 16.9676 1.65254 17.0229 1.74716L17.3304 2.28346C17.07 2.58628 16.8678 2.93468 16.7341 3.31106H16.1153C16.0053 3.31162 15.899 3.35108 15.8153 3.42246C15.7315 3.49384 15.6757 3.59254 15.6578 3.7011C15.5809 4.16171 15.5809 4.63187 15.6578 5.09248C15.6759 5.20064 15.7318 5.29885 15.8156 5.3696C15.8994 5.44034 16.0056 5.47903 16.1153 5.47877H16.7341C16.8678 5.85515 17.07 6.20355 17.3304 6.50637L17.0229 7.04267C16.9685 7.13753 16.9492 7.2485 16.9684 7.35615C16.9876 7.46381 17.0441 7.56127 17.1279 7.63148C17.487 7.93019 17.894 8.16603 18.3318 8.32905C18.4348 8.36813 18.5484 8.36921 18.6522 8.33209C18.756 8.29498 18.8432 8.2221 18.8981 8.12653L19.2056 7.59022C19.5987 7.66148 20.0014 7.66148 20.3945 7.59022L20.702 8.12653C20.7569 8.2221 20.8441 8.29498 20.9478 8.33209C21.0516 8.36921 21.1652 8.36813 21.2683 8.32905C21.7056 8.16517 22.1125 7.92941 22.4722 7.63148C22.5568 7.5618 22.6138 7.46429 22.633 7.3564C22.6523 7.24851 22.6325 7.13729 22.5772 7.04267L22.2696 6.50637C22.5301 6.20355 22.7323 5.85515 22.866 5.47877H23.4848C23.5948 5.47821 23.7011 5.43875 23.7848 5.36737C23.8686 5.29599 23.9243 5.19729 23.9423 5.08873C24.0193 4.62814 24.0194 4.15798 23.9427 3.69735V3.69772ZM18.8122 5.38539C17.7021 3.9415 19.3485 2.29134 20.7924 3.40519C21.9021 4.84871 20.2561 6.49512 18.8122 5.38501V5.38539Z" fill="#DC241F"/>
<path d="M15.7514 11.7862L14.4879 11.1565C14.6341 10.3695 14.6341 9.56215 14.4879 8.77506L15.7517 8.145C16.1305 7.92373 16.2768 7.46244 16.1268 7.05365C15.793 6.14606 15.1554 5.31348 14.5479 4.58591C14.412 4.4245 14.2237 4.31611 14.0159 4.27976C13.808 4.24341 13.5941 4.28143 13.4115 4.38714L12.3201 5.0172C11.7126 4.49794 11.0146 4.09494 10.2612 3.82834V2.56821C10.2606 2.35592 10.185 2.15066 10.0478 1.9887C9.91053 1.82674 9.72045 1.71851 9.51113 1.68313C8.56751 1.52495 7.60404 1.52622 6.66085 1.68688C6.45426 1.72398 6.26732 1.83263 6.13284 1.99379C5.99836 2.15495 5.92492 2.35832 5.9254 2.56821V3.83209C5.17127 4.0972 4.47307 4.50036 3.86645 5.02095L2.7751 4.39052C2.59257 4.28465 2.37856 4.24655 2.17071 4.28291C1.96286 4.31926 1.77449 4.42775 1.63874 4.58928C1.03118 5.31686 0.389866 6.14944 0.0560841 7.05702C-0.0177631 7.25558 -0.0187116 7.4739 0.0534075 7.67308C0.125527 7.87227 0.266028 8.03938 0.449872 8.14463L1.69874 8.77844C1.55248 9.56427 1.55248 10.3703 1.69874 11.1562L0.449872 11.7862C0.266772 11.8932 0.127044 12.061 0.0550733 12.2605C-0.0168973 12.46 -0.0165395 12.6784 0.0560841 12.8776C0.389866 13.7814 1.03118 14.614 1.63874 15.3416C1.77458 15.503 1.96294 15.6114 2.17075 15.6477C2.37856 15.6841 2.59253 15.6461 2.7751 15.5403L3.86645 14.914C4.47401 15.4333 5.17196 15.8363 5.9254 16.1029V17.363C5.92597 17.5753 6.00156 17.7806 6.13881 17.9425C6.27607 18.1045 6.46615 18.2127 6.67548 18.2481C7.61747 18.4094 8.58001 18.4094 9.522 18.2481C9.72949 18.2108 9.91724 18.1017 10.0523 17.9399C10.1874 17.7781 10.2612 17.5738 10.2608 17.363V16.1029C11.015 15.8378 11.7132 15.4346 12.3198 14.914L13.4111 15.5441C13.5937 15.65 13.8077 15.6881 14.0155 15.6517C14.2234 15.6153 14.4117 15.5069 14.5475 15.3453C15.155 14.6178 15.8114 13.7852 16.1451 12.8776C16.2188 12.6785 16.2196 12.4597 16.1476 12.26C16.0755 12.0603 15.9352 11.8925 15.7514 11.7862ZM10.0771 11.9475C7.18928 14.1677 3.89271 10.8711 6.11292 7.98336C9.0007 5.76315 12.2976 9.05972 10.0774 11.9475H10.0771Z" fill="#DC241F"/>
</svg>
