<svg width="30" height="30" viewBox="0 0 30 30" fill="none" xmlns="http://www.w3.org/2000/svg">
<rect width="30" height="30" rx="10" fill="#FFF5F4"/>
<path opacity="0.4" d="M10.3903 20.8157C11.5043 21.6983 12.8483 22.2423 14.2624 22.3831C15.6766 22.524 17.1015 22.2557 18.3677 21.6101C19.6338 20.9646 20.6879 19.969 21.4045 18.7418C22.1212 17.5145 22.4704 16.1073 22.4104 14.6873C22.3505 13.2674 21.884 11.8946 21.0664 10.7321C20.2488 9.56964 19.1145 8.66644 17.7985 8.12994C16.4825 7.59343 15.04 7.44619 13.6428 7.70573C12.2455 7.96526 10.9521 8.62065 9.91652 9.59395L11.9633 11.6407C12.3697 12.0472 12.0818 12.7419 11.5068 12.7419H5.64516C5.47405 12.7419 5.30995 12.674 5.18896 12.553C5.06797 12.432 5 12.2679 5 12.0968V6.23509C5 5.66009 5.69476 5.37219 6.10121 5.77864L8.09233 7.76976C9.9508 5.9891 12.4261 4.99656 15 5.00001C20.5165 5.00001 24.9899 9.46694 25 14.981C25.01 20.4951 20.5169 24.9959 15.0072 25C12.7208 25.005 10.5023 24.2232 8.72419 22.7859C8.61894 22.7004 8.53282 22.5939 8.4714 22.473C8.40997 22.3522 8.37462 22.2198 8.36762 22.0844C8.36063 21.9491 8.38215 21.8137 8.43079 21.6872C8.47944 21.5607 8.55412 21.4458 8.64999 21.35L9.10443 20.8955C9.27159 20.7267 9.49502 20.6253 9.73215 20.6105C9.96929 20.5958 10.2036 20.6688 10.3903 20.8157Z" fill="#DC241F"/>
<path d="M16.2901 10.8064V15.014L17.9312 16.2902C18.0316 16.3682 18.1155 16.4653 18.1784 16.5757C18.2412 16.6862 18.2816 16.808 18.2974 16.9341C18.3132 17.0602 18.3039 17.1882 18.2702 17.3107C18.2365 17.4333 18.179 17.548 18.101 17.6483L17.705 18.1572C17.627 18.2575 17.53 18.3415 17.4195 18.4043C17.309 18.4671 17.1873 18.5076 17.0612 18.5233C16.935 18.5391 16.8071 18.5298 16.6845 18.4961C16.562 18.4625 16.4473 18.4049 16.347 18.3269L13.7095 16.2761V10.8064C13.7095 10.5497 13.8114 10.3036 13.9929 10.1221C14.1744 9.94058 14.4206 9.83862 14.6772 9.83862H15.3224C15.579 9.83862 15.8252 9.94058 16.0067 10.1221C16.1882 10.3036 16.2901 10.5497 16.2901 10.8064Z" fill="#DC241F"/>
</svg>
