<svg width="30" height="30" viewBox="0 0 30 30" fill="none" xmlns="http://www.w3.org/2000/svg">
<rect width="30" height="30" rx="10" fill="#FFF5F4"/>
<g clip-path="url(#clip0)">
<path opacity="0.4" d="M15 5C10.8594 5 7.5 8.35938 7.5 12.5C7.5 15.5238 8.55469 16.3672 14.2293 24.5965C14.3156 24.7211 14.4308 24.8229 14.565 24.8932C14.6992 24.9635 14.8485 25.0002 15 25.0002C15.1515 25.0002 15.3008 24.9635 15.435 24.8932C15.5692 24.8229 15.6844 24.7211 15.7707 24.5965C21.4453 16.3672 22.5 15.5238 22.5 12.5C22.5 8.35938 19.1406 5 15 5ZM15 16.25C14.2583 16.25 13.5333 16.0301 12.9166 15.618C12.2999 15.206 11.8193 14.6203 11.5355 13.9351C11.2516 13.2498 11.1774 12.4958 11.3221 11.7684C11.4667 11.041 11.8239 10.3728 12.3483 9.84835C12.8728 9.3239 13.541 8.96675 14.2684 8.82206C14.9958 8.67736 15.7498 8.75162 16.4351 9.03545C17.1203 9.31928 17.706 9.79993 18.118 10.4166C18.5301 11.0333 18.75 11.7583 18.75 12.5C18.75 13.4946 18.3549 14.4484 17.6517 15.1517C16.9484 15.8549 15.9946 16.25 15 16.25Z" fill="#DC241F"/>
<path d="M15 15C14.5055 15 14.0222 14.8534 13.6111 14.5787C13.2 14.304 12.8795 13.9135 12.6903 13.4567C12.5011 12.9999 12.4516 12.4972 12.548 12.0123C12.6445 11.5273 12.8826 11.0819 13.2322 10.7322C13.5819 10.3826 14.0273 10.1445 14.5123 10.048C14.9972 9.95157 15.4999 10.0011 15.9567 10.1903C16.4135 10.3795 16.804 10.7 17.0787 11.1111C17.3534 11.5222 17.5 12.0055 17.5 12.5C17.5 13.163 17.2366 13.7989 16.7678 14.2678C16.2989 14.7366 15.663 15 15 15Z" fill="#DC241F"/>
</g>
<defs>
<clipPath id="clip0">
<rect width="20" height="20" fill="white" transform="translate(5 5)"/>
</clipPath>
</defs>
</svg>
