<svg width="18" height="24" viewBox="0 0 18 24" fill="none" xmlns="http://www.w3.org/2000/svg">
<path opacity="0.4" d="M9 -0.00012207C4.03125 -0.00012207 0 4.03113 0 8.99988C0 12.6285 1.26562 13.6405 8.07516 23.5157C8.17869 23.6651 8.31691 23.7873 8.47798 23.8717C8.63905 23.956 8.81817 24.0001 9 24.0001C9.18183 24.0001 9.36095 23.956 9.52202 23.8717C9.68309 23.7873 9.82131 23.6651 9.92484 23.5157C16.7344 13.6405 18 12.6285 18 8.99988C18 4.03113 13.9688 -0.00012207 9 -0.00012207ZM9 13.4999C8.10998 13.4999 7.23995 13.236 6.49993 12.7415C5.75991 12.247 5.18314 11.5442 4.84254 10.722C4.50195 9.89969 4.41283 8.99489 4.58647 8.12197C4.7601 7.24906 5.18868 6.44723 5.81802 5.8179C6.44736 5.18856 7.24918 4.75998 8.12209 4.58634C8.99501 4.41271 9.89981 4.50183 10.7221 4.84242C11.5443 5.18301 12.2471 5.75979 12.7416 6.49981C13.2361 7.23983 13.5 8.10986 13.5 8.99988C13.5 10.1934 13.0259 11.3379 12.182 12.1819C11.3381 13.0258 10.1935 13.4999 9 13.4999Z" fill="#DC241F"/>
<path d="M9 11.9999C8.40666 11.9999 7.82664 11.8239 7.33329 11.4943C6.83994 11.1646 6.45543 10.6961 6.22836 10.1479C6.0013 9.59975 5.94189 8.99655 6.05765 8.41461C6.1734 7.83267 6.45912 7.29812 6.87868 6.87856C7.29824 6.459 7.83279 6.17328 8.41473 6.05752C8.99667 5.94177 9.59987 6.00118 10.1481 6.22824C10.6962 6.4553 11.1648 6.83982 11.4944 7.33317C11.8241 7.82652 12 8.40654 12 8.99988C12 9.79553 11.6839 10.5586 11.1213 11.1212C10.5587 11.6838 9.79565 11.9999 9 11.9999Z" fill="#DC241F"/>
</svg>
