<svg width="16" height="17" viewBox="0 0 16 17" fill="none" xmlns="http://www.w3.org/2000/svg">
<path d="M14.2934 8.36629L8.16676 14.493C7.4162 15.2435 6.39821 15.6652 5.33676 15.6652C4.2753 15.6652 3.25732 15.2435 2.50676 14.493C1.7562 13.7424 1.33453 12.7244 1.33453 11.663C1.33453 10.6015 1.7562 9.58352 2.50676 8.83295L8.63342 2.70629C9.1338 2.20591 9.81245 1.9248 10.5201 1.9248C11.2277 1.9248 11.9064 2.20591 12.4068 2.70629C12.9071 3.20666 13.1882 3.88532 13.1882 4.59295C13.1882 5.30059 12.9071 5.97925 12.4068 6.47962L6.27342 12.6063C6.02324 12.8565 5.68391 12.997 5.33009 12.997C4.97627 12.997 4.63695 12.8565 4.38676 12.6063C4.13657 12.3561 3.99602 12.0168 3.99602 11.663C3.99602 11.3091 4.13657 10.9698 4.38676 10.7196L10.0468 5.06629" stroke="#DC241F" stroke-width="2" stroke-linecap="round" stroke-linejoin="round"/>
</svg>
