<svg width="18" height="18" viewBox="0 0 18 18" fill="none" xmlns="http://www.w3.org/2000/svg">
<g clip-path="url(#clip0)">
<path opacity="0.4" d="M3.75 13.1927V10.3548C3.75 10.22 3.80353 10.0908 3.89881 9.99553C3.99409 9.90025 4.12332 9.84672 4.25806 9.84672H7.09603C7.54863 9.84672 7.77535 10.394 7.45591 10.7147L6.57209 11.5985C7.23022 12.2169 8.10028 12.5597 9.00339 12.5564C10.6421 12.5549 12.0583 11.4315 12.4493 9.87107C12.4628 9.81584 12.4945 9.76674 12.5392 9.73162C12.5839 9.6965 12.6391 9.6774 12.696 9.67737H13.9092C13.9465 9.67734 13.9833 9.68552 14.0171 9.70132C14.0508 9.71713 14.0807 9.74018 14.1046 9.76883C14.1284 9.79748 14.1457 9.83103 14.1551 9.8671C14.1646 9.90318 14.166 9.94088 14.1592 9.97755C13.7011 12.4099 11.5655 14.2499 9 14.2499C7.64873 14.2518 6.34917 13.7307 5.37348 12.7958L4.61794 13.5514C4.29723 13.8721 3.75 13.6453 3.75 13.1927Z" fill="#88ADFF"/>
<path d="M3.84065 8.0224C4.29855 5.59005 6.43411 3.75 8.99963 3.75C10.3509 3.7482 11.6505 4.26928 12.6261 5.20413L13.3817 4.44859C13.7018 4.12851 14.2496 4.35524 14.2496 4.80847V7.64517C14.2496 7.77991 14.1961 7.90914 14.1008 8.00442C14.0055 8.0997 13.8763 8.15323 13.7416 8.15323H10.9036C10.451 8.15323 10.2243 7.606 10.5437 7.28529L11.4275 6.40147C10.7695 5.78304 9.89949 5.44024 8.99645 5.44355C7.35667 5.44504 5.94108 6.56934 5.55029 8.12889C5.53679 8.18411 5.50515 8.23322 5.46044 8.26833C5.41572 8.30345 5.36052 8.32255 5.30367 8.32259H4.09045C4.05318 8.32259 4.01637 8.31438 3.98263 8.29856C3.94888 8.28274 3.91903 8.25969 3.89519 8.23105C3.87135 8.2024 3.85411 8.16886 3.84468 8.1328C3.83526 8.09674 3.83388 8.05905 3.84065 8.0224Z" fill="#88ADFF"/>
</g>
<circle opacity="0.4" cx="9" cy="9" r="9" fill="#88ADFF"/>
<defs>
<clipPath id="clip0">
<rect width="10.5" height="10.5" fill="white" transform="translate(3.75 3.75)"/>
</clipPath>
</defs>
</svg>
