<svg width="30" height="30" viewBox="0 0 30 30" fill="none" xmlns="http://www.w3.org/2000/svg">
<rect width="30" height="30" rx="10" fill="#FFF5F4"/>
<g clip-path="url(#clip0)">
<path opacity="0.4" d="M9.90227 20.4209C9.98765 20.3357 10.1022 20.286 10.2228 20.2821C10.3434 20.2781 10.4611 20.3201 10.5519 20.3995C11.6168 21.3366 12.942 21.9269 14.3509 22.0918C15.7598 22.2568 17.1855 21.9886 18.4381 21.323C19.6907 20.6573 20.7108 19.6258 21.3624 18.3659C22.0141 17.1059 22.2664 15.6773 22.0858 14.2703C21.9051 12.8634 21.3001 11.5449 20.3512 10.4904C19.4024 9.43597 18.1548 8.69563 16.7747 8.36802C15.3945 8.04042 13.9473 8.1411 12.6258 8.65664C11.3043 9.17219 10.1713 10.0781 9.37758 11.2538L7.53345 11.3419L7.67305 8.78665C8.59534 7.69996 9.74327 6.82721 11.037 6.2291C12.3308 5.63099 13.7393 5.32187 15.1646 5.32325C20.5844 5.32325 25.0039 9.74639 25 15.1662C24.996 20.5946 20.5939 24.994 15.1646 24.994C12.7289 24.9981 10.3789 24.0949 8.5729 22.4606L8.55347 22.4423C8.5091 22.3981 8.4739 22.3456 8.44988 22.2878C8.42586 22.2299 8.4135 22.1679 8.4135 22.1052C8.4135 22.0426 8.42586 21.9806 8.44988 21.9227C8.4739 21.8649 8.5091 21.8124 8.55347 21.7681L9.90227 20.4209Z" fill="#DC241F"/>
<path d="M5.47392 5.00598H7.37754C7.5031 5.01265 7.62092 5.06874 7.70526 5.162C7.7896 5.25526 7.83361 5.3781 7.82767 5.5037L7.5334 11.3419L13.3847 11.0619H13.4077C13.5339 11.0619 13.6549 11.112 13.7442 11.2013C13.8334 11.2905 13.8836 11.4116 13.8836 11.5378V13.4136C13.8836 13.5399 13.8334 13.6609 13.7442 13.7502C13.6549 13.8394 13.5339 13.8895 13.4077 13.8895H5.47591C5.34969 13.8895 5.22864 13.8394 5.13939 13.7502C5.05014 13.6609 5 13.5399 5 13.4136V5.48189C5 5.35601 5.04987 5.23526 5.13869 5.14607C5.22751 5.05688 5.34805 5.00651 5.47392 5.00598V5.00598Z" fill="#DC241F"/>
</g>
<defs>
<clipPath id="clip0">
<rect width="20" height="20" fill="white" transform="translate(5 5)"/>
</clipPath>
</defs>
</svg>
