<svg width="16" height="16" viewBox="0 0 16 16" fill="none" xmlns="http://www.w3.org/2000/svg">
<path opacity="0.4" d="M8 0C3.58065 0 0 3.58065 0 8C0 12.4194 3.58065 16 8 16C12.4194 16 16 12.4194 16 8C16 3.58065 12.4194 0 8 0ZM11.9226 10.1C11.9587 10.136 11.9873 10.1787 12.0068 10.2257C12.0264 10.2728 12.0364 10.3232 12.0364 10.3742C12.0364 10.4251 12.0264 10.4756 12.0068 10.5226C11.9873 10.5697 11.9587 10.6124 11.9226 10.6484L10.6452 11.9226C10.6092 11.9587 10.5665 11.9873 10.5194 12.0068C10.4724 12.0264 10.4219 12.0364 10.371 12.0364C10.32 12.0364 10.2696 12.0264 10.2225 12.0068C10.1755 11.9873 10.1327 11.9587 10.0968 11.9226L8 9.80645L5.9 11.9226C5.86404 11.9587 5.8213 11.9873 5.77425 12.0068C5.7272 12.0264 5.67675 12.0364 5.62581 12.0364C5.57486 12.0364 5.52441 12.0264 5.47736 12.0068C5.43031 11.9873 5.38758 11.9587 5.35161 11.9226L4.07742 10.6452C4.04133 10.6092 4.0127 10.5665 3.99316 10.5194C3.97362 10.4724 3.96357 10.4219 3.96357 10.371C3.96357 10.32 3.97362 10.2696 3.99316 10.2225C4.0127 10.1755 4.04133 10.1327 4.07742 10.0968L6.19355 8L4.07742 5.9C4.04133 5.86404 4.0127 5.8213 3.99316 5.77425C3.97362 5.7272 3.96357 5.67675 3.96357 5.62581C3.96357 5.57486 3.97362 5.52441 3.99316 5.47736C4.0127 5.43031 4.04133 5.38758 4.07742 5.35161L5.35484 4.07419C5.3908 4.03811 5.43353 4.00947 5.48059 3.98993C5.52764 3.9704 5.57808 3.96034 5.62903 3.96034C5.67998 3.96034 5.73043 3.9704 5.77748 3.98993C5.82453 4.00947 5.86726 4.03811 5.90323 4.07419L8 6.19355L10.1 4.07742C10.136 4.04133 10.1787 4.0127 10.2257 3.99316C10.2728 3.97362 10.3232 3.96357 10.3742 3.96357C10.4251 3.96357 10.4756 3.97362 10.5226 3.99316C10.5697 4.0127 10.6124 4.04133 10.6484 4.07742L11.9258 5.35484C11.9619 5.3908 11.9905 5.43353 12.0101 5.48059C12.0296 5.52764 12.0397 5.57808 12.0397 5.62903C12.0397 5.67998 12.0296 5.73043 12.0101 5.77748C11.9905 5.82453 11.9619 5.86726 11.9258 5.90323L9.80645 8L11.9226 10.1Z" fill="#FF6A6A"/>
<path d="M11.9228 10.0994C11.9589 10.1353 11.9875 10.1781 12.0071 10.2251C12.0266 10.2722 12.0367 10.3226 12.0367 10.3736C12.0367 10.4245 12.0266 10.475 12.0071 10.522C11.9875 10.5691 11.9589 10.6118 11.9228 10.6478L10.6454 11.922C10.6094 11.958 10.5667 11.9867 10.5197 12.0062C10.4726 12.0258 10.4222 12.0358 10.3712 12.0358C10.3203 12.0358 10.2698 12.0258 10.2228 12.0062C10.1757 11.9867 10.133 11.958 10.097 11.922L8.00024 9.80583L5.90024 11.922C5.86428 11.958 5.82155 11.9867 5.77449 12.0062C5.72744 12.0258 5.67699 12.0358 5.62605 12.0358C5.5751 12.0358 5.52465 12.0258 5.4776 12.0062C5.43055 11.9867 5.38782 11.958 5.35185 11.922L4.07766 10.6445C4.04157 10.6086 4.01294 10.5658 3.9934 10.5188C3.97386 10.4717 3.96381 10.4213 3.96381 10.3703C3.96381 10.3194 3.97386 10.269 3.9934 10.2219C4.01294 10.1748 4.04157 10.1321 4.07766 10.0962L6.19379 7.99938L4.07766 5.89938C4.04157 5.86341 4.01294 5.82068 3.9934 5.77363C3.97386 5.72658 3.96381 5.67613 3.96381 5.62518C3.96381 5.57424 3.97386 5.52379 3.9934 5.47674C4.01294 5.42969 4.04157 5.38695 4.07766 5.35099L5.35508 4.07357C5.39104 4.03748 5.43377 4.00885 5.48083 3.98931C5.52788 3.96977 5.57833 3.95972 5.62927 3.95972C5.68022 3.95972 5.73067 3.96977 5.77772 3.98931C5.82477 4.00885 5.8675 4.03748 5.90347 4.07357L8.00024 6.19293L10.1002 4.0768C10.1362 4.04071 10.1789 4.01208 10.226 3.99254C10.273 3.973 10.3235 3.96294 10.3744 3.96294C10.4254 3.96294 10.4758 3.973 10.5229 3.99254C10.5699 4.01208 10.6127 4.04071 10.6486 4.0768L11.926 5.35422C11.9621 5.39018 11.9908 5.43291 12.0103 5.47996C12.0298 5.52702 12.0399 5.57746 12.0399 5.62841C12.0399 5.67936 12.0298 5.7298 12.0103 5.77686C11.9908 5.82391 11.9621 5.86664 11.926 5.9026L9.80669 7.99938L11.9228 10.0994Z" fill="#FF6A6A"/>
</svg>
