<svg width="24" height="24" viewBox="0 0 24 24" fill="none" xmlns="http://www.w3.org/2000/svg">
<path opacity="0.4" d="M18.2368 14.7958L18.2361 14.7951L15.4201 12.0005L18.2404 9.21028L18.2417 9.209C18.3424 9.10861 18.4223 8.98931 18.4769 8.85796C18.5314 8.72661 18.5595 8.58578 18.5595 8.44355C18.5595 8.30131 18.5314 8.16049 18.4769 8.02914C18.4224 7.89801 18.3427 7.7789 18.2422 7.67861C18.242 7.67844 18.2418 7.67827 18.2417 7.67809L16.3267 5.76319C16.2263 5.66244 16.1071 5.58251 15.9757 5.52797C15.8443 5.47342 15.7035 5.44535 15.5613 5.44535C15.4191 5.44535 15.2782 5.47342 15.1469 5.52797L15.3386 5.98974L15.1469 5.52797C15.0155 5.58251 14.8962 5.66244 14.7958 5.76319L14.7951 5.76393L12.0005 8.57995L9.21028 5.75963L9.20901 5.75835C9.10861 5.65761 8.98931 5.57767 8.85796 5.52313C8.72661 5.46859 8.58578 5.44051 8.44355 5.44051C8.30132 5.44051 8.16049 5.46859 8.02914 5.52313C7.89792 5.57761 7.77873 5.65744 7.6784 5.75804C7.6783 5.75814 7.67819 5.75825 7.67809 5.75835L5.76319 7.67325C5.76309 7.67336 5.76298 7.67346 5.76288 7.67356C5.66228 7.7739 5.58245 7.89308 5.52797 8.0243C5.47342 8.15565 5.44535 8.29648 5.44535 8.43871C5.44535 8.58094 5.47342 8.72177 5.52797 8.85312C5.58251 8.98447 5.66244 9.10377 5.76319 9.20417L5.76393 9.2049L8.58022 11.9997L5.7642 14.79L5.76319 14.791C5.66244 14.8914 5.58251 15.0107 5.52797 15.142L5.98974 15.3338L5.52797 15.142C5.47342 15.2734 5.44535 15.4142 5.44535 15.5565C5.44535 15.6987 5.47342 15.8395 5.52797 15.9709C5.58244 16.102 5.66223 16.2212 5.76279 16.3215C5.76292 16.3216 5.76306 16.3218 5.76319 16.3219L7.67325 18.2368C7.77365 18.3376 7.89294 18.4175 8.0243 18.472C8.15565 18.5266 8.29648 18.5547 8.43871 18.5547C8.58094 18.5547 8.72176 18.5266 8.85312 18.472C8.98448 18.4175 9.10377 18.3376 9.20416 18.2368L9.2049 18.2361L11.9997 15.4198L14.79 18.2358L14.791 18.2368C14.8914 18.3376 15.0107 18.4175 15.142 18.472C15.2734 18.5266 15.4142 18.5547 15.5565 18.5547C15.6987 18.5547 15.8395 18.5266 15.9709 18.472C16.102 18.4176 16.2211 18.3378 16.3214 18.2373C16.3216 18.2371 16.3217 18.237 16.3219 18.2368L18.2368 16.3267C18.3376 16.2264 18.4175 16.1071 18.472 15.9757C18.5266 15.8443 18.5547 15.7035 18.5547 15.5613C18.5547 15.4191 18.5266 15.2782 18.472 15.1469C18.4175 15.0155 18.3376 14.8962 18.2368 14.7958ZM0.5 12C0.5 5.64711 5.64711 0.5 12 0.5C18.3529 0.5 23.5 5.64711 23.5 12C23.5 18.3529 18.3529 23.5 12 23.5C5.64711 23.5 0.5 18.3529 0.5 12Z" fill="#FFF7F7" stroke="#FFF7F7"/>
</svg>
