<svg width="24" height="24" viewBox="0 0 24 24" fill="none" xmlns="http://www.w3.org/2000/svg">
<path opacity="0.4" d="M22.7695 8.21606L16.2162 7.26235L13.2866 1.33458C12.7623 0.278338 11.2413 0.264905 10.7129 1.33458L7.78329 7.26235L1.23001 8.21606C0.0537683 8.38576 -0.417265 9.83154 0.435252 10.6599L5.17738 15.2717L4.058 21.786C3.85562 22.9636 5.09768 23.8457 6.13915 23.2945L11.9998 20.2185L17.8622 23.2941C18.9036 23.8408 20.1457 22.9632 19.9433 21.7856L18.8239 15.2713L23.566 10.6594C24.4168 9.83154 23.9457 8.38576 22.7695 8.21606ZM18.6999 11.3951L15.7425 14.271L16.4423 18.3393C16.4593 18.438 16.4483 18.5396 16.4106 18.6325C16.3729 18.7253 16.31 18.8058 16.2289 18.8647C16.1479 18.9237 16.0519 18.9588 15.952 18.9661C15.852 18.9735 15.752 18.9527 15.6632 18.9061L11.9998 16.9817L8.33626 18.9043C8.2475 18.9509 8.14748 18.9717 8.04752 18.9644C7.94756 18.957 7.85164 18.9219 7.77059 18.863C7.68955 18.804 7.62661 18.7235 7.5889 18.6307C7.55118 18.5378 7.54019 18.4362 7.55717 18.3375L8.25701 14.2692L5.30185 11.3933C5.23022 11.3235 5.1795 11.2351 5.1554 11.138C5.1313 11.0409 5.13478 10.939 5.16544 10.8438C5.19611 10.7486 5.25275 10.6638 5.32898 10.5991C5.40521 10.5343 5.498 10.4921 5.59692 10.4772L9.68667 9.88259L11.518 6.17477C11.5624 6.08488 11.631 6.0092 11.7161 5.95629C11.8013 5.90337 11.8995 5.87533 11.9998 5.87533C12.1 5.87533 12.1982 5.90337 12.2834 5.95629C12.3685 6.0092 12.4372 6.08488 12.4815 6.17477L14.3128 9.88259L18.4026 10.4772C18.5017 10.4917 18.5947 10.5337 18.6713 10.5983C18.7478 10.663 18.8047 10.7477 18.8356 10.843C18.8666 10.9382 18.8702 11.0402 18.8462 11.1375C18.8223 11.2347 18.7716 11.3233 18.6999 11.3933V11.3951Z" fill="#DC241F"/>
<path d="M18.7 11.3924L15.7426 14.2683L16.4424 18.3366C16.4594 18.4354 16.4484 18.5369 16.4107 18.6298C16.373 18.7226 16.31 18.8031 16.229 18.8621C16.1479 18.921 16.052 18.9562 15.9521 18.9635C15.8521 18.9708 15.7521 18.95 15.6633 18.9034L11.9998 16.9808L8.33634 18.9034C8.24758 18.95 8.14756 18.9708 8.0476 18.9635C7.94764 18.9562 7.85172 18.921 7.77067 18.8621C7.68963 18.8031 7.62669 18.7226 7.58898 18.6298C7.55126 18.5369 7.54027 18.4354 7.55725 18.3366L8.25709 14.2683L5.30193 11.3924C5.2303 11.3226 5.17958 11.2342 5.15548 11.1371C5.13138 11.04 5.13486 10.9381 5.16552 10.8429C5.19619 10.7477 5.25283 10.6629 5.32906 10.5982C5.40529 10.5334 5.49808 10.4912 5.597 10.4763L9.68675 9.88171L11.5181 6.17389C11.5624 6.084 11.6311 6.00832 11.7162 5.95541C11.8013 5.90249 11.8996 5.87445 11.9998 5.87445C12.1001 5.87445 12.1983 5.90249 12.2835 5.95541C12.3686 6.00832 12.4372 6.084 12.4816 6.17389L14.3129 9.88171L18.4027 10.4763C18.5018 10.4909 18.5948 10.5328 18.6714 10.5974C18.7479 10.6621 18.8048 10.7468 18.8357 10.8421C18.8666 10.9373 18.8703 11.0394 18.8463 11.1366C18.8223 11.2338 18.7716 11.3225 18.7 11.3924Z" fill="#DC241F"/>
</svg>
