<svg width="30" height="30" viewBox="0 0 30 30" fill="none" xmlns="http://www.w3.org/2000/svg">
<rect width="30" height="30" rx="10" fill="#FFF5F4"/>
<path opacity="0.4" d="M23.9746 11.8467L18.5135 11.0519L16.0722 6.11211C15.6352 5.23191 14.3677 5.22071 13.9274 6.11211L11.4861 11.0519L6.02501 11.8467C5.04481 11.9881 4.65228 13.1929 5.36271 13.8832L9.31448 17.7264L8.38167 23.155C8.21302 24.1363 9.24807 24.8714 10.116 24.4121L14.9998 21.8487L19.8851 24.4117C20.753 24.8673 21.7881 24.1359 21.6194 23.1546L20.6866 17.726L24.6384 13.8828C25.3473 13.1929 24.9548 11.9881 23.9746 11.8467ZM20.5832 14.4959L18.1188 16.8925L18.7019 20.2827C18.7161 20.365 18.7069 20.4496 18.6755 20.527C18.6441 20.6044 18.5916 20.6714 18.5241 20.7206C18.4566 20.7697 18.3766 20.799 18.2933 20.8051C18.21 20.8112 18.1267 20.7938 18.0527 20.755L14.9998 19.1514L11.9469 20.7536C11.8729 20.7923 11.7896 20.8097 11.7063 20.8036C11.623 20.7975 11.543 20.7682 11.4755 20.7191C11.408 20.6699 11.3555 20.6029 11.3241 20.5255C11.2927 20.4481 11.2835 20.3635 11.2976 20.2812L11.8808 16.891L9.41821 14.4944C9.35852 14.4362 9.31625 14.3625 9.29616 14.2816C9.27608 14.2007 9.27898 14.1158 9.30454 14.0365C9.33009 13.9571 9.37729 13.8865 9.44081 13.8325C9.50434 13.7785 9.58167 13.7434 9.6641 13.731L13.0722 13.2354L14.5983 10.1456C14.6353 10.0707 14.6925 10.0076 14.7634 9.96353C14.8344 9.91944 14.9163 9.89607 14.9998 9.89607C15.0833 9.89607 15.1652 9.91944 15.2361 9.96353C15.3071 10.0076 15.3643 10.0707 15.4013 10.1456L16.9274 13.2354L20.3355 13.731C20.4181 13.7431 20.4956 13.778 20.5594 13.8319C20.6232 13.8858 20.6706 13.9564 20.6964 14.0358C20.7221 14.1151 20.7252 14.2002 20.7052 14.2812C20.6852 14.3622 20.643 14.4361 20.5832 14.4944V14.4959Z" fill="#DC241F"/>
<path d="M20.5835 14.4937L18.119 16.8903L18.7022 20.2805C18.7163 20.3628 18.7072 20.4474 18.6757 20.5248C18.6443 20.6022 18.5919 20.6693 18.5243 20.7184C18.4568 20.7675 18.3769 20.7968 18.2935 20.8029C18.2102 20.809 18.1269 20.7917 18.0529 20.7529L15 19.1507L11.9471 20.7529C11.8731 20.7917 11.7898 20.809 11.7065 20.8029C11.6232 20.7968 11.5433 20.7675 11.4757 20.7184C11.4082 20.6693 11.3557 20.6022 11.3243 20.5248C11.2929 20.4474 11.2837 20.3628 11.2979 20.2805L11.8811 16.8903L9.41844 14.4937C9.35874 14.4355 9.31648 14.3618 9.29639 14.2809C9.27631 14.2 9.27921 14.1151 9.30476 14.0358C9.33032 13.9564 9.37752 13.8858 9.44104 13.8318C9.50457 13.7778 9.5819 13.7427 9.66433 13.7303L13.0725 13.2348L14.5985 10.1449C14.6355 10.07 14.6927 10.0069 14.7637 9.96285C14.8346 9.91875 14.9165 9.89539 15 9.89539C15.0836 9.89539 15.1654 9.91875 15.2364 9.96285C15.3073 10.0069 15.3645 10.07 15.4015 10.1449L16.9276 13.2348L20.3357 13.7303C20.4183 13.7424 20.4959 13.7774 20.5596 13.8312C20.6234 13.8851 20.6708 13.9557 20.6966 14.0351C20.7224 14.1145 20.7254 14.1995 20.7054 14.2805C20.6854 14.3616 20.6432 14.4354 20.5835 14.4937Z" fill="#DC241F"/>
</svg>
