<svg width="18" height="18" viewBox="0 0 18 18" fill="none" xmlns="http://www.w3.org/2000/svg">
<path opacity="0.4" d="M9 0C4.02823 0 0 4.02823 0 9C0 13.9718 4.02823 18 9 18C13.9718 18 18 13.9718 18 9C18 4.02823 13.9718 0 9 0ZM14.2258 10.0161C14.2258 10.1316 14.1799 10.2424 14.0983 10.3241C14.0166 10.4057 13.9058 10.4516 13.7903 10.4516H4.20968C4.09418 10.4516 3.98341 10.4057 3.90174 10.3241C3.82007 10.2424 3.77419 10.1316 3.77419 10.0161V7.98387C3.77419 7.86837 3.82007 7.75761 3.90174 7.67594C3.98341 7.59427 4.09418 7.54839 4.20968 7.54839H13.7903C13.9058 7.54839 14.0166 7.59427 14.0983 7.67594C14.1799 7.75761 14.2258 7.86837 14.2258 7.98387V10.0161Z" fill="#BCC8E7"/>
<path d="M14.226 10.0162C14.226 10.1317 14.1801 10.2425 14.0985 10.3241C14.0168 10.4058 13.906 10.4517 13.7905 10.4517H4.2099C4.0944 10.4517 3.98363 10.4058 3.90196 10.3241C3.8203 10.2425 3.77441 10.1317 3.77441 10.0162V7.98395C3.77441 7.86845 3.8203 7.75768 3.90196 7.67601C3.98363 7.59434 4.0944 7.54846 4.2099 7.54846H13.7905C13.906 7.54846 14.0168 7.59434 14.0985 7.67601C14.1801 7.75768 14.226 7.86845 14.226 7.98395V10.0162Z" fill="#BCC8E7"/>
</svg>
