<svg width="15" height="15" viewBox="0 0 20 20" fill="none" xmlns="http://www.w3.org/2000/svg">
    <path opacity="0.4" d="M0.00012207 17.9862V12.5806C0.00012207 12.3239 0.10208 12.0778 0.283567 11.8963C0.465054 11.7148 0.711203 11.6129 0.967864 11.6129H6.37351C7.23561 11.6129 7.66746 12.6552 7.05899 13.2661L5.37553 14.9496C6.62912 16.1275 8.28638 16.7805 10.0066 16.7741C13.1279 16.7713 15.8255 14.6314 16.5703 11.6592C16.596 11.554 16.6563 11.4605 16.7414 11.3936C16.8266 11.3267 16.9317 11.2903 17.04 11.2903H19.3509C19.422 11.2902 19.4921 11.3058 19.5564 11.3359C19.6208 11.366 19.6777 11.4099 19.7231 11.4645C19.7686 11.5191 19.8015 11.583 19.8194 11.6517C19.8374 11.7204 19.84 11.7922 19.8271 11.8621C18.9546 16.4951 14.8868 19.9999 10.0001 19.9999C7.42628 20.0034 4.95093 19.0109 3.09246 17.2302L1.65335 18.6693C1.04246 19.2802 0.00012207 18.8483 0.00012207 17.9862Z" fill="#749BFF"/>
    <path d="M0.173335 8.13791C1.04551 3.50485 5.11325 8.94344e-06 9.99995 8.94344e-06C12.5738 -0.00343711 15.0491 0.989103 16.9076 2.76977L18.3467 1.33065C18.9564 0.720977 20 1.15283 20 2.01614V7.41936C20 7.67603 19.898 7.92217 19.7165 8.10366C19.535 8.28515 19.2889 8.38711 19.0322 8.38711H13.6266C12.7645 8.38711 12.3326 7.34477 12.9411 6.73388L14.6245 5.05041C13.3711 3.87246 11.714 3.21951 9.9939 3.22582C6.87051 3.22864 4.17414 5.37017 3.42979 8.34074C3.40407 8.44593 3.3438 8.53946 3.25863 8.60635C3.17347 8.67324 3.06832 8.70963 2.96003 8.70969H0.649141C0.578153 8.70969 0.508035 8.69406 0.44376 8.66393C0.379485 8.6338 0.322627 8.58989 0.277219 8.53533C0.231812 8.48076 0.198967 8.41687 0.181013 8.34819C0.16306 8.27951 0.160439 8.20772 0.173335 8.13791Z" fill="#749BFF"/>
</svg>
