<svg width="24" height="24" viewBox="0 0 24 24" fill="none" xmlns="http://www.w3.org/2000/svg">
<path opacity="0.4" d="M12 0C5.37097 0 0 5.37097 0 12C0 18.629 5.37097 24 12 24C18.629 24 24 18.629 24 12C24 5.37097 18.629 0 12 0ZM17.8839 15.15C17.938 15.2039 17.981 15.268 18.0103 15.3386C18.0396 15.4092 18.0547 15.4849 18.0547 15.5613C18.0547 15.6377 18.0396 15.7134 18.0103 15.784C17.981 15.8545 17.938 15.9186 17.8839 15.9726L15.9677 17.8839C15.9138 17.938 15.8497 17.981 15.7791 18.0103C15.7085 18.0396 15.6329 18.0547 15.5565 18.0547C15.48 18.0547 15.4044 18.0396 15.3338 18.0103C15.2632 17.981 15.1991 17.938 15.1452 17.8839L12 14.7097L8.85 17.8839C8.79606 17.938 8.73196 17.981 8.66138 18.0103C8.5908 18.0396 8.51513 18.0547 8.43871 18.0547C8.36229 18.0547 8.28662 18.0396 8.21604 18.0103C8.14546 17.981 8.08136 17.938 8.02742 17.8839L6.11613 15.9677C6.062 15.9138 6.01905 15.8497 5.98974 15.7791C5.96043 15.7085 5.94535 15.6329 5.94535 15.5565C5.94535 15.48 5.96043 15.4044 5.98974 15.3338C6.01905 15.2632 6.062 15.1991 6.11613 15.1452L9.29032 12L6.11613 8.85C6.062 8.79606 6.01905 8.73196 5.98974 8.66138C5.96043 8.5908 5.94535 8.51513 5.94535 8.43871C5.94535 8.36229 5.96043 8.28662 5.98974 8.21604C6.01905 8.14546 6.062 8.08136 6.11613 8.02742L8.03226 6.11129C8.0862 6.05716 8.1503 6.01421 8.22088 5.9849C8.29146 5.9556 8.36713 5.94051 8.44355 5.94051C8.51997 5.94051 8.59564 5.9556 8.66622 5.9849C8.7368 6.01421 8.80089 6.05716 8.85484 6.11129L12 9.29032L15.15 6.11613C15.2039 6.062 15.268 6.01905 15.3386 5.98974C15.4092 5.96043 15.4849 5.94535 15.5613 5.94535C15.6377 5.94535 15.7134 5.96043 15.784 5.98974C15.8545 6.01905 15.9186 6.062 15.9726 6.11613L17.8887 8.03226C17.9428 8.0862 17.9858 8.1503 18.0151 8.22088C18.0444 8.29146 18.0595 8.36713 18.0595 8.44355C18.0595 8.51997 18.0444 8.59564 18.0151 8.66622C17.9858 8.7368 17.9428 8.80089 17.8887 8.85484L14.7097 12L17.8839 15.15Z" fill="#DC241F"/>
<path d="M17.8843 15.149C17.9385 15.2029 17.9814 15.267 18.0107 15.3376C18.04 15.4082 18.0551 15.4839 18.0551 15.5603C18.0551 15.6367 18.04 15.7124 18.0107 15.783C17.9814 15.8535 17.9385 15.9176 17.8843 15.9716L15.9682 17.8829C15.9143 17.937 15.8502 17.98 15.7796 18.0093C15.709 18.0386 15.6333 18.0537 15.5569 18.0537C15.4805 18.0537 15.4048 18.0386 15.3342 18.0093C15.2637 17.98 15.1996 17.937 15.1456 17.8829L12.0005 14.7087L8.85045 17.8829C8.79651 17.937 8.73241 17.98 8.66183 18.0093C8.59125 18.0386 8.51558 18.0537 8.43916 18.0537C8.36274 18.0537 8.28707 18.0386 8.21649 18.0093C8.14591 17.98 8.08182 17.937 8.02787 17.8829L6.11658 15.9667C6.06245 15.9128 6.0195 15.8487 5.99019 15.7781C5.96089 15.7075 5.9458 15.6319 5.9458 15.5555C5.9458 15.479 5.96089 15.4034 5.99019 15.3328C6.0195 15.2622 6.06245 15.1981 6.11658 15.1442L9.29077 11.999L6.11658 8.849C6.06245 8.79506 6.0195 8.73096 5.99019 8.66038C5.96089 8.5898 5.9458 8.51413 5.9458 8.43771C5.9458 8.36129 5.96089 8.28562 5.99019 8.21504C6.0195 8.14447 6.06245 8.08037 6.11658 8.02642L8.03271 6.11029C8.08665 6.05616 8.15075 6.01321 8.22133 5.98391C8.29191 5.9546 8.36758 5.93951 8.444 5.93951C8.52042 5.93951 8.59609 5.9546 8.66667 5.98391C8.73725 6.01321 8.80135 6.05616 8.85529 6.11029L12.0005 9.28933L15.1505 6.11513C15.2044 6.061 15.2685 6.01805 15.3391 5.98875C15.4097 5.95944 15.4853 5.94435 15.5617 5.94435C15.6382 5.94435 15.7138 5.95944 15.7844 5.98875C15.855 6.01805 15.9191 6.061 15.973 6.11513L17.8892 8.03126C17.9433 8.08521 17.9862 8.14931 18.0155 8.21988C18.0449 8.29046 18.0599 8.36613 18.0599 8.44255C18.0599 8.51897 18.0449 8.59464 18.0155 8.66522C17.9862 8.7358 17.9433 8.7999 17.8892 8.85384L14.7101 11.999L17.8843 15.149Z" fill="#DC241F"/>
</svg>
