<svg width="70" height="80" viewBox="0 0 70 80" fill="none" xmlns="http://www.w3.org/2000/svg">
<path opacity="0.4" d="M5 72.5C5 74.4891 5.79018 76.3968 7.1967 77.8033C8.60322 79.2098 10.5109 80 12.5 80H57.5C59.4891 80 61.3968 79.2098 62.8033 77.8033C64.2098 76.3968 65 74.4891 65 72.5V15H5V72.5ZM47.5 27.5C47.5 26.837 47.7634 26.2011 48.2322 25.7322C48.7011 25.2634 49.337 25 50 25C50.663 25 51.2989 25.2634 51.7678 25.7322C52.2366 26.2011 52.5 26.837 52.5 27.5V62.5C52.5 63.163 52.2366 63.7989 51.7678 64.2678C51.2989 64.7366 50.663 65 50 65C49.337 65 48.7011 64.7366 48.2322 64.2678C47.7634 63.7989 47.5 63.163 47.5 62.5V27.5ZM32.5 27.5C32.5 26.837 32.7634 26.2011 33.2322 25.7322C33.7011 25.2634 34.337 25 35 25C35.663 25 36.2989 25.2634 36.7678 25.7322C37.2366 26.2011 37.5 26.837 37.5 27.5V62.5C37.5 63.163 37.2366 63.7989 36.7678 64.2678C36.2989 64.7366 35.663 65 35 65C34.337 65 33.7011 64.7366 33.2322 64.2678C32.7634 63.7989 32.5 63.163 32.5 62.5V27.5ZM17.5 27.5C17.5 26.837 17.7634 26.2011 18.2322 25.7322C18.7011 25.2634 19.337 25 20 25C20.663 25 21.2989 25.2634 21.7678 25.7322C22.2366 26.2011 22.5 26.837 22.5 27.5V62.5C22.5 63.163 22.2366 63.7989 21.7678 64.2678C21.2989 64.7366 20.663 65 20 65C19.337 65 18.7011 64.7366 18.2322 64.2678C17.7634 63.7989 17.5 63.163 17.5 62.5V27.5Z" fill="#FF6F6F"/>
<path d="M67.5 5.00003H48.75L47.2812 2.07815C46.9701 1.45349 46.4909 0.928032 45.8974 0.5609C45.3039 0.193768 44.6197 -0.000473119 43.9219 2.73949e-05H26.0625C25.3662 -0.00264925 24.6833 0.190868 24.0919 0.558408C23.5005 0.925948 23.0246 1.45264 22.7188 2.07815L21.25 5.00003H2.5C1.83696 5.00003 1.20107 5.26342 0.732233 5.73226C0.263392 6.2011 0 6.83699 0 7.50003L0 12.5C0 13.1631 0.263392 13.799 0.732233 14.2678C1.20107 14.7366 1.83696 15 2.5 15H67.5C68.163 15 68.7989 14.7366 69.2678 14.2678C69.7366 13.799 70 13.1631 70 12.5V7.50003C70 6.83699 69.7366 6.2011 69.2678 5.73226C68.7989 5.26342 68.163 5.00003 67.5 5.00003ZM20 25C19.337 25 18.7011 25.2634 18.2322 25.7323C17.7634 26.2011 17.5 26.837 17.5 27.5V62.5C17.5 63.1631 17.7634 63.799 18.2322 64.2678C18.7011 64.7366 19.337 65 20 65C20.663 65 21.2989 64.7366 21.7678 64.2678C22.2366 63.799 22.5 63.1631 22.5 62.5V27.5C22.5 26.837 22.2366 26.2011 21.7678 25.7323C21.2989 25.2634 20.663 25 20 25ZM35 25C34.337 25 33.7011 25.2634 33.2322 25.7323C32.7634 26.2011 32.5 26.837 32.5 27.5V62.5C32.5 63.1631 32.7634 63.799 33.2322 64.2678C33.7011 64.7366 34.337 65 35 65C35.663 65 36.2989 64.7366 36.7678 64.2678C37.2366 63.799 37.5 63.1631 37.5 62.5V27.5C37.5 26.837 37.2366 26.2011 36.7678 25.7323C36.2989 25.2634 35.663 25 35 25ZM50 25C49.337 25 48.7011 25.2634 48.2322 25.7323C47.7634 26.2011 47.5 26.837 47.5 27.5V62.5C47.5 63.1631 47.7634 63.799 48.2322 64.2678C48.7011 64.7366 49.337 65 50 65C50.663 65 51.2989 64.7366 51.7678 64.2678C52.2366 63.799 52.5 63.1631 52.5 62.5V27.5C52.5 26.837 52.2366 26.2011 51.7678 25.7323C51.2989 25.2634 50.663 25 50 25Z" fill="#FF6F6F"/>
</svg>
