<svg width="30" height="30" viewBox="0 0 30 30" fill="none" xmlns="http://www.w3.org/2000/svg">
<rect width="30" height="30" rx="10" fill="#FFF5F4"/>
<path opacity="0.4" d="M20.0001 15C20.5934 15 21.1734 14.8241 21.6668 14.4944C22.1601 14.1648 22.5446 13.6963 22.7717 13.1481C22.9987 12.5999 23.0582 11.9967 22.9424 11.4148C22.8266 10.8328 22.5409 10.2983 22.1214 9.87874C21.7018 9.45918 21.1673 9.17346 20.5853 9.05771C20.0034 8.94195 19.4002 9.00136 18.852 9.22842C18.3038 9.45548 17.8353 9.84 17.5057 10.3333C17.176 10.8267 17.0001 11.4067 17.0001 12C17.0001 12.7957 17.3162 13.5588 17.8788 14.1214C18.4414 14.684 19.2044 15 20.0001 15ZM21.5001 16H21.3813C20.9469 16.15 20.4876 16.25 20.0001 16.25C19.5126 16.25 19.0532 16.15 18.6188 16H18.5001C17.8626 16 17.2751 16.1844 16.7595 16.4813C17.522 17.3031 18.0001 18.3938 18.0001 19.6V20.8C18.0001 20.8688 17.9845 20.9344 17.9813 21H23.5C23.8979 21 24.2794 20.842 24.5607 20.5607C24.842 20.2794 25 19.8978 25 19.5C25.0003 19.0403 24.9099 18.5851 24.7341 18.1603C24.5583 17.7356 24.3005 17.3497 23.9755 17.0246C23.6504 16.6995 23.2645 16.4418 22.8397 16.2659C22.415 16.0901 21.9597 15.9998 21.5001 16Z" fill="#DC241F"/>
<path d="M11 15C11.6922 15 12.3689 14.7948 12.9445 14.4102C13.52 14.0256 13.9686 13.479 14.2335 12.8394C14.4984 12.1999 14.5677 11.4962 14.4327 10.8172C14.2977 10.1383 13.9643 9.51467 13.4748 9.02518C12.9854 8.5357 12.3617 8.20236 11.6828 8.06731C11.0039 7.93227 10.3001 8.00158 9.66058 8.26648C9.02105 8.53139 8.47442 8.97999 8.08984 9.55556C7.70526 10.1311 7.49999 10.8078 7.49999 11.5C7.49974 11.9597 7.5901 12.415 7.76591 12.8397C7.94171 13.2645 8.19951 13.6504 8.52456 13.9755C8.84961 14.3005 9.23554 14.5583 9.66029 14.7341C10.085 14.9099 10.5403 15.0003 11 15ZM13.4 16H13.1406C12.4739 16.3259 11.7421 16.4968 11 16.5C10.2312 16.5 9.51248 16.3125 8.85936 16H8.59998C7.64528 16.0003 6.72976 16.3796 6.05468 17.0547C5.37961 17.7298 5.00025 18.6453 5 19.6V20.5C5 20.8978 5.15803 21.2794 5.43934 21.5607C5.72064 21.842 6.10217 22 6.49999 22H15.4999C15.8978 22 16.2793 21.842 16.5606 21.5607C16.8419 21.2794 16.9999 20.8978 16.9999 20.5V19.6C16.9997 18.6453 16.6203 17.7298 15.9453 17.0547C15.2702 16.3796 14.3547 16.0003 13.4 16Z" fill="#DC241F"/>
</svg>
