<svg width="80" height="72" viewBox="0 0 80 72" fill="none" xmlns="http://www.w3.org/2000/svg">
<path opacity="0.4" d="M79.0983 61.5552L45.7738 3.77829C43.2128 -0.666087 36.7892 -0.666087 34.224 3.77829L0.899507 61.5552C-1.65879 65.9912 1.54394 71.5551 6.67303 71.5551H73.3234C78.4442 71.5551 81.665 65.9996 79.0983 61.5552ZM39.9989 62.6663C39.1199 62.6663 38.2606 62.4056 37.5297 61.9173C36.7989 61.4289 36.2292 60.7348 35.8928 59.9227C35.5565 59.1106 35.4684 58.217 35.6399 57.3549C35.8114 56.4927 36.2347 55.7008 36.8563 55.0793C37.4778 54.4577 38.2697 54.0344 39.1319 53.8629C39.994 53.6915 40.8876 53.7795 41.6997 54.1158C42.5118 54.4522 43.2059 55.0219 43.6943 55.7528C44.1826 56.4836 44.4433 57.3429 44.4433 58.2219C44.4433 59.4006 43.975 60.5311 43.1416 61.3646C42.3081 62.1981 41.1776 62.6663 39.9989 62.6663ZM45.3099 29.5543L43.5322 47.3318C43.4774 47.8802 43.2208 48.3887 42.8123 48.7585C42.4037 49.1283 41.8722 49.3331 41.3211 49.3332H38.6823C38.1312 49.3331 37.5997 49.1283 37.1911 48.7585C36.7825 48.3887 36.526 47.8802 36.4712 47.3318L34.6934 29.5543C34.6626 29.2459 34.6967 28.9344 34.7934 28.6399C34.8902 28.3454 35.0475 28.0744 35.2552 27.8444C35.4629 27.6143 35.7164 27.4302 35.9995 27.3039C36.2826 27.1777 36.589 27.1121 36.899 27.1113H43.0989C43.4093 27.1113 43.7163 27.1763 44 27.3023C44.2838 27.4282 44.538 27.6121 44.7463 27.8423C44.9547 28.0725 45.1124 28.3437 45.2095 28.6386C45.3066 28.9335 45.3408 29.2454 45.3099 29.5543Z" fill="#FF6F6F"/>
<path d="M43.1007 27.1113H36.9008C36.5904 27.1113 36.2834 27.1764 35.9996 27.3023C35.7159 27.4282 35.4616 27.6122 35.2533 27.8424C35.045 28.0725 34.8872 28.3438 34.7901 28.6386C34.6931 28.9335 34.6589 29.2454 34.6897 29.5543L36.4675 47.3319C36.5222 47.8802 36.7788 48.3887 37.1874 48.7585C37.596 49.1284 38.1274 49.3332 38.6785 49.3332H41.3174C41.8685 49.3332 42.3999 49.1284 42.8085 48.7585C43.2171 48.3887 43.4737 47.8802 43.5285 47.3319L45.3062 29.5543C45.337 29.2459 45.303 28.9344 45.2062 28.64C45.1095 28.3455 44.9522 28.0745 44.7445 27.8444C44.5368 27.6143 44.2832 27.4302 44.0001 27.304C43.717 27.1777 43.4107 27.1121 43.1007 27.1113ZM40.0007 53.7776C39.1217 53.7776 38.2625 54.0383 37.5316 54.5266C36.8007 55.015 36.2311 55.7091 35.8947 56.5212C35.5583 57.3333 35.4703 58.2269 35.6418 59.089C35.8132 59.9512 36.2365 60.7431 36.8581 61.3646C37.4797 61.9862 38.2716 62.4095 39.1337 62.581C39.9958 62.7524 40.8894 62.6644 41.7015 62.328C42.5136 61.9917 43.2078 61.422 43.6961 60.6911C44.1845 59.9603 44.4451 59.101 44.4451 58.222C44.4451 57.0433 43.9769 55.9128 43.1434 55.0793C42.3099 54.2458 41.1795 53.7776 40.0007 53.7776Z" fill="#FF6F6F"/>
</svg>
