<svg width="697" height="238" viewBox="0 0 697 238" fill="none" xmlns="http://www.w3.org/2000/svg">
<path d="M0 0H697V238H0V0Z" fill="#004D6E"/>
<path fill-rule="evenodd" clip-rule="evenodd" d="M467.412 159.217V134.27H524.8V185.391C513.814 192.862 504.099 197.946 495.655 200.646C487.211 203.345 477.195 204.694 465.609 204.694C451.344 204.694 439.716 202.268 430.725 197.415C421.734 192.562 414.766 185.336 409.819 175.739C404.873 166.142 402.4 155.127 402.4 142.694C402.4 129.607 405.105 118.224 410.516 108.545C415.927 98.8663 423.852 91.5185 434.291 86.5018C442.435 82.6302 453.393 80.6944 467.166 80.6944C480.447 80.6944 490.381 81.894 496.967 84.2933C503.553 86.6926 509.018 90.4142 513.363 95.4582C517.708 100.502 520.974 106.896 523.16 114.639L487.334 121.019C485.858 116.493 483.358 113.03 479.833 110.631C476.307 108.232 471.812 107.032 466.346 107.032C458.203 107.032 451.713 109.854 446.876 115.498C442.039 121.142 439.62 130.071 439.62 142.285C439.62 155.264 442.066 164.533 446.958 170.095C451.849 175.657 458.667 178.438 467.412 178.438C471.566 178.438 475.528 177.839 479.3 176.639C483.071 175.439 487.389 173.395 492.253 170.504V159.217H467.412ZM265.2 82.6944H298.8V202.294H265.2V82.6944ZM0 83.4944H54.6781C65.4567 83.4944 74.1634 84.958 80.7985 87.8851C87.4336 90.8123 92.9176 95.0132 97.2507 100.488C101.584 105.963 104.725 112.332 106.675 119.596C108.625 126.86 109.6 134.557 109.6 142.688C109.6 155.426 108.151 165.305 105.253 172.325C102.356 179.345 98.334 185.226 93.1884 189.969C88.0429 194.713 82.5182 197.87 76.6144 199.442C68.544 201.61 61.232 202.694 54.6781 202.694H0V83.4944ZM36.8 110.294V175.894H45.8612C53.5892 175.894 59.0857 175.034 62.351 173.315C65.6163 171.595 68.1741 168.592 70.0245 164.306C71.8748 160.02 72.8 153.072 72.8 143.463C72.8 130.741 70.732 122.033 66.5959 117.338C62.4598 112.642 55.6028 110.294 46.0245 110.294H36.8ZM115.417 140.244L147.224 143.597C148.532 139.835 150.249 137.271 152.375 135.908C155.1 134.163 159.189 133.29 164.64 133.29C168.892 133.29 171.862 134.108 173.552 135.744C175.242 137.381 176.087 140.244 176.087 144.334C171.944 145.97 168.019 147.292 164.313 148.301C160.606 149.31 152.511 151.069 140.028 153.577C129.617 155.65 122.476 158.813 118.605 163.066C114.735 167.32 112.8 172.746 112.8 179.345C112.8 186.38 115.485 192.297 120.854 197.096C126.223 201.895 134.086 204.294 144.443 204.294C152.239 204.294 159.08 203.095 164.967 200.695C169.273 198.895 173.607 195.896 177.968 191.697C178.349 194.206 178.731 196.046 179.112 197.219C179.494 198.391 180.312 200.095 181.565 202.331H212.8C211.056 198.732 209.925 195.773 209.407 193.456C208.889 191.138 208.63 187.934 208.63 183.844V145.479C208.63 141.389 207.812 137.094 206.177 132.595C204.542 128.096 202.307 124.619 199.472 122.165C195.438 118.621 190.396 116.289 184.345 115.171C178.295 114.053 170.282 113.494 160.306 113.494C154.092 113.494 148.314 113.958 142.972 114.885C137.63 115.812 133.432 117.121 130.38 118.812C126.128 121.157 122.871 123.924 120.609 127.114C118.346 130.305 116.616 134.681 115.417 140.244ZM176 161.494C171.41 163.11 166.628 164.538 161.656 165.777C154.88 167.554 150.59 169.305 148.787 171.028C146.929 172.806 146 174.826 146 177.088C146 179.673 146.915 181.787 148.746 183.43C150.577 185.073 153.268 185.894 156.82 185.894C160.536 185.894 163.992 185.006 167.189 183.228C170.385 181.451 172.653 179.283 173.992 176.724C175.331 174.166 176 170.84 176 166.746V161.494ZM253.2 115.494H219.6V202.294H253.2V115.494ZM338.079 115.494H302.8L339.391 202.56C337.696 207.206 335.631 210.43 333.197 212.234C330.763 214.037 327.577 214.939 323.639 214.939C317.732 214.939 312.372 214.174 307.559 212.644L310.184 235.927C320.248 237.239 327.686 237.894 332.5 237.894C344.369 237.894 353.202 235.271 359 230.024C363.102 226.308 367.122 219.148 371.06 208.545L405.6 115.494H372.701L356.046 173.456L338.079 115.494ZM565.573 115.457H534.4V202.294H567.864V173.185C567.864 159.284 569.582 149.799 573.018 144.73C575.418 141.132 578.8 139.333 583.164 139.333C585.455 139.333 588.564 140.151 592.491 141.786L602.8 118.073C596.964 115.021 591.591 113.494 586.682 113.494C581.991 113.494 578.05 114.653 574.859 116.97C571.668 119.286 568.573 123.525 565.573 129.684V115.457ZM597.2 159.339C597.2 146.145 601.663 135.273 610.589 126.721C619.515 118.17 631.57 113.894 646.755 113.894C664.117 113.894 677.234 118.917 686.105 128.961C693.235 137.051 696.8 147.014 696.8 158.85C696.8 172.152 692.378 183.052 683.534 191.549C674.689 200.046 662.457 204.294 646.837 204.294C632.904 204.294 621.637 200.765 613.038 193.707C602.479 184.966 597.2 173.51 597.2 159.339ZM635.48 176.356C632.36 172.664 630.8 166.964 630.8 159.254C630.8 151.652 632.373 145.992 635.521 142.273C638.668 138.554 642.656 136.694 647.485 136.694C652.043 136.694 655.868 138.527 658.961 142.192C662.054 145.857 663.6 151.435 663.6 158.928C663.6 166.964 662.067 172.8 659.001 176.438C655.936 180.076 652.016 181.894 647.241 181.894C642.52 181.894 638.6 180.048 635.48 176.356Z" fill="white"/>
<path fill-rule="evenodd" clip-rule="evenodd" d="M249.6 88.6944C249.6 95.3218 244.228 100.694 237.6 100.694C230.973 100.694 225.6 95.3218 225.6 88.6944C225.6 86.2725 227.444 82.709 230.146 77.4889C230.962 75.9131 231.855 74.1863 232.8 72.2944C234.435 69.0203 237.6 60.6944 237.6 60.6944C237.6 60.6944 240.944 68.9663 242.6 72.2944C243.316 73.7335 244 75.0827 244.641 76.3458C247.579 82.1423 249.6 86.1284 249.6 88.6944ZM243.024 79.1826L242.552 79.3231C243.152 84.5291 243.528 92.5964 237.439 97.7029L236.737 98.2916L237.641 98.141C241.309 97.5297 245.012 95.0782 246.043 90.955C246.559 88.8889 246.194 86.7356 245.512 84.7145C244.909 82.9272 244.049 81.2196 243.307 79.7467C243.21 79.5546 243.116 79.3664 243.024 79.1826ZM238.464 97.4581C243.554 92.6135 243.651 85.6117 243.191 80.6303C243.844 81.9382 244.533 83.3783 245.038 84.8743C245.706 86.8532 246.041 88.8999 245.558 90.8338C244.671 94.3788 241.671 96.6459 238.464 97.4581Z" fill="#0387C0"/>
<path fill-rule="evenodd" clip-rule="evenodd" d="M571.2 116.094C581.2 89.4944 574 60.0944 583 39.6944C592 19.2944 632 -15.3056 676.4 7.4944C670 7.0944 661.8 7.4944 659.8 20.2944C657.8 33.0944 655.8 76.0944 632 86.2944C608.478 96.3751 592.8 83.0944 585.2 98.4944C588.8 69.8944 603.6 31.6944 634 18.0944C615.8 22.0944 596.6 36.8944 588.8 59.6944C581 82.4944 581.8 99.6944 571.2 116.094Z" fill="#99CC00"/>
<path fill-rule="evenodd" clip-rule="evenodd" d="M570.6 92.4944C572.8 83.2944 572 66.4944 562.8 57.6944C553.6 48.8944 546.2 48.4944 535.2 50.8944C524.2 53.2944 517 57.0944 510.8 57.0944C504.6 57.0944 500.8 55.6944 498.6 52.0944C501.2 60.0944 511.8 80.0944 530 83.2944C548.2 86.4944 557.8 79.8944 562 74.8944C556.8 66.4944 541.2 62.8944 522.4 65.2944C530.6 60.8944 546.8 58.0944 556.8 63.4944C566.8 68.8944 570 78.8944 570.6 92.4944Z" fill="#99CC00"/>
</svg>
