<svg width="20" height="20" viewBox="0 0 20 20" fill="none" xmlns="http://www.w3.org/2000/svg">
<path d="M19.9023 7.21094L17.9258 1.28125C17.6719 0.515625 16.957 0 16.1484 0H3.85156C3.04297 0 2.32812 0.515625 2.07422 1.28125L0.0976562 7.21094C0.0351562 7.40234 0 7.60156 0 7.80469V18.125C0 19.1602 0.839844 20 1.875 20H18.125C19.1602 20 20 19.1602 20 18.125V7.80469C20 7.60156 19.9688 7.40234 19.9023 7.21094ZM18.0234 7.5H10.9375V1.875H16.1484L18.0234 7.5ZM3.85156 1.875H9.0625V7.5H1.97656L3.85156 1.875ZM1.875 18.125V9.375H18.125V18.125H1.875Z" fill="white"/>
</svg>
