<svg width="16" height="16" viewBox="0 0 16 16" fill="none" xmlns="http://www.w3.org/2000/svg">
<path opacity="0.4" d="M4.6 12H3.4C3.2 12 3 12.2 3 12.4V13.6C3 13.8 3.2 14 3.4 14H4.6C4.8 14 5 13.8 5 13.6V12.4C5 12.2 4.8 12 4.6 12ZM4.6 8H3.4C3.2 8 3 8.2 3 8.4V9.6C3 9.8 3.2 10 3.4 10H4.6C4.8 10 5 9.8 5 9.6V8.4C5 8.2 4.8 8 4.6 8ZM8.6 12H7.4C7.2 12 7 12.2 7 12.4V13.6C7 13.8 7.2 14 7.4 14H8.6C8.8 14 9 13.8 9 13.6V12.4C9 12.2 8.8 12 8.6 12ZM8.6 8H7.4C7.2 8 7 8.2 7 8.4V9.6C7 9.8 7.2 10 7.4 10H8.6C8.8 10 9 9.8 9 9.6V8.4C9 8.2 8.8 8 8.6 8ZM12.6 8H11.4C11.2 8 11 8.2 11 8.4V13.6C11 13.8 11.2 14 11.4 14H12.6C12.8 14 13 13.8 13 13.6V8.4C13 8.2 12.8 8 12.6 8Z" fill="#BCC8E7"/>
<path d="M13.5 0H2.5C1.7 0 1 0.7 1 1.5V14.5C1 15.3 1.7 16 2.5 16H13.5C14.3 16 15 15.3 15 14.5V1.5C15 0.7 14.3 0 13.5 0ZM5 13.6C5 13.8 4.8 14 4.6 14H3.4C3.2 14 3 13.8 3 13.6V12.4C3 12.2 3.2 12 3.4 12H4.6C4.8 12 5 12.2 5 12.4V13.6ZM5 9.6C5 9.8 4.8 10 4.6 10H3.4C3.2 10 3 9.8 3 9.6V8.4C3 8.2 3.2 8 3.4 8H4.6C4.8 8 5 8.2 5 8.4V9.6ZM9 13.6C9 13.8 8.8 14 8.6 14H7.4C7.2 14 7 13.8 7 13.6V12.4C7 12.2 7.2 12 7.4 12H8.6C8.8 12 9 12.2 9 12.4V13.6ZM9 9.6C9 9.8 8.8 10 8.6 10H7.4C7.2 10 7 9.8 7 9.6V8.4C7 8.2 7.2 8 7.4 8H8.6C8.8 8 9 8.2 9 8.4V9.6ZM13 13.6C13 13.8 12.8 14 12.6 14H11.4C11.2 14 11 13.8 11 13.6V8.4C11 8.2 11.2 8 11.4 8H12.6C12.8 8 13 8.2 13 8.4V13.6ZM13 5.6C13 5.8 12.8 6 12.6 6H3.4C3.2 6 3 5.8 3 5.6V2.4C3 2.2 3.2 2 3.4 2H12.6C12.8 2 13 2.2 13 2.4V5.6Z" fill="#BCC8E7"/>
</svg>
