<svg width="16" height="16" viewBox="0 0 16 16" fill="none" xmlns="http://www.w3.org/2000/svg">
<path opacity="0.4" d="M16 12.5V13.5C16 13.6326 15.9473 13.7598 15.8536 13.8536C15.7598 13.9473 15.6326 14 15.5 14H1C0.734784 14 0.48043 13.8946 0.292893 13.7071C0.105357 13.5196 0 13.2652 0 13V2.5C0 2.36739 0.0526784 2.24021 0.146447 2.14645C0.240215 2.05268 0.367392 2 0.5 2H1.5C1.63261 2 1.75979 2.05268 1.85355 2.14645C1.94732 2.24021 2 2.36739 2 2.5V12H15.5C15.6326 12 15.7598 12.0527 15.8536 12.1464C15.9473 12.2402 16 12.3674 16 12.5Z" fill="#BCC8E7"/>
<path d="M14.9999 3.5V7.18906C14.9999 7.85719 14.1921 8.19187 13.7187 7.72031L12.7062 6.70781L9.70618 9.70781C9.51865 9.8953 9.26432 10.0006 8.99914 10.0006C8.73396 10.0006 8.47964 9.8953 8.29211 9.70781L5.99992 7.41406L4.56055 8.85375C4.51412 8.90019 4.45899 8.93703 4.39832 8.96217C4.33765 8.9873 4.27263 9.00024 4.20696 9.00024C4.14129 9.00024 4.07626 8.9873 4.01559 8.96217C3.95492 8.93703 3.89979 8.90019 3.85336 8.85375L3.14649 8.14688C3.10005 8.10044 3.06321 8.04532 3.03807 7.98465C3.01294 7.92398 3 7.85895 3 7.79328C3 7.72761 3.01294 7.66258 3.03807 7.60191C3.06321 7.54124 3.10005 7.48612 3.14649 7.43969L5.29305 5.29313C5.48058 5.10563 5.7349 5.00031 6.00008 5.00031C6.26526 5.00031 6.51958 5.10563 6.70711 5.29313L8.99993 7.58594L11.2927 5.29281L10.2812 4.28125C9.80868 3.80875 10.1434 3 10.8124 3H14.4999C14.6325 3 14.7597 3.05268 14.8535 3.14645C14.9472 3.24021 14.9999 3.36739 14.9999 3.5Z" fill="#BCC8E7"/>
</svg>
