<svg width="16" height="16" viewBox="0 0 16 16" fill="none" xmlns="http://www.w3.org/2000/svg">
<path opacity="0.4" d="M12.5 2H10C10.5304 2 11.0391 2.21071 11.4142 2.58579C11.7893 2.96086 12 3.46957 12 4H4C4 3.46957 4.21071 2.96086 4.58579 2.58579C4.96086 2.21071 5.46957 2 6 2H3.5C3.10218 2 2.72064 2.15804 2.43934 2.43934C2.15804 2.72064 2 3.10218 2 3.5V14.5C2 14.8978 2.15804 15.2794 2.43934 15.5607C2.72064 15.842 3.10218 16 3.5 16H12.5C12.8978 16 13.2794 15.842 13.5607 15.5607C13.842 15.2794 14 14.8978 14 14.5V3.5C14 3.10218 13.842 2.72064 13.5607 2.43934C13.2794 2.15804 12.8978 2 12.5 2ZM11.7875 8.49375L7.31875 12.925C7.28371 12.9598 7.24215 12.9873 7.19645 13.0059C7.15076 13.0246 7.10183 13.034 7.05248 13.0337C7.00312 13.0334 6.95431 13.0234 6.90884 13.0042C6.86337 12.985 6.82213 12.957 6.7875 12.9219L4.20625 10.3188C4.17149 10.2837 4.144 10.2421 4.12534 10.1965C4.10668 10.1508 4.09722 10.1018 4.09751 10.0525C4.0978 10.0031 4.10784 9.95431 4.12703 9.90884C4.14623 9.86337 4.17421 9.82213 4.20937 9.7875L5.09687 8.90625C5.13192 8.87149 5.17348 8.844 5.21917 8.82534C5.26487 8.80668 5.31379 8.79722 5.36315 8.79751C5.4125 8.7978 5.46132 8.80783 5.50679 8.82703C5.55226 8.84623 5.59349 8.87421 5.62812 8.90938L7.06563 10.3594L10.3781 7.07188C10.4132 7.03712 10.4547 7.00962 10.5004 6.99096C10.5461 6.9723 10.595 6.96285 10.6444 6.96314C10.6938 6.96343 10.7426 6.97346 10.788 6.99266C10.8335 7.01185 10.8747 7.03983 10.9094 7.075L11.7906 7.9625C11.8254 7.99754 11.8529 8.0391 11.8715 8.0848C11.8902 8.13049 11.8997 8.17942 11.8994 8.22877C11.8991 8.27813 11.889 8.32694 11.8698 8.37241C11.8506 8.41788 11.8227 8.45912 11.7875 8.49375Z" fill="#BCC8E7"/>
<path d="M10.9094 7.075C10.8747 7.03983 10.8335 7.01185 10.788 6.99266C10.7426 6.97346 10.6938 6.96343 10.6444 6.96314C10.595 6.96285 10.5461 6.9723 10.5004 6.99096C10.4547 7.00962 10.4132 7.03712 10.3781 7.07187L7.06563 10.3594L5.62812 8.90937C5.59349 8.87421 5.55226 8.84623 5.50679 8.82703C5.46132 8.80783 5.4125 8.7978 5.36315 8.79751C5.31379 8.79722 5.26487 8.80668 5.21917 8.82534C5.17348 8.844 5.13192 8.87149 5.09687 8.90625L4.20937 9.7875C4.17421 9.82213 4.14623 9.86337 4.12703 9.90884C4.10783 9.95431 4.0978 10.0031 4.09751 10.0525C4.09722 10.1018 4.10668 10.1508 4.12534 10.1965C4.144 10.2421 4.17149 10.2837 4.20625 10.3187L6.7875 12.9219C6.82213 12.957 6.86337 12.985 6.90884 13.0042C6.95431 13.0234 7.00312 13.0334 7.05248 13.0337C7.10183 13.034 7.15076 13.0246 7.19645 13.0059C7.24215 12.9873 7.28371 12.9598 7.31875 12.925L11.7875 8.49375C11.8227 8.45912 11.8506 8.41788 11.8698 8.37241C11.889 8.32694 11.8991 8.27813 11.8994 8.22877C11.8997 8.17942 11.8902 8.13049 11.8715 8.0848C11.8529 8.0391 11.8254 7.99754 11.7906 7.9625L10.9094 7.075ZM10 2C10 1.46957 9.78929 0.960859 9.41421 0.585786C9.03914 0.210714 8.53043 0 8 0C7.46957 0 6.96086 0.210714 6.58579 0.585786C6.21071 0.960859 6 1.46957 6 2C5.46957 2 4.96086 2.21071 4.58579 2.58579C4.21071 2.96086 4 3.46957 4 4H12C12 3.46957 11.7893 2.96086 11.4142 2.58579C11.0391 2.21071 10.5304 2 10 2ZM8 2.75C7.85166 2.75 7.70666 2.70601 7.58332 2.6236C7.45999 2.54119 7.36386 2.42406 7.30709 2.28701C7.25032 2.14997 7.23547 1.99917 7.26441 1.85368C7.29335 1.7082 7.36478 1.57456 7.46967 1.46967C7.57456 1.36478 7.7082 1.29335 7.85368 1.26441C7.99917 1.23547 8.14997 1.25032 8.28701 1.30709C8.42406 1.36386 8.54119 1.45999 8.6236 1.58332C8.70601 1.70666 8.75 1.85166 8.75 2C8.75025 2.09856 8.73102 2.1962 8.69341 2.2873C8.65581 2.37841 8.60057 2.46119 8.53088 2.53088C8.46119 2.60057 8.37841 2.65581 8.2873 2.69341C8.1962 2.73102 8.09856 2.75025 8 2.75Z" fill="#BCC8E7"/>
</svg>
