<svg width="16" height="16" viewBox="0 0 16 16" fill="none" xmlns="http://www.w3.org/2000/svg">
<path opacity="0.4" d="M10.552 2.05553C10.5899 2.06645 10.6254 2.08476 10.6562 2.10941C10.6871 2.13406 10.7128 2.16457 10.7318 2.19918C10.7509 2.23378 10.7629 2.27181 10.7672 2.31108C10.7715 2.35035 10.768 2.39008 10.7569 2.42799L7.34472 14.182C7.3338 14.2199 7.3155 14.2554 7.29086 14.2862C7.26623 14.317 7.23575 14.3427 7.20117 14.3618C7.16659 14.3808 7.12859 14.3928 7.08935 14.3972C7.05011 14.4015 7.0104 14.398 6.9725 14.387L5.44763 13.9445C5.40967 13.9336 5.37423 13.9153 5.34337 13.8906C5.3125 13.866 5.28681 13.8355 5.26776 13.8009C5.24871 13.7663 5.23669 13.7282 5.23238 13.689C5.22807 13.6497 5.23156 13.61 5.24265 13.5721L8.65487 1.81805C8.66579 1.78011 8.68409 1.7447 8.70873 1.71386C8.73336 1.68301 8.76384 1.65733 8.79842 1.63828C8.833 1.61924 8.871 1.60721 8.91024 1.60288C8.94948 1.59855 8.98919 1.60201 9.02709 1.61306L10.552 2.05553Z" fill="#DC241F"/>
<path d="M15.9043 7.78253L12.3019 4.40281C12.2436 4.34863 12.1664 4.31957 12.0868 4.32191C12.0073 4.32425 11.9319 4.3578 11.8769 4.41531L10.7895 5.57622C10.762 5.6055 10.7408 5.63999 10.7269 5.67766C10.713 5.71532 10.7068 5.75539 10.7087 5.79548C10.7106 5.83557 10.7205 5.87488 10.7379 5.91107C10.7552 5.94726 10.7797 5.9796 10.8097 6.00618L13.0738 8.00101L10.8092 9.99335C10.7789 10.0198 10.7543 10.052 10.7367 10.0883C10.7192 10.1245 10.7092 10.1638 10.7073 10.204C10.7054 10.2442 10.7117 10.2843 10.7257 10.322C10.7398 10.3597 10.7613 10.3942 10.789 10.4233L11.8764 11.5832C11.9033 11.6122 11.9356 11.6356 11.9715 11.652C12.0075 11.6684 12.0463 11.6776 12.0858 11.679C12.1253 11.6804 12.1646 11.674 12.2016 11.6601C12.2386 11.6463 12.2725 11.6252 12.3014 11.5982L15.9038 8.22099C15.9341 8.19308 15.9583 8.1592 15.9748 8.12149C15.9914 8.08378 16 8.04306 16 8.00187C16 7.96069 15.9916 7.91994 15.9751 7.88219C15.9586 7.84444 15.9345 7.81051 15.9043 7.78253ZM5.21021 5.57772L4.1228 4.41781C4.09577 4.38901 4.06331 4.36583 4.02729 4.34961C3.99127 4.33339 3.9524 4.32444 3.91292 4.32328C3.87343 4.32212 3.83411 4.32877 3.7972 4.34284C3.76029 4.35692 3.72652 4.37815 3.69784 4.40531L0.0953894 7.78003C0.0652998 7.80797 0.0412979 7.84181 0.0248847 7.87945C0.00847149 7.91709 0 7.9577 0 7.99876C0 8.03982 0.00847149 8.08044 0.0248847 8.11808C0.0412979 8.15571 0.0652998 8.18956 0.0953894 8.2175L3.69784 11.5947C3.72639 11.6221 3.76012 11.6436 3.79705 11.6578C3.83398 11.672 3.87338 11.6788 3.91294 11.6776C3.9525 11.6764 3.99144 11.6674 4.02747 11.651C4.0635 11.6346 4.09591 11.6113 4.1228 11.5822L5.21021 10.4223C5.23766 10.393 5.25896 10.3585 5.27283 10.3209C5.28671 10.2832 5.29289 10.2431 5.291 10.203C5.28911 10.163 5.2792 10.1236 5.26184 10.0875C5.24449 10.0513 5.22005 10.0189 5.18996 9.99235L2.92465 8.00101L5.18946 6.00868C5.21998 5.98229 5.24481 5.94997 5.26247 5.9137C5.28012 5.87742 5.29022 5.83794 5.29216 5.79764C5.2941 5.75735 5.28784 5.71707 5.27375 5.67927C5.25967 5.64147 5.23805 5.60692 5.21021 5.57772Z" fill="#DC241F"/>
</svg>
