<svg width="16" height="16" viewBox="0 0 16 16" fill="none" xmlns="http://www.w3.org/2000/svg">
<g clip-path="url(#clip0)">
<path opacity="0.4" d="M15.9616 11.2717C15.9495 11.1996 15.9122 11.1342 15.8564 11.087C15.8005 11.0398 15.7297 11.014 15.6566 11.0142H15.2441C15.1549 10.7633 15.0202 10.531 14.8465 10.3292L15.0513 9.97162C15.0876 9.90838 15.1004 9.8344 15.0876 9.76263C15.0748 9.69086 15.0372 9.62589 14.9813 9.57908C14.7419 9.37994 14.4705 9.22271 14.1787 9.11404C14.11 9.08798 14.0343 9.08726 13.9651 9.112C13.8959 9.13675 13.8378 9.18534 13.8012 9.24905L13.5961 9.60658C13.3341 9.55908 13.0656 9.55908 12.8036 9.60658L12.5986 9.24905C12.562 9.18534 12.5038 9.13675 12.4347 9.112C12.3655 9.08726 12.2897 9.08798 12.221 9.11404C11.9295 9.22329 11.6582 9.38046 11.4184 9.57908C11.362 9.62553 11.324 9.69054 11.3112 9.76247C11.2984 9.8344 11.3116 9.90854 11.3484 9.97162L11.5535 10.3292C11.3798 10.531 11.245 10.7633 11.1559 11.0142H10.7434C10.67 11.0146 10.5992 11.0409 10.5433 11.0885C10.4875 11.1361 10.4503 11.2019 10.4383 11.2742C10.3871 11.5813 10.3871 11.8948 10.4383 12.2018C10.4504 12.2739 10.4877 12.3394 10.5436 12.3866C10.5995 12.4337 10.6703 12.4595 10.7434 12.4594H11.1559C11.245 12.7103 11.3798 12.9425 11.5535 13.1444L11.3484 13.502C11.3122 13.5652 11.2993 13.6392 11.3121 13.711C11.3249 13.7827 11.3626 13.8477 11.4184 13.8945C11.6578 14.0936 11.9292 14.2509 12.221 14.3595C12.2897 14.3856 12.3655 14.3863 12.4347 14.3616C12.5038 14.3368 12.562 14.2882 12.5986 14.2245L12.8036 13.867C13.0656 13.9145 13.3341 13.9145 13.5961 13.867L13.8012 14.2245C13.8378 14.2882 13.8959 14.3368 13.9651 14.3616C14.0343 14.3863 14.11 14.3856 14.1787 14.3595C14.4703 14.2503 14.7415 14.0931 14.9813 13.8945C15.0377 13.8481 15.0757 13.783 15.0885 13.7111C15.1013 13.6392 15.0882 13.565 15.0513 13.502L14.8463 13.1444C15.0199 12.9425 15.1547 12.7103 15.2438 12.4594H15.6563C15.7297 12.459 15.8006 12.4327 15.8564 12.3851C15.9122 12.3375 15.9494 12.2717 15.9614 12.1993C16.0127 11.8923 16.0128 11.5788 15.9616 11.2717ZM12.5413 12.3944C11.8012 11.4318 12.8988 10.3342 13.8614 11.0742C14.6012 12.0366 13.5039 13.1342 12.5413 12.3941V12.3944ZM15.9616 3.79852C15.9495 3.72641 15.9122 3.66094 15.8564 3.61378C15.8005 3.56661 15.7297 3.54082 15.6566 3.541H15.2441C15.1549 3.29008 15.0202 3.05781 14.8465 2.85593L15.0515 2.4984C15.0878 2.43516 15.1007 2.36117 15.0879 2.28941C15.0751 2.21764 15.0374 2.15266 14.9815 2.10586C14.7421 1.90672 14.4708 1.74949 14.179 1.64081C14.1102 1.61467 14.0345 1.61388 13.9652 1.63857C13.896 1.66327 13.8378 1.71185 13.8012 1.77558L13.5961 2.13311C13.3341 2.08561 13.0656 2.08561 12.8036 2.13311L12.5986 1.77558C12.562 1.71186 12.5038 1.66327 12.4347 1.63853C12.3655 1.61379 12.2897 1.61451 12.221 1.64056C11.9295 1.74981 11.6582 1.90699 11.4184 2.10561C11.362 2.15206 11.324 2.21707 11.3112 2.28899C11.2984 2.36092 11.3116 2.43506 11.3484 2.49815L11.5535 2.85568C11.3798 3.05756 11.245 3.28983 11.1559 3.54075H10.7434C10.67 3.54112 10.5992 3.56743 10.5433 3.61501C10.4875 3.6626 10.4503 3.7284 10.4383 3.80077C10.3871 4.10784 10.3871 4.42129 10.4383 4.72836C10.4504 4.80047 10.4877 4.86594 10.5436 4.91311C10.5995 4.96027 10.6703 4.98606 10.7434 4.98589H11.1559C11.245 5.23681 11.3798 5.46907 11.5535 5.67095L11.3484 6.02849C11.3122 6.09173 11.2993 6.16571 11.3121 6.23748C11.3249 6.30924 11.3626 6.37422 11.4184 6.42103C11.6578 6.62016 11.9292 6.77739 12.221 6.88607C12.2897 6.91213 12.3655 6.91285 12.4347 6.8881C12.5038 6.86336 12.562 6.81477 12.5986 6.75106L12.8036 6.39352C13.0656 6.44103 13.3341 6.44103 13.5961 6.39352L13.8012 6.75106C13.8378 6.81477 13.8959 6.86336 13.9651 6.8881C14.0343 6.91285 14.11 6.91213 14.1787 6.88607C14.4703 6.77682 14.7415 6.61965 14.9813 6.42103C15.0377 6.37458 15.0757 6.30957 15.0885 6.23764C15.1013 6.16571 15.0882 6.09157 15.0513 6.02849L14.8463 5.67095C15.0199 5.46907 15.1547 5.23681 15.2438 4.98589H15.6563C15.7297 4.98551 15.8006 4.95921 15.8564 4.91162C15.9122 4.86403 15.9494 4.79823 15.9614 4.72586C16.0127 4.4188 16.0128 4.10536 15.9616 3.79827V3.79852ZM12.5413 4.92363C11.8012 3.96104 12.8988 2.86093 13.8614 3.6035C14.6012 4.56585 13.5039 5.66345 12.5413 4.92338V4.92363Z" fill="#DC241F"/>
<path d="M10.5009 9.19094L9.65857 8.77115C9.75608 8.24643 9.75608 7.70822 9.65857 7.1835L10.5012 6.76346C10.7537 6.61594 10.8512 6.30841 10.7512 6.03589C10.5287 5.43083 10.1036 4.87578 9.69858 4.39073C9.60801 4.28312 9.48244 4.21086 9.3439 4.18663C9.20536 4.16239 9.06271 4.18774 8.941 4.25822L8.21343 4.67826C7.80839 4.33208 7.3431 4.06341 6.8408 3.88568V3.0456C6.84042 2.90407 6.79003 2.76723 6.69852 2.65926C6.60702 2.55128 6.4803 2.47913 6.34075 2.45554C5.71167 2.35009 5.06936 2.35093 4.44057 2.45804C4.30284 2.48277 4.17821 2.55521 4.08856 2.66265C3.99891 2.77009 3.94995 2.90567 3.95027 3.0456V3.88818C3.44752 4.06492 2.98205 4.33369 2.57764 4.68076L1.85007 4.26047C1.72838 4.18989 1.58571 4.16449 1.44714 4.18873C1.30858 4.21296 1.18299 4.28529 1.09249 4.39298C0.687452 4.87803 0.259911 5.43308 0.0373894 6.03814C-0.011842 6.17051 -0.0124744 6.31605 0.035605 6.44884C0.0836844 6.58164 0.177352 6.69304 0.299915 6.76321L1.1325 7.18575C1.03499 7.70963 1.03499 8.24702 1.1325 8.7709L0.299915 9.19094C0.177848 9.26225 0.084696 9.37415 0.0367156 9.50712C-0.0112648 9.6401 -0.0110263 9.7857 0.0373894 9.91851C0.259911 10.5211 0.687452 11.0761 1.09249 11.5612C1.18305 11.6688 1.30863 11.741 1.44717 11.7653C1.58571 11.7895 1.72835 11.7642 1.85007 11.6937L2.57764 11.2761C2.98267 11.6223 3.44797 11.891 3.95027 12.0687V12.9088C3.95065 13.0503 4.00104 13.1872 4.09254 13.2951C4.18405 13.4031 4.31077 13.4753 4.45032 13.4989C5.07831 13.6064 5.72001 13.6064 6.348 13.4989C6.48633 13.474 6.61149 13.4013 6.70156 13.2934C6.79162 13.1855 6.84082 13.0493 6.84055 12.9088V12.0687C7.3433 11.892 7.80877 11.6232 8.21318 11.2761L8.94075 11.6962C9.06244 11.7668 9.20511 11.7922 9.34368 11.7679C9.48224 11.7437 9.60782 11.6714 9.69833 11.5637C10.1034 11.0786 10.5409 10.5236 10.7634 9.91851C10.8125 9.78576 10.8131 9.63992 10.765 9.50679C10.717 9.37365 10.6234 9.26178 10.5009 9.19094ZM6.71804 9.29845C4.79285 10.7786 2.59514 8.58088 4.07528 6.6557C6.00047 5.17555 8.19843 7.37327 6.71829 9.29845H6.71804Z" fill="#DC241F"/>
</g>
<defs>
<clipPath id="clip0">
<rect width="16" height="16" fill="white"/>
</clipPath>
</defs>
</svg>
