<svg width="16" height="16" viewBox="0 0 16 16" fill="none" xmlns="http://www.w3.org/2000/svg">
<g clip-path="url(#clip0)">
<path opacity="0.4" d="M8.00001 0.888916C3.58167 0.888916 7.17074e-06 4.47058 7.17074e-06 8.88892C-0.00188977 10.3022 0.372609 11.6905 1.08501 12.9111C1.24084 13.1784 1.53779 13.3334 1.84723 13.3334H14.1528C14.4622 13.3334 14.7592 13.1784 14.915 12.9111C15.6274 11.6905 16.0019 10.3022 16 8.88892C16 4.47058 12.4183 0.888916 8.00001 0.888916ZM8.00001 2.66669C8.17581 2.66669 8.34767 2.71883 8.49385 2.8165C8.64003 2.91417 8.75396 3.053 8.82123 3.21542C8.88851 3.37784 8.90611 3.55657 8.87182 3.729C8.83752 3.90142 8.75286 4.05981 8.62855 4.18412C8.50423 4.30843 8.34585 4.39309 8.17342 4.42739C8.00099 4.46169 7.82227 4.44409 7.65984 4.37681C7.49742 4.30953 7.3586 4.1956 7.26092 4.04942C7.16325 3.90325 7.11112 3.73139 7.11112 3.55558C7.11112 3.31983 7.20477 3.09374 7.37147 2.92704C7.53817 2.76034 7.76426 2.66669 8.00001 2.66669ZM2.66667 10.6667C2.49087 10.6667 2.31901 10.6146 2.17283 10.5169C2.02666 10.4192 1.91273 10.2804 1.84545 10.118C1.77817 9.95554 1.76057 9.77682 1.79486 9.60439C1.82916 9.43196 1.91382 9.27358 2.03813 9.14927C2.16245 9.02495 2.32083 8.94029 2.49326 8.906C2.66569 8.8717 2.84441 8.8893 3.00684 8.95658C3.16926 9.02386 3.30809 9.13779 3.40576 9.28396C3.50343 9.43014 3.55556 9.602 3.55556 9.7778C3.55556 10.0136 3.46191 10.2396 3.29521 10.4063C3.12851 10.573 2.90242 10.6667 2.66667 10.6667ZM4.00001 6.22225C3.8242 6.22225 3.65234 6.17012 3.50617 6.07244C3.35999 5.97477 3.24606 5.83595 3.17878 5.67352C3.1115 5.5111 3.0939 5.33237 3.1282 5.15995C3.1625 4.98752 3.24715 4.82913 3.37147 4.70482C3.49578 4.58051 3.65417 4.49585 3.82659 4.46155C3.99902 4.42725 4.17775 4.44486 4.34017 4.51213C4.50259 4.57941 4.64142 4.69334 4.73909 4.83952C4.83676 4.9857 4.8889 5.15755 4.8889 5.33336C4.8889 5.56911 4.79525 5.7952 4.62855 5.9619C4.46185 6.1286 4.23576 6.22225 4.00001 6.22225ZM9.53112 11.5556H6.4689C6.30907 11.2865 6.22392 10.9797 6.22223 10.6667C6.22223 10.1952 6.40953 9.74301 6.74293 9.40961C7.07633 9.07622 7.52851 8.88892 8.00001 8.88892C8.15257 8.89087 8.30422 8.91272 8.45112 8.95392L11.4667 4.93308C11.5192 4.86303 11.5851 4.80401 11.6604 4.75939C11.7358 4.71478 11.8192 4.68544 11.9059 4.67306C11.9926 4.66068 12.0808 4.66549 12.1657 4.68723C12.2505 4.70897 12.3302 4.7472 12.4003 4.79975C12.4703 4.8523 12.5294 4.91813 12.574 4.99348C12.6186 5.06884 12.6479 5.15225 12.6603 5.23894C12.6727 5.32563 12.6679 5.41392 12.6461 5.49875C12.6244 5.58358 12.5862 5.6633 12.5336 5.73336L9.51806 9.75392C9.68559 10.024 9.77543 10.3351 9.77774 10.6529C9.78004 10.9707 9.69471 11.2831 9.53112 11.5556ZM13.3333 10.6667C13.1575 10.6667 12.9857 10.6146 12.8395 10.5169C12.6933 10.4192 12.5794 10.2804 12.5121 10.118C12.4448 9.95554 12.4272 9.77682 12.4615 9.60439C12.4958 9.43196 12.5805 9.27358 12.7048 9.14927C12.8291 9.02495 12.9875 8.94029 13.1599 8.906C13.3324 8.8717 13.5111 8.8893 13.6735 8.95658C13.8359 9.02386 13.9748 9.13779 14.0724 9.28396C14.1701 9.43014 14.2222 9.602 14.2222 9.7778C14.2222 10.0136 14.1286 10.2396 13.9619 10.4063C13.7952 10.573 13.5691 10.6667 13.3333 10.6667Z" fill="#BCC8E7"/>
<path d="M8.00019 8.88893C8.15275 8.89088 8.3044 8.91274 8.4513 8.95393L11.4669 4.9331C11.5194 4.86305 11.5852 4.80403 11.6606 4.75941C11.736 4.7148 11.8194 4.68546 11.9061 4.67308C11.9928 4.6607 12.081 4.66551 12.1659 4.68725C12.2507 4.70899 12.3304 4.74722 12.4005 4.79977C12.4705 4.85232 12.5296 4.91815 12.5742 4.99351C12.6188 5.06886 12.6481 5.15227 12.6605 5.23896C12.6729 5.32566 12.6681 5.41394 12.6463 5.49877C12.6246 5.5836 12.5864 5.66332 12.5338 5.73338L9.51825 9.75393C9.68577 10.024 9.77562 10.3351 9.77793 10.6529C9.78023 10.9708 9.6949 11.2831 9.53131 11.5556H6.46908C6.30925 11.2865 6.2241 10.9797 6.22241 10.6667C6.22241 10.1952 6.40971 9.74303 6.74311 9.40963C7.07651 9.07623 7.5287 8.88893 8.00019 8.88893Z" fill="#BCC8E7"/>
</g>
<defs>
<clipPath id="clip0">
<rect width="16" height="16" fill="white"/>
</clipPath>
</defs>
</svg>
