<svg width="16" height="16" viewBox="0 0 16 16" fill="none" xmlns="http://www.w3.org/2000/svg">
<path opacity="0.4" d="M14.6667 0.888916H1.33333C0.979711 0.888916 0.640573 1.02939 0.390524 1.27944C0.140476 1.52949 0 1.86863 0 2.22225L0 11.1111C0 11.4648 0.140476 11.8039 0.390524 12.0539C0.640573 12.304 0.979711 12.4445 1.33333 12.4445H14.6667C15.0203 12.4445 15.3594 12.304 15.6095 12.0539C15.8595 11.8039 16 11.4648 16 11.1111V2.22225C16 1.86863 15.8595 1.52949 15.6095 1.27944C15.3594 1.02939 15.0203 0.888916 14.6667 0.888916V0.888916ZM14.2222 10.6667H1.77778V2.66669H14.2222V10.6667Z" fill="#BCC8E7"/>
<path d="M11.7778 13.7779H9.77783L9.33339 12.4445H6.66672L6.22228 13.7779H4.22228C4.04547 13.7779 3.8759 13.8481 3.75087 13.9731C3.62585 14.0981 3.55561 14.2677 3.55561 14.4445C3.55561 14.6213 3.62585 14.7909 3.75087 14.9159C3.8759 15.041 4.04547 15.1112 4.22228 15.1112H11.7778C11.9546 15.1112 12.1242 15.041 12.2492 14.9159C12.3743 14.7909 12.4445 14.6213 12.4445 14.4445C12.4445 14.2677 12.3743 14.0981 12.2492 13.9731C12.1242 13.8481 11.9546 13.7779 11.7778 13.7779ZM1.77783 2.66675V10.6667H14.2223V2.66675H1.77783Z" fill="#BCC8E7"/>
</svg>
