<svg width="16" height="16" viewBox="0 0 16 16" fill="none" xmlns="http://www.w3.org/2000/svg">
<path opacity="0.4" d="M14.6667 0.888916H1.33333C0.979711 0.888916 0.640573 1.02939 0.390524 1.27944C0.140476 1.52949 0 1.86863 0 2.22225L0 11.1111C0 11.4648 0.140476 11.8039 0.390524 12.0539C0.640573 12.304 0.979711 12.4445 1.33333 12.4445H14.6667C15.0203 12.4445 15.3594 12.304 15.6095 12.0539C15.8595 11.8039 16 11.4648 16 11.1111V2.22225C16 1.86863 15.8595 1.52949 15.6095 1.27944C15.3594 1.02939 15.0203 0.888916 14.6667 0.888916V0.888916ZM14.2222 10.6667H1.77778V2.66669H14.2222V10.6667Z" fill="#DC241F"/>
<path d="M11.7777 13.7779H9.77771L9.33327 12.4445H6.6666L6.22215 13.7779H4.22215C4.04534 13.7779 3.87577 13.8481 3.75075 13.9731C3.62573 14.0981 3.55549 14.2677 3.55549 14.4445C3.55549 14.6213 3.62573 14.7909 3.75075 14.9159C3.87577 15.041 4.04534 15.1112 4.22215 15.1112H11.7777C11.9545 15.1112 12.1241 15.041 12.2491 14.9159C12.3741 14.7909 12.4444 14.6213 12.4444 14.4445C12.4444 14.2677 12.3741 14.0981 12.2491 13.9731C12.1241 13.8481 11.9545 13.7779 11.7777 13.7779ZM1.77771 2.66675V10.6667H14.2222V2.66675H1.77771Z" fill="#DC241F"/>
</svg>
