<svg width="16" height="16" viewBox="0 0 16 16" fill="none" xmlns="http://www.w3.org/2000/svg">
<g clip-path="url(#clip0)">
<path opacity="0.4" d="M14 4H10.5C10.3674 4 10.2402 3.94732 10.1464 3.85356C10.0527 3.75979 10 3.63261 10 3.5V2.35571e-06H2.75C2.65176 -0.000244182 2.55443 0.0188626 2.46356 0.0562318C2.3727 0.093601 2.29009 0.148501 2.22045 0.217797C2.1508 0.287092 2.09549 0.369427 2.05767 0.4601C2.01984 0.550772 2.00025 0.648007 2 0.746252V15.25C1.99976 15.3482 2.01886 15.4456 2.05623 15.5364C2.0936 15.6273 2.1485 15.7099 2.2178 15.7796C2.28709 15.8492 2.36943 15.9045 2.4601 15.9423C2.55077 15.9802 2.64801 15.9998 2.74625 16H13.25C13.3482 16.0002 13.4456 15.9811 13.5364 15.9438C13.6273 15.9064 13.7099 15.8515 13.7796 15.7822C13.8492 15.7129 13.9045 15.6306 13.9423 15.5399C13.9802 15.4492 13.9998 15.352 14 15.2538V4ZM11 11.625C11 11.7245 10.9605 11.8198 10.8902 11.8902C10.8198 11.9605 10.7245 12 10.625 12H5.375C5.27555 12 5.18016 11.9605 5.10984 11.8902C5.03951 11.8198 5 11.7245 5 11.625V11.375C5 11.2755 5.03951 11.1802 5.10984 11.1098C5.18016 11.0395 5.27555 11 5.375 11H10.625C10.7245 11 10.8198 11.0395 10.8902 11.1098C10.9605 11.1802 11 11.2755 11 11.375V11.625ZM11 9.625C11 9.72446 10.9605 9.81984 10.8902 9.89017C10.8198 9.96049 10.7245 10 10.625 10H5.375C5.27555 10 5.18016 9.96049 5.10984 9.89017C5.03951 9.81984 5 9.72446 5 9.625V9.375C5 9.27555 5.03951 9.18016 5.10984 9.10984C5.18016 9.03951 5.27555 9 5.375 9H10.625C10.7245 9 10.8198 9.03951 10.8902 9.10984C10.9605 9.18016 11 9.27555 11 9.375V9.625ZM11 7.625C11 7.72446 10.9605 7.81984 10.8902 7.89017C10.8198 7.96049 10.7245 8 10.625 8H5.375C5.27555 8 5.18016 7.96049 5.10984 7.89017C5.03951 7.81984 5 7.72446 5 7.625V7.375C5 7.27555 5.03951 7.18016 5.10984 7.10984C5.18016 7.03951 5.27555 7 5.375 7H10.625C10.7245 7 10.8198 7.03951 10.8902 7.10984C10.9605 7.18016 11 7.27555 11 7.375V7.625Z" fill="#BCC8E7"/>
<path d="M13.7812 3.28125L10.7219 0.218752C10.652 0.149165 10.5692 0.0940266 10.478 0.0564914C10.3869 0.0189562 10.2892 -0.00023949 10.1906 2.25522e-06H10V3.5C10 3.63261 10.0527 3.75979 10.1464 3.85356C10.2402 3.94732 10.3674 4 10.5 4H14V3.80938C14 3.7113 13.9807 3.61417 13.9432 3.52356C13.9056 3.43294 13.8506 3.35061 13.7812 3.28125ZM10.625 11H5.375C5.27554 11 5.18016 11.0395 5.10983 11.1098C5.03951 11.1802 5 11.2755 5 11.375V11.625C5 11.7245 5.03951 11.8198 5.10983 11.8902C5.18016 11.9605 5.27554 12 5.375 12H10.625C10.7245 12 10.8198 11.9605 10.8902 11.8902C10.9605 11.8198 11 11.7245 11 11.625V11.375C11 11.2755 10.9605 11.1802 10.8902 11.1098C10.8198 11.0395 10.7245 11 10.625 11ZM10.625 9H5.375C5.27554 9 5.18016 9.03951 5.10983 9.10984C5.03951 9.18016 5 9.27555 5 9.375V9.625C5 9.72446 5.03951 9.81984 5.10983 9.89017C5.18016 9.96049 5.27554 10 5.375 10H10.625C10.7245 10 10.8198 9.96049 10.8902 9.89017C10.9605 9.81984 11 9.72446 11 9.625V9.375C11 9.27555 10.9605 9.18016 10.8902 9.10984C10.8198 9.03951 10.7245 9 10.625 9ZM10.625 7H5.375C5.27554 7 5.18016 7.03951 5.10983 7.10984C5.03951 7.18016 5 7.27555 5 7.375V7.625C5 7.72446 5.03951 7.81984 5.10983 7.89017C5.18016 7.96049 5.27554 8 5.375 8H10.625C10.7245 8 10.8198 7.96049 10.8902 7.89017C10.9605 7.81984 11 7.72446 11 7.625V7.375C11 7.27555 10.9605 7.18016 10.8902 7.10984C10.8198 7.03951 10.7245 7 10.625 7Z" fill="#BCC8E7"/>
</g>
<defs>
<clipPath id="clip0">
<rect width="16" height="16" fill="white"/>
</clipPath>
</defs>
</svg>
