<svg width="16" height="16" viewBox="0 0 16 16" fill="none" xmlns="http://www.w3.org/2000/svg">
<path opacity="0.4" d="M0 12.4445V1.33336C0 1.21549 0.0468253 1.10244 0.130175 1.01909C0.213524 0.935741 0.32657 0.888916 0.444444 0.888916H1.33333C1.45121 0.888916 1.56425 0.935741 1.6476 1.01909C1.73095 1.10244 1.77778 1.21549 1.77778 1.33336V3.55558H7.11111V5.33336H1.77778V11.5556H7.11111V13.3334H0.888889C0.653141 13.3334 0.427049 13.2397 0.26035 13.073C0.0936505 12.9063 0 12.6802 0 12.4445Z" fill="#BCC8E7"/>
<path d="M15.1111 9.77781H12L11.1111 8.88892H8.88889C8.65314 8.88892 8.42705 8.98257 8.26035 9.14927C8.09365 9.31596 8 9.54206 8 9.77781V14.2222C8 14.458 8.09365 14.6841 8.26035 14.8508C8.42705 15.0175 8.65314 15.1111 8.88889 15.1111H15.1111C15.3469 15.1111 15.573 15.0175 15.7397 14.8508C15.9064 14.6841 16 14.458 16 14.2222V10.6667C16 10.4309 15.9064 10.2049 15.7397 10.0382C15.573 9.87146 15.3469 9.77781 15.1111 9.77781ZM15.1111 1.7778H12L11.1111 0.888916H8.88889C8.65314 0.888916 8.42705 0.982567 8.26035 1.14927C8.09365 1.31596 8 1.54206 8 1.7778V6.22225C8 6.458 8.09365 6.68409 8.26035 6.85079C8.42705 7.01749 8.65314 7.11114 8.88889 7.11114H15.1111C15.3469 7.11114 15.573 7.01749 15.7397 6.85079C15.9064 6.68409 16 6.458 16 6.22225V2.66669C16 2.43095 15.9064 2.20485 15.7397 2.03815C15.573 1.87146 15.3469 1.7778 15.1111 1.7778Z" fill="#BCC8E7"/>
</svg>
