<svg width="16" height="16" viewBox="0 0 16 16" fill="none" xmlns="http://www.w3.org/2000/svg">
<path opacity="0.4" d="M15.625 12C15.7245 12 15.8198 12.0395 15.8902 12.1098C15.9605 12.1802 16 12.2755 16 12.375V13.625C16 13.7245 15.9605 13.8198 15.8902 13.8902C15.8198 13.9605 15.7245 14 15.625 14H0.375C0.275544 14 0.180161 13.9605 0.109835 13.8902C0.0395088 13.8198 0 13.7245 0 13.625L0 2.375C0 2.27554 0.0395088 2.18016 0.109835 2.10983C0.180161 2.03951 0.275544 2 0.375 2H1.625C1.72446 2 1.81984 2.03951 1.89017 2.10983C1.96049 2.18016 2 2.27554 2 2.375V12H15.625Z" fill="#DC241F"/>
<path d="M12.1906 5.13185L15 11.0006H3V7.7506L5.7125 3.22872C5.74419 3.17598 5.78837 3.13186 5.84114 3.10023C5.89392 3.0686 5.95366 3.05044 6.01511 3.04735C6.07656 3.04426 6.13782 3.05634 6.1935 3.08252C6.24918 3.1087 6.29756 3.14818 6.33437 3.19747L9 6.7506L11.6469 4.98497C11.6913 4.95551 11.7415 4.93585 11.7941 4.92731C11.8467 4.91877 11.9005 4.92154 11.952 4.93544C12.0034 4.94933 12.0513 4.97404 12.0925 5.00791C12.1336 5.04178 12.1671 5.08403 12.1906 5.13185Z" fill="#DC241F"/>
</svg>
