<svg width="16" height="16" viewBox="0 0 16 16" fill="none" xmlns="http://www.w3.org/2000/svg">
<g clip-path="url(#clip0)">
<path opacity="0.4" d="M14.184 3.92604L11.5363 6.04493C11.5476 6.11002 11.554 6.17584 11.5557 6.24187C11.5557 6.5955 11.4152 6.93464 11.1652 7.18468C10.9151 7.43473 10.576 7.57521 10.2224 7.57521C9.86875 7.57521 9.52962 7.43473 9.27957 7.18468C9.02952 6.93464 8.88904 6.5955 8.88904 6.24187C8.89066 6.17573 8.89725 6.1098 8.90877 6.04465L6.26071 3.92604C5.99894 4.03335 5.70856 4.04892 5.43682 3.97021L2.61738 6.78965C2.68803 7.05839 2.67278 7.3425 2.57376 7.60213C2.47474 7.86176 2.29692 8.08387 2.06526 8.2373C1.83359 8.39074 1.5597 8.46779 1.28202 8.45765C1.00433 8.44752 0.736789 8.3507 0.516926 8.18078C0.297063 8.01087 0.135913 7.77638 0.0560868 7.51022C-0.023739 7.24407 -0.0182349 6.9596 0.071827 6.69673C0.161889 6.43386 0.331989 6.20578 0.55826 6.0445C0.784532 5.88321 1.05562 5.79682 1.33349 5.79743C1.44886 5.79904 1.56352 5.81566 1.6746 5.84687L4.49404 3.02743C4.46283 2.91635 4.44621 2.80169 4.4446 2.68632C4.4446 2.3327 4.58508 1.99356 4.83512 1.74351C5.08517 1.49346 5.42431 1.35299 5.77793 1.35299C6.13156 1.35299 6.47069 1.49346 6.72074 1.74351C6.97079 1.99356 7.11127 2.3327 7.11127 2.68632C7.10965 2.75246 7.10306 2.81839 7.09154 2.88354L9.73932 5.00187C10.0491 4.87706 10.3951 4.87706 10.7049 5.00187L13.3532 2.88326C13.3418 2.81819 13.3352 2.75236 13.3335 2.68632C13.3314 2.39869 13.4216 2.11797 13.5909 1.88547C13.7603 1.65297 13.9998 1.48096 14.2742 1.39476C14.5486 1.30855 14.8434 1.3127 15.1153 1.4066C15.3872 1.5005 15.6218 1.67919 15.7845 1.91637C15.9472 2.15355 16.0295 2.4367 16.0193 2.72415C16.009 3.0116 15.9068 3.28818 15.7276 3.51318C15.5484 3.73819 15.3018 3.89974 15.0239 3.97406C14.746 4.04838 14.4516 4.03155 14.184 3.92604Z" fill="#DC241F"/>
<path d="M11.1114 10.2421H9.33366C9.21579 10.2421 9.10274 10.2889 9.01939 10.3723C8.93604 10.4556 8.88921 10.5686 8.88921 10.6865V15.131C8.88921 15.2488 8.93604 15.3619 9.01939 15.4452C9.10274 15.5286 9.21579 15.5754 9.33366 15.5754H11.1114C11.2293 15.5754 11.3424 15.5286 11.4257 15.4452C11.5091 15.3619 11.5559 15.2488 11.5559 15.131V10.6865C11.5559 10.5686 11.5091 10.4556 11.4257 10.3723C11.3424 10.2889 11.2293 10.2421 11.1114 10.2421ZM15.5559 6.68652H13.7781C13.6602 6.68652 13.5472 6.73335 13.4638 6.8167C13.3805 6.90005 13.3337 7.01309 13.3337 7.13097V15.131C13.3337 15.2488 13.3805 15.3619 13.4638 15.4452C13.5472 15.5286 13.6602 15.5754 13.7781 15.5754H15.5559C15.6738 15.5754 15.7868 15.5286 15.8702 15.4452C15.9535 15.3619 16.0003 15.2488 16.0003 15.131V7.13097C16.0003 7.01309 15.9535 6.90005 15.8702 6.8167C15.7868 6.73335 15.6738 6.68652 15.5559 6.68652ZM6.66699 6.68652H4.88921C4.77134 6.68652 4.65829 6.73335 4.57494 6.8167C4.4916 6.90005 4.44477 7.01309 4.44477 7.13097V15.131C4.44477 15.2488 4.4916 15.3619 4.57494 15.4452C4.65829 15.5286 4.77134 15.5754 4.88921 15.5754H6.66699C6.78487 15.5754 6.89791 15.5286 6.98126 15.4452C7.06461 15.3619 7.11144 15.2488 7.11144 15.131V7.13097C7.11144 7.01309 7.06461 6.90005 6.98126 6.8167C6.89791 6.73335 6.78487 6.68652 6.66699 6.68652ZM2.22255 11.131H0.44477C0.326896 11.131 0.213849 11.1778 0.1305 11.2611C0.0471505 11.3445 0.000325203 11.4575 0.000325203 11.5754L0.000325203 15.131C0.000325203 15.2488 0.0471505 15.3619 0.1305 15.4452C0.213849 15.5286 0.326896 15.5754 0.44477 15.5754H2.22255C2.34042 15.5754 2.45347 15.5286 2.53682 15.4452C2.62017 15.3619 2.66699 15.2488 2.66699 15.131V11.5754C2.66699 11.4575 2.62017 11.3445 2.53682 11.2611C2.45347 11.1778 2.34042 11.131 2.22255 11.131Z" fill="#DC241F"/>
</g>
<defs>
<clipPath id="clip0">
<rect width="16" height="16" fill="white"/>
</clipPath>
</defs>
</svg>
