<svg width="20" height="14" viewBox="0 0 20 14" fill="none" xmlns="http://www.w3.org/2000/svg">
<path fill-rule="evenodd" clip-rule="evenodd" d="M19 0H1C0.447813 0 0 0.447813 0 1V13C0 13.5522 0.447813 14 1 14H19C19.5522 14 20 13.5522 20 13V1C20 0.447813 19.5522 0 19 0ZM18.5 12.5H1.49999V1.5H18.5V12.5ZM9.24999 9H11.75C11.8881 9 12 8.88813 12 8.75V7.75C12 7.61188 11.8881 7.5 11.75 7.5H9.24999C9.11187 7.5 8.99999 7.61188 8.99999 7.75V8.75C8.99999 8.88813 9.11187 9 9.24999 9ZM16.75 7.5H14.25C14.1119 7.5 14 7.61188 14 7.75V8.75C14 8.88813 14.1119 9 14.25 9H16.75C16.8881 9 17 8.88813 17 8.75V7.75C17 7.61188 16.8881 7.5 16.75 7.5ZM9.24999 6.5H16.75C16.8881 6.5 17 6.38812 17 6.25V5.25C17 5.11188 16.8881 5 16.75 5H9.24999C9.11187 5 8.99999 5.11188 8.99999 5.25V6.25C8.99999 6.38812 9.11187 6.5 9.24999 6.5ZM4.21 7.05375L5.52843 7.41125C5.65937 7.44688 5.75 7.55344 5.75 7.67063C5.75 7.82063 5.60937 7.9425 5.43562 7.9425H4.6125C4.48281 7.9425 4.35531 7.91 4.24468 7.85032C4.14843 7.79813 4.03093 7.8075 3.95593 7.88719L3.57875 8.285C3.48156 8.3875 3.4975 8.555 3.61406 8.63469C3.87343 8.81125 4.17843 8.91219 4.5 8.93219V9.25C4.5 9.38813 4.61187 9.5 4.75 9.5H5.25C5.38812 9.5 5.5 9.38813 5.5 9.25V8.92969C6.19312 8.89532 6.75 8.34938 6.75 7.67032C6.75 7.1025 6.35562 6.59907 5.79 6.44625L4.47156 6.08875C4.34062 6.05313 4.25 5.94657 4.25 5.82938C4.25 5.67938 4.39062 5.5575 4.56437 5.5575H5.3875C5.51718 5.5575 5.64468 5.59 5.75531 5.64969C5.85156 5.70157 5.96906 5.6925 6.04406 5.61281L6.42125 5.215C6.51843 5.1125 6.5025 4.945 6.38593 4.86531C6.12656 4.68875 5.82156 4.58781 5.5 4.56781V4.25C5.5 4.11188 5.38812 4 5.25 4H4.75C4.61187 4 4.5 4.11188 4.5 4.25V4.57031C3.80687 4.60469 3.25 5.15063 3.25 5.82969C3.25 6.3975 3.64437 6.90094 4.21 7.05375Z" fill="white"/>
</svg>
