<svg width="20" height="14" viewBox="0 0 20 14" fill="none" xmlns="http://www.w3.org/2000/svg">
<path fill-rule="evenodd" clip-rule="evenodd" d="M9.9844 4.02166C8.60593 4.02166 7.4883 5.36831 7.4883 7.02977C7.4883 8.69093 8.60562 10.0379 9.9844 10.0379C11.3626 10.0379 12.4805 8.69155 12.4805 7.02977C12.4805 5.36831 11.3629 4.02166 9.9844 4.02166ZM19.381 0.711522C18.1707 0.203878 16.9594 0.0107422 15.7488 0.0107422C11.9058 0.0104302 8.06303 1.95583 4.21997 1.95583C3.25616 1.95583 2.29298 1.83352 1.32917 1.52775C1.2209 1.49343 1.11232 1.4772 1.00624 1.4772C0.469267 1.4772 0 1.8928 0 2.46971V12.3686C0 12.7627 0.225585 13.1362 0.587831 13.2878C1.79813 13.7958 3.00936 13.9889 4.21997 13.9889C8.06303 13.9889 11.9061 12.0435 15.7491 12.0435C16.7129 12.0435 17.6761 12.1658 18.6399 12.4716C18.7482 12.5059 18.8568 12.5221 18.9629 12.5221C19.4998 12.5221 19.9691 12.1065 19.9691 11.5296V1.63102C19.9688 1.23664 19.7432 0.863472 19.381 0.711522ZM18.4711 10.8682C17.6069 10.6519 16.7101 10.5462 15.7488 10.5462C13.6409 10.5462 11.595 11.0638 9.61684 11.5646C7.73353 12.041 5.95475 12.4912 4.21996 12.4912C3.23338 12.4912 2.33915 12.3421 1.49765 12.0363V3.13149C2.36193 3.34772 3.25865 3.45349 4.21996 3.45349C6.32792 3.45349 8.37347 2.93586 10.3516 2.43508C12.2349 1.95864 14.0137 1.5084 15.7488 1.5084C16.7357 1.5084 17.6299 1.65755 18.4711 1.96332V10.8682Z" fill="white"/>
</svg>
