<svg width="18" height="18" viewBox="0 0 18 18" fill="none" xmlns="http://www.w3.org/2000/svg">
<path class="icon" fill-rule="evenodd" clip-rule="evenodd" d="M15.875 0.25H2.125C1.08984 0.25 0.25 1.08984 0.25 2.125V15.875C0.25 16.9102 1.08984 17.75 2.125 17.75H15.875C16.9102 17.75 17.75 16.9102 17.75 15.875V2.125C17.75 1.08984 16.9102 0.25 15.875 0.25ZM15.875 15.875H2.125V2.125H15.875V15.875ZM4.9375 14H5.5625C5.90781 14 6.1875 13.7203 6.1875 13.375V8.375C6.1875 8.02969 5.90781 7.75 5.5625 7.75H4.9375C4.59219 7.75 4.3125 8.02969 4.3125 8.375V13.375C4.3125 13.7203 4.59219 14 4.9375 14ZM8.6875 14H9.3125C9.65781 14 9.9375 13.7203 9.9375 13.375V4.625C9.9375 4.27969 9.65781 4 9.3125 4H8.6875C8.34219 4 8.0625 4.27969 8.0625 4.625V13.375C8.0625 13.7203 8.34219 14 8.6875 14ZM12.4375 14H13.0625C13.4078 14 13.6875 13.7203 13.6875 13.375V10.875C13.6875 10.5297 13.4078 10.25 13.0625 10.25H12.4375C12.0922 10.25 11.8125 10.5297 11.8125 10.875V13.375C11.8125 13.7203 12.0922 14 12.4375 14Z" fill="white"/>
</svg>
