<svg width="20" height="16" viewBox="0 0 20 16" fill="none" xmlns="http://www.w3.org/2000/svg">
<path fill-rule="evenodd" clip-rule="evenodd" d="M3.74269 0.514648H7.01754C7.27485 0.514648 7.48538 0.725175 7.48538 0.982485V1.91816C7.48538 2.17547 7.27485 2.38599 7.01754 2.38599H3.74269C2.70955 2.38599 1.87135 3.2242 1.87135 4.25734V11.7427C1.87135 12.7759 2.70955 13.6141 3.74269 13.6141H7.01754C7.27485 13.6141 7.48538 13.8246 7.48538 14.0819V15.0176C7.48538 15.2749 7.27485 15.4854 7.01754 15.4854H3.74269C1.67641 15.4854 0 13.809 0 11.7427V4.25734C0 2.19106 1.67641 0.514648 3.74269 0.514648ZM12.7524 1.27488L11.9883 2.03902C11.8012 2.22615 11.8051 2.52635 11.9961 2.70568L16.4055 6.98639H6.70566C6.44835 6.98639 6.23782 7.19691 6.23782 7.45422V8.54584C6.23782 8.80315 6.44835 9.01368 6.70566 9.01368H16.4055L11.9961 13.2905C11.809 13.4737 11.8051 13.7739 11.9883 13.9571L12.7524 14.7213C12.9357 14.9045 13.232 14.9045 13.4152 14.7213L19.8246 8.32752C20.0078 8.14428 20.0078 7.84798 19.8246 7.66475L13.4152 1.27099C13.232 1.09165 12.9357 1.09165 12.7524 1.27488Z" fill="white"/>
</svg>
