<svg width="20" height="20" viewBox="0 0 20 20" fill="none" xmlns="http://www.w3.org/2000/svg">
<path fill-rule="evenodd" clip-rule="evenodd" d="M4.44444 11.1111C3.8309 11.1111 3.33333 11.6086 3.33333 12.2222C3.33333 12.8357 3.8309 13.3333 4.44444 13.3333C5.05799 13.3333 5.55556 12.8357 5.55556 12.2222C5.55556 11.6086 5.05799 11.1111 4.44444 11.1111ZM9.81424 7.74022L10.3781 6.0489C10.4184 5.92911 10.4886 5.82842 10.549 5.72147C10.3847 5.62564 10.2038 5.5555 10 5.5555C9.38647 5.5555 8.8889 6.05307 8.8889 6.66661C8.8889 7.21453 9.29272 7.6489 9.81424 7.74022ZM6.11111 7.22217C5.49757 7.22217 5 7.71974 5 8.33328C5 8.94682 5.49757 9.44439 6.11111 9.44439C6.72465 9.44439 7.22222 8.94682 7.22222 8.33328C7.22222 7.71974 6.72465 7.22217 6.11111 7.22217ZM10 2.22217C4.47708 2.22217 0 6.69925 0 12.2222C0 14.0555 0.494792 15.7729 1.35625 17.2499C1.55104 17.584 1.92222 17.7777 2.30903 17.7777H17.691C18.0778 17.7777 18.449 17.584 18.6437 17.2499C19.5052 15.7729 20 14.0555 20 12.2222C20 6.69925 15.5229 2.22217 10 2.22217ZM17.3705 16.1111H2.62951C1.99861 14.9177 1.66667 13.5805 1.66667 12.2222C1.66667 7.62703 5.40486 3.88883 10 3.88883C14.5951 3.88883 18.3333 7.62703 18.3333 12.2222C18.3333 13.5805 18.0014 14.9177 17.3705 16.1111ZM14.4444 12.2222C14.4444 12.8357 14.942 13.3333 15.5555 13.3333C16.1691 13.3333 16.6667 12.8357 16.6667 12.2222C16.6667 11.6086 16.1691 11.1111 15.5555 11.1111C14.942 11.1111 14.4444 11.6086 14.4444 12.2222ZM12.4858 5.87598C12.0441 5.72911 11.5774 5.96696 11.4309 6.40272L9.85659 11.1253C8.69756 11.2006 7.77777 12.1548 7.77777 13.3333C7.77777 13.7402 7.89513 14.1163 8.0861 14.4444H11.9142C12.1052 14.1163 12.2226 13.7402 12.2226 13.3333C12.2226 12.6579 11.9149 12.0604 11.4396 11.6527L13.0139 6.93015C13.1587 6.49369 12.9222 6.02147 12.4858 5.87598ZM15 8.33328C15 7.78467 14.5951 7.3496 14.0722 7.25933C14.0698 7.26662 14.0698 7.27426 14.0674 7.2819L13.3903 9.3128C13.542 9.39057 13.7066 9.44474 13.8889 9.44474C14.5024 9.44439 15 8.94683 15 8.33328Z" fill="white"/>
</svg>
