<svg width="16" height="16" viewBox="0 0 16 16" fill="none" xmlns="http://www.w3.org/2000/svg">
<path opacity="0.4" d="M12 8.00005C12.4746 8.00005 12.9386 7.85929 13.3333 7.59558C13.728 7.33187 14.0356 6.95704 14.2172 6.5185C14.3989 6.07996 14.4464 5.5974 14.3538 5.13185C14.2612 4.6663 14.0326 4.23866 13.697 3.90301C13.3614 3.56737 12.9337 3.33879 12.4682 3.24619C12.0026 3.15359 11.5201 3.20111 11.0815 3.38276C10.643 3.56441 10.2682 3.87202 10.0044 4.2667C9.74073 4.66138 9.59997 5.12539 9.59997 5.60006C9.59997 6.23658 9.85282 6.84703 10.3029 7.29711C10.753 7.7472 11.3634 8.00005 12 8.00005ZM13.1999 8.80005H13.1049C12.7574 8.92005 12.3899 9.00005 12 9.00005C11.61 9.00005 11.2425 8.92005 10.895 8.80005H10.8C10.29 8.80005 9.81997 8.94755 9.40747 9.18504C10.0175 9.84254 10.4 10.715 10.4 11.68V12.64C10.4 12.695 10.3875 12.7475 10.385 12.8H14.7999C15.1182 12.8 15.4234 12.6736 15.6485 12.4486C15.8735 12.2235 15.9999 11.9183 15.9999 11.6C16.0001 11.2323 15.9278 10.8681 15.7872 10.5283C15.6465 10.1885 15.4403 9.87975 15.1803 9.6197C14.9202 9.35966 14.6115 9.15342 14.2717 9.01278C13.9319 8.87214 13.5677 8.79985 13.1999 8.80005Z" fill="#BCC8E7"/>
<path d="M4.79998 8C5.35376 8 5.89511 7.83578 6.35557 7.52812C6.81602 7.22045 7.1749 6.78315 7.38683 6.27152C7.59875 5.75989 7.6542 5.19691 7.54616 4.65376C7.43812 4.11062 7.17145 3.61171 6.77987 3.22012C6.38828 2.82854 5.88937 2.56186 5.34623 2.45383C4.80308 2.34579 4.2401 2.40124 3.72847 2.61316C3.21684 2.82509 2.77954 3.18397 2.47187 3.64442C2.16421 4.10488 1.99999 4.64623 1.99999 5.20001C1.99979 5.56777 2.07208 5.93195 2.21272 6.27175C2.35337 6.61155 2.55961 6.9203 2.81965 7.18034C3.07969 7.44038 3.38844 7.64662 3.72824 7.78726C4.06803 7.92791 4.43222 8.0002 4.79998 8ZM6.71997 8.79999H6.51247C5.97908 9.0607 5.39366 9.19744 4.79998 9.19999C4.18498 9.19999 3.60998 9.04999 3.08748 8.79999H2.87999C2.11623 8.80019 1.38381 9.10368 0.843748 9.64374C0.303689 10.1838 0.000198818 10.9162 0 11.68L0 12.4C0 12.7182 0.126428 13.0235 0.35147 13.2485C0.576513 13.4735 0.881736 13.6 1.19999 13.6H8.39996C8.71822 13.6 9.02344 13.4735 9.24848 13.2485C9.47353 13.0235 9.59995 12.7182 9.59995 12.4V11.68C9.59975 10.9162 9.29626 10.1838 8.7562 9.64374C8.21615 9.10368 7.48373 8.80019 6.71997 8.79999Z" fill="#BCC8E7"/>
</svg>
