<svg width="24" height="24" viewBox="0 0 24 24" fill="none" xmlns="http://www.w3.org/2000/svg">
<path opacity="0.4" d="M19.8 15.6001H18.6203L15.5149 13.2001H19.8C19.9592 13.2001 20.1118 13.2633 20.2243 13.3759C20.3368 13.4884 20.4 13.641 20.4 13.8001V15.0001C20.4 15.1593 20.3368 15.3119 20.2243 15.4244C20.1118 15.5369 19.9592 15.6001 19.8 15.6001ZM3.6001 13.8001V15.0001C3.6001 15.1593 3.66331 15.3119 3.77583 15.4244C3.88835 15.5369 4.04097 15.6001 4.2001 15.6001H10.7705L7.66546 13.2001H4.2001C4.04097 13.2001 3.88835 13.2633 3.77583 13.3759C3.66331 13.4884 3.6001 13.641 3.6001 13.8001ZM19.8 6.00015C19.9592 6.00015 20.1118 5.93694 20.2243 5.82442C20.3368 5.71189 20.4 5.55928 20.4 5.40015V4.20016C20.4 4.04103 20.3368 3.88842 20.2243 3.77589C20.1118 3.66337 19.9592 3.60016 19.8 3.60016H4.2001C4.07394 3.60115 3.95139 3.64233 3.85023 3.71773C3.74908 3.79312 3.6746 3.8988 3.6376 4.01941L6.19921 6.00015H19.8ZM4.2001 18.0001C4.04097 18.0001 3.88835 18.0633 3.77583 18.1758C3.66331 18.2884 3.6001 18.441 3.6001 18.6001V19.8001C3.6001 19.9592 3.66331 20.1119 3.77583 20.2244C3.88835 20.3369 4.04097 20.4001 4.2001 20.4001H16.9812L13.8751 18.0001H4.2001ZM19.8 8.40014H9.30458L12.4099 10.8001H19.8C19.9592 10.8001 20.1118 10.7369 20.2243 10.6244C20.3368 10.5119 20.4 10.3593 20.4 10.2001V9.00014C20.4 8.84101 20.3368 8.6884 20.2243 8.57588C20.1118 8.46336 19.9592 8.40014 19.8 8.40014Z" fill="#DC241F"/>
<path d="M23.7681 19.5785L1.70466 2.52656C1.64245 2.47815 1.57131 2.44247 1.49531 2.42157C1.4193 2.40066 1.33992 2.39494 1.26171 2.40473C1.18349 2.41451 1.10797 2.43962 1.03945 2.4786C0.970942 2.51759 0.910784 2.56969 0.862416 2.63193L0.126294 3.57956C0.0286432 3.70517 -0.0151132 3.86444 0.00464778 4.02231C0.0244088 4.18019 0.106069 4.32375 0.231668 4.42143L22.2951 21.4734C22.3573 21.5218 22.4285 21.5575 22.5045 21.5784C22.5805 21.5993 22.6598 21.605 22.7381 21.5952C22.8163 21.5854 22.8918 21.5603 22.9603 21.5213C23.0288 21.4823 23.089 21.4302 23.1374 21.368L23.8738 20.4204C23.9715 20.2947 24.0152 20.1354 23.9953 19.9775C23.9755 19.8197 23.8938 19.6761 23.7681 19.5785Z" fill="#DC241F"/>
</svg>
