<svg width="24" height="24" viewBox="0 0 24 24" fill="none" xmlns="http://www.w3.org/2000/svg">
<path opacity="0.4" d="M8.57178 22.7144V12.0009H15.4343V22.7144C15.4343 23.0554 15.2988 23.3824 15.0577 23.6235C14.8166 23.8646 14.4896 24 14.1487 24H9.85739C9.51643 24 9.18943 23.8646 8.94833 23.6235C8.70723 23.3824 8.57178 23.0554 8.57178 22.7144Z" fill="#DC241F"/>
<path d="M2.09286 9.80421L11.0895 0.376353C11.3313 0.135337 11.6588 0 12.0001 0C12.3415 0 12.669 0.135337 12.9108 0.376353L21.9058 9.80421C22.7152 10.6125 22.1415 12.0005 20.9952 12.0005H3.00351C1.85609 12.0005 1.28667 10.6238 2.09286 9.80421Z" fill="#DC241F"/>
</svg>
