<svg width="24" height="24" viewBox="0 0 24 24" fill="none" xmlns="http://www.w3.org/2000/svg">
<path opacity="0.4" d="M21.4286 0H2.57143C1.88944 0 1.23539 0.270918 0.753154 0.753154C0.270918 1.23539 0 1.88944 0 2.57143L0 21.4286C0 22.1106 0.270918 22.7646 0.753154 23.2468C1.23539 23.7291 1.88944 24 2.57143 24H21.4286C22.1106 24 22.7646 23.7291 23.2468 23.2468C23.7291 22.7646 24 22.1106 24 21.4286V2.57143C24 1.88944 23.7291 1.23539 23.2468 0.753154C22.7646 0.270918 22.1106 0 21.4286 0ZM20.0143 12.8357L12.9054 19.9446C12.7864 20.0643 12.6449 20.1593 12.489 20.2242C12.3332 20.289 12.1661 20.3223 11.9973 20.3223C11.8285 20.3223 11.6614 20.289 11.5056 20.2242C11.3498 20.1593 11.2083 20.0643 11.0893 19.9446L3.98571 12.8357C3.86602 12.7167 3.77102 12.5752 3.7062 12.4194C3.64138 12.2636 3.60801 12.0965 3.60801 11.9277C3.60801 11.7589 3.64138 11.5918 3.7062 11.436C3.77102 11.2801 3.86602 11.1386 3.98571 11.0196L4.56964 10.4304C4.69079 10.3094 4.83485 10.2139 4.99339 10.1494C5.15193 10.0849 5.32175 10.0527 5.4929 10.0547C5.66404 10.0567 5.83307 10.0929 5.99006 10.1611C6.14705 10.2292 6.28885 10.3281 6.40714 10.4518L10.2857 14.4964V4.71429C10.2853 4.54532 10.3183 4.37794 10.3827 4.22176C10.4472 4.06558 10.5419 3.92368 10.6613 3.8042C10.7808 3.68473 10.9227 3.59004 11.0789 3.52558C11.2351 3.46111 11.4025 3.42815 11.5714 3.42857H12.4286C12.5975 3.42815 12.7649 3.46111 12.9211 3.52558C13.0773 3.59004 13.2192 3.68473 13.3387 3.8042C13.4581 3.92368 13.5528 4.06558 13.6173 4.22176C13.6817 4.37794 13.7147 4.54532 13.7143 4.71429V14.4964L17.5929 10.4518C17.7111 10.3281 17.8529 10.2292 18.0099 10.1611C18.1669 10.0929 18.336 10.0567 18.5071 10.0547C18.6782 10.0527 18.8481 10.0849 19.0066 10.1494C19.1651 10.2139 19.3092 10.3094 19.4304 10.4304L20.0143 11.0196C20.134 11.1386 20.229 11.2801 20.2938 11.436C20.3586 11.5918 20.392 11.7589 20.392 11.9277C20.392 12.0965 20.3586 12.2636 20.2938 12.4194C20.229 12.5752 20.134 12.7167 20.0143 12.8357Z" fill="#DC241F"/>
<path d="M17.5928 10.4517C17.711 10.328 17.8528 10.2292 18.0098 10.161C18.1668 10.0928 18.3359 10.0567 18.507 10.0547C18.6781 10.0527 18.848 10.0849 19.0065 10.1494C19.165 10.2139 19.3091 10.3094 19.4303 10.4303L20.0142 11.0196C20.1339 11.1386 20.2289 11.2801 20.2937 11.4359C20.3585 11.5917 20.3919 11.7589 20.3919 11.9276C20.3919 12.0964 20.3585 12.2635 20.2937 12.4194C20.2289 12.5752 20.1339 12.7167 20.0142 12.8357L12.9053 19.9446C12.7863 20.0643 12.6448 20.1593 12.4889 20.2241C12.3331 20.2889 12.166 20.3223 11.9972 20.3223C11.8284 20.3223 11.6613 20.2889 11.5055 20.2241C11.3497 20.1593 11.2082 20.0643 11.0892 19.9446L3.98561 12.8357C3.86591 12.7167 3.77092 12.5752 3.7061 12.4194C3.64128 12.2635 3.60791 12.0964 3.60791 11.9276C3.60791 11.7589 3.64128 11.5917 3.7061 11.4359C3.77092 11.2801 3.86591 11.1386 3.98561 11.0196L4.56954 10.4303C4.69068 10.3094 4.83475 10.2139 4.99329 10.1494C5.15183 10.0849 5.32165 10.0527 5.4928 10.0547C5.66394 10.0567 5.83297 10.0928 5.98996 10.161C6.14695 10.2292 6.28875 10.328 6.40704 10.4517L10.2856 14.4964V4.71425C10.2852 4.54528 10.3182 4.37791 10.3826 4.22172C10.4471 4.06554 10.5418 3.92364 10.6612 3.80416C10.7807 3.68469 10.9226 3.59 11.0788 3.52554C11.235 3.46107 11.4024 3.42811 11.5713 3.42853H12.4285C12.5974 3.42811 12.7648 3.46107 12.921 3.52554C13.0772 3.59 13.2191 3.68469 13.3386 3.80416C13.458 3.92364 13.5527 4.06554 13.6172 4.22172C13.6816 4.37791 13.7146 4.54528 13.7142 4.71425V14.4964L17.5928 10.4517Z" fill="#DC241F"/>
</svg>
