<svg width="24" height="24" viewBox="0 0 24 24" fill="none" xmlns="http://www.w3.org/2000/svg">
<path opacity="0.4" d="M15.4292 1.28565V11.9994H8.56592V1.28565C8.56592 0.944676 8.70137 0.617665 8.94248 0.376559C9.18358 0.135452 9.51059 0 9.85157 0H14.1435C14.4845 0 14.8115 0.135452 15.0526 0.376559C15.2937 0.617665 15.4292 0.944676 15.4292 1.28565Z" fill="#DC241F"/>
<path d="M21.907 14.1957L12.9112 23.6238C12.6694 23.8647 12.3419 24 12.0006 24C11.6592 24 11.3317 23.8647 11.0899 23.6238L2.09407 14.1957C1.28465 13.3874 1.85837 11.9994 3.00474 11.9994H20.9964C22.1438 11.9994 22.7143 13.3793 21.907 14.1957Z" fill="#DC241F"/>
</svg>
