<svg width="24" height="24" viewBox="0 0 24 24" fill="none" xmlns="http://www.w3.org/2000/svg">
<path opacity="0.4" d="M1.5 9V21.75C1.5 22.3467 1.73705 22.919 2.15901 23.341C2.58097 23.7629 3.15326 24 3.75 24H20.25C20.8467 24 21.419 23.7629 21.841 23.341C22.2629 22.919 22.5 22.3467 22.5 21.75V9H1.5ZM10.6959 11.25H13.275C13.3489 11.25 13.422 11.2646 13.4903 11.2928C13.5585 11.3211 13.6205 11.3625 13.6727 11.4148C13.725 11.467 13.7664 11.529 13.7947 11.5972C13.823 11.6655 13.8375 11.7386 13.8375 11.8125V11.8514L13.5 17.1014C13.4901 17.2437 13.4265 17.377 13.3221 17.4742C13.2177 17.5714 13.0802 17.6253 12.9375 17.625H11.0625C10.9196 17.6253 10.7819 17.5712 10.6774 17.4737C10.573 17.3762 10.5095 17.2426 10.5 17.1L10.1625 11.85C10.1581 11.7756 10.1683 11.701 10.1928 11.6305C10.2172 11.5601 10.2553 11.4951 10.3048 11.4394C10.3543 11.3837 10.4144 11.3382 10.4815 11.3057C10.5486 11.2732 10.6215 11.2543 10.6959 11.25ZM12 22.125C11.6292 22.125 11.2666 22.015 10.9583 21.809C10.65 21.603 10.4096 21.3101 10.2677 20.9675C10.1258 20.6249 10.0887 20.2479 10.161 19.8842C10.2334 19.5205 10.412 19.1864 10.6742 18.9242C10.9364 18.662 11.2705 18.4834 11.6342 18.411C11.9979 18.3387 12.3749 18.3758 12.7175 18.5177C13.0601 18.6596 13.353 18.9 13.559 19.2083C13.765 19.5166 13.875 19.8792 13.875 20.25C13.875 20.7473 13.6775 21.2242 13.3258 21.5758C12.9742 21.9275 12.4973 22.125 12 22.125ZM6.75 6H8.25C8.44891 6 8.63968 5.92098 8.78033 5.78033C8.92098 5.63968 9 5.44891 9 5.25V0.75C9 0.551088 8.92098 0.360322 8.78033 0.21967C8.63968 0.0790176 8.44891 0 8.25 0L6.75 0C6.55109 0 6.36032 0.0790176 6.21967 0.21967C6.07902 0.360322 6 0.551088 6 0.75V5.25C6 5.44891 6.07902 5.63968 6.21967 5.78033C6.36032 5.92098 6.55109 6 6.75 6ZM15.75 6H17.25C17.4489 6 17.6397 5.92098 17.7803 5.78033C17.921 5.63968 18 5.44891 18 5.25V0.75C18 0.551088 17.921 0.360322 17.7803 0.21967C17.6397 0.0790176 17.4489 0 17.25 0L15.75 0C15.5511 0 15.3603 0.0790176 15.2197 0.21967C15.079 0.360322 15 0.551088 15 0.75V5.25C15 5.44891 15.079 5.63968 15.2197 5.78033C15.3603 5.92098 15.5511 6 15.75 6Z" fill="#DC241F"/>
<path d="M12 18.375C11.6292 18.375 11.2666 18.485 10.9583 18.691C10.65 18.897 10.4096 19.1899 10.2677 19.5325C10.1258 19.8751 10.0887 20.2521 10.161 20.6158C10.2334 20.9795 10.412 21.3136 10.6742 21.5758C10.9364 21.838 11.2705 22.0166 11.6342 22.089C11.9979 22.1613 12.3749 22.1242 12.7175 21.9823C13.0601 21.8404 13.353 21.6 13.559 21.2917C13.765 20.9834 13.875 20.6208 13.875 20.25C13.875 19.7527 13.6775 19.2758 13.3258 18.9242C12.9742 18.5725 12.4973 18.375 12 18.375ZM11.0625 17.625H12.9375C13.0804 17.6253 13.2181 17.5712 13.3226 17.4737C13.427 17.3762 13.4905 17.2426 13.5 17.1L13.8375 11.85C13.8426 11.7761 13.833 11.7019 13.8094 11.6317C13.7857 11.5615 13.7484 11.4967 13.6997 11.4409C13.6509 11.3852 13.5916 11.3396 13.5251 11.3068C13.4587 11.2741 13.3864 11.2548 13.3125 11.25H10.725C10.5747 11.2512 10.4311 11.3121 10.3256 11.4191C10.2202 11.5261 10.1615 11.6707 10.1625 11.8209V11.85L10.5 17.1C10.5095 17.2426 10.573 17.3762 10.6774 17.4737C10.7819 17.5712 10.9196 17.6253 11.0625 17.625ZM20.25 3H18V5.25C18 5.44891 17.921 5.63968 17.7803 5.78033C17.6397 5.92098 17.4489 6 17.25 6H15.75C15.5511 6 15.3603 5.92098 15.2197 5.78033C15.079 5.63968 15 5.44891 15 5.25V3H9V5.25C9 5.44891 8.92098 5.63968 8.78033 5.78033C8.63968 5.92098 8.44891 6 8.25 6H6.75C6.55109 6 6.36032 5.92098 6.21967 5.78033C6.07902 5.63968 6 5.44891 6 5.25V3H3.75C3.15326 3 2.58097 3.23705 2.15901 3.65901C1.73705 4.08097 1.5 4.65326 1.5 5.25L1.5 9H22.5V5.25C22.5 4.65326 22.2629 4.08097 21.841 3.65901C21.419 3.23705 20.8467 3 20.25 3Z" fill="#DC241F"/>
</svg>
