<svg width="24" height="24" viewBox="0 0 24 24" fill="none" xmlns="http://www.w3.org/2000/svg">
<path opacity="0.4" d="M1.5 9V21.75C1.5 22.3467 1.73705 22.919 2.15901 23.341C2.58097 23.7629 3.15326 24 3.75 24H20.25C20.8467 24 21.419 23.7629 21.841 23.341C22.2629 22.919 22.5 22.3467 22.5 21.75V9H1.5ZM16.875 17.4375C16.875 17.5867 16.8157 17.7298 16.7102 17.8352C16.6048 17.9407 16.4617 18 16.3125 18H13.5V20.8125C13.5 20.9617 13.4407 21.1048 13.3352 21.2102C13.2298 21.3157 13.0867 21.375 12.9375 21.375H11.0625C10.9133 21.375 10.7702 21.3157 10.6648 21.2102C10.5593 21.1048 10.5 20.9617 10.5 20.8125V18H7.6875C7.53832 18 7.39524 17.9407 7.28975 17.8352C7.18426 17.7298 7.125 17.5867 7.125 17.4375V15.5625C7.125 15.4133 7.18426 15.2702 7.28975 15.1648C7.39524 15.0593 7.53832 15 7.6875 15H10.5V12.1875C10.5 12.0383 10.5593 11.8952 10.6648 11.7898C10.7702 11.6843 10.9133 11.625 11.0625 11.625H12.9375C13.0867 11.625 13.2298 11.6843 13.3352 11.7898C13.4407 11.8952 13.5 12.0383 13.5 12.1875V15H16.3125C16.4617 15 16.6048 15.0593 16.7102 15.1648C16.8157 15.2702 16.875 15.4133 16.875 15.5625V17.4375ZM15.75 6H17.25C17.4489 6 17.6397 5.92098 17.7803 5.78033C17.921 5.63968 18 5.44891 18 5.25V0.75C18 0.551088 17.921 0.360322 17.7803 0.21967C17.6397 0.0790176 17.4489 0 17.25 0L15.75 0C15.5511 0 15.3603 0.0790176 15.2197 0.21967C15.079 0.360322 15 0.551088 15 0.75V5.25C15 5.44891 15.079 5.63968 15.2197 5.78033C15.3603 5.92098 15.5511 6 15.75 6ZM6.75 6H8.25C8.44891 6 8.63968 5.92098 8.78033 5.78033C8.92098 5.63968 9 5.44891 9 5.25V0.75C9 0.551088 8.92098 0.360322 8.78033 0.21967C8.63968 0.0790176 8.44891 0 8.25 0L6.75 0C6.55109 0 6.36032 0.0790176 6.21967 0.21967C6.07902 0.360322 6 0.551088 6 0.75V5.25C6 5.44891 6.07902 5.63968 6.21967 5.78033C6.36032 5.92098 6.55109 6 6.75 6Z" fill="#DC241F"/>
<path d="M16.3125 15H13.5V12.1875C13.5 12.0383 13.4407 11.8952 13.3352 11.7898C13.2298 11.6843 13.0867 11.625 12.9375 11.625H11.0625C10.9133 11.625 10.7702 11.6843 10.6648 11.7898C10.5593 11.8952 10.5 12.0383 10.5 12.1875V15H7.6875C7.53832 15 7.39524 15.0593 7.28975 15.1648C7.18426 15.2702 7.125 15.4133 7.125 15.5625V17.4375C7.125 17.5867 7.18426 17.7298 7.28975 17.8352C7.39524 17.9407 7.53832 18 7.6875 18H10.5V20.8125C10.5 20.9617 10.5593 21.1048 10.6648 21.2102C10.7702 21.3157 10.9133 21.375 11.0625 21.375H12.9375C13.0867 21.375 13.2298 21.3157 13.3352 21.2102C13.4407 21.1048 13.5 20.9617 13.5 20.8125V18H16.3125C16.4617 18 16.6048 17.9407 16.7102 17.8352C16.8157 17.7298 16.875 17.5867 16.875 17.4375V15.5625C16.875 15.4133 16.8157 15.2702 16.7102 15.1648C16.6048 15.0593 16.4617 15 16.3125 15ZM20.25 3H18V5.25C18 5.44891 17.921 5.63968 17.7803 5.78033C17.6397 5.92098 17.4489 6 17.25 6H15.75C15.5511 6 15.3603 5.92098 15.2197 5.78033C15.079 5.63968 15 5.44891 15 5.25V3H9V5.25C9 5.44891 8.92098 5.63968 8.78033 5.78033C8.63968 5.92098 8.44891 6 8.25 6H6.75C6.55109 6 6.36032 5.92098 6.21967 5.78033C6.07902 5.63968 6 5.44891 6 5.25V3H3.75C3.15326 3 2.58097 3.23705 2.15901 3.65901C1.73705 4.08097 1.5 4.65326 1.5 5.25L1.5 9H22.5V5.25C22.5 4.65326 22.2629 4.08097 21.841 3.65901C21.419 3.23705 20.8467 3 20.25 3Z" fill="#DC241F"/>
</svg>
