<svg width="24" height="24" viewBox="0 0 24 24" fill="none" xmlns="http://www.w3.org/2000/svg">
<path opacity="0.4" d="M23.4375 18C23.5867 18 23.7298 18.0593 23.8352 18.1648C23.9407 18.2702 24 18.4133 24 18.5625V20.4375C24 20.5867 23.9407 20.7298 23.8352 20.8352C23.7298 20.9407 23.5867 21 23.4375 21H0.5625C0.413316 21 0.270242 20.9407 0.164752 20.8352C0.0592632 20.7298 0 20.5867 0 20.4375L0 3.5625C0 3.41332 0.0592632 3.27024 0.164752 3.16475C0.270242 3.05926 0.413316 3 0.5625 3H2.4375C2.58668 3 2.72976 3.05926 2.83525 3.16475C2.94074 3.27024 3 3.41332 3 3.5625V18H23.4375Z" fill="#DC241F"/>
<path d="M18.2859 7.69728L22.5 16.5004H4.5V11.6254L8.56875 4.84259C8.61629 4.76349 8.68255 4.6973 8.76171 4.64985C8.84087 4.6024 8.93049 4.57516 9.02266 4.57053C9.11484 4.5659 9.20673 4.58402 9.29025 4.62329C9.37376 4.66256 9.44634 4.72178 9.50156 4.79572L13.5 10.1254L17.4703 7.47697C17.5369 7.43277 17.6122 7.40329 17.6911 7.39048C17.77 7.37766 17.8508 7.38182 17.9279 7.40267C18.0051 7.42351 18.077 7.46057 18.1387 7.51138C18.2004 7.56218 18.2506 7.62555 18.2859 7.69728Z" fill="#DC241F"/>
</svg>
