<svg width="24" height="24" viewBox="0 0 24 24" fill="none" xmlns="http://www.w3.org/2000/svg">
<g clip-path="url(#clip0)">
<path opacity="0.4" d="M7.80796 13.2519L2.06249 7.46286C1.90754 7.3048 1.82145 7.09183 1.82303 6.87049C1.82462 6.64916 1.91374 6.43744 2.07092 6.28161L4.04436 4.32364C4.20242 4.1687 4.41539 4.08261 4.63673 4.08419C4.85806 4.08577 5.06978 4.17489 5.22561 4.33208L8.42389 7.55567L15.7908 0.239422C15.9489 0.0844477 16.162 -0.00165106 16.3834 -7.01608e-05C16.6048 0.00151073 16.8166 0.0906428 16.9725 0.247859L18.9375 2.22223C19.0925 2.38038 19.1786 2.59342 19.177 2.81483C19.1754 3.03625 19.0863 3.24804 18.929 3.40395L8.98967 13.2604C8.83153 13.4153 8.61849 13.5014 8.39707 13.4999C8.17566 13.4983 7.96387 13.4091 7.80796 13.2519V13.2519Z" fill="#DC241F"/>
<path d="M23.6485 8.06231C23.8737 8.28934 24 8.59614 24 8.9159C24 9.23566 23.8737 9.54246 23.6485 9.76949L9.84851 23.6464C9.73747 23.7584 9.60531 23.8474 9.45969 23.9081C9.31406 23.9688 9.15785 24.0001 9.00008 24.0001C8.8423 24.0001 8.68609 23.9688 8.54047 23.9081C8.39484 23.8474 8.26269 23.7584 8.15164 23.6464L0.351639 15.8014C0.126391 15.5745 -1.52588e-05 15.2677 -1.52588e-05 14.948C-1.52588e-05 14.6283 0.126391 14.3215 0.351639 14.0947L2.04851 12.3879C2.15956 12.2759 2.29172 12.1869 2.43734 12.1262C2.58297 12.0655 2.73918 12.0342 2.89695 12.0342C3.05473 12.0342 3.21094 12.0655 3.35656 12.1262C3.50219 12.1869 3.63434 12.2759 3.74539 12.3879L9.00008 17.6717L20.2548 6.35324C20.3659 6.24128 20.498 6.15241 20.6437 6.09177C20.7893 6.03113 20.9455 5.99991 21.1032 5.99991C21.2609 5.99991 21.4171 6.03113 21.5627 6.09177C21.7084 6.15241 21.8405 6.24128 21.9516 6.35324L23.6485 8.06231Z" fill="#DC241F"/>
</g>
<defs>
<clipPath id="clip0">
<rect width="24" height="24" fill="white"/>
</clipPath>
</defs>
</svg>
