<svg width="24" height="24" viewBox="0 0 24 24" fill="none" xmlns="http://www.w3.org/2000/svg">
<path opacity="0.4" d="M23.0808 20.6572C23.3172 20.8936 23.4499 21.2142 23.4499 21.5484C23.4499 21.8827 23.3172 22.2032 23.0808 22.4396L21.8924 23.6301C21.7757 23.7469 21.6371 23.8395 21.4846 23.9027C21.3321 23.9659 21.1687 23.9984 21.0036 23.9984C20.8385 23.9984 20.675 23.9659 20.5225 23.9027C20.37 23.8395 20.2315 23.7469 20.1148 23.6301L12.0001 15.5444L3.88652 23.6317C3.76982 23.7484 3.63126 23.8411 3.47875 23.9043C3.32625 23.9674 3.16278 24 2.9977 24C2.83262 24 2.66916 23.9674 2.51665 23.9043C2.36415 23.8411 2.22559 23.7484 2.10888 23.6317L0.919415 22.4396C0.683069 22.2032 0.550293 21.8827 0.550293 21.5484C0.550293 21.2142 0.683069 20.8936 0.919415 20.6572L11.1074 10.452C11.2241 10.335 11.3627 10.2421 11.5154 10.1788C11.6681 10.1155 11.8317 10.0829 11.997 10.0829C12.1622 10.0829 12.3259 10.1155 12.4785 10.1788C12.6312 10.2421 12.7698 10.335 12.8866 10.452L23.0808 20.6572Z" fill="#DC241F"/>
<path d="M23.0808 10.5743C23.3172 10.8107 23.4499 11.1313 23.4499 11.4655C23.4499 11.7998 23.3172 12.1203 23.0808 12.3567L21.8924 13.5472C21.7757 13.664 21.6371 13.7566 21.4846 13.8198C21.3321 13.883 21.1687 13.9155 21.0036 13.9155C20.8385 13.9155 20.675 13.883 20.5225 13.8198C20.37 13.7566 20.2315 13.664 20.1148 13.5472L12.0001 5.46147L3.88652 13.5488C3.76982 13.6656 3.63126 13.7582 3.47875 13.8214C3.32625 13.8846 3.16278 13.9171 2.9977 13.9171C2.83262 13.9171 2.66916 13.8846 2.51665 13.8214C2.36415 13.7582 2.22559 13.6656 2.10888 13.5488L0.919415 12.3567C0.683069 12.1203 0.550293 11.7998 0.550293 11.4655C0.550293 11.1313 0.683069 10.8107 0.919415 10.5743L11.1074 0.369071C11.2241 0.252078 11.3627 0.15926 11.5154 0.0959291C11.6681 0.0325985 11.8317 0 11.997 0C12.1622 0 12.3259 0.0325985 12.4785 0.0959291C12.6312 0.15926 12.7698 0.252078 12.8866 0.369071L23.0808 10.5743Z" fill="#DC241F"/>
</svg>
