<svg width="24" height="24" viewBox="0 0 24 24" fill="none" xmlns="http://www.w3.org/2000/svg">
<path opacity="0.4" d="M11.1073 13.5511L0.903933 3.34249C0.786599 3.22585 0.693483 3.08717 0.629943 2.93441C0.566402 2.78165 0.533691 2.61784 0.533691 2.45239C0.533691 2.28695 0.566402 2.12314 0.629943 1.97038C0.693483 1.81762 0.786599 1.67893 0.903933 1.56229L2.09599 0.370242C2.33279 0.135567 2.65269 0.00390488 2.98609 0.00390488C3.31948 0.00390488 3.63938 0.135567 3.87619 0.370242L12 8.45729L20.1238 0.370242C20.2404 0.252907 20.3791 0.159792 20.5319 0.0962512C20.6846 0.0327109 20.8484 0 21.0139 0C21.1793 0 21.3432 0.0327109 21.4959 0.0962512C21.6487 0.159792 21.7874 0.252907 21.904 0.370242L23.096 1.56229C23.2134 1.67893 23.3065 1.81762 23.37 1.97038C23.4336 2.12314 23.4663 2.28695 23.4663 2.45239C23.4663 2.61784 23.4336 2.78165 23.37 2.93441C23.3065 3.08717 23.2134 3.22585 23.096 3.34249L12.8927 13.5511C12.6549 13.7858 12.3342 13.9174 12 13.9174C11.6658 13.9174 11.3451 13.7858 11.1073 13.5511Z" fill="#DC241F"/>
<path d="M11.1073 23.6336L0.903933 13.425C0.786599 13.3084 0.693483 13.1697 0.629943 13.0169C0.566402 12.8642 0.533691 12.7004 0.533691 12.5349C0.533691 12.3695 0.566402 12.2057 0.629943 12.0529C0.693483 11.9001 0.786599 11.7615 0.903933 11.6448L2.09599 10.4528C2.21262 10.3354 2.35131 10.2423 2.50407 10.1788C2.65683 10.1152 2.82064 10.0825 2.98609 10.0825C3.15153 10.0825 3.31534 10.1152 3.4681 10.1788C3.62086 10.2423 3.75955 10.3354 3.87619 10.4528L12 18.5398L20.1238 10.4528C20.3606 10.2181 20.6805 10.0864 21.0139 10.0864C21.3473 10.0864 21.6672 10.2181 21.904 10.4528L23.096 11.6448C23.2134 11.7615 23.3065 11.9001 23.37 12.0529C23.4336 12.2057 23.4663 12.3695 23.4663 12.5349C23.4663 12.7004 23.4336 12.8642 23.37 13.0169C23.3065 13.1697 23.2134 13.3084 23.096 13.425L12.8927 23.6336C12.6549 23.8683 12.3342 24 12 24C11.6658 24 11.3451 23.8683 11.1073 23.6336Z" fill="#DC241F"/>
</svg>
