<svg width="24" height="24" viewBox="0 0 24 24" fill="none" xmlns="http://www.w3.org/2000/svg">
<path opacity="0.4" d="M18.75 3H15C15.7956 3 16.5587 3.31607 17.1213 3.87868C17.6839 4.44129 18 5.20435 18 6H6C6 5.20435 6.31607 4.44129 6.87868 3.87868C7.44129 3.31607 8.20435 3 9 3H5.25C4.65326 3 4.08097 3.23705 3.65901 3.65901C3.23705 4.08097 3 4.65326 3 5.25L3 21.75C3 22.3467 3.23705 22.919 3.65901 23.341C4.08097 23.7629 4.65326 24 5.25 24H18.75C19.3467 24 19.919 23.7629 20.341 23.341C20.7629 22.919 21 22.3467 21 21.75V5.25C21 4.65326 20.7629 4.08097 20.341 3.65901C19.919 3.23705 19.3467 3 18.75 3ZM17.6813 12.7406L10.9781 19.3875C10.9256 19.4396 10.8632 19.4809 10.7947 19.5089C10.7261 19.5369 10.6527 19.551 10.5787 19.5506C10.5047 19.5502 10.4315 19.5351 10.3633 19.5063C10.2951 19.4775 10.2332 19.4356 10.1812 19.3828L6.30937 15.4781C6.25724 15.4256 6.216 15.3632 6.18801 15.2947C6.16002 15.2261 6.14584 15.1527 6.14627 15.0787C6.14671 15.0047 6.16175 14.9315 6.19055 14.8633C6.21934 14.795 6.26131 14.7332 6.31406 14.6813L7.64531 13.3594C7.69788 13.3072 7.76022 13.266 7.82876 13.238C7.8973 13.21 7.97069 13.1958 8.04472 13.1963C8.11876 13.1967 8.19198 13.2118 8.26018 13.2405C8.32839 13.2693 8.39024 13.3113 8.44219 13.3641L10.5984 15.5391L15.5672 10.6078C15.6198 10.5557 15.6821 10.5144 15.7506 10.4864C15.8192 10.4585 15.8926 10.4443 15.9666 10.4447C16.0406 10.4451 16.1138 10.4602 16.1821 10.489C16.2503 10.5178 16.3121 10.5598 16.3641 10.6125L17.6859 11.9438C17.7381 11.9963 17.7793 12.0587 17.8073 12.1272C17.8353 12.1957 17.8495 12.2691 17.849 12.3432C17.8486 12.4172 17.8336 12.4904 17.8048 12.5586C17.776 12.6268 17.734 12.6887 17.6813 12.7406Z" fill="#DC241F"/>
<path d="M16.3641 10.6125C16.3121 10.5598 16.2503 10.5178 16.1821 10.489C16.1138 10.4602 16.0406 10.4451 15.9666 10.4447C15.8926 10.4443 15.8192 10.4585 15.7506 10.4864C15.6821 10.5144 15.6198 10.5557 15.5672 10.6078L10.5984 15.5391L8.44219 13.3641C8.39024 13.3113 8.32839 13.2693 8.26018 13.2405C8.19198 13.2118 8.11876 13.1967 8.04472 13.1963C7.97069 13.1958 7.8973 13.21 7.82876 13.238C7.76022 13.266 7.69788 13.3072 7.64531 13.3594L6.31406 14.6812C6.26131 14.7332 6.21934 14.795 6.19055 14.8633C6.16175 14.9315 6.14671 15.0047 6.14627 15.0787C6.14584 15.1527 6.16002 15.2261 6.18801 15.2947C6.216 15.3632 6.25724 15.4256 6.30937 15.4781L10.1812 19.3828C10.2332 19.4356 10.2951 19.4775 10.3633 19.5063C10.4315 19.5351 10.5047 19.5502 10.5787 19.5506C10.6527 19.551 10.7261 19.5369 10.7947 19.5089C10.8632 19.4809 10.9256 19.4396 10.9781 19.3875L17.6813 12.7406C17.734 12.6887 17.776 12.6268 17.8048 12.5586C17.8336 12.4904 17.8486 12.4172 17.849 12.3432C17.8495 12.2691 17.8353 12.1957 17.8073 12.1272C17.7793 12.0587 17.7381 11.9963 17.6859 11.9437L16.3641 10.6125ZM15 3C15 2.20435 14.6839 1.44129 14.1213 0.87868C13.5587 0.316071 12.7956 0 12 0C11.2044 0 10.4413 0.316071 9.87868 0.87868C9.31607 1.44129 9 2.20435 9 3C8.20435 3 7.44129 3.31607 6.87868 3.87868C6.31607 4.44129 6 5.20435 6 6H18C18 5.20435 17.6839 4.44129 17.1213 3.87868C16.5587 3.31607 15.7956 3 15 3ZM12 4.125C11.7775 4.125 11.56 4.05902 11.375 3.9354C11.19 3.81179 11.0458 3.63609 10.9606 3.43052C10.8755 3.22495 10.8532 2.99875 10.8966 2.78052C10.94 2.56229 11.0472 2.36184 11.2045 2.2045C11.3618 2.04717 11.5623 1.94002 11.7805 1.89662C11.9988 1.85321 12.225 1.87549 12.4305 1.96064C12.6361 2.04578 12.8118 2.18998 12.9354 2.37498C13.059 2.55999 13.125 2.7775 13.125 3C13.1254 3.14784 13.0965 3.2943 13.0401 3.43096C12.9837 3.56762 12.9009 3.69178 12.7963 3.79632C12.6918 3.90086 12.5676 3.98371 12.431 4.04012C12.2943 4.09653 12.1478 4.12537 12 4.125Z" fill="#DC241F"/>
</svg>
