<svg width="24" height="24" viewBox="0 0 24 24" fill="none" xmlns="http://www.w3.org/2000/svg">
<path opacity="0.4" d="M15.8282 3.08323C15.8852 3.09961 15.9383 3.12708 15.9846 3.16406C16.0309 3.20103 16.0695 3.24679 16.0981 3.2987C16.1266 3.35062 16.1447 3.40766 16.1511 3.46656C16.1576 3.52546 16.1524 3.58506 16.1357 3.64193L11.0174 21.273C11.001 21.3299 10.9736 21.383 10.9366 21.4292C10.8996 21.4755 10.8539 21.514 10.8021 21.5426C10.7502 21.5712 10.6932 21.5892 10.6343 21.5957C10.5755 21.6022 10.5159 21.597 10.4591 21.5804L8.17175 20.9167C8.1148 20.9004 8.06166 20.8729 8.01536 20.8359C7.96906 20.7989 7.93051 20.7532 7.90195 20.7013C7.87338 20.6494 7.85534 20.5923 7.84888 20.5334C7.84241 20.4745 7.84765 20.4149 7.86427 20.358L12.9826 2.72701C12.999 2.6701 13.0264 2.61699 13.0634 2.57072C13.1004 2.52445 13.1461 2.48593 13.1979 2.45737C13.2498 2.4288 13.3068 2.41076 13.3657 2.40426C13.4245 2.39777 13.4841 2.40296 13.5409 2.41953L15.8282 3.08323Z" fill="#DC241F"/>
<path d="M23.8565 11.6738L18.4528 6.60422C18.3654 6.52295 18.2495 6.47935 18.1302 6.48286C18.0109 6.48637 17.8978 6.5367 17.8154 6.62297L16.1842 8.36432C16.1431 8.40825 16.1111 8.45999 16.0903 8.51649C16.0695 8.57298 16.0602 8.63308 16.0631 8.69322C16.0659 8.75336 16.0808 8.81232 16.1068 8.86661C16.1328 8.9209 16.1695 8.96941 16.2146 9.00927L19.6107 12.0015L16.2139 14.99C16.1684 15.0296 16.1314 15.0781 16.1051 15.1324C16.0788 15.1867 16.0638 15.2457 16.061 15.306C16.0582 15.3663 16.0675 15.4265 16.0886 15.483C16.1097 15.5396 16.1419 15.5912 16.1835 15.635L17.8146 17.3748C17.8549 17.4183 17.9034 17.4533 17.9573 17.478C18.0112 17.5027 18.0694 17.5164 18.1287 17.5185C18.1879 17.5206 18.247 17.511 18.3024 17.4902C18.3579 17.4694 18.4088 17.4378 18.4521 17.3973L23.8557 12.3315C23.9012 12.2896 23.9374 12.2388 23.9622 12.1822C23.9871 12.1257 23.9999 12.0646 24 12.0028C24.0001 11.941 23.9874 11.8799 23.9627 11.8233C23.938 11.7667 23.9018 11.7158 23.8565 11.6738ZM7.81532 8.36657L6.18421 6.62672C6.14365 6.58352 6.09496 6.54875 6.04093 6.52442C5.98691 6.50008 5.92861 6.48666 5.86938 6.48492C5.81015 6.48318 5.75116 6.49315 5.69579 6.51427C5.64043 6.53538 5.58978 6.56723 5.54676 6.60797L0.143084 11.67C0.0979497 11.712 0.0619469 11.7627 0.0373271 11.8192C0.0127072 11.8756 0 11.9366 0 11.9981C0 12.0597 0.0127072 12.1207 0.0373271 12.1771C0.0619469 12.2336 0.0979497 12.2843 0.143084 12.3262L5.54676 17.3921C5.58959 17.4332 5.64018 17.4653 5.69558 17.4867C5.75098 17.508 5.81007 17.5181 5.86941 17.5164C5.92876 17.5146 5.98716 17.5011 6.0412 17.4765C6.09525 17.452 6.14387 17.4169 6.18421 17.3733L7.81532 15.6335C7.85649 15.5895 7.88844 15.5378 7.90925 15.4813C7.93007 15.4248 7.93933 15.3647 7.9365 15.3046C7.93367 15.2444 7.9188 15.1855 7.89276 15.1312C7.86673 15.0769 7.83007 15.0284 7.78495 14.9885L4.38698 12.0015L7.7842 9.01302C7.82997 8.97343 7.86722 8.92496 7.8937 8.87055C7.92018 8.81613 7.93533 8.75691 7.93824 8.69646C7.94115 8.63602 7.93176 8.57561 7.91063 8.51891C7.8895 8.4622 7.85707 8.41037 7.81532 8.36657Z" fill="#DC241F"/>
</svg>
