<svg width="24" height="24" viewBox="0 0 24 24" fill="none" xmlns="http://www.w3.org/2000/svg">
<path opacity="0.4" d="M23.9427 16.9076C23.9246 16.7994 23.8686 16.7012 23.7848 16.6304C23.701 16.5597 23.5948 16.521 23.4851 16.5213H22.8663C22.7326 16.1449 22.5305 15.7965 22.27 15.4937L22.5772 14.9574C22.6316 14.8625 22.6509 14.7515 22.6317 14.6439C22.6125 14.5362 22.556 14.4388 22.4722 14.3686C22.1131 14.0699 21.706 13.834 21.2683 13.671C21.1652 13.6319 21.0516 13.6308 20.9478 13.6679C20.8441 13.7051 20.7569 13.7779 20.702 13.8735L20.3945 14.4098C20.0014 14.3386 19.5987 14.3386 19.2056 14.4098L18.8981 13.8735C18.8432 13.7779 18.756 13.7051 18.6522 13.6679C18.5484 13.6308 18.4348 13.6319 18.3318 13.671C17.8944 13.8349 17.4876 14.0706 17.1279 14.3686C17.0433 14.4382 16.9863 14.5358 16.967 14.6436C16.9478 14.7515 16.9676 14.8627 17.0229 14.9574L17.3304 15.4937C17.07 15.7965 16.8678 16.1449 16.7341 16.5213H16.1153C16.0053 16.5218 15.899 16.5613 15.8153 16.6327C15.7315 16.7041 15.6757 16.8028 15.6578 16.9113C15.5809 17.3719 15.5809 17.8421 15.6578 18.3027C15.6759 18.4109 15.7318 18.5091 15.8156 18.5798C15.8994 18.6506 16.0056 18.6892 16.1153 18.689H16.7341C16.8678 19.0654 17.07 19.4138 17.3304 19.7166L17.0229 20.2529C16.9685 20.3477 16.9492 20.4587 16.9684 20.5664C16.9876 20.674 17.0441 20.7715 17.1279 20.8417C17.487 21.1404 17.894 21.3762 18.3318 21.5393C18.4348 21.5783 18.5484 21.5794 18.6522 21.5423C18.756 21.5052 18.8432 21.4323 18.8981 21.3367L19.2056 20.8004C19.5987 20.8717 20.0014 20.8717 20.3945 20.8004L20.702 21.3367C20.7569 21.4323 20.8441 21.5052 20.9478 21.5423C21.0516 21.5794 21.1652 21.5783 21.2683 21.5393C21.7056 21.3754 22.1125 21.1396 22.4722 20.8417C22.5568 20.772 22.6138 20.6745 22.633 20.5666C22.6523 20.4587 22.6325 20.3475 22.5772 20.2529L22.2696 19.7166C22.5301 19.4138 22.7323 19.0654 22.866 18.689H23.4848C23.5948 18.6884 23.7011 18.649 23.7848 18.5776C23.8686 18.5062 23.9243 18.4075 23.9423 18.2989C24.0193 17.8384 24.0194 17.3682 23.9427 16.9076ZM18.8122 18.5915C17.7021 17.1476 19.3485 15.5012 20.7924 16.6113C21.9021 18.0548 20.2561 19.7012 18.8122 18.5911V18.5915ZM23.9427 5.69772C23.9246 5.58956 23.8686 5.49135 23.7848 5.42061C23.701 5.34986 23.5948 5.31117 23.4851 5.31143H22.8663C22.7326 4.93505 22.5305 4.58665 22.27 4.28383L22.5776 3.74753C22.6319 3.65267 22.6512 3.5417 22.632 3.43405C22.6128 3.3264 22.5564 3.22893 22.4725 3.15873C22.1134 2.86002 21.7064 2.62417 21.2687 2.46116C21.1656 2.42194 21.0519 2.42075 20.9481 2.4578C20.8442 2.49485 20.757 2.56771 20.702 2.6633L20.3945 3.1996C20.0014 3.12835 19.5987 3.12835 19.2056 3.1996L18.8981 2.6633C18.8432 2.56773 18.756 2.49485 18.6522 2.45773C18.5484 2.42062 18.4348 2.4217 18.3318 2.46078C17.8944 2.62466 17.4876 2.86042 17.1279 3.15835C17.0433 3.22802 16.9863 3.32554 16.967 3.43343C16.9478 3.54132 16.9676 3.65254 17.0229 3.74716L17.3304 4.28346C17.07 4.58628 16.8678 4.93468 16.7341 5.31106H16.1153C16.0053 5.31162 15.899 5.35108 15.8153 5.42246C15.7315 5.49384 15.6757 5.59254 15.6578 5.7011C15.5809 6.16171 15.5809 6.63187 15.6578 7.09248C15.6759 7.20064 15.7318 7.29885 15.8156 7.3696C15.8994 7.44034 16.0056 7.47903 16.1153 7.47877H16.7341C16.8678 7.85515 17.07 8.20355 17.3304 8.50637L17.0229 9.04267C16.9685 9.13753 16.9492 9.2485 16.9684 9.35615C16.9876 9.46381 17.0441 9.56127 17.1279 9.63148C17.487 9.93019 17.894 10.166 18.3318 10.329C18.4348 10.3681 18.5484 10.3692 18.6522 10.3321C18.756 10.295 18.8432 10.2221 18.8981 10.1265L19.2056 9.59022C19.5987 9.66148 20.0014 9.66148 20.3945 9.59022L20.702 10.1265C20.7569 10.2221 20.8441 10.295 20.9478 10.3321C21.0516 10.3692 21.1652 10.3681 21.2683 10.329C21.7056 10.1652 22.1125 9.92941 22.4722 9.63148C22.5568 9.5618 22.6138 9.46429 22.633 9.3564C22.6523 9.24851 22.6325 9.13729 22.5772 9.04267L22.2696 8.50637C22.5301 8.20355 22.7323 7.85515 22.866 7.47877H23.4848C23.5948 7.47821 23.7011 7.43875 23.7848 7.36737C23.8686 7.29599 23.9243 7.19729 23.9423 7.08873C24.0193 6.62814 24.0194 6.15798 23.9427 5.69735V5.69772ZM18.8122 7.38539C17.7021 5.9415 19.3485 4.29134 20.7924 5.40519C21.9021 6.84871 20.2561 8.49512 18.8122 7.38501V7.38539Z" fill="#DC241F"/>
<path d="M15.7514 13.7864L14.4879 13.1567C14.6341 12.3696 14.6341 11.5623 14.4879 10.7752L15.7517 10.1451C16.1305 9.92385 16.2768 9.46256 16.1268 9.05377C15.793 8.14618 15.1554 7.3136 14.5479 6.58603C14.412 6.42462 14.2237 6.31623 14.0159 6.27988C13.808 6.24353 13.5941 6.28155 13.4115 6.38726L12.3201 7.01732C11.7126 6.49806 11.0146 6.09506 10.2612 5.82846V4.56834C10.2606 4.35604 10.185 4.15078 10.0478 3.98882C9.91053 3.82686 9.72045 3.71863 9.51113 3.68325C8.56751 3.52507 7.60404 3.52634 6.66085 3.687C6.45426 3.7241 6.26732 3.83276 6.13284 3.99391C5.99836 4.15507 5.92492 4.35844 5.9254 4.56834V5.83221C5.17127 6.09733 4.47307 6.50048 3.86645 7.02107L2.7751 6.39064C2.59257 6.28478 2.37856 6.24667 2.17071 6.28303C1.96286 6.31939 1.77449 6.42787 1.63874 6.58941C1.03118 7.31698 0.389866 8.14956 0.0560841 9.05715C-0.0177631 9.2557 -0.0187116 9.47402 0.0534075 9.67321C0.125527 9.87239 0.266028 10.0395 0.449872 10.1448L1.69874 10.7786C1.55248 11.5644 1.55248 12.3705 1.69874 13.1563L0.449872 13.7864C0.266772 13.8933 0.127044 14.0612 0.0550733 14.2606C-0.0168973 14.4601 -0.0165395 14.6785 0.0560841 14.8777C0.389866 15.7815 1.03118 16.6141 1.63874 17.3417C1.77458 17.5031 1.96294 17.6115 2.17075 17.6479C2.37856 17.6842 2.59253 17.6462 2.7751 17.5405L3.86645 16.9142C4.47401 17.4334 5.17196 17.8364 5.9254 18.103V19.3631C5.92597 19.5754 6.00156 19.7807 6.13881 19.9427C6.27607 20.1046 6.46615 20.2128 6.67548 20.2482C7.61747 20.4095 8.58001 20.4095 9.522 20.2482C9.72949 20.211 9.91724 20.1019 10.0523 19.94C10.1874 19.7782 10.2612 19.574 10.2608 19.3631V18.103C11.015 17.8379 11.7132 17.4348 12.3198 16.9142L13.4111 17.5442C13.5937 17.6501 13.8077 17.6882 14.0155 17.6518C14.2234 17.6155 14.4117 17.507 14.5475 17.3454C15.155 16.6179 15.8114 15.7853 16.1451 14.8777C16.2188 14.6786 16.2196 14.4598 16.1476 14.2601C16.0755 14.0604 15.9352 13.8926 15.7514 13.7864ZM10.0771 13.9476C7.18928 16.1678 3.89271 12.8713 6.11292 9.98349C9.0007 7.76327 12.2976 11.0598 10.0774 13.9476H10.0771Z" fill="#DC241F"/>
</svg>
