<svg width="24" height="24" viewBox="0 0 24 24" fill="none" xmlns="http://www.w3.org/2000/svg">
<g clip-path="url(#clip0)">
<path opacity="0.4" d="M17.3333 9.33333V2.66667C17.3333 1.95942 17.0524 1.28115 16.5523 0.781049C16.0522 0.280952 15.3739 0 14.6667 0L2.66667 0C1.95942 0 1.28115 0.280952 0.781049 0.781049C0.280952 1.28115 0 1.95942 0 2.66667L0 9.33333C0 10.0406 0.280952 10.7189 0.781049 11.219C1.28115 11.719 1.95942 12 2.66667 12V14.2596C2.6667 14.3347 2.68759 14.4084 2.72701 14.4724C2.76642 14.5364 2.82282 14.5882 2.88993 14.6221C2.95704 14.656 3.03222 14.6705 3.10712 14.6642C3.18202 14.6579 3.25369 14.6309 3.31417 14.5863L6.76375 12H14.6667C15.3739 12 16.0522 11.719 16.5523 11.219C17.0524 10.7189 17.3333 10.0406 17.3333 9.33333ZM9.33333 9.32833V10C9.33333 10.0884 9.29821 10.1732 9.2357 10.2357C9.17319 10.2982 9.0884 10.3333 9 10.3333H8.33333C8.24493 10.3333 8.16014 10.2982 8.09763 10.2357C8.03512 10.1732 8 10.0884 8 10V9.32125C7.52702 9.29684 7.07201 9.13221 6.69292 8.84833C6.65494 8.81879 6.62382 8.78137 6.60167 8.73866C6.57953 8.69594 6.5669 8.64894 6.56464 8.60088C6.56238 8.55282 6.57056 8.50484 6.5886 8.46024C6.60664 8.41564 6.63413 8.37547 6.66917 8.3425L7.15875 7.875C7.21549 7.82331 7.28797 7.79221 7.36452 7.78669C7.44108 7.78118 7.51727 7.80157 7.58083 7.84458C7.74068 7.9457 7.92585 7.99958 8.115 8H9.28625C9.55708 8 9.77792 7.75333 9.77792 7.45042C9.77792 7.2025 9.6275 6.98417 9.4125 6.92L7.5375 6.3575C6.76292 6.125 6.22167 5.38167 6.22167 4.54958C6.22167 3.52792 7.01542 2.69792 7.99958 2.67167V2C7.99958 1.91159 8.0347 1.82681 8.09721 1.7643C8.15973 1.70179 8.24451 1.66667 8.33292 1.66667H8.99958C9.08799 1.66667 9.17277 1.70179 9.23528 1.7643C9.2978 1.82681 9.33292 1.91159 9.33292 2V2.67875C9.80593 2.70296 10.261 2.86761 10.64 3.15167C10.678 3.18121 10.7091 3.21863 10.7312 3.26134C10.7534 3.30406 10.766 3.35106 10.7683 3.39912C10.7705 3.44718 10.7624 3.49516 10.7443 3.53976C10.7263 3.58436 10.6988 3.62453 10.6637 3.6575L10.1742 4.125C10.1174 4.17669 10.0449 4.20779 9.96839 4.21331C9.89184 4.21882 9.81565 4.19843 9.75208 4.15542C9.59231 4.05413 9.40709 4.00024 9.21792 4H8.04667C7.77583 4 7.555 4.24667 7.555 4.54958C7.555 4.79958 7.70542 5.01583 7.92042 5.08L9.79542 5.6425C10.57 5.875 11.1112 6.61833 11.1112 7.45042C11.1112 8.4725 10.3175 9.30208 9.33333 9.32833Z" fill="#DC241F"/>
<path d="M21.3334 6.66663H18.6668V9.33329C18.6655 10.3938 18.2437 11.4105 17.4938 12.1604C16.744 12.9103 15.7272 13.3321 14.6668 13.3333H8.00008V16C8.00008 16.7072 8.28104 17.3855 8.78113 17.8856C9.28123 18.3857 9.95951 18.6666 10.6668 18.6666H15.903L19.3526 21.2529C19.4131 21.2975 19.4847 21.3245 19.5596 21.3308C19.6345 21.3372 19.7097 21.3226 19.7768 21.2887C19.8439 21.2549 19.9003 21.2031 19.9397 21.1391C19.9792 21.0751 20 21.0014 20.0001 20.9262V18.6666H21.3334C22.0407 18.6666 22.7189 18.3857 23.219 17.8856C23.7191 17.3855 24.0001 16.7072 24.0001 16V9.33329C24.0001 8.62605 23.7191 7.94777 23.219 7.44767C22.7189 6.94758 22.0407 6.66663 21.3334 6.66663ZM8.00008 9.99996C8.00008 10.0884 8.0352 10.1732 8.09772 10.2357C8.16023 10.2982 8.24501 10.3333 8.33342 10.3333H9.00008C9.08849 10.3333 9.17327 10.2982 9.23579 10.2357C9.2983 10.1732 9.33342 10.0884 9.33342 9.99996V9.32829C10.3176 9.30204 11.1113 8.47246 11.1113 7.45038C11.1113 6.61704 10.5697 5.87496 9.7955 5.64246L7.9205 5.07996C7.7055 5.01579 7.55508 4.79746 7.55508 4.54954C7.55508 4.24663 7.77592 3.99996 8.04675 3.99996H9.218C9.40713 4.00007 9.59235 4.05382 9.75217 4.15496C9.81569 4.19803 9.89185 4.21849 9.9684 4.21305C10.045 4.20761 10.1175 4.17658 10.1743 4.12496L10.6638 3.65788C10.6989 3.6249 10.7264 3.58474 10.7444 3.54013C10.7624 3.49553 10.7706 3.44755 10.7684 3.39949C10.7661 3.35143 10.7535 3.30443 10.7313 3.26172C10.7092 3.219 10.6781 3.18159 10.6401 3.15204C10.2612 2.86791 9.80633 2.70312 9.33342 2.67871V1.99996C9.33342 1.91155 9.2983 1.82677 9.23579 1.76426C9.17327 1.70174 9.08849 1.66663 9.00008 1.66663H8.33342C8.24501 1.66663 8.16023 1.70174 8.09772 1.76426C8.0352 1.82677 8.00008 1.91155 8.00008 1.99996V2.67163C7.01592 2.69788 6.22217 3.52788 6.22217 4.54954C6.22217 5.38288 6.76383 6.12496 7.538 6.35746L9.413 6.91996C9.628 6.98413 9.77842 7.20246 9.77842 7.45038C9.77842 7.75329 9.55758 7.99996 9.28675 7.99996H8.11508C7.92598 7.99966 7.74081 7.94593 7.58092 7.84496C7.51735 7.80194 7.44116 7.78155 7.36461 7.78707C7.28805 7.79259 7.21558 7.82369 7.15883 7.87538L6.66925 8.34246C6.63421 8.37543 6.60673 8.4156 6.58868 8.4602C6.57064 8.5048 6.56247 8.55278 6.56472 8.60084C6.56698 8.6489 6.57961 8.6959 6.60176 8.73862C6.6239 8.78133 6.65503 8.81875 6.693 8.84829C7.0721 9.13217 7.52711 9.2968 8.00008 9.32121V9.99996Z" fill="#DC241F"/>
</g>
<defs>
<clipPath id="clip0">
<rect width="24" height="24" fill="white"/>
</clipPath>
</defs>
</svg>
