<svg width="24" height="24" viewBox="0 0 24 24" fill="none" xmlns="http://www.w3.org/2000/svg">
<path opacity="0.4" d="M0 19.3334C0 19.8638 0.210714 20.3725 0.585786 20.7476C0.960859 21.1226 1.46957 21.3334 2 21.3334H22C22.5304 21.3334 23.0391 21.1226 23.4142 20.7476C23.7893 20.3725 24 19.8638 24 19.3334V12H0V19.3334ZM8 16.5C8 16.3674 8.05268 16.2402 8.14645 16.1465C8.24022 16.0527 8.36739 16 8.5 16H14.1667C14.2993 16 14.4265 16.0527 14.5202 16.1465C14.614 16.2402 14.6667 16.3674 14.6667 16.5V18.1667C14.6667 18.2993 14.614 18.4265 14.5202 18.5202C14.4265 18.614 14.2993 18.6667 14.1667 18.6667H8.5C8.36739 18.6667 8.24022 18.614 8.14645 18.5202C8.05268 18.4265 8 18.2993 8 18.1667V16.5ZM2.66667 16.5C2.66667 16.3674 2.71935 16.2402 2.81311 16.1465C2.90688 16.0527 3.03406 16 3.16667 16H6.16667C6.29927 16 6.42645 16.0527 6.52022 16.1465C6.61399 16.2402 6.66667 16.3674 6.66667 16.5V18.1667C6.66667 18.2993 6.61399 18.4265 6.52022 18.5202C6.42645 18.614 6.29927 18.6667 6.16667 18.6667H3.16667C3.03406 18.6667 2.90688 18.614 2.81311 18.5202C2.71935 18.4265 2.66667 18.2993 2.66667 18.1667V16.5ZM22 2.66669H2C1.46957 2.66669 0.960859 2.8774 0.585786 3.25247C0.210714 3.62755 0 4.13625 0 4.66669L0 6.66669H24V4.66669C24 4.13625 23.7893 3.62755 23.4142 3.25247C23.0391 2.8774 22.5304 2.66669 22 2.66669Z" fill="#DC241F"/>
<path d="M24 12H0V6.66669H24V12Z" fill="#DC241F"/>
</svg>
