<svg width="24" height="24" viewBox="0 0 24 24" fill="none" xmlns="http://www.w3.org/2000/svg">
<path opacity="0.4" d="M11.1665 12H8.49984C8.36723 12 8.24005 12.0527 8.14628 12.1464C8.05252 12.2402 7.99984 12.3674 7.99984 12.5V14.1667C7.99984 14.2993 8.05252 14.4265 8.14628 14.5202C8.24005 14.614 8.36723 14.6667 8.49984 14.6667H11.1665C11.2991 14.6667 11.4263 14.614 11.5201 14.5202C11.6138 14.4265 11.6665 14.2993 11.6665 14.1667V12.5C11.6665 12.3674 11.6138 12.2402 11.5201 12.1464C11.4263 12.0527 11.2991 12 11.1665 12ZM6.83317 12H3.1665C3.0339 12 2.90672 12.0527 2.81295 12.1464C2.71918 12.2402 2.6665 12.3674 2.6665 12.5V14.1667C2.6665 14.2993 2.71918 14.4265 2.81295 14.5202C2.90672 14.614 3.0339 14.6667 3.1665 14.6667H6.83317C6.96578 14.6667 7.09296 14.614 7.18672 14.5202C7.28049 14.4265 7.33317 14.2993 7.33317 14.1667V12.5C7.33317 12.3674 7.28049 12.2402 7.18672 12.1464C7.09296 12.0527 6.96578 12 6.83317 12ZM15.4998 12H12.8332C12.7006 12 12.5734 12.0527 12.4796 12.1464C12.3858 12.2402 12.3332 12.3674 12.3332 12.5V14.1667C12.3332 14.2993 12.3858 14.4265 12.4796 14.5202C12.5734 14.614 12.7006 14.6667 12.8332 14.6667H15.4998C15.6324 14.6667 15.7596 14.614 15.8534 14.5202C15.9472 14.4265 15.9998 14.2993 15.9998 14.1667V12.5C15.9998 12.3674 15.9472 12.2402 15.8534 12.1464C15.7596 12.0527 15.6324 12 15.4998 12ZM20.8332 12H17.1665C17.0339 12 16.9067 12.0527 16.8129 12.1464C16.7192 12.2402 16.6665 12.3674 16.6665 12.5V14.1667C16.6665 14.2993 16.7192 14.4265 16.8129 14.5202C16.9067 14.614 17.0339 14.6667 17.1665 14.6667H20.8332C20.9658 14.6667 21.093 14.614 21.1867 14.5202C21.2805 14.4265 21.3332 14.2993 21.3332 14.1667V12.5C21.3332 12.3674 21.2805 12.2402 21.1867 12.1464C21.093 12.0527 20.9658 12 20.8332 12Z" fill="#DC241F"/>
<path d="M22 2.66669H2C1.46957 2.66669 0.960859 2.8774 0.585786 3.25247C0.210714 3.62755 0 4.13625 0 4.66669L0 19.3334C0 19.8638 0.210714 20.3725 0.585786 20.7476C0.960859 21.1226 1.46957 21.3334 2 21.3334H22C22.5304 21.3334 23.0391 21.1226 23.4142 20.7476C23.7893 20.3725 24 19.8638 24 19.3334V4.66669C24 4.13625 23.7893 3.62755 23.4142 3.25247C23.0391 2.8774 22.5304 2.66669 22 2.66669ZM8 12.5C8 12.3674 8.05268 12.2402 8.14645 12.1465C8.24022 12.0527 8.36739 12 8.5 12H11.1667C11.2993 12 11.4265 12.0527 11.5202 12.1465C11.614 12.2402 11.6667 12.3674 11.6667 12.5V14.1667C11.6667 14.2993 11.614 14.4265 11.5202 14.5202C11.4265 14.614 11.2993 14.6667 11.1667 14.6667H8.5C8.36739 14.6667 8.24022 14.614 8.14645 14.5202C8.05268 14.4265 8 14.2993 8 14.1667V12.5ZM6.66667 18.1667C6.66667 18.2993 6.61399 18.4265 6.52022 18.5202C6.42645 18.614 6.29927 18.6667 6.16667 18.6667H3.16667C3.03406 18.6667 2.90688 18.614 2.81311 18.5202C2.71935 18.4265 2.66667 18.2993 2.66667 18.1667V17.8334C2.66667 17.7007 2.71935 17.5736 2.81311 17.4798C2.90688 17.386 3.03406 17.3334 3.16667 17.3334H6.16667C6.29927 17.3334 6.42645 17.386 6.52022 17.4798C6.61399 17.5736 6.66667 17.7007 6.66667 17.8334V18.1667ZM7.33333 14.1667C7.33333 14.2993 7.28065 14.4265 7.18689 14.5202C7.09312 14.614 6.96594 14.6667 6.83333 14.6667H3.16667C3.03406 14.6667 2.90688 14.614 2.81311 14.5202C2.71935 14.4265 2.66667 14.2993 2.66667 14.1667V12.5C2.66667 12.3674 2.71935 12.2402 2.81311 12.1465C2.90688 12.0527 3.03406 12 3.16667 12H6.83333C6.96594 12 7.09312 12.0527 7.18689 12.1465C7.28065 12.2402 7.33333 12.3674 7.33333 12.5V14.1667ZM14.6667 18.1667C14.6667 18.2993 14.614 18.4265 14.5202 18.5202C14.4265 18.614 14.2993 18.6667 14.1667 18.6667H8.5C8.36739 18.6667 8.24022 18.614 8.14645 18.5202C8.05268 18.4265 8 18.2993 8 18.1667V17.8334C8 17.7007 8.05268 17.5736 8.14645 17.4798C8.24022 17.386 8.36739 17.3334 8.5 17.3334H14.1667C14.2993 17.3334 14.4265 17.386 14.5202 17.4798C14.614 17.5736 14.6667 17.7007 14.6667 17.8334V18.1667ZM16 14.1667C16 14.2993 15.9473 14.4265 15.8536 14.5202C15.7598 14.614 15.6326 14.6667 15.5 14.6667H12.8333C12.7007 14.6667 12.5735 14.614 12.4798 14.5202C12.386 14.4265 12.3333 14.2993 12.3333 14.1667V12.5C12.3333 12.3674 12.386 12.2402 12.4798 12.1465C12.5735 12.0527 12.7007 12 12.8333 12H15.5C15.6326 12 15.7598 12.0527 15.8536 12.1465C15.9473 12.2402 16 12.3674 16 12.5V14.1667ZM21.3333 14.1667C21.3333 14.2993 21.2807 14.4265 21.1869 14.5202C21.0931 14.614 20.9659 14.6667 20.8333 14.6667H17.1667C17.0341 14.6667 16.9069 14.614 16.8131 14.5202C16.7193 14.4265 16.6667 14.2993 16.6667 14.1667V12.5C16.6667 12.3674 16.7193 12.2402 16.8131 12.1465C16.9069 12.0527 17.0341 12 17.1667 12H20.8333C20.9659 12 21.0931 12.0527 21.1869 12.1465C21.2807 12.2402 21.3333 12.3674 21.3333 12.5V14.1667ZM21.3333 8.33335C21.3337 8.46477 21.308 8.59495 21.2579 8.71643C21.2077 8.8379 21.1341 8.94827 21.0412 9.0412C20.9483 9.13412 20.8379 9.20777 20.7164 9.2579C20.5949 9.30804 20.4647 9.33368 20.3333 9.33335H17C16.8686 9.33368 16.7384 9.30804 16.6169 9.2579C16.4955 9.20777 16.3851 9.13412 16.2922 9.0412C16.1992 8.94827 16.1256 8.8379 16.0754 8.71643C16.0253 8.59495 15.9997 8.46477 16 8.33335V6.33335C15.9997 6.20194 16.0253 6.07175 16.0754 5.95028C16.1256 5.82881 16.1992 5.71844 16.2922 5.62551C16.3851 5.53259 16.4955 5.45894 16.6169 5.4088C16.7384 5.35866 16.8686 5.33302 17 5.33335H20.3333C20.4647 5.33302 20.5949 5.35866 20.7164 5.4088C20.8379 5.45894 20.9483 5.53259 21.0412 5.62551C21.1341 5.71844 21.2077 5.82881 21.2579 5.95028C21.308 6.07175 21.3337 6.20194 21.3333 6.33335V8.33335Z" fill="#DC241F"/>
</svg>
