<svg width="24" height="24" viewBox="0 0 24 24" fill="none" xmlns="http://www.w3.org/2000/svg">
<path opacity="0.4" d="M22.8002 10.1375C22.1447 9.53732 21.289 9.20306 20.4002 9.2V4.4H3.6002V9.2C2.71144 9.20313 1.85575 9.53738 1.2002 10.1375V3.85963C1.2002 2.83438 2.00757 2 3.0002 2H21.0002C21.9928 2 22.8002 2.83438 22.8002 3.85963V10.1375Z" fill="#DC241F"/>
<path d="M21.6 16.4H19.2C18.5635 16.4 17.953 16.6529 17.5029 17.103C17.0529 17.5531 16.8 18.1635 16.8 18.8V20.0001C16.8 20.3183 16.9264 20.6235 17.1515 20.8486C17.3765 21.0736 17.6817 21.2001 18 21.2001H22.8C23.1183 21.2001 23.4235 21.0736 23.6485 20.8486C23.8736 20.6235 24 20.3183 24 20.0001V18.8C24 18.1635 23.7471 17.5531 23.2971 17.103C22.847 16.6529 22.2365 16.4 21.6 16.4ZM20.4 15.2C20.8747 15.2 21.3387 15.0593 21.7334 14.7956C22.128 14.5318 22.4357 14.157 22.6173 13.7185C22.799 13.2799 22.8465 12.7974 22.7539 12.3318C22.6613 11.8663 22.4327 11.4386 22.0971 11.103C21.7614 10.7673 21.3338 10.5387 20.8682 10.4461C20.4027 10.3535 19.9201 10.4011 19.4816 10.5827C19.043 10.7644 18.6682 11.072 18.4045 11.4667C18.1408 11.8613 18 12.3254 18 12.8C18 13.4366 18.2529 14.047 18.7029 14.4971C19.153 14.9472 19.7635 15.2 20.4 15.2ZM13.2 16.4H10.8C10.1635 16.4 9.55303 16.6529 9.10294 17.103C8.65286 17.5531 8.4 18.1635 8.4 18.8V20.0001C8.4 20.3183 8.52643 20.6235 8.75147 20.8486C8.97652 21.0736 9.28174 21.2001 9.6 21.2001H14.4C14.7183 21.2001 15.0235 21.0736 15.2485 20.8486C15.4736 20.6235 15.6 20.3183 15.6 20.0001V18.8C15.6 18.1635 15.3471 17.5531 14.8971 17.103C14.447 16.6529 13.8365 16.4 13.2 16.4ZM4.8 16.4H2.4C1.76348 16.4 1.15303 16.6529 0.702944 17.103C0.252856 17.5531 0 18.1635 0 18.8L0 20.0001C0 20.3183 0.126428 20.6235 0.351472 20.8486C0.576516 21.0736 0.88174 21.2001 1.2 21.2001H6C6.31826 21.2001 6.62348 21.0736 6.84853 20.8486C7.07357 20.6235 7.2 20.3183 7.2 20.0001V18.8C7.2 18.1635 6.94714 17.5531 6.49706 17.103C6.04697 16.6529 5.43652 16.4 4.8 16.4ZM12 15.2C12.4747 15.2 12.9387 15.0593 13.3334 14.7956C13.728 14.5318 14.0357 14.157 14.2173 13.7185C14.399 13.2799 14.4465 12.7974 14.3539 12.3318C14.2613 11.8663 14.0327 11.4386 13.6971 11.103C13.3614 10.7673 12.9338 10.5387 12.4682 10.4461C12.0027 10.3535 11.5201 10.4011 11.0816 10.5827C10.643 10.7644 10.2682 11.072 10.0045 11.4667C9.74076 11.8613 9.6 12.3254 9.6 12.8C9.6 13.4366 9.85286 14.047 10.3029 14.4971C10.753 14.9472 11.3635 15.2 12 15.2ZM3.6 15.2C4.07468 15.2 4.53869 15.0593 4.93337 14.7956C5.32805 14.5318 5.63566 14.157 5.81731 13.7185C5.99896 13.2799 6.04649 12.7974 5.95389 12.3318C5.86128 11.8663 5.6327 11.4386 5.29706 11.103C4.96141 10.7673 4.53377 10.5387 4.06822 10.4461C3.60266 10.3535 3.1201 10.4011 2.68156 10.5827C2.24302 10.7644 1.86819 11.072 1.60447 11.4667C1.34076 11.8613 1.2 12.3254 1.2 12.8C1.2 13.4366 1.45286 14.047 1.90294 14.4971C2.35303 14.9472 2.96348 15.2 3.6 15.2Z" fill="#DC241F"/>
</svg>
