<svg width="24" height="24" viewBox="0 0 24 24" fill="none" xmlns="http://www.w3.org/2000/svg">
<g clip-path="url(#clip0)">
<path opacity="0.4" d="M12 19.5C17.3859 19.5 21.75 15.1359 21.75 9.75C21.75 4.36406 17.3859 0 12 0C6.61406 0 2.25 4.36406 2.25 9.75C2.25 15.1359 6.61406 19.5 12 19.5ZM10.9594 4.56563V3.77812C10.9591 3.67587 10.9791 3.57458 11.0181 3.48006C11.0571 3.38554 11.1144 3.29966 11.1867 3.22736C11.259 3.15505 11.3449 3.09774 11.4394 3.05873C11.5339 3.01971 11.6352 2.99975 11.7375 3H12.2578C12.3601 2.99975 12.4614 3.01971 12.5559 3.05873C12.6504 3.09774 12.7363 3.15505 12.8086 3.22736C12.8809 3.29966 12.9382 3.38554 12.9772 3.48006C13.0162 3.57458 13.0362 3.67587 13.0359 3.77812V4.575C13.7643 4.61147 14.4656 4.86264 15.0516 5.29688C15.1134 5.34198 15.1646 5.40005 15.2017 5.46702C15.2387 5.53399 15.2607 5.60824 15.266 5.68458C15.2714 5.76092 15.26 5.83751 15.2327 5.909C15.2053 5.98048 15.1627 6.04514 15.1078 6.09844L14.3438 6.825C14.1656 6.99844 13.8984 7.00313 13.6875 6.87188C13.438 6.71398 13.1484 6.631 12.8531 6.63281H11.0297C10.6078 6.63281 10.2656 7.01719 10.2656 7.49063C10.2656 7.875 10.5 8.21719 10.8328 8.31562L13.7531 9.19219C14.9578 9.55313 15.8016 10.7109 15.8016 12.0094C15.8016 13.6031 14.5641 14.8922 13.0312 14.9344V15.7219C13.0315 15.8241 13.0115 15.9254 12.9725 16.0199C12.9335 16.1145 12.8762 16.2003 12.8039 16.2726C12.7316 16.3449 12.6457 16.4023 12.5512 16.4413C12.4567 16.4803 12.3554 16.5002 12.2531 16.5H11.7328C11.6306 16.5002 11.5293 16.4803 11.4347 16.4413C11.3402 16.4023 11.2543 16.3449 11.182 16.2726C11.1097 16.2003 11.0524 16.1145 11.0134 16.0199C10.9744 15.9254 10.9544 15.8241 10.9547 15.7219V14.925C10.2263 14.8885 9.52499 14.6374 8.93906 14.2031C8.87724 14.158 8.82601 14.0999 8.78897 14.033C8.75193 13.966 8.72996 13.8918 8.7246 13.8154C8.71924 13.7391 8.73063 13.6625 8.75796 13.591C8.78528 13.5195 8.82789 13.4549 8.88281 13.4016L9.64688 12.675C9.825 12.5016 10.0922 12.4969 10.3031 12.6281C10.5526 12.786 10.8422 12.869 11.1375 12.8672H12.9609C13.3828 12.8672 13.725 12.4828 13.725 12.0094C13.725 11.625 13.4906 11.2828 13.1578 11.1844L10.2375 10.3078C9.03281 9.94687 8.18906 8.78906 8.18906 7.49063C8.19375 5.89688 9.42656 4.60781 10.9594 4.56563Z" fill="#DC241F"/>
<path d="M10.2375 10.3078L13.1578 11.1844C13.4906 11.2828 13.725 11.625 13.725 12.0094C13.725 12.4828 13.3828 12.8672 12.9609 12.8672H11.1375C10.8422 12.869 10.5526 12.786 10.3031 12.6281C10.0922 12.4969 9.825 12.5016 9.64688 12.675L8.88281 13.4016C8.8279 13.4549 8.78528 13.5195 8.75796 13.591C8.73063 13.6625 8.71924 13.7391 8.7246 13.8154C8.72996 13.8918 8.75193 13.966 8.78897 14.033C8.82601 14.1 8.87724 14.158 8.93906 14.2031C9.52499 14.6374 10.2263 14.8885 10.9547 14.925V15.7219C10.9544 15.8241 10.9744 15.9254 11.0134 16.0199C11.0524 16.1145 11.1097 16.2003 11.182 16.2726C11.2543 16.345 11.3402 16.4023 11.4347 16.4413C11.5293 16.4803 11.6306 16.5003 11.7328 16.5H12.2531C12.3554 16.5003 12.4567 16.4803 12.5512 16.4413C12.6457 16.4023 12.7316 16.345 12.8039 16.2726C12.8762 16.2003 12.9335 16.1145 12.9725 16.0199C13.0115 15.9254 13.0315 15.8241 13.0312 15.7219V14.9344C14.5641 14.8922 15.8016 13.6031 15.8016 12.0094C15.8016 10.7109 14.9578 9.55313 13.7531 9.19219L10.8328 8.31563C10.5 8.21719 10.2656 7.875 10.2656 7.49063C10.2656 7.01719 10.6078 6.63281 11.0297 6.63281H12.8531C13.1484 6.63101 13.438 6.71398 13.6875 6.87188C13.8984 7.00313 14.1656 6.99844 14.3438 6.825L15.1078 6.09844C15.1627 6.04514 15.2053 5.98049 15.2327 5.909C15.26 5.83752 15.2714 5.76093 15.266 5.68458C15.2607 5.60824 15.2387 5.53399 15.2017 5.46702C15.1646 5.40005 15.1134 5.34199 15.0516 5.29688C14.4656 4.86264 13.7643 4.61147 13.0359 4.575V3.77813C13.0362 3.67587 13.0162 3.57458 12.9772 3.48006C12.9382 3.38554 12.8809 3.29966 12.8086 3.22736C12.7363 3.15505 12.6504 3.09775 12.5559 3.05873C12.4614 3.01971 12.3601 2.99975 12.2578 3H11.7375C11.6352 2.99975 11.5339 3.01971 11.4394 3.05873C11.3449 3.09775 11.259 3.15505 11.1867 3.22736C11.1144 3.29966 11.0571 3.38554 11.0181 3.48006C10.9791 3.57458 10.9591 3.67587 10.9594 3.77813V4.56563C9.42656 4.60782 8.19375 5.89688 8.18906 7.49063C8.18906 8.78907 9.03281 9.94688 10.2375 10.3078ZM22.5 16.5H20.9766C20.0499 17.7205 18.886 18.741 17.5547 19.5H20.5453C20.7937 19.5 20.9953 19.6688 20.9953 19.875V20.625C20.9953 20.8313 20.7937 21 20.5453 21H3.45C3.20156 21 3 20.8313 3 20.625V19.875C3 19.6688 3.20156 19.5 3.45 19.5H6.44062C5.11025 18.7398 3.94651 17.7195 3.01875 16.5H1.5C1.10218 16.5 0.720644 16.658 0.43934 16.9393C0.158035 17.2206 0 17.6022 0 18L0 22.5C0 22.8978 0.158035 23.2794 0.43934 23.5607C0.720644 23.842 1.10218 24 1.5 24H22.5C22.8978 24 23.2794 23.842 23.5607 23.5607C23.842 23.2794 24 22.8978 24 22.5V18C24 17.6022 23.842 17.2206 23.5607 16.9393C23.2794 16.658 22.8978 16.5 22.5 16.5Z" fill="#DC241F"/>
</g>
<defs>
<clipPath id="clip0">
<rect width="24" height="24" fill="white"/>
</clipPath>
</defs>
</svg>
