<svg width="24" height="24" viewBox="0 0 24 24" fill="none" xmlns="http://www.w3.org/2000/svg">
<path opacity="0.4" d="M23.525 3.84373L21.4917 1.8104C21.1862 1.50619 20.7727 1.33539 20.3417 1.33539C19.9106 1.33539 19.4971 1.50619 19.1917 1.8104L17.7167 3.2854C17.6406 3.36176 17.5979 3.46514 17.5979 3.5729C17.5979 3.68066 17.6406 3.78403 17.7167 3.8604L21.475 7.61873C21.5514 7.69475 21.6547 7.73744 21.7625 7.73744C21.8703 7.73744 21.9736 7.69475 22.05 7.61873L23.525 6.14373C23.8292 5.83831 24 5.4248 24 4.99373C24 4.56266 23.8292 4.14915 23.525 3.84373ZM17.8125 13.7354L16.1458 15.4021C16.0533 15.4968 16.001 15.6238 16 15.7562V19.9979H2.66667V6.66456H12.2417C12.3741 6.66355 12.5011 6.61128 12.5958 6.51873L14.2625 4.85206C14.3327 4.78213 14.3805 4.69293 14.3999 4.59578C14.4193 4.49863 14.4094 4.3979 14.3714 4.30639C14.3335 4.21487 14.2692 4.13669 14.1868 4.08177C14.1043 4.02684 14.0074 3.99765 13.9083 3.9979H2C1.46957 3.9979 0.960859 4.20861 0.585786 4.58368C0.210714 4.95875 0 5.46746 0 5.9979L0 20.6646C0 21.195 0.210714 21.7037 0.585786 22.0788C0.960859 22.4538 1.46957 22.6646 2 22.6646H16.6667C17.1971 22.6646 17.7058 22.4538 18.0809 22.0788C18.4559 21.7037 18.6667 21.195 18.6667 20.6646V14.0896C18.6669 13.9905 18.6377 13.8936 18.5828 13.8111C18.5279 13.7287 18.4497 13.6644 18.3582 13.6265C18.2667 13.5885 18.1659 13.5786 18.0688 13.598C17.9716 13.6174 17.8824 13.6652 17.8125 13.7354Z" fill="#DC241F"/>
<path d="M20.5331 8.55642C20.6091 8.63279 20.6518 8.73616 20.6518 8.84392C20.6518 8.95168 20.6091 9.05506 20.5331 9.13142L11.4331 18.2314L7.56643 18.6606C7.44548 18.6742 7.32303 18.6603 7.20816 18.6201C7.09329 18.5799 6.98895 18.5143 6.90289 18.4283C6.81683 18.3422 6.75126 18.2379 6.71105 18.123C6.67083 18.0082 6.65701 17.8857 6.67059 17.7648L7.09976 13.8981L16.1997 4.79809C16.2761 4.72206 16.3795 4.67938 16.4872 4.67938C16.595 4.67938 16.6984 4.72206 16.7747 4.79809L20.5331 8.55642Z" fill="#DC241F"/>
</svg>
