<svg width="24" height="24" viewBox="0 0 24 24" fill="none" xmlns="http://www.w3.org/2000/svg">
<path d="M14.6953 12C14.6953 13.2422 13.656 14.25 12.375 14.25C11.094 14.25 10.0547 13.2422 10.0547 12C10.0547 10.7578 11.094 9.75 12.375 9.75C13.656 9.75 14.6953 10.7578 14.6953 12ZM20.4961 9.75C19.2151 9.75 18.1758 10.7578 18.1758 12C18.1758 13.2422 19.2151 14.25 20.4961 14.25C21.7771 14.25 22.8164 13.2422 22.8164 12C22.8164 10.7578 21.7771 9.75 20.4961 9.75ZM4.25391 9.75C2.9729 9.75 1.93359 10.7578 1.93359 12C1.93359 13.2422 2.9729 14.25 4.25391 14.25C5.53491 14.25 6.57422 13.2422 6.57422 12C6.57422 10.7578 5.53491 9.75 4.25391 9.75Z" fill="#DC241F"/>
</svg>
