<svg width="24" height="24" viewBox="0 0 24 24" fill="none" xmlns="http://www.w3.org/2000/svg">
<path opacity="0.4" d="M6.0006 12.749V14.9988H22.8735C23.1718 14.9988 23.4579 15.1173 23.6689 15.3282C23.8798 15.5392 23.9983 15.8253 23.9983 16.1236V16.8735C23.9983 17.1718 23.8798 17.458 23.6689 17.6689C23.4579 17.8799 23.1718 17.9984 22.8735 17.9984H6.0006V20.2481C6.0006 21.253 4.78482 21.7479 4.07897 21.0449L0.329437 17.2953C0.118501 17.0844 0 16.7983 0 16.5C0 16.2017 0.118501 15.9156 0.329437 15.7046L4.07897 11.9551C4.78857 11.2464 6.0006 11.7512 6.0006 12.749Z" fill="#DC241F"/>
<path d="M23.6704 6.7063C23.7749 6.81076 23.8578 6.93479 23.9144 7.0713C23.9709 7.20781 24 7.35413 24 7.5019C24 7.64967 23.9709 7.79599 23.9144 7.9325C23.8578 8.06901 23.7749 8.19304 23.6704 8.29751L19.9208 12.047C19.2178 12.7501 17.9992 12.2575 17.9992 11.2503V9.00054H1.12632C0.827993 9.00054 0.54188 8.88203 0.330928 8.67108C0.119976 8.46013 0.00146484 8.17401 0.00146484 7.87568L0.00146484 7.12578C0.00146484 6.82744 0.119976 6.54133 0.330928 6.33038C0.54188 6.11943 0.827993 6.00091 1.12632 6.00091H17.9992V3.75119C17.9992 2.75007 19.2131 2.25138 19.9208 2.95442L23.6704 6.7063Z" fill="#DC241F"/>
</svg>
