<svg width="24" height="24" viewBox="0 0 24 24" fill="none" xmlns="http://www.w3.org/2000/svg">
<path opacity="0.4" d="M12 0C5.37097 0 0 5.37484 0 12C0 18.6252 5.37097 24 12 24C18.629 24 24 18.629 24 12C24 5.37097 18.629 0 12 0ZM12 18.1935C11.6938 18.1935 11.3944 18.1027 11.1398 17.9326C10.8851 17.7625 10.6867 17.5206 10.5695 17.2377C10.4523 16.9548 10.4216 16.6434 10.4814 16.3431C10.5411 16.0427 10.6886 15.7668 10.9051 15.5503C11.1217 15.3337 11.3976 15.1863 11.6979 15.1265C11.9983 15.0668 12.3096 15.0974 12.5925 15.2146C12.8755 15.3318 13.1173 15.5303 13.2874 15.7849C13.4576 16.0396 13.5484 16.3389 13.5484 16.6452C13.5484 17.0558 13.3853 17.4497 13.0949 17.74C12.8045 18.0304 12.4107 18.1935 12 18.1935ZM13.8503 6.65758L13.231 12.8511C13.2119 13.0422 13.1225 13.2193 12.9801 13.3482C12.8378 13.477 12.6526 13.5484 12.4606 13.5484H11.5413C11.3493 13.5484 11.1641 13.477 11.0218 13.3482C10.8794 13.2193 10.79 13.0422 10.771 12.8511L10.1516 6.65758C10.1409 6.55012 10.1527 6.44161 10.1865 6.33902C10.2202 6.23642 10.275 6.14201 10.3473 6.06185C10.4197 5.98169 10.508 5.91756 10.6066 5.87358C10.7053 5.82959 10.812 5.80673 10.92 5.80645H13.08C13.1882 5.80646 13.2951 5.82912 13.394 5.87299C13.4928 5.91685 13.5814 5.98095 13.654 6.06113C13.7265 6.14132 13.7815 6.23583 13.8153 6.33856C13.8492 6.44129 13.8611 6.54996 13.8503 6.65758Z" fill="#DC241F"/>
<path d="M13.0802 5.80646H10.9202C10.812 5.80646 10.705 5.82913 10.6062 5.87299C10.5073 5.91686 10.4188 5.98095 10.3462 6.06114C10.2736 6.14133 10.2186 6.23583 10.1848 6.33856C10.151 6.44129 10.1391 6.54997 10.1498 6.65759L10.7692 12.8511C10.7883 13.0422 10.8777 13.2193 11.02 13.3482C11.1624 13.477 11.3475 13.5484 11.5395 13.5484H12.4589C12.6509 13.5484 12.836 13.477 12.9784 13.3482C13.1207 13.2193 13.2101 13.0422 13.2292 12.8511L13.8485 6.65759C13.8593 6.55013 13.8474 6.44162 13.8137 6.33902C13.78 6.23642 13.7252 6.14201 13.6528 6.06186C13.5805 5.9817 13.4921 5.91757 13.3935 5.87358C13.2949 5.8296 13.1881 5.80673 13.0802 5.80646ZM12.0002 15.0968C11.6939 15.0968 11.3945 15.1876 11.1399 15.3577C10.8853 15.5279 10.6868 15.7697 10.5696 16.0526C10.4524 16.3356 10.4218 16.6469 10.4815 16.9472C10.5413 17.2476 10.6887 17.5235 10.9053 17.74C11.1218 17.9566 11.3977 18.1041 11.6981 18.1638C11.9984 18.2235 12.3098 18.1929 12.5927 18.0757C12.8756 17.9585 13.1174 17.76 13.2876 17.5054C13.4577 17.2508 13.5485 16.9514 13.5485 16.6452C13.5485 16.2345 13.3854 15.8407 13.095 15.5503C12.8046 15.2599 12.4108 15.0968 12.0002 15.0968Z" fill="#DC241F"/>
</svg>
