<svg width="24" height="24" viewBox="0 0 24 24" fill="none" xmlns="http://www.w3.org/2000/svg">
<g clip-path="url(#clip0)">
<path opacity="0.4" d="M21 6H15.75C15.5511 6 15.3603 5.92099 15.2197 5.78033C15.079 5.63968 15 5.44892 15 5.25V3.53357e-06H4.125C3.97764 -0.000366272 3.83164 0.0282939 3.69535 0.0843477C3.55905 0.140402 3.43514 0.222751 3.33067 0.326695C3.22621 0.430639 3.14324 0.554141 3.0865 0.690149C3.02976 0.826158 3.00037 0.972011 3 1.11938V22.875C2.99963 23.0224 3.02829 23.1684 3.08435 23.3047C3.1404 23.441 3.22275 23.5649 3.32669 23.6693C3.43064 23.7738 3.55414 23.8568 3.69015 23.9135C3.82616 23.9702 3.97201 23.9996 4.11938 24H19.875C20.0224 24.0004 20.1684 23.9717 20.3047 23.9157C20.441 23.8596 20.5649 23.7773 20.6693 23.6733C20.7738 23.5694 20.8568 23.4459 20.9135 23.3099C20.9702 23.1738 20.9996 23.028 21 22.8806V6ZM16.5553 16.5H13.5V20.25C13.5 20.4489 13.421 20.6397 13.2803 20.7803C13.1397 20.921 12.9489 21 12.75 21H11.25C11.0511 21 10.8603 20.921 10.7197 20.7803C10.579 20.6397 10.5 20.4489 10.5 20.25V16.5H7.44469C6.77532 16.5 6.4411 15.6895 6.91641 15.2175L11.4375 10.7344C11.5872 10.5862 11.7894 10.5031 12 10.5031C12.2106 10.5031 12.4128 10.5862 12.5625 10.7344L17.0827 15.218C17.5584 15.69 17.2233 16.5 16.5553 16.5Z" fill="#DC241F"/>
<path d="M20.672 4.92188L16.083 0.328128C15.9782 0.223747 15.8539 0.14104 15.7172 0.0847371C15.5805 0.0284343 15.434 -0.000359235 15.2861 3.38283e-06H15.0001V5.25C15.0001 5.44892 15.0792 5.63968 15.2198 5.78033C15.3605 5.92099 15.5512 6 15.7501 6H21.0001V5.71407C21.0001 5.56694 20.9712 5.42126 20.9149 5.28534C20.8586 5.14941 20.7761 5.02591 20.672 4.92188ZM12.5626 10.7344C12.4129 10.5862 12.2108 10.5031 12.0001 10.5031C11.7895 10.5031 11.5874 10.5862 11.4376 10.7344L6.91655 15.2175C6.44124 15.6895 6.77546 16.5 7.44483 16.5H10.5001V20.25C10.5001 20.4489 10.5792 20.6397 10.7198 20.7803C10.8605 20.921 11.0512 21 11.2501 21H12.7501C12.9491 21 13.1398 20.921 13.2805 20.7803C13.4211 20.6397 13.5001 20.4489 13.5001 20.25V16.5H16.5555C17.2234 16.5 17.5586 15.6895 17.0828 15.2175L12.5626 10.7344Z" fill="#DC241F"/>
</g>
<defs>
<clipPath id="clip0">
<rect width="24" height="24" fill="white"/>
</clipPath>
</defs>
</svg>
