<svg width="24" height="24" viewBox="0 0 24 24" fill="none" xmlns="http://www.w3.org/2000/svg">
<g clip-path="url(#clip0)">
<path opacity="0.4" d="M21 6H15.75C15.5511 6 15.3603 5.92099 15.2197 5.78033C15.079 5.63968 15 5.44892 15 5.25V3.53357e-06H4.125C3.97764 -0.000366272 3.83164 0.0282939 3.69535 0.0843477C3.55905 0.140402 3.43514 0.222751 3.33067 0.326695C3.22621 0.430639 3.14324 0.554141 3.0865 0.690149C3.02976 0.826158 3.00037 0.972011 3 1.11938V22.875C2.99963 23.0224 3.02829 23.1684 3.08435 23.3047C3.1404 23.441 3.22275 23.5649 3.32669 23.6693C3.43064 23.7738 3.55414 23.8568 3.69015 23.9135C3.82616 23.9702 3.97201 23.9996 4.11938 24H19.875C20.0224 24.0004 20.1684 23.9717 20.3047 23.9157C20.441 23.8596 20.5649 23.7773 20.6693 23.6733C20.7738 23.5694 20.8568 23.4459 20.9135 23.3099C20.9702 23.1738 20.9996 23.028 21 22.8806V6ZM12 9C12.5933 9 13.1734 9.17595 13.6667 9.5056C14.1601 9.83524 14.5446 10.3038 14.7716 10.852C14.9987 11.4001 15.0581 12.0033 14.9424 12.5853C14.8266 13.1672 14.5409 13.7018 14.1213 14.1213C13.7018 14.5409 13.1672 14.8266 12.5853 14.9424C12.0033 15.0581 11.4001 14.9987 10.852 14.7716C10.3038 14.5446 9.83524 14.1601 9.50559 13.6667C9.17595 13.1734 9 12.5933 9 12C9 11.2044 9.31607 10.4413 9.87868 9.87868C10.4413 9.31607 11.2044 9 12 9ZM17.25 20.1C17.25 20.5973 16.7813 21 16.2 21H7.8C7.21875 21 6.75 20.5969 6.75 20.1V19.2C6.75 17.7089 8.16047 16.5 9.89532 16.5H10.1297C10.7213 16.7476 11.3563 16.8751 11.9977 16.8751C12.639 16.8751 13.274 16.7476 13.8656 16.5H14.1C15.8395 16.5 17.25 17.7089 17.25 19.2V20.1Z" fill="#DC241F"/>
<path d="M20.6719 4.92188L16.0828 0.328128C15.9781 0.223747 15.8538 0.14104 15.717 0.0847371C15.5803 0.0284343 15.4338 -0.000359235 15.2859 3.38283e-06H15V5.25C15 5.44892 15.079 5.63968 15.2197 5.78033C15.3603 5.92099 15.5511 6 15.75 6H21V5.71407C21 5.56694 20.971 5.42126 20.9147 5.28534C20.8584 5.14941 20.7759 5.02591 20.6719 4.92188ZM12 15C12.5933 15 13.1734 14.8241 13.6667 14.4944C14.1601 14.1648 14.5446 13.6962 14.7716 13.1481C14.9987 12.5999 15.0581 11.9967 14.9424 11.4147C14.8266 10.8328 14.5409 10.2982 14.1213 9.87868C13.7018 9.45913 13.1672 9.1734 12.5853 9.05765C12.0033 8.94189 11.4001 9.0013 10.8519 9.22837C10.3038 9.45543 9.83524 9.83995 9.50559 10.3333C9.17595 10.8266 9 11.4067 9 12C9 12.7957 9.31607 13.5587 9.87868 14.1213C10.4413 14.6839 11.2044 15 12 15ZM14.1 16.5H13.8656C13.274 16.7476 12.639 16.8751 11.9977 16.8751C11.3563 16.8751 10.7213 16.7476 10.1297 16.5H9.89531C8.16094 16.5 6.75 17.7089 6.75 19.2V20.1C6.75 20.5969 7.21875 21 7.8 21H16.2C16.7798 21 17.25 20.5973 17.25 20.1V19.2C17.25 17.7089 15.8395 16.5 14.1 16.5Z" fill="#DC241F"/>
</g>
<defs>
<clipPath id="clip0">
<rect width="24" height="24" fill="white"/>
</clipPath>
</defs>
</svg>
