<svg width="24" height="24" viewBox="0 0 24 24" fill="none" xmlns="http://www.w3.org/2000/svg">
<g clip-path="url(#clip0)">
<path opacity="0.4" d="M24 1.44468V15.5676C24.0016 15.8525 23.9206 16.1316 23.7666 16.3713C23.6127 16.6109 23.3925 16.8007 23.1328 16.9176C14.8922 20.4994 13.2047 13.6791 4.5 17.9995V1.51921C14.3156 -2.9147 13.6547 4.28952 21.6844 0.197804C22.7438 -0.341259 24 0.268116 24 1.44468Z" fill="#DC241F"/>
<path d="M3 1.50024V23.2502C3 23.4492 2.92098 23.6399 2.78033 23.7806C2.63968 23.9212 2.44891 24.0002 2.25 24.0002H0.75C0.551088 24.0002 0.360322 23.9212 0.21967 23.7806C0.0790176 23.6399 0 23.4492 0 23.2502V1.50024C0 1.10242 0.158035 0.720889 0.43934 0.439584C0.720644 0.158279 1.10218 0.000244141 1.5 0.000244141C1.89782 0.000244141 2.27936 0.158279 2.56066 0.439584C2.84196 0.720889 3 1.10242 3 1.50024Z" fill="#DC241F"/>
</g>
<defs>
<clipPath id="clip0">
<rect width="24" height="24" fill="white"/>
</clipPath>
</defs>
</svg>
