<svg width="24" height="24" viewBox="0 0 24 24" fill="none" xmlns="http://www.w3.org/2000/svg">
<path opacity="0.4" d="M0 18.6666V1.99998C0 1.82317 0.0702379 1.6536 0.195262 1.52858C0.320286 1.40355 0.489856 1.33331 0.666667 1.33331H2C2.17681 1.33331 2.34638 1.40355 2.4714 1.52858C2.59643 1.6536 2.66667 1.82317 2.66667 1.99998V5.33331H10.6667V7.99998H2.66667V17.3333H10.6667V20H1.33333C0.979711 20 0.640573 19.8595 0.390524 19.6095C0.140476 19.3594 0 19.0203 0 18.6666Z" fill="#DC241F"/>
<path d="M22.6667 14.6666H18L16.6667 13.3333H13.3333C12.9797 13.3333 12.6406 13.4738 12.3905 13.7238C12.1405 13.9739 12 14.313 12 14.6666V21.3333C12 21.6869 12.1405 22.0261 12.3905 22.2761C12.6406 22.5262 12.9797 22.6666 13.3333 22.6666H22.6667C23.0203 22.6666 23.3594 22.5262 23.6095 22.2761C23.8595 22.0261 24 21.6869 24 21.3333V16C24 15.6464 23.8595 15.3072 23.6095 15.0572C23.3594 14.8071 23.0203 14.6666 22.6667 14.6666ZM22.6667 2.66665H18L16.6667 1.33331H13.3333C12.9797 1.33331 12.6406 1.47379 12.3905 1.72384C12.1405 1.97389 12 2.31302 12 2.66665V9.33331C12 9.68694 12.1405 10.0261 12.3905 10.2761C12.6406 10.5262 12.9797 10.6666 13.3333 10.6666H22.6667C23.0203 10.6666 23.3594 10.5262 23.6095 10.2761C23.8595 10.0261 24 9.68694 24 9.33331V3.99998C24 3.64636 23.8595 3.30722 23.6095 3.05717C23.3594 2.80712 23.0203 2.66665 22.6667 2.66665Z" fill="#DC241F"/>
</svg>
