<svg width="24" height="24" viewBox="0 0 24 24" fill="none" xmlns="http://www.w3.org/2000/svg">
<path opacity="0.4" d="M6.46838 18.9789C7.80512 20.0379 9.41791 20.6908 11.1149 20.8598C12.812 21.0288 14.5218 20.7068 16.0412 19.9322C17.5605 19.1575 18.8254 17.9628 19.6855 16.4901C20.5455 15.0174 20.9644 13.3287 20.8925 11.6248C20.8205 9.92089 20.2607 8.2735 19.2796 6.87853C18.2985 5.48357 16.9374 4.39973 15.3582 3.75593C13.779 3.11212 12.0481 2.93543 10.3713 3.24687C8.69456 3.55831 7.14254 4.34478 5.89983 5.51274L8.35595 7.96887C8.8437 8.45661 8.49821 9.29032 7.80821 9.29032H0.774192C0.568864 9.29032 0.371945 9.20875 0.226756 9.06356C0.0815665 8.91837 0 8.72145 0 8.51613V1.48211C0 0.792106 0.833708 0.446623 1.32145 0.934364L3.7108 3.32371C5.94096 1.18692 8.91138 -0.00412453 12 1.07321e-05C18.6198 1.07321e-05 23.9879 5.36032 24 11.9772C24.0121 18.5942 18.6203 23.9951 12.0087 24C9.265 24.006 6.60277 23.0679 4.46903 21.343C4.34273 21.2405 4.23938 21.1126 4.16568 20.9676C4.09197 20.8226 4.04954 20.6638 4.04115 20.5013C4.03275 20.3389 4.05858 20.1765 4.11695 20.0247C4.17532 19.8728 4.26494 19.735 4.37999 19.62L4.92531 19.0747C5.12591 18.8721 5.39403 18.7503 5.67859 18.7327C5.96314 18.715 6.24426 18.8026 6.46838 18.9789Z" fill="#DC241F"/>
<path d="M13.5484 6.96775V12.0169L15.5178 13.5484C15.6382 13.642 15.7389 13.7584 15.8143 13.891C15.8897 14.0236 15.9383 14.1697 15.9572 14.321C15.9761 14.4724 15.965 14.6259 15.9246 14.773C15.8841 14.92 15.8151 15.0577 15.7215 15.1781L15.2463 15.7887C15.1527 15.9091 15.0363 16.0098 14.9037 16.0852C14.7711 16.1606 14.625 16.2092 14.4737 16.2281C14.3224 16.247 14.1688 16.2359 14.0217 16.1955C13.8747 16.155 13.737 16.086 13.6167 15.9924L10.4517 13.5314V6.96775C10.4517 6.65975 10.574 6.36437 10.7918 6.14659C11.0096 5.92881 11.305 5.80646 11.6129 5.80646H12.3871C12.6951 5.80646 12.9905 5.92881 13.2083 6.14659C13.4261 6.36437 13.5484 6.65975 13.5484 6.96775Z" fill="#DC241F"/>
</svg>
