<svg width="30" height="30" viewBox="0 0 30 30" fill="none" xmlns="http://www.w3.org/2000/svg">
<rect width="30" height="30" rx="10" fill="#FFF5F4"/>
<g clip-path="url(#clip0)">
<path opacity="0.4" d="M15 4.99988C10.8594 4.99988 7.5 8.35925 7.5 12.4999C7.5 15.5237 8.55469 16.3671 14.2293 24.5964C14.3156 24.7209 14.4308 24.8227 14.565 24.893C14.6992 24.9634 14.8485 25.0001 15 25.0001C15.1515 25.0001 15.3008 24.9634 15.435 24.893C15.5692 24.8227 15.6844 24.7209 15.7707 24.5964C21.4453 16.3671 22.5 15.5237 22.5 12.4999C22.5 8.35925 19.1406 4.99988 15 4.99988ZM15 16.2499C14.2583 16.2499 13.5333 16.0299 12.9166 15.6179C12.2999 15.2058 11.8193 14.6202 11.5355 13.9349C11.2516 13.2497 11.1774 12.4957 11.3221 11.7683C11.4667 11.0409 11.8239 10.3727 12.3483 9.84823C12.8728 9.32378 13.541 8.96663 14.2684 8.82193C14.9958 8.67724 15.7498 8.7515 16.4351 9.03533C17.1203 9.31916 17.706 9.79981 18.118 10.4165C18.5301 11.0332 18.75 11.7582 18.75 12.4999C18.75 13.4944 18.3549 14.4483 17.6517 15.1515C16.9484 15.8548 15.9946 16.2499 15 16.2499Z" fill="#DC241F"/>
<path d="M15 14.9999C14.5055 14.9999 14.0222 14.8533 13.6111 14.5786C13.2 14.3038 12.8795 13.9134 12.6903 13.4566C12.5011 12.9998 12.4516 12.4971 12.548 12.0122C12.6445 11.5272 12.8826 11.0817 13.2322 10.7321C13.5819 10.3825 14.0273 10.1444 14.5123 10.0479C14.9972 9.95145 15.4999 10.001 15.9567 10.1902C16.4135 10.3794 16.804 10.6998 17.0787 11.111C17.3534 11.5221 17.5 12.0054 17.5 12.4999C17.5 13.1629 17.2366 13.7988 16.7678 14.2676C16.2989 14.7365 15.663 14.9999 15 14.9999Z" fill="#DC241F"/>
</g>
<defs>
<clipPath id="clip0">
<rect width="20" height="20" fill="white" transform="translate(5 5)"/>
</clipPath>
</defs>
</svg>
