<svg width="22" height="18" viewBox="0 0 22 18" fill="none" xmlns="http://www.w3.org/2000/svg">
<path opacity="0.4" d="M0 4.11133V15.7224C0 16.2087 0.193154 16.675 0.536971 17.0188C0.880788 17.3626 1.3471 17.5558 1.83333 17.5558H20.1667C20.6529 17.5558 21.1192 17.3626 21.463 17.0188C21.8068 16.675 22 16.2087 22 15.7224V4.11133H0ZM6.72222 6.55577C7.20569 6.55577 7.6783 6.69914 8.08028 6.96774C8.48227 7.23633 8.79558 7.6181 8.98059 8.06477C9.16561 8.51143 9.21402 9.00293 9.1197 9.4771C9.02538 9.95128 8.79257 10.3868 8.45071 10.7287C8.10884 11.0706 7.67329 11.3034 7.19911 11.3977C6.72493 11.492 6.23344 11.4436 5.78677 11.2586C5.34011 11.0736 4.95834 10.7603 4.68974 10.3583C4.42114 9.95629 4.27778 9.48368 4.27778 9.00022C4.27778 8.35191 4.53532 7.73016 4.99374 7.27173C5.45216 6.81331 6.07392 6.55577 6.72222 6.55577ZM10.2858 15.1113H3.15868C2.76146 15.1113 2.44062 14.7294 2.56285 14.3551C2.72304 13.8644 3.03426 13.4369 3.45202 13.1337C3.86978 12.8305 4.3727 12.6671 4.88889 12.6669H5.20208C5.68351 12.8686 6.20026 12.9724 6.72222 12.9724C7.24419 12.9724 7.76094 12.8686 8.24236 12.6669H8.55556C9.07175 12.6671 9.57466 12.8305 9.99242 13.1337C10.4102 13.4369 10.7214 13.8644 10.8816 14.3551C11.0038 14.7332 10.683 15.1113 10.2858 15.1113ZM19.5556 12.3613C19.5556 12.4424 19.5234 12.5201 19.4661 12.5774C19.4088 12.6347 19.331 12.6669 19.25 12.6669H13.75C13.669 12.6669 13.5912 12.6347 13.5339 12.5774C13.4766 12.5201 13.4444 12.4424 13.4444 12.3613V11.7502C13.4444 11.6692 13.4766 11.5915 13.5339 11.5342C13.5912 11.4769 13.669 11.4447 13.75 11.4447H19.25C19.331 11.4447 19.4088 11.4769 19.4661 11.5342C19.5234 11.5915 19.5556 11.6692 19.5556 11.7502V12.3613ZM19.5556 9.91688C19.5556 9.99792 19.5234 10.0756 19.4661 10.1329C19.4088 10.1902 19.331 10.2224 19.25 10.2224H13.75C13.669 10.2224 13.5912 10.1902 13.5339 10.1329C13.4766 10.0756 13.4444 9.99792 13.4444 9.91688V9.30577C13.4444 9.22473 13.4766 9.14701 13.5339 9.08971C13.5912 9.03241 13.669 9.00022 13.75 9.00022H19.25C19.331 9.00022 19.4088 9.03241 19.4661 9.08971C19.5234 9.14701 19.5556 9.22473 19.5556 9.30577V9.91688ZM19.5556 7.47244C19.5556 7.55348 19.5234 7.6312 19.4661 7.6885C19.4088 7.7458 19.331 7.77799 19.25 7.77799H13.75C13.669 7.77799 13.5912 7.7458 13.5339 7.6885C13.4766 7.6312 13.4444 7.55348 13.4444 7.47244V6.86133C13.4444 6.78029 13.4766 6.70257 13.5339 6.64527C13.5912 6.58796 13.669 6.55577 13.75 6.55577H19.25C19.331 6.55577 19.4088 6.58796 19.4661 6.64527C19.5234 6.70257 19.5556 6.78029 19.5556 6.86133V7.47244Z" fill="#DC241F"/>
<path d="M8.55556 12.6666H8.24236C7.76094 12.8682 7.24419 12.9721 6.72222 12.9721C6.20026 12.9721 5.68351 12.8682 5.20208 12.6666H4.88889C4.3727 12.6668 3.86978 12.8301 3.45202 13.1333C3.03426 13.4365 2.72304 13.864 2.56285 14.3548C2.44062 14.7291 2.76146 15.111 3.15868 15.111H10.2858C10.683 15.111 11.0038 14.7329 10.8816 14.3548C10.7214 13.864 10.4102 13.4365 9.99242 13.1333C9.57466 12.8301 9.07175 12.6668 8.55556 12.6666ZM20.1667 0.444336H1.83333C1.3471 0.444336 0.880788 0.63749 0.536971 0.981307C0.193154 1.32512 0 1.79144 0 2.27767L0 4.111H22V2.27767C22 1.79144 21.8068 1.32512 21.463 0.981307C21.1192 0.63749 20.6529 0.444336 20.1667 0.444336ZM6.72222 11.4443C7.20569 11.4443 7.6783 11.301 8.08028 11.0324C8.48227 10.7638 8.79558 10.382 8.98059 9.93534C9.16561 9.48867 9.21402 8.99718 9.1197 8.523C9.02538 8.04883 8.79257 7.61327 8.45071 7.27141C8.10884 6.92954 7.67329 6.69673 7.19911 6.60242C6.72493 6.5081 6.23344 6.5565 5.78677 6.74152C5.34011 6.92653 4.95834 7.23984 4.68974 7.64183C4.42114 8.04382 4.27778 8.51642 4.27778 8.99989C4.27778 9.6482 4.53532 10.2699 4.99374 10.7284C5.45216 11.1868 6.07392 11.4443 6.72222 11.4443Z" fill="#DC241F"/>
</svg>
