<svg width="30" height="30" viewBox="0 0 30 30" fill="none" xmlns="http://www.w3.org/2000/svg">
<path opacity="0.4" d="M22.1089 7.94115C22.0508 7.88288 21.9818 7.83665 21.9058 7.80511C21.8299 7.77356 21.7484 7.75732 21.6661 7.75732C21.5839 7.75732 21.5024 7.77356 21.4265 7.80511C21.3505 7.83665 21.2815 7.88288 21.2234 7.94115L14.1667 14.9995L12.1089 12.9412C12.0508 12.8829 11.9818 12.8367 11.9058 12.8051C11.8299 12.7736 11.7484 12.7573 11.6661 12.7573C11.5839 12.7573 11.5024 12.7736 11.4265 12.8051C11.3505 12.8367 11.2815 12.8829 11.2234 12.9412L8.33333 15.8328V18.3328H26.6667V12.4995L22.1089 7.94115ZM3.33333 19.1662V8.33282H2.5C1.83696 8.33282 1.20107 8.59621 0.732233 9.06505C0.263392 9.53389 0 10.1698 0 10.8328L0 24.1662C0 24.8292 0.263392 25.4651 0.732233 25.9339C1.20107 26.4028 1.83696 26.6662 2.5 26.6662H22.5C23.163 26.6662 23.7989 26.4028 24.2678 25.9339C24.7366 25.4651 25 24.8292 25 24.1662V23.3328H7.5C6.39531 23.3316 5.33622 22.8922 4.55509 22.1111C3.77396 21.3299 3.33457 20.2708 3.33333 19.1662Z" fill="#DC241F"/>
<path d="M27.5 3.3335H7.5C6.83696 3.3335 6.20107 3.59689 5.73223 4.06573C5.26339 4.53457 5 5.17046 5 5.8335V19.1668C5 19.8299 5.26339 20.4658 5.73223 20.9346C6.20107 21.4034 6.83696 21.6668 7.5 21.6668H27.5C28.163 21.6668 28.7989 21.4034 29.2678 20.9346C29.7366 20.4658 30 19.8299 30 19.1668V5.8335C30 5.17046 29.7366 4.53457 29.2678 4.06573C28.7989 3.59689 28.163 3.3335 27.5 3.3335ZM10.8333 5.8335C11.3278 5.8335 11.8111 5.98012 12.2223 6.25482C12.6334 6.52953 12.9538 6.91997 13.143 7.37679C13.3323 7.8336 13.3818 8.33627 13.2853 8.82122C13.1888 9.30618 12.9507 9.75163 12.6011 10.1013C12.2515 10.4509 11.806 10.689 11.3211 10.7855C10.8361 10.8819 10.3334 10.8324 9.87662 10.6432C9.41981 10.454 9.02936 10.1335 8.75466 9.72242C8.47996 9.3113 8.33333 8.82795 8.33333 8.3335C8.33333 7.67046 8.59672 7.03457 9.06557 6.56573C9.53441 6.09689 10.1703 5.8335 10.8333 5.8335ZM26.6667 18.3335H8.33333V15.8335L11.225 12.9418C11.2831 12.8836 11.3521 12.8373 11.428 12.8058C11.504 12.7742 11.5854 12.758 11.6677 12.758C11.75 12.758 11.8314 12.7742 11.9074 12.8058C11.9834 12.8373 12.0524 12.8836 12.1104 12.9418L14.1667 15.0002L21.225 7.94183C21.2831 7.88356 21.3521 7.83733 21.428 7.80579C21.504 7.77424 21.5854 7.758 21.6677 7.758C21.75 7.758 21.8314 7.77424 21.9074 7.80579C21.9834 7.83733 22.0524 7.88356 22.1104 7.94183L26.6667 12.5002V18.3335Z" fill="#DC241F"/>
</svg>
