<svg width="24" height="24" viewBox="0 0 24 24" fill="none" xmlns="http://www.w3.org/2000/svg">
<path opacity="0.4" d="M23.25 13.5H14.25C14.0511 13.5 13.8603 13.579 13.7197 13.7197C13.579 13.8603 13.5 14.0511 13.5 14.25V15.75C13.5 15.9489 13.579 16.1397 13.7197 16.2803C13.8603 16.421 14.0511 16.5 14.25 16.5H23.25C23.4489 16.5 23.6397 16.421 23.7803 16.2803C23.921 16.1397 24 15.9489 24 15.75V14.25C24 14.0511 23.921 13.8603 23.7803 13.7197C23.6397 13.579 23.4489 13.5 23.25 13.5ZM23.25 19.5H14.25C14.0511 19.5 13.8603 19.579 13.7197 19.7197C13.579 19.8603 13.5 20.0511 13.5 20.25V21.75C13.5 21.9489 13.579 22.1397 13.7197 22.2803C13.8603 22.421 14.0511 22.5 14.25 22.5H23.25C23.4489 22.5 23.6397 22.421 23.7803 22.2803C23.921 22.1397 24 21.9489 24 21.75V20.25C24 20.0511 23.921 19.8603 23.7803 19.7197C23.6397 19.579 23.4489 19.5 23.25 19.5ZM23.25 7.5H14.25C14.0511 7.5 13.8603 7.57902 13.7197 7.71967C13.579 7.86032 13.5 8.05109 13.5 8.25V9.75C13.5 9.94891 13.579 10.1397 13.7197 10.2803C13.8603 10.421 14.0511 10.5 14.25 10.5H23.25C23.4489 10.5 23.6397 10.421 23.7803 10.2803C23.921 10.1397 24 9.94891 24 9.75V8.25C24 8.05109 23.921 7.86032 23.7803 7.71967C23.6397 7.57902 23.4489 7.5 23.25 7.5ZM23.25 1.5H14.25C14.0511 1.5 13.8603 1.57902 13.7197 1.71967C13.579 1.86032 13.5 2.05109 13.5 2.25V3.75C13.5 3.94891 13.579 4.13968 13.7197 4.28033C13.8603 4.42098 14.0511 4.5 14.25 4.5H23.25C23.4489 4.5 23.6397 4.42098 23.7803 4.28033C23.921 4.13968 24 3.94891 24 3.75V2.25C24 2.05109 23.921 1.86032 23.7803 1.71967C23.6397 1.57902 23.4489 1.5 23.25 1.5Z" fill="#DC241F"/>
<path d="M9.75 13.5H0.75C0.551088 13.5 0.360322 13.579 0.21967 13.7197C0.0790176 13.8603 0 14.0511 0 14.25L0 15.75C0 15.9489 0.0790176 16.1397 0.21967 16.2803C0.360322 16.421 0.551088 16.5 0.75 16.5H9.75C9.94891 16.5 10.1397 16.421 10.2803 16.2803C10.421 16.1397 10.5 15.9489 10.5 15.75V14.25C10.5 14.0511 10.421 13.8603 10.2803 13.7197C10.1397 13.579 9.94891 13.5 9.75 13.5ZM9.75 19.5H0.75C0.551088 19.5 0.360322 19.579 0.21967 19.7197C0.0790176 19.8603 0 20.0511 0 20.25L0 21.75C0 21.9489 0.0790176 22.1397 0.21967 22.2803C0.360322 22.421 0.551088 22.5 0.75 22.5H9.75C9.94891 22.5 10.1397 22.421 10.2803 22.2803C10.421 22.1397 10.5 21.9489 10.5 21.75V20.25C10.5 20.0511 10.421 19.8603 10.2803 19.7197C10.1397 19.579 9.94891 19.5 9.75 19.5ZM9.75 1.5H0.75C0.551088 1.5 0.360322 1.57902 0.21967 1.71967C0.0790176 1.86032 0 2.05109 0 2.25L0 3.75C0 3.94891 0.0790176 4.13968 0.21967 4.28033C0.360322 4.42098 0.551088 4.5 0.75 4.5H9.75C9.94891 4.5 10.1397 4.42098 10.2803 4.28033C10.421 4.13968 10.5 3.94891 10.5 3.75V2.25C10.5 2.05109 10.421 1.86032 10.2803 1.71967C10.1397 1.57902 9.94891 1.5 9.75 1.5ZM9.75 7.5H0.75C0.551088 7.5 0.360322 7.57902 0.21967 7.71967C0.0790176 7.86032 0 8.05109 0 8.25L0 9.75C0 9.94891 0.0790176 10.1397 0.21967 10.2803C0.360322 10.421 0.551088 10.5 0.75 10.5H9.75C9.94891 10.5 10.1397 10.421 10.2803 10.2803C10.421 10.1397 10.5 9.94891 10.5 9.75V8.25C10.5 8.05109 10.421 7.86032 10.2803 7.71967C10.1397 7.57902 9.94891 7.5 9.75 7.5Z" fill="#DC241F"/>
</svg>
