<svg width="24" height="24" viewBox="0 0 24 24" fill="none" xmlns="http://www.w3.org/2000/svg">
<g clip-path="url(#clip0)">
<path opacity="0.4" d="M19.875 3.53362e-06H4.12501C3.97716 -0.000367462 3.83071 0.0284783 3.69405 0.0848834C3.55739 0.141289 3.43322 0.224141 3.32868 0.328681C3.22414 0.433221 3.14129 0.557387 3.08488 0.694046C3.02848 0.830705 2.99963 0.977162 3 1.125V22.875C2.99963 23.0228 3.02848 23.1693 3.08488 23.306C3.14129 23.4426 3.22414 23.5668 3.32868 23.6713C3.43322 23.7759 3.55739 23.8587 3.69405 23.9151C3.83071 23.9715 3.97716 24.0004 4.12501 24H19.875C20.0229 24.0004 20.1693 23.9715 20.306 23.9151C20.4426 23.8587 20.5668 23.7759 20.6714 23.6713C20.7759 23.5668 20.8587 23.4426 20.9152 23.306C20.9716 23.1693 21.0004 23.0228 21 22.875V1.125C21.0004 0.977162 20.9716 0.830705 20.9152 0.694046C20.8587 0.557387 20.7759 0.433221 20.6714 0.328681C20.5668 0.224141 20.4426 0.141289 20.306 0.0848834C20.1693 0.0284783 20.0229 -0.000367462 19.875 3.53362e-06ZM10.5797 9.4875L11.1703 10.0828C11.1937 10.1062 11.2123 10.134 11.225 10.1645C11.2377 10.1951 11.2442 10.2279 11.2442 10.2609C11.2442 10.294 11.2377 10.3268 11.225 10.3574C11.2123 10.3879 11.1937 10.4157 11.1703 10.4391L8.16095 13.4203C8.13757 13.4437 8.1098 13.4623 8.07924 13.475C8.04868 13.4877 8.01591 13.4942 7.98282 13.4942C7.94974 13.4942 7.91697 13.4877 7.88641 13.475C7.85584 13.4623 7.82808 13.4437 7.8047 13.4203L6.07501 11.6719C6.05159 11.6485 6.03302 11.6207 6.02035 11.5902C6.00767 11.5596 6.00115 11.5268 6.00115 11.4938C6.00115 11.4607 6.00767 11.4279 6.02035 11.3973C6.03302 11.3668 6.05159 11.339 6.07501 11.3156L6.67032 10.725C6.6937 10.7016 6.72147 10.683 6.75203 10.6703C6.7826 10.6577 6.81536 10.6511 6.84845 10.6511C6.88154 10.6511 6.9143 10.6577 6.94486 10.6703C6.97543 10.683 7.00319 10.7016 7.02657 10.725L7.9922 11.7L10.2235 9.4875C10.2468 9.46409 10.2746 9.44551 10.3052 9.43284C10.3357 9.42017 10.3685 9.41364 10.4016 9.41364C10.4347 9.41364 10.4674 9.42017 10.498 9.43284C10.5286 9.44551 10.5563 9.46409 10.5797 9.4875ZM6.00001 5.25C6.00001 5.05109 6.07903 4.86033 6.21968 4.71967C6.36033 4.57902 6.5511 4.5 6.75001 4.5H8.25001C8.44892 4.5 8.63969 4.57902 8.78034 4.71967C8.921 4.86033 9.00001 5.05109 9.00001 5.25V6.75C9.00001 6.94892 8.921 7.13968 8.78034 7.28033C8.63969 7.42099 8.44892 7.5 8.25001 7.5H6.75001C6.5511 7.5 6.36033 7.42099 6.21968 7.28033C6.07903 7.13968 6.00001 6.94892 6.00001 6.75V5.25ZM9.00001 18.75C9.00001 18.9489 8.921 19.1397 8.78034 19.2803C8.63969 19.421 8.44892 19.5 8.25001 19.5H6.75001C6.5511 19.5 6.36033 19.421 6.21968 19.2803C6.07903 19.1397 6.00001 18.9489 6.00001 18.75V17.25C6.00001 17.0511 6.07903 16.8603 6.21968 16.7197C6.36033 16.579 6.5511 16.5 6.75001 16.5H8.25001C8.44892 16.5 8.63969 16.579 8.78034 16.7197C8.921 16.8603 9.00001 17.0511 9.00001 17.25V18.75ZM18 18.375C18 18.4745 17.9605 18.5698 17.8902 18.6402C17.8199 18.7105 17.7245 18.75 17.625 18.75H10.875C10.7756 18.75 10.6802 18.7105 10.6099 18.6402C10.5395 18.5698 10.5 18.4745 10.5 18.375V17.625C10.5 17.5255 10.5395 17.4302 10.6099 17.3598C10.6802 17.2895 10.7756 17.25 10.875 17.25H17.625C17.7245 17.25 17.8199 17.2895 17.8902 17.3598C17.9605 17.4302 18 17.5255 18 17.625V18.375ZM17.55 12.75H10.9781C10.9781 12.75 12.3469 11.3344 12.4031 11.25H17.5453C17.7938 11.25 17.9953 11.4188 17.9953 11.625V12.375H18C18 12.5813 17.7985 12.75 17.55 12.75ZM18 6.375C18 6.47446 17.9605 6.56984 17.8902 6.64017C17.8199 6.71049 17.7245 6.75 17.625 6.75H10.875C10.7756 6.75 10.6802 6.71049 10.6099 6.64017C10.5395 6.56984 10.5 6.47446 10.5 6.375V5.625C10.5 5.52555 10.5395 5.43016 10.6099 5.35984C10.6802 5.28951 10.7756 5.25 10.875 5.25H17.625C17.7245 5.25 17.8199 5.28951 17.8902 5.35984C17.9605 5.43016 18 5.52555 18 5.625V6.375Z" fill="#DC241F"/>
<path d="M6.75 7.50012H8.25C8.44891 7.50012 8.63968 7.4211 8.78033 7.28045C8.92098 7.1398 9 6.94903 9 6.75012V5.25012C9 5.05121 8.92098 4.86044 8.78033 4.71979C8.63968 4.57914 8.44891 4.50012 8.25 4.50012H6.75C6.55109 4.50012 6.36032 4.57914 6.21967 4.71979C6.07902 4.86044 6 5.05121 6 5.25012V6.75012C6 6.94903 6.07902 7.1398 6.21967 7.28045C6.36032 7.4211 6.55109 7.50012 6.75 7.50012ZM11.1703 10.0829L10.5797 9.48762C10.5563 9.46421 10.5285 9.44563 10.498 9.43296C10.4674 9.42029 10.4346 9.41376 10.4016 9.41376C10.3685 9.41376 10.3357 9.42029 10.3051 9.43296C10.2746 9.44563 10.2468 9.46421 10.2234 9.48762L7.99219 11.7001L7.02656 10.7251C7.00318 10.7017 6.97542 10.6831 6.94485 10.6705C6.91429 10.6578 6.88153 10.6513 6.84844 10.6513C6.81535 10.6513 6.78259 10.6578 6.75202 10.6705C6.72146 10.6831 6.69369 10.7017 6.67031 10.7251L6.075 11.3157C6.05159 11.3391 6.03301 11.3669 6.02034 11.3975C6.00766 11.428 6.00114 11.4608 6.00114 11.4939C6.00114 11.527 6.00766 11.5597 6.02034 11.5903C6.03301 11.6209 6.05159 11.6486 6.075 11.672L7.80469 13.4204C7.82807 13.4438 7.85583 13.4624 7.8864 13.4751C7.91696 13.4878 7.94972 13.4943 7.98281 13.4943C8.0159 13.4943 8.04866 13.4878 8.07923 13.4751C8.10979 13.4624 8.13756 13.4438 8.16094 13.4204L11.1703 10.4392C11.1937 10.4158 11.2123 10.388 11.225 10.3575C11.2376 10.3269 11.2442 10.2941 11.2442 10.2611C11.2442 10.228 11.2376 10.1952 11.225 10.1646C11.2123 10.1341 11.1937 10.1063 11.1703 10.0829ZM8.25 16.5001H6.75C6.55109 16.5001 6.36032 16.5791 6.21967 16.7198C6.07902 16.8604 6 17.0512 6 17.2501V18.7501C6 18.949 6.07902 19.1398 6.21967 19.2805C6.36032 19.4211 6.55109 19.5001 6.75 19.5001H8.25C8.44891 19.5001 8.63968 19.4211 8.78033 19.2805C8.92098 19.1398 9 18.949 9 18.7501V17.2501C9 17.0512 8.92098 16.8604 8.78033 16.7198C8.63968 16.5791 8.44891 16.5001 8.25 16.5001Z" fill="#DC241F"/>
</g>
<defs>
<clipPath id="clip0">
<rect width="24" height="24" fill="white"/>
</clipPath>
</defs>
</svg>
