<svg width="24" height="24" viewBox="0 0 24 24" fill="none" xmlns="http://www.w3.org/2000/svg">
<path opacity="0.4" d="M8 2.66656L16 5.33323V21.3332L8 18.6666V2.66656Z" fill="#DC241F"/>
<path d="M1.57085e-08 6.23573V20.6666C-2.3633e-05 20.7755 0.026655 20.8828 0.0777013 20.9791C0.128748 21.0753 0.202606 21.1576 0.292812 21.2187C0.383019 21.2798 0.486825 21.3178 0.595146 21.3295C0.703468 21.3412 0.813003 21.3262 0.914167 21.2857L6.66667 18.6666V2.66656L0.838333 4.9999C0.591217 5.0987 0.379322 5.26919 0.229919 5.48944C0.0805163 5.70968 0.000441402 5.9696 1.57085e-08 6.23573ZM23.0858 2.7149L17.3333 5.33323V21.3332L23.1617 19.002C23.4091 18.903 23.6212 18.7322 23.7707 18.5116C23.9201 18.2909 24 18.0306 24 17.7641V3.33323C23.9999 3.22435 23.9731 3.11716 23.922 3.02102C23.8709 2.92487 23.797 2.84271 23.7068 2.78171C23.6167 2.72071 23.5129 2.68273 23.4046 2.67108C23.2964 2.65943 23.1869 2.67448 23.0858 2.7149Z" fill="#DC241F"/>
</svg>
