<svg width="24" height="24" viewBox="0 0 24 24" fill="none" xmlns="http://www.w3.org/2000/svg">
<path opacity="0.4" d="M0 19.2C0 19.5182 0.126428 19.8234 0.351472 20.0485C0.576516 20.2735 0.88174 20.4 1.2 20.4H22.8C23.1183 20.4 23.4235 20.2735 23.6485 20.0485C23.8736 19.8234 24 19.5182 24 19.2V7.19995H0V19.2ZM16.8 11.4C16.8 11.2408 16.8632 11.0882 16.9757 10.9757C17.0883 10.8632 17.2409 10.8 17.4 10.8H21C21.1591 10.8 21.3117 10.8632 21.4243 10.9757C21.5368 11.0882 21.6 11.2408 21.6 11.4V12.6C21.6 12.7591 21.5368 12.9117 21.4243 13.0242C21.3117 13.1367 21.1591 13.2 21 13.2H17.4C17.2409 13.2 17.0883 13.1367 16.9757 13.0242C16.8632 12.9117 16.8 12.7591 16.8 12.6V11.4ZM16.8 15.9C16.8 15.8204 16.8316 15.7441 16.8879 15.6878C16.9441 15.6316 17.0204 15.6 17.1 15.6H21.3C21.3796 15.6 21.4559 15.6316 21.5121 15.6878C21.5684 15.7441 21.6 15.8204 21.6 15.9V16.5C21.6 16.5795 21.5684 16.6558 21.5121 16.7121C21.4559 16.7683 21.3796 16.8 21.3 16.8H17.1C17.0204 16.8 16.9441 16.7683 16.8879 16.7121C16.8316 16.6558 16.8 16.5795 16.8 16.5V15.9ZM2.4 12.3C2.4 12.2204 2.43161 12.1441 2.48787 12.0878C2.54413 12.0316 2.62044 12 2.7 12H14.1C14.1796 12 14.2559 12.0316 14.3121 12.0878C14.3684 12.1441 14.4 12.2204 14.4 12.3V12.9C14.4 12.9795 14.3684 13.0558 14.3121 13.1121C14.2559 13.1683 14.1796 13.2 14.1 13.2H2.7C2.62044 13.2 2.54413 13.1683 2.48787 13.1121C2.43161 13.0558 2.4 12.9795 2.4 12.9V12.3ZM2.4 15.9C2.4 15.8204 2.43161 15.7441 2.48787 15.6878C2.54413 15.6316 2.62044 15.6 2.7 15.6H9.3C9.37957 15.6 9.45587 15.6316 9.51213 15.6878C9.56839 15.7441 9.6 15.8204 9.6 15.9V16.5C9.6 16.5795 9.56839 16.6558 9.51213 16.7121C9.45587 16.7683 9.37957 16.8 9.3 16.8H2.7C2.62044 16.8 2.54413 16.7683 2.48787 16.7121C2.43161 16.6558 2.4 16.5795 2.4 16.5V15.9Z" fill="#DC241F"/>
<path d="M21.3 15.6H17.1C17.0204 15.6 16.9441 15.6316 16.8879 15.6878C16.8316 15.7441 16.8 15.8204 16.8 15.9V16.5C16.8 16.5795 16.8316 16.6558 16.8879 16.7121C16.9441 16.7684 17.0204 16.8 17.1 16.8H21.3C21.3796 16.8 21.4559 16.7684 21.5121 16.7121C21.5684 16.6558 21.6 16.5795 21.6 16.5V15.9C21.6 15.8204 21.5684 15.7441 21.5121 15.6878C21.4559 15.6316 21.3796 15.6 21.3 15.6ZM14.1 12H2.7C2.62044 12 2.54413 12.0316 2.48787 12.0878C2.43161 12.1441 2.4 12.2204 2.4 12.3V12.9C2.4 12.9795 2.43161 13.0558 2.48787 13.1121C2.54413 13.1684 2.62044 13.2 2.7 13.2H14.1C14.1796 13.2 14.2559 13.1684 14.3121 13.1121C14.3684 13.0558 14.4 12.9795 14.4 12.9V12.3C14.4 12.2204 14.3684 12.1441 14.3121 12.0878C14.2559 12.0316 14.1796 12 14.1 12ZM9.3 15.6H2.7C2.62044 15.6 2.54413 15.6316 2.48787 15.6878C2.43161 15.7441 2.4 15.8204 2.4 15.9V16.5C2.4 16.5795 2.43161 16.6558 2.48787 16.7121C2.54413 16.7684 2.62044 16.8 2.7 16.8H9.3C9.37957 16.8 9.45587 16.7684 9.51213 16.7121C9.56839 16.6558 9.6 16.5795 9.6 16.5V15.9C9.6 15.8204 9.56839 15.7441 9.51213 15.6878C9.45587 15.6316 9.37957 15.6 9.3 15.6ZM23.4 3.59998H0.6C0.44087 3.59998 0.288258 3.66319 0.175736 3.77571C0.0632141 3.88823 0 4.04085 0 4.19998L0 5.99998H24V4.19998C24 4.04085 23.9368 3.88823 23.8243 3.77571C23.7117 3.66319 23.5591 3.59998 23.4 3.59998Z" fill="#DC241F"/>
</svg>
