<svg width="24" height="24" viewBox="0 0 24 24" fill="none" xmlns="http://www.w3.org/2000/svg">
<path opacity="0.4" d="M3.79555 7.19995C3.37917 8.0746 2.67446 8.77931 1.7998 9.1957V16.0042C2.67446 16.4206 3.37917 17.1253 3.79555 18H20.2041C20.6204 17.1253 21.3252 16.4206 22.1998 16.0042V9.1957C21.3252 8.77931 20.6204 8.0746 20.2041 7.19995H3.79555ZM11.9998 16.8C10.0123 16.8 8.39981 14.919 8.39981 12.6C8.39981 10.281 10.0123 8.39995 11.9998 8.39995C13.9873 8.39995 15.5998 10.2802 15.5998 12.6C15.5998 14.9197 13.9873 16.8 11.9998 16.8Z" fill="#DC241F"/>
<path d="M23.1 5.40002H0.9C0.661305 5.40002 0.432387 5.49485 0.263604 5.66363C0.0948212 5.83241 0 6.06133 0 6.30002L0 18.9C0 19.1387 0.0948212 19.3676 0.263604 19.5364C0.432387 19.7052 0.661305 19.8 0.9 19.8H23.1C23.3387 19.8 23.5676 19.7052 23.7364 19.5364C23.9052 19.3676 24 19.1387 24 18.9V6.30002C24 6.06133 23.9052 5.83241 23.7364 5.66363C23.5676 5.49485 23.3387 5.40002 23.1 5.40002ZM22.2 16.0043C21.3253 16.4207 20.6206 17.1254 20.2043 18H3.79575C3.37936 17.1254 2.67465 16.4207 1.8 16.0043V9.19578C2.67465 8.77939 3.37936 8.07468 3.79575 7.20002H20.2043C20.6206 8.07468 21.3253 8.77939 22.2 9.19578V16.0043ZM13.2 13.8H12.6V10.5C12.6 10.4205 12.5684 10.3442 12.5121 10.2879C12.4559 10.2316 12.3796 10.2 12.3 10.2H11.7908C11.6132 10.1997 11.4396 10.2519 11.2916 10.35L10.7168 10.7333C10.6507 10.7774 10.6048 10.8459 10.5892 10.9238C10.5736 11.0017 10.5895 11.0826 10.6335 11.1488L10.9665 11.6479C11.0106 11.714 11.0791 11.7598 11.157 11.7754C11.2349 11.791 11.3158 11.7751 11.382 11.7312L11.3996 11.7195V13.8H10.8C10.7204 13.8 10.6441 13.8316 10.5879 13.8879C10.5316 13.9442 10.5 14.0205 10.5 14.1V14.7C10.5 14.7796 10.5316 14.8559 10.5879 14.9122C10.6441 14.9684 10.7204 15 10.8 15H13.2C13.2796 15 13.3559 14.9684 13.4121 14.9122C13.4684 14.8559 13.5 14.7796 13.5 14.7V14.1C13.5 14.0205 13.4684 13.9442 13.4121 13.8879C13.3559 13.8316 13.2796 13.8 13.2 13.8Z" fill="#DC241F"/>
</svg>
