<svg width="22" height="14" viewBox="0 0 22 14" fill="none" xmlns="http://www.w3.org/2000/svg">
<path opacity="0.4" d="M3.47943 2.05078C3.09774 2.85255 2.45176 3.49853 1.64999 3.88022V10.1213C2.45176 10.503 3.09774 11.149 3.47943 11.9508H18.5206C18.9022 11.149 19.5482 10.503 20.35 10.1213V3.88022C19.5482 3.49853 18.9022 2.85255 18.5206 2.05078H3.47943ZM11 10.3008C9.48096 10.3008 8.24999 8.82266 8.24999 7.00078C8.24999 5.17891 9.48131 3.70078 11 3.70078C12.5187 3.70078 13.75 5.17891 13.75 7.00078C13.75 8.82266 12.5183 10.3008 11 10.3008Z" fill="#DC241F"/>
<path d="M21.175 0.400391H0.825C0.606196 0.400391 0.396354 0.48731 0.241637 0.642027C0.0869194 0.796745 0 1.00659 0 1.22539L0 12.7754C0 12.9942 0.0869194 13.204 0.241637 13.3588C0.396354 13.5135 0.606196 13.6004 0.825 13.6004H21.175C21.3938 13.6004 21.6036 13.5135 21.7584 13.3588C21.9131 13.204 22 12.9942 22 12.7754V1.22539C22 1.00659 21.9131 0.796745 21.7584 0.642027C21.6036 0.48731 21.3938 0.400391 21.175 0.400391ZM20.35 10.121C19.5482 10.5026 18.9023 11.1486 18.5206 11.9504H3.47944C3.09775 11.1486 2.45176 10.5026 1.65 10.121V3.87983C2.45176 3.49814 3.09775 2.85215 3.47944 2.05039H18.5206C18.9023 2.85215 19.5482 3.49814 20.35 3.87983V10.121Z" fill="#DC241F"/>
</svg>
