<svg width="24" height="24" viewBox="0 0 24 24" fill="none" xmlns="http://www.w3.org/2000/svg">
<path opacity="0.4" d="M21.3332 4V20H2.6665V13.3333H7.58775L8.73692 15.6317C8.7923 15.7424 8.87741 15.8355 8.98272 15.9006C9.08803 15.9657 9.20938 16.0001 9.33317 16.0001C9.45696 16.0001 9.57831 15.9657 9.68362 15.9006C9.78893 15.8355 9.87404 15.7424 9.92942 15.6317L11.9998 11.4908L12.9211 13.3333H16.6665C16.8433 13.3333 17.0129 13.2631 17.1379 13.1381C17.2629 13.013 17.3332 12.8435 17.3332 12.6667C17.3332 12.4899 17.2629 12.3203 17.1379 12.1953C17.0129 12.0702 16.8433 12 16.6665 12H13.7453L12.5961 9.70167C12.5407 9.59095 12.4556 9.49783 12.3503 9.43276C12.245 9.36768 12.1236 9.33321 11.9998 9.33321C11.876 9.33321 11.7547 9.36768 11.6494 9.43276C11.5441 9.49783 11.459 9.59095 11.4036 9.70167L9.33317 13.8425L8.504 12.1842C8.47648 12.1292 8.43428 12.0829 8.38207 12.0503C8.32986 12.0178 8.26967 12.0004 8.20817 12H2.6665V4H21.3332Z" fill="#DC241F"/>
<path d="M22 1.33331H2C1.46957 1.33331 0.960859 1.54403 0.585786 1.9191C0.210714 2.29417 0 2.80288 0 3.33331L0 20.6666C0 21.1971 0.210714 21.7058 0.585786 22.0809C0.960859 22.4559 1.46957 22.6666 2 22.6666H22C22.5304 22.6666 23.0391 22.4559 23.4142 22.0809C23.7893 21.7058 24 21.1971 24 20.6666V3.33331C24 2.80288 23.7893 2.29417 23.4142 1.9191C23.0391 1.54403 22.5304 1.33331 22 1.33331V1.33331ZM21.3333 20H2.66667V3.99998H21.3333V20Z" fill="#DC241F"/>
</svg>
