<svg width="24" height="24" viewBox="0 0 24 24" fill="none" xmlns="http://www.w3.org/2000/svg">
<path opacity="0.4" d="M18.75 3H15C15.7956 3 16.5587 3.31607 17.1213 3.87868C17.6839 4.44129 18 5.20435 18 6H6C6 5.20435 6.31607 4.44129 6.87868 3.87868C7.44129 3.31607 8.20435 3 9 3H5.25C4.65326 3 4.08097 3.23705 3.65901 3.65901C3.23705 4.08097 3 4.65326 3 5.25V21.75C3 22.3467 3.23705 22.919 3.65901 23.341C4.08097 23.7629 4.65326 24 5.25 24H18.75C19.3467 24 19.919 23.7629 20.341 23.341C20.7629 22.919 21 22.3467 21 21.75V5.25C21 4.65326 20.7629 4.08097 20.341 3.65901C19.919 3.23705 19.3467 3 18.75 3ZM16.5469 16.1719C16.5469 16.2713 16.5074 16.3667 16.437 16.437C16.3667 16.5074 16.2713 16.5469 16.1719 16.5469H13.5469V19.1719C13.5469 19.2713 13.5074 19.3667 13.437 19.437C13.3667 19.5074 13.2713 19.5469 13.1719 19.5469H10.9219C10.8224 19.5469 10.727 19.5074 10.6567 19.437C10.5864 19.3667 10.5469 19.2713 10.5469 19.1719V16.5469H7.92188C7.82242 16.5469 7.72704 16.5074 7.65671 16.437C7.58638 16.3667 7.54688 16.2713 7.54688 16.1719V13.9219C7.54688 13.8224 7.58638 13.727 7.65671 13.6567C7.72704 13.5864 7.82242 13.5469 7.92188 13.5469H10.5469V10.9219C10.5469 10.8224 10.5864 10.727 10.6567 10.6567C10.727 10.5864 10.8224 10.5469 10.9219 10.5469H13.1719C13.2713 10.5469 13.3667 10.5864 13.437 10.6567C13.5074 10.727 13.5469 10.8224 13.5469 10.9219V13.5469H16.1719C16.2713 13.5469 16.3667 13.5864 16.437 13.6567C16.5074 13.727 16.5469 13.8224 16.5469 13.9219V16.1719Z" fill="#DC241F"/>
<path d="M15 3C15 2.20435 14.6839 1.44129 14.1213 0.87868C13.5587 0.316071 12.7956 0 12 0C11.2044 0 10.4413 0.316071 9.87868 0.87868C9.31607 1.44129 9 2.20435 9 3C8.20435 3 7.44129 3.31607 6.87868 3.87868C6.31607 4.44129 6 5.20435 6 6H18C18 5.20435 17.6839 4.44129 17.1213 3.87868C16.5587 3.31607 15.7956 3 15 3ZM12 4.125C11.7775 4.125 11.56 4.05902 11.375 3.9354C11.19 3.81179 11.0458 3.63609 10.9606 3.43052C10.8755 3.22495 10.8532 2.99875 10.8966 2.78052C10.94 2.56229 11.0472 2.36184 11.2045 2.2045C11.3618 2.04717 11.5623 1.94002 11.7805 1.89662C11.9988 1.85321 12.225 1.87549 12.4305 1.96064C12.6361 2.04578 12.8118 2.18998 12.9354 2.37498C13.059 2.55999 13.125 2.7775 13.125 3C13.1254 3.14784 13.0965 3.2943 13.0401 3.43096C12.9837 3.56762 12.9009 3.69178 12.7963 3.79632C12.6918 3.90086 12.5676 3.98372 12.431 4.04012C12.2943 4.09653 12.1478 4.12537 12 4.125ZM16.1719 13.5469H13.5469V10.9219C13.5469 10.8224 13.5074 10.727 13.437 10.6567C13.3667 10.5864 13.2713 10.5469 13.1719 10.5469H10.9219C10.8224 10.5469 10.727 10.5864 10.6567 10.6567C10.5864 10.727 10.5469 10.8224 10.5469 10.9219V13.5469H7.92188C7.82242 13.5469 7.72704 13.5864 7.65671 13.6567C7.58638 13.727 7.54688 13.8224 7.54688 13.9219V16.1719C7.54688 16.2713 7.58638 16.3667 7.65671 16.437C7.72704 16.5074 7.82242 16.5469 7.92188 16.5469H10.5469V19.1719C10.5469 19.2713 10.5864 19.3667 10.6567 19.437C10.727 19.5074 10.8224 19.5469 10.9219 19.5469H13.1719C13.2713 19.5469 13.3667 19.5074 13.437 19.437C13.5074 19.3667 13.5469 19.2713 13.5469 19.1719V16.5469H16.1719C16.2713 16.5469 16.3667 16.5074 16.437 16.437C16.5074 16.3667 16.5469 16.2713 16.5469 16.1719V13.9219C16.5469 13.8224 16.5074 13.727 16.437 13.6567C16.3667 13.5864 16.2713 13.5469 16.1719 13.5469Z" fill="#DC241F"/>
</svg>
