<svg width="24" height="24" viewBox="0 0 24 24" fill="none" xmlns="http://www.w3.org/2000/svg">
<path opacity="0.4" d="M19.1985 2.39716C18.8424 2.39716 18.4942 2.50276 18.1981 2.70061C17.902 2.89846 17.6712 3.17968 17.535 3.50869C17.3987 3.83771 17.363 4.19975 17.4325 4.54903C17.502 4.89831 17.6735 5.21914 17.9253 5.47096C18.1771 5.72278 18.4979 5.89427 18.8472 5.96375C19.1965 6.03322 19.5585 5.99756 19.8875 5.86128C20.2166 5.725 20.4978 5.49421 20.6956 5.19811C20.8935 4.902 20.9991 4.55387 20.9991 4.19775C20.9991 3.7202 20.8094 3.26221 20.4717 2.92454C20.134 2.58686 19.676 2.39716 19.1985 2.39716V2.39716ZM4.79376 2.39716C4.43763 2.39716 4.08951 2.50276 3.7934 2.70061C3.4973 2.89846 3.26651 3.17968 3.13023 3.50869C2.99394 3.83771 2.95829 4.19975 3.02776 4.54903C3.09724 4.89831 3.26873 5.21914 3.52055 5.47096C3.77236 5.72278 4.0932 5.89427 4.44248 5.96375C4.79176 6.03322 5.1538 5.99756 5.48281 5.86128C5.81183 5.725 6.09304 5.49421 6.29089 5.19811C6.48875 4.902 6.59435 4.55387 6.59435 4.19775C6.59435 3.7202 6.40464 3.26221 6.06697 2.92454C5.72929 2.58686 5.2713 2.39716 4.79376 2.39716V2.39716ZM14.9971 7.19874H8.99514C8.83596 7.19874 8.68329 7.26198 8.57073 7.37453C8.45817 7.48709 8.39494 7.63976 8.39494 7.79894V14.2357C8.56862 14.3291 8.81995 14.3839 8.99514 14.3977H14.9971C15.1723 14.3839 15.4229 14.3291 15.5973 14.2364V7.78768C15.5944 7.63046 15.5298 7.48067 15.4176 7.37054C15.3053 7.2604 15.1544 7.19871 14.9971 7.19874Z" fill="#DC241F"/>
<path d="M23.914 19.9561L22.2635 15.8297L20.7221 17.5703L20.647 18.253L21.6858 20.8489C21.7749 21.0714 21.9286 21.2621 22.1271 21.3965C22.3256 21.5309 22.5598 21.6028 22.7995 21.6029C22.9525 21.6037 23.1042 21.5744 23.2459 21.5166C23.5414 21.3982 23.7778 21.1673 23.9031 20.8747C24.0284 20.5821 24.0323 20.2516 23.914 19.9561ZM1.72918 15.8297L0.0786368 19.9561C-0.03343 20.2503 -0.0254471 20.5767 0.100866 20.8651C0.227179 21.1534 0.461711 21.3806 0.753933 21.4977C1.04616 21.6148 1.37268 21.6124 1.66315 21.491C1.95363 21.3697 2.1848 21.1391 2.30687 20.8489L3.34634 18.253L3.27132 17.5703L1.72918 15.8297ZM7.36767 9.7452C7.05531 8.80878 6.41432 8.01721 5.56332 7.51696C5.24738 7.33124 4.89186 7.22318 4.52601 7.20166C4.16015 7.18014 3.79442 7.24577 3.45888 7.39317C3.10877 7.54397 2.79903 7.77499 2.55467 8.06758C2.31031 8.36016 2.13817 8.7061 2.05216 9.07748L1.36194 12.086C1.27644 12.4579 1.28084 12.8449 1.37478 13.2148C1.46873 13.5847 1.6495 13.9269 1.90211 14.2129L4.42295 17.0601L4.80145 20.5338C4.83377 20.8275 4.97331 21.099 5.19334 21.2963C5.41338 21.4935 5.69845 21.6027 5.99396 21.6029C6.0386 21.6029 6.07987 21.5991 6.12526 21.5954C6.28198 21.5783 6.43379 21.5305 6.57201 21.4547C6.71022 21.3789 6.83211 21.2766 6.9307 21.1535C7.02928 21.0305 7.10262 20.8893 7.14651 20.7379C7.19041 20.5864 7.20399 20.4279 7.18648 20.2712L6.80761 16.79C6.75132 16.3029 6.54723 15.8448 6.22279 15.4771L4.59813 13.639L5.25872 11.0019L5.51343 11.7671C5.66723 12.236 5.9602 12.6449 6.43248 12.99L8.34937 14.2092C8.36362 14.2182 8.37862 14.2264 8.394 14.2347V11.3995L7.79156 11.0169L7.36767 9.7452ZM22.6315 12.086L21.9367 9.07748C21.8507 8.7061 21.6786 8.36016 21.4342 8.06758C21.1899 7.77499 20.8801 7.54397 20.53 7.39317C20.1945 7.24571 19.8287 7.18004 19.4629 7.20157C19.097 7.22309 18.7415 7.33118 18.4256 7.51696C17.5759 8.01888 16.9353 8.80983 16.6208 9.7452L16.1973 11.0169L15.5971 11.3995V14.2354C15.6129 14.2268 15.6283 14.2182 15.6425 14.2092L17.5594 12.99C18.0324 12.6449 18.3247 12.2398 18.4785 11.7671L18.7339 11.0019L19.3938 13.639L17.7698 15.4771C17.4448 15.8445 17.2405 16.3028 17.1843 16.79L16.8054 20.2712C16.7707 20.5876 16.863 20.9049 17.0622 21.1532C17.2613 21.4015 17.551 21.5606 17.8674 21.5954C17.912 21.5991 17.9533 21.6029 17.9987 21.6029C18.2942 21.6027 18.5793 21.4935 18.7993 21.2963C19.0193 21.099 19.1589 20.8275 19.1912 20.5338L19.5704 17.0601L22.0909 14.2129C22.3425 13.9263 22.5227 13.5841 22.6166 13.2144C22.7106 12.8447 22.7157 12.458 22.6315 12.086Z" fill="#DC241F"/>
</svg>
