<svg width="22" height="22" viewBox="0 0 22 22" fill="none" xmlns="http://www.w3.org/2000/svg">
<path opacity="0.4" d="M14.9155 21.1754C14.5055 13.5836 8.4247 7.49494 0.824554 7.08441C0.718199 7.07916 0.611885 7.09557 0.512069 7.13267C0.412254 7.16976 0.32102 7.22676 0.243909 7.30019C0.166798 7.37363 0.105419 7.46197 0.063501 7.55986C0.0215828 7.65775 -8.45466e-09 7.76313 6.3318e-05 7.86962V10.2301C-0.000416756 10.4294 0.0748384 10.6214 0.210594 10.7673C0.346349 10.9132 0.532461 11.002 0.731253 11.0158C6.22278 11.3733 10.6247 15.7644 10.9831 21.2677C10.9969 21.4665 11.0858 21.6526 11.2317 21.7884C11.3775 21.9241 11.5696 21.9994 11.7688 21.9989H14.1294C14.2359 21.999 14.3413 21.9775 14.4393 21.9356C14.5372 21.8937 14.6256 21.8323 14.6991 21.7552C14.7726 21.6781 14.8296 21.5868 14.8668 21.487C14.9039 21.3871 14.9203 21.2808 14.915 21.1744L14.9155 21.1754ZM0.810313 0.000383761C0.705087 -0.00290619 0.600272 0.0149848 0.502094 0.052994C0.403917 0.0910033 0.31438 0.148356 0.238801 0.221645C0.163221 0.294933 0.103142 0.382664 0.0621302 0.479625C0.0211188 0.576587 1.18997e-05 0.680802 6.3318e-05 0.78608V3.1471C-5.71159e-05 3.35088 0.0790038 3.54674 0.220559 3.69333C0.362114 3.83993 0.555089 3.92579 0.758752 3.93279C10.1468 4.31778 17.6822 11.8546 18.0672 21.2412C18.0742 21.4448 18.16 21.6378 18.3066 21.7794C18.4532 21.9209 18.6491 22 18.8529 21.9999H21.2139C21.3192 21.9999 21.4234 21.9788 21.5203 21.9378C21.6173 21.8968 21.705 21.8367 21.7783 21.7611C21.8516 21.6856 21.909 21.596 21.947 21.4978C21.985 21.3997 22.0029 21.2948 21.9996 21.1896C21.5871 9.70766 12.3483 0.415329 0.810313 0.000383761Z" fill="#DC241F"/>
<path d="M0.00012207 18.8576C0.00012207 18.236 0.184443 17.6284 0.529777 17.1116C0.87511 16.5948 1.36595 16.1919 1.94021 15.9541C2.51448 15.7162 3.14639 15.654 3.75603 15.7752C4.36567 15.8965 4.92566 16.1958 5.36519 16.6353C5.80472 17.0749 6.10404 17.6349 6.2253 18.2445C6.34657 18.8541 6.28433 19.4861 6.04646 20.0603C5.80859 20.6346 5.40577 21.1254 4.88894 21.4708C4.37211 21.8161 3.76449 22.0004 3.14291 22.0004C2.30939 22.0004 1.51001 21.6693 0.920622 21.0799C0.331236 20.4905 0.00012207 19.6911 0.00012207 18.8576Z" fill="#DC241F"/>
</svg>
