<svg width="20" height="18" viewBox="0 0 20 18" fill="none" xmlns="http://www.w3.org/2000/svg">
<path opacity="0.4" d="M13.8889 3.44446H0.555556C0.408213 3.44446 0.266905 3.50299 0.162718 3.60718C0.0585316 3.71136 0 3.85267 0 4.00001L0 8.77085C0.000252378 8.91809 0.0589495 9.05922 0.163194 9.16321L1.11111 10.1111V16.2222C1.11111 16.6643 1.28671 17.0882 1.59927 17.4007C1.91183 17.7133 2.33575 17.8889 2.77778 17.8889H11.6667C12.1087 17.8889 12.5326 17.7133 12.8452 17.4007C13.1577 17.0882 13.3333 16.6643 13.3333 16.2222V10.1111L14.2812 9.16321C14.3855 9.05922 14.4442 8.91809 14.4444 8.77085V4.00001C14.4444 3.85267 14.3859 3.71136 14.2817 3.60718C14.1775 3.50299 14.0362 3.44446 13.8889 3.44446ZM6.66667 15.3889C6.66667 15.4626 6.6374 15.5332 6.58531 15.5853C6.53321 15.6374 6.46256 15.6667 6.38889 15.6667H3.61111C3.53744 15.6667 3.46679 15.6374 3.41469 15.5853C3.3626 15.5332 3.33333 15.4626 3.33333 15.3889V13.7222C3.33333 13.6486 3.3626 13.5779 3.41469 13.5258C3.46679 13.4737 3.53744 13.4445 3.61111 13.4445H6.38889C6.46256 13.4445 6.53321 13.4737 6.58531 13.5258C6.6374 13.5779 6.66667 13.6486 6.66667 13.7222V15.3889ZM6.66667 12.0556C6.66667 12.1292 6.6374 12.1999 6.58531 12.252C6.53321 12.3041 6.46256 12.3333 6.38889 12.3333H3.61111C3.53744 12.3333 3.46679 12.3041 3.41469 12.252C3.3626 12.1999 3.33333 12.1292 3.33333 12.0556V10.3889C3.33333 10.3152 3.3626 10.2446 3.41469 10.1925C3.46679 10.1404 3.53744 10.1111 3.61111 10.1111H6.38889C6.46256 10.1111 6.53321 10.1404 6.58531 10.1925C6.6374 10.2446 6.66667 10.3152 6.66667 10.3889V12.0556ZM11.1111 15.3889C11.1111 15.4626 11.0818 15.5332 11.0298 15.5853C10.9777 15.6374 10.907 15.6667 10.8333 15.6667H8.05556C7.98188 15.6667 7.91123 15.6374 7.85914 15.5853C7.80704 15.5332 7.77778 15.4626 7.77778 15.3889V13.7222C7.77778 13.6486 7.80704 13.5779 7.85914 13.5258C7.91123 13.4737 7.98188 13.4445 8.05556 13.4445H10.8333C10.907 13.4445 10.9777 13.4737 11.0298 13.5258C11.0818 13.5779 11.1111 13.6486 11.1111 13.7222V15.3889ZM11.1111 12.0556C11.1111 12.1292 11.0818 12.1999 11.0298 12.252C10.9777 12.3041 10.907 12.3333 10.8333 12.3333H8.05556C7.98188 12.3333 7.91123 12.3041 7.85914 12.252C7.80704 12.1999 7.77778 12.1292 7.77778 12.0556V10.3889C7.77778 10.3152 7.80704 10.2446 7.85914 10.1925C7.91123 10.1404 7.98188 10.1111 8.05556 10.1111H10.8333C10.907 10.1111 10.9777 10.1404 11.0298 10.1925C11.0818 10.2446 11.1111 10.3152 11.1111 10.3889V12.0556ZM12.2222 7.61112C12.2222 7.6848 12.193 7.75545 12.1409 7.80754C12.0888 7.85964 12.0181 7.8889 11.9444 7.8889H2.5C2.42633 7.8889 2.35567 7.85964 2.30358 7.80754C2.25149 7.75545 2.22222 7.6848 2.22222 7.61112V5.94446C2.22222 5.87079 2.25149 5.80013 2.30358 5.74804C2.35567 5.69595 2.42633 5.66668 2.5 5.66668H11.9444C12.0181 5.66668 12.0888 5.69595 12.1409 5.74804C12.193 5.80013 12.2222 5.87079 12.2222 5.94446V7.61112Z" fill="#DC241F"/>
<path d="M19.7222 0.111084H18.0556C17.9819 0.111084 17.9112 0.14035 17.8591 0.192443C17.8071 0.244537 17.7778 0.315191 17.7778 0.388862V9.83331C17.7778 9.90698 17.8071 9.97763 17.8591 10.0297C17.9112 10.0818 17.9819 10.1111 18.0556 10.1111H19.7222C19.7959 10.1111 19.8666 10.0818 19.9186 10.0297C19.9707 9.97763 20 9.90698 20 9.83331V0.388862C20 0.315191 19.9707 0.244537 19.9186 0.192443C19.8666 0.14035 19.7959 0.111084 19.7222 0.111084V0.111084ZM11.1111 0.388862C11.1111 0.315191 11.0819 0.244537 11.0298 0.192443C10.9777 0.14035 10.907 0.111084 10.8333 0.111084L10.2778 0.111084C10.2041 0.111084 10.1335 0.14035 10.0814 0.192443C10.0293 0.244537 10 0.315191 10 0.388862V2.33331H11.1111V0.388862ZM8.8889 0.388862C8.8889 0.315191 8.85963 0.244537 8.80754 0.192443C8.75544 0.14035 8.68479 0.111084 8.61112 0.111084L6.94445 0.111084C6.87078 0.111084 6.80013 0.14035 6.74803 0.192443C6.69594 0.244537 6.66667 0.315191 6.66667 0.388862V2.33331H8.8889V0.388862ZM14.1667 0.111084H12.5C12.4263 0.111084 12.3557 0.14035 12.3036 0.192443C12.2515 0.244537 12.2222 0.315191 12.2222 0.388862V2.33331H14.4445V0.388862C14.4445 0.315191 14.4152 0.244537 14.3631 0.192443C14.311 0.14035 14.2403 0.111084 14.1667 0.111084V0.111084ZM16.3889 0.111084H15.8333C15.7597 0.111084 15.689 0.14035 15.6369 0.192443C15.5848 0.244537 15.5556 0.315191 15.5556 0.388862V9.83331C15.5556 9.90698 15.5848 9.97763 15.6369 10.0297C15.689 10.0818 15.7597 10.1111 15.8333 10.1111H16.3889C16.4626 10.1111 16.5332 10.0818 16.5853 10.0297C16.6374 9.97763 16.6667 9.90698 16.6667 9.83331V0.388862C16.6667 0.315191 16.6374 0.244537 16.5853 0.192443C16.5332 0.14035 16.4626 0.111084 16.3889 0.111084V0.111084ZM11.9445 5.66664H2.50001C2.42634 5.66664 2.35568 5.69591 2.30359 5.748C2.25149 5.80009 2.22223 5.87075 2.22223 5.94442V7.61108C2.22223 7.68476 2.25149 7.75541 2.30359 7.8075C2.35568 7.8596 2.42634 7.88886 2.50001 7.88886H11.9445C12.0181 7.88886 12.0888 7.8596 12.1409 7.8075C12.193 7.75541 12.2222 7.68476 12.2222 7.61108V5.94442C12.2222 5.87075 12.193 5.80009 12.1409 5.748C12.0888 5.69591 12.0181 5.66664 11.9445 5.66664Z" fill="#DC241F"/>
</svg>
