<svg width="24" height="24" viewBox="0 0 24 24" fill="none" xmlns="http://www.w3.org/2000/svg">
<path opacity="0.4" d="M20.3998 6.00002V16.8H11.3998C11.2407 16.8 11.0881 16.8632 10.9755 16.9758C10.863 17.0883 10.7998 17.2409 10.7998 17.4V18.6C10.7998 19.3957 10.4837 20.1587 9.92113 20.7213C9.35852 21.284 8.59545 21.6 7.7998 21.6C7.00416 21.6 6.24109 21.284 5.67848 20.7213C5.11588 20.1587 4.7998 19.3957 4.7998 18.6V4.83752C4.7998 4.19106 4.543 3.57107 4.08588 3.11395C3.62876 2.65683 3.00877 2.40002 2.3623 2.40002H16.7998C17.7543 2.40102 18.6694 2.78062 19.3443 3.45554C20.0192 4.13045 20.3988 5.04555 20.3998 6.00002Z" fill="#DC241F"/>
<path d="M2.4 2.40002C1.76348 2.40002 1.15303 2.65288 0.702944 3.10297C0.252856 3.55306 0 4.1635 0 4.80002L0 6.60002C0 6.75915 0.0632141 6.91177 0.175736 7.02429C0.288258 7.13681 0.44087 7.20002 0.6 7.20002H4.8V4.83752C4.80008 4.1975 4.54842 3.58313 4.09938 3.12708C3.65034 2.67102 3.03994 2.40987 2.4 2.40002V2.40002ZM7.2 21.6H7.8C7.70288 21.6 7.60725 21.5951 7.51275 21.5862C7.40963 21.5951 7.30538 21.6 7.2 21.6ZM23.4 16.8H11.4C11.2409 16.8 11.0883 16.8632 10.9757 16.9758C10.8632 17.0883 10.8 17.2409 10.8 17.4V18.6C10.8 19.3957 10.4839 20.1587 9.92132 20.7213C9.35871 21.284 8.59565 21.6 7.8 21.6H19.8C20.3517 21.6 20.8981 21.4913 21.4078 21.2801C21.9175 21.0689 22.3806 20.7593 22.7706 20.3691C23.1607 19.9788 23.47 19.5156 23.6809 19.0057C23.8919 18.4959 24.0003 17.9495 24 17.3978C23.9994 17.239 23.9359 17.087 23.8235 16.975C23.711 16.8629 23.5587 16.8 23.4 16.8Z" fill="#DC241F"/>
</svg>
