<svg width="24" height="24" viewBox="0 0 24 24" fill="none" xmlns="http://www.w3.org/2000/svg">
<path opacity="0.4" d="M20.25 5.625C20.4725 5.625 20.69 5.55902 20.875 5.4354C21.06 5.31179 21.2042 5.13609 21.2894 4.93052C21.3745 4.72495 21.3968 4.49875 21.3534 4.28052C21.31 4.0623 21.2028 3.86184 21.0455 3.70451C20.8882 3.54717 20.6877 3.44003 20.4695 3.39662C20.2512 3.35321 20.025 3.37549 19.8195 3.46064C19.6139 3.54578 19.4382 3.68998 19.3146 3.87498C19.191 4.05999 19.125 4.2775 19.125 4.5C19.125 4.79837 19.2435 5.08452 19.4545 5.2955C19.6655 5.50647 19.9516 5.625 20.25 5.625ZM20.25 18.375C20.0275 18.375 19.81 18.441 19.625 18.5646C19.44 18.6882 19.2958 18.8639 19.2106 19.0695C19.1255 19.275 19.1032 19.5012 19.1466 19.7195C19.19 19.9377 19.2972 20.1382 19.4545 20.2955C19.6118 20.4528 19.8123 20.56 20.0305 20.6034C20.2488 20.6468 20.475 20.6245 20.6805 20.5394C20.8861 20.4542 21.0618 20.31 21.1854 20.125C21.309 19.94 21.375 19.7225 21.375 19.5C21.375 19.2016 21.2565 18.9155 21.0455 18.7045C20.8345 18.4935 20.5484 18.375 20.25 18.375ZM22.5 9H1.5C1.10218 9 0.720644 9.15804 0.43934 9.43934C0.158035 9.72065 0 10.1022 0 10.5L0 13.5C0 13.8978 0.158035 14.2794 0.43934 14.5607C0.720644 14.842 1.10218 15 1.5 15H22.5C22.8978 15 23.2794 14.842 23.5607 14.5607C23.842 14.2794 24 13.8978 24 13.5V10.5C24 10.1022 23.842 9.72065 23.5607 9.43934C23.2794 9.15804 22.8978 9 22.5 9ZM17.25 13.125C17.0275 13.125 16.81 13.059 16.625 12.9354C16.44 12.8118 16.2958 12.6361 16.2106 12.4305C16.1255 12.225 16.1032 11.9988 16.1466 11.7805C16.19 11.5623 16.2972 11.3618 16.4545 11.2045C16.6118 11.0472 16.8123 10.94 17.0305 10.8966C17.2488 10.8532 17.475 10.8755 17.6805 10.9606C17.8861 11.0458 18.0618 11.19 18.1854 11.375C18.309 11.56 18.375 11.7775 18.375 12C18.375 12.2984 18.2565 12.5845 18.0455 12.7955C17.8345 13.0065 17.5484 13.125 17.25 13.125ZM20.25 13.125C20.0275 13.125 19.81 13.059 19.625 12.9354C19.44 12.8118 19.2958 12.6361 19.2106 12.4305C19.1255 12.225 19.1032 11.9988 19.1466 11.7805C19.19 11.5623 19.2972 11.3618 19.4545 11.2045C19.6118 11.0472 19.8123 10.94 20.0305 10.8966C20.2488 10.8532 20.475 10.8755 20.6805 10.9606C20.8861 11.0458 21.0618 11.19 21.1854 11.375C21.309 11.56 21.375 11.7775 21.375 12C21.375 12.2984 21.2565 12.5845 21.0455 12.7955C20.8345 13.0065 20.5484 13.125 20.25 13.125Z" fill="#DC241F"/>
<path d="M21.375 12C21.375 11.7775 21.309 11.56 21.1854 11.375C21.0618 11.19 20.8861 11.0458 20.6805 10.9606C20.475 10.8755 20.2488 10.8532 20.0305 10.8966C19.8123 10.94 19.6118 11.0472 19.4545 11.2045C19.2972 11.3618 19.19 11.5623 19.1466 11.7805C19.1032 11.9988 19.1255 12.225 19.2106 12.4305C19.2958 12.6361 19.44 12.8118 19.625 12.9354C19.81 13.059 20.0275 13.125 20.25 13.125C20.5484 13.125 20.8345 13.0065 21.0455 12.7955C21.2565 12.5845 21.375 12.2984 21.375 12ZM22.5 1.5H1.5C1.10218 1.5 0.720644 1.65804 0.43934 1.93934C0.158035 2.22064 0 2.60218 0 3L0 6C0 6.39782 0.158035 6.77936 0.43934 7.06066C0.720644 7.34196 1.10218 7.5 1.5 7.5H22.5C22.8978 7.5 23.2794 7.34196 23.5607 7.06066C23.842 6.77936 24 6.39782 24 6V3C24 2.60218 23.842 2.22064 23.5607 1.93934C23.2794 1.65804 22.8978 1.5 22.5 1.5ZM17.25 5.625C17.0275 5.625 16.81 5.55902 16.625 5.4354C16.44 5.31179 16.2958 5.13609 16.2106 4.93052C16.1255 4.72495 16.1032 4.49875 16.1466 4.28052C16.19 4.06229 16.2972 3.86184 16.4545 3.7045C16.6118 3.54717 16.8123 3.44002 17.0305 3.39662C17.2488 3.35321 17.475 3.37549 17.6805 3.46064C17.8861 3.54578 18.0618 3.68998 18.1854 3.87498C18.309 4.05999 18.375 4.2775 18.375 4.5C18.375 4.79837 18.2565 5.08452 18.0455 5.2955C17.8345 5.50647 17.5484 5.625 17.25 5.625ZM20.25 5.625C20.0275 5.625 19.81 5.55902 19.625 5.4354C19.44 5.31179 19.2958 5.13609 19.2106 4.93052C19.1255 4.72495 19.1032 4.49875 19.1466 4.28052C19.19 4.06229 19.2972 3.86184 19.4545 3.7045C19.6118 3.54717 19.8123 3.44002 20.0305 3.39662C20.2488 3.35321 20.475 3.37549 20.6805 3.46064C20.8861 3.54578 21.0618 3.68998 21.1854 3.87498C21.309 4.05999 21.375 4.2775 21.375 4.5C21.375 4.79837 21.2565 5.08452 21.0455 5.2955C20.8345 5.50647 20.5484 5.625 20.25 5.625ZM22.5 16.5H1.5C1.10218 16.5 0.720644 16.658 0.43934 16.9393C0.158035 17.2206 0 17.6022 0 18L0 21C0 21.3978 0.158035 21.7794 0.43934 22.0607C0.720644 22.342 1.10218 22.5 1.5 22.5H22.5C22.8978 22.5 23.2794 22.342 23.5607 22.0607C23.842 21.7794 24 21.3978 24 21V18C24 17.6022 23.842 17.2206 23.5607 16.9393C23.2794 16.658 22.8978 16.5 22.5 16.5ZM17.25 20.625C17.0275 20.625 16.81 20.559 16.625 20.4354C16.44 20.3118 16.2958 20.1361 16.2106 19.9305C16.1255 19.725 16.1032 19.4988 16.1466 19.2805C16.19 19.0623 16.2972 18.8618 16.4545 18.7045C16.6118 18.5472 16.8123 18.44 17.0305 18.3966C17.2488 18.3532 17.475 18.3755 17.6805 18.4606C17.8861 18.5458 18.0618 18.69 18.1854 18.875C18.309 19.06 18.375 19.2775 18.375 19.5C18.375 19.7984 18.2565 20.0845 18.0455 20.2955C17.8345 20.5065 17.5484 20.625 17.25 20.625ZM20.25 20.625C20.0275 20.625 19.81 20.559 19.625 20.4354C19.44 20.3118 19.2958 20.1361 19.2106 19.9305C19.1255 19.725 19.1032 19.4988 19.1466 19.2805C19.19 19.0623 19.2972 18.8618 19.4545 18.7045C19.6118 18.5472 19.8123 18.44 20.0305 18.3966C20.2488 18.3532 20.475 18.3755 20.6805 18.4606C20.8861 18.5458 21.0618 18.69 21.1854 18.875C21.309 19.06 21.375 19.2775 21.375 19.5C21.375 19.7984 21.2565 20.0845 21.0455 20.2955C20.8345 20.5065 20.5484 20.625 20.25 20.625Z" fill="#DC241F"/>
</svg>
