<svg width="20" height="16" viewBox="0 0 20 16" fill="none" xmlns="http://www.w3.org/2000/svg">
<path opacity="0.4" d="M15.9997 11.3748V0.999875C15.9997 0.734659 16.1051 0.480306 16.2926 0.29277C16.4802 0.105234 16.7345 -0.00012207 16.9997 -0.00012207L17.9997 -0.00012207C18.265 -0.00012207 18.5193 0.105234 18.7068 0.29277C18.8944 0.480306 18.9997 0.734659 18.9997 0.999875V13.6917L15.9997 11.3748ZM13.9998 9.82891V4.99986C13.9998 4.73465 13.8944 4.48029 13.7069 4.29276C13.5193 4.10522 13.265 3.99987 12.9998 3.99987H11.9998C11.7345 3.99987 11.4802 4.10522 11.2927 4.29276C11.1051 4.48029 10.9998 4.73465 10.9998 4.99986V7.50861L13.9998 9.82891ZM2.99979 11.9998H1.99979C1.73458 11.9998 1.48022 12.1052 1.29269 12.2927C1.10515 12.4803 0.999794 12.7346 0.999794 12.9998V14.9998C0.999794 15.2651 1.10515 15.5194 1.29269 15.7069C1.48022 15.8945 1.73458 15.9998 1.99979 15.9998H2.99979C3.265 15.9998 3.51936 15.8945 3.70689 15.7069C3.89443 15.5194 3.99978 15.2651 3.99978 14.9998V12.9998C3.99978 12.7346 3.89443 12.4803 3.70689 12.2927C3.51936 12.1052 3.265 11.9998 2.99979 11.9998ZM5.99978 8.99985V14.9998C5.99978 15.2651 6.10514 15.5194 6.29267 15.7069C6.48021 15.8945 6.73456 15.9998 6.99978 15.9998H7.99977C8.26499 15.9998 8.51934 15.8945 8.70688 15.7069C8.89441 15.5194 8.99977 15.2651 8.99977 14.9998V11.0186L6.05197 8.74048C6.02884 8.82517 5.99978 8.90798 5.99978 8.99985ZM10.9998 14.9998C10.9998 15.2651 11.1051 15.5194 11.2927 15.7069C11.4802 15.8945 11.7345 15.9998 11.9998 15.9998H12.9998C13.265 15.9998 13.5193 15.8945 13.7069 15.7069C13.8944 15.5194 13.9998 15.2651 13.9998 14.9998V14.8833L10.9998 12.5645V14.9998Z" fill="#DC241F"/>
<path d="M19.8949 15.0173L19.2811 15.8069C19.2408 15.8588 19.1907 15.9022 19.1336 15.9347C19.0765 15.9672 19.0136 15.9881 18.9484 15.9963C18.8832 16.0044 18.8171 15.9997 18.7537 15.9822C18.6904 15.9648 18.6311 15.9351 18.5793 15.8948L0.193057 1.68448C0.0883907 1.60309 0.0203406 1.48345 0.00387315 1.35189C-0.0125943 1.22032 0.0238694 1.0876 0.105245 0.982921L0.71868 0.193236C0.758989 0.141321 0.809138 0.0978632 0.866258 0.0653479C0.923378 0.0328327 0.986348 0.0118983 1.05157 0.0037424C1.11678 -0.00441351 1.18297 0.0003691 1.24634 0.0178166C1.30971 0.0352641 1.36901 0.0650342 1.42087 0.105424L19.8067 14.3157C19.9115 14.397 19.9796 14.5167 19.9961 14.6482C20.0126 14.7798 19.9762 14.9125 19.8949 15.0173Z" fill="#DC241F"/>
</svg>
