<svg width="24" height="24" viewBox="0 0 24 24" fill="none" xmlns="http://www.w3.org/2000/svg">
<path opacity="0.4" d="M21.3389 13.2004C21.5553 13.1713 21.7691 13.1244 21.9778 13.0601V20.728C21.9778 21.0586 21.8465 21.3758 21.6127 21.6096C21.3788 21.8434 21.0617 21.9748 20.731 21.9748H3.2723C2.94163 21.9748 2.6245 21.8434 2.39068 21.6096C2.15686 21.3758 2.0255 21.0586 2.0255 20.728V13.0601C2.23513 13.1211 2.4486 13.1679 2.66448 13.2004C2.89696 13.2315 3.13126 13.2472 3.36581 13.2472C3.75341 13.241 4.13909 13.1914 4.5156 13.0991V16.9876H19.4807V13.0991C19.8569 13.1933 20.2428 13.243 20.6305 13.2472C20.8674 13.2471 21.104 13.2315 21.3389 13.2004V13.2004Z" fill="#DC241F"/>
<path d="M23.4552 6.64617C24.7643 8.73457 23.6033 11.6334 21.1564 11.9607C20.9795 11.9842 20.8011 11.9959 20.6226 11.9957C20.0795 11.9952 19.5426 11.88 19.0471 11.6578C18.5515 11.4355 18.1085 11.1112 17.7468 10.7061C17.0677 11.4683 16.1137 11.9296 15.0945 11.9886C14.0754 12.0476 13.0745 11.6996 12.3119 11.0209C12.2008 10.9223 12.0957 10.8172 11.9971 10.7061C11.317 11.4687 10.3618 11.9299 9.34165 11.9884C8.32149 12.0468 7.31989 11.6977 6.55712 11.0178C6.44727 10.92 6.3432 10.8159 6.24542 10.7061C5.88428 11.1119 5.44129 11.4366 4.94562 11.6589C4.44995 11.8812 3.91283 11.996 3.36959 11.9957C3.19109 11.9957 3.01278 11.984 2.83581 11.9607C0.394021 11.6295 -0.763168 8.73067 0.545196 6.64617L3.07114 2.60965C3.18352 2.43043 3.33966 2.28274 3.52485 2.1805C3.71005 2.07826 3.91821 2.02482 4.12975 2.02521H19.8706C20.0815 2.02548 20.2889 2.07923 20.4733 2.18145C20.6578 2.28366 20.8133 2.43098 20.9254 2.60965L23.4552 6.64617Z" fill="#DC241F"/>
</svg>
