<svg width="24" height="24" viewBox="0 0 24 24" fill="none" xmlns="http://www.w3.org/2000/svg">
<path opacity="0.4" d="M0 21.5836V15.0968C0 14.7888 0.12235 14.4934 0.340134 14.2756C0.557918 14.0578 0.853297 13.9355 1.16129 13.9355H7.64807C8.68258 13.9355 9.20081 15.1863 8.47065 15.9194L6.45048 17.9395C7.95479 19.3531 9.9435 20.1366 12.0077 20.129C15.7534 20.1257 18.9905 17.5578 19.8842 13.9911C19.9151 13.8649 19.9874 13.7527 20.0896 13.6724C20.1918 13.5921 20.318 13.5485 20.4479 13.5484H23.221C23.3062 13.5483 23.3904 13.567 23.4676 13.6032C23.5448 13.6393 23.6131 13.692 23.6676 13.7574C23.7221 13.8229 23.7616 13.8996 23.7832 13.9821C23.8047 14.0645 23.8079 14.1507 23.7924 14.2345C22.7453 19.7942 17.864 24 12 24C8.91139 24.0041 5.94097 22.8131 3.71081 20.6763L1.98387 22.4032C1.25081 23.1363 0 22.6181 0 21.5836Z" fill="#DC241F"/>
<path d="M0.207904 9.7655C1.25452 4.20582 6.13581 1.07321e-05 11.9998 1.07321e-05C15.0884 -0.00412453 18.0589 1.18692 20.289 3.32372L22.016 1.59678C22.7476 0.865172 23.9998 1.3834 23.9998 2.41937V8.90324C23.9998 9.21123 23.8775 9.50661 23.6597 9.72439C23.4419 9.94218 23.1465 10.0645 22.8386 10.0645H16.3518C15.3173 10.0645 14.799 8.81372 15.5292 8.08066L17.5494 6.06049C16.0452 4.64695 14.0567 3.86341 11.9926 3.87098C8.24452 3.87437 5.00887 6.44421 4.11565 10.0089C4.08478 10.1351 4.01246 10.2474 3.91026 10.3276C3.80806 10.4079 3.68189 10.4516 3.55194 10.4516H0.778872C0.693686 10.4516 0.609544 10.4329 0.532414 10.3967C0.455284 10.3606 0.387055 10.3079 0.332566 10.2424C0.278076 10.1769 0.238662 10.1002 0.217118 10.0178C0.195574 9.93541 0.192429 9.84926 0.207904 9.7655Z" fill="#DC241F"/>
</svg>
