<svg width="24" height="24" viewBox="0 0 24 24" fill="none" xmlns="http://www.w3.org/2000/svg">
<path opacity="0.4" d="M13.5 7.5V12H21V7.5H13.5ZM13.5 19.5H21V15H13.5V19.5ZM3 12H10.5V7.5H3V12ZM3 19.5H10.5V15H3V19.5Z" fill="#DC241F"/>
<path d="M21.75 1.5H2.25C1.65326 1.5 1.08097 1.73705 0.65901 2.15901C0.237053 2.58097 0 3.15326 0 3.75L0 20.25C0 20.8467 0.237053 21.419 0.65901 21.841C1.08097 22.2629 1.65326 22.5 2.25 22.5H21.75C22.3467 22.5 22.919 22.2629 23.341 21.841C23.7629 21.419 24 20.8467 24 20.25V3.75C24 3.15326 23.7629 2.58097 23.341 2.15901C22.919 1.73705 22.3467 1.5 21.75 1.5ZM10.5 19.5H3V15H10.5V19.5ZM10.5 12H3V7.5H10.5V12ZM21 19.5H13.5V15H21V19.5ZM21 12H13.5V7.5H21V12Z" fill="#DC241F"/>
</svg>
