<svg width="24" height="24" viewBox="0 0 24 24" fill="none" xmlns="http://www.w3.org/2000/svg">
<path opacity="0.4" d="M23.3409 10.591L13.4091 0.659123C12.9871 0.23716 12.4149 8.90193e-05 11.8181 6.10352e-05L2.25 6.10352e-05C1.65326 6.10352e-05 1.08097 0.237114 0.65901 0.659071C0.237053 1.08103 0 1.65332 0 2.25006L0 11.8182C2.79841e-05 12.4149 0.237099 12.9872 0.659062 13.4091L10.5909 23.341C11.0129 23.7629 11.5852 24 12.1819 24C12.7786 24 13.3509 23.7629 13.7728 23.341L23.3409 13.7729C23.7629 13.3509 23.9999 12.7786 23.9999 12.1819C23.9999 11.5852 23.7629 11.0129 23.3409 10.591ZM5.25 7.50006C4.80499 7.50006 4.36998 7.3681 3.99997 7.12087C3.62996 6.87363 3.34157 6.52223 3.17127 6.1111C3.00097 5.69996 2.95642 5.24756 3.04323 4.81111C3.13005 4.37465 3.34434 3.97374 3.65901 3.65907C3.97368 3.3444 4.37459 3.13011 4.81105 3.04329C5.2475 2.95648 5.6999 3.00103 6.11104 3.17133C6.52217 3.34163 6.87357 3.63002 7.12081 4.00003C7.36804 4.37004 7.5 4.80505 7.5 5.25006C7.5 5.8468 7.26295 6.41909 6.84099 6.84105C6.41903 7.26301 5.84674 7.50006 5.25 7.50006Z" fill="#DC241F"/>
</svg>
