<svg width="24" height="24" viewBox="0 0 24 24" fill="none" xmlns="http://www.w3.org/2000/svg">
<g clip-path="url(#clip0)">
<path opacity="0.4" d="M23.2505 18.3758H9.75049C9.55158 18.3758 9.36081 18.4548 9.22016 18.5955C9.07951 18.7361 9.00049 18.9269 9.00049 19.1258V20.6258C9.00049 20.8247 9.07951 21.0155 9.22016 21.1561C9.36081 21.2968 9.55158 21.3758 9.75049 21.3758H23.2505C23.4494 21.3758 23.6402 21.2968 23.7808 21.1561C23.9215 21.0155 24.0005 20.8247 24.0005 20.6258V19.1258C24.0005 18.9269 23.9215 18.7361 23.7808 18.5955C23.6402 18.4548 23.4494 18.3758 23.2505 18.3758ZM23.2505 3.37579H9.75049C9.55158 3.37579 9.36081 3.45481 9.22016 3.59546C9.07951 3.73612 9.00049 3.92688 9.00049 4.12579V5.62579C9.00049 5.82471 9.07951 6.01547 9.22016 6.15612C9.36081 6.29678 9.55158 6.37579 9.75049 6.37579H23.2505C23.4494 6.37579 23.6402 6.29678 23.7808 6.15612C23.9215 6.01547 24.0005 5.82471 24.0005 5.62579V4.12579C24.0005 3.92688 23.9215 3.73612 23.7808 3.59546C23.6402 3.45481 23.4494 3.37579 23.2505 3.37579ZM23.2505 10.8758H9.75049C9.55158 10.8758 9.36081 10.9548 9.22016 11.0955C9.07951 11.2361 9.00049 11.4269 9.00049 11.6258V13.1258C9.00049 13.3247 9.07951 13.5155 9.22016 13.6561C9.36081 13.7968 9.55158 13.8758 9.75049 13.8758H23.2505C23.4494 13.8758 23.6402 13.7968 23.7808 13.6561C23.9215 13.5155 24.0005 13.3247 24.0005 13.1258V11.6258C24.0005 11.4269 23.9215 11.2361 23.7808 11.0955C23.6402 10.9548 23.4494 10.8758 23.2505 10.8758Z" fill="#DC241F"/>
<path d="M6.54419 2.03977C6.49194 1.98733 6.42984 1.94572 6.36147 1.91733C6.29309 1.88894 6.21979 1.87433 6.14576 1.87433C6.07172 1.87433 5.99842 1.88894 5.93005 1.91733C5.86167 1.94572 5.79958 1.98733 5.74732 2.03977L2.76232 5.00743L1.69826 3.97055C1.646 3.91811 1.5839 3.87651 1.51553 3.84811C1.44716 3.81972 1.37385 3.80511 1.29982 3.80511C1.22579 3.80511 1.15248 3.81972 1.08411 3.84811C1.01574 3.87651 0.953639 3.91811 0.901381 3.97055L0.165444 4.70743C0.113004 4.75969 0.0713953 4.82178 0.0430048 4.89016C0.0146143 4.95853 0 5.03183 0 5.10587C0 5.1799 0.0146143 5.2532 0.0430048 5.32158C0.0713953 5.38995 0.113004 5.45205 0.165444 5.5043L2.39622 7.72618C2.50757 7.83202 2.65533 7.89104 2.80896 7.89104C2.96259 7.89104 3.11035 7.83202 3.22169 7.72618L3.95248 6.99399L7.33685 3.61008C7.4423 3.50455 7.50188 3.3617 7.50267 3.21251C7.50346 3.06333 7.44539 2.91985 7.34107 2.81321L6.54419 2.03977ZM6.54419 9.5018C6.49194 9.44936 6.42984 9.40776 6.36147 9.37936C6.29309 9.35097 6.21979 9.33636 6.14576 9.33636C6.07172 9.33636 5.99842 9.35097 5.93005 9.37936C5.86167 9.40776 5.79958 9.44936 5.74732 9.5018L2.76232 12.4887L1.69826 11.4527C1.646 11.4003 1.5839 11.3587 1.51553 11.3303C1.44716 11.3019 1.37385 11.2873 1.29982 11.2873C1.22579 11.2873 1.15248 11.3019 1.08411 11.3303C1.01574 11.3587 0.953639 11.4003 0.901381 11.4527L0.165444 12.1882C0.113004 12.2405 0.0713953 12.3026 0.0430048 12.3709C0.0146143 12.4393 0 12.5126 0 12.5866C0 12.6607 0.0146143 12.734 0.0430048 12.8024C0.0713953 12.8707 0.113004 12.9328 0.165444 12.9851L2.3906 15.2116C2.50187 15.3175 2.64955 15.3765 2.8031 15.3765C2.95665 15.3765 3.10433 15.3175 3.2156 15.2116L3.95154 14.4762L7.33591 11.0909C7.44096 10.9861 7.50034 10.844 7.50113 10.6956C7.50192 10.5473 7.44405 10.4046 7.34013 10.2987L6.54419 9.5018ZM2.99997 17.6257C1.75826 17.6257 0.722319 18.6335 0.722319 19.8757C0.722319 21.1179 1.75919 22.1257 2.99997 22.1257C3.59671 22.1257 4.16901 21.8887 4.59097 21.4667C5.01292 21.0447 5.24998 20.4724 5.24998 19.8757C5.24998 19.279 5.01292 18.7067 4.59097 18.2847C4.16901 17.8628 3.59671 17.6257 2.99997 17.6257Z" fill="#DC241F"/>
</g>
<defs>
<clipPath id="clip0">
<rect width="24" height="24" fill="white"/>
</clipPath>
</defs>
</svg>
