<svg width="22" height="22" viewBox="0 0 22 22" fill="none" xmlns="http://www.w3.org/2000/svg">
<path opacity="0.4" d="M8.32734 9.78346L0.806417 17.3044C0.303215 17.8225 0.024092 18.5178 0.0293704 19.2401C0.0346488 19.9623 0.323904 20.6535 0.834626 21.1642C1.34535 21.675 2.03652 21.9642 2.75877 21.9695C3.48102 21.9748 4.17634 21.6956 4.69447 21.1924L11.0907 14.7963C10.9764 14.1272 11.0753 13.4392 11.3733 12.8295L8.32734 9.78346ZM2.75088 20.2791C2.54695 20.2791 2.3476 20.2186 2.17803 20.1053C2.00847 19.992 1.87632 19.831 1.79828 19.6426C1.72023 19.4542 1.69982 19.2468 1.7396 19.0468C1.77939 18.8468 1.87759 18.6631 2.02179 18.5189C2.16599 18.3747 2.34971 18.2765 2.54972 18.2367C2.74973 18.1969 2.95705 18.2173 3.14546 18.2954C3.33386 18.3734 3.4949 18.5056 3.60819 18.6751C3.72149 18.8447 3.78196 19.0441 3.78196 19.248C3.78196 19.5214 3.67333 19.7837 3.47996 19.9771C3.2866 20.1704 3.02434 20.2791 2.75088 20.2791ZM21.8144 4.68818C21.7919 4.59995 21.7464 4.51926 21.6826 4.45432C21.6187 4.38937 21.5388 4.34249 21.451 4.31844C21.3632 4.29439 21.2706 4.29403 21.1826 4.31739C21.0946 4.34076 21.0143 4.38701 20.95 4.45145L17.7553 7.64825L14.8391 7.16235L14.3532 4.24395L17.5478 1.0493C17.6127 0.984573 17.6592 0.903728 17.6824 0.815086C17.7056 0.726444 17.7048 0.63321 17.6801 0.544983C17.6553 0.456756 17.6075 0.376726 17.5415 0.313134C17.4755 0.249541 17.3937 0.204685 17.3047 0.183184C16.2691 -0.0746499 15.1845 -0.0600815 14.1563 0.225472C13.128 0.511025 12.1912 1.05784 11.4369 1.81273C9.73391 3.51574 9.2652 5.98434 9.97407 8.13673L9.78375 8.32705L12.8298 11.3731C13.427 11.0767 14.1021 10.9749 14.7602 11.082C15.4183 11.1891 16.0263 11.4997 16.4987 11.9702L16.8085 12.28C18.0883 12.0809 19.2714 11.4789 20.1857 10.5615C20.9413 9.80654 21.4885 8.86872 21.7739 7.83943C22.0593 6.81014 22.0733 5.72446 21.8144 4.68818Z" fill="#DC241F"/>
<path d="M21.5295 17.001C21.8287 17.3018 21.9967 17.7088 21.9967 18.1331C21.9967 18.5573 21.8287 18.9643 21.5295 19.2651L19.2654 21.5292C18.9665 21.8295 18.5606 21.9987 18.137 21.9996C17.7134 22.0006 17.3067 21.8332 17.0065 21.5344L17.0013 21.5292L11.9705 16.4984C10.978 15.5059 10.789 14.0238 11.3733 12.8294L6.79354 8.24967H4.1256L0.00125122 2.75054L2.75082 0.000976562L8.24995 4.12532V6.79326L12.8297 11.373C13.4269 11.0766 14.1021 10.9748 14.7601 11.0819C15.4182 11.1891 16.0262 11.4997 16.4986 11.9702L21.5295 17.001Z" fill="#DC241F"/>
</svg>
