<svg width="24" height="24" viewBox="0 0 24 24" fill="none" xmlns="http://www.w3.org/2000/svg">
<g clip-path="url(#clip0)">
<path opacity="0.4" d="M21.2761 5.88955L17.3044 9.06788C17.3213 9.16551 17.3311 9.26425 17.3336 9.3633C17.3336 9.89373 17.1229 10.4024 16.7478 10.7775C16.3727 11.1526 15.864 11.3633 15.3336 11.3633C14.8031 11.3633 14.2944 11.1526 13.9194 10.7775C13.5443 10.4024 13.3336 9.89373 13.3336 9.3633C13.336 9.26409 13.3459 9.1652 13.3631 9.06747L9.39107 5.88955C8.99841 6.05051 8.56285 6.07386 8.15523 5.9558L3.92607 10.185C4.03205 10.5881 4.00917 11.0142 3.86064 11.4037C3.71211 11.7931 3.44539 12.1263 3.09789 12.3564C2.75039 12.5866 2.33955 12.7022 1.92302 12.687C1.5065 12.6718 1.10518 12.5265 0.775389 12.2717C0.445594 12.0168 0.203869 11.6651 0.0841303 11.2658C-0.0356085 10.8666 -0.0273523 10.4399 0.107741 10.0456C0.242833 9.65128 0.497983 9.30916 0.837391 9.06724C1.1768 8.82531 1.58343 8.69571 2.00023 8.69663C2.17328 8.69905 2.34528 8.72398 2.5119 8.7708L6.74107 4.54163C6.69425 4.37502 6.66932 4.20302 6.6669 4.02997C6.6669 3.49953 6.87761 2.99083 7.25269 2.61575C7.62776 2.24068 8.13647 2.02997 8.6669 2.02997C9.19733 2.02997 9.70604 2.24068 10.0811 2.61575C10.4562 2.99083 10.6669 3.49953 10.6669 4.02997C10.6645 4.12918 10.6546 4.22807 10.6373 4.3258L14.609 7.5033C15.0736 7.31607 15.5927 7.31607 16.0573 7.5033L20.0298 4.32538C20.0127 4.22777 20.0029 4.12903 20.0002 4.02997C19.997 3.59853 20.1324 3.17745 20.3864 2.82869C20.6404 2.47994 20.9997 2.22193 21.4113 2.09262C21.8229 1.96332 22.2652 1.96955 22.673 2.11039C23.0808 2.25124 23.4326 2.51927 23.6767 2.87504C23.9208 3.23081 24.0443 3.65553 24.0289 4.08671C24.0135 4.51789 23.8602 4.93276 23.5914 5.27026C23.3226 5.60777 22.9526 5.85009 22.5358 5.96157C22.119 6.07306 21.6774 6.04781 21.2761 5.88955Z" fill="#DC241F"/>
<path d="M16.6672 15.3632H14.0005C13.8237 15.3632 13.6541 15.4335 13.5291 15.5585C13.4041 15.6835 13.3338 15.8531 13.3338 16.0299V22.6966C13.3338 22.8734 13.4041 23.043 13.5291 23.168C13.6541 23.293 13.8237 23.3632 14.0005 23.3632H16.6672C16.844 23.3632 17.0135 23.293 17.1386 23.168C17.2636 23.043 17.3338 22.8734 17.3338 22.6966V16.0299C17.3338 15.8531 17.2636 15.6835 17.1386 15.5585C17.0135 15.4335 16.844 15.3632 16.6672 15.3632ZM23.3338 10.0299H20.6672C20.4903 10.0299 20.3208 10.1001 20.1958 10.2252C20.0707 10.3502 20.0005 10.5198 20.0005 10.6966V22.6966C20.0005 22.8734 20.0707 23.043 20.1958 23.168C20.3208 23.293 20.4903 23.3632 20.6672 23.3632H23.3338C23.5106 23.3632 23.6802 23.293 23.8052 23.168C23.9303 23.043 24.0005 22.8734 24.0005 22.6966V10.6966C24.0005 10.5198 23.9303 10.3502 23.8052 10.2252C23.6802 10.1001 23.5106 10.0299 23.3338 10.0299ZM10.0005 10.0299H7.33382C7.15701 10.0299 6.98744 10.1001 6.86242 10.2252C6.73739 10.3502 6.66716 10.5198 6.66716 10.6966V22.6966C6.66716 22.8734 6.73739 23.043 6.86242 23.168C6.98744 23.293 7.15701 23.3632 7.33382 23.3632H10.0005C10.1773 23.3632 10.3469 23.293 10.4719 23.168C10.5969 23.043 10.6672 22.8734 10.6672 22.6966V10.6966C10.6672 10.5198 10.5969 10.3502 10.4719 10.2252C10.3469 10.1001 10.1773 10.0299 10.0005 10.0299ZM3.33382 16.6966H0.667155C0.490344 16.6966 0.320775 16.7668 0.19575 16.8918C0.0707262 17.0169 0.000488281 17.1864 0.000488281 17.3632L0.000488281 22.6966C0.000488281 22.8734 0.0707262 23.043 0.19575 23.168C0.320775 23.293 0.490344 23.3632 0.667155 23.3632H3.33382C3.51063 23.3632 3.6802 23.293 3.80523 23.168C3.93025 23.043 4.00049 22.8734 4.00049 22.6966V17.3632C4.00049 17.1864 3.93025 17.0169 3.80523 16.8918C3.6802 16.7668 3.51063 16.6966 3.33382 16.6966Z" fill="#DC241F"/>
</g>
<defs>
<clipPath id="clip0">
<rect width="24" height="24" fill="white"/>
</clipPath>
</defs>
</svg>
