<svg width="22" height="22" viewBox="0 0 22 22" fill="none" xmlns="http://www.w3.org/2000/svg">
<g clip-path="url(#clip0_39147_6279)">
<path opacity="0.4" d="M21.8746 14.4449L20.9877 13.9327C21.077 13.4486 21.077 12.9523 20.9877 12.4682L21.8746 11.956C21.9242 11.9276 21.9625 11.8831 21.9831 11.8299C22.0038 11.7767 22.0055 11.7181 21.9881 11.6637C21.7595 10.9291 21.3695 10.2549 20.8467 9.69042C20.8083 9.64846 20.7567 9.62083 20.7004 9.61208C20.6442 9.60333 20.5867 9.61399 20.5373 9.64228L19.6503 10.1545C19.2757 9.83511 18.8458 9.58693 18.3818 9.42226V8.39779C18.3817 8.34089 18.3623 8.2857 18.3267 8.24133C18.291 8.19696 18.2414 8.16605 18.1858 8.1537C17.4366 7.98522 16.6592 7.98522 15.91 8.1537C15.8544 8.16605 15.8048 8.19696 15.7691 8.24133C15.7335 8.2857 15.7141 8.34089 15.714 8.39779V9.42226C15.25 9.58693 14.8201 9.83511 14.4455 10.1545L13.5585 9.64228C13.5091 9.61411 13.4516 9.60353 13.3954 9.61227C13.3392 9.62101 13.2876 9.64856 13.2491 9.69042C12.7263 10.2549 12.3363 10.9291 12.1077 11.6637C12.0911 11.7181 12.0933 11.7765 12.1138 11.8295C12.1344 11.8825 12.1722 11.927 12.2212 11.956L13.1081 12.4682C13.0188 12.9523 13.0188 13.4486 13.1081 13.9327L12.2212 14.4449C12.1716 14.4733 12.1333 14.5178 12.1127 14.571C12.092 14.6241 12.0903 14.6828 12.1077 14.7372C12.3371 15.4715 12.727 16.1455 13.2491 16.7105C13.2875 16.7524 13.3391 16.7801 13.3953 16.7888C13.4516 16.7976 13.5091 16.7869 13.5585 16.7586L14.4455 16.2464C14.8201 16.5658 15.25 16.814 15.714 16.9786V18.0031C15.7141 18.06 15.7335 18.1152 15.7691 18.1596C15.8048 18.2039 15.8544 18.2348 15.91 18.2472C16.6592 18.4157 17.4366 18.4157 18.1858 18.2472C18.2414 18.2348 18.291 18.2039 18.3267 18.1596C18.3623 18.1152 18.3817 18.06 18.3818 18.0031V16.9786C18.8458 16.814 19.2757 16.5658 19.6503 16.2464L20.5373 16.7586C20.5867 16.7868 20.6442 16.7974 20.7004 16.7886C20.7566 16.7799 20.8082 16.7523 20.8467 16.7105C21.3695 16.146 21.7595 15.4718 21.9881 14.7372C22.0047 14.6828 22.0025 14.6244 21.982 14.5714C21.9614 14.5184 21.9236 14.4739 21.8746 14.4449ZM17.0513 14.8678C16.7216 14.8678 16.3992 14.77 16.125 14.5868C15.8508 14.4036 15.6371 14.1432 15.5109 13.8385C15.3847 13.5338 15.3517 13.1986 15.416 12.8752C15.4804 12.5517 15.6392 12.2546 15.8723 12.0215C16.1055 11.7883 16.4026 11.6295 16.7261 11.5651C17.0495 11.5008 17.3847 11.5338 17.6894 11.66C17.9941 11.7862 18.2545 11.9999 18.4377 12.2741C18.6209 12.5483 18.7187 12.8707 18.7187 13.2004C18.7182 13.6425 18.5424 14.0663 18.2298 14.3789C17.9172 14.6915 17.4934 14.8673 17.0513 14.8678Z" fill="#DC241F"/>
<path d="M11.0011 10.9996C11.0664 10.9996 11.1283 10.9824 11.1936 10.979C11.4769 10.2276 11.9004 9.53698 12.4415 8.94376C12.5684 8.80706 12.7221 8.69803 12.8931 8.6235C13.0641 8.54896 13.2486 8.51052 13.4351 8.51059C13.6719 8.50984 13.9047 8.57277 14.1089 8.6928L14.3805 8.85094C14.408 8.83375 14.4355 8.82 14.463 8.80281C14.7137 8.28868 14.8453 7.72465 14.848 7.15265C14.8487 6.39082 14.6234 5.64591 14.2006 5.0122C13.7777 4.37848 13.1764 3.88443 12.4727 3.59258C11.769 3.30073 10.9945 3.22419 10.2473 3.37265C9.5001 3.5211 8.81371 3.88789 8.27502 4.42658C7.73633 4.96527 7.36954 5.65166 7.22108 6.39888C7.07263 7.1461 7.14917 7.92057 7.44102 8.62427C7.73287 9.32798 8.22692 9.92929 8.86063 10.3521C9.49435 10.7749 10.2393 11.0003 11.0011 10.9996ZM5.9509 11.639C5.53917 11.2289 4.98155 10.999 4.40043 10.9996H2.20022C1.61685 11.0001 1.05753 11.2321 0.645032 11.6446C0.232529 12.0571 0.000546138 12.6164 0 13.1998V14.2999C0 14.5917 0.115904 14.8715 0.322214 15.0778C0.528525 15.2841 0.808341 15.4 1.10011 15.4H3.36564C3.47039 14.614 3.75909 13.8637 4.2083 13.2102C4.6575 12.5567 5.25454 12.0184 5.9509 11.639ZM3.30032 9.89948C3.73549 9.89948 4.16088 9.77044 4.5227 9.52868C4.88452 9.28691 5.16653 8.94329 5.33306 8.54125C5.49959 8.13921 5.54316 7.69682 5.45826 7.27002C5.37337 6.84322 5.16382 6.45118 4.85611 6.14347C4.54841 5.83577 4.15637 5.62622 3.72957 5.54132C3.30277 5.45643 2.86038 5.5 2.45834 5.66653C2.0563 5.83306 1.71267 6.11506 1.47091 6.47689C1.22915 6.83871 1.10011 7.2641 1.10011 7.69926C1.10065 8.28263 1.33264 8.84194 1.74514 9.25445C2.15764 9.66695 2.71696 9.89893 3.30032 9.89948ZM14.6177 17.6862C14.5386 17.6449 14.4595 17.5968 14.3839 17.5521C14.102 17.7171 13.8579 17.889 13.4385 17.889C13.2521 17.8884 13.0678 17.8496 12.897 17.7751C12.7261 17.7007 12.5723 17.592 12.445 17.4558C11.8121 16.771 11.3399 15.9536 11.063 15.0631C10.6951 13.8771 11.919 13.3545 11.9499 13.3339C11.9465 13.2445 11.9465 13.1551 11.9499 13.0657L11.6783 12.9076C11.5521 12.833 11.4385 12.739 11.3414 12.6291C11.228 12.636 11.118 12.6497 11.0045 12.6497C10.1588 12.6497 9.36811 12.4435 8.6496 12.0997H8.36426C7.84395 12.0995 7.32869 12.2017 6.8479 12.4006C6.36711 12.5995 5.9302 12.8912 5.56212 13.259C5.19405 13.6267 4.90201 14.0634 4.70269 14.544C4.50337 15.0246 4.40066 15.5398 4.40043 16.0601V17.0502C4.40043 17.4878 4.57429 17.9076 4.88375 18.217C5.19322 18.5265 5.61295 18.7003 6.0506 18.7003H14.8308C14.6958 18.4923 14.6219 18.2505 14.6177 18.0025V17.6862Z" fill="#DC241F"/>
</g>
<defs>
<clipPath id="clip0_39147_6279">
<rect width="22" height="22" fill="white"/>
</clipPath>
</defs>
</svg>
