<svg width="20" height="22" viewBox="0 0 20 22" fill="none" xmlns="http://www.w3.org/2000/svg">
<path opacity="0.4" d="M18.25 8.25V8.9375C18.2483 10.2133 17.7407 11.4364 16.8386 12.3386C15.9364 13.2407 14.7133 13.7483 13.4375 13.75H9.3125C8.94783 13.75 8.59809 13.6051 8.34023 13.3473C8.08237 13.0894 7.9375 12.7397 7.9375 12.375C7.9375 12.0103 8.08237 11.6606 8.34023 11.4027C8.59809 11.1449 8.94783 11 9.3125 11H10.6875C11.0522 11 11.4019 11.1449 11.6598 11.4027C11.9176 11.6606 12.0625 12.0103 12.0625 12.375H13.4375C14.3489 12.374 15.2226 12.0115 15.867 11.367C16.5115 10.7226 16.874 9.84887 16.875 8.9375V8.25C16.875 4.4593 13.7907 1.375 10 1.375C6.2093 1.375 3.125 4.4593 3.125 8.25V8.9375C3.125 9.11984 3.05257 9.2947 2.92364 9.42364C2.7947 9.55257 2.61984 9.625 2.4375 9.625C2.25516 9.625 2.0803 9.55257 1.95136 9.42364C1.82243 9.2947 1.75 9.11984 1.75 8.9375V8.25C1.75 3.7009 5.4509 0 10 0C14.5491 0 18.25 3.7009 18.25 8.25Z" fill="#DC241F"/>
<path d="M14.125 15.125H13.1324C12.1502 15.5779 11.0816 15.8124 10 15.8124C8.91845 15.8124 7.84975 15.5779 6.86758 15.125H5.875C4.41631 15.125 3.01736 15.7045 1.98591 16.7359C0.954463 17.7674 0.375 19.1663 0.375 20.625C0.375 20.9897 0.519866 21.3394 0.777728 21.5973C1.03559 21.8551 1.38533 22 1.75 22H18.25C18.6147 22 18.9644 21.8551 19.2223 21.5973C19.4801 21.3394 19.625 20.9897 19.625 20.625C19.625 19.1663 19.0455 17.7674 18.0141 16.7359C16.9826 15.7045 15.5837 15.125 14.125 15.125ZM6.57754 12.5241C6.57496 12.4738 6.5625 12.4261 6.5625 12.375C6.5633 11.6459 6.85328 10.9469 7.36884 10.4313C7.88439 9.91578 8.5834 9.6258 9.3125 9.625H10.6875C11.1701 9.62512 11.6442 9.75224 12.0621 9.9936C12.48 10.235 12.8271 10.582 13.0684 11H13.4375C13.9843 10.9994 14.5086 10.7819 14.8953 10.3953C15.2819 10.0086 15.4994 9.48433 15.5 8.9375V8.25C15.5 6.79131 14.9205 5.39236 13.8891 4.36091C12.8576 3.32946 11.4587 2.75 10 2.75C8.54131 2.75 7.14236 3.32946 6.11091 4.36091C5.07946 5.39236 4.5 6.79131 4.5 8.25C4.5 9.9868 5.3207 11.5156 6.57754 12.5241Z" fill="#DC241F"/>
</svg>
