<svg width="24" height="24" viewBox="0 0 24 24" fill="none" xmlns="http://www.w3.org/2000/svg">
<path opacity="0.4" d="M23.8237 9.07033L22.5409 10.3456C22.3083 10.5744 21.9408 10.5782 21.7007 10.3606C16.2244 5.34571 7.7737 5.34571 2.30117 10.3606C2.06111 10.5819 1.69353 10.5744 1.46097 10.3456L0.178173 9.07033L0.159419 9.05157C-0.065634 8.81152 -0.0506305 8.43268 0.193177 8.20762C6.82848 2.06369 17.1621 2.05994 23.8087 8.20762C23.8162 8.21513 23.8237 8.21888 23.8274 8.22638C24.06 8.46268 24.0563 8.83777 23.8237 9.07033Z" fill="#DC241F"/>
<path d="M11.9975 15.6006C10.6734 15.6006 9.59694 16.6771 9.59694 18.0012C9.59694 19.3252 10.6734 20.4017 11.9975 20.4017C13.3216 20.4017 14.3981 19.3252 14.3981 18.0012C14.3981 16.6771 13.3216 15.6006 11.9975 15.6006ZM19.6305 12.4949L19.6005 12.4649C15.2758 8.64273 8.71549 8.64648 4.39823 12.4649C4.15442 12.6824 4.13192 13.0575 4.34572 13.3013C4.35697 13.3126 4.36447 13.3238 4.37572 13.3313L5.66603 14.6066C5.89108 14.8279 6.25116 14.8429 6.49122 14.6366C9.64195 11.9135 14.3568 11.921 17.5 14.6366C17.7401 14.8429 18.1002 14.8317 18.3252 14.6066L19.6155 13.3313C19.8556 13.1063 19.8593 12.7312 19.6305 12.4949Z" fill="#DC241F"/>
</svg>
