<svg width="24" height="24" viewBox="0 0 24 24" fill="none" xmlns="http://www.w3.org/2000/svg">
<path opacity="0.4" d="M16.2714 23.1004C15.8241 14.8185 9.19052 8.1763 0.899447 7.72845C0.783423 7.72272 0.667444 7.74063 0.558554 7.78109C0.449665 7.82156 0.350137 7.88373 0.266016 7.96385C0.181895 8.04396 0.114936 8.14034 0.0692072 8.24712C0.0234783 8.35391 -6.6593e-05 8.46887 2.49035e-06 8.58504V11.1602C-0.000521227 11.3775 0.0815753 11.587 0.229672 11.7461C0.377769 11.9053 0.5808 12.0022 0.797664 12.0173C6.78842 12.4073 11.5905 17.1975 11.9815 23.2011C11.9966 23.418 12.0935 23.621 12.2527 23.7691C12.4118 23.9172 12.6213 23.9993 12.8386 23.9988H15.4138C15.53 23.9989 15.645 23.9754 15.7519 23.9297C15.8587 23.884 15.9551 23.8171 16.0353 23.733C16.1155 23.6488 16.1777 23.5493 16.2182 23.4404C16.2587 23.3314 16.2766 23.2154 16.2709 23.0993L16.2714 23.1004ZM0.883912 0.000418649C0.769119 -0.00317039 0.654775 0.016347 0.547673 0.0578117C0.44057 0.0992764 0.342893 0.161843 0.260443 0.241794C0.177993 0.321746 0.112452 0.417452 0.0677118 0.523228C0.0229721 0.629004 -5.36024e-05 0.742693 2.49035e-06 0.857542V3.4332C-0.000128892 3.6555 0.0861194 3.86917 0.240543 4.02909C0.394967 4.18901 0.605485 4.28268 0.827663 4.29032C11.0692 4.71031 19.2896 12.9323 19.7096 23.1722C19.7172 23.3944 19.8109 23.6049 19.9708 23.7593C20.1307 23.9137 20.3444 24 20.5667 23.9999H23.1424C23.2572 23.9999 23.3709 23.9769 23.4767 23.9321C23.5824 23.8874 23.6782 23.8219 23.7581 23.7394C23.8381 23.657 23.9006 23.5593 23.9421 23.4522C23.9835 23.3451 24.0031 23.2307 23.9995 23.116C23.5495 10.5902 13.4708 0.453087 0.883912 0.000418649Z" fill="#DC241F"/>
<path d="M0 20.5711C0 19.893 0.201078 19.2301 0.577805 18.6663C0.954532 18.1025 1.48999 17.6631 2.11646 17.4036C2.74294 17.1441 3.43229 17.0762 4.09736 17.2085C4.76242 17.3407 5.37332 17.6673 5.8528 18.1468C6.33228 18.6262 6.65882 19.2371 6.79111 19.9022C6.92339 20.5673 6.8555 21.2566 6.596 21.8831C6.33651 22.5096 5.89707 23.045 5.33326 23.4218C4.76945 23.7985 4.10658 23.9996 3.42849 23.9996C2.5192 23.9996 1.64715 23.6383 1.00418 22.9954C0.361215 22.3524 0 21.4804 0 20.5711Z" fill="#DC241F"/>
</svg>
