<svg width="24" height="24" viewBox="0 0 24 24" fill="none" xmlns="http://www.w3.org/2000/svg">
<g clip-path="url(#clip0)">
<path opacity="0.4" d="M15.0937 13.1474L15.0815 13.1596C14.0973 12.8235 13.2037 12.2655 12.4697 11.5288C11.7357 10.792 11.1811 9.89625 10.8487 8.91083L0.847901 18.9102C0.298867 19.4755 -0.00567898 20.2342 8.02199e-05 21.0222C0.00583942 21.8102 0.321441 22.5644 0.87868 23.1216C1.43592 23.6789 2.19004 23.9945 2.97808 24.0002C3.76611 24.006 4.52477 23.7014 5.09009 23.1524L15.0937 13.1483V13.1474ZM2.96946 22.1558C2.74696 22.1558 2.52945 22.0898 2.34445 21.9662C2.15944 21.8426 2.01525 21.6669 1.9301 21.4613C1.84495 21.2558 1.82267 21.0296 1.86608 20.8114C1.90949 20.5931 2.01663 20.3927 2.17397 20.2353C2.3313 20.078 2.53176 19.9709 2.74999 19.9274C2.96822 19.884 3.19442 19.9063 3.39998 19.9915C3.60555 20.0766 3.78125 20.2208 3.90487 20.4058C4.02848 20.5908 4.09446 20.8083 4.09446 21.0308C4.09446 21.3292 3.97594 21.6153 3.76496 21.8263C3.55398 22.0373 3.26783 22.1558 2.96946 22.1558Z" fill="#DC241F"/>
<path d="M22.0163 11.5406C20.1413 13.4156 17.4469 13.9312 15.0919 13.147L15.0797 13.1592C14.0931 12.8223 13.1975 12.2625 12.4625 11.5231C11.7275 10.7838 11.1729 9.88494 10.8418 8.8964L10.8478 8.89031C10.0725 6.53859 10.5853 3.8414 12.4477 1.98094C13.2731 1.15591 14.2977 0.558332 15.4222 0.246224C16.5467 -0.0658851 17.7328 -0.0819167 18.8653 0.199686C18.9628 0.222935 19.0524 0.27182 19.1246 0.34128C19.1969 0.410741 19.2493 0.498254 19.2764 0.594762C19.3035 0.691271 19.3043 0.793269 19.2788 0.890201C19.2532 0.987133 19.2023 1.07548 19.1311 1.14609L15.6375 4.63734L16.1686 7.82484L19.3589 8.35687L22.8525 4.86375C22.9227 4.79283 23.0104 4.74185 23.1068 4.71603C23.2031 4.69021 23.3046 4.69048 23.4009 4.71681C23.4971 4.74314 23.5846 4.79459 23.6544 4.86588C23.7241 4.93717 23.7737 5.02574 23.798 5.1225C24.0814 6.25504 24.0662 7.44172 23.7539 8.56664C23.4416 9.69155 22.8429 10.7162 22.0163 11.5406Z" fill="#DC241F"/>
</g>
<defs>
<clipPath id="clip0">
<rect width="24" height="24" fill="white"/>
</clipPath>
</defs>
</svg>
