<svg width="20" height="20" viewBox="0 0 20 20" fill="none" xmlns="http://www.w3.org/2000/svg">
<g clip-path="url(#clip0)">
<path opacity="0.4" d="M6.50662 11.0433L1.71873 6.21913C1.5896 6.08741 1.51787 5.90993 1.51918 5.72549C1.5205 5.54104 1.59477 5.36461 1.72576 5.23475L3.37029 3.60311C3.50201 3.47399 3.67948 3.40225 3.86393 3.40357C4.04837 3.40488 4.2248 3.47915 4.35466 3.61014L7.0199 6.29647L13.159 0.199594C13.2907 0.0704494 13.4683 -0.00129959 13.6528 1.78266e-05C13.8373 0.00133524 14.0138 0.075612 14.1437 0.206626L15.7812 1.85194C15.9104 1.98372 15.9821 2.16126 15.9808 2.34577C15.9795 2.53028 15.9052 2.70678 15.7742 2.8367L7.49138 11.0504C7.3596 11.1795 7.18206 11.2513 6.99755 11.25C6.81304 11.2486 6.63654 11.1744 6.50662 11.0433Z" fill="white"/>
<path d="M19.7071 6.71866C19.8947 6.90786 20 7.16353 20 7.42999C20 7.69646 19.8947 7.95213 19.7071 8.14132L8.20708 19.7054C8.11454 19.7988 8.00441 19.8729 7.88306 19.9235C7.7617 19.9741 7.63153 20.0002 7.50005 20.0002C7.36857 20.0002 7.23839 19.9741 7.11704 19.9235C6.99568 19.8729 6.88556 19.7988 6.79302 19.7054L0.293015 13.1679C0.105308 12.9788 -3.05176e-05 12.7232 -3.05176e-05 12.4567C-3.05176e-05 12.1903 0.105308 11.9347 0.293015 11.7456L1.70708 10.3234C1.79962 10.23 1.90975 10.1558 2.0311 10.1052C2.15245 10.0546 2.28263 10.0286 2.41411 10.0286C2.54559 10.0286 2.67576 10.0546 2.79712 10.1052C2.91847 10.1558 3.0286 10.23 3.12114 10.3234L7.50005 14.7265L16.879 5.29445C16.9715 5.20114 17.0817 5.12709 17.203 5.07655C17.3244 5.02602 17.4545 5 17.586 5C17.7174 5 17.8476 5.02602 17.9689 5.07655C18.0903 5.12709 18.2004 5.20114 18.293 5.29445L19.7071 6.71866Z" fill="white"/>
</g>
<defs>
<clipPath id="clip0">
<rect width="20" height="20" fill="white"/>
</clipPath>
</defs>
</svg>
