<svg width="21" height="20" viewBox="0 0 21 20" fill="none" xmlns="http://www.w3.org/2000/svg">
<g clip-path="url(#clip0)">
<path opacity="0.4" d="M18.2823 11.0002C18.4627 10.9759 18.6408 10.9368 18.8148 10.8833V17.2732C18.8148 17.5487 18.7054 17.813 18.5105 18.0078C18.3157 18.2027 18.0514 18.3122 17.7758 18.3122H3.22687C2.95131 18.3122 2.68703 18.2027 2.49218 18.0078C2.29733 17.813 2.18787 17.5487 2.18787 17.2732V10.8833C2.36256 10.9341 2.54046 10.9731 2.72035 11.0002C2.91409 11.0261 3.10933 11.0392 3.30479 11.0392C3.62779 11.034 3.94919 10.9927 4.26295 10.9158V14.1562H16.7339V10.9158C17.0473 10.9943 17.3689 11.0357 17.692 11.0392C17.8895 11.0391 18.0866 11.0261 18.2823 11.0002Z" fill="white"/>
<path d="M20.046 5.5383C21.1369 7.27863 20.1694 9.69431 18.1303 9.96705C17.9829 9.98668 17.8343 9.99645 17.6855 9.99627C17.2329 9.99579 16.7855 9.89982 16.3726 9.71463C15.9596 9.52943 15.5904 9.25919 15.289 8.92155C14.723 9.5567 13.928 9.94113 13.0788 9.99032C12.2295 10.0395 11.3954 9.74946 10.7599 9.1839C10.6673 9.10173 10.5797 9.01412 10.4976 8.92155C9.9308 9.55706 9.13483 9.94144 8.2847 9.99015C7.43458 10.0389 6.59991 9.74792 5.96427 9.18131C5.87273 9.09983 5.786 9.0131 5.70452 8.92155C5.40356 9.25972 5.03441 9.53033 4.62135 9.71556C4.20829 9.9008 3.76069 9.99647 3.30799 9.99627C3.15924 9.99628 3.01065 9.98652 2.86317 9.96705C0.828351 9.69107 -0.135973 7.27539 0.95433 5.5383L3.05928 2.17453C3.15294 2.02518 3.28305 1.90211 3.43738 1.81691C3.59171 1.73171 3.76518 1.68718 3.94146 1.6875H17.0589C17.2346 1.68773 17.4074 1.73252 17.5611 1.8177C17.7148 1.90287 17.8444 2.02565 17.9378 2.17453L20.046 5.5383Z" fill="white"/>
</g>
<defs>
<clipPath id="clip0">
<rect width="20" height="20" fill="white" transform="translate(0.5)"/>
</clipPath>
</defs>
</svg>
