<svg width="21" height="9" viewBox="0 0 21 9" fill="none" xmlns="http://www.w3.org/2000/svg">
<path d="M20.046 4.53855C21.1369 6.27888 20.1694 8.69456 18.1303 8.96729C17.9829 8.98693 17.8343 8.99669 17.6855 8.99652C17.2329 8.99603 16.7855 8.90006 16.3726 8.71487C15.9596 8.52968 15.5904 8.25944 15.289 7.9218C14.723 8.55695 13.928 8.94137 13.0788 8.99057C12.2295 9.03976 11.3954 8.7497 10.7599 8.18415C10.6673 8.10197 10.5797 8.01437 10.4976 7.9218C9.9308 8.55731 9.13483 8.94168 8.2847 8.99039C7.43458 9.0391 6.59991 8.74816 5.96427 8.18155C5.87273 8.10007 5.786 8.01334 5.70452 7.9218C5.40356 8.25997 5.03441 8.53057 4.62135 8.71581C4.20829 8.90104 3.76069 8.99671 3.30799 8.99652C3.15924 8.99653 3.01065 8.98677 2.86317 8.96729C0.828351 8.69131 -0.135973 6.27563 0.95433 4.53855L3.05928 1.17478C3.15294 1.02543 3.28305 0.902358 3.43738 0.817156C3.59171 0.731954 3.76518 0.68742 3.94146 0.687746H17.0589C17.2346 0.687971 17.4074 0.732766 17.5611 0.817942C17.7148 0.903118 17.8444 1.02589 17.9378 1.17478L20.046 4.53855Z" fill="white"/>
</svg>
