<svg width="24" height="24" viewBox="0 0 24 24" fill="none" xmlns="http://www.w3.org/2000/svg">
<path opacity="0.4" d="M8.625 10.5H4.875V7.125C4.875 3.19687 8.07187 0 12 0C15.9281 0 19.125 3.19687 19.125 7.125V10.5H15.375V7.125C15.375 6.22989 15.0194 5.37145 14.3865 4.73851C13.7535 4.10558 12.8951 3.75 12 3.75C11.1049 3.75 10.2464 4.10558 9.61351 4.73851C8.98058 5.37145 8.625 6.22989 8.625 7.125V10.5Z" fill="#DC241F"/>
<path d="M20.25 10.5H3.75C3.15326 10.5 2.58097 10.7371 2.15901 11.159C1.73705 11.581 1.5 12.1533 1.5 12.75L1.5 21.75C1.5 22.3467 1.73705 22.919 2.15901 23.341C2.58097 23.7629 3.15326 24 3.75 24H20.25C20.8467 24 21.419 23.7629 21.841 23.341C22.2629 22.919 22.5 22.3467 22.5 21.75V12.75C22.5 12.1533 22.2629 11.581 21.841 11.159C21.419 10.7371 20.8467 10.5 20.25 10.5ZM13.875 18.3281C13.875 18.8254 13.6775 19.3023 13.3258 19.6539C12.9742 20.0056 12.4973 20.2031 12 20.2031C11.5027 20.2031 11.0258 20.0056 10.6742 19.6539C10.3225 19.3023 10.125 18.8254 10.125 18.3281V16.0781C10.125 15.5808 10.3225 15.1039 10.6742 14.7523C11.0258 14.4007 11.5027 14.2031 12 14.2031C12.4973 14.2031 12.9742 14.4007 13.3258 14.7523C13.6775 15.1039 13.875 15.5808 13.875 16.0781V18.3281Z" fill="#DC241F"/>
</svg>
