<svg width="21" height="20" viewBox="0 0 21 20" fill="none" xmlns="http://www.w3.org/2000/svg">
<path opacity="0.4" d="M7.6875 8.75H4.5625V5.9375C4.5625 2.66406 7.22656 0 10.5 0C13.7734 0 16.4375 2.66406 16.4375 5.9375V8.75H13.3125V5.9375C13.3125 5.19158 13.0162 4.47621 12.4887 3.94876C11.9613 3.42132 11.2459 3.125 10.5 3.125C9.75408 3.125 9.03871 3.42132 8.51126 3.94876C7.98382 4.47621 7.6875 5.19158 7.6875 5.9375V8.75Z" fill="white"/>
<path d="M17.375 8.75H3.625C3.12772 8.75 2.65081 8.94754 2.29917 9.29917C1.94754 9.65081 1.75 10.1277 1.75 10.625L1.75 18.125C1.75 18.6223 1.94754 19.0992 2.29917 19.4508C2.65081 19.8025 3.12772 20 3.625 20H17.375C17.8723 20 18.3492 19.8025 18.7008 19.4508C19.0525 19.0992 19.25 18.6223 19.25 18.125V10.625C19.25 10.1277 19.0525 9.65081 18.7008 9.29917C18.3492 8.94754 17.8723 8.75 17.375 8.75ZM12.0625 15.2734C12.0625 15.6878 11.8979 16.0853 11.6049 16.3783C11.3118 16.6713 10.9144 16.8359 10.5 16.8359C10.0856 16.8359 9.68817 16.6713 9.39515 16.3783C9.10212 16.0853 8.9375 15.6878 8.9375 15.2734V13.3984C8.9375 12.984 9.10212 12.5866 9.39515 12.2936C9.68817 12.0006 10.0856 11.8359 10.5 11.8359C10.9144 11.8359 11.3118 12.0006 11.6049 12.2936C11.8979 12.5866 12.0625 12.984 12.0625 13.3984V15.2734Z" fill="white"/>
</svg>
