<svg width="20" height="20" viewBox="0 0 20 20" fill="none" xmlns="http://www.w3.org/2000/svg">
<path opacity="0.4" d="M5.0005 10.6241V12.4989H19.0612C19.3099 12.4989 19.5483 12.5977 19.7241 12.7735C19.8999 12.9492 19.9986 13.1877 19.9986 13.4363V14.0612C19.9986 14.3098 19.8999 14.5482 19.7241 14.724C19.5483 14.8998 19.3099 14.9986 19.0612 14.9986H5.0005V16.8733C5.0005 17.7107 3.98735 18.1232 3.39914 17.5373L0.274531 14.4127C0.0987511 14.2369 0 13.9985 0 13.7499C0 13.5013 0.0987511 13.2629 0.274531 13.0871L3.39914 9.9625C3.99047 9.37195 5.0005 9.7926 5.0005 10.6241Z" fill="white"/>
<path d="M19.7253 5.58858C19.8123 5.67563 19.8814 5.77899 19.9286 5.89275C19.9757 6.00651 20 6.12844 20 6.25158C20 6.37472 19.9757 6.49666 19.9286 6.61042C19.8814 6.72418 19.8123 6.82754 19.7253 6.91459L16.6006 10.0392C16.0148 10.6251 14.9993 10.2146 14.9993 9.37522V7.50045H0.938542C0.689933 7.50045 0.451506 7.40169 0.275713 7.2259C0.0999193 7.05011 0.00115967 6.81168 0.00115967 6.56307L0.00115967 5.93815C0.00115967 5.68954 0.0999193 5.45111 0.275713 5.27532C0.451506 5.09952 0.689933 5.00076 0.938542 5.00076H14.9993V3.12599C14.9993 2.29172 16.0109 1.87615 16.6006 2.46201L19.7253 5.58858Z" fill="white"/>
</svg>
