<svg width="24" height="24" viewBox="0 0 24 24" fill="none" xmlns="http://www.w3.org/2000/svg">
<g clip-path="url(#clip0)">
<path opacity="0.4" d="M7.80818 13.252L2.06271 7.46295C1.90777 7.30489 1.82168 7.09192 1.82326 6.87059C1.82484 6.64925 1.91396 6.43753 2.07115 6.2817L4.04459 4.32373C4.20265 4.16879 4.41562 4.0827 4.63696 4.08428C4.85829 4.08586 5.07001 4.17498 5.22584 4.33217L8.42412 7.55576L15.791 0.239513C15.9491 0.0845392 16.1622 -0.0015595 16.3836 2.13919e-05C16.605 0.00160229 16.8168 0.0907343 16.9727 0.247951L18.9377 2.22233C19.0927 2.38047 19.1788 2.59351 19.1772 2.81493C19.1756 3.03634 19.0865 3.24813 18.9293 3.40404L8.9899 13.2605C8.83176 13.4154 8.61872 13.5015 8.3973 13.4999C8.17589 13.4984 7.9641 13.4092 7.80818 13.252Z" fill="#DC241F"/>
<path d="M23.6485 8.0624C23.8737 8.28943 24 8.59624 24 8.91599C24 9.23575 23.8737 9.54255 23.6485 9.76959L9.84853 23.6465C9.73748 23.7585 9.60533 23.8475 9.4597 23.9082C9.31408 23.9689 9.15787 24.0002 9.00009 24.0002C8.84232 24.0002 8.68611 23.9689 8.54048 23.9082C8.39486 23.8475 8.2627 23.7585 8.15165 23.6465L0.351655 15.8015C0.126406 15.5746 0 15.2678 0 14.9481C0 14.6284 0.126406 14.3216 0.351655 14.0947L2.04853 12.388C2.15958 12.2759 2.29173 12.187 2.43736 12.1263C2.58298 12.0656 2.73919 12.0343 2.89697 12.0343C3.05474 12.0343 3.21095 12.0656 3.35658 12.1263C3.5022 12.187 3.63436 12.2759 3.7454 12.388L9.00009 17.6718L20.2548 6.35333C20.3659 6.24137 20.4981 6.15251 20.6437 6.09186C20.7893 6.03122 20.9455 6 21.1032 6C21.261 6 21.4171 6.03122 21.5628 6.09186C21.7084 6.15251 21.8405 6.24137 21.9517 6.35333L23.6485 8.0624Z" fill="#DC241F"/>
</g>
<defs>
<clipPath id="clip0">
<rect width="24" height="24" fill="white"/>
</clipPath>
</defs>
</svg>
