<svg width="20" height="20" viewBox="0 0 20 20" fill="none" xmlns="http://www.w3.org/2000/svg">
<g clip-path="url(#clip0)">
<path opacity="0.4" d="M19.9521 14.0897C19.937 13.9996 19.8904 13.9177 19.8205 13.8588C19.7507 13.7998 19.6622 13.7676 19.5708 13.7678H19.0551C18.9437 13.4542 18.7753 13.1638 18.5582 12.9115L18.8142 12.4646C18.8595 12.3855 18.8756 12.293 18.8596 12.2033C18.8436 12.1136 18.7965 12.0324 18.7267 11.9739C18.4274 11.725 18.0882 11.5284 17.7234 11.3926C17.6376 11.36 17.5429 11.3591 17.4564 11.39C17.3699 11.421 17.2973 11.4817 17.2515 11.5613L16.9952 12.0083C16.6677 11.9489 16.3321 11.9489 16.0045 12.0083L15.7483 11.5613C15.7025 11.4817 15.6299 11.421 15.5434 11.39C15.4569 11.3591 15.3622 11.36 15.2763 11.3926C14.9119 11.5291 14.5728 11.7256 14.2731 11.9739C14.2026 12.0319 14.1551 12.1132 14.1391 12.2031C14.123 12.293 14.1395 12.3857 14.1856 12.4646L14.4419 12.9115C14.2248 13.1638 14.0564 13.4542 13.945 13.7678H13.4293C13.3376 13.7683 13.249 13.8012 13.1792 13.8606C13.1095 13.9201 13.063 14.0024 13.048 14.0928C12.9839 14.4767 12.9839 14.8685 13.048 15.2523C13.0631 15.3425 13.1097 15.4243 13.1796 15.4833C13.2494 15.5422 13.3379 15.5745 13.4293 15.5742H13.945C14.0564 15.8879 14.2248 16.1782 14.4419 16.4306L14.1856 16.8775C14.1403 16.9565 14.1242 17.049 14.1402 17.1387C14.1562 17.2284 14.2033 17.3097 14.2731 17.3682C14.5724 17.6171 14.9116 17.8136 15.2763 17.9495C15.3622 17.982 15.4569 17.9829 15.5434 17.952C15.6299 17.9211 15.7025 17.8603 15.7483 17.7807L16.0045 17.3338C16.3321 17.3932 16.6677 17.3932 16.9952 17.3338L17.2515 17.7807C17.2973 17.8603 17.3699 17.9211 17.4564 17.952C17.5429 17.9829 17.6376 17.982 17.7234 17.9495C18.0879 17.8129 18.427 17.6164 18.7267 17.3682C18.7972 17.3101 18.8447 17.2288 18.8607 17.1389C18.8767 17.049 18.8602 16.9563 18.8142 16.8775L18.5579 16.4306C18.7749 16.1782 18.9434 15.8879 19.0548 15.5742H19.5705C19.6622 15.5738 19.7508 15.5409 19.8205 15.4814C19.8903 15.4219 19.9368 15.3397 19.9518 15.2492C20.016 14.8654 20.0161 14.4736 19.9521 14.0897ZM15.6767 15.493C14.7516 14.2897 16.1236 12.9177 17.3268 13.8428C18.2516 15.0457 16.8799 16.4178 15.6767 15.4927V15.493ZM19.9521 4.74818C19.937 4.65805 19.8904 4.57621 19.8205 4.51725C19.7507 4.4583 19.6622 4.42606 19.5708 4.42628H19.0551C18.9437 4.11262 18.7753 3.82229 18.5582 3.56994L18.8145 3.12303C18.8598 3.04397 18.8759 2.9515 18.8599 2.86179C18.8439 2.77208 18.7968 2.69086 18.727 2.63235C18.4277 2.38343 18.0885 2.18689 17.7238 2.05105C17.6379 2.01837 17.5431 2.01737 17.4566 2.04825C17.37 2.07912 17.2973 2.13984 17.2515 2.2195L16.9952 2.66642C16.6677 2.60704 16.3321 2.60704 16.0045 2.66642L15.7483 2.2195C15.7025 2.13986 15.6299 2.07912 15.5434 2.04819C15.4569 2.01726 15.3622 2.01817 15.2763 2.05073C14.9119 2.18729 14.5728 2.38377 14.2731 2.63204C14.2026 2.6901 14.1551 2.77136 14.1391 2.86127C14.123 2.95118 14.1395 3.04386 14.1856 3.12271L14.4419 3.56963C14.2248 3.82198 14.0564 4.11231 13.945 4.42596H13.4293C13.3376 4.42643 13.249 4.45931 13.1792 4.5188C13.1095 4.57828 13.063 4.66053 13.048 4.751C12.9839 5.13484 12.9839 5.52664 13.048 5.91048C13.0631 6.00062 13.1097 6.08246 13.1796 6.14141C13.2494 6.20037 13.3379 6.23261 13.4293 6.23239H13.945C14.0564 6.54604 14.2248 6.83637 14.4419 7.08872L14.1856 7.53564C14.1403 7.61469 14.1242 7.70717 14.1402 7.79688C14.1562 7.88659 14.2033 7.96781 14.2731 8.02631C14.5724 8.27524 14.9116 8.47177 15.2763 8.60762C15.3622 8.64019 15.4569 8.64109 15.5434 8.61016C15.6299 8.57923 15.7025 8.5185 15.7483 8.43885L16.0045 7.99194C16.3321 8.05132 16.6677 8.05132 16.9952 7.99194L17.2515 8.43885C17.2973 8.5185 17.3699 8.57923 17.4564 8.61016C17.5429 8.64109 17.6376 8.64019 17.7234 8.60762C18.0879 8.47106 18.427 8.27459 18.7267 8.02631C18.7972 7.96825 18.8447 7.88699 18.8607 7.79708C18.8767 7.70717 18.8602 7.61449 18.8142 7.53564L18.5579 7.08872C18.7749 6.83637 18.9434 6.54604 19.0548 6.23239H19.5705C19.6622 6.23192 19.7508 6.19904 19.8205 6.13955C19.8903 6.08007 19.9368 5.99782 19.9518 5.90736C20.016 5.52354 20.0161 5.13173 19.9521 4.74787V4.74818ZM15.6767 6.15457C14.7516 4.95133 16.1236 3.57619 17.3268 4.50441C18.2516 5.70734 16.8799 7.07935 15.6767 6.15426V6.15457Z" fill="white"/>
<path d="M13.1261 11.4888L12.0732 10.964C12.1951 10.3081 12.1951 9.63537 12.0732 8.97947L13.1264 8.45441C13.4421 8.27002 13.564 7.88561 13.439 7.54495C13.1608 6.78863 12.6295 6.09481 12.1232 5.4885C12.01 5.354 11.853 5.26367 11.6799 5.23338C11.5067 5.20308 11.3284 5.23477 11.1763 5.32286L10.2668 5.84791C9.76049 5.41519 9.17887 5.07936 8.551 4.85719V3.80709C8.55052 3.63018 8.48753 3.45913 8.37316 3.32416C8.25878 3.1892 8.10038 3.099 7.92594 3.06952C7.13959 2.9377 6.3367 2.93876 5.55071 3.07264C5.37855 3.10356 5.22277 3.19411 5.1107 3.3284C4.99863 3.4627 4.93743 3.63217 4.93784 3.80709V4.86032C4.30939 5.08125 3.72756 5.41721 3.22204 5.85104L2.31258 5.32567C2.16048 5.23746 1.98213 5.2057 1.80893 5.236C1.63572 5.2663 1.47874 5.3567 1.36561 5.49131C0.859315 6.09762 0.324889 6.79144 0.0467368 7.54776C-0.0148026 7.71322 -0.015593 7.89516 0.0445063 8.06115C0.104606 8.22714 0.22169 8.36639 0.374894 8.4541L1.41562 8.98228C1.29373 9.63714 1.29373 10.3089 1.41562 10.9637L0.374894 11.4888C0.22231 11.5779 0.10587 11.7178 0.0458944 11.884C-0.0140811 12.0502 -0.0137829 12.2322 0.0467368 12.3982C0.324889 13.1514 0.859315 13.8453 1.36561 14.4516C1.47882 14.5861 1.63578 14.6764 1.80896 14.7067C1.98213 14.737 2.16044 14.7053 2.31258 14.6172L3.22204 14.0953C3.72834 14.528 4.30996 14.8638 4.93784 15.086V16.1361C4.93831 16.313 5.0013 16.4841 5.11568 16.619C5.23006 16.754 5.38846 16.8442 5.5629 16.8737C6.34789 17.0081 7.15001 17.0081 7.935 16.8737C8.10791 16.8426 8.26437 16.7517 8.37694 16.6168C8.48952 16.482 8.55103 16.3118 8.55069 16.1361V15.086C9.17913 14.8651 9.76096 14.5291 10.2665 14.0953L11.1759 14.6203C11.328 14.7085 11.5064 14.7403 11.6796 14.71C11.8528 14.6797 12.0098 14.5893 12.1229 14.4547C12.6292 13.8484 13.1761 13.1546 13.4543 12.3982C13.5156 12.2323 13.5163 12.05 13.4563 11.8836C13.3962 11.7172 13.2793 11.5773 13.1261 11.4888ZM8.39755 11.6232C5.99106 13.4733 3.24392 10.7262 5.0941 8.31971C7.50058 6.46953 10.248 9.21668 8.39786 11.6232H8.39755Z" fill="white"/>
</g>
<defs>
<clipPath id="clip0">
<rect width="20" height="20" fill="white"/>
</clipPath>
</defs>
</svg>
