<svg width="20" height="20" viewBox="0 0 20 20" fill="none" xmlns="http://www.w3.org/2000/svg">
<g clip-path="url(#clip0)">
<path opacity="0.4" d="M19.375 15H6.875C6.70924 15 6.55027 15.0658 6.43306 15.1831C6.31585 15.3003 6.25 15.4592 6.25 15.625V16.875C6.25 17.0408 6.31585 17.1997 6.43306 17.3169C6.55027 17.4342 6.70924 17.5 6.875 17.5H19.375C19.5408 17.5 19.6997 17.4342 19.8169 17.3169C19.9342 17.1997 20 17.0408 20 16.875V15.625C20 15.4592 19.9342 15.3003 19.8169 15.1831C19.6997 15.0658 19.5408 15 19.375 15ZM19.375 2.5H6.875C6.70924 2.5 6.55027 2.56585 6.43306 2.68306C6.31585 2.80027 6.25 2.95924 6.25 3.125V4.375C6.25 4.54076 6.31585 4.69973 6.43306 4.81694C6.55027 4.93415 6.70924 5 6.875 5H19.375C19.5408 5 19.6997 4.93415 19.8169 4.81694C19.9342 4.69973 20 4.54076 20 4.375V3.125C20 2.95924 19.9342 2.80027 19.8169 2.68306C19.6997 2.56585 19.5408 2.5 19.375 2.5ZM19.375 8.75H6.875C6.70924 8.75 6.55027 8.81585 6.43306 8.93306C6.31585 9.05027 6.25 9.20924 6.25 9.375V10.625C6.25 10.7908 6.31585 10.9497 6.43306 11.0669C6.55027 11.1842 6.70924 11.25 6.875 11.25H19.375C19.5408 11.25 19.6997 11.1842 19.8169 11.0669C19.9342 10.9497 20 10.7908 20 10.625V9.375C20 9.20924 19.9342 9.05027 19.8169 8.93306C19.6997 8.81585 19.5408 8.75 19.375 8.75Z" fill="white"/>
<path d="M1.875 1.875C1.50416 1.875 1.14165 1.98497 0.833307 2.19099C0.524964 2.39702 0.284641 2.68986 0.142727 3.03247C0.000812411 3.37508 -0.0363188 3.75208 0.0360284 4.11579C0.108376 4.47951 0.286952 4.8136 0.549176 5.07583C0.811399 5.33805 1.14549 5.51662 1.50921 5.58897C1.87292 5.66132 2.24992 5.62419 2.59253 5.48227C2.93514 5.34036 3.22798 5.10004 3.43401 4.79169C3.64003 4.48335 3.75 4.12084 3.75 3.75C3.75 3.25272 3.55246 2.77581 3.20083 2.42417C2.8492 2.07254 2.37228 1.875 1.875 1.875ZM1.875 8.125C1.50416 8.125 1.14165 8.23497 0.833307 8.44099C0.524964 8.64702 0.284641 8.93986 0.142727 9.28247C0.000812411 9.62508 -0.0363188 10.0021 0.0360284 10.3658C0.108376 10.7295 0.286952 11.0636 0.549176 11.3258C0.811399 11.588 1.14549 11.7666 1.50921 11.839C1.87292 11.9113 2.24992 11.8742 2.59253 11.7323C2.93514 11.5904 3.22798 11.35 3.43401 11.0417C3.64003 10.7334 3.75 10.3708 3.75 10C3.75 9.50272 3.55246 9.0258 3.20083 8.67417C2.8492 8.32254 2.37228 8.125 1.875 8.125ZM1.875 14.375C1.50416 14.375 1.14165 14.485 0.833307 14.691C0.524964 14.897 0.284641 15.1899 0.142727 15.5325C0.000812411 15.8751 -0.0363188 16.2521 0.0360284 16.6158C0.108376 16.9795 0.286952 17.3136 0.549176 17.5758C0.811399 17.838 1.14549 18.0166 1.50921 18.089C1.87292 18.1613 2.24992 18.1242 2.59253 17.9823C2.93514 17.8404 3.22798 17.6 3.43401 17.2917C3.64003 16.9833 3.75 16.6208 3.75 16.25C3.75 15.7527 3.55246 15.2758 3.20083 14.9242C2.8492 14.5725 2.37228 14.375 1.875 14.375Z" fill="white"/>
</g>
<defs>
<clipPath id="clip0">
<rect width="20" height="20" fill="white"/>
</clipPath>
</defs>
</svg>
