<svg width="21" height="20" viewBox="0 0 21 20" fill="none" xmlns="http://www.w3.org/2000/svg">
<g clip-path="url(#clip0)">
<path opacity="0.4" d="M10.5 7.8125C9.82013 7.8125 9.15552 8.01411 8.59023 8.39182C8.02493 8.76954 7.58434 9.3064 7.32417 9.93452C7.06399 10.5626 6.99592 11.2538 7.12855 11.9206C7.26119 12.5874 7.58858 13.1999 8.06932 13.6807C8.55006 14.1614 9.16257 14.4888 9.82938 14.6214C10.4962 14.7541 11.1874 14.686 11.8155 14.4258C12.4436 14.1656 12.9805 13.7251 13.3582 13.1598C13.7359 12.5945 13.9375 11.9299 13.9375 11.25C13.9362 10.3387 13.5736 9.46517 12.9292 8.8208C12.2848 8.17644 11.4113 7.81384 10.5 7.8125ZM10.5 10C10.1688 10.0009 9.85136 10.1329 9.61714 10.3671C9.38292 10.6014 9.25093 10.9188 9.25 11.25C9.25 11.4158 9.18415 11.5747 9.06694 11.6919C8.94973 11.8091 8.79076 11.875 8.625 11.875C8.45924 11.875 8.30027 11.8091 8.18306 11.6919C8.06585 11.5747 8 11.4158 8 11.25C8.00062 10.5871 8.26421 9.95162 8.73292 9.48292C9.20163 9.01421 9.83715 8.75062 10.5 8.75C10.6658 8.75 10.8247 8.81585 10.9419 8.93306C11.0592 9.05027 11.125 9.20924 11.125 9.375C11.125 9.54076 11.0592 9.69973 10.9419 9.81694C10.8247 9.93415 10.6658 10 10.5 10Z" fill="white"/>
<path d="M18.625 3.75H15.1875L14.7031 2.46484C14.5692 2.10785 14.3296 1.80024 14.0161 1.58315C13.7027 1.36606 13.3305 1.24983 12.9492 1.25H8.04688C7.66561 1.24983 7.29337 1.36606 6.97995 1.58315C6.66652 1.80024 6.42685 2.10785 6.29297 2.46484L5.8125 3.75H2.375C1.87772 3.75 1.40081 3.94754 1.04917 4.29918C0.697544 4.65081 0.5 5.12772 0.5 5.625L0.5 16.875C0.5 17.3723 0.697544 17.8492 1.04917 18.2008C1.40081 18.5525 1.87772 18.75 2.375 18.75H18.625C19.1223 18.75 19.5992 18.5525 19.9508 18.2008C20.3025 17.8492 20.5 17.3723 20.5 16.875V5.625C20.5 5.12772 20.3025 4.65081 19.9508 4.29918C19.5992 3.94754 19.1223 3.75 18.625 3.75ZM10.5 15.9375C9.5729 15.9375 8.66662 15.6626 7.89576 15.1475C7.12491 14.6324 6.5241 13.9004 6.16931 13.0438C5.81453 12.1873 5.7217 11.2448 5.90257 10.3355C6.08344 9.42623 6.52988 8.591 7.18544 7.93544C7.841 7.27988 8.67623 6.83344 9.58551 6.65257C10.4948 6.4717 11.4373 6.56453 12.2938 6.91931C13.1504 7.2741 13.8824 7.87491 14.3975 8.64576C14.9126 9.41662 15.1875 10.3229 15.1875 11.25C15.1865 12.4929 14.6923 13.6846 13.8134 14.5634C12.9346 15.4423 11.7429 15.9365 10.5 15.9375Z" fill="white"/>
</g>
<defs>
<clipPath id="clip0">
<rect width="20" height="20" fill="white" transform="translate(0.5)"/>
</clipPath>
</defs>
</svg>
