<svg width="24" height="24" viewBox="0 0 24 24" fill="none" xmlns="http://www.w3.org/2000/svg">
<path opacity="0.4" d="M19.8 15.6001H18.6203L15.5149 13.2001H19.8C19.9592 13.2001 20.1118 13.2633 20.2243 13.3758C20.3368 13.4883 20.4 13.6409 20.4 13.8001V15.0001C20.4 15.1592 20.3368 15.3118 20.2243 15.4243C20.1118 15.5368 19.9592 15.6001 19.8 15.6001ZM3.6001 13.8001V15.0001C3.6001 15.1592 3.66331 15.3118 3.77583 15.4243C3.88835 15.5368 4.04097 15.6001 4.2001 15.6001H10.7705L7.66546 13.2001H4.2001C4.04097 13.2001 3.88835 13.2633 3.77583 13.3758C3.66331 13.4883 3.6001 13.6409 3.6001 13.8001ZM19.8 6.00009C19.9592 6.00009 20.1118 5.93688 20.2243 5.82435C20.3368 5.71183 20.4 5.55922 20.4 5.40009V4.2001C20.4 4.04097 20.3368 3.88835 20.2243 3.77583C20.1118 3.66331 19.9592 3.6001 19.8 3.6001H4.2001C4.07394 3.60109 3.95139 3.64227 3.85023 3.71767C3.74908 3.79306 3.6746 3.89873 3.6376 4.01935L6.19921 6.00009H19.8ZM4.2001 18.0001C4.04097 18.0001 3.88835 18.0633 3.77583 18.1758C3.66331 18.2883 3.6001 18.4409 3.6001 18.6001V19.8C3.6001 19.9592 3.66331 20.1118 3.77583 20.2243C3.88835 20.3368 4.04097 20.4 4.2001 20.4H16.9812L13.8751 18.0001H4.2001ZM19.8 8.40008H9.30458L12.4099 10.8001H19.8C19.9592 10.8001 20.1118 10.7369 20.2243 10.6243C20.3368 10.5118 20.4 10.3592 20.4 10.2001V9.00008C20.4 8.84095 20.3368 8.68834 20.2243 8.57582C20.1118 8.4633 19.9592 8.40008 19.8 8.40008Z" fill="#8D98B4"/>
<path d="M23.7681 19.5784L1.70466 2.5265C1.64245 2.47809 1.57131 2.44241 1.49531 2.42151C1.4193 2.4006 1.33992 2.39488 1.26171 2.40467C1.18349 2.41445 1.10797 2.43955 1.03945 2.47854C0.970942 2.51752 0.910784 2.56963 0.862416 2.63187L0.126294 3.57949C0.0286432 3.70511 -0.0151132 3.86437 0.00464778 4.02225C0.0244088 4.18013 0.106069 4.32369 0.231668 4.42137L22.2951 21.4733C22.3573 21.5217 22.4285 21.5574 22.5045 21.5783C22.5805 21.5992 22.6598 21.6049 22.7381 21.5951C22.8163 21.5854 22.8918 21.5603 22.9603 21.5213C23.0288 21.4823 23.089 21.4302 23.1373 21.3679L23.8738 20.4203C23.9715 20.2947 24.0152 20.1354 23.9953 19.9775C23.9755 19.8196 23.8938 19.6761 23.7681 19.5784V19.5784Z" fill="#8D98B4"/>
</svg>
