<svg width="24" height="24" viewBox="0 0 24 24" fill="none" xmlns="http://www.w3.org/2000/svg">
<path opacity="0.4" d="M21.4286 0H2.57143C1.88944 0 1.23539 0.270918 0.753154 0.753154C0.270918 1.23539 0 1.88944 0 2.57143L0 21.4286C0 22.1106 0.270918 22.7646 0.753154 23.2468C1.23539 23.7291 1.88944 24 2.57143 24H21.4286C22.1106 24 22.7646 23.7291 23.2468 23.2468C23.7291 22.7646 24 22.1106 24 21.4286V2.57143C24 1.88944 23.7291 1.23539 23.2468 0.753154C22.7646 0.270918 22.1106 0 21.4286 0V0ZM20.0143 12.9804L19.4304 13.5696C19.3092 13.6906 19.1651 13.7861 19.0066 13.8506C18.8481 13.9151 18.6782 13.9473 18.5071 13.9453C18.336 13.9433 18.1669 13.9071 18.0099 13.8389C17.8529 13.7708 17.7111 13.6719 17.5929 13.5482L13.7143 9.50357V19.2857C13.7147 19.4547 13.6817 19.6221 13.6173 19.7782C13.5528 19.9344 13.4581 20.0763 13.3387 20.1958C13.2192 20.3153 13.0773 20.41 12.9211 20.4744C12.7649 20.5389 12.5975 20.5719 12.4286 20.5714H11.5714C11.4025 20.5719 11.2351 20.5389 11.0789 20.4744C10.9227 20.41 10.7808 20.3153 10.6613 20.1958C10.5419 20.0763 10.4472 19.9344 10.3827 19.7782C10.3183 19.6221 10.2853 19.4547 10.2857 19.2857V9.50357L6.40714 13.5482C6.2882 13.6718 6.14588 13.7704 5.98847 13.8385C5.83105 13.9065 5.66168 13.9426 5.4902 13.9446C5.31872 13.9465 5.14855 13.9144 4.9896 13.8501C4.83064 13.7857 4.68607 13.6904 4.56429 13.5696L3.98036 12.9804C3.86066 12.8614 3.76567 12.7199 3.70085 12.564C3.63602 12.4082 3.60265 12.2411 3.60265 12.0723C3.60265 11.9035 3.63602 11.7364 3.70085 11.5806C3.76567 11.4248 3.86066 11.2833 3.98036 11.1643L11.0946 4.05536C11.2136 3.93566 11.3551 3.84067 11.5109 3.77585C11.6668 3.71103 11.8339 3.67765 12.0027 3.67765C12.1715 3.67765 12.3386 3.71103 12.4944 3.77585C12.6502 3.84067 12.7917 3.93566 12.9107 4.05536L20.0143 11.1643C20.134 11.2833 20.229 11.4248 20.2938 11.5806C20.3586 11.7364 20.392 11.9035 20.392 12.0723C20.392 12.2411 20.3586 12.4082 20.2938 12.564C20.229 12.7199 20.134 12.8614 20.0143 12.9804V12.9804Z" fill="#8D98B4"/>
<path d="M4.56417 13.5687L3.98024 12.9795C3.86054 12.8605 3.76555 12.719 3.70073 12.5632C3.63591 12.4073 3.60254 12.2402 3.60254 12.0714C3.60254 11.9026 3.63591 11.7355 3.70073 11.5797C3.76555 11.4239 3.86054 11.2824 3.98024 11.1634L11.0945 4.05446C11.2135 3.93476 11.355 3.83977 11.5108 3.77495C11.6667 3.71013 11.8338 3.67676 12.0026 3.67676C12.1713 3.67676 12.3385 3.71013 12.4943 3.77495C12.6501 3.83977 12.7916 3.93476 12.9106 4.05446L20.0142 11.1634C20.1339 11.2824 20.2289 11.4239 20.2937 11.5797C20.3585 11.7355 20.3919 11.9026 20.3919 12.0714C20.3919 12.2402 20.3585 12.4073 20.2937 12.5632C20.2289 12.719 20.1339 12.8605 20.0142 12.9795L19.4302 13.5687C19.3091 13.6897 19.165 13.7852 19.0065 13.8497C18.848 13.9142 18.6781 13.9464 18.507 13.9444C18.3358 13.9424 18.1668 13.9062 18.0098 13.838C17.8528 13.7699 17.711 13.671 17.5927 13.5473L13.7142 9.50267V19.2848C13.7146 19.4538 13.6816 19.6212 13.6172 19.7773C13.5527 19.9335 13.458 20.0754 13.3385 20.1949C13.2191 20.3144 13.0772 20.4091 12.921 20.4735C12.7648 20.538 12.5974 20.571 12.4285 20.5705H11.5713C11.4024 20.571 11.235 20.538 11.0788 20.4735C10.9226 20.4091 10.7807 20.3144 10.6612 20.1949C10.5418 20.0754 10.4471 19.9335 10.3826 19.7773C10.3181 19.6212 10.2852 19.4538 10.2856 19.2848V9.50267L6.40703 13.5473C6.28808 13.6709 6.14577 13.7695 5.98835 13.8376C5.83093 13.9056 5.66156 13.9417 5.49008 13.9437C5.3186 13.9457 5.14844 13.9135 4.98948 13.8492C4.83053 13.7848 4.68595 13.6895 4.56417 13.5687V13.5687Z" fill="#8D98B4"/>
</svg>
