<svg width="24" height="24" viewBox="0 0 24 24" fill="none" xmlns="http://www.w3.org/2000/svg">
<path opacity="0.4" d="M8.57178 22.7143V12.0009H15.4343V22.7143C15.4343 23.0553 15.2988 23.3823 15.0577 23.6234C14.8166 23.8645 14.4896 23.9999 14.1487 23.9999H9.85739C9.51643 23.9999 9.18943 23.8645 8.94833 23.6234C8.70723 23.3823 8.57178 23.0553 8.57178 22.7143Z" fill="#8D98B4"/>
<path d="M2.09286 9.80421L11.0895 0.376353C11.3313 0.135337 11.6588 0 12.0001 0C12.3415 0 12.669 0.135337 12.9108 0.376353L21.9058 9.80421C22.7152 10.6125 22.1415 12.0005 20.9952 12.0005H3.00351C1.85609 12.0005 1.28667 10.6238 2.09286 9.80421Z" fill="#8D98B4"/>
</svg>
