<svg width="24" height="24" viewBox="0 0 24 24" fill="none" xmlns="http://www.w3.org/2000/svg">
<path opacity="0.4" d="M20.4 19.8V21C20.4 21.1591 20.3368 21.3117 20.2243 21.4242C20.1117 21.5367 19.9591 21.6 19.8 21.6H4.20009C4.04096 21.6 3.88835 21.5367 3.77583 21.4242C3.66331 21.3117 3.6001 21.1591 3.6001 21V19.8C3.6001 19.6408 3.66331 19.4882 3.77583 19.3757C3.88835 19.2632 4.04096 19.2 4.20009 19.2H10.8001V8.14691C10.3594 7.95454 9.97131 7.65912 9.66858 7.28551C9.36584 6.91191 9.15728 6.47106 9.06044 6.00005H4.20009C4.04096 6.00005 3.88835 5.93684 3.77583 5.82432C3.66331 5.7118 3.6001 5.55919 3.6001 5.40006V4.20006C3.6001 4.04094 3.66331 3.88832 3.77583 3.7758C3.88835 3.66328 4.04096 3.60007 4.20009 3.60007H9.61356C9.89016 3.22774 10.25 2.9253 10.6644 2.71693C11.0788 2.50855 11.5362 2.40002 12 2.40002C12.4639 2.40002 12.9213 2.50855 13.3357 2.71693C13.75 2.9253 14.1099 3.22774 14.3865 3.60007H19.8C19.9591 3.60007 20.1117 3.66328 20.2243 3.7758C20.3368 3.88832 20.4 4.04094 20.4 4.20006V5.40006C20.4 5.55919 20.3368 5.7118 20.2243 5.82432C20.1117 5.93684 19.9591 6.00005 19.8 6.00005H14.9396C14.8428 6.47106 14.6342 6.91191 14.3315 7.28551C14.0288 7.65912 13.6407 7.95454 13.2 8.14691V19.2H19.8C19.9591 19.2 20.1117 19.2632 20.2243 19.3757C20.3368 19.4882 20.4 19.6408 20.4 19.8Z" fill="#8D98B4"/>
<path d="M9.60008 15.0004C9.60008 14.3937 9.65033 14.673 6.4126 8.19383C5.75073 6.87046 3.8555 6.86784 3.19251 8.19383C-0.0770922 14.7285 0.000157274 14.4128 0.000157274 15.0004C0.000157274 16.6571 2.14926 18.0004 4.80012 18.0004C7.45097 18.0004 9.60008 16.6571 9.60008 15.0004ZM4.80012 9.00045L7.50009 14.4004H2.10014L4.80012 9.00045ZM24 15.0004C24 14.3937 24.0502 14.673 20.8106 8.19383C20.1487 6.87046 18.2535 6.86784 17.5905 8.19383C14.3228 14.7285 14.4 14.4128 14.4 15.0004C14.4 16.6571 16.5491 18.0004 19.2 18.0004C21.8508 18.0004 24 16.6571 24 15.0004ZM16.5 14.4004L19.2 9.00045L21.9 14.4004H16.5Z" fill="#8D98B4"/>
</svg>
