<svg width="24" height="24" viewBox="0 0 24 24" fill="none" xmlns="http://www.w3.org/2000/svg">
<path opacity="0.4" d="M15 13.5H24V20.25C24 21.45 22.95 22.5 21.75 22.5H2.25C1.05 22.5 0 21.45 0 20.25V13.5H9V15.75C9 15.9489 9.07902 16.1397 9.21967 16.2803C9.36032 16.421 9.55109 16.5 9.75 16.5H14.25C14.4489 16.5 14.6397 16.421 14.7803 16.2803C14.921 16.1397 15 15.9489 15 15.75V13.5Z" fill="#8D98B4"/>
<path d="M21.75 6H18V3.75C18 2.55 16.95 1.5 15.75 1.5H8.25C7.05 1.5 6 2.55 6 3.75V6H2.25C1.05 6 0 7.05 0 8.25V12H24V8.25C24 7.05 22.95 6 21.75 6ZM15 6H9V4.5H15V6Z" fill="#8D98B4"/>
</svg>
