<svg width="24" height="24" viewBox="0 0 24 24" fill="none" xmlns="http://www.w3.org/2000/svg">
<path opacity="0.4" d="M6.9 18H5.1C4.8 18 4.5 18.3 4.5 18.6V20.4C4.5 20.7 4.8 21 5.1 21H6.9C7.2 21 7.5 20.7 7.5 20.4V18.6C7.5 18.3 7.2 18 6.9 18V18ZM6.9 12H5.1C4.8 12 4.5 12.3 4.5 12.6V14.4C4.5 14.7 4.8 15 5.1 15H6.9C7.2 15 7.5 14.7 7.5 14.4V12.6C7.5 12.3 7.2 12 6.9 12V12ZM12.9 18H11.1C10.8 18 10.5 18.3 10.5 18.6V20.4C10.5 20.7 10.8 21 11.1 21H12.9C13.2 21 13.5 20.7 13.5 20.4V18.6C13.5 18.3 13.2 18 12.9 18ZM12.9 12H11.1C10.8 12 10.5 12.3 10.5 12.6V14.4C10.5 14.7 10.8 15 11.1 15H12.9C13.2 15 13.5 14.7 13.5 14.4V12.6C13.5 12.3 13.2 12 12.9 12ZM18.9 12H17.1C16.8 12 16.5 12.3 16.5 12.6V20.4C16.5 20.7 16.8 21 17.1 21H18.9C19.2 21 19.5 20.7 19.5 20.4V12.6C19.5 12.3 19.2 12 18.9 12Z" fill="#8D98B4"/>
<path d="M20.25 0H3.75C2.55 0 1.5 1.05 1.5 2.25V21.75C1.5 22.95 2.55 24 3.75 24H20.25C21.45 24 22.5 22.95 22.5 21.75V2.25C22.5 1.05 21.45 0 20.25 0ZM7.5 20.4C7.5 20.7 7.2 21 6.9 21H5.1C4.8 21 4.5 20.7 4.5 20.4V18.6C4.5 18.3 4.8 18 5.1 18H6.9C7.2 18 7.5 18.3 7.5 18.6V20.4ZM7.5 14.4C7.5 14.7 7.2 15 6.9 15H5.1C4.8 15 4.5 14.7 4.5 14.4V12.6C4.5 12.3 4.8 12 5.1 12H6.9C7.2 12 7.5 12.3 7.5 12.6V14.4ZM13.5 20.4C13.5 20.7 13.2 21 12.9 21H11.1C10.8 21 10.5 20.7 10.5 20.4V18.6C10.5 18.3 10.8 18 11.1 18H12.9C13.2 18 13.5 18.3 13.5 18.6V20.4ZM13.5 14.4C13.5 14.7 13.2 15 12.9 15H11.1C10.8 15 10.5 14.7 10.5 14.4V12.6C10.5 12.3 10.8 12 11.1 12H12.9C13.2 12 13.5 12.3 13.5 12.6V14.4ZM19.5 20.4C19.5 20.7 19.2 21 18.9 21H17.1C16.8 21 16.5 20.7 16.5 20.4V12.6C16.5 12.3 16.8 12 17.1 12H18.9C19.2 12 19.5 12.3 19.5 12.6V20.4ZM19.5 8.4C19.5 8.7 19.2 9 18.9 9H5.1C4.8 9 4.5 8.7 4.5 8.4V3.6C4.5 3.3 4.8 3 5.1 3H18.9C19.2 3 19.5 3.3 19.5 3.6V8.4Z" fill="#8D98B4"/>
</svg>
