<svg width="24" height="24" viewBox="0 0 24 24" fill="none" xmlns="http://www.w3.org/2000/svg">
<path opacity="0.4" d="M1.5 9V21.75C1.5 22.3467 1.73705 22.919 2.15901 23.341C2.58097 23.7629 3.15326 24 3.75 24H20.25C20.8467 24 21.419 23.7629 21.841 23.341C22.2629 22.919 22.5 22.3467 22.5 21.75V9H1.5ZM17.6841 14.2969L10.9809 20.9437C10.9287 20.9962 10.8666 21.0378 10.7982 21.0662C10.7298 21.0946 10.6565 21.1092 10.5825 21.1092C10.5085 21.1092 10.4352 21.0946 10.3668 21.0662C10.2984 21.0378 10.2363 20.9962 10.1841 20.9437L6.31219 17.0409C6.25993 16.9885 6.21854 16.9263 6.19039 16.8578C6.16224 16.7893 6.14789 16.7159 6.14815 16.6419C6.14841 16.5679 6.16328 16.4946 6.19192 16.4264C6.22055 16.3581 6.26238 16.2961 6.315 16.2441L6.31875 16.2403L7.65 14.9198C7.70226 14.8674 7.76435 14.8258 7.83273 14.7974C7.9011 14.769 7.9744 14.7544 8.04844 14.7544C8.12247 14.7544 8.19577 14.769 8.26415 14.7974C8.33252 14.8258 8.39462 14.8674 8.44687 14.9198L10.6031 17.093L15.5719 12.1622C15.6241 12.1097 15.6862 12.0681 15.7546 12.0397C15.823 12.0114 15.8963 11.9967 15.9703 11.9967C16.0443 11.9967 16.1176 12.0114 16.186 12.0397C16.2544 12.0681 16.3165 12.1097 16.3688 12.1622L17.6859 13.5C17.7383 13.5524 17.7797 13.6146 17.8079 13.683C17.8362 13.7515 17.8506 13.8248 17.8504 13.8988C17.8503 13.9729 17.8355 14.0461 17.8069 14.1144C17.7784 14.1827 17.7366 14.2447 17.6841 14.2969V14.2969ZM15.75 6H17.25C17.4489 6 17.6397 5.92098 17.7803 5.78033C17.921 5.63968 18 5.44891 18 5.25V0.75C18 0.551088 17.921 0.360322 17.7803 0.21967C17.6397 0.0790176 17.4489 0 17.25 0L15.75 0C15.5511 0 15.3603 0.0790176 15.2197 0.21967C15.079 0.360322 15 0.551088 15 0.75V5.25C15 5.44891 15.079 5.63968 15.2197 5.78033C15.3603 5.92098 15.5511 6 15.75 6ZM6.75 6H8.25C8.44891 6 8.63968 5.92098 8.78033 5.78033C8.92098 5.63968 9 5.44891 9 5.25V0.75C9 0.551088 8.92098 0.360322 8.78033 0.21967C8.63968 0.0790176 8.44891 0 8.25 0L6.75 0C6.55109 0 6.36032 0.0790176 6.21967 0.21967C6.07902 0.360322 6 0.551088 6 0.75V5.25C6 5.44891 6.07902 5.63968 6.21967 5.78033C6.36032 5.92098 6.55109 6 6.75 6Z" fill="#8D98B4"/>
<path d="M17.6873 13.5L16.3655 12.1688C16.3135 12.116 16.2517 12.074 16.1835 12.0452C16.1153 12.0164 16.042 12.0014 15.968 12.001C15.894 12.0005 15.8206 12.0147 15.752 12.0427C15.6835 12.0707 15.6212 12.1119 15.5686 12.1641L10.5998 17.0948L8.44359 14.9217C8.39161 14.869 8.32974 14.8271 8.26152 14.7983C8.19329 14.7696 8.12007 14.7546 8.04603 14.7542C7.972 14.7538 7.89862 14.768 7.83009 14.796C7.76157 14.8241 7.69925 14.8653 7.64672 14.9175L6.31547 16.238C6.26272 16.2899 6.22075 16.3518 6.19195 16.42C6.16316 16.4882 6.14811 16.5614 6.14768 16.6354C6.14724 16.7095 6.16143 16.7829 6.18941 16.8514C6.2174 16.9199 6.25865 16.9823 6.31078 17.0348L10.1827 20.9377C10.2346 20.9904 10.2965 21.0324 10.3647 21.0612C10.4329 21.09 10.5061 21.105 10.5801 21.1054C10.6542 21.1059 10.7275 21.0917 10.7961 21.0637C10.8646 21.0357 10.927 20.9945 10.9795 20.9423L17.6827 14.2955C17.7354 14.2435 17.7774 14.1817 17.8062 14.1135C17.835 14.0453 17.85 13.972 17.8504 13.898C17.8509 13.824 17.8367 13.7506 17.8087 13.682C17.7807 13.6135 17.7395 13.5512 17.6873 13.4986V13.5ZM20.25 3H18V5.25C18 5.44891 17.921 5.63968 17.7803 5.78033C17.6397 5.92098 17.4489 6 17.25 6H15.75C15.5511 6 15.3603 5.92098 15.2197 5.78033C15.079 5.63968 15 5.44891 15 5.25V3H9V5.25C9 5.44891 8.92098 5.63968 8.78033 5.78033C8.63968 5.92098 8.44891 6 8.25 6H6.75C6.55109 6 6.36032 5.92098 6.21967 5.78033C6.07902 5.63968 6 5.44891 6 5.25V3H3.75C3.15326 3 2.58097 3.23705 2.15901 3.65901C1.73705 4.08097 1.5 4.65326 1.5 5.25L1.5 9H22.5V5.25C22.5 4.65326 22.2629 4.08097 21.841 3.65901C21.419 3.23705 20.8467 3 20.25 3V3Z" fill="#8D98B4"/>
</svg>
