<svg width="24" height="24" viewBox="0 0 24 24" fill="none" xmlns="http://www.w3.org/2000/svg">
<path opacity="0.4" d="M1.5 9V21.75C1.5 22.3467 1.73705 22.919 2.15901 23.341C2.58097 23.7629 3.15326 24 3.75 24H20.25C20.8467 24 21.419 23.7629 21.841 23.341C22.2629 22.919 22.5 22.3467 22.5 21.75V9H1.5ZM10.5 17.25C10.5 17.4489 10.421 17.6397 10.2803 17.7803C10.1397 17.921 9.94891 18 9.75 18H5.25C5.05109 18 4.86032 17.921 4.71967 17.7803C4.57902 17.6397 4.5 17.4489 4.5 17.25V12.75C4.5 12.5511 4.57902 12.3603 4.71967 12.2197C4.86032 12.079 5.05109 12 5.25 12H9.75C9.94891 12 10.1397 12.079 10.2803 12.2197C10.421 12.3603 10.5 12.5511 10.5 12.75V17.25ZM15.75 6H17.25C17.4489 6 17.6397 5.92098 17.7803 5.78033C17.921 5.63968 18 5.44891 18 5.25V0.75C18 0.551088 17.921 0.360322 17.7803 0.21967C17.6397 0.0790176 17.4489 0 17.25 0L15.75 0C15.5511 0 15.3603 0.0790176 15.2197 0.21967C15.079 0.360322 15 0.551088 15 0.75V5.25C15 5.44891 15.079 5.63968 15.2197 5.78033C15.3603 5.92098 15.5511 6 15.75 6ZM6.75 6H8.25C8.44891 6 8.63968 5.92098 8.78033 5.78033C8.92098 5.63968 9 5.44891 9 5.25V0.75C9 0.551088 8.92098 0.360322 8.78033 0.21967C8.63968 0.0790176 8.44891 0 8.25 0L6.75 0C6.55109 0 6.36032 0.0790176 6.21967 0.21967C6.07902 0.360322 6 0.551088 6 0.75V5.25C6 5.44891 6.07902 5.63968 6.21967 5.78033C6.36032 5.92098 6.55109 6 6.75 6Z" fill="#8D98B4"/>
<path d="M22.5 5.25V9H1.5V5.25C1.5 4.65326 1.73705 4.08097 2.15901 3.65901C2.58097 3.23705 3.15326 3 3.75 3H6V5.25C6 5.44891 6.07902 5.63968 6.21967 5.78033C6.36032 5.92098 6.55109 6 6.75 6H8.25C8.44891 6 8.63968 5.92098 8.78033 5.78033C8.92098 5.63968 9 5.44891 9 5.25V3H15V5.25C15 5.44891 15.079 5.63968 15.2197 5.78033C15.3603 5.92098 15.5511 6 15.75 6H17.25C17.4489 6 17.6397 5.92098 17.7803 5.78033C17.921 5.63968 18 5.44891 18 5.25V3H20.25C20.8467 3 21.419 3.23705 21.841 3.65901C22.2629 4.08097 22.5 4.65326 22.5 5.25V5.25Z" fill="#8D98B4"/>
</svg>
