<svg width="24" height="24" viewBox="0 0 24 24" fill="none" xmlns="http://www.w3.org/2000/svg">
<path opacity="0.4" d="M24 18.75V20.25C24 20.4489 23.921 20.6397 23.7803 20.7803C23.6397 20.921 23.4489 21 23.25 21H1.5C1.10218 21 0.720644 20.842 0.43934 20.5607C0.158035 20.2794 0 19.8978 0 19.5V3.75C0 3.55109 0.0790176 3.36032 0.21967 3.21967C0.360322 3.07902 0.551088 3 0.75 3H2.25C2.44891 3 2.63968 3.07902 2.78033 3.21967C2.92098 3.36032 3 3.55109 3 3.75V18H23.25C23.4489 18 23.6397 18.079 23.7803 18.2197C23.921 18.3603 24 18.5511 24 18.75Z" fill="#8D98B4"/>
<path d="M22.4999 5.25V10.7836C22.4999 11.7858 21.2882 12.2878 20.578 11.5805L19.0593 10.0617L14.5593 14.5617C14.278 14.843 13.8965 15.0009 13.4987 15.0009C13.1009 15.0009 12.7195 14.843 12.4382 14.5617L8.99989 11.1211L6.84082 13.2806C6.77118 13.3503 6.68849 13.4055 6.59749 13.4432C6.50648 13.481 6.40894 13.5004 6.31043 13.5004C6.21193 13.5004 6.11439 13.481 6.02338 13.4432C5.93238 13.4055 5.84969 13.3503 5.78004 13.2806L4.71973 12.2203C4.65007 12.1507 4.59481 12.068 4.55711 11.977C4.5194 11.886 4.5 11.7884 4.5 11.6899C4.5 11.5914 4.5194 11.4939 4.55711 11.4029C4.59481 11.3119 4.65007 11.2292 4.71973 11.1595L7.93957 7.93969C8.22087 7.65845 8.60235 7.50046 9.00012 7.50046C9.39789 7.50046 9.77937 7.65845 10.0607 7.93969L13.4999 11.3789L16.9391 7.93922L15.4218 6.42188C14.713 5.71313 15.215 4.5 16.2186 4.5H21.7499C21.9488 4.5 22.1396 4.57902 22.2802 4.71967C22.4209 4.86032 22.4999 5.05109 22.4999 5.25Z" fill="#8D98B4"/>
</svg>
