<svg width="24" height="24" viewBox="0 0 24 24" fill="none" xmlns="http://www.w3.org/2000/svg">
<path opacity="0.4" d="M24 18.75V20.25C24 20.4489 23.921 20.6397 23.7803 20.7803C23.6397 20.921 23.4489 21 23.25 21H1.5C1.10218 21 0.720644 20.842 0.43934 20.5607C0.158035 20.2794 0 19.8978 0 19.5V3.75C0 3.55109 0.0790176 3.36032 0.21967 3.21967C0.360322 3.07902 0.551088 3 0.75 3H2.25C2.44891 3 2.63968 3.07902 2.78033 3.21967C2.92098 3.36032 3 3.55109 3 3.75V18H23.25C23.4489 18 23.6397 18.079 23.7803 18.2197C23.921 18.3603 24 18.5511 24 18.75Z" fill="#8D98B4"/>
<path d="M21.7499 14.9999H16.2186C15.2164 14.9999 14.7144 13.7882 15.4218 13.078L16.9405 11.5593L13.4999 8.12097L10.0607 11.5607C9.77937 11.8419 9.39789 11.9999 9.00012 11.9999C8.60235 11.9999 8.22087 11.8419 7.93957 11.5607L4.71973 8.34082C4.65007 8.27117 4.59481 8.18849 4.55711 8.09748C4.5194 8.00647 4.5 7.90893 4.5 7.81043C4.5 7.71192 4.5194 7.61438 4.55711 7.52338C4.59481 7.43237 4.65007 7.34968 4.71973 7.28004L5.78004 6.21973C5.84969 6.15007 5.93238 6.09481 6.02338 6.0571C6.11439 6.0194 6.21193 6 6.31043 6C6.40894 6 6.50648 6.0194 6.59749 6.0571C6.68849 6.09481 6.77118 6.15007 6.84082 6.21973L8.99989 8.37879L12.4396 4.9391C12.7209 4.65787 13.1024 4.49988 13.5001 4.49988C13.8979 4.49988 14.2794 4.65787 14.5607 4.9391L19.0607 9.4391L20.578 7.92176C21.2868 7.21301 22.4999 7.71504 22.4999 8.71863V14.2499C22.4999 14.4488 22.4209 14.6396 22.2802 14.7802C22.1396 14.9209 21.9488 14.9999 21.7499 14.9999Z" fill="#8D98B4"/>
</svg>
