<svg width="24" height="24" viewBox="0 0 24 24" fill="none" xmlns="http://www.w3.org/2000/svg">
<path opacity="0.4" d="M24 18.75V20.25C24 20.4489 23.921 20.6397 23.7803 20.7803C23.6397 20.921 23.4489 21 23.25 21H1.5C1.10218 21 0.720644 20.842 0.43934 20.5607C0.158035 20.2794 0 19.8978 0 19.5V3.75C0 3.55109 0.0790176 3.36032 0.21967 3.21967C0.360322 3.07902 0.551088 3 0.75 3H2.25C2.44891 3 2.63968 3.07902 2.78033 3.21967C2.92098 3.36032 3 3.55109 3 3.75V18H23.25C23.4489 18 23.6397 18.079 23.7803 18.2197C23.921 18.3603 24 18.5511 24 18.75Z" fill="#8D98B4"/>
<path d="M12.9 4.5H11.1C10.8 4.5 10.5 4.8 10.5 5.1V14.4C10.5 14.7 10.8 15 11.1 15H12.9C13.2 15 13.5 14.7 13.5 14.4V5.1C13.5 4.8 13.2 4.5 12.9 4.5ZM8.4 10.5H6.6C6.3 10.5 6 10.8 6 11.1V14.4C6 14.7 6.3 15 6.6 15H8.4C8.7 15 9 14.7 9 14.4V11.1C9 10.8 8.7 10.5 8.4 10.5V10.5ZM21.9 3H20.1C19.8 3 19.5 3.3 19.5 3.6V14.4C19.5 14.7 19.8 15 20.1 15H21.9C22.2 15 22.5 14.7 22.5 14.4V3.6C22.5 3.3 22.2 3 21.9 3ZM17.4 7.5H15.6C15.3 7.5 15 7.8 15 8.1V14.4C15 14.7 15.3 15 15.6 15H17.4C17.7 15 18 14.7 18 14.4V8.1C18 7.8 17.7 7.5 17.4 7.5Z" fill="#8D98B4"/>
</svg>
