<svg width="24" height="24" viewBox="0 0 24 24" fill="none" xmlns="http://www.w3.org/2000/svg">
<path opacity="0.4" d="M12 0C5.37097 0 0 5.37097 0 12C0 18.629 5.37097 24 12 24C18.629 24 24 18.629 24 12C24 5.37097 18.629 0 12 0ZM19.515 9.45048L10.6118 18.3537C10.4666 18.4988 10.2698 18.5803 10.0645 18.5803C9.85927 18.5803 9.66243 18.4988 9.51726 18.3537L4.485 13.3215C4.33992 13.1763 4.25842 12.9794 4.25842 12.7742C4.25842 12.569 4.33992 12.3721 4.485 12.2269L5.57952 11.1319C5.65141 11.06 5.73676 11.003 5.8307 10.9641C5.92465 10.9251 6.02533 10.9051 6.12702 10.9051C6.2287 10.9051 6.32939 10.9251 6.42333 10.9641C6.51727 11.003 6.60262 11.06 6.67452 11.1319L10.0645 14.5219L17.3255 7.26097C17.3974 7.18906 17.4827 7.13202 17.5767 7.0931C17.6706 7.05418 17.7713 7.03415 17.873 7.03415C17.9747 7.03415 18.0754 7.05418 18.1693 7.0931C18.2632 7.13202 18.3486 7.18906 18.4205 7.26097L19.515 8.35597C19.6601 8.50114 19.7416 8.69798 19.7416 8.90323C19.7416 9.10847 19.6601 9.30531 19.515 9.45048V9.45048Z" fill="#8D98B4"/>
<path d="M10.6117 18.3531C10.4665 18.4982 10.2696 18.5797 10.0644 18.5797C9.85915 18.5797 9.66231 18.4982 9.51714 18.3531L4.48488 13.3209C4.3398 13.1757 4.2583 12.9788 4.2583 12.7736C4.2583 12.5684 4.3398 12.3715 4.48488 12.2263L5.57939 11.1314C5.65129 11.0594 5.73664 11.0024 5.83058 10.9635C5.92452 10.9246 6.02521 10.9045 6.12689 10.9045C6.22858 10.9045 6.32926 10.9246 6.42321 10.9635C6.51715 11.0024 6.6025 11.0594 6.67439 11.1314L10.0644 14.5213L17.3254 7.26039C17.3973 7.18848 17.4826 7.13144 17.5766 7.09252C17.6705 7.0536 17.7712 7.03357 17.8729 7.03357C17.9745 7.03357 18.0752 7.0536 18.1692 7.09252C18.2631 7.13144 18.3485 7.18848 18.4204 7.26039L19.5149 8.35539C19.66 8.50056 19.7415 8.6974 19.7415 8.90264C19.7415 9.10788 19.66 9.30473 19.5149 9.4499L10.6117 18.3531Z" fill="#8D98B4"/>
</svg>
