<svg width="24" height="24" viewBox="0 0 24 24" fill="none" xmlns="http://www.w3.org/2000/svg">
<path opacity="0.4" d="M12 1.5C5.37281 1.5 0 5.865 0 11.25C0 13.5731 1.00359 15.7031 2.67188 17.3784C2.08406 19.7367 0.126563 21.8438 0.103125 21.8672C0.052761 21.9204 0.0190813 21.9872 0.00624533 22.0593C-0.00659063 22.1314 0.00197925 22.2057 0.0308967 22.273C0.0598141 22.3403 0.107812 22.3977 0.168964 22.438C0.230116 22.4784 0.301743 22.4999 0.375 22.5C3.48094 22.5 5.8125 21.0117 6.96563 20.0916C8.57539 20.6949 10.2809 21.0027 12 21C18.6272 21 24 16.635 24 11.25C24 5.865 18.6272 1.5 12 1.5ZM13.125 15.6769V16.5C13.125 16.6989 13.046 16.8897 12.9053 17.0303C12.7647 17.171 12.5739 17.25 12.375 17.25H11.625C11.4261 17.25 11.2353 17.171 11.0947 17.0303C10.954 16.8897 10.875 16.6989 10.875 16.5V15.6689C10.3433 15.6088 9.83304 15.4248 9.38531 15.1317C9.09375 14.9391 9.06562 14.5172 9.31266 14.2702L10.1339 13.4489C10.3092 13.2736 10.5703 13.2502 10.7953 13.3552C10.9462 13.4242 11.1103 13.4597 11.2762 13.4592H12.8128C12.908 13.459 12.9999 13.4245 13.0716 13.362C13.1434 13.2995 13.1902 13.2132 13.2034 13.119C13.2166 13.0247 13.1954 12.9289 13.1436 12.8491C13.0919 12.7692 13.013 12.7107 12.9216 12.6844L10.5745 12.0141C9.53156 11.7164 8.69953 10.8558 8.56312 9.77953C8.51907 9.43353 8.54409 9.08223 8.63671 8.74596C8.72934 8.40968 8.88774 8.09512 9.10274 7.82048C9.31775 7.54583 9.5851 7.31656 9.8893 7.14593C10.1935 6.9753 10.5285 6.86669 10.875 6.82641V6C10.875 5.80109 10.954 5.61032 11.0947 5.46967C11.2353 5.32902 11.4261 5.25 11.625 5.25H12.375C12.5739 5.25 12.7647 5.32902 12.9053 5.46967C13.046 5.61032 13.125 5.80109 13.125 6V6.83109C13.6567 6.89121 14.167 7.0752 14.6147 7.36828C14.9062 7.56094 14.9344 7.98281 14.6873 8.22984L13.8661 9.05109C13.6908 9.22641 13.4297 9.24984 13.2047 9.14484C13.0538 9.07587 12.8897 9.04037 12.7238 9.04078H11.1872C11.092 9.04096 11.0001 9.07547 10.9284 9.13797C10.8566 9.20048 10.8098 9.28678 10.7966 9.38101C10.7834 9.47525 10.8046 9.5711 10.8564 9.65094C10.9081 9.73078 10.987 9.78926 11.0784 9.81562L13.4255 10.4859C14.4684 10.7841 15.3005 11.6442 15.4369 12.7205C15.4814 13.0667 15.4567 13.4184 15.3643 13.755C15.2719 14.0917 15.1136 14.4066 14.8985 14.6816C14.6835 14.9566 14.416 15.1862 14.1115 15.3571C13.8071 15.5279 13.4718 15.6366 13.125 15.6769V15.6769Z" fill="#8D98B4"/>
<path d="M13.125 15.6769V16.5C13.125 16.6989 13.046 16.8897 12.9053 17.0303C12.7647 17.171 12.5739 17.25 12.375 17.25H11.625C11.4261 17.25 11.2353 17.171 11.0947 17.0303C10.954 16.8897 10.875 16.6989 10.875 16.5V15.6689C10.3432 15.6088 9.83303 15.4248 9.3853 15.1317C9.09374 14.9391 9.06561 14.5172 9.31264 14.2702L10.1339 13.4489C10.3092 13.2736 10.5703 13.2502 10.7953 13.3552C10.9462 13.4242 11.1103 13.4597 11.2762 13.4592H12.8128C12.908 13.459 12.9999 13.4245 13.0716 13.362C13.1434 13.2995 13.1902 13.2132 13.2034 13.119C13.2166 13.0247 13.1954 12.9289 13.1436 12.8491C13.0918 12.7692 13.013 12.7107 12.9215 12.6844L10.5745 12.0141C9.53155 11.7164 8.69952 10.8558 8.56311 9.77953C8.51906 9.43353 8.54407 9.08223 8.6367 8.74596C8.72932 8.40968 8.88772 8.09512 9.10273 7.82048C9.31774 7.54583 9.58508 7.31656 9.88929 7.14593C10.1935 6.9753 10.5285 6.86669 10.875 6.82641V6C10.875 5.80109 10.954 5.61032 11.0947 5.46967C11.2353 5.32902 11.4261 5.25 11.625 5.25H12.375C12.5739 5.25 12.7647 5.32902 12.9053 5.46967C13.046 5.61032 13.125 5.80109 13.125 6V6.83109C13.6567 6.89121 14.1669 7.0752 14.6147 7.36828C14.9062 7.56094 14.9343 7.98281 14.6873 8.22984L13.8661 9.05109C13.6908 9.22641 13.4297 9.24984 13.2047 9.14484C13.0537 9.07587 12.8897 9.04037 12.7237 9.04078H11.1872C11.092 9.04096 11.0001 9.07547 10.9284 9.13797C10.8566 9.20048 10.8098 9.28678 10.7966 9.38101C10.7834 9.47525 10.8046 9.5711 10.8564 9.65094C10.9081 9.73078 10.987 9.78926 11.0784 9.81562L13.4254 10.4859C14.4684 10.7841 15.3004 11.6442 15.4368 12.7205C15.4814 13.0667 15.4567 13.4184 15.3643 13.755C15.2719 14.0917 15.1136 14.4066 14.8985 14.6816C14.6835 14.9566 14.416 15.1862 14.1115 15.3571C13.8071 15.5279 13.4718 15.6366 13.125 15.6769V15.6769Z" fill="#8D98B4"/>
</svg>
