<svg width="24" height="24" viewBox="0 0 24 24" fill="none" xmlns="http://www.w3.org/2000/svg">
<path opacity="0.4" d="M11.1665 12H8.49984C8.36723 12 8.24005 12.0527 8.14628 12.1464C8.05252 12.2402 7.99984 12.3674 7.99984 12.5V14.1667C7.99984 14.2993 8.05252 14.4265 8.14628 14.5202C8.24005 14.614 8.36723 14.6667 8.49984 14.6667H11.1665C11.2991 14.6667 11.4263 14.614 11.5201 14.5202C11.6138 14.4265 11.6665 14.2993 11.6665 14.1667V12.5C11.6665 12.3674 11.6138 12.2402 11.5201 12.1464C11.4263 12.0527 11.2991 12 11.1665 12ZM6.83317 12H3.1665C3.0339 12 2.90672 12.0527 2.81295 12.1464C2.71918 12.2402 2.6665 12.3674 2.6665 12.5V14.1667C2.6665 14.2993 2.71918 14.4265 2.81295 14.5202C2.90672 14.614 3.0339 14.6667 3.1665 14.6667H6.83317C6.96578 14.6667 7.09296 14.614 7.18672 14.5202C7.28049 14.4265 7.33317 14.2993 7.33317 14.1667V12.5C7.33317 12.3674 7.28049 12.2402 7.18672 12.1464C7.09296 12.0527 6.96578 12 6.83317 12ZM15.4998 12H12.8332C12.7006 12 12.5734 12.0527 12.4796 12.1464C12.3858 12.2402 12.3332 12.3674 12.3332 12.5V14.1667C12.3332 14.2993 12.3858 14.4265 12.4796 14.5202C12.5734 14.614 12.7006 14.6667 12.8332 14.6667H15.4998C15.6324 14.6667 15.7596 14.614 15.8534 14.5202C15.9472 14.4265 15.9998 14.2993 15.9998 14.1667V12.5C15.9998 12.3674 15.9472 12.2402 15.8534 12.1464C15.7596 12.0527 15.6324 12 15.4998 12ZM20.8332 12H17.1665C17.0339 12 16.9067 12.0527 16.8129 12.1464C16.7192 12.2402 16.6665 12.3674 16.6665 12.5V14.1667C16.6665 14.2993 16.7192 14.4265 16.8129 14.5202C16.9067 14.614 17.0339 14.6667 17.1665 14.6667H20.8332C20.9658 14.6667 21.093 14.614 21.1867 14.5202C21.2805 14.4265 21.3332 14.2993 21.3332 14.1667V12.5C21.3332 12.3674 21.2805 12.2402 21.1867 12.1464C21.093 12.0527 20.9658 12 20.8332 12Z" fill="#8D98B4"/>
<path d="M22 2.66663H2C1.46957 2.66663 0.960859 2.87734 0.585786 3.25241C0.210714 3.62749 0 4.13619 0 4.66663L0 19.3333C0 19.8637 0.210714 20.3724 0.585786 20.7475C0.960859 21.1226 1.46957 21.3333 2 21.3333H22C22.5304 21.3333 23.0391 21.1226 23.4142 20.7475C23.7893 20.3724 24 19.8637 24 19.3333V4.66663C24 4.13619 23.7893 3.62749 23.4142 3.25241C23.0391 2.87734 22.5304 2.66663 22 2.66663ZM8 12.5C8 12.3674 8.05268 12.2402 8.14645 12.1464C8.24022 12.0526 8.36739 12 8.5 12H11.1667C11.2993 12 11.4265 12.0526 11.5202 12.1464C11.614 12.2402 11.6667 12.3674 11.6667 12.5V14.1666C11.6667 14.2992 11.614 14.4264 11.5202 14.5202C11.4265 14.6139 11.2993 14.6666 11.1667 14.6666H8.5C8.36739 14.6666 8.24022 14.6139 8.14645 14.5202C8.05268 14.4264 8 14.2992 8 14.1666V12.5ZM6.66667 18.1666C6.66667 18.2992 6.61399 18.4264 6.52022 18.5202C6.42645 18.6139 6.29928 18.6666 6.16667 18.6666H3.16667C3.03406 18.6666 2.90688 18.6139 2.81311 18.5202C2.71935 18.4264 2.66667 18.2992 2.66667 18.1666V17.8333C2.66667 17.7007 2.71935 17.5735 2.81311 17.4797C2.90688 17.386 3.03406 17.3333 3.16667 17.3333H6.16667C6.29928 17.3333 6.42645 17.386 6.52022 17.4797C6.61399 17.5735 6.66667 17.7007 6.66667 17.8333V18.1666ZM7.33333 14.1666C7.33333 14.2992 7.28065 14.4264 7.18689 14.5202C7.09312 14.6139 6.96594 14.6666 6.83333 14.6666H3.16667C3.03406 14.6666 2.90688 14.6139 2.81311 14.5202C2.71935 14.4264 2.66667 14.2992 2.66667 14.1666V12.5C2.66667 12.3674 2.71935 12.2402 2.81311 12.1464C2.90688 12.0526 3.03406 12 3.16667 12H6.83333C6.96594 12 7.09312 12.0526 7.18689 12.1464C7.28065 12.2402 7.33333 12.3674 7.33333 12.5V14.1666ZM14.6667 18.1666C14.6667 18.2992 14.614 18.4264 14.5202 18.5202C14.4265 18.6139 14.2993 18.6666 14.1667 18.6666H8.5C8.36739 18.6666 8.24022 18.6139 8.14645 18.5202C8.05268 18.4264 8 18.2992 8 18.1666V17.8333C8 17.7007 8.05268 17.5735 8.14645 17.4797C8.24022 17.386 8.36739 17.3333 8.5 17.3333H14.1667C14.2993 17.3333 14.4265 17.386 14.5202 17.4797C14.614 17.5735 14.6667 17.7007 14.6667 17.8333V18.1666ZM16 14.1666C16 14.2992 15.9473 14.4264 15.8536 14.5202C15.7598 14.6139 15.6326 14.6666 15.5 14.6666H12.8333C12.7007 14.6666 12.5735 14.6139 12.4798 14.5202C12.386 14.4264 12.3333 14.2992 12.3333 14.1666V12.5C12.3333 12.3674 12.386 12.2402 12.4798 12.1464C12.5735 12.0526 12.7007 12 12.8333 12H15.5C15.6326 12 15.7598 12.0526 15.8536 12.1464C15.9473 12.2402 16 12.3674 16 12.5V14.1666ZM21.3333 14.1666C21.3333 14.2992 21.2807 14.4264 21.1869 14.5202C21.0931 14.6139 20.9659 14.6666 20.8333 14.6666H17.1667C17.0341 14.6666 16.9069 14.6139 16.8131 14.5202C16.7193 14.4264 16.6667 14.2992 16.6667 14.1666V12.5C16.6667 12.3674 16.7193 12.2402 16.8131 12.1464C16.9069 12.0526 17.0341 12 17.1667 12H20.8333C20.9659 12 21.0931 12.0526 21.1869 12.1464C21.2807 12.2402 21.3333 12.3674 21.3333 12.5V14.1666ZM21.3333 8.33329C21.3337 8.46471 21.308 8.59489 21.2579 8.71637C21.2077 8.83784 21.1341 8.94821 21.0412 9.04113C20.9483 9.13406 20.8379 9.20771 20.7164 9.25784C20.5949 9.30798 20.4647 9.33362 20.3333 9.33329H17C16.8686 9.33362 16.7384 9.30798 16.6169 9.25784C16.4955 9.20771 16.3851 9.13406 16.2922 9.04113C16.1992 8.94821 16.1256 8.83784 16.0754 8.71637C16.0253 8.59489 15.9997 8.46471 16 8.33329V6.33329C15.9997 6.20188 16.0253 6.07169 16.0754 5.95022C16.1256 5.82874 16.1992 5.71837 16.2922 5.62545C16.3851 5.53253 16.4955 5.45888 16.6169 5.40874C16.7384 5.3586 16.8686 5.33296 17 5.33329H20.3333C20.4647 5.33296 20.5949 5.3586 20.7164 5.40874C20.8379 5.45888 20.9483 5.53253 21.0412 5.62545C21.1341 5.71837 21.2077 5.82874 21.2579 5.95022C21.308 6.07169 21.3337 6.20188 21.3333 6.33329V8.33329Z" fill="#8D98B4"/>
</svg>
