<svg width="24" height="24" viewBox="0 0 24 24" fill="none" xmlns="http://www.w3.org/2000/svg">
<path opacity="0.4" d="M0 19.3333C0 19.8637 0.210714 20.3724 0.585786 20.7475C0.960859 21.1226 1.46957 21.3333 2 21.3333H22C22.5304 21.3333 23.0391 21.1226 23.4142 20.7475C23.7893 20.3724 24 19.8637 24 19.3333V12H0V19.3333ZM8 16.5C8 16.3674 8.05268 16.2402 8.14645 16.1464C8.24022 16.0526 8.36739 16 8.5 16H14.1667C14.2993 16 14.4265 16.0526 14.5202 16.1464C14.614 16.2402 14.6667 16.3674 14.6667 16.5V18.1666C14.6667 18.2992 14.614 18.4264 14.5202 18.5202C14.4265 18.6139 14.2993 18.6666 14.1667 18.6666H8.5C8.36739 18.6666 8.24022 18.6139 8.14645 18.5202C8.05268 18.4264 8 18.2992 8 18.1666V16.5ZM2.66667 16.5C2.66667 16.3674 2.71935 16.2402 2.81311 16.1464C2.90688 16.0526 3.03406 16 3.16667 16H6.16667C6.29928 16 6.42645 16.0526 6.52022 16.1464C6.61399 16.2402 6.66667 16.3674 6.66667 16.5V18.1666C6.66667 18.2992 6.61399 18.4264 6.52022 18.5202C6.42645 18.6139 6.29928 18.6666 6.16667 18.6666H3.16667C3.03406 18.6666 2.90688 18.6139 2.81311 18.5202C2.71935 18.4264 2.66667 18.2992 2.66667 18.1666V16.5ZM22 2.66663H2C1.46957 2.66663 0.960859 2.87734 0.585786 3.25241C0.210714 3.62749 0 4.13619 0 4.66663L0 6.66663H24V4.66663C24 4.13619 23.7893 3.62749 23.4142 3.25241C23.0391 2.87734 22.5304 2.66663 22 2.66663Z" fill="#8D98B4"/>
<path d="M24 12H0V6.66663H24V12Z" fill="#8D98B4"/>
</svg>
