<svg width="24" height="24" viewBox="0 0 24 24" fill="none" xmlns="http://www.w3.org/2000/svg">
<g clip-path="url(#clip0)">
<path opacity="0.4" d="M12 1.33337C5.37251 1.33337 1.07561e-05 6.70587 1.07561e-05 13.3334C-0.00283466 15.4533 0.558913 17.5358 1.62751 19.3667C1.86126 19.7675 2.30668 20 2.77084 20H21.2292C21.6933 20 22.1388 19.7675 22.3725 19.3667C23.4411 17.5358 24.0029 15.4533 24 13.3334C24 6.70587 18.6275 1.33337 12 1.33337ZM12 4.00004C12.2637 4.00004 12.5215 4.07824 12.7408 4.22475C12.96 4.37126 13.1309 4.57949 13.2319 4.82313C13.3328 5.06676 13.3592 5.33485 13.3077 5.59349C13.2563 5.85214 13.1293 6.08971 12.9428 6.27618C12.7563 6.46265 12.5188 6.58964 12.2601 6.64109C12.0015 6.69253 11.7334 6.66613 11.4898 6.56521C11.2461 6.4643 11.0379 6.2934 10.8914 6.07413C10.7449 5.85487 10.6667 5.59708 10.6667 5.33337C10.6667 4.97975 10.8072 4.64061 11.0572 4.39056C11.3073 4.14052 11.6464 4.00004 12 4.00004V4.00004ZM4.00001 16C3.7363 16 3.47852 15.9218 3.25925 15.7753C3.03999 15.6288 2.86909 15.4206 2.76817 15.177C2.66725 14.9333 2.64085 14.6652 2.6923 14.4066C2.74374 14.1479 2.87073 13.9104 3.0572 13.7239C3.24367 13.5374 3.48125 13.4104 3.73989 13.359C3.99853 13.3075 4.26662 13.334 4.51026 13.4349C4.75389 13.5358 4.96213 13.7067 5.10864 13.9259C5.25515 14.1452 5.33334 14.403 5.33334 14.6667C5.33334 15.0203 5.19287 15.3595 4.94282 15.6095C4.69277 15.8596 4.35363 16 4.00001 16ZM6.00001 9.33337C5.7363 9.33337 5.47852 9.25517 5.25925 9.10867C5.03999 8.96216 4.86909 8.75392 4.76817 8.51028C4.66725 8.26665 4.64085 7.99856 4.6923 7.73992C4.74374 7.48128 4.87073 7.2437 5.0572 7.05723C5.24367 6.87076 5.48125 6.74377 5.73989 6.69233C5.99853 6.64088 6.26662 6.66728 6.51026 6.7682C6.75389 6.86912 6.96213 7.04001 7.10864 7.25928C7.25515 7.47855 7.33334 7.73633 7.33334 8.00004C7.33334 8.35366 7.19287 8.6928 6.94282 8.94285C6.69277 9.1929 6.35363 9.33337 6.00001 9.33337ZM14.2967 17.3334H9.70334C9.4636 16.9298 9.33588 16.4695 9.33334 16C9.33334 15.2928 9.6143 14.6145 10.1144 14.1144C10.6145 13.6143 11.2928 13.3334 12 13.3334C12.2288 13.3363 12.4563 13.3691 12.6767 13.4309L17.2 7.39962C17.2788 7.29454 17.3776 7.20601 17.4906 7.13909C17.6036 7.07216 17.7288 7.02816 17.8588 7.00959C17.9888 6.99102 18.1213 6.99824 18.2485 7.03085C18.3758 7.06345 18.4953 7.1208 18.6004 7.19962C18.7055 7.27844 18.794 7.37719 18.861 7.49023C18.9279 7.60326 18.9719 7.72837 18.9905 7.85841C19.009 7.98845 19.0018 8.12088 18.9692 8.24813C18.9366 8.37537 18.8792 8.49496 18.8004 8.60004L14.2771 14.6309C14.5284 15.036 14.6632 15.5026 14.6666 15.9794C14.6701 16.4561 14.5421 16.9246 14.2967 17.3334ZM20 16C19.7363 16 19.4785 15.9218 19.2592 15.7753C19.04 15.6288 18.8691 15.4206 18.7682 15.177C18.6673 14.9333 18.6408 14.6652 18.6923 14.4066C18.7437 14.1479 18.8707 13.9104 19.0572 13.7239C19.2437 13.5374 19.4812 13.4104 19.7399 13.359C19.9985 13.3075 20.2666 13.334 20.5103 13.4349C20.7539 13.5358 20.9621 13.7067 21.1086 13.9259C21.2551 14.1452 21.3333 14.403 21.3333 14.6667C21.3333 15.0203 21.1929 15.3595 20.9428 15.6095C20.6928 15.8596 20.3536 16 20 16Z" fill="#8D98B4"/>
<path d="M12.0002 13.3333C12.229 13.3363 12.4565 13.369 12.6768 13.4308L17.2002 7.39959C17.279 7.29451 17.3777 7.20598 17.4908 7.13906C17.6038 7.07213 17.7289 7.02813 17.859 7.00956C17.989 6.99099 18.1214 6.99821 18.2487 7.03082C18.3759 7.06342 18.4955 7.12077 18.6006 7.19959C18.7057 7.27841 18.7942 7.37716 18.8611 7.4902C18.9281 7.60323 18.9721 7.72834 18.9906 7.85838C19.0092 7.98842 19.002 8.12085 18.9694 8.2481C18.9368 8.37534 18.8794 8.49492 18.8006 8.60001L14.2773 14.6308C14.5285 15.036 14.6633 15.5026 14.6668 15.9793C14.6702 16.4561 14.5422 16.9246 14.2968 17.3333H9.7035C9.46375 16.9297 9.33603 16.4694 9.3335 16C9.3335 15.2928 9.61445 14.6145 10.1145 14.1144C10.6146 13.6143 11.2929 13.3333 12.0002 13.3333V13.3333Z" fill="#8D98B4"/>
</g>
<defs>
<clipPath id="clip0">
<rect width="24" height="24" fill="white"/>
</clipPath>
</defs>
</svg>
