<svg width="24" height="24" viewBox="0 0 24 24" fill="none" xmlns="http://www.w3.org/2000/svg">
<path opacity="0.4" d="M22 1.33337H2C1.46957 1.33337 0.960859 1.54409 0.585786 1.91916C0.210714 2.29423 0 2.80294 0 3.33337L0 16.6667C0 17.1971 0.210714 17.7058 0.585786 18.0809C0.960859 18.456 1.46957 18.6667 2 18.6667H22C22.5304 18.6667 23.0391 18.456 23.4142 18.0809C23.7893 17.7058 24 17.1971 24 16.6667V3.33337C24 2.80294 23.7893 2.29423 23.4142 1.91916C23.0391 1.54409 22.5304 1.33337 22 1.33337V1.33337ZM21.3333 16H2.66667V4.00004H21.3333V16Z" fill="#8D98B4"/>
<path d="M17.6665 20.6667H14.6665L13.9998 18.6667H9.99984L9.33317 20.6667H6.33317C6.06795 20.6667 5.8136 20.772 5.62606 20.9596C5.43853 21.1471 5.33317 21.4015 5.33317 21.6667C5.33317 21.9319 5.43853 22.1862 5.62606 22.3738C5.8136 22.5613 6.06795 22.6667 6.33317 22.6667H17.6665C17.9317 22.6667 18.1861 22.5613 18.3736 22.3738C18.5611 22.1862 18.6665 21.9319 18.6665 21.6667C18.6665 21.4015 18.5611 21.1471 18.3736 20.9596C18.1861 20.772 17.9317 20.6667 17.6665 20.6667V20.6667ZM2.6665 4V16H21.3332V4H2.6665Z" fill="#8D98B4"/>
</svg>
