<svg width="24" height="24" viewBox="0 0 24 24" fill="none" xmlns="http://www.w3.org/2000/svg">
<path opacity="0.4" d="M23.525 3.84379L21.4917 1.81046C21.1862 1.50625 20.7727 1.33545 20.3417 1.33545C19.9106 1.33545 19.4971 1.50625 19.1917 1.81046L17.7167 3.28546C17.6406 3.36183 17.598 3.4652 17.598 3.57296C17.598 3.68072 17.6406 3.78409 17.7167 3.86046L21.475 7.61879C21.5514 7.69482 21.6547 7.7375 21.7625 7.7375C21.8702 7.7375 21.9736 7.69482 22.05 7.61879L23.525 6.14379C23.8292 5.83837 24 5.42486 24 4.99379C24 4.56272 23.8292 4.14921 23.525 3.84379V3.84379ZM17.8125 13.7355L16.1458 15.4021C16.0533 15.4969 16.001 15.6238 16 15.7563V19.998H2.66667V6.66462H12.2417C12.3741 6.66361 12.5011 6.61135 12.5958 6.51879L14.2625 4.85212C14.3327 4.78219 14.3805 4.69299 14.3999 4.59584C14.4193 4.49869 14.4094 4.39796 14.3714 4.30645C14.3335 4.21493 14.2692 4.13675 14.1868 4.08183C14.1043 4.02691 14.0074 3.99771 13.9083 3.99796H2C1.46957 3.99796 0.960859 4.20867 0.585786 4.58374C0.210714 4.95882 0 5.46752 0 5.99796L0 20.6646C0 21.195 0.210714 21.7038 0.585786 22.0788C0.960859 22.4539 1.46957 22.6646 2 22.6646H16.6667C17.1971 22.6646 17.7058 22.4539 18.0809 22.0788C18.4559 21.7038 18.6667 21.195 18.6667 20.6646V14.0896C18.6669 13.9906 18.6377 13.8936 18.5828 13.8112C18.5279 13.7287 18.4497 13.6645 18.3582 13.6265C18.2667 13.5886 18.1659 13.5787 18.0688 13.5981C17.9716 13.6175 17.8824 13.6653 17.8125 13.7355V13.7355Z" fill="#8D98B4"/>
<path d="M20.5331 8.55648C20.6091 8.63285 20.6518 8.73622 20.6518 8.84398C20.6518 8.95174 20.6091 9.05512 20.5331 9.13148L11.4331 18.2315L7.56643 18.6606C7.44548 18.6742 7.32303 18.6604 7.20816 18.6202C7.09329 18.58 6.98895 18.5144 6.90289 18.4283C6.81683 18.3423 6.75126 18.238 6.71105 18.1231C6.67083 18.0082 6.65701 17.8858 6.67059 17.7648L7.09976 13.8981L16.1997 4.79815C16.2761 4.72213 16.3795 4.67944 16.4872 4.67944C16.595 4.67944 16.6984 4.72213 16.7747 4.79815L20.5331 8.55648Z" fill="#8D98B4"/>
</svg>
