<svg width="24" height="24" viewBox="0 0 24 24" fill="none" xmlns="http://www.w3.org/2000/svg">
<g clip-path="url(#clip0)">
<path opacity="0.4" d="M15 3.53357e-06H4.125C3.97764 -0.000366272 3.83164 0.0282939 3.69535 0.0843477C3.55905 0.140402 3.43514 0.222751 3.33067 0.326695C3.22621 0.430639 3.14324 0.554141 3.0865 0.69015C3.02976 0.826158 3.00037 0.972011 3 1.11938V22.875C2.99963 23.0224 3.02829 23.1684 3.08435 23.3047C3.1404 23.441 3.22275 23.5649 3.32669 23.6693C3.43064 23.7738 3.55414 23.8568 3.69015 23.9135C3.82616 23.9702 3.97201 23.9996 4.11938 24H19.875C20.0224 24.0004 20.1684 23.9717 20.3047 23.9157C20.441 23.8596 20.5649 23.7773 20.6693 23.6733C20.7738 23.5694 20.8568 23.4459 20.9135 23.3099C20.9702 23.1738 20.9996 23.028 21 22.8806V6H15.75C15.5511 6 15.3603 5.92099 15.2197 5.78033C15.079 5.63968 15 5.44892 15 5.25V3.53357e-06Z" fill="#8D98B4"/>
<path d="M21 5.71407V6H15.75C15.5511 6 15.3603 5.92099 15.2197 5.78033C15.079 5.63968 15 5.44892 15 5.25V3.38283e-06H15.2859C15.4338 -0.000359235 15.5803 0.0284343 15.717 0.0847371C15.8538 0.14104 15.9781 0.223747 16.0828 0.328128L20.6719 4.92188C20.7759 5.02591 20.8584 5.14941 20.9147 5.28534C20.971 5.42126 21 5.56694 21 5.71407V5.71407Z" fill="#8D98B4"/>
</g>
<defs>
<clipPath id="clip0">
<rect width="24" height="24" fill="white"/>
</clipPath>
</defs>
</svg>
