<svg width="24" height="24" viewBox="0 0 24 24" fill="none" xmlns="http://www.w3.org/2000/svg">
<g clip-path="url(#clip0)">
<path opacity="0.4" d="M21 6H15.75C15.5511 6 15.3603 5.92099 15.2197 5.78033C15.079 5.63968 15 5.44892 15 5.25V3.53357e-06H4.125C3.97764 -0.000366272 3.83164 0.0282939 3.69535 0.0843477C3.55905 0.140402 3.43514 0.222751 3.33067 0.326695C3.22621 0.430639 3.14324 0.554141 3.0865 0.69015C3.02976 0.826158 3.00037 0.972011 3 1.11938V22.875C2.99963 23.0224 3.02829 23.1684 3.08435 23.3047C3.1404 23.441 3.22275 23.5649 3.32669 23.6693C3.43064 23.7738 3.55414 23.8568 3.69015 23.9135C3.82616 23.9702 3.97201 23.9996 4.11938 24H19.875C20.0224 24.0004 20.1684 23.9717 20.3047 23.9157C20.441 23.8596 20.5649 23.7773 20.6693 23.6733C20.7738 23.5694 20.8568 23.4459 20.9135 23.3099C20.9702 23.1738 20.9996 23.028 21 22.8806V6ZM6 3.375C6 3.27555 6.03951 3.18016 6.10984 3.10984C6.18016 3.03951 6.27555 3 6.375 3H10.125C10.2245 3 10.3198 3.03951 10.3902 3.10984C10.4605 3.18016 10.5 3.27555 10.5 3.375V4.125C10.5 4.22446 10.4605 4.31984 10.3902 4.39017C10.3198 4.46049 10.2245 4.5 10.125 4.5H6.375C6.27555 4.5 6.18016 4.46049 6.10984 4.39017C6.03951 4.31984 6 4.22446 6 4.125V3.375ZM6 7.125V6.375C6 6.27555 6.03951 6.18016 6.10984 6.10984C6.18016 6.03951 6.27555 6 6.375 6H10.125C10.2245 6 10.3198 6.03951 10.3902 6.10984C10.4605 6.18016 10.5 6.27555 10.5 6.375V7.125C10.5 7.22446 10.4605 7.31984 10.3902 7.39017C10.3198 7.4605 10.2245 7.5 10.125 7.5H6.375C6.27555 7.5 6.18016 7.4605 6.10984 7.39017C6.03951 7.31984 6 7.22446 6 7.125ZM12.75 19.4944V20.625C12.75 20.7245 12.7105 20.8198 12.6402 20.8902C12.5698 20.9605 12.4745 21 12.375 21H11.625C11.5255 21 11.4302 20.9605 11.3598 20.8902C11.2895 20.8198 11.25 20.7245 11.25 20.625V19.4864C10.7179 19.4588 10.2061 19.2736 9.77953 18.9544C9.73681 18.9211 9.7018 18.879 9.67688 18.831C9.65197 18.7829 9.63776 18.7301 9.63522 18.676C9.63268 18.6219 9.64188 18.568 9.66218 18.5178C9.68248 18.4676 9.7134 18.4224 9.75282 18.3853L10.3036 17.8594C10.3675 17.8013 10.449 17.7664 10.5351 17.7602C10.6212 17.754 10.7069 17.7768 10.7784 17.8252C10.9582 17.939 11.1666 17.9996 11.3794 18H12.697C13.0017 18 13.2502 17.7225 13.2502 17.3817C13.2502 17.1028 13.0809 16.8572 12.8391 16.785L10.7297 16.1522C9.85828 15.8906 9.24938 15.0544 9.24938 14.1183C9.24938 12.9689 10.1423 12.0352 11.2495 12.0056V10.875C11.2495 10.7755 11.289 10.6802 11.3594 10.6098C11.4297 10.5395 11.5251 10.5 11.6245 10.5H12.3745C12.474 10.5 12.5694 10.5395 12.6397 10.6098C12.71 10.6802 12.7495 10.7755 12.7495 10.875V12.0136C13.2817 12.0408 13.7936 12.226 14.22 12.5456C14.2627 12.5789 14.2977 12.621 14.3227 12.669C14.3476 12.7171 14.3618 12.7699 14.3643 12.824C14.3669 12.8781 14.3577 12.9321 14.3374 12.9822C14.3171 13.0324 14.2861 13.0776 14.2467 13.1147L13.6959 13.6406C13.6321 13.6987 13.5505 13.7336 13.4644 13.7398C13.3783 13.7461 13.2926 13.7232 13.2211 13.6748C13.0414 13.5609 12.833 13.5003 12.6202 13.5H11.3025C10.9978 13.5 10.7494 13.7775 10.7494 14.1183C10.7494 14.3972 10.9186 14.6428 11.1605 14.715L13.2698 15.3478C14.1413 15.6094 14.7502 16.4456 14.7502 17.3817C14.7502 18.5316 13.8595 19.4648 12.75 19.4944Z" fill="#8D98B4"/>
<path d="M20.672 4.92188L16.083 0.328128C15.9782 0.223747 15.8539 0.14104 15.7172 0.0847371C15.5805 0.0284343 15.434 -0.000359235 15.2861 3.38283e-06H15.0001V5.25C15.0001 5.44892 15.0792 5.63968 15.2198 5.78033C15.3605 5.92099 15.5512 6 15.7501 6H21.0001V5.71407C21.0001 5.56694 20.9712 5.42126 20.9149 5.28534C20.8586 5.14941 20.776 5.02591 20.672 4.92188V4.92188ZM13.27 15.3478L11.1606 14.715C10.9187 14.6428 10.7495 14.3972 10.7495 14.1183C10.7495 13.7775 10.998 13.5 11.3027 13.5H12.6203C12.8331 13.5003 13.0415 13.5609 13.2212 13.6748C13.2928 13.7232 13.3785 13.7461 13.4646 13.7398C13.5507 13.7336 13.6322 13.6987 13.6961 13.6406L14.2473 13.1147C14.2868 13.0776 14.3177 13.0324 14.338 12.9822C14.3583 12.9321 14.3675 12.8781 14.3649 12.824C14.3624 12.7699 14.3482 12.7171 14.3233 12.669C14.2984 12.621 14.2633 12.5789 14.2206 12.5456C13.7943 12.226 13.2823 12.0408 12.7502 12.0136V10.875C12.7502 10.7755 12.7106 10.6802 12.6403 10.6098C12.57 10.5395 12.4746 10.5 12.3752 10.5H11.6252C11.5257 10.5 11.4303 10.5395 11.36 10.6098C11.2897 10.6802 11.2502 10.7755 11.2502 10.875V12.0056C10.143 12.0352 9.25 12.9689 9.25 14.1183C9.25 15.0558 9.85937 15.8906 10.7303 16.1522L12.8397 16.785C13.0816 16.8572 13.2508 17.1028 13.2508 17.3817C13.2508 17.7225 13.0023 18 12.6977 18H11.3795C11.1667 17.9996 10.9584 17.939 10.7786 17.8252C10.7071 17.7768 10.6214 17.754 10.5353 17.7602C10.4491 17.7664 10.3676 17.8013 10.3037 17.8594L9.75297 18.3853C9.71355 18.4224 9.68263 18.4676 9.66233 18.5178C9.64203 18.568 9.63284 18.6219 9.63537 18.676C9.63791 18.7301 9.65213 18.7829 9.67704 18.831C9.70195 18.879 9.73697 18.9211 9.77969 18.9544C10.2063 19.2736 10.7181 19.4588 11.2502 19.4864V20.625C11.2502 20.7245 11.2897 20.8198 11.36 20.8902C11.4303 20.9605 11.5257 21 11.6252 21H12.3752C12.4746 21 12.57 20.9605 12.6403 20.8902C12.7106 20.8198 12.7502 20.7245 12.7502 20.625V19.4944C13.8597 19.4648 14.7503 18.5316 14.7503 17.3817C14.7503 16.4456 14.1414 15.6094 13.27 15.3478V15.3478Z" fill="#8D98B4"/>
</g>
<defs>
<clipPath id="clip0">
<rect width="24" height="24" fill="white"/>
</clipPath>
</defs>
</svg>
