<svg width="24" height="24" viewBox="0 0 24 24" fill="none" xmlns="http://www.w3.org/2000/svg">
<g clip-path="url(#clip0)">
<path opacity="0.4" d="M21 6H15.75C15.5511 6 15.3603 5.92099 15.2197 5.78033C15.079 5.63968 15 5.44892 15 5.25V3.53357e-06H4.125C3.97764 -0.000366272 3.83164 0.0282939 3.69535 0.0843477C3.55905 0.140402 3.43514 0.222751 3.33067 0.326695C3.22621 0.430639 3.14324 0.554141 3.0865 0.69015C3.02976 0.826158 3.00037 0.972011 3 1.11938V22.875C2.99963 23.0224 3.02829 23.1684 3.08435 23.3047C3.1404 23.441 3.22275 23.5649 3.32669 23.6693C3.43064 23.7738 3.55414 23.8568 3.69015 23.9135C3.82616 23.9702 3.97201 23.9996 4.11938 24H19.875C20.0224 24.0004 20.1684 23.9717 20.3047 23.9157C20.441 23.8596 20.5649 23.7773 20.6693 23.6733C20.7738 23.5694 20.8568 23.4459 20.9135 23.3099C20.9702 23.1738 20.9996 23.028 21 22.8806V6ZM16.5 17.4375C16.5 17.5867 16.4407 17.7298 16.3352 17.8353C16.2298 17.9407 16.0867 18 15.9375 18H8.0625C7.91332 18 7.77024 17.9407 7.66476 17.8353C7.55927 17.7298 7.5 17.5867 7.5 17.4375V17.0625C7.5 16.9133 7.55927 16.7702 7.66476 16.6648C7.77024 16.5593 7.91332 16.5 8.0625 16.5H15.9375C16.0867 16.5 16.2298 16.5593 16.3352 16.6648C16.4407 16.7702 16.5 16.9133 16.5 17.0625V17.4375ZM16.5 14.4375C16.5 14.5867 16.4407 14.7298 16.3352 14.8353C16.2298 14.9407 16.0867 15 15.9375 15H8.0625C7.91332 15 7.77024 14.9407 7.66476 14.8353C7.55927 14.7298 7.5 14.5867 7.5 14.4375V14.0625C7.5 13.9133 7.55927 13.7702 7.66476 13.6648C7.77024 13.5593 7.91332 13.5 8.0625 13.5H15.9375C16.0867 13.5 16.2298 13.5593 16.3352 13.6648C16.4407 13.7702 16.5 13.9133 16.5 14.0625V14.4375ZM16.5 11.4375C16.5 11.5867 16.4407 11.7298 16.3352 11.8353C16.2298 11.9407 16.0867 12 15.9375 12H8.0625C7.91332 12 7.77024 11.9407 7.66476 11.8353C7.55927 11.7298 7.5 11.5867 7.5 11.4375V11.0625C7.5 10.9133 7.55927 10.7702 7.66476 10.6648C7.77024 10.5593 7.91332 10.5 8.0625 10.5H15.9375C16.0867 10.5 16.2298 10.5593 16.3352 10.6648C16.4407 10.7702 16.5 10.9133 16.5 11.0625V11.4375Z" fill="#8D98B4"/>
<path d="M20.6719 4.92188L16.0828 0.328128C15.9781 0.223747 15.8538 0.14104 15.717 0.0847371C15.5803 0.0284343 15.4338 -0.000359235 15.2859 3.38283e-06H15V5.25C15 5.44892 15.079 5.63968 15.2197 5.78033C15.3603 5.92099 15.5511 6 15.75 6H21V5.71407C21 5.56694 20.971 5.42126 20.9147 5.28534C20.8584 5.14941 20.7759 5.02591 20.6719 4.92188V4.92188ZM15.9375 16.5H8.0625C7.91332 16.5 7.77024 16.5593 7.66475 16.6648C7.55926 16.7702 7.5 16.9133 7.5 17.0625V17.4375C7.5 17.5867 7.55926 17.7298 7.66475 17.8353C7.77024 17.9407 7.91332 18 8.0625 18H15.9375C16.0867 18 16.2298 17.9407 16.3352 17.8353C16.4407 17.7298 16.5 17.5867 16.5 17.4375V17.0625C16.5 16.9133 16.4407 16.7702 16.3352 16.6648C16.2298 16.5593 16.0867 16.5 15.9375 16.5ZM15.9375 13.5H8.0625C7.91332 13.5 7.77024 13.5593 7.66475 13.6648C7.55926 13.7702 7.5 13.9133 7.5 14.0625V14.4375C7.5 14.5867 7.55926 14.7298 7.66475 14.8353C7.77024 14.9407 7.91332 15 8.0625 15H15.9375C16.0867 15 16.2298 14.9407 16.3352 14.8353C16.4407 14.7298 16.5 14.5867 16.5 14.4375V14.0625C16.5 13.9133 16.4407 13.7702 16.3352 13.6648C16.2298 13.5593 16.0867 13.5 15.9375 13.5ZM15.9375 10.5H8.0625C7.91332 10.5 7.77024 10.5593 7.66475 10.6648C7.55926 10.7702 7.5 10.9133 7.5 11.0625V11.4375C7.5 11.5867 7.55926 11.7298 7.66475 11.8353C7.77024 11.9407 7.91332 12 8.0625 12H15.9375C16.0867 12 16.2298 11.9407 16.3352 11.8353C16.4407 11.7298 16.5 11.5867 16.5 11.4375V11.0625C16.5 10.9133 16.4407 10.7702 16.3352 10.6648C16.2298 10.5593 16.0867 10.5 15.9375 10.5V10.5Z" fill="#8D98B4"/>
</g>
<defs>
<clipPath id="clip0">
<rect width="24" height="24" fill="white"/>
</clipPath>
</defs>
</svg>
