<svg width="24" height="24" viewBox="0 0 24 24" fill="none" xmlns="http://www.w3.org/2000/svg">
<path opacity="0.4" d="M0 18.6667V2.00004C0 1.82323 0.0702379 1.65366 0.195262 1.52864C0.320286 1.40361 0.489856 1.33337 0.666667 1.33337H2C2.17681 1.33337 2.34638 1.40361 2.4714 1.52864C2.59643 1.65366 2.66667 1.82323 2.66667 2.00004V5.33337H10.6667V8.00004H2.66667V17.3334H10.6667V20H1.33333C0.979711 20 0.640573 19.8596 0.390524 19.6095C0.140476 19.3595 0 19.0203 0 18.6667Z" fill="#8D98B4"/>
<path d="M22.6667 14.6667H18L16.6667 13.3334H13.3333C12.9797 13.3334 12.6406 13.4739 12.3905 13.7239C12.1405 13.9739 12 14.3131 12 14.6667V21.3334C12 21.687 12.1405 22.0261 12.3905 22.2762C12.6406 22.5262 12.9797 22.6667 13.3333 22.6667H22.6667C23.0203 22.6667 23.3594 22.5262 23.6095 22.2762C23.8595 22.0261 24 21.687 24 21.3334V16C24 15.6464 23.8595 15.3073 23.6095 15.0572C23.3594 14.8072 23.0203 14.6667 22.6667 14.6667ZM22.6667 2.66671H18L16.6667 1.33337H13.3333C12.9797 1.33337 12.6406 1.47385 12.3905 1.7239C12.1405 1.97395 12 2.31309 12 2.66671V9.33337C12 9.687 12.1405 10.0261 12.3905 10.2762C12.6406 10.5262 12.9797 10.6667 13.3333 10.6667H22.6667C23.0203 10.6667 23.3594 10.5262 23.6095 10.2762C23.8595 10.0261 24 9.687 24 9.33337V4.00004C24 3.64642 23.8595 3.30728 23.6095 3.05723C23.3594 2.80718 23.0203 2.66671 22.6667 2.66671Z" fill="#8D98B4"/>
</svg>
