<svg width="24" height="24" viewBox="0 0 24 24" fill="none" xmlns="http://www.w3.org/2000/svg">
<g clip-path="url(#clip0)">
<path opacity="0.4" d="M12 -0.00012207C7.03125 -0.00012207 3 4.03113 3 8.99988C3 12.6285 4.26562 13.6405 11.0752 23.5157C11.1787 23.6651 11.3169 23.7873 11.478 23.8717C11.639 23.956 11.8182 24.0001 12 24.0001C12.1818 24.0001 12.361 23.956 12.522 23.8717C12.6831 23.7873 12.8213 23.6651 12.9248 23.5157C19.7344 13.6405 21 12.6285 21 8.99988C21 4.03113 16.9688 -0.00012207 12 -0.00012207ZM12 13.4999C11.11 13.4999 10.24 13.236 9.49993 12.7415C8.75991 12.247 8.18314 11.5442 7.84254 10.722C7.50195 9.89969 7.41283 8.99489 7.58647 8.12197C7.7601 7.24906 8.18868 6.44723 8.81802 5.8179C9.44736 5.18856 10.2492 4.75998 11.1221 4.58634C11.995 4.41271 12.8998 4.50183 13.7221 4.84242C14.5443 5.18301 15.2471 5.75979 15.7416 6.49981C16.2361 7.23983 16.5 8.10986 16.5 8.99988C16.5 10.1934 16.0259 11.3379 15.182 12.1819C14.3381 13.0258 13.1935 13.4999 12 13.4999Z" fill="#8D98B4"/>
<path d="M12 11.9999C11.4067 11.9999 10.8266 11.8239 10.3333 11.4943C9.83994 11.1646 9.45543 10.6961 9.22836 10.1479C9.0013 9.59975 8.94189 8.99655 9.05765 8.41461C9.1734 7.83267 9.45912 7.29812 9.87868 6.87856C10.2982 6.459 10.8328 6.17328 11.4147 6.05752C11.9967 5.94177 12.5999 6.00118 13.1481 6.22824C13.6962 6.4553 14.1648 6.83982 14.4944 7.33317C14.8241 7.82652 15 8.40654 15 8.99988C15 9.79553 14.6839 10.5586 14.1213 11.1212C13.5587 11.6838 12.7957 11.9999 12 11.9999Z" fill="#8D98B4"/>
</g>
<defs>
<clipPath id="clip0">
<rect width="24" height="24" fill="white"/>
</clipPath>
</defs>
</svg>
