<svg width="24" height="24" viewBox="0 0 24 24" fill="none" xmlns="http://www.w3.org/2000/svg">
<path opacity="0.4" d="M8 2.66663L16 5.33329V21.3333L8 18.6666V2.66663Z" fill="#8D98B4"/>
<path d="M1.57085e-08 6.23579V20.6666C-2.3633e-05 20.7756 0.026655 20.8829 0.0777013 20.9791C0.128748 21.0754 0.202606 21.1576 0.292812 21.2187C0.383019 21.2798 0.486825 21.3179 0.595146 21.3296C0.703468 21.3413 0.813003 21.3262 0.914167 21.2858L6.66667 18.6666V2.66663L0.838333 4.99996C0.591217 5.09876 0.379322 5.26926 0.229919 5.4895C0.0805163 5.70974 0.000441402 5.96966 1.57085e-08 6.23579V6.23579ZM23.0858 2.71496L17.3333 5.33329V21.3333L23.1617 19.002C23.4091 18.9031 23.6212 18.7323 23.7707 18.5116C23.9201 18.291 24 18.0306 24 17.7641V3.33329C23.9999 3.22441 23.9731 3.11722 23.922 3.02108C23.8709 2.92493 23.797 2.84277 23.7068 2.78177C23.6167 2.72077 23.5129 2.68279 23.4046 2.67114C23.2964 2.65949 23.1869 2.67454 23.0858 2.71496V2.71496Z" fill="#8D98B4"/>
</svg>
