<svg width="24" height="24" viewBox="0 0 24 24" fill="none" xmlns="http://www.w3.org/2000/svg">
<path opacity="0.4" d="M19.9998 4L2.6665 9.33333V14.6667L6.90484 15.9708C6.72331 16.4796 6.64672 17.0198 6.67966 17.559C6.71261 18.0982 6.85443 18.6251 7.09655 19.108C7.33867 19.5908 7.67609 20.0197 8.08845 20.3686C8.50081 20.7175 8.97957 20.9793 9.49586 21.1381C10.0121 21.297 10.5553 21.3496 11.0924 21.2929C11.6296 21.2361 12.1497 21.0712 12.6214 20.808C13.0931 20.5447 13.5066 20.1887 13.837 19.7613C14.1673 19.3339 14.4077 18.8441 14.5436 18.3213L19.9998 20V4ZM10.6665 19.3333C10.337 19.3333 10.0125 19.2518 9.72208 19.0962C9.43161 18.9405 9.18411 18.7155 9.00157 18.4412C8.81903 18.1668 8.70712 17.8516 8.67578 17.5235C8.64443 17.1955 8.69464 16.8648 8.82192 16.5608L12.6248 17.7312C12.5326 18.1828 12.2874 18.5888 11.9307 18.8807C11.5739 19.1725 11.1274 19.3324 10.6665 19.3333Z" fill="#8D98B4"/>
<path d="M23.3333 2.66663H22C21.8232 2.66663 21.6536 2.73686 21.5286 2.86189C21.4036 2.98691 21.3333 3.15648 21.3333 3.33329V20.6666C21.3333 20.8434 21.4036 21.013 21.5286 21.138C21.6536 21.2631 21.8232 21.3333 22 21.3333H23.3333C23.5101 21.3333 23.6797 21.2631 23.8047 21.138C23.9298 21.013 24 20.8434 24 20.6666V3.33329C24 3.15648 23.9298 2.98691 23.8047 2.86189C23.6797 2.73686 23.5101 2.66663 23.3333 2.66663V2.66663ZM1.33333 7.99996C0.979711 7.99996 0.640573 8.14044 0.390524 8.39048C0.140476 8.64053 0 8.97967 0 9.33329L0 14.6666C0 15.0202 0.140476 15.3594 0.390524 15.6094C0.640573 15.8595 0.979711 16 1.33333 16C1.68696 16 2.02609 15.8595 2.27614 15.6094C2.52619 15.3594 2.66667 15.0202 2.66667 14.6666V9.33329C2.66667 8.97967 2.52619 8.64053 2.27614 8.39048C2.02609 8.14044 1.68696 7.99996 1.33333 7.99996V7.99996Z" fill="#8D98B4"/>
</svg>
