<svg width="24" height="24" viewBox="0 0 24 24" fill="none" xmlns="http://www.w3.org/2000/svg">
<path opacity="0.4" d="M17.25 0H6.75C6.15326 0 5.58097 0.237053 5.15901 0.65901C4.73705 1.08097 4.5 1.65326 4.5 2.25V21.75C4.5 22.3467 4.73705 22.919 5.15901 23.341C5.58097 23.7629 6.15326 24 6.75 24H17.25C17.8467 24 18.419 23.7629 18.841 23.341C19.2629 22.919 19.5 22.3467 19.5 21.75V2.25C19.5 1.65326 19.2629 1.08097 18.841 0.65901C18.419 0.237053 17.8467 0 17.25 0V0ZM12 22.5C11.7033 22.5 11.4133 22.412 11.1666 22.2472C10.92 22.0824 10.7277 21.8481 10.6142 21.574C10.5006 21.2999 10.4709 20.9983 10.5288 20.7074C10.5867 20.4164 10.7296 20.1491 10.9393 19.9393C11.1491 19.7296 11.4164 19.5867 11.7074 19.5288C11.9983 19.4709 12.2999 19.5006 12.574 19.6142C12.8481 19.7277 13.0824 19.92 13.2472 20.1666C13.412 20.4133 13.5 20.7033 13.5 21C13.5 21.3978 13.342 21.7794 13.0607 22.0607C12.7794 22.342 12.3978 22.5 12 22.5ZM17.25 17.4375C17.25 17.5867 17.1907 17.7298 17.0852 17.8352C16.9798 17.9407 16.8367 18 16.6875 18H7.3125C7.16332 18 7.02024 17.9407 6.91475 17.8352C6.80926 17.7298 6.75 17.5867 6.75 17.4375V2.8125C6.75 2.66332 6.80926 2.52024 6.91475 2.41475C7.02024 2.30926 7.16332 2.25 7.3125 2.25H16.6875C16.8367 2.25 16.9798 2.30926 17.0852 2.41475C17.1907 2.52024 17.25 2.66332 17.25 2.8125V17.4375Z" fill="#8D98B4"/>
<path d="M17.25 17.4375C17.25 17.5867 17.1907 17.7298 17.0852 17.8352C16.9798 17.9407 16.8367 18 16.6875 18H7.3125C7.16332 18 7.02024 17.9407 6.91475 17.8352C6.80926 17.7298 6.75 17.5867 6.75 17.4375V2.8125C6.75 2.66332 6.80926 2.52024 6.91475 2.41475C7.02024 2.30926 7.16332 2.25 7.3125 2.25H16.6875C16.8367 2.25 16.9798 2.30926 17.0852 2.41475C17.1907 2.52024 17.25 2.66332 17.25 2.8125V17.4375Z" fill="#8D98B4"/>
</svg>
