<svg width="24" height="24" viewBox="0 0 24 24" fill="none" xmlns="http://www.w3.org/2000/svg">
<path opacity="0.4" d="M22.8 4H1.2C0.88174 4 0.576516 4.12643 0.351472 4.35147C0.126428 4.57652 0 4.88174 0 5.2L0 19.6C0 19.9183 0.126428 20.2235 0.351472 20.4485C0.576516 20.6736 0.88174 20.8 1.2 20.8H22.8C23.1183 20.8 23.4235 20.6736 23.6485 20.4485C23.8736 20.2235 24 19.9183 24 19.6V5.2C24 4.88174 23.8736 4.57652 23.6485 4.35147C23.4235 4.12643 23.1183 4 22.8 4ZM6.6 15.0955V15.7C6.6 15.7796 6.56839 15.8559 6.51213 15.9121C6.45587 15.9684 6.37957 16 6.3 16H5.7C5.62044 16 5.54413 15.9684 5.48787 15.9121C5.43161 15.8559 5.4 15.7796 5.4 15.7V15.0891C4.97432 15.0672 4.56481 14.919 4.22363 14.6635C4.18945 14.6369 4.16143 14.6032 4.14151 14.5648C4.12158 14.5263 4.11021 14.484 4.10818 14.4408C4.10614 14.3975 4.1135 14.3544 4.12974 14.3142C4.14598 14.2741 4.17072 14.2379 4.20225 14.2082L4.64288 13.7875C4.69394 13.741 4.75917 13.713 4.82807 13.708C4.89697 13.7031 4.96554 13.7214 5.02275 13.7601C5.16661 13.8511 5.33327 13.8996 5.5035 13.9H6.55763C6.80138 13.9 7.00013 13.678 7.00013 13.4054C7.00013 13.1822 6.86475 12.9857 6.67125 12.928L4.98375 12.4217C4.28662 12.2125 3.7995 11.5435 3.7995 10.7946C3.7995 9.87512 4.51388 9.12812 5.39963 9.1045V8.5C5.39963 8.42043 5.43123 8.34413 5.48749 8.28787C5.54375 8.23161 5.62006 8.2 5.69963 8.2H6.29963C6.37919 8.2 6.4555 8.23161 6.51176 8.28787C6.56802 8.34413 6.59963 8.42043 6.59963 8.5V9.11087C7.02534 9.13267 7.4349 9.28085 7.776 9.5365C7.81018 9.56309 7.83819 9.59676 7.85812 9.63521C7.87805 9.67365 7.88942 9.71595 7.89145 9.75921C7.89348 9.80246 7.88612 9.84564 7.86989 9.88578C7.85365 9.92592 7.82891 9.96207 7.79738 9.99175L7.35675 10.4125C7.30568 10.459 7.24045 10.487 7.17155 10.492C7.10265 10.4969 7.03409 10.4786 6.97688 10.4399C6.83308 10.3487 6.66638 10.3002 6.49613 10.3H5.442C5.19825 10.3 4.9995 10.522 4.9995 10.7946C4.9995 11.0177 5.13488 11.2142 5.32838 11.272L7.01588 11.7782C7.713 11.9875 8.20013 12.6565 8.20013 13.4054C8.20013 14.3252 7.48575 15.0719 6.6 15.0955ZM15.6 14.5C15.6 14.5796 15.5684 14.6559 15.5121 14.7121C15.4559 14.7684 15.3796 14.8 15.3 14.8H11.1C11.0204 14.8 10.9441 14.7684 10.8879 14.7121C10.8316 14.6559 10.8 14.5796 10.8 14.5V13.9C10.8 13.8204 10.8316 13.7441 10.8879 13.6879C10.9441 13.6316 11.0204 13.6 11.1 13.6H15.3C15.3796 13.6 15.4559 13.6316 15.5121 13.6879C15.5684 13.7441 15.6 13.8204 15.6 13.9V14.5ZM21.6 14.5C21.6 14.5796 21.5684 14.6559 21.5121 14.7121C21.4559 14.7684 21.3796 14.8 21.3 14.8H18.3C18.2204 14.8 18.1441 14.7684 18.0879 14.7121C18.0316 14.6559 18 14.5796 18 14.5V13.9C18 13.8204 18.0316 13.7441 18.0879 13.6879C18.1441 13.6316 18.2204 13.6 18.3 13.6H21.3C21.3796 13.6 21.4559 13.6316 21.5121 13.6879C21.5684 13.7441 21.6 13.8204 21.6 13.9V14.5ZM21.6 10.9C21.6 10.9796 21.5684 11.0559 21.5121 11.1121C21.4559 11.1684 21.3796 11.2 21.3 11.2H11.1C11.0204 11.2 10.9441 11.1684 10.8879 11.1121C10.8316 11.0559 10.8 10.9796 10.8 10.9V10.3C10.8 10.2204 10.8316 10.1441 10.8879 10.0879C10.9441 10.0316 11.0204 10 11.1 10H21.3C21.3796 10 21.4559 10.0316 21.5121 10.0879C21.5684 10.1441 21.6 10.2204 21.6 10.3V10.9Z" fill="#8D98B4"/>
<path d="M5.40031 9.10457V8.50007C5.40031 8.42051 5.43191 8.3442 5.48818 8.28794C5.54444 8.23168 5.62074 8.20007 5.70031 8.20007H6.30031C6.37987 8.20007 6.45618 8.23168 6.51244 8.28794C6.5687 8.3442 6.60031 8.42051 6.60031 8.50007V9.11095C7.02602 9.13274 7.43558 9.28092 7.77669 9.53657C7.81086 9.56316 7.83888 9.59684 7.85881 9.63528C7.87873 9.67372 7.89011 9.71603 7.89214 9.75928C7.89417 9.80253 7.88681 9.84571 7.87057 9.88586C7.85433 9.926 7.8296 9.96215 7.79806 9.99182L7.35706 10.4126C7.30599 10.4591 7.24076 10.4871 7.17186 10.492C7.10296 10.497 7.0344 10.4787 6.97718 10.4399C6.83339 10.3488 6.66669 10.3003 6.49643 10.3001H5.44231C5.19856 10.3001 4.99981 10.5221 4.99981 10.7947C4.99981 11.0178 5.13518 11.2143 5.32868 11.2721L7.01618 11.7783C7.71331 11.9876 8.20044 12.6566 8.20044 13.4054C8.20044 14.3253 7.48794 15.0719 6.60031 15.0956V15.7001C6.60031 15.7796 6.5687 15.8559 6.51244 15.9122C6.45618 15.9685 6.37987 16.0001 6.30031 16.0001H5.70031C5.62074 16.0001 5.54444 15.9685 5.48818 15.9122C5.43191 15.8559 5.40031 15.7796 5.40031 15.7001V15.0892C4.97463 15.0672 4.56512 14.9191 4.22393 14.6636C4.18975 14.637 4.16174 14.6033 4.14181 14.5649C4.12188 14.5264 4.11051 14.4841 4.10848 14.4409C4.10645 14.3976 4.11381 14.3544 4.13005 14.3143C4.14628 14.2741 4.17102 14.238 4.20256 14.2083L4.64318 13.7876C4.69425 13.7411 4.75948 13.7131 4.82838 13.7081C4.89728 13.7031 4.96585 13.7215 5.02306 13.7602C5.16692 13.8512 5.33358 13.8997 5.50381 13.9001H6.55793C6.80168 13.9001 7.00043 13.6781 7.00043 13.4054C7.00043 13.1823 6.86506 12.9858 6.67156 12.9281L4.98406 12.4218C4.28693 12.2126 3.7998 11.5436 3.7998 10.7947C3.7998 9.8752 4.51418 9.1282 5.40031 9.10457Z" fill="#8D98B4"/>
</svg>
