<svg width="24" height="24" viewBox="0 0 24 24" fill="none" xmlns="http://www.w3.org/2000/svg">
<path opacity="0.4" d="M22.8 6H16.3875L20.8976 10.5094C21.3476 10.9596 21.6002 11.5701 21.6 12.2066V15C21.6 15.1591 21.5368 15.3117 21.4243 15.4243C21.3117 15.5368 21.1591 15.6 21 15.6H9.9C9.82044 15.6 9.74413 15.5684 9.68787 15.5121C9.63161 15.4559 9.6 15.3796 9.6 15.3V14.7C9.6 14.6204 9.63161 14.5441 9.68787 14.4879C9.74413 14.4316 9.82044 14.4 9.9 14.4H16.0125L13.6125 12H9.9C9.82044 12 9.74413 11.9684 9.68787 11.9121C9.63161 11.8559 9.6 11.7796 9.6 11.7V11.1C9.6 11.0204 9.63161 10.9441 9.68787 10.8879C9.74413 10.8316 9.82044 10.8 9.9 10.8H12.4125L7.6125 6H1.2C0.88174 6 0.576516 6.12643 0.351472 6.35147C0.126428 6.57652 0 6.88174 0 7.2L0 18C0 18.3183 0.126428 18.6235 0.351472 18.8485C0.576516 19.0736 0.88174 19.2 1.2 19.2H22.8C23.1183 19.2 23.4235 19.0736 23.6485 18.8485C23.8736 18.6235 24 18.3183 24 18V7.2C24 6.88174 23.8736 6.57652 23.6485 6.35147C23.4235 6.12643 23.1183 6 22.8 6ZM5.4 15.5944V16.2C5.4 16.2796 5.36839 16.3559 5.31213 16.4121C5.25587 16.4684 5.17957 16.5 5.1 16.5H4.5C4.42044 16.5 4.34413 16.4684 4.28787 16.4121C4.23161 16.3559 4.2 16.2796 4.2 16.2V15.588C3.77435 15.5659 3.36488 15.4177 3.02363 15.1624C2.98945 15.1358 2.96143 15.1021 2.94151 15.0637C2.92158 15.0252 2.91021 14.9829 2.90818 14.9397C2.90614 14.8964 2.9135 14.8532 2.92974 14.8131C2.94598 14.773 2.97072 14.7368 3.00225 14.7071L3.44288 14.2875C3.49388 14.2409 3.55912 14.2128 3.62806 14.2078C3.69699 14.2029 3.76559 14.2213 3.82275 14.2601C3.9666 14.3512 4.13326 14.3997 4.3035 14.4H5.35763C5.60138 14.4 5.80013 14.178 5.80013 13.9054C5.80013 13.6823 5.66475 13.4857 5.47125 13.428L3.78375 12.9217C3.08663 12.7125 2.5995 12.0424 2.5995 11.2935C2.5995 10.374 3.31388 9.627 4.19963 9.60338V9C4.19963 8.92044 4.23123 8.84413 4.28749 8.78787C4.34375 8.73161 4.42006 8.7 4.49963 8.7H5.09963C5.17919 8.7 5.2555 8.73161 5.31176 8.78787C5.36802 8.84413 5.39963 8.92044 5.39963 9V9.61088C5.82534 9.63264 6.23491 9.78083 6.576 10.0365C6.63872 10.0854 6.67947 10.1571 6.68932 10.236C6.69916 10.3149 6.67729 10.3945 6.6285 10.4572C6.61913 10.4696 6.60871 10.4812 6.59737 10.4918L6.15675 10.9125C6.10565 10.959 6.04043 10.9869 5.97155 10.9919C5.90266 10.9968 5.83411 10.9785 5.77688 10.9399C5.63308 10.8487 5.46638 10.8002 5.29613 10.8H4.242C3.99825 10.8 3.7995 11.022 3.7995 11.2946C3.7995 11.5178 3.93488 11.7143 4.12838 11.772L5.81588 12.2783C6.513 12.4875 7.00013 13.1565 7.00013 13.9054C7.00013 14.8241 6.28575 15.5708 5.4 15.5944Z" fill="#8D98B4"/>
<path d="M8.95397 0.262518C8.78477 0.0951165 8.55637 0.0012207 8.31835 0.0012207C8.08033 0.0012207 7.85193 0.0951165 7.68273 0.262518L6.26223 1.68152C6.09506 1.85008 6.00126 2.07787 6.00126 2.31527C6.00126 2.55267 6.09506 2.78046 6.26223 2.94902L7.83347 4.52027L10.5222 1.82777L8.95397 0.262518ZM20.0487 11.358L11.369 2.67902L8.68022 5.36777L17.3577 14.0475C17.469 14.1591 17.6012 14.2477 17.7468 14.3081C17.8923 14.3686 18.0483 14.3998 18.206 14.4H19.7997C19.9588 14.4 20.1114 14.3368 20.224 14.2243C20.3365 14.1118 20.3997 13.9591 20.3997 13.8V12.2066C20.3999 11.8884 20.2736 11.5832 20.0487 11.358ZM5.8156 12.2771L4.12811 11.7709C3.93461 11.7131 3.79923 11.5166 3.79923 11.2935C3.79923 11.0209 3.99798 10.7989 4.24173 10.7989H5.29585C5.46611 10.7991 5.63281 10.8476 5.7766 10.9388C5.83384 10.9774 5.90239 10.9957 5.97127 10.9908C6.04016 10.9858 6.10538 10.9579 6.15648 10.9114L6.5971 10.4906C6.60844 10.4801 6.61885 10.4685 6.62823 10.4561C6.67701 10.3934 6.69889 10.3138 6.68904 10.2349C6.6792 10.156 6.63844 10.0843 6.57573 10.0354C6.23474 9.77979 5.82532 9.63161 5.39973 9.60977V9.00002C5.39973 8.92045 5.36812 8.84415 5.31186 8.78789C5.2556 8.73163 5.17929 8.70002 5.09973 8.70002H4.49973C4.42017 8.70002 4.34386 8.73163 4.2876 8.78789C4.23134 8.84415 4.19973 8.92045 4.19973 9.00002V9.60452C3.31398 9.62814 2.59961 10.3751 2.59961 11.2946C2.59961 12.0446 3.08711 12.7125 3.78386 12.9218L5.47135 13.428C5.66485 13.4858 5.80023 13.6823 5.80023 13.9054C5.80023 14.178 5.60148 14.4 5.35773 14.4H4.30323C4.13299 14.3997 3.96633 14.3512 3.82248 14.2601C3.76532 14.2213 3.69672 14.2029 3.62779 14.2078C3.55886 14.2128 3.49361 14.2409 3.44261 14.2875L3.00198 14.7071C2.97045 14.7368 2.94571 14.773 2.92947 14.8131C2.91323 14.8533 2.90588 14.8964 2.90791 14.9397C2.90994 14.9829 2.92131 15.0252 2.94124 15.0637C2.96117 15.1021 2.98918 15.1358 3.02336 15.1624C3.36461 15.4178 3.77408 15.5659 4.19973 15.588V16.2C4.19973 16.2796 4.23134 16.3559 4.2876 16.4122C4.34386 16.4684 4.42017 16.5 4.49973 16.5H5.09973C5.17929 16.5 5.2556 16.4684 5.31186 16.4122C5.36812 16.3559 5.39973 16.2796 5.39973 16.2V15.5944C6.28548 15.5708 6.99985 14.8241 6.99985 13.9043C6.99985 13.1554 6.51273 12.4875 5.8156 12.2771V12.2771Z" fill="#8D98B4"/>
</svg>
