<svg width="24" height="24" viewBox="0 0 24 24" fill="none" xmlns="http://www.w3.org/2000/svg">
<path opacity="0.4" d="M19.1985 2.39709C18.8424 2.39709 18.4942 2.5027 18.1981 2.70055C17.902 2.8984 17.6712 3.17962 17.535 3.50863C17.3987 3.83765 17.363 4.19969 17.4325 4.54897C17.502 4.89825 17.6735 5.21908 17.9253 5.4709C18.1771 5.72272 18.4979 5.89421 18.8472 5.96369C19.1965 6.03316 19.5585 5.9975 19.8875 5.86122C20.2166 5.72494 20.4978 5.49415 20.6956 5.19805C20.8935 4.90194 20.9991 4.55381 20.9991 4.19769C20.9991 3.72014 20.8094 3.26215 20.4717 2.92448C20.134 2.5868 19.676 2.39709 19.1985 2.39709V2.39709ZM4.79376 2.39709C4.43763 2.39709 4.08951 2.5027 3.7934 2.70055C3.4973 2.8984 3.26651 3.17962 3.13023 3.50863C2.99394 3.83765 2.95829 4.19969 3.02776 4.54897C3.09724 4.89825 3.26873 5.21908 3.52055 5.4709C3.77236 5.72272 4.0932 5.89421 4.44248 5.96369C4.79176 6.03316 5.1538 5.9975 5.48281 5.86122C5.81183 5.72494 6.09304 5.49415 6.29089 5.19805C6.48875 4.90194 6.59435 4.55381 6.59435 4.19769C6.59435 3.72014 6.40464 3.26215 6.06697 2.92448C5.72929 2.5868 5.2713 2.39709 4.79376 2.39709V2.39709ZM14.9971 7.19868H8.99514C8.83595 7.19868 8.68329 7.26191 8.57073 7.37447C8.45817 7.48703 8.39494 7.6397 8.39494 7.79888V14.2356C8.56862 14.329 8.81995 14.3838 8.99514 14.3977H14.9971C15.1723 14.3838 15.4229 14.329 15.5973 14.2364V7.78762C15.5944 7.6304 15.5298 7.48061 15.4176 7.37048C15.3053 7.26034 15.1544 7.19865 14.9971 7.19868V7.19868Z" fill="#8D98B4"/>
<path d="M23.914 19.956L22.2635 15.8297L20.7221 17.5702L20.647 18.253L21.6858 20.8488C21.7749 21.0713 21.9286 21.2621 22.1271 21.3965C22.3256 21.5308 22.5598 21.6027 22.7995 21.6028C22.9525 21.6036 23.1042 21.5743 23.2459 21.5165C23.5414 21.3982 23.7778 21.1673 23.9031 20.8746C24.0284 20.582 24.0323 20.2516 23.914 19.956V19.956ZM1.72918 15.8297L0.0786368 19.956C-0.03343 20.2502 -0.0254471 20.5766 0.100866 20.865C0.227179 21.1534 0.461711 21.3805 0.753933 21.4976C1.04616 21.6147 1.37268 21.6123 1.66315 21.491C1.95363 21.3696 2.1848 21.139 2.30687 20.8488L3.34634 18.253L3.27132 17.5702L1.72918 15.8297ZM7.36767 9.74514C7.05531 8.80872 6.41432 8.01715 5.56332 7.5169C5.24738 7.33118 4.89186 7.22312 4.52601 7.2016C4.16015 7.18008 3.79442 7.24571 3.45888 7.39311C3.10877 7.54391 2.79903 7.77493 2.55467 8.06752C2.31031 8.3601 2.13817 8.70604 2.05216 9.07742L1.36194 12.0859C1.27644 12.4579 1.28084 12.8448 1.37478 13.2147C1.46873 13.5846 1.6495 13.9268 1.90211 14.2129L4.42295 17.0601L4.80145 20.5337C4.83377 20.8275 4.97331 21.099 5.19334 21.2962C5.41338 21.4935 5.69845 21.6027 5.99396 21.6028C6.0386 21.6028 6.07987 21.5991 6.12526 21.5953C6.28198 21.5783 6.43379 21.5305 6.57201 21.4547C6.71022 21.3788 6.83211 21.2765 6.9307 21.1535C7.02928 21.0305 7.10262 20.8892 7.14651 20.7378C7.19041 20.5864 7.20399 20.4278 7.18648 20.2711L6.80761 16.79C6.75132 16.3029 6.54723 15.8447 6.22279 15.477L4.59813 13.6389L5.25872 11.0018L5.51343 11.7671C5.66723 12.236 5.9602 12.6449 6.43248 12.99L8.34937 14.2091C8.36362 14.2181 8.37863 14.2264 8.39401 14.2346V11.3994L7.79156 11.0168L7.36767 9.74514ZM22.6315 12.0859L21.9367 9.07742C21.8507 8.70604 21.6786 8.3601 21.4342 8.06752C21.1899 7.77493 20.8801 7.54391 20.53 7.39311C20.1945 7.24565 19.8287 7.17998 19.4629 7.2015C19.097 7.22303 18.7415 7.33112 18.4256 7.5169C17.5759 8.01882 16.9353 8.80977 16.6208 9.74514L16.1973 11.0168L15.5971 11.3994V14.2354C15.6129 14.2268 15.6283 14.2181 15.6425 14.2091L17.5594 12.99C18.0324 12.6449 18.3247 12.2397 18.4785 11.7671L18.7339 11.0018L19.3938 13.6389L17.7698 15.477C17.4448 15.8444 17.2405 16.3027 17.1843 16.79L16.8054 20.2711C16.7707 20.5875 16.863 20.9048 17.0622 21.1531C17.2613 21.4015 17.551 21.5605 17.8674 21.5953C17.912 21.5991 17.9533 21.6028 17.9987 21.6028C18.2942 21.6027 18.5793 21.4935 18.7993 21.2962C19.0193 21.099 19.1589 20.8275 19.1912 20.5337L19.5704 17.0601L22.0909 14.2129C22.3425 13.9262 22.5227 13.584 22.6166 13.2143C22.7106 12.8446 22.7157 12.4579 22.6315 12.0859V12.0859Z" fill="#8D98B4"/>
</svg>
