<svg width="24" height="24" viewBox="0 0 24 24" fill="none" xmlns="http://www.w3.org/2000/svg">
<g clip-path="url(#clip0)">
<path opacity="0.4" d="M23.25 6C23.25 16.373 16.8797 22.1531 12.8625 23.8275C12.589 23.9408 12.296 23.9995 12 24V1.53443e-06C12.2976 -0.000345329 12.5923 0.0581184 12.8672 0.172033L21.8672 3.92203C22.2771 4.09323 22.6271 4.3819 22.8732 4.75169C23.1192 5.12147 23.2504 5.55582 23.25 6V6Z" fill="#8D98B4"/>
<path d="M12 0V24C11.7024 24.0003 11.4077 23.9419 11.1328 23.828C6.11719 21.7369 0.75 15.3056 0.75 6C0.750123 5.55537 0.881981 5.12074 1.12893 4.75099C1.37587 4.38124 1.72683 4.09294 2.1375 3.9225L11.1375 0.1725C11.411 0.0591578 11.704 0.00055159 12 0V0Z" fill="#8D98B4"/>
</g>
<defs>
<clipPath id="clip0">
<rect width="24" height="24" fill="white"/>
</clipPath>
</defs>
</svg>
