<svg width="24" height="24" viewBox="0 0 24 24" fill="none" xmlns="http://www.w3.org/2000/svg">
<path opacity="0.4" d="M3 7.5V16.5C3 16.8978 3.15804 17.2794 3.43934 17.5607C3.72064 17.842 4.10218 18 4.5 18H8.4375C8.58668 18 8.72976 18.0593 8.83525 18.1648C8.94074 18.2702 9 18.4133 9 18.5625V20.4375C9 20.5867 8.94074 20.7298 8.83525 20.8352C8.72976 20.9407 8.58668 21 8.4375 21H4.5C3.30653 21 2.16193 20.5259 1.31802 19.682C0.474106 18.8381 0 17.6935 0 16.5L0 7.5C0 6.30653 0.474106 5.16193 1.31802 4.31802C2.16193 3.47411 3.30653 3 4.5 3H8.4375C8.58668 3 8.72976 3.05926 8.83525 3.16475C8.94074 3.27024 9 3.41332 9 3.5625V5.4375C9 5.58668 8.94074 5.72976 8.83525 5.83525C8.72976 5.94074 8.58668 6 8.4375 6H4.5C4.10218 6 3.72064 6.15804 3.43934 6.43934C3.15804 6.72064 3 7.10218 3 7.5V7.5Z" fill="#8D98B4"/>
<path d="M13.5 19.875V15.375H7.125C6.97716 15.3754 6.8307 15.3465 6.69405 15.2901C6.55739 15.2337 6.43322 15.1509 6.32868 15.0463C6.22414 14.9418 6.14129 14.8176 6.08488 14.681C6.02848 14.5443 5.99963 14.3979 6 14.25V9.75002C5.99963 9.60218 6.02848 9.45572 6.08488 9.31906C6.14129 9.1824 6.22414 9.05824 6.32868 8.9537C6.43322 8.84916 6.55739 8.76631 6.69405 8.7099C6.8307 8.6535 6.97716 8.62465 7.125 8.62502H13.5V4.12502C13.5 3.1219 14.7141 2.62502 15.4219 3.32815L23.2969 11.2031C23.5064 11.4154 23.6239 11.7017 23.6239 12C23.6239 12.2983 23.5064 12.5846 23.2969 12.7969L15.4219 20.6719C14.7188 21.375 13.5 20.8838 13.5 19.875Z" fill="#8D98B4"/>
</svg>
