<svg width="24" height="24" viewBox="0 0 24 24" fill="none" xmlns="http://www.w3.org/2000/svg">
<path opacity="0.4" d="M23.3409 10.5909L13.4091 0.659062C12.9871 0.237099 12.4149 2.79841e-05 11.8181 0L2.25 0C1.65326 0 1.08097 0.237053 0.65901 0.65901C0.237053 1.08097 0 1.65326 0 2.25L0 11.8181C2.79841e-05 12.4149 0.237099 12.9871 0.659062 13.4091L10.5909 23.3409C11.0129 23.7629 11.5852 23.9999 12.1819 23.9999C12.7786 23.9999 13.3509 23.7629 13.7728 23.3409L23.3409 13.7728C23.7629 13.3509 23.9999 12.7786 23.9999 12.1819C23.9999 11.5852 23.7629 11.0129 23.3409 10.5909ZM5.25 7.5C4.80499 7.5 4.36998 7.36804 3.99997 7.12081C3.62996 6.87357 3.34157 6.52217 3.17127 6.11104C3.00097 5.6999 2.95642 5.2475 3.04323 4.81105C3.13005 4.37459 3.34434 3.97368 3.65901 3.65901C3.97368 3.34434 4.37459 3.13005 4.81105 3.04323C5.2475 2.95642 5.6999 3.00097 6.11104 3.17127C6.52217 3.34157 6.87357 3.62996 7.12081 3.99997C7.36804 4.36998 7.5 4.80499 7.5 5.25C7.5 5.84674 7.26295 6.41903 6.84099 6.84099C6.41903 7.26295 5.84674 7.5 5.25 7.5V7.5Z" fill="#8D98B4"/>
</svg>
