<svg width="24" height="24" viewBox="0 0 24 24" fill="none" xmlns="http://www.w3.org/2000/svg">
<g clip-path="url(#clip0)">
<path opacity="0.4" d="M23.2505 18.3757H9.75049C9.55158 18.3757 9.36081 18.4547 9.22016 18.5954C9.07951 18.7361 9.00049 18.9268 9.00049 19.1257V20.6257C9.00049 20.8246 9.07951 21.0154 9.22016 21.1561C9.36081 21.2967 9.55158 21.3757 9.75049 21.3757H23.2505C23.4494 21.3757 23.6402 21.2967 23.7808 21.1561C23.9215 21.0154 24.0005 20.8246 24.0005 20.6257V19.1257C24.0005 18.9268 23.9215 18.7361 23.7808 18.5954C23.6402 18.4547 23.4494 18.3757 23.2505 18.3757ZM23.2505 3.37573H9.75049C9.55158 3.37573 9.36081 3.45475 9.22016 3.5954C9.07951 3.73605 9.00049 3.92682 9.00049 4.12573V5.62573C9.00049 5.82464 9.07951 6.01541 9.22016 6.15606C9.36081 6.29671 9.55158 6.37573 9.75049 6.37573H23.2505C23.4494 6.37573 23.6402 6.29671 23.7808 6.15606C23.9215 6.01541 24.0005 5.82464 24.0005 5.62573V4.12573C24.0005 3.92682 23.9215 3.73605 23.7808 3.5954C23.6402 3.45475 23.4494 3.37573 23.2505 3.37573V3.37573ZM23.2505 10.8757H9.75049C9.55158 10.8757 9.36081 10.9548 9.22016 11.0954C9.07951 11.2361 9.00049 11.4268 9.00049 11.6257V13.1257C9.00049 13.3246 9.07951 13.5154 9.22016 13.6561C9.36081 13.7967 9.55158 13.8757 9.75049 13.8757H23.2505C23.4494 13.8757 23.6402 13.7967 23.7808 13.6561C23.9215 13.5154 24.0005 13.3246 24.0005 13.1257V11.6257C24.0005 11.4268 23.9215 11.2361 23.7808 11.0954C23.6402 10.9548 23.4494 10.8757 23.2505 10.8757Z" fill="#8D98B4"/>
<path d="M6.54419 2.03971C6.49194 1.98727 6.42984 1.94566 6.36147 1.91727C6.29309 1.88888 6.21979 1.87427 6.14576 1.87427C6.07172 1.87427 5.99842 1.88888 5.93005 1.91727C5.86167 1.94566 5.79958 1.98727 5.74732 2.03971L2.76232 5.00737L1.69826 3.97049C1.646 3.91805 1.5839 3.87644 1.51553 3.84805C1.44716 3.81966 1.37385 3.80505 1.29982 3.80505C1.22579 3.80505 1.15248 3.81966 1.08411 3.84805C1.01574 3.87644 0.953639 3.91805 0.901381 3.97049L0.165444 4.70737C0.113004 4.75963 0.0713953 4.82172 0.0430048 4.89009C0.0146143 4.95847 0 5.03177 0 5.10581C0 5.17984 0.0146143 5.25314 0.0430048 5.32152C0.0713953 5.38989 0.113004 5.45198 0.165444 5.50424L2.39622 7.72612C2.50757 7.83196 2.65533 7.89098 2.80896 7.89098C2.96259 7.89098 3.11035 7.83196 3.22169 7.72612L3.95247 6.99393L7.33685 3.61002C7.4423 3.50449 7.50188 3.36164 7.50267 3.21245C7.50346 3.06327 7.44539 2.91979 7.34107 2.81315L6.54419 2.03971ZM6.54419 9.50174C6.49194 9.4493 6.42984 9.40769 6.36147 9.3793C6.29309 9.35091 6.21979 9.3363 6.14576 9.3363C6.07172 9.3363 5.99842 9.35091 5.93005 9.3793C5.86167 9.40769 5.79958 9.4493 5.74732 9.50174L2.76232 12.4886L1.69826 11.4527C1.646 11.4002 1.5839 11.3586 1.51553 11.3302C1.44716 11.3019 1.37385 11.2872 1.29982 11.2872C1.22579 11.2872 1.15248 11.3019 1.08411 11.3302C1.01574 11.3586 0.953639 11.4002 0.901381 11.4527L0.165444 12.1881C0.113004 12.2404 0.0713953 12.3025 0.0430048 12.3709C0.0146143 12.4392 0 12.5126 0 12.5866C0 12.6606 0.0146143 12.7339 0.0430048 12.8023C0.0713953 12.8707 0.113004 12.9328 0.165444 12.985L2.3906 15.2116C2.50187 15.3174 2.64955 15.3764 2.8031 15.3764C2.95665 15.3764 3.10433 15.3174 3.2156 15.2116L3.95154 14.4761L7.33591 11.0908C7.44096 10.986 7.50034 10.844 7.50113 10.6956C7.50192 10.5472 7.44405 10.4045 7.34013 10.2986L6.54419 9.50174ZM2.99997 17.6256C1.75826 17.6256 0.722319 18.6335 0.722319 19.8756C0.722319 21.1178 1.75919 22.1256 2.99997 22.1256C3.59671 22.1256 4.16901 21.8886 4.59097 21.4666C5.01292 21.0447 5.24997 20.4724 5.24997 19.8756C5.24997 19.2789 5.01292 18.7066 4.59097 18.2847C4.16901 17.8627 3.59671 17.6256 2.99997 17.6256Z" fill="#8D98B4"/>
</g>
<defs>
<clipPath id="clip0">
<rect width="24" height="24" fill="white"/>
</clipPath>
</defs>
</svg>
