<svg width="24" height="24" viewBox="0 0 24 24" fill="none" xmlns="http://www.w3.org/2000/svg">
<path opacity="0.4" d="M12 0C5.37097 0 0 5.37097 0 12C0 18.629 5.37097 24 12 24C18.629 24 24 18.629 24 12C24 5.37097 18.629 0 12 0ZM17.8839 15.15C17.938 15.2039 17.981 15.268 18.0103 15.3386C18.0396 15.4092 18.0547 15.4849 18.0547 15.5613C18.0547 15.6377 18.0396 15.7134 18.0103 15.784C17.981 15.8545 17.938 15.9186 17.8839 15.9726L15.9677 17.8839C15.9138 17.938 15.8497 17.981 15.7791 18.0103C15.7085 18.0396 15.6329 18.0547 15.5565 18.0547C15.48 18.0547 15.4044 18.0396 15.3338 18.0103C15.2632 17.981 15.1991 17.938 15.1452 17.8839L12 14.7097L8.85 17.8839C8.79606 17.938 8.73196 17.981 8.66138 18.0103C8.5908 18.0396 8.51513 18.0547 8.43871 18.0547C8.36229 18.0547 8.28662 18.0396 8.21604 18.0103C8.14546 17.981 8.08136 17.938 8.02742 17.8839L6.11613 15.9677C6.062 15.9138 6.01905 15.8497 5.98974 15.7791C5.96043 15.7085 5.94535 15.6329 5.94535 15.5565C5.94535 15.48 5.96043 15.4044 5.98974 15.3338C6.01905 15.2632 6.062 15.1991 6.11613 15.1452L9.29032 12L6.11613 8.85C6.062 8.79606 6.01905 8.73196 5.98974 8.66138C5.96043 8.5908 5.94535 8.51513 5.94535 8.43871C5.94535 8.36229 5.96043 8.28662 5.98974 8.21604C6.01905 8.14546 6.062 8.08136 6.11613 8.02742L8.03226 6.11129C8.0862 6.05716 8.1503 6.01421 8.22088 5.9849C8.29146 5.9556 8.36713 5.94051 8.44355 5.94051C8.51997 5.94051 8.59564 5.9556 8.66622 5.9849C8.7368 6.01421 8.80089 6.05716 8.85484 6.11129L12 9.29032L15.15 6.11613C15.2039 6.062 15.268 6.01905 15.3386 5.98974C15.4092 5.96043 15.4849 5.94535 15.5613 5.94535C15.6377 5.94535 15.7134 5.96043 15.784 5.98974C15.8545 6.01905 15.9186 6.062 15.9726 6.11613L17.8887 8.03226C17.9428 8.0862 17.9858 8.1503 18.0151 8.22088C18.0444 8.29146 18.0595 8.36713 18.0595 8.44355C18.0595 8.51997 18.0444 8.59564 18.0151 8.66622C17.9858 8.7368 17.9428 8.80089 17.8887 8.85484L14.7097 12L17.8839 15.15Z" fill="#8D98B4"/>
<path d="M17.8843 15.1491C17.9385 15.203 17.9814 15.2671 18.0107 15.3377C18.04 15.4083 18.0551 15.4839 18.0551 15.5604C18.0551 15.6368 18.04 15.7124 18.0107 15.783C17.9814 15.8536 17.9385 15.9177 17.8843 15.9716L15.9682 17.8829C15.9143 17.9371 15.8502 17.98 15.7796 18.0093C15.709 18.0386 15.6333 18.0537 15.5569 18.0537C15.4805 18.0537 15.4048 18.0386 15.3342 18.0093C15.2637 17.98 15.1996 17.9371 15.1456 17.8829L12.0005 14.7087L8.85045 17.8829C8.79651 17.9371 8.73241 17.98 8.66183 18.0093C8.59125 18.0386 8.51558 18.0537 8.43916 18.0537C8.36274 18.0537 8.28707 18.0386 8.21649 18.0093C8.14591 17.98 8.08181 17.9371 8.02787 17.8829L6.11658 15.9668C6.06245 15.9129 6.0195 15.8488 5.99019 15.7782C5.96089 15.7076 5.9458 15.6319 5.9458 15.5555C5.9458 15.4791 5.96089 15.4034 5.99019 15.3328C6.0195 15.2623 6.06245 15.1982 6.11658 15.1442L9.29077 11.9991L6.11658 8.84907C6.06245 8.79512 6.0195 8.73102 5.99019 8.66044C5.96089 8.58987 5.9458 8.5142 5.9458 8.43777C5.9458 8.36135 5.96089 8.28568 5.99019 8.21511C6.0195 8.14453 6.06245 8.08043 6.11658 8.02648L8.03271 6.11036C8.08665 6.05622 8.15075 6.01327 8.22133 5.98397C8.29191 5.95466 8.36758 5.93958 8.444 5.93958C8.52042 5.93958 8.59609 5.95466 8.66667 5.98397C8.73725 6.01327 8.80135 6.05622 8.85529 6.11036L12.0005 9.28939L15.1505 6.11519C15.2044 6.06106 15.2685 6.01811 15.3391 5.98881C15.4097 5.9595 15.4853 5.94441 15.5617 5.94441C15.6382 5.94441 15.7138 5.9595 15.7844 5.98881C15.855 6.01811 15.9191 6.06106 15.973 6.11519L17.8892 8.03132C17.9433 8.08527 17.9862 8.14937 18.0155 8.21994C18.0449 8.29052 18.0599 8.36619 18.0599 8.44261C18.0599 8.51903 18.0449 8.5947 18.0155 8.66528C17.9862 8.73586 17.9433 8.79996 17.8892 8.8539L14.7101 11.9991L17.8843 15.1491Z" fill="#8D98B4"/>
</svg>
