<svg width="24" height="24" viewBox="0 0 24 24" fill="none" xmlns="http://www.w3.org/2000/svg">
<path opacity="0.4" d="M5.88262 18.5052C5.98509 18.4029 6.12259 18.3433 6.26732 18.3385C6.41204 18.3338 6.55317 18.3841 6.66215 18.4795C7.9401 19.6039 9.53031 20.3123 11.221 20.5103C12.9116 20.7082 14.6225 20.3864 16.1256 19.5876C17.6287 18.7888 18.8528 17.551 19.6348 16.0391C20.4168 14.5271 20.7196 12.8128 20.5028 11.1245C20.286 9.43612 19.56 7.8539 18.4214 6.58856C17.2828 5.32321 15.7857 4.43481 14.1295 4.04168C12.4733 3.64855 10.7367 3.76936 9.15089 4.38802C7.56509 5.00668 6.20542 6.09382 5.253 7.50463L3.04004 7.61028L3.20756 4.54402C4.31431 3.24 5.69183 2.1927 7.24433 1.47497C8.79682 0.757235 10.487 0.386296 12.1974 0.387945C18.7011 0.387945 24.0046 5.69571 23.9999 12.1994C23.9951 18.7136 18.7125 23.9928 12.1974 23.9928C9.27455 23.9977 6.45463 22.9139 4.28739 20.9528L4.26407 20.9309C4.21083 20.8778 4.16858 20.8148 4.13976 20.7453C4.11094 20.6759 4.0961 20.6015 4.0961 20.5263C4.0961 20.4512 4.11094 20.3768 4.13976 20.3073C4.16858 20.2379 4.21083 20.1749 4.26407 20.1218L5.88262 18.5052Z" fill="#8D98B4"/>
<path d="M0.568707 0.00720215H2.85305C3.00372 0.0152067 3.14511 0.0825146 3.24632 0.194423C3.34752 0.306332 3.40033 0.453745 3.3932 0.604463L3.04008 7.61026L10.0616 7.27427H10.0892C10.2406 7.27427 10.3859 7.33444 10.493 7.44154C10.6001 7.54864 10.6603 7.6939 10.6603 7.84536V10.0964C10.6603 10.2479 10.6001 10.3931 10.493 10.5002C10.3859 10.6073 10.2406 10.6675 10.0892 10.6675H0.571086C0.419625 10.6675 0.274367 10.6073 0.167267 10.5002C0.0601678 10.3931 0 10.2479 0 10.0964V0.578288C-1.31118e-06 0.427238 0.0598398 0.28234 0.166425 0.175308C0.27301 0.0682771 0.417658 0.00783152 0.568707 0.00720215V0.00720215Z" fill="#8D98B4"/>
</svg>
