<svg width="24" height="24" viewBox="0 0 24 24" fill="none" xmlns="http://www.w3.org/2000/svg">
<path opacity="0.4" d="M18 12C18.7121 12 19.4081 11.7889 20.0001 11.3933C20.5921 10.9977 21.0535 10.4355 21.326 9.77769C21.5985 9.11988 21.6698 8.39604 21.5309 7.69771C21.3919 6.99938 21.0491 6.35793 20.5456 5.85446C20.0422 5.35099 19.4007 5.00813 18.7024 4.86922C18.004 4.73032 17.2802 4.80161 16.6224 5.07408C15.9646 5.34656 15.4024 5.80798 15.0068 6.39999C14.6112 6.992 14.4001 7.68802 14.4001 8.40003C14.4001 9.35481 14.7794 10.2705 15.4545 10.9456C16.1296 11.6207 17.0453 12 18 12ZM19.8 13.2H19.6575C19.1363 13.38 18.585 13.5 18 13.5C17.4151 13.5 16.8638 13.38 16.3426 13.2H16.2001C15.4351 13.2 14.7301 13.4213 14.1113 13.7775C15.0263 14.7638 15.6001 16.0725 15.6001 17.52V18.96C15.6001 19.0425 15.5813 19.1212 15.5776 19.2H22.2C22.6774 19.2 23.1352 19.0103 23.4728 18.6728C23.8104 18.3352 24 17.8774 24 17.4C24.0003 16.8484 23.8919 16.3021 23.6809 15.7924C23.4699 15.2827 23.1606 14.8196 22.7705 14.4295C22.3805 14.0394 21.9173 13.7301 21.4076 13.5191C20.8979 13.3081 20.3517 13.1997 19.8 13.2V13.2Z" fill="#8D98B4"/>
<path d="M7.19997 12.0001C8.03064 12.0001 8.84267 11.7537 9.53335 11.2922C10.224 10.8307 10.7624 10.1748 11.0802 9.40734C11.3981 8.6399 11.4813 7.79542 11.3192 6.9807C11.1572 6.16599 10.7572 5.41762 10.1698 4.83025C9.58242 4.24287 8.83406 3.84286 8.01934 3.6808C7.20462 3.51874 6.36015 3.60192 5.5927 3.9198C4.82526 4.23769 4.16931 4.77601 3.70781 5.4667C3.24631 6.15738 2.99999 6.9694 2.99999 7.80008C2.99969 8.35171 3.10812 8.89799 3.31909 9.40769C3.53005 9.91739 3.83941 10.3805 4.22947 10.7706C4.61953 11.1606 5.08265 11.47 5.59235 11.681C6.10205 11.8919 6.64833 12.0004 7.19997 12.0001ZM10.08 13.2001H9.7687C8.96863 13.5911 8.09049 13.7962 7.19997 13.8001C6.27747 13.8001 5.41497 13.5751 4.63123 13.2001H4.31998C3.17434 13.2004 2.07571 13.6556 1.26562 14.4657C0.455533 15.2758 0.000298227 16.3744 0 17.52L0 18.6C0 19.0774 0.189641 19.5352 0.527205 19.8728C0.864769 20.2104 1.3226 20.4 1.79999 20.4H12.5999C13.0773 20.4 13.5352 20.2104 13.8727 19.8728C14.2103 19.5352 14.3999 19.0774 14.3999 18.6V17.52C14.3996 16.3744 13.9444 15.2758 13.1343 14.4657C12.3242 13.6556 11.2256 13.2004 10.08 13.2001V13.2001Z" fill="#8D98B4"/>
</svg>
