<svg width="24" height="24" viewBox="0 0 24 24" fill="none" xmlns="http://www.w3.org/2000/svg">
<g clip-path="url(#clip0)">
<path opacity="0.4" d="M15.0937 13.1475L15.0815 13.1596C14.0973 12.8236 13.2037 12.2656 12.4697 11.5288C11.7357 10.7921 11.1811 9.89632 10.8487 8.91089L0.847901 18.9103C0.298867 19.4756 -0.00567898 20.2342 8.02199e-05 21.0223C0.00583942 21.8103 0.321441 22.5644 0.87868 23.1217C1.43592 23.6789 2.19004 23.9945 2.97808 24.0003C3.76611 24.006 4.52476 23.7015 5.09009 23.1525L15.0937 13.1484V13.1475ZM2.96946 22.1559C2.74696 22.1559 2.52945 22.0899 2.34445 21.9663C2.15944 21.8427 2.01525 21.667 1.9301 21.4614C1.84495 21.2558 1.82267 21.0296 1.86608 20.8114C1.90949 20.5932 2.01663 20.3927 2.17397 20.2354C2.3313 20.0781 2.53176 19.9709 2.74999 19.9275C2.96822 19.8841 3.19442 19.9064 3.39998 19.9915C3.60555 20.0767 3.78125 20.2209 3.90487 20.4059C4.02848 20.5909 4.09446 20.8084 4.09446 21.0309C4.09446 21.3293 3.97594 21.6154 3.76496 21.8264C3.55398 22.0374 3.26783 22.1559 2.96946 22.1559V22.1559Z" fill="#8D98B4"/>
<path d="M22.0163 11.5407C20.1413 13.4157 17.4469 13.9313 15.0919 13.1471L15.0797 13.1593C14.0931 12.8224 13.1975 12.2625 12.4625 11.5232C11.7275 10.7839 11.1729 9.885 10.8418 8.89647L10.8478 8.89037C10.0725 6.53865 10.5853 3.84147 12.4477 1.981C13.2731 1.15597 14.2977 0.558393 15.4222 0.246285C16.5467 -0.065824 17.7328 -0.0818556 18.8653 0.199747C18.9628 0.222996 19.0524 0.271881 19.1246 0.341341C19.1969 0.410802 19.2493 0.498315 19.2764 0.594823C19.3035 0.691332 19.3043 0.79333 19.2788 0.890262C19.2532 0.987194 19.2023 1.07554 19.1311 1.14615L15.6375 4.6374L16.1686 7.8249L19.3589 8.35693L22.8525 4.86381C22.9227 4.79289 23.0104 4.74191 23.1068 4.71609C23.2031 4.69027 23.3046 4.69054 23.4009 4.71687C23.4971 4.7432 23.5846 4.79465 23.6544 4.86594C23.7241 4.93723 23.7737 5.0258 23.798 5.12256C24.0814 6.2551 24.0662 7.44178 23.7539 8.5667C23.4416 9.69162 22.8429 10.7163 22.0163 11.5407V11.5407Z" fill="#8D98B4"/>
</g>
<defs>
<clipPath id="clip0">
<rect width="24" height="24" fill="white"/>
</clipPath>
</defs>
</svg>
