<svg width="28" height="30" viewBox="0 0 28 30" fill="none" xmlns="http://www.w3.org/2000/svg">
<path opacity="0.4" d="M7.625 22.5H5.375C5 22.5 4.625 22.875 4.625 23.25V25.5C4.625 25.875 5 26.25 5.375 26.25H7.625C8 26.25 8.375 25.875 8.375 25.5V23.25C8.375 22.875 8 22.5 7.625 22.5ZM7.625 15H5.375C5 15 4.625 15.375 4.625 15.75V18C4.625 18.375 5 18.75 5.375 18.75H7.625C8 18.75 8.375 18.375 8.375 18V15.75C8.375 15.375 8 15 7.625 15ZM15.125 22.5H12.875C12.5 22.5 12.125 22.875 12.125 23.25V25.5C12.125 25.875 12.5 26.25 12.875 26.25H15.125C15.5 26.25 15.875 25.875 15.875 25.5V23.25C15.875 22.875 15.5 22.5 15.125 22.5ZM15.125 15H12.875C12.5 15 12.125 15.375 12.125 15.75V18C12.125 18.375 12.5 18.75 12.875 18.75H15.125C15.5 18.75 15.875 18.375 15.875 18V15.75C15.875 15.375 15.5 15 15.125 15ZM22.625 15H20.375C20 15 19.625 15.375 19.625 15.75V25.5C19.625 25.875 20 26.25 20.375 26.25H22.625C23 26.25 23.375 25.875 23.375 25.5V15.75C23.375 15.375 23 15 22.625 15Z" fill="white"/>
<path d="M24.3125 0H3.6875C2.1875 0 0.875 1.3125 0.875 2.8125V27.1875C0.875 28.6875 2.1875 30 3.6875 30H24.3125C25.8125 30 27.125 28.6875 27.125 27.1875V2.8125C27.125 1.3125 25.8125 0 24.3125 0ZM8.375 25.5C8.375 25.875 8 26.25 7.625 26.25H5.375C5 26.25 4.625 25.875 4.625 25.5V23.25C4.625 22.875 5 22.5 5.375 22.5H7.625C8 22.5 8.375 22.875 8.375 23.25V25.5ZM8.375 18C8.375 18.375 8 18.75 7.625 18.75H5.375C5 18.75 4.625 18.375 4.625 18V15.75C4.625 15.375 5 15 5.375 15H7.625C8 15 8.375 15.375 8.375 15.75V18ZM15.875 25.5C15.875 25.875 15.5 26.25 15.125 26.25H12.875C12.5 26.25 12.125 25.875 12.125 25.5V23.25C12.125 22.875 12.5 22.5 12.875 22.5H15.125C15.5 22.5 15.875 22.875 15.875 23.25V25.5ZM15.875 18C15.875 18.375 15.5 18.75 15.125 18.75H12.875C12.5 18.75 12.125 18.375 12.125 18V15.75C12.125 15.375 12.5 15 12.875 15H15.125C15.5 15 15.875 15.375 15.875 15.75V18ZM23.375 25.5C23.375 25.875 23 26.25 22.625 26.25H20.375C20 26.25 19.625 25.875 19.625 25.5V15.75C19.625 15.375 20 15 20.375 15H22.625C23 15 23.375 15.375 23.375 15.75V25.5ZM23.375 10.5C23.375 10.875 23 11.25 22.625 11.25H5.375C5 11.25 4.625 10.875 4.625 10.5V4.5C4.625 4.125 5 3.75 5.375 3.75H22.625C23 3.75 23.375 4.125 23.375 4.5V10.5Z" fill="white"/>
</svg>
