<svg width="24" height="24" viewBox="0 0 24 24" fill="none" xmlns="http://www.w3.org/2000/svg">
<path fill-rule="evenodd" clip-rule="evenodd" d="M15.6174 10.1122C16.3339 9.73059 17.0945 9.46252 17.8912 9.3078C17.5089 7.26068 16.9142 5.32343 16.1825 3.78735C15.0024 1.30957 13.5575 0 12.0042 0C10.4507 0 9.00604 1.30957 7.82593 3.78735C7.09424 5.32343 6.49933 7.2605 6.11719 9.30762C6.91388 9.46234 7.6745 9.73059 8.39099 10.112C9.61597 10.7644 10.673 11.7263 11.5333 12.9714C11.6979 13.2094 11.855 13.4575 12.0042 13.7153C12.1536 13.4577 12.3107 13.2096 12.4752 12.9714C13.3354 11.7264 14.3926 10.7644 15.6174 10.1122ZM14.523 7.61353C14.6541 7.48206 14.8358 7.40698 15.0211 7.40698C15.206 7.40698 15.3876 7.48206 15.5187 7.61353C15.6497 7.74445 15.7247 7.92572 15.7247 8.11102C15.7247 8.29706 15.6497 8.47815 15.5187 8.60907C15.3876 8.74017 15.206 8.81561 15.0211 8.81561C14.8358 8.81561 14.6541 8.74017 14.523 8.60907C14.3921 8.47815 14.317 8.29651 14.317 8.11102C14.317 7.92609 14.3921 7.74445 14.523 7.61353ZM9.48541 8.60907C9.35449 8.74017 9.17285 8.81561 8.98737 8.81561C8.80243 8.81561 8.62079 8.74017 8.48987 8.60907C8.3584 8.47815 8.28333 8.29651 8.28333 8.11102C8.28333 7.92609 8.3584 7.74463 8.48987 7.61353C8.62079 7.48206 8.80243 7.40698 8.98737 7.40698C9.17285 7.40698 9.35449 7.48206 9.48541 7.61353C9.61633 7.74445 9.69159 7.92572 9.69159 8.11102C9.69159 8.29706 9.61633 8.47815 9.48541 8.60907ZM10.9937 5.59222C10.8625 5.72369 10.6815 5.79877 10.496 5.79877C10.3107 5.79877 10.129 5.72369 9.99792 5.59222C9.867 5.4613 9.79156 5.28021 9.79156 5.09473C9.79156 4.90924 9.867 4.7276 9.99792 4.59668C10.129 4.46576 10.3107 4.39069 10.496 4.39069C10.6815 4.39069 10.8625 4.46576 10.9937 4.59668C11.1246 4.7276 11.2002 4.90924 11.2002 5.09473C11.2002 5.28021 11.1246 5.4613 10.9937 5.59222ZM12.5017 11.6259C12.3713 11.757 12.1897 11.8321 12.0042 11.8321C11.8189 11.8321 11.6371 11.757 11.5062 11.6259C11.3752 11.4946 11.3002 11.3134 11.3002 11.1281C11.3002 10.9426 11.3752 10.7613 11.5062 10.63C11.6371 10.4991 11.8189 10.4238 12.0042 10.4238C12.1897 10.4238 12.3713 10.4991 12.5017 10.63C12.6332 10.7615 12.7083 10.9426 12.7083 11.1281C12.7084 11.3134 12.6332 11.4946 12.5017 11.6259ZM12.5023 8.60907C12.3708 8.74017 12.1897 8.81561 12.0042 8.81561C11.8189 8.81561 11.6376 8.74017 11.5063 8.60907C11.3752 8.47815 11.3002 8.29651 11.3002 8.11102C11.3002 7.92609 11.3752 7.74463 11.5063 7.61353C11.6376 7.48206 11.8189 7.40698 12.0042 7.40698C12.1897 7.40698 12.371 7.48206 12.5023 7.61353C12.6332 7.74445 12.7084 7.92572 12.7084 8.11102C12.7084 8.29706 12.6332 8.47815 12.5023 8.60907ZM12.5023 2.57593C12.3708 2.70685 12.1897 2.78192 12.0042 2.78192C11.8189 2.78192 11.6376 2.70685 11.5063 2.57593C11.3752 2.44501 11.3002 2.26337 11.3002 2.07788C11.3002 1.89258 11.3752 1.7113 11.5063 1.57983C11.6376 1.44891 11.8189 1.37384 12.0042 1.37384C12.1897 1.37384 12.371 1.44891 12.5023 1.57983C12.6332 1.7113 12.7084 1.89258 12.7084 2.07788C12.7084 2.26337 12.6332 2.44501 12.5023 2.57593ZM13.015 5.59222C12.8835 5.4613 12.8084 5.28021 12.8084 5.09473C12.8084 4.90924 12.8835 4.7276 13.015 4.59668C13.1453 4.46576 13.327 4.39069 13.5125 4.39069C13.6978 4.39069 13.8794 4.46576 14.0105 4.59668C14.1414 4.7276 14.2165 4.90924 14.2165 5.09473C14.2165 5.28021 14.1414 5.4613 14.0105 5.59222C13.8794 5.72369 13.6978 5.79877 13.5125 5.79877C13.327 5.79877 13.1459 5.72369 13.015 5.59222ZM7.72906 11.355C6.73645 10.8264 5.63727 10.5583 4.46246 10.5583H2.95404C2.56531 10.5583 2.25 10.8737 2.25 11.2626C2.25 11.6513 2.56531 11.9666 2.95404 11.9666H3.76648C3.85217 15.7324 4.6333 18.7086 6.0921 20.8199C6.82324 21.8781 7.71332 22.6913 8.73761 23.2368C9.52936 23.6583 10.3889 23.9135 11.3002 23.9999V15.4249C11.0303 14.8256 10.7219 14.2741 10.3748 13.7717C9.64362 12.7137 8.75354 11.9005 7.72906 11.355ZM19.546 10.5583H21.0543C21.4434 10.5583 21.7585 10.8737 21.7585 11.2626C21.7585 11.6515 21.4432 11.9666 21.0543 11.9666H20.2418C20.1561 15.7324 19.375 18.7087 17.9164 20.8201C17.1852 21.8783 16.2953 22.6915 15.2709 23.2368C14.4793 23.6584 13.6198 23.9137 12.7085 23.9999V15.4249C12.9784 14.8256 13.2869 14.2741 13.6339 13.7719C14.3649 12.7137 15.2549 11.9005 16.2794 11.355C17.272 10.8264 18.371 10.5583 19.546 10.5583Z" fill="white"/>
</svg>
