<svg width="18" height="19" viewBox="0 0 18 19" fill="none" xmlns="http://www.w3.org/2000/svg">
<g clip-path="url(#clip0)">
<path d="M10.125 5.28125V0.5H3.09375C2.62617 0.5 2.25 0.876172 2.25 1.34375V17.6562C2.25 18.1238 2.62617 18.5 3.09375 18.5H14.9062C15.3738 18.5 15.75 18.1238 15.75 17.6562V6.125H10.9688C10.5047 6.125 10.125 5.74531 10.125 5.28125ZM12.2379 9.02539L10.125 12.3125L12.2379 15.5996C12.4172 15.8809 12.2168 16.25 11.8828 16.25H10.6559C10.5012 16.25 10.357 16.1656 10.2832 16.0285C9.59414 14.7559 9 13.6133 9 13.6133C8.775 14.1336 8.64844 14.3164 7.71328 16.032C7.63945 16.1691 7.49883 16.2535 7.34414 16.2535H6.11719C5.7832 16.2535 5.58281 15.8844 5.76211 15.6031L7.88203 12.316L5.76211 9.02891C5.5793 8.74766 5.7832 8.37852 6.11719 8.37852H7.34063C7.49531 8.37852 7.63945 8.46289 7.71328 8.6C8.63086 10.3156 8.41641 9.78125 9 11.0082C9 11.0082 9.21445 10.5969 10.2867 8.6C10.3605 8.46289 10.5047 8.37852 10.6594 8.37852H11.8828C12.2168 8.375 12.4172 8.74414 12.2379 9.02539V9.02539ZM15.75 4.78555V5H11.25V0.5H11.4645C11.6895 0.5 11.9039 0.587891 12.0621 0.746094L15.5039 4.19141C15.6621 4.34961 15.75 4.56406 15.75 4.78555Z" fill="white"/>
</g>
<defs>
<clipPath id="clip0">
<path d="M0 0.5H18V18.5H0V0.5Z" fill="white"/>
</clipPath>
</defs>
</svg>
