<svg width="64" height="64" viewBox="0 0 64 64" fill="none" xmlns="http://www.w3.org/2000/svg">
<path fill-rule="evenodd" clip-rule="evenodd" d="M31.9499 22.4697C27.5388 22.4697 23.9624 26.779 23.9624 32.0957C23.9624 37.4114 27.5378 41.7216 31.9499 41.7216C36.36 41.7216 39.9374 37.4134 39.9374 32.0957C39.9374 26.779 36.361 22.4697 31.9499 22.4697ZM62.0191 11.8773C58.1461 10.2528 54.2702 9.63477 50.3963 9.63477C38.0985 9.63377 25.8017 15.859 13.5039 15.859C10.4197 15.859 7.33754 15.4677 4.25335 14.4892C3.9069 14.3794 3.55944 14.3274 3.21997 14.3274C1.50165 14.3274 0 15.6574 0 17.5035V49.18C0 50.441 0.721872 51.6361 1.88106 52.1214C5.75401 53.7468 9.62995 54.3649 13.5039 54.3649C25.8017 54.3649 38.0995 48.1396 50.3973 48.1396C53.4814 48.1396 56.5636 48.531 59.6478 49.5095C59.9943 49.6193 60.3417 49.6712 60.6812 49.6712C62.3995 49.6712 63.9012 48.3413 63.9012 46.4952V14.8197C63.9002 13.5576 63.1783 12.3635 62.0191 11.8773ZM59.1075 44.3785C56.3418 43.6865 53.4723 43.3481 50.3961 43.3481C43.6507 43.3481 37.1039 45.0045 30.7738 46.607C24.7472 48.1316 19.0551 49.5723 13.5038 49.5723C10.3467 49.5723 7.48518 49.0951 4.79239 48.1166V19.6211C7.55807 20.3131 10.4276 20.6515 13.5038 20.6515C20.2492 20.6515 26.795 18.9951 33.1251 17.3926C39.1517 15.868 44.8438 14.4273 50.3961 14.4273C53.5542 14.4273 56.4157 14.9045 59.1075 15.883V44.3785V44.3785Z" fill="white"/>
</svg>
