<svg width="18" height="19" viewBox="0 0 18 19" fill="none" xmlns="http://www.w3.org/2000/svg">
<g clip-path="url(#clip0)">
<path d="M8.64492 9.50352C8.46914 8.94102 8.47266 7.85469 8.57461 7.85469C8.86992 7.85469 8.8418 9.15195 8.64492 9.50352ZM8.58516 11.1629C8.31445 11.873 7.97695 12.6852 7.58672 13.3672C8.23008 13.1211 8.95781 12.7625 9.79805 12.5973C9.35156 12.2598 8.92266 11.7746 8.58516 11.1629ZM5.27695 15.5504C5.27695 15.5785 5.74102 15.3605 6.50391 14.1371C6.26836 14.3586 5.48086 14.9984 5.27695 15.5504ZM10.9688 6.125H15.75V17.6562C15.75 18.1238 15.3738 18.5 14.9062 18.5H3.09375C2.62617 18.5 2.25 18.1238 2.25 17.6562V1.34375C2.25 0.876172 2.62617 0.5 3.09375 0.5H10.125V5.28125C10.125 5.74531 10.5047 6.125 10.9688 6.125ZM10.6875 12.1648C9.98438 11.7359 9.5168 11.1453 9.18633 10.2734C9.34453 9.62305 9.59414 8.63516 9.4043 8.01641C9.23906 6.98281 7.91367 7.08477 7.72383 7.77734C7.54805 8.4207 7.70977 9.32773 8.00859 10.4844C7.60078 11.4547 6.99961 12.7555 6.57422 13.5008C6.5707 13.5008 6.5707 13.5043 6.56719 13.5043C5.61445 13.993 3.97969 15.0687 4.65117 15.8949C4.84805 16.1375 5.21367 16.2465 5.40703 16.2465C6.03633 16.2465 6.66211 15.6137 7.55508 14.0738C8.46211 13.775 9.45703 13.4023 10.3324 13.2582C11.0953 13.673 11.9883 13.9437 12.5824 13.9437C13.609 13.9437 13.6793 12.8187 13.275 12.418C12.7863 11.9398 11.366 12.077 10.6875 12.1648V12.1648ZM15.5039 4.19141L12.0586 0.746094C11.9004 0.587891 11.6859 0.5 11.4609 0.5H11.25V5H15.75V4.78555C15.75 4.56406 15.6621 4.34961 15.5039 4.19141ZM12.8988 13.1668C13.043 13.0719 12.8109 12.7484 11.3941 12.8504C12.6984 13.4059 12.8988 13.1668 12.8988 13.1668Z" fill="white"/>
</g>
<defs>
<clipPath id="clip0">
<path d="M0 0.5H18V18.5H0V0.5Z" fill="white"/>
</clipPath>
</defs>
</svg>
