<svg width="16" height="16" viewBox="0 0 16 16" fill="none" xmlns="http://www.w3.org/2000/svg">
<path opacity="0.4" d="M14.2857 0H1.71429C1.25963 0 0.823594 0.180612 0.502103 0.502103C0.180612 0.823594 0 1.25963 0 1.71429L0 14.2857C0 14.7404 0.180612 15.1764 0.502103 15.4979C0.823594 15.8194 1.25963 16 1.71429 16H14.2857C14.7404 16 15.1764 15.8194 15.4979 15.4979C15.8194 15.1764 16 14.7404 16 14.2857V1.71429C16 1.25963 15.8194 0.823594 15.4979 0.502103C15.1764 0.180612 14.7404 0 14.2857 0ZM13.3429 8.65357L12.9536 9.04643C12.8728 9.12704 12.7768 9.19071 12.6711 9.23371C12.5654 9.27671 12.4522 9.29817 12.3381 9.29684C12.224 9.29551 12.1113 9.27141 12.0066 9.22596C11.902 9.1805 11.8074 9.11461 11.7286 9.03214L9.14286 6.33571V12.8571C9.14314 12.9698 9.12116 13.0814 9.07819 13.1855C9.03521 13.2896 8.97209 13.3842 8.89244 13.4639C8.81279 13.5435 8.71818 13.6066 8.61406 13.6496C8.50994 13.6926 8.39836 13.7146 8.28572 13.7143H7.71429C7.60164 13.7146 7.49006 13.6926 7.38594 13.6496C7.28182 13.6066 7.18721 13.5435 7.10756 13.4639C7.02792 13.3842 6.96479 13.2896 6.92181 13.1855C6.87884 13.0814 6.85686 12.9698 6.85714 12.8571V6.33571L4.27143 9.03214C4.19213 9.1145 4.09725 9.18027 3.99231 9.22564C3.88737 9.271 3.77445 9.29504 3.66013 9.29637C3.54581 9.2977 3.43237 9.27629 3.3264 9.23338C3.22043 9.19047 3.12405 9.12692 3.04286 9.04643L2.65357 8.65357C2.57377 8.57424 2.51044 8.47992 2.46723 8.37603C2.42402 8.27214 2.40177 8.16073 2.40177 8.04821C2.40177 7.9357 2.42402 7.82429 2.46723 7.7204C2.51044 7.61651 2.57377 7.52218 2.65357 7.44286L7.39643 2.70357C7.47576 2.62377 7.57008 2.56044 7.67397 2.51723C7.77786 2.47402 7.88927 2.45177 8.00179 2.45177C8.11431 2.45177 8.22571 2.47402 8.32961 2.51723C8.4335 2.56044 8.52782 2.62377 8.60714 2.70357L13.3429 7.44286C13.4227 7.52218 13.486 7.61651 13.5292 7.7204C13.5724 7.82429 13.5947 7.9357 13.5947 8.04821C13.5947 8.16073 13.5724 8.27214 13.5292 8.37603C13.486 8.47992 13.4227 8.57424 13.3429 8.65357Z" fill="#65D170"/>
<path d="M3.04294 9.04583L2.65366 8.65297C2.57386 8.57365 2.51053 8.47933 2.46732 8.37544C2.4241 8.27155 2.40186 8.16014 2.40186 8.04762C2.40186 7.9351 2.4241 7.82369 2.46732 7.7198C2.51053 7.61591 2.57386 7.52159 2.65366 7.44226L7.39651 2.70297C7.47584 2.62317 7.57016 2.55985 7.67405 2.51663C7.77794 2.47342 7.88935 2.45117 8.00187 2.45117C8.11439 2.45117 8.2258 2.47342 8.32969 2.51663C8.43358 2.55985 8.5279 2.62317 8.60723 2.70297L13.3429 7.44226C13.4227 7.52159 13.4861 7.61591 13.5293 7.7198C13.5725 7.82369 13.5947 7.9351 13.5947 8.04762C13.5947 8.16014 13.5725 8.27155 13.5293 8.37544C13.4861 8.47933 13.4227 8.57365 13.3429 8.65297L12.9537 9.04583C12.8729 9.12644 12.7769 9.19011 12.6712 9.23311C12.5655 9.27611 12.4523 9.29757 12.3382 9.29624C12.2241 9.29491 12.1114 9.27081 12.0067 9.22536C11.9021 9.17991 11.8075 9.11401 11.7287 9.03155L9.14294 6.33512V12.8565C9.14323 12.9692 9.12125 13.0808 9.07827 13.1849C9.0353 13.289 8.97217 13.3836 8.89252 13.4633C8.81287 13.5429 8.71827 13.606 8.61415 13.649C8.51003 13.692 8.39844 13.714 8.2858 13.7137H7.71437C7.60173 13.714 7.49014 13.692 7.38602 13.649C7.2819 13.606 7.1873 13.5429 7.10765 13.4633C7.028 13.3836 6.96487 13.289 6.9219 13.1849C6.87892 13.0808 6.85695 12.9692 6.85723 12.8565V6.33512L4.27151 9.03155C4.19222 9.1139 4.09734 9.17968 3.9924 9.22504C3.88745 9.2704 3.77454 9.29444 3.66022 9.29577C3.5459 9.2971 3.43245 9.27569 3.32648 9.23278C3.22051 9.18987 3.12413 9.12632 3.04294 9.04583Z" fill="#65D170"/>
</svg>