<svg width="30" height="30" viewBox="0 0 30 30" fill="none" xmlns="http://www.w3.org/2000/svg">
<path opacity="0.4" d="M12.4219 9.375H10.0781C9.89164 9.375 9.7128 9.44908 9.58094 9.58094C9.44908 9.7128 9.375 9.89164 9.375 10.0781V12.4219C9.375 12.6084 9.44908 12.7872 9.58094 12.9191C9.7128 13.0509 9.89164 13.125 10.0781 13.125H12.4219C12.6084 13.125 12.7872 13.0509 12.9191 12.9191C13.0509 12.7872 13.125 12.6084 13.125 12.4219V10.0781C13.125 9.89164 13.0509 9.7128 12.9191 9.58094C12.7872 9.44908 12.6084 9.375 12.4219 9.375ZM12.4219 15H10.0781C9.89164 15 9.7128 15.0741 9.58094 15.2059C9.44908 15.3378 9.375 15.5166 9.375 15.7031V18.0469C9.375 18.2334 9.44908 18.4122 9.58094 18.5441C9.7128 18.6759 9.89164 18.75 10.0781 18.75H12.4219C12.6084 18.75 12.7872 18.6759 12.9191 18.5441C13.0509 18.4122 13.125 18.2334 13.125 18.0469V15.7031C13.125 15.5166 13.0509 15.3378 12.9191 15.2059C12.7872 15.0741 12.6084 15 12.4219 15ZM12.4219 3.75H10.0781C9.89164 3.75 9.7128 3.82408 9.58094 3.95594C9.44908 4.0878 9.375 4.26664 9.375 4.45312V6.79688C9.375 6.98336 9.44908 7.1622 9.58094 7.29406C9.7128 7.42592 9.89164 7.5 10.0781 7.5H12.4219C12.6084 7.5 12.7872 7.42592 12.9191 7.29406C13.0509 7.1622 13.125 6.98336 13.125 6.79688V4.45312C13.125 4.26664 13.0509 4.0878 12.9191 3.95594C12.7872 3.82408 12.6084 3.75 12.4219 3.75V3.75ZM19.9219 3.75H17.5781C17.3916 3.75 17.2128 3.82408 17.0809 3.95594C16.9491 4.0878 16.875 4.26664 16.875 4.45312V6.79688C16.875 6.98336 16.9491 7.1622 17.0809 7.29406C17.2128 7.42592 17.3916 7.5 17.5781 7.5H19.9219C20.1084 7.5 20.2872 7.42592 20.4191 7.29406C20.5509 7.1622 20.625 6.98336 20.625 6.79688V4.45312C20.625 4.26664 20.5509 4.0878 20.4191 3.95594C20.2872 3.82408 20.1084 3.75 19.9219 3.75V3.75ZM19.9219 9.375H17.5781C17.3916 9.375 17.2128 9.44908 17.0809 9.58094C16.9491 9.7128 16.875 9.89164 16.875 10.0781V12.4219C16.875 12.6084 16.9491 12.7872 17.0809 12.9191C17.2128 13.0509 17.3916 13.125 17.5781 13.125H19.9219C20.1084 13.125 20.2872 13.0509 20.4191 12.9191C20.5509 12.7872 20.625 12.6084 20.625 12.4219V10.0781C20.625 9.89164 20.5509 9.7128 20.4191 9.58094C20.2872 9.44908 20.1084 9.375 19.9219 9.375ZM19.9219 15H17.5781C17.3916 15 17.2128 15.0741 17.0809 15.2059C16.9491 15.3378 16.875 15.5166 16.875 15.7031V18.0469C16.875 18.2334 16.9491 18.4122 17.0809 18.5441C17.2128 18.6759 17.3916 18.75 17.5781 18.75H19.9219C20.1084 18.75 20.2872 18.6759 20.4191 18.5441C20.5509 18.4122 20.625 18.2334 20.625 18.0469V15.7031C20.625 15.5166 20.5509 15.3378 20.4191 15.2059C20.2872 15.0741 20.1084 15 19.9219 15Z" fill="white"/>
<path d="M27.4219 28.125H26.25V1.40625C26.25 1.03329 26.1018 0.675604 25.8381 0.411881C25.5744 0.148158 25.2167 0 24.8438 0L5.15625 0C4.78329 0 4.4256 0.148158 4.16188 0.411881C3.89816 0.675604 3.75 1.03329 3.75 1.40625V28.125H2.57812C2.39164 28.125 2.2128 28.1991 2.08094 28.3309C1.94908 28.4628 1.875 28.6416 1.875 28.8281V30H28.125V28.8281C28.125 28.6416 28.0509 28.4628 27.9191 28.3309C27.7872 28.1991 27.6084 28.125 27.4219 28.125V28.125ZM9.375 4.45312C9.375 4.26664 9.44908 4.0878 9.58094 3.95594C9.7128 3.82408 9.89164 3.75 10.0781 3.75H12.4219C12.6084 3.75 12.7872 3.82408 12.9191 3.95594C13.0509 4.0878 13.125 4.26664 13.125 4.45312V6.79688C13.125 6.98336 13.0509 7.1622 12.9191 7.29406C12.7872 7.42592 12.6084 7.5 12.4219 7.5H10.0781C9.89164 7.5 9.7128 7.42592 9.58094 7.29406C9.44908 7.1622 9.375 6.98336 9.375 6.79688V4.45312ZM9.375 10.0781C9.375 9.89164 9.44908 9.7128 9.58094 9.58094C9.7128 9.44908 9.89164 9.375 10.0781 9.375H12.4219C12.6084 9.375 12.7872 9.44908 12.9191 9.58094C13.0509 9.7128 13.125 9.89164 13.125 10.0781V12.4219C13.125 12.6084 13.0509 12.7872 12.9191 12.9191C12.7872 13.0509 12.6084 13.125 12.4219 13.125H10.0781C9.89164 13.125 9.7128 13.0509 9.58094 12.9191C9.44908 12.7872 9.375 12.6084 9.375 12.4219V10.0781ZM12.4219 18.75H10.0781C9.89164 18.75 9.7128 18.6759 9.58094 18.5441C9.44908 18.4122 9.375 18.2334 9.375 18.0469V15.7031C9.375 15.5166 9.44908 15.3378 9.58094 15.2059C9.7128 15.0741 9.89164 15 10.0781 15H12.4219C12.6084 15 12.7872 15.0741 12.9191 15.2059C13.0509 15.3378 13.125 15.5166 13.125 15.7031V18.0469C13.125 18.2334 13.0509 18.4122 12.9191 18.5441C12.7872 18.6759 12.6084 18.75 12.4219 18.75ZM16.875 28.125H13.125V23.2031C13.125 23.0166 13.1991 22.8378 13.3309 22.7059C13.4628 22.5741 13.6416 22.5 13.8281 22.5H16.1719C16.3584 22.5 16.5372 22.5741 16.6691 22.7059C16.8009 22.8378 16.875 23.0166 16.875 23.2031V28.125ZM20.625 18.0469C20.625 18.2334 20.5509 18.4122 20.4191 18.5441C20.2872 18.6759 20.1084 18.75 19.9219 18.75H17.5781C17.3916 18.75 17.2128 18.6759 17.0809 18.5441C16.9491 18.4122 16.875 18.2334 16.875 18.0469V15.7031C16.875 15.5166 16.9491 15.3378 17.0809 15.2059C17.2128 15.0741 17.3916 15 17.5781 15H19.9219C20.1084 15 20.2872 15.0741 20.4191 15.2059C20.5509 15.3378 20.625 15.5166 20.625 15.7031V18.0469ZM20.625 12.4219C20.625 12.6084 20.5509 12.7872 20.4191 12.9191C20.2872 13.0509 20.1084 13.125 19.9219 13.125H17.5781C17.3916 13.125 17.2128 13.0509 17.0809 12.9191C16.9491 12.7872 16.875 12.6084 16.875 12.4219V10.0781C16.875 9.89164 16.9491 9.7128 17.0809 9.58094C17.2128 9.44908 17.3916 9.375 17.5781 9.375H19.9219C20.1084 9.375 20.2872 9.44908 20.4191 9.58094C20.5509 9.7128 20.625 9.89164 20.625 10.0781V12.4219ZM20.625 6.79688C20.625 6.98336 20.5509 7.1622 20.4191 7.29406C20.2872 7.42592 20.1084 7.5 19.9219 7.5H17.5781C17.3916 7.5 17.2128 7.42592 17.0809 7.29406C16.9491 7.1622 16.875 6.98336 16.875 6.79688V4.45312C16.875 4.26664 16.9491 4.0878 17.0809 3.95594C17.2128 3.82408 17.3916 3.75 17.5781 3.75H19.9219C20.1084 3.75 20.2872 3.82408 20.4191 3.95594C20.5509 4.0878 20.625 4.26664 20.625 4.45312V6.79688Z" fill="white"/>
</svg>
