<svg width="30" height="30" viewBox="0 0 30 30" fill="none" xmlns="http://www.w3.org/2000/svg">
<path opacity="0.4" d="M8.625 22.5H6.375C6 22.5 5.625 22.875 5.625 23.25V25.5C5.625 25.875 6 26.25 6.375 26.25H8.625C9 26.25 9.375 25.875 9.375 25.5V23.25C9.375 22.875 9 22.5 8.625 22.5V22.5ZM8.625 15H6.375C6 15 5.625 15.375 5.625 15.75V18C5.625 18.375 6 18.75 6.375 18.75H8.625C9 18.75 9.375 18.375 9.375 18V15.75C9.375 15.375 9 15 8.625 15V15ZM16.125 22.5H13.875C13.5 22.5 13.125 22.875 13.125 23.25V25.5C13.125 25.875 13.5 26.25 13.875 26.25H16.125C16.5 26.25 16.875 25.875 16.875 25.5V23.25C16.875 22.875 16.5 22.5 16.125 22.5ZM16.125 15H13.875C13.5 15 13.125 15.375 13.125 15.75V18C13.125 18.375 13.5 18.75 13.875 18.75H16.125C16.5 18.75 16.875 18.375 16.875 18V15.75C16.875 15.375 16.5 15 16.125 15ZM23.625 15H21.375C21 15 20.625 15.375 20.625 15.75V25.5C20.625 25.875 21 26.25 21.375 26.25H23.625C24 26.25 24.375 25.875 24.375 25.5V15.75C24.375 15.375 24 15 23.625 15Z" fill="white"/>
<path d="M25.3125 0H4.6875C3.1875 0 1.875 1.3125 1.875 2.8125V27.1875C1.875 28.6875 3.1875 30 4.6875 30H25.3125C26.8125 30 28.125 28.6875 28.125 27.1875V2.8125C28.125 1.3125 26.8125 0 25.3125 0ZM9.375 25.5C9.375 25.875 9 26.25 8.625 26.25H6.375C6 26.25 5.625 25.875 5.625 25.5V23.25C5.625 22.875 6 22.5 6.375 22.5H8.625C9 22.5 9.375 22.875 9.375 23.25V25.5ZM9.375 18C9.375 18.375 9 18.75 8.625 18.75H6.375C6 18.75 5.625 18.375 5.625 18V15.75C5.625 15.375 6 15 6.375 15H8.625C9 15 9.375 15.375 9.375 15.75V18ZM16.875 25.5C16.875 25.875 16.5 26.25 16.125 26.25H13.875C13.5 26.25 13.125 25.875 13.125 25.5V23.25C13.125 22.875 13.5 22.5 13.875 22.5H16.125C16.5 22.5 16.875 22.875 16.875 23.25V25.5ZM16.875 18C16.875 18.375 16.5 18.75 16.125 18.75H13.875C13.5 18.75 13.125 18.375 13.125 18V15.75C13.125 15.375 13.5 15 13.875 15H16.125C16.5 15 16.875 15.375 16.875 15.75V18ZM24.375 25.5C24.375 25.875 24 26.25 23.625 26.25H21.375C21 26.25 20.625 25.875 20.625 25.5V15.75C20.625 15.375 21 15 21.375 15H23.625C24 15 24.375 15.375 24.375 15.75V25.5ZM24.375 10.5C24.375 10.875 24 11.25 23.625 11.25H6.375C6 11.25 5.625 10.875 5.625 10.5V4.5C5.625 4.125 6 3.75 6.375 3.75H23.625C24 3.75 24.375 4.125 24.375 4.5V10.5Z" fill="white"/>
</svg>
