<svg width="30" height="30" viewBox="0 0 30 30" fill="none" xmlns="http://www.w3.org/2000/svg">
<path opacity="0.4" d="M20.1562 16.875C20.1562 17.8948 19.8538 18.8917 19.2872 19.7396C18.7207 20.5876 17.9154 21.2485 16.9732 21.6387C16.031 22.029 14.9943 22.1311 13.994 21.9322C12.9938 21.7332 12.0751 21.2421 11.354 20.521C10.6328 19.7999 10.1418 18.8811 9.9428 17.8809C9.74384 16.8807 9.84595 15.844 10.2362 14.9018C10.6265 13.9596 11.2874 13.1543 12.1353 12.5877C12.9833 12.0212 13.9802 11.7188 15 11.7188C16.3669 11.7208 17.6772 12.2647 18.6438 13.2312C19.6103 14.1977 20.1542 15.5081 20.1562 16.875Z" fill="white"/>
<path d="M27.1875 5.625H22.0312L21.3047 3.69727C21.1039 3.16178 20.7444 2.70037 20.2742 2.37473C19.8041 2.04908 19.2457 1.87474 18.6738 1.875H11.3203C10.7484 1.87474 10.1901 2.04908 9.71992 2.37473C9.24978 2.70037 8.89027 3.16178 8.68945 3.69727L7.96875 5.625H2.8125C2.06658 5.625 1.35121 5.92132 0.823762 6.44876C0.296316 6.97621 0 7.69158 0 8.4375L0 25.3125C0 26.0584 0.296316 26.7738 0.823762 27.3012C1.35121 27.8287 2.06658 28.125 2.8125 28.125H27.1875C27.9334 28.125 28.6488 27.8287 29.1762 27.3012C29.7037 26.7738 30 26.0584 30 25.3125V8.4375C30 7.69158 29.7037 6.97621 29.1762 6.44876C28.6488 5.92132 27.9334 5.625 27.1875 5.625ZM15 23.9062C13.6094 23.9062 12.2499 23.4939 11.0936 22.7213C9.93736 21.9487 9.03615 20.8505 8.50397 19.5657C7.97179 18.2809 7.83255 16.8672 8.10385 15.5033C8.37516 14.1393 9.04482 12.8865 10.0282 11.9032C11.0115 10.9198 12.2643 10.2502 13.6283 9.97885C14.9922 9.70755 16.4059 9.84679 17.6907 10.379C18.9755 10.9112 20.0737 11.8124 20.8463 12.9686C21.6189 14.1249 22.0312 15.4844 22.0312 16.875C22.0297 18.7393 21.2884 20.5269 19.9701 21.8451C18.6519 23.1634 16.8643 23.9047 15 23.9062Z" fill="white"/>
</svg>
