<svg width="30" height="30" viewBox="0 0 30 30" fill="none" xmlns="http://www.w3.org/2000/svg">
<g clip-path="url(#clip0)">
<path opacity="0.4" d="M9.75994 16.5649L2.5781 9.32857C2.38442 9.13099 2.27681 8.86478 2.27879 8.58811C2.28077 8.31144 2.39217 8.0468 2.58865 7.852L5.05545 5.40454C5.25303 5.21086 5.51923 5.10325 5.7959 5.10523C6.07257 5.1072 6.33722 5.21861 6.53201 5.41509L10.5299 9.44458L19.7385 0.29927C19.9361 0.105552 20.2024 -0.00207145 20.4792 -9.53305e-05C20.756 0.00188079 21.0207 0.113296 21.2156 0.309817L23.6719 2.77779C23.8656 2.97546 23.9732 3.24177 23.9712 3.51853C23.9692 3.7953 23.8578 4.06004 23.6613 4.25493L11.2371 16.5754C11.0394 16.7692 10.7731 16.8768 10.4963 16.8748C10.2196 16.8728 9.95483 16.7614 9.75994 16.5649V16.5649Z" fill="white"/>
<path d="M29.5606 10.0779C29.8421 10.3617 30 10.7452 30 11.1449C30 11.5446 29.8421 11.9281 29.5606 12.2119L12.3106 29.558C12.1718 29.698 12.0066 29.8093 11.8246 29.8851C11.6426 29.961 11.4473 30.0001 11.2501 30.0001C11.0529 30.0001 10.8576 29.961 10.6756 29.8851C10.4936 29.8093 10.3284 29.698 10.1896 29.558L0.439553 19.7517C0.157992 19.4681 -1.52588e-05 19.0846 -1.52588e-05 18.685C-1.52588e-05 18.2854 0.157992 17.9019 0.439553 17.6183L2.56065 15.4849C2.69946 15.3448 2.86465 15.2336 3.04668 15.1577C3.22871 15.0818 3.42398 15.0427 3.62119 15.0427C3.81841 15.0427 4.01368 15.0818 4.19571 15.1577C4.37774 15.2336 4.54293 15.3448 4.68174 15.4849L11.2501 22.0896L25.3185 7.94155C25.4573 7.80159 25.6226 7.69051 25.8046 7.61471C25.9866 7.5389 26.1818 7.49988 26.379 7.49988C26.5762 7.49988 26.7714 7.5389 26.9534 7.61471C27.1354 7.69051 27.3007 7.80159 27.4396 7.94155L29.5606 10.0779Z" fill="white"/>
</g>
<defs>
<clipPath id="clip0">
<rect width="30" height="30" fill="white"/>
</clipPath>
</defs>
</svg>
