<svg width="30" height="30" viewBox="0 0 30 30" fill="none" xmlns="http://www.w3.org/2000/svg">
<rect width="30" height="30" rx="10" fill="#FFF5F4"/>
<path opacity="0.4" d="M15 5C9.47581 5 5 9.47581 5 15C5 20.5242 9.47581 25 15 25C20.5242 25 25 20.5242 25 15C25 9.47581 20.5242 5 15 5ZM19.9032 17.625C19.9483 17.67 19.9841 17.7234 20.0085 17.7822C20.033 17.841 20.0455 17.9041 20.0455 17.9677C20.0455 18.0314 20.033 18.0945 20.0085 18.1533C19.9841 18.2121 19.9483 18.2655 19.9032 18.3105L18.3065 19.9032C18.2615 19.9483 18.2081 19.9841 18.1493 20.0085C18.0905 20.033 18.0274 20.0455 17.9637 20.0455C17.9 20.0455 17.837 20.033 17.7782 20.0085C17.7193 19.9841 17.6659 19.9483 17.621 19.9032L15 17.2581L12.375 19.9032C12.33 19.9483 12.2766 19.9841 12.2178 20.0085C12.159 20.033 12.0959 20.0455 12.0323 20.0455C11.9686 20.0455 11.9055 20.033 11.8467 20.0085C11.7879 19.9841 11.7345 19.9483 11.6895 19.9032L10.0968 18.3065C10.0517 18.2615 10.0159 18.2081 9.99145 18.1493C9.96703 18.0905 9.95446 18.0274 9.95446 17.9637C9.95446 17.9 9.96703 17.837 9.99145 17.7782C10.0159 17.7193 10.0517 17.6659 10.0968 17.621L12.7419 15L10.0968 12.375C10.0517 12.33 10.0159 12.2766 9.99145 12.2178C9.96703 12.159 9.95446 12.0959 9.95446 12.0323C9.95446 11.9686 9.96703 11.9055 9.99145 11.8467C10.0159 11.7879 10.0517 11.7345 10.0968 11.6895L11.6935 10.0927C11.7385 10.0476 11.7919 10.0118 11.8507 9.98742C11.9095 9.963 11.9726 9.95042 12.0363 9.95042C12.1 9.95042 12.163 9.963 12.2218 9.98742C12.2807 10.0118 12.3341 10.0476 12.379 10.0927L15 12.7419L17.625 10.0968C17.67 10.0517 17.7234 10.0159 17.7822 9.99145C17.841 9.96703 17.9041 9.95446 17.9677 9.95446C18.0314 9.95446 18.0945 9.96703 18.1533 9.99145C18.2121 10.0159 18.2655 10.0517 18.3105 10.0968L19.9073 11.6935C19.9524 11.7385 19.9882 11.7919 20.0126 11.8507C20.037 11.9095 20.0496 11.9726 20.0496 12.0363C20.0496 12.1 20.037 12.163 20.0126 12.2218C19.9882 12.2807 19.9524 12.3341 19.9073 12.379L17.2581 15L19.9032 17.625Z" fill="#DC241F"/>
<path d="M19.9036 17.6242C19.9487 17.6691 19.9845 17.7225 20.0089 17.7814C20.0333 17.8402 20.0459 17.9032 20.0459 17.9669C20.0459 18.0306 20.0333 18.0937 20.0089 18.1525C19.9845 18.2113 19.9487 18.2647 19.9036 18.3097L18.3068 19.9024C18.2618 19.9475 18.2084 19.9833 18.1496 20.0077C18.0908 20.0321 18.0277 20.0447 17.964 20.0447C17.9004 20.0447 17.8373 20.0321 17.7785 20.0077C17.7197 19.9833 17.6663 19.9475 17.6213 19.9024L15.0003 17.2572L12.3753 19.9024C12.3304 19.9475 12.277 19.9833 12.2182 20.0077C12.1593 20.0321 12.0963 20.0447 12.0326 20.0447C11.9689 20.0447 11.9059 20.0321 11.847 20.0077C11.7882 19.9833 11.7348 19.9475 11.6899 19.9024L10.0971 18.3056C10.052 18.2607 10.0162 18.2073 9.99179 18.1484C9.96737 18.0896 9.9548 18.0266 9.9548 17.9629C9.9548 17.8992 9.96737 17.8361 9.99179 17.7773C10.0162 17.7185 10.052 17.6651 10.0971 17.6201L12.7423 14.9992L10.0971 12.3742C10.052 12.3292 10.0162 12.2758 9.99179 12.217C9.96737 12.1582 9.9548 12.0951 9.9548 12.0314C9.9548 11.9677 9.96737 11.9047 9.99179 11.8459C10.0162 11.7871 10.052 11.7336 10.0971 11.6887L11.6939 10.0919C11.7388 10.0468 11.7923 10.011 11.8511 9.98659C11.9099 9.96217 11.9729 9.9496 12.0366 9.9496C12.1003 9.9496 12.1634 9.96217 12.2222 9.98659C12.281 10.011 12.3344 10.0468 12.3794 10.0919L15.0003 12.7411L17.6253 10.0959C17.6703 10.0508 17.7237 10.015 17.7825 9.99062C17.8413 9.9662 17.9044 9.95363 17.9681 9.95363C18.0318 9.95363 18.0948 9.9662 18.1536 9.99062C18.2125 10.015 18.2659 10.0508 18.3108 10.0959L19.9076 11.6927C19.9527 11.7377 19.9885 11.7911 20.0129 11.8499C20.0373 11.9087 20.0499 11.9718 20.0499 12.0355C20.0499 12.0991 20.0373 12.1622 20.0129 12.221C19.9885 12.2798 19.9527 12.3333 19.9076 12.3782L17.2584 14.9992L19.9036 17.6242Z" fill="#DC241F"/>
</svg>
