<svg width="30" height="30" viewBox="0 0 30 30" fill="none" xmlns="http://www.w3.org/2000/svg">
<path opacity="0.4" d="M7.50075 15.9362V18.7484H28.5919C28.9648 18.7484 29.3224 18.8965 29.5861 19.1602C29.8498 19.4239 29.9979 19.7815 29.9979 20.1545V21.0918C29.9979 21.4647 29.8498 21.8224 29.5861 22.0861C29.3224 22.3498 28.9648 22.4979 28.5919 22.4979H7.50075V25.3101C7.50075 26.5661 5.98102 27.1848 5.09871 26.306L0.411797 21.6191C0.148127 21.3554 0 20.9978 0 20.6249C0 20.252 0.148127 19.8944 0.411797 19.6307L5.09871 14.9438C5.98571 14.058 7.50075 14.6889 7.50075 15.9362Z" fill="white"/>
<path d="M29.5879 8.38284C29.7186 8.51342 29.8222 8.66845 29.8929 8.83909C29.9636 9.00973 30 9.19263 30 9.37734C30 9.56206 29.9636 9.74496 29.8929 9.9156C29.8222 10.0862 29.7186 10.2413 29.5879 10.3719L24.901 15.0588C24.0222 15.9376 22.499 15.3218 22.499 14.0628V11.2506H1.40785C1.03493 11.2506 0.677293 11.1025 0.413603 10.8388C0.149913 10.5751 0.00177383 10.2175 0.00177383 9.84457L0.00177383 8.90719C0.00177383 8.53427 0.149913 8.17663 0.413603 7.91294C0.677293 7.64925 1.03493 7.50111 1.40785 7.50111H22.499V4.68896C22.499 3.43755 24.0163 2.81419 24.901 3.69299L29.5879 8.38284Z" fill="white"/>
</svg>
