<svg width="14" height="14" viewBox="0 0 14 14" fill="none" xmlns="http://www.w3.org/2000/svg">
<g clip-path="url(#clip0)">
<path opacity="0.4" d="M14 0.842628V9.08103C14.001 9.24717 13.9537 9.41001 13.8639 9.5498C13.7741 9.68958 13.6456 9.80031 13.4942 9.86853C8.68712 11.9579 7.70274 7.97935 2.625 10.4996V0.886104C8.35079 -1.70034 7.96524 2.50212 12.6492 0.115284C13.2672 -0.199169 14 0.156299 14 0.842628Z" fill="#65D170"/>
<path d="M1.75 0.875V13.5625C1.75 13.6785 1.70391 13.7898 1.62186 13.8719C1.53981 13.9539 1.42853 14 1.3125 14H0.4375C0.321468 14 0.210188 13.9539 0.128141 13.8719C0.0460936 13.7898 0 13.6785 0 13.5625V0.875C0 0.642936 0.0921872 0.420376 0.256282 0.256282C0.420376 0.0921872 0.642936 0 0.875 0C1.10706 0 1.32962 0.0921872 1.49372 0.256282C1.65781 0.420376 1.75 0.642936 1.75 0.875Z" fill="#65D170"/>
</g>
<defs>
<clipPath id="clip0">
<rect width="14" height="14" fill="white"/>
</clipPath>
</defs>
</svg>
