<svg width="30" height="30" viewBox="0 0 30 30" fill="none" xmlns="http://www.w3.org/2000/svg">
<rect width="30" height="30" rx="10" fill="#FFF5F4"/>
<path opacity="0.4" d="M24.9521 19.0896C24.937 18.9995 24.8904 18.9176 24.8205 18.8587C24.7507 18.7997 24.6622 18.7675 24.5708 18.7677H24.0551C23.9437 18.4541 23.7753 18.1637 23.5582 17.9114L23.8142 17.4645C23.8595 17.3854 23.8756 17.2929 23.8596 17.2032C23.8436 17.1135 23.7965 17.0323 23.7267 16.9738C23.4274 16.7249 23.0882 16.5283 22.7234 16.3925C22.6376 16.3599 22.5429 16.359 22.4564 16.3899C22.3699 16.4209 22.2973 16.4816 22.2515 16.5612L21.9953 17.0082C21.6677 16.9488 21.3321 16.9488 21.0045 17.0082L20.7483 16.5612C20.7025 16.4816 20.6299 16.4209 20.5434 16.3899C20.4569 16.359 20.3622 16.3599 20.2763 16.3925C19.9119 16.529 19.5728 16.7255 19.2731 16.9738C19.2026 17.0318 19.1551 17.1131 19.1391 17.203C19.123 17.2929 19.1395 17.3856 19.1856 17.4645L19.4419 17.9114C19.2248 18.1637 19.0564 18.4541 18.945 18.7677H18.4293C18.3376 18.7682 18.249 18.8011 18.1792 18.8605C18.1095 18.92 18.063 19.0023 18.048 19.0927C17.9839 19.4766 17.9839 19.8684 18.048 20.2522C18.0631 20.3424 18.1097 20.4242 18.1796 20.4832C18.2494 20.5421 18.3379 20.5744 18.4293 20.5741H18.945C19.0564 20.8878 19.2248 21.1781 19.4419 21.4305L19.1856 21.8774C19.1403 21.9564 19.1242 22.0489 19.1402 22.1386C19.1562 22.2283 19.2033 22.3096 19.2731 22.3681C19.5724 22.617 19.9116 22.8135 20.2763 22.9494C20.3622 22.9819 20.4569 22.9828 20.5434 22.9519C20.6299 22.921 20.7025 22.8602 20.7483 22.7806L21.0045 22.3337C21.3321 22.3931 21.6677 22.3931 21.9953 22.3337L22.2515 22.7806C22.2973 22.8602 22.3699 22.921 22.4564 22.9519C22.5429 22.9828 22.6376 22.9819 22.7234 22.9494C23.0879 22.8128 23.427 22.6163 23.7267 22.3681C23.7972 22.31 23.8447 22.2287 23.8607 22.1388C23.8768 22.0489 23.8603 21.9562 23.8142 21.8774L23.5579 21.4305C23.7749 21.1781 23.9434 20.8878 24.0548 20.5741H24.5705C24.6622 20.5737 24.7508 20.5408 24.8205 20.4813C24.8903 20.4218 24.9368 20.3396 24.9518 20.2491C25.016 19.8653 25.0161 19.4735 24.9521 19.0896V19.0896ZM20.6767 20.4929C19.7516 19.2896 21.1236 17.9176 22.3268 18.8427C23.2516 20.0456 21.8799 21.4177 20.6767 20.4926V20.4929ZM24.9521 9.74808C24.937 9.65795 24.8904 9.57611 24.8205 9.51716C24.7507 9.4582 24.6622 9.42596 24.5708 9.42618H24.0551C23.9437 9.11253 23.7753 8.82219 23.5582 8.56984L23.8145 8.12293C23.8598 8.04388 23.8759 7.9514 23.8599 7.86169C23.8439 7.77198 23.7968 7.69076 23.727 7.63225C23.4277 7.38333 23.0885 7.18679 22.7238 7.05095C22.6379 7.01827 22.5432 7.01728 22.4566 7.04815C22.3701 7.07902 22.2973 7.13974 22.2515 7.2194L21.9953 7.66632C21.6677 7.60694 21.3321 7.60694 21.0045 7.66632L20.7483 7.2194C20.7025 7.13976 20.6299 7.07902 20.5434 7.04809C20.4569 7.01717 20.3622 7.01807 20.2763 7.05063C19.9119 7.1872 19.5728 7.38367 19.2731 7.63194C19.2026 7.69 19.1551 7.77127 19.1391 7.86117C19.123 7.95108 19.1395 8.04376 19.1856 8.12261L19.4419 8.56953C19.2248 8.82188 19.0564 9.11221 18.945 9.42587H18.4293C18.3376 9.42633 18.249 9.45922 18.1792 9.5187C18.1095 9.57818 18.063 9.66043 18.048 9.7509C17.9839 10.1347 17.9839 10.5265 18.048 10.9104C18.0631 11.0005 18.1097 11.0824 18.1796 11.1413C18.2494 11.2003 18.3379 11.2325 18.4293 11.2323H18.945C19.0564 11.5459 19.2248 11.8363 19.4419 12.0886L19.1856 12.5355C19.1403 12.6146 19.1242 12.7071 19.1402 12.7968C19.1562 12.8865 19.2033 12.9677 19.2731 13.0262C19.5724 13.2751 19.9116 13.4717 20.2763 13.6075C20.3622 13.6401 20.4569 13.641 20.5434 13.6101C20.6299 13.5791 20.7025 13.5184 20.7483 13.4388L21.0045 12.9918C21.3321 13.0512 21.6677 13.0512 21.9953 12.9918L22.2515 13.4388C22.2973 13.5184 22.3699 13.5791 22.4564 13.6101C22.5429 13.641 22.6376 13.6401 22.7234 13.6075C23.0879 13.471 23.427 13.2745 23.7267 13.0262C23.7972 12.9682 23.8447 12.8869 23.8607 12.797C23.8768 12.7071 23.8603 12.6144 23.8142 12.5355L23.5579 12.0886C23.7749 11.8363 23.9434 11.5459 24.0548 11.2323H24.5705C24.6622 11.2318 24.7508 11.1989 24.8205 11.1395C24.8903 11.08 24.9368 10.9977 24.9518 10.9073C25.016 10.5234 25.0161 10.1316 24.9521 9.74777V9.74808ZM20.6767 11.1545C19.7516 9.95123 21.1236 8.5761 22.3268 9.50431C23.2516 10.7072 21.8799 12.0792 20.6767 11.1542V11.1545Z" fill="#DC241F"/>
<path d="M18.1261 16.4886L17.0732 15.9639C17.1951 15.308 17.1951 14.6352 17.0732 13.9793L18.1264 13.4542C18.4421 13.2699 18.564 12.8854 18.439 12.5448C18.1608 11.7885 17.6295 11.0946 17.1232 10.4883C17.01 10.3538 16.853 10.2635 16.6799 10.2332C16.5067 10.2029 16.3284 10.2346 16.1763 10.3227L15.2668 10.8477C14.7605 10.415 14.1789 10.0792 13.551 9.85702V8.80692C13.5505 8.63001 13.4875 8.45896 13.3732 8.32399C13.2588 8.18903 13.1004 8.09883 12.9259 8.06935C12.1396 7.93753 11.3367 7.93859 10.5507 8.07247C10.3785 8.10339 10.2228 8.19394 10.1107 8.32823C9.99863 8.46253 9.93743 8.632 9.93784 8.80692V9.86015C9.30939 10.0811 8.72756 10.417 8.22204 10.8509L7.31258 10.3255C7.16048 10.2373 6.98213 10.2055 6.80893 10.2358C6.63572 10.2661 6.47874 10.3565 6.36561 10.4911C5.85932 11.0975 5.32489 11.7913 5.04674 12.5476C4.9852 12.7131 4.98441 12.895 5.04451 13.061C5.10461 13.227 5.22169 13.3662 5.37489 13.4539L6.41562 13.9821C6.29373 14.637 6.29373 15.3087 6.41562 15.9636L5.37489 16.4886C5.22231 16.5777 5.10587 16.7176 5.04589 16.8838C4.98592 17.05 4.98622 17.232 5.04674 17.3981C5.32489 18.1513 5.85932 18.8451 6.36561 19.4514C6.47882 19.5859 6.63578 19.6762 6.80896 19.7065C6.98213 19.7368 7.16044 19.7051 7.31258 19.617L8.22204 19.0951C8.72834 19.5278 9.30996 19.8637 9.93784 20.0858V21.1359C9.93831 21.3128 10.0013 21.4839 10.1157 21.6189C10.2301 21.7538 10.3885 21.844 10.5629 21.8735C11.3479 22.0079 12.15 22.0079 12.935 21.8735C13.1079 21.8424 13.2644 21.7515 13.3769 21.6167C13.4895 21.4818 13.551 21.3116 13.5507 21.1359V20.0858C14.1791 19.8649 14.761 19.5289 15.2665 19.0951L16.1759 19.6202C16.328 19.7084 16.5064 19.7401 16.6796 19.7098C16.8528 19.6795 17.0098 19.5891 17.1229 19.4545C17.6292 18.8482 18.1761 18.1544 18.4543 17.3981C18.5156 17.2321 18.5163 17.0498 18.4563 16.8834C18.3962 16.717 18.2793 16.5771 18.1261 16.4886ZM13.3975 16.623C10.9911 18.4732 8.24392 15.726 10.0941 13.3195C12.5006 11.4694 15.248 14.2165 13.3979 16.623H13.3975Z" fill="#DC241F"/>
</svg>
