<svg width="30" height="30" viewBox="0 0 30 30" fill="none" xmlns="http://www.w3.org/2000/svg">
<rect width="30" height="30" rx="10" fill="#FFF5F4"/>
<path opacity="0.4" d="M6.25 12.5V23.125C6.25 23.6223 6.44754 24.0992 6.79917 24.4508C7.15081 24.8025 7.62772 25 8.125 25H21.875C22.3723 25 22.8492 24.8025 23.2008 24.4508C23.5525 24.0992 23.75 23.6223 23.75 23.125V12.5H6.25ZM13.9133 14.375H16.0625C16.1241 14.375 16.185 14.3871 16.2419 14.4107C16.2988 14.4342 16.3504 14.4688 16.394 14.5123C16.4375 14.5558 16.472 14.6075 16.4956 14.6644C16.5191 14.7212 16.5312 14.7822 16.5312 14.8438V14.8762L16.25 19.2512C16.2418 19.3698 16.1888 19.4808 16.1018 19.5619C16.0147 19.6429 15.9002 19.6878 15.7812 19.6875H14.2188C14.0997 19.6878 13.9849 19.6427 13.8979 19.5614C13.8108 19.4802 13.7579 19.3688 13.75 19.25L13.4688 14.875C13.4651 14.813 13.4736 14.7508 13.494 14.6921C13.5143 14.6334 13.546 14.5793 13.5873 14.5328C13.6286 14.4864 13.6787 14.4485 13.7346 14.4215C13.7905 14.3944 13.8512 14.3786 13.9133 14.375ZM15 23.4375C14.691 23.4375 14.3889 23.3459 14.1319 23.1742C13.875 23.0025 13.6747 22.7585 13.5564 22.4729C13.4382 22.1874 13.4072 21.8733 13.4675 21.5702C13.5278 21.2671 13.6766 20.9887 13.8951 20.7701C14.1137 20.5516 14.3921 20.4028 14.6952 20.3425C14.9983 20.2822 15.3124 20.3132 15.5979 20.4314C15.8835 20.5497 16.1275 20.75 16.2992 21.0069C16.4709 21.2639 16.5625 21.566 16.5625 21.875C16.5625 22.2894 16.3979 22.6868 16.1049 22.9799C15.8118 23.2729 15.4144 23.4375 15 23.4375ZM10.625 10H11.875C12.0408 10 12.1997 9.93415 12.3169 9.81694C12.4342 9.69973 12.5 9.54076 12.5 9.375V5.625C12.5 5.45924 12.4342 5.30027 12.3169 5.18306C12.1997 5.06585 12.0408 5 11.875 5H10.625C10.4592 5 10.3003 5.06585 10.1831 5.18306C10.0658 5.30027 10 5.45924 10 5.625V9.375C10 9.54076 10.0658 9.69973 10.1831 9.81694C10.3003 9.93415 10.4592 10 10.625 10ZM18.125 10H19.375C19.5408 10 19.6997 9.93415 19.8169 9.81694C19.9342 9.69973 20 9.54076 20 9.375V5.625C20 5.45924 19.9342 5.30027 19.8169 5.18306C19.6997 5.06585 19.5408 5 19.375 5H18.125C17.9592 5 17.8003 5.06585 17.6831 5.18306C17.5658 5.30027 17.5 5.45924 17.5 5.625V9.375C17.5 9.54076 17.5658 9.69973 17.6831 9.81694C17.8003 9.93415 17.9592 10 18.125 10Z" fill="#DC241F"/>
<path d="M15 20.3125C14.691 20.3125 14.3889 20.4041 14.1319 20.5758C13.875 20.7475 13.6747 20.9915 13.5564 21.2771C13.4382 21.5626 13.4072 21.8767 13.4675 22.1798C13.5278 22.4829 13.6766 22.7613 13.8951 22.9799C14.1137 23.1984 14.3921 23.3472 14.6952 23.4075C14.9983 23.4678 15.3124 23.4368 15.5979 23.3186C15.8835 23.2003 16.1275 23 16.2992 22.7431C16.4709 22.4861 16.5625 22.184 16.5625 21.875C16.5625 21.4606 16.3979 21.0632 16.1049 20.7701C15.8118 20.4771 15.4144 20.3125 15 20.3125ZM14.2188 19.6875H15.7812C15.9003 19.6878 16.0151 19.6427 16.1021 19.5614C16.1892 19.4802 16.2421 19.3688 16.25 19.25L16.5312 14.875C16.5355 14.8134 16.5275 14.7516 16.5078 14.6931C16.4881 14.6346 16.457 14.5806 16.4164 14.5341C16.3757 14.4876 16.3263 14.4497 16.2709 14.4224C16.2156 14.3951 16.1554 14.379 16.0938 14.375H13.9375C13.8123 14.376 13.6926 14.4267 13.6047 14.5159C13.5168 14.6051 13.4679 14.7256 13.4688 14.8508V14.875L13.75 19.25C13.7579 19.3688 13.8108 19.4802 13.8979 19.5614C13.9849 19.6427 14.0997 19.6878 14.2188 19.6875ZM21.875 7.5H20V9.375C20 9.54076 19.9342 9.69973 19.8169 9.81694C19.6997 9.93415 19.5408 10 19.375 10H18.125C17.9592 10 17.8003 9.93415 17.6831 9.81694C17.5658 9.69973 17.5 9.54076 17.5 9.375V7.5H12.5V9.375C12.5 9.54076 12.4342 9.69973 12.3169 9.81694C12.1997 9.93415 12.0408 10 11.875 10H10.625C10.4592 10 10.3003 9.93415 10.1831 9.81694C10.0658 9.69973 10 9.54076 10 9.375V7.5H8.125C7.62772 7.5 7.15081 7.69754 6.79917 8.04917C6.44754 8.40081 6.25 8.87772 6.25 9.375V12.5H23.75V9.375C23.75 8.87772 23.5525 8.40081 23.2008 8.04917C22.8492 7.69754 22.3723 7.5 21.875 7.5Z" fill="#DC241F"/>
</svg>
