<svg width="30" height="30" viewBox="0 0 30 30" fill="none" xmlns="http://www.w3.org/2000/svg">
<path opacity="0.4" d="M29.0625 22.5H10.3125C10.0639 22.5 9.8254 22.5988 9.64959 22.7746C9.47377 22.9504 9.375 23.1889 9.375 23.4375V25.3125C9.375 25.5611 9.47377 25.7996 9.64959 25.9754C9.8254 26.1512 10.0639 26.25 10.3125 26.25H29.0625C29.3111 26.25 29.5496 26.1512 29.7254 25.9754C29.9012 25.7996 30 25.5611 30 25.3125V23.4375C30 23.1889 29.9012 22.9504 29.7254 22.7746C29.5496 22.5988 29.3111 22.5 29.0625 22.5ZM29.0625 3.75H10.3125C10.0639 3.75 9.8254 3.84877 9.64959 4.02459C9.47377 4.2004 9.375 4.43886 9.375 4.6875V6.5625C9.375 6.81114 9.47377 7.0496 9.64959 7.22541C9.8254 7.40123 10.0639 7.5 10.3125 7.5H29.0625C29.3111 7.5 29.5496 7.40123 29.7254 7.22541C29.9012 7.0496 30 6.81114 30 6.5625V4.6875C30 4.43886 29.9012 4.2004 29.7254 4.02459C29.5496 3.84877 29.3111 3.75 29.0625 3.75V3.75ZM29.0625 13.125H10.3125C10.0639 13.125 9.8254 13.2238 9.64959 13.3996C9.47377 13.5754 9.375 13.8139 9.375 14.0625V15.9375C9.375 16.1861 9.47377 16.4246 9.64959 16.6004C9.8254 16.7762 10.0639 16.875 10.3125 16.875H29.0625C29.3111 16.875 29.5496 16.7762 29.7254 16.6004C29.9012 16.4246 30 16.1861 30 15.9375V14.0625C30 13.8139 29.9012 13.5754 29.7254 13.3996C29.5496 13.2238 29.3111 13.125 29.0625 13.125Z" fill="white"/>
<path d="M4.6875 21.5625H0.9375C0.68886 21.5625 0.450403 21.6613 0.274587 21.8371C0.0987721 22.0129 0 22.2514 0 22.5L0 26.25C0 26.4986 0.0987721 26.7371 0.274587 26.9129C0.450403 27.0887 0.68886 27.1875 0.9375 27.1875H4.6875C4.93614 27.1875 5.1746 27.0887 5.35041 26.9129C5.52623 26.7371 5.625 26.4986 5.625 26.25V22.5C5.625 22.2514 5.52623 22.0129 5.35041 21.8371C5.1746 21.6613 4.93614 21.5625 4.6875 21.5625ZM4.6875 2.8125H0.9375C0.68886 2.8125 0.450403 2.91127 0.274587 3.08709C0.0987721 3.2629 0 3.50136 0 3.75L0 7.5C0 7.74864 0.0987721 7.9871 0.274587 8.16291C0.450403 8.33873 0.68886 8.4375 0.9375 8.4375H4.6875C4.93614 8.4375 5.1746 8.33873 5.35041 8.16291C5.52623 7.9871 5.625 7.74864 5.625 7.5V3.75C5.625 3.50136 5.52623 3.2629 5.35041 3.08709C5.1746 2.91127 4.93614 2.8125 4.6875 2.8125V2.8125ZM4.6875 12.1875H0.9375C0.68886 12.1875 0.450403 12.2863 0.274587 12.4621C0.0987721 12.6379 0 12.8764 0 13.125L0 16.875C0 17.1236 0.0987721 17.3621 0.274587 17.5379C0.450403 17.7137 0.68886 17.8125 0.9375 17.8125H4.6875C4.93614 17.8125 5.1746 17.7137 5.35041 17.5379C5.52623 17.3621 5.625 17.1236 5.625 16.875V13.125C5.625 12.8764 5.52623 12.6379 5.35041 12.4621C5.1746 12.2863 4.93614 12.1875 4.6875 12.1875Z" fill="white"/>
</svg>
