<svg width="30" height="30" viewBox="0 0 30 30" fill="none" xmlns="http://www.w3.org/2000/svg">
<path opacity="0.4" d="M10.7812 13.125H6.09375V8.90625C6.09375 3.99609 10.0898 0 15 0C19.9102 0 23.9062 3.99609 23.9062 8.90625V13.125H19.2188V8.90625C19.2187 7.78737 18.7743 6.71431 17.9831 5.92314C17.1919 5.13197 16.1189 4.6875 15 4.6875C13.8811 4.6875 12.8081 5.13197 12.0169 5.92314C11.2257 6.71431 10.7813 7.78737 10.7812 8.90625V13.125Z" fill="white"/>
<path d="M28.125 15.9375V27.1875C28.125 27.9334 27.8287 28.6488 27.3012 29.1762C26.7738 29.7037 26.0584 30 25.3125 30H4.6875C3.94158 30 3.22621 29.7037 2.69876 29.1762C2.17132 28.6488 1.875 27.9334 1.875 27.1875L1.875 15.9375C1.875 15.1916 2.17132 14.4762 2.69876 13.9488C3.22621 13.4213 3.94158 13.125 4.6875 13.125H25.3125C26.0584 13.125 26.7738 13.4213 27.3012 13.9488C27.8287 14.4762 28.125 15.1916 28.125 15.9375V15.9375Z" fill="white"/>
</svg>
