<svg width="16" height="16" viewBox="0 0 16 16" fill="none" xmlns="http://www.w3.org/2000/svg">
<path opacity="0.4" d="M0.00012207 14.389V10.0645C0.00012207 9.85915 0.0816887 9.66224 0.226878 9.51705C0.372068 9.37186 0.568987 9.29029 0.774316 9.29029H5.09883C5.78851 9.29029 6.13399 10.1242 5.64722 10.6129L4.30045 11.9596C5.30332 12.902 6.62913 13.4244 8.00529 13.4193C10.5024 13.4171 12.6604 11.7051 13.2563 9.32739C13.2768 9.24323 13.325 9.16841 13.3932 9.1149C13.4613 9.06138 13.5454 9.03227 13.6321 9.03223H15.4808C15.5376 9.03218 15.5937 9.04464 15.6452 9.06873C15.6966 9.09282 15.7422 9.12793 15.7785 9.17159C15.8149 9.21525 15.8412 9.26638 15.8556 9.32135C15.87 9.37631 15.8721 9.43377 15.8617 9.48965C15.1637 13.1961 11.9095 16 8.00012 16C5.94105 16.0027 3.96077 15.2087 2.47399 13.7842L1.3227 14.9354C0.833993 15.4242 0.00012207 15.0787 0.00012207 14.389Z" fill="#749BFF"/>
<path d="M0.138643 6.51033C0.836385 2.80388 4.09058 7.15475e-06 7.99994 7.15475e-06C10.059 -0.00274969 12.0393 0.791282 13.5261 2.21581L14.6774 1.06452C15.1651 0.576781 15.9999 0.922265 15.9999 1.61291V5.93549C15.9999 6.14082 15.9184 6.33774 15.7732 6.48293C15.628 6.62812 15.4311 6.70969 15.2257 6.70969H10.9012C10.2115 6.70969 9.86607 5.87581 10.3528 5.3871L11.6996 4.04033C10.6969 3.09797 9.37116 2.57561 7.9951 2.58065C5.49639 2.58291 3.33929 4.29614 2.74381 6.67259C2.72323 6.75675 2.67502 6.83157 2.60688 6.88508C2.53875 6.93859 2.45463 6.9677 2.368 6.96775H0.519289C0.462498 6.96775 0.406404 6.95525 0.354983 6.93114C0.303563 6.90704 0.258077 6.87191 0.221751 6.82826C0.185425 6.78461 0.159149 6.7335 0.144786 6.67855C0.130424 6.62361 0.128326 6.56618 0.138643 6.51033Z" fill="#749BFF"/>
</svg>
