<svg width="31" height="30" viewBox="0 0 31 30" fill="none" xmlns="http://www.w3.org/2000/svg">
<rect x="0.5" width="30" height="30" rx="10" fill="#FFF5F4"/>
<path opacity="0.4" d="M10.9023 20.415C10.9877 20.3297 11.1023 20.2801 11.2229 20.2761C11.3435 20.2721 11.4611 20.3141 11.5519 20.3935C12.6169 21.3306 13.942 21.9209 15.3509 22.0859C16.7598 22.2508 18.1855 21.9826 19.4381 21.317C20.6907 20.6513 21.7108 19.6198 22.3625 18.3599C23.0141 17.0999 23.2665 15.6713 23.0858 14.2644C22.9051 12.8574 22.3001 11.5389 21.3513 10.4844C20.4025 9.42999 19.1549 8.68966 17.7747 8.36205C16.3946 8.03444 14.9474 8.13512 13.6259 8.65067C12.3044 9.16622 11.1713 10.0722 10.3776 11.2478L8.53349 11.3359L8.67308 8.78067C9.59538 7.69398 10.7433 6.82123 12.0371 6.22312C13.3308 5.62501 14.7393 5.3159 16.1646 5.31727C21.5844 5.31727 26.004 9.74041 26 15.1602C25.996 20.5887 21.5939 24.988 16.1646 24.988C13.7289 24.9921 11.379 24.0889 9.57294 22.4546L9.55351 22.4364C9.50914 22.3922 9.47394 22.3396 9.44992 22.2818C9.4259 22.2239 9.41354 22.1619 9.41354 22.0993C9.41354 22.0366 9.4259 21.9746 9.44992 21.9168C9.47394 21.8589 9.50914 21.8064 9.55351 21.7622L10.9023 20.415Z" fill="#DC241F"/>
<path d="M6.47392 5H8.37754C8.5031 5.00667 8.62092 5.06276 8.70526 5.15602C8.7896 5.24927 8.83361 5.37212 8.82767 5.49772L8.5334 11.3359L14.3847 11.0559H14.4077C14.5339 11.0559 14.6549 11.106 14.7442 11.1953C14.8334 11.2845 14.8836 11.4056 14.8836 11.5318V13.4077C14.8836 13.5339 14.8334 13.6549 14.7442 13.7442C14.6549 13.8334 14.5339 13.8836 14.4077 13.8836H6.47591C6.34969 13.8836 6.22864 13.8334 6.13939 13.7442C6.05014 13.6549 6 13.5339 6 13.4077V5.47591C6 5.35003 6.04987 5.22928 6.13869 5.14009C6.22751 5.0509 6.34805 5.00052 6.47392 5V5Z" fill="#DC241F"/>
</svg>
