<svg width="30" height="30" viewBox="0 0 30 30" fill="none" xmlns="http://www.w3.org/2000/svg">
<path opacity="0.4" d="M20.3393 28.8755C19.7802 18.5231 11.4882 10.2204 1.12435 9.66056C0.979325 9.6534 0.834351 9.67578 0.698239 9.72636C0.562127 9.77694 0.437717 9.85467 0.332565 9.95481C0.227414 10.0549 0.143716 10.1754 0.0865548 10.3089C0.0293937 10.4424 -3.74649e-05 10.5861 4.88893e-05 10.7313V13.9502C-0.000605757 14.2219 0.102015 14.4838 0.287136 14.6827C0.472257 14.8816 0.726046 15.0028 0.997125 15.0216C8.48558 15.5091 14.4881 21.4969 14.977 29.0014C14.9958 29.2725 15.117 29.5263 15.3159 29.7114C15.5148 29.8965 15.7766 29.9991 16.0484 29.9985H19.2673C19.4125 29.9987 19.5563 29.9693 19.6899 29.9122C19.8234 29.8551 19.944 29.7714 20.0442 29.6662C20.1444 29.561 20.2222 29.4366 20.2728 29.3005C20.3234 29.1643 20.3458 29.0193 20.3387 28.8742L20.3393 28.8755ZM1.10494 0.000523311C0.961444 -0.00396299 0.818515 0.0204338 0.684637 0.0722646C0.550759 0.124095 0.428662 0.202303 0.3256 0.302243C0.222537 0.402182 0.14061 0.521814 0.0846856 0.654035C0.0287609 0.786255 -2.12266e-05 0.928366 4.88893e-05 1.07193V4.29149C-0.000115339 4.56938 0.107695 4.83646 0.300725 5.03636C0.493755 5.23626 0.756902 5.35335 1.03462 5.3629C13.8366 5.88789 24.112 16.1653 24.637 28.9652C24.6466 29.243 24.7636 29.5061 24.9635 29.6991C25.1634 29.8922 25.4305 30 25.7084 29.9998H28.928C29.0715 29.9999 29.2137 29.9711 29.3459 29.9152C29.4781 29.8593 29.5977 29.7773 29.6977 29.6743C29.7976 29.5712 29.8758 29.4491 29.9277 29.3152C29.9795 29.1814 30.0039 29.0384 29.9994 28.8949C29.4369 13.2377 16.8385 0.566358 1.10494 0.000523311Z" fill="white"/>
<path d="M0.000152588 25.7144C0.000152588 24.8668 0.2515 24.0382 0.722409 23.3334C1.19332 22.6287 1.86264 22.0794 2.64573 21.755C3.42883 21.4306 4.29052 21.3458 5.12185 21.5111C5.95318 21.6765 6.7168 22.0846 7.31615 22.684C7.91551 23.2834 8.32367 24.047 8.48903 24.8783C8.6544 25.7096 8.56953 26.5713 8.24516 27.3544C7.92079 28.1375 7.37149 28.8068 6.66673 29.2777C5.96196 29.7487 5.13338 30 4.28577 30C3.14915 30 2.05909 29.5485 1.25538 28.7448C0.451671 27.9411 0.000152588 26.851 0.000152588 25.7144Z" fill="white"/>
</svg>
