<svg width="30" height="30" viewBox="0 0 30 30" fill="none" xmlns="http://www.w3.org/2000/svg">
<rect width="30" height="30" rx="10" fill="#FFF5F4"/>
<path opacity="0.4" d="M23.9746 11.8467L18.5135 11.0519L16.0722 6.11214C15.6352 5.23194 14.3677 5.22074 13.9274 6.11214L11.4861 11.0519L6.02501 11.8467C5.04481 11.9881 4.65228 13.1929 5.36271 13.8832L9.31448 17.7264L8.38167 23.155C8.21302 24.1363 9.24807 24.8714 10.116 24.4121L14.9998 21.8487L19.8851 24.4117C20.753 24.8673 21.7881 24.136 21.6194 23.1546L20.6866 17.726L24.6384 13.8829C25.3473 13.1929 24.9548 11.9881 23.9746 11.8467ZM20.5832 14.4959L18.1188 16.8925L18.7019 20.2827C18.7161 20.365 18.7069 20.4496 18.6755 20.527C18.6441 20.6044 18.5916 20.6715 18.5241 20.7206C18.4566 20.7697 18.3766 20.799 18.2933 20.8051C18.21 20.8112 18.1267 20.7939 18.0527 20.7551L14.9998 19.1514L11.9469 20.7536C11.8729 20.7924 11.7896 20.8097 11.7063 20.8036C11.623 20.7975 11.543 20.7683 11.4755 20.7191C11.408 20.67 11.3555 20.6029 11.3241 20.5255C11.2927 20.4482 11.2835 20.3635 11.2976 20.2812L11.8808 16.891L9.41821 14.4944C9.35852 14.4362 9.31625 14.3625 9.29616 14.2816C9.27608 14.2007 9.27898 14.1158 9.30454 14.0365C9.33009 13.9571 9.37729 13.8865 9.44081 13.8325C9.50434 13.7786 9.58167 13.7434 9.6641 13.731L13.0722 13.2355L14.5983 10.1456C14.6353 10.0707 14.6925 10.0077 14.7634 9.96356C14.8344 9.91947 14.9163 9.8961 14.9998 9.8961C15.0833 9.8961 15.1652 9.91947 15.2361 9.96356C15.3071 10.0077 15.3643 10.0707 15.4013 10.1456L16.9274 13.2355L20.3355 13.731C20.4181 13.7431 20.4956 13.7781 20.5594 13.8319C20.6232 13.8858 20.6706 13.9564 20.6964 14.0358C20.7221 14.1152 20.7252 14.2002 20.7052 14.2812C20.6852 14.3623 20.643 14.4361 20.5832 14.4944V14.4959Z" fill="#DC241F"/>
<path d="M20.5835 14.4937L18.119 16.8903L18.7022 20.2805C18.7163 20.3628 18.7072 20.4474 18.6758 20.5248C18.6443 20.6022 18.5919 20.6692 18.5243 20.7184C18.4568 20.7675 18.3769 20.7968 18.2936 20.8029C18.2103 20.809 18.1269 20.7916 18.053 20.7528L15 19.1506L11.9471 20.7528C11.8732 20.7916 11.7898 20.809 11.7065 20.8029C11.6232 20.7968 11.5433 20.7675 11.4757 20.7184C11.4082 20.6692 11.3558 20.6022 11.3243 20.5248C11.2929 20.4474 11.2837 20.3628 11.2979 20.2805L11.8811 16.8903L9.41846 14.4937C9.35877 14.4355 9.3165 14.3618 9.29642 14.2809C9.27633 14.2 9.27923 14.1151 9.30479 14.0357C9.33034 13.9564 9.37754 13.8858 9.44107 13.8318C9.50459 13.7778 9.58192 13.7427 9.66435 13.7303L13.0725 13.2347L14.5986 10.1449C14.6355 10.07 14.6927 10.0069 14.7637 9.96283C14.8346 9.91873 14.9165 9.89536 15 9.89536C15.0836 9.89536 15.1655 9.91873 15.2364 9.96283C15.3074 10.0069 15.3645 10.07 15.4015 10.1449L16.9276 13.2347L20.3357 13.7303C20.4183 13.7424 20.4959 13.7773 20.5596 13.8312C20.6234 13.885 20.6709 13.9557 20.6966 14.035C20.7224 14.1144 20.7254 14.1995 20.7055 14.2805C20.6855 14.3615 20.6432 14.4354 20.5835 14.4937Z" fill="#DC241F"/>
</svg>
