<svg width="30" height="30" viewBox="0 0 30 30" fill="none" xmlns="http://www.w3.org/2000/svg">
<path opacity="0.4" d="M26.6736 16.5005C26.9442 16.4641 27.2113 16.4055 27.4723 16.3252V25.91C27.4723 26.3233 27.3081 26.7197 27.0158 27.012C26.7236 27.3043 26.3271 27.4685 25.9138 27.4685H4.09038C3.67704 27.4685 3.28063 27.3043 2.98835 27.012C2.69607 26.7197 2.53188 26.3233 2.53188 25.91V16.3252C2.79392 16.4013 3.06076 16.4599 3.33061 16.5005C3.62121 16.5395 3.91407 16.559 4.20727 16.559C4.69176 16.5513 5.17387 16.4892 5.6445 16.3739V21.2345H24.3509V16.3739C24.8211 16.4916 25.3035 16.5538 25.7882 16.559C26.0843 16.559 26.38 16.5394 26.6736 16.5005V16.5005Z" fill="white"/>
<path d="M29.319 8.30773C30.9554 10.9182 29.5041 14.5417 26.4455 14.9508C26.2243 14.9803 26.0014 14.9949 25.7783 14.9947C25.0994 14.994 24.4283 14.85 23.8089 14.5722C23.1894 14.2944 22.6356 13.8891 22.1835 13.3826C21.3346 14.3353 20.1421 14.912 18.8681 14.9858C17.5942 15.0596 16.3431 14.6245 15.3899 13.7761C15.251 13.6529 15.1196 13.5215 14.9963 13.3826C14.1462 14.3359 12.9522 14.9124 11.6771 14.9855C10.4019 15.0586 9.14987 14.6221 8.1964 13.7722C8.05909 13.65 7.92899 13.5199 7.80678 13.3826C7.35535 13.8899 6.80162 14.2958 6.18203 14.5736C5.56244 14.8515 4.89103 14.995 4.21199 14.9947C3.98886 14.9947 3.76597 14.9801 3.54476 14.9508C0.492526 14.5369 -0.95396 10.9134 0.681495 8.30773L3.83893 3.26208C3.9794 3.03805 4.17457 2.85345 4.40606 2.72564C4.63756 2.59784 4.89776 2.53104 5.16219 2.53153H24.8383C25.1019 2.53186 25.3611 2.59906 25.5917 2.72682C25.8223 2.85459 26.0167 3.03875 26.1567 3.26208L29.319 8.30773Z" fill="white"/>
</svg>
