<svg width="30" height="30" viewBox="0 0 30 30" fill="none" xmlns="http://www.w3.org/2000/svg">
<path opacity="0.4" d="M15 0C6.71371 0 0 6.71371 0 15C0 23.2863 6.71371 30 15 30C23.2863 30 30 23.2863 30 15C30 6.71371 23.2863 0 15 0ZM22.3548 18.9375C22.4225 19.0049 22.4762 19.0851 22.5128 19.1733C22.5495 19.2615 22.5683 19.3561 22.5683 19.4516C22.5683 19.5471 22.5495 19.6417 22.5128 19.7299C22.4762 19.8182 22.4225 19.8983 22.3548 19.9657L19.9597 22.3548C19.8922 22.4225 19.8121 22.4762 19.7239 22.5128C19.6357 22.5495 19.5411 22.5683 19.4456 22.5683C19.35 22.5683 19.2554 22.5495 19.1672 22.5128C19.079 22.4762 18.9989 22.4225 18.9315 22.3548L15 18.3871L11.0625 22.3548C10.9951 22.4225 10.9149 22.4762 10.8267 22.5128C10.7385 22.5495 10.6439 22.5683 10.5484 22.5683C10.4529 22.5683 10.3583 22.5495 10.2701 22.5128C10.1818 22.4762 10.1017 22.4225 10.0343 22.3548L7.64516 19.9597C7.5775 19.8922 7.52381 19.8121 7.48718 19.7239C7.45054 19.6357 7.43169 19.5411 7.43169 19.4456C7.43169 19.35 7.45054 19.2554 7.48718 19.1672C7.52381 19.079 7.5775 18.9989 7.64516 18.9315L11.6129 15L7.64516 11.0625C7.5775 10.9951 7.52381 10.9149 7.48718 10.8267C7.45054 10.7385 7.43169 10.6439 7.43169 10.5484C7.43169 10.4529 7.45054 10.3583 7.48718 10.2701C7.52381 10.1818 7.5775 10.1017 7.64516 10.0343L10.0403 7.63911C10.1078 7.57145 10.1879 7.51776 10.2761 7.48113C10.3643 7.44449 10.4589 7.42564 10.5544 7.42564C10.65 7.42564 10.7445 7.44449 10.8328 7.48113C10.921 7.51776 11.0011 7.57145 11.0685 7.63911L15 11.6129L18.9375 7.64516C19.0049 7.5775 19.0851 7.52381 19.1733 7.48718C19.2615 7.45054 19.3561 7.43169 19.4516 7.43169C19.5471 7.43169 19.6417 7.45054 19.7299 7.48718C19.8182 7.52381 19.8983 7.5775 19.9657 7.64516L22.3609 10.0403C22.4286 10.1078 22.4822 10.1879 22.5189 10.2761C22.5555 10.3643 22.5744 10.4589 22.5744 10.5544C22.5744 10.65 22.5555 10.7445 22.5189 10.8328C22.4822 10.921 22.4286 11.0011 22.3609 11.0685L18.3871 15L22.3548 18.9375Z" fill="white"/>
<path d="M22.3548 18.9367C22.4225 19.0041 22.4761 19.0842 22.5128 19.1724C22.5494 19.2607 22.5683 19.3553 22.5683 19.4508C22.5683 19.5463 22.5494 19.6409 22.5128 19.7291C22.4761 19.8173 22.4225 19.8975 22.3548 19.9649L19.9596 22.354C19.8922 22.4217 19.8121 22.4754 19.7239 22.512C19.6356 22.5486 19.541 22.5675 19.4455 22.5675C19.35 22.5675 19.2554 22.5486 19.1672 22.512C19.079 22.4754 18.9988 22.4217 18.9314 22.354L15 18.3863L11.0625 22.354C10.995 22.4217 10.9149 22.4754 10.8267 22.512C10.7385 22.5486 10.6439 22.5675 10.5483 22.5675C10.4528 22.5675 10.3582 22.5486 10.27 22.512C10.1818 22.4754 10.1017 22.4217 10.0342 22.354L7.64512 19.9588C7.57745 19.8914 7.52376 19.8113 7.48713 19.7231C7.4505 19.6348 7.43164 19.5403 7.43164 19.4447C7.43164 19.3492 7.4505 19.2546 7.48713 19.1664C7.52376 19.0782 7.57745 18.998 7.64512 18.9306L11.6129 14.9992L7.64512 11.0617C7.57745 10.9942 7.52376 10.9141 7.48713 10.8259C7.4505 10.7377 7.43164 10.6431 7.43164 10.5476C7.43164 10.452 7.4505 10.3574 7.48713 10.2692C7.52376 10.181 7.57745 10.1009 7.64512 10.0334L10.0403 7.63828C10.1077 7.57062 10.1878 7.51693 10.2761 7.48029C10.3643 7.44366 10.4589 7.4248 10.5544 7.4248C10.6499 7.4248 10.7445 7.44366 10.8327 7.48029C10.9209 7.51693 11.0011 7.57062 11.0685 7.63828L15 11.6121L18.9375 7.64433C19.0049 7.57666 19.085 7.52298 19.1732 7.48634C19.2615 7.44971 19.356 7.43085 19.4516 7.43085C19.5471 7.43085 19.6417 7.44971 19.7299 7.48634C19.8181 7.52298 19.8982 7.57666 19.9657 7.64433L22.3608 10.0395C22.4285 10.1069 22.4822 10.187 22.5188 10.2753C22.5555 10.3635 22.5743 10.4581 22.5743 10.5536C22.5743 10.6491 22.5555 10.7437 22.5188 10.8319C22.4822 10.9202 22.4285 11.0003 22.3608 11.0677L18.3871 14.9992L22.3548 18.9367Z" fill="white"/>
</svg>
