<svg width="30" height="30" viewBox="0 0 30 30" fill="none" xmlns="http://www.w3.org/2000/svg">
<path opacity="0.4" d="M11.3555 13.3411L1.09966 23.5969C0.413479 24.3034 0.0328575 25.2516 0.0400554 26.2365C0.0472533 27.2214 0.441693 28.1639 1.13813 28.8603C1.83457 29.5568 2.77707 29.9512 3.76196 29.9584C4.74685 29.9656 5.69502 29.585 6.40156 28.8988L15.1236 20.1767C14.9678 19.2644 15.1027 18.3262 15.5091 17.4947L11.3555 13.3411ZM3.7512 27.6533C3.47311 27.6533 3.20127 27.5708 2.97005 27.4163C2.73883 27.2618 2.55862 27.0422 2.4522 26.7853C2.34578 26.5284 2.31794 26.2457 2.37219 25.9729C2.42644 25.7002 2.56035 25.4497 2.75699 25.253C2.95362 25.0564 3.20415 24.9225 3.4769 24.8682C3.74964 24.814 4.03234 24.8418 4.28926 24.9483C4.54618 25.0547 4.76577 25.2349 4.92027 25.4661C5.07476 25.6973 5.15723 25.9692 5.15723 26.2473C5.15723 26.6202 5.00909 26.9778 4.74541 27.2415C4.48173 27.5051 4.1241 27.6533 3.7512 27.6533V27.6533ZM29.7469 6.39297C29.7162 6.27266 29.6542 6.16263 29.5671 6.07407C29.4801 5.98551 29.3712 5.92158 29.2514 5.88878C29.1317 5.85599 29.0053 5.85549 28.8853 5.88735C28.7653 5.91921 28.6559 5.98229 28.5682 6.07017L24.2118 10.4294L20.2351 9.76685L19.5725 5.7872L23.9289 1.43086C24.0173 1.3426 24.0807 1.23236 24.1124 1.11148C24.1441 0.990606 24.143 0.863468 24.1092 0.743159C24.0754 0.622849 24.0102 0.513717 23.9202 0.427C23.8302 0.340283 23.7188 0.279116 23.5973 0.249796C22.1852 -0.101795 20.7061 -0.0819293 19.304 0.307462C17.9019 0.696853 16.6244 1.44251 15.5958 2.47191C13.2735 4.7942 12.6344 8.16046 13.601 11.0955L13.3415 11.3551L17.4951 15.5087C18.3096 15.1046 19.2302 14.9658 20.1276 15.1118C21.0249 15.2579 21.854 15.6815 22.4982 16.323L22.9206 16.7454C24.6659 16.474 26.2791 15.6531 27.526 14.4021C28.5563 13.3725 29.3025 12.0937 29.6917 10.6901C30.0809 9.28655 30.0999 7.80609 29.7469 6.39297V6.39297Z" fill="white"/>
<path d="M29.3584 23.1837C29.7664 23.5939 29.9955 24.1489 29.9955 24.7274C29.9955 25.306 29.7664 25.861 29.3584 26.2711L26.271 29.3585C25.8634 29.7679 25.3099 29.9987 24.7323 30C24.1546 30.0013 23.6 29.7731 23.1906 29.3655L23.1836 29.3585L16.3233 22.4983C14.97 21.145 14.7123 19.1238 15.509 17.4952L9.2639 11.2501H5.62581L0.00169373 3.75124L3.7511 0.00183105L11.2499 5.62594V9.26404L17.495 15.5091C18.3095 15.105 19.2301 14.9662 20.1275 15.1122C21.0248 15.2583 21.8539 15.6819 22.4981 16.3235L29.3584 23.1837Z" fill="white"/>
</svg>
