<svg width="30" height="30" viewBox="0 0 30 30" fill="none" xmlns="http://www.w3.org/2000/svg">
<path opacity="0.4" d="M7.35346 23.1314C7.48154 23.0035 7.65343 22.9291 7.83433 22.9231C8.01523 22.9171 8.19164 22.9801 8.32787 23.0993C9.92531 24.5048 11.9131 25.3903 14.0264 25.6378C16.1397 25.8852 18.2782 25.4829 20.1572 24.4844C22.0361 23.486 23.5662 21.9387 24.5437 20.0488C25.5212 18.1588 25.8997 16.0159 25.6287 13.9055C25.3577 11.7951 24.4502 9.81732 23.0269 8.23563C21.6037 6.65395 19.7323 5.54344 17.6621 5.05204C15.5919 4.56063 13.421 4.71164 11.4388 5.48497C9.45654 6.25829 7.75696 7.61721 6.56643 9.38073L3.80023 9.51279L4.00963 5.67997C5.39307 4.04993 7.11497 2.74081 9.05559 1.84365C10.9962 0.946483 13.109 0.482809 15.2469 0.48487C23.3766 0.48487 30.0059 7.11958 30 15.2492C29.994 23.392 23.3909 29.991 15.2469 29.991C11.5934 29.9971 8.06847 28.6423 5.35942 26.1909L5.33027 26.1635C5.26372 26.0972 5.21091 26.0184 5.17488 25.9316C5.13885 25.8449 5.12031 25.7518 5.12031 25.6579C5.12031 25.5639 5.13885 25.4709 5.17488 25.3841C5.21091 25.2973 5.26372 25.2185 5.33027 25.1522L7.35346 23.1314Z" fill="white"/>
<path d="M0.710883 0.00897217H3.56631C3.75466 0.0189778 3.93138 0.103113 4.05789 0.242998C4.1844 0.382884 4.25041 0.567151 4.2415 0.755548L3.8001 9.5128L12.577 9.09281H12.6115C12.8008 9.09281 12.9824 9.16802 13.1163 9.30189C13.2501 9.43577 13.3253 9.61734 13.3253 9.80667V12.6205C13.3253 12.8098 13.2501 12.9914 13.1163 13.1252C12.9824 13.2591 12.8008 13.3343 12.6115 13.3343H0.713858C0.524531 13.3343 0.342958 13.2591 0.209084 13.1252C0.0752098 12.9914 0 12.8098 0 12.6205V0.72283C-1.63898e-06 0.534017 0.0747997 0.352894 0.208031 0.219105C0.341263 0.0853158 0.522072 0.00975889 0.710883 0.00897217V0.00897217Z" fill="white"/>
</svg>
