<svg width="30" height="30" viewBox="0 0 30 30" fill="none" xmlns="http://www.w3.org/2000/svg">
<path opacity="0.4" d="M5.625 13.125H14.0625V3.75H5.625V13.125ZM15.9375 3.75V13.125H24.375V3.75H15.9375Z" fill="white"/>
<path d="M28.125 1.875C28.125 1.37772 27.9275 0.900806 27.5758 0.549175C27.2242 0.197544 26.7473 0 26.25 0L3.75 0C3.25272 0 2.77581 0.197544 2.42417 0.549175C2.07254 0.900806 1.875 1.37772 1.875 1.875V16.875H28.125V1.875ZM14.0625 13.125H5.625V3.75H14.0625V13.125ZM24.375 13.125H15.9375V3.75H24.375V13.125ZM29.0625 26.25H28.125V18.75H24.375V26.25H5.625V18.75H1.875V26.25H0.9375C0.68886 26.25 0.450403 26.3488 0.274587 26.5246C0.0987721 26.7004 0 26.9389 0 27.1875L0 29.0625C0 29.3111 0.0987721 29.5496 0.274587 29.7254C0.450403 29.9012 0.68886 30 0.9375 30H29.0625C29.3111 30 29.5496 29.9012 29.7254 29.7254C29.9012 29.5496 30 29.3111 30 29.0625V27.1875C30 26.9389 29.9012 26.7004 29.7254 26.5246C29.5496 26.3488 29.3111 26.25 29.0625 26.25Z" fill="white"/>
</svg>
